<svg id="Layer_1" data-name="Layer 1" xmlns="http://www.w3.org/2000/svg" viewBox="0 0 154.29181 32.04044"><defs><style>.cls-1{fill:#cd202a;}</style></defs><title>canon</title><path class="cls-1" d="M75.39644,152.10245a14.1746,14.1746,0,0,0,12.04378,6.76806c7.45059,0,11.552-6.42979,11.552-6.42979l.52791,1.71273c-3.44938,4.48613-9.61151,7.18863-16.50571,7.18863-7.9375,0-14.783-3.78651-17.93284-9.247a13.48763,13.48763,0,0,1-1.848-6.77347c0-8.84783,8.85523-16.01994,19.78054-16.01994,7.71939,0,13.93448,3.30644,17.19707,8.0981l-12.9524,7.75612,7.39193-11.35043a14.42562,14.42562,0,0,0-7.39193-2.5755,13.97021,13.97021,0,0,0-13.82912,13.91113A13.3014,13.3014,0,0,0,75.39644,152.10245Zm34.68115-.00456a5.21347,5.21347,0,1,0,5.15414-4.4306,5.24231,5.24231,0,0,0-5.15414,4.4306Zm19.34118-.00285,2.5906,8.72624h-9.08729l-1.78676-5.97534c-1.19649,3.44312-5.23443,5.97534-10.03122,5.97534-5.73929,0-10.39142-3.62478-10.39142-8.097,0-.20929.01025-.41715.03018-.62928.40832-4.17405,4.891-7.46767,10.36124-7.46767a11.81082,11.81082,0,0,1,7.7957,2.74293l-2.47527-8.27578H105.99495s1.73522-1.04074,9.43041-3.84062c7.69518-2.79959,10.13373,3.84062,10.13373,3.84062l3.85969,13.00052Zm29.05434,0v8.72624h-9.3504V141.649a2.55443,2.55443,0,0,0-2.55443-2.55443h0a2.55443,2.55443,0,0,0-2.38074,1.627v20.09974h-9.177V139.09453h-5.352s7.44547-4.51062,10.02723-4.51062a4.53,4.53,0,0,1,4.48413,4.27457c3.60086-1.94223,7.17154-4.27457,9.62831-4.27457a4.6776,4.6776,0,0,1,4.67491,4.54479v12.96635Zm14.40431,0,1.30128,4.301a3.38,3.38,0,0,0,3.39926,3.31811,3.44324,3.44324,0,0,0,3.41863-3.83862l-1.10623-3.78054-3.88475-13.27672a3.44245,3.44245,0,0,0-3.42091-3.05786,3.974,3.974,0,0,0-3.63873,3.33377l3.93145,13.00081Zm14.88068.00171a13.47481,13.47481,0,1,1,.67513-4.22075A13.47192,13.47192,0,0,1,187.7581,152.09676Zm15.48176-.00171v8.72624h-9.17728V139.09453h-5.13192s7.22536-4.51062,9.80741-4.51062a4.53068,4.53068,0,0,1,4.48471,4.27457c3.60086-1.94223,7.171-4.27457,9.62774-4.27457a4.67686,4.67686,0,0,1,4.67492,4.54479v21.69259H208.175V141.649a2.55443,2.55443,0,0,0-2.55443-2.55443h0a2.55443,2.55443,0,0,0-2.38074,1.627v11.3735Z" transform="translate(-63.23363 -129.30164)"/></svg>