<svg id="Layer_1" data-name="Layer 1" xmlns="http://www.w3.org/2000/svg" viewBox="0 0 187.64818 40.17309"><defs><style>.cls-1{fill:#fff;}</style></defs><title>target</title><g id="ExzHgc.tif"><path class="cls-1" d="M96.05933,126.39433A19.9114,19.9114,0,0,1,75.701,146.27581c-11.23781-.10912-19.81057-9.32015-19.639-21.10114.15-10.30023,9.62857-19.22891,20.24312-19.0688A20.03232,20.03232,0,0,1,96.05933,126.39433ZM75.83648,139.56827a13.60083,13.60083,0,0,0,13.74421-13.183c.17476-7.04478-6.25977-13.59292-13.4055-13.6422a13.537,13.537,0,0,0-13.44978,13.16674A13.31317,13.31317,0,0,0,75.83648,139.56827Z" transform="translate(-56.05954 -106.10375)"/><path class="cls-1" d="M196.28479,140.94446l-6.78873-.98461a11.53026,11.53026,0,0,1-11.24314.75291,13.095,13.095,0,0,1-7.37069-9.31325c-1.6149-7.1881-.53408-13.6787,4.91751-17.8923,4.03775-3.12084,8.61834-4.00388,13.428-1.91909,4.04624,1.75391,6.27793,5.006,7.19516,9.57425-1.88783,0-3.52145.07328-5.14171-.04177a1.98255,1.98255,0,0,1-1.48865-.886c-.94266-2.58517-2.57506-4.13652-5.43655-4.15162-2.94314-.01553-4.94163,1.5074-6.35355,3.94014-2.10691,3.63017-1.72617,9.78673.78408,13.11957,2.363,3.13739,6.57647,3.85583,9.2581,1.33632.97812-.919,1.37194-2.45989,2.34119-4.305h-6.39951v-5.43231h12.29856Z" transform="translate(-56.05954 -106.10375)"/><path class="cls-1" d="M153.62862,130.05049v10.47194h-6.63945v-28.6221c5.4054,0,10.71527-.23667,15.98972.09309a6.37677,6.37677,0,0,1,5.91666,5.15712c.91588,3.80109.23832,7.1842-3.49722,9.71162,5.52916,3.3171,1.38807,9.32376,4.30813,13.76277-2.06755,0-3.94824.27846-5.67273-.11965a3.71334,3.71334,0,0,1-1.97713-2.55608,20.871,20.871,0,0,1-.084-4.90283c.064-1.97047-.978-2.88817-2.80163-2.97783C157.458,129.98432,155.73774,130.05049,153.62862,130.05049Zm.10877-12.34726v5.8052c2.41-.12315,4.74152.053,6.89274-.4878a4.00719,4.00719,0,0,0,2.15716-2.97665c.13733-1.48851-1.10949-2.39829-2.803-2.35343C157.95707,117.74425,155.92737,117.70323,153.73738,117.70323Z" transform="translate(-56.05954 -106.10375)"/><path class="cls-1" d="M217.33386,122.63345v5.82933H205.64538v6.15876H219.5236v5.87083H199.06151v-28.591h20.42388v5.73673H205.7198v4.99539Z" transform="translate(-56.05954 -106.10375)"/><path class="cls-1" d="M146.29573,140.7a56.37291,56.37291,0,0,1-6.285-.08969c-.559-.06456-1.16945-1.14572-1.45463-1.87805-1.59477-4.09525-1.57532-3.91-5.93682-4.17841-2.88426-.17747-4.69048.42263-5.107,3.54589-.288,2.1597-1.582,2.97928-3.77643,2.64726a30.86387,30.86387,0,0,0-4.23469-.03425c1.5238-4.73839,2.91255-9.07045,4.31035-13.39959,1.458-4.51538,2.988-9.00894,4.35149-13.55254.44768-1.49176,1.07642-2.09459,2.71073-2.08726,5.33438.02391,5.35255-.05286,7.16881,5.07749q3.93125,11.10447,7.81178,22.22688C146.00775,139.4155,146.08792,139.87889,146.29573,140.7Zm-10.95654-11.29378c-.88874-2.39262-1.64981-4.44151-2.6018-7.00442-.85634,2.47372-1.50428,4.32219-2.128,6.1788a3.04789,3.04789,0,0,0-.00978.82562Z" transform="translate(-56.05954 -106.10375)"/><path class="cls-1" d="M228.8371,117.75688h-8.02872v-5.86367h22.89933v5.76889H235.7186c0,4.59841,0,8.91655,0,13.23468,0,2.62225-.07266,5.24726.02749,7.86567.05829,1.524-.50573,2.0563-1.98837,1.96914-1.53179-.09-3.073-.02-4.92061-.02Z" transform="translate(-56.05954 -106.10375)"/><path class="cls-1" d="M117.75445,140.57259h-7.07322V117.73608H102.9383v-5.86763H125.419v5.76411h-7.66451Z" transform="translate(-56.05954 -106.10375)"/><path class="cls-1" d="M69.25546,126.09451a6.77138,6.77138,0,0,1,6.80066-6.91819,6.91073,6.91073,0,0,1,.012,13.82144A6.75447,6.75447,0,0,1,69.25546,126.09451Z" transform="translate(-56.05954 -106.10375)"/></g></svg>