<svg id="Layer_1" data-name="Layer 1" xmlns="http://www.w3.org/2000/svg" viewBox="0 0 164.98 99.34"><defs><style>.cls-1{fill:#005699;}.cls-1,.cls-2{fill-rule:evenodd;}.cls-2{fill:#ed1b2f;}</style></defs><title>AAA_ffffff</title><path class="cls-1" d="M166.79,5.34C162-2.89,136.57,2.47,104.91,17a33,33,0,0,1,4.47,4.11c24.32-10.37,43.1-13.59,47-6.8,4.47,7.69-13.24,26.83-41.67,45.79l.36.36c34.7-22.54,57.06-45.79,51.69-55.09Z" transform="translate(-2.6 -1.47)"/><path class="cls-1" d="M16.91,94.77c-2.68-4.83,3-14,14.49-24.86h0A15.79,15.79,0,0,1,28.72,69a.18.18,0,0,1-.18-.18l-2.68-1.07C12.08,80.46,5.11,91.19,8.33,96.91,12.26,103.53,29.25,101.38,52,93l-.18-.36c-18.24,6.26-31.66,7.51-34.88,2.15Z" transform="translate(-2.6 -1.47)"/><path class="cls-2" d="M2.6,39.14C2.6,19.64,28.36,3.73,60,3.73c31.84,0,57.59,15.92,57.59,35.41,0,19.67-25.76,35.59-57.59,35.59C28.36,74.73,2.6,58.81,2.6,39.14ZM35.15,11.6l10.91,37h0L57.51,6.77A63.91,63.91,0,0,0,35.15,11.6ZM57,27l-5.9,21.64h12L57,27ZM74,48.62,84.34,11.24A65.64,65.64,0,0,0,61.81,6.77L74,48.62Zm-39,0L29.07,27l-5.9,21.64Zm68.14,4.29a23.87,23.87,0,0,0,4.47-13.77c0-9.48-5.9-17.89-15.56-24l11.09,37.74ZM91,48.62,84.88,27,79,48.62Zm1.25,4.29H77.72l-1.25,4.65,3.4,11.09A46.7,46.7,0,0,0,94.54,61.5l-2.32-8.59ZM40.52,68.65,36.23,52.91H21.92l-1.25,4.47A48.06,48.06,0,0,0,40.52,68.83v-.18ZM64.31,52.91H49.82L45.17,70.08A66.28,66.28,0,0,0,60,71.69a53,53,0,0,0,9.3-.72l-5-18.06Zm-37.2-37C18.16,21.79,12.62,30,12.62,39.14a24.48,24.48,0,0,0,4.29,13.59L27.11,15.89Z" transform="translate(-2.6 -1.47)"/></svg>