<svg id="red_white_AARP_logo" data-name="red/white AARP logo" xmlns="http://www.w3.org/2000/svg" viewBox="0 0 388.33 80.85"><defs><style>.cls-1{fill:#ee3224;}</style></defs><title>aarp_ffffff</title><g id="red"><g id="SM"><path class="cls-1" d="M377.78,15.78a3.81,3.81,0,0,1-3.45,1.55c-1.81,0-3.49-.69-4-2.41a5.15,5.15,0,0,1-.17-1.14h2a2.74,2.74,0,0,0,.18.77,2.06,2.06,0,0,0,2,1.14c.69,0,1.72-.27,1.72-1a.91.91,0,0,0-.14-.44c-.23-.42-1.07-.71-1.5-.87a13.65,13.65,0,0,1-2.85-1.28A2.46,2.46,0,0,1,370.5,10c0-1.9,1.8-2.9,3.69-2.9a3.66,3.66,0,0,1,3.38,1.74,3.25,3.25,0,0,1,.32,1.36h-2c0-.93-.81-1.46-1.75-1.46-.68,0-1.57.33-1.57,1.06s.95,1,1.52,1.16a16.45,16.45,0,0,1,3,1.23,2.38,2.38,0,0,1,1.12,2.14,2.81,2.81,0,0,1-.41,1.48" transform="translate(-2.14 -7.07)"/><polygon class="cls-1" points="386.47 10.08 386.47 2.37 384.17 10.08 382.04 10.08 379.77 2.37 379.77 10.08 377.91 10.08 377.91 0.2 380.79 0.2 383.12 8.05 385.48 0.2 388.33 0.2 388.33 10.08 386.47 10.08"/></g><path id="AARP" class="cls-1" d="M66.27,72.73l.2,0L60.85,87.91H38.53l5.43-13h.2a123.51,123.51,0,0,0,22.12-2.19ZM370,35.79c0,17.21-13.6,28.28-36,28.28H320.49V87.91H259.62L235.05,55.53V87.91H176.34l-6.45-17.77a85.64,85.64,0,0,0-14.71-1.31,94.71,94.71,0,0,0-14.95,1.27l-6.62,17.81H103.67L98.79,74.39a59.63,59.63,0,0,1,15.76,6.49l1.24-3.06c-4.52-2.69-17.15-9.08-35.28-9.08-14,0-22.94,3.42-37.52,3.42A75.27,75.27,0,0,1,2.14,60.07L8.43,44.7c1.63,1.06,17.37,11.23,35.5,11.23a81,81,0,0,0,8.17-.4l19.66-48h32.67l19.45,50.42L144.47,7.5H177.2l28.62,74.21V7.5h39.12c26.6,0,39.63,12.2,39.63,28.29S271.9,58.1,268.38,59.69l22.91,24.92V7.5H334C357.58,7.5,370,19.45,370,35.79ZM91.49,54.17l-9-24.76-8.8,23.72c1.49-.06,3.08-.09,4.8-.09A70.88,70.88,0,0,1,91.49,54.17Zm72.64-.5-9-23.95-9.12,23.95a89.52,89.52,0,0,1,9.12-.62A76.37,76.37,0,0,1,164.13,53.66Zm90.39-17.87c0-8-4-15-15.17-15h-4.29v30h4.29C249.38,50.76,254.51,45.07,254.51,35.79Zm85.41,0c0-8.75-4.64-15-13.5-15h-5.93v30h5.93C334.74,50.76,339.92,45.14,339.92,35.79Z" transform="translate(-2.14 -7.07)"/></g></svg>