<svg id="Layer_1" data-name="Layer 1" xmlns="http://www.w3.org/2000/svg" viewBox="0 0 243.79 133.47"><defs><style>.cls-1{fill:#fff;}</style></defs><title>Ace_Hardware-d32535</title><path class="cls-1" d="M89,66.41c0,2.25-.89,6.19.65,13.42,0,0,4.71,34.83,40.17,35.52,10.2-.7,14.5-2.64,19.76-5.21,19.7-9.64,23-31.25,23-31.25H154C143.28,103.1,122.45,95,122.45,95l11.72-55.07c22.52.62,23.36,21.83,23.36,21.83h18.84A41.2,41.2,0,0,0,156,26.23c-4.45-2.7-11.79-4.61-19-4.78,0,0-40.11-2.51-48,45" transform="translate(-4.19 -5.9)"/><polyline class="cls-1" points="243.79 21.68 240.11 38.83 208.56 38.83 204.88 55.99 236.51 55.99 232.91 73.15 201.28 73.15 197.68 90.3 229.31 90.3 225.64 107.38 161.92 107.38 180.06 21.68 243.79 21.68"/><polyline class="cls-1" points="46.72 107.38 36.46 52.7 0 107.38 46.72 107.38"/><polyline class="cls-1" points="91.37 107.38 56.53 107.38 44.27 40.9 71.54 0 91.37 107.38"/><path class="cls-1" d="M237.58,108.68c.65,0,1.24,0,1.24-.83s-.58-.75-1.11-.75h-1.05v1.58h.92m-.92,2.86h-.77v-5.1h1.94c1.2,0,1.8.44,1.8,1.45a1.32,1.32,0,0,1-1.32,1.4l1.45,2.24h-.87l-1.34-2.21h-.89Zm.94,1.14A3.68,3.68,0,1,0,234,109,3.57,3.57,0,0,0,237.6,112.68Zm-4.49-3.7a4.48,4.48,0,1,1,4.49,4.43A4.41,4.41,0,0,1,233.11,109Z" transform="translate(-4.19 -5.9)"/><polyline class="cls-1" points="18.32 113.43 18.32 116.02 12.29 116.02 12.29 129.26 8.74 129.26 8.74 116.02 2.71 116.02 2.71 113.43 18.32 113.43"/><path class="cls-1" d="M24.39,119.33h3.33V126h0a4.92,4.92,0,0,1,4.52-2.24c2,0,5,1.07,5,4.65v6.78H34v-5.83c0-2.72-1.25-3.35-2.85-3.35s-3.42,1.21-3.42,3.88v5.31H24.39V119.33" transform="translate(-4.19 -5.9)"/><path class="cls-1" d="M50.19,128.43c-.2-2-1.69-2.72-3.51-2.72-1.64,0-3.29.83-3.49,2.72h7m-7,2c0,2.3,1.91,3.2,3.79,3.2,1,0,2.46-.35,2.81-1.4h3.55c-.33,2.74-4.19,3.37-6.45,3.37-5.59,0-7.17-2.89-7.17-5.92s1.58-5.92,7.17-5.92c3.18,0,6.75,1.4,6.75,6v.68Z" transform="translate(-4.19 -5.9)"/><path class="cls-1" d="M65.21,119.33h3.33V126h0a4.92,4.92,0,0,1,4.52-2.24c2,0,5,1.07,5,4.65v6.78H74.81v-5.83c0-2.72-1.25-3.35-2.85-3.35s-3.42,1.21-3.42,3.88v5.31H65.21V119.33" transform="translate(-4.19 -5.9)"/><path class="cls-1" d="M91,128.43c-.2-2-1.69-2.72-3.51-2.72-1.64,0-3.29.83-3.49,2.72h7m-7,2c0,2.3,1.91,3.2,3.79,3.2,1,0,2.46-.35,2.81-1.4h3.55c-.33,2.74-4.19,3.37-6.44,3.37-5.59,0-7.17-2.89-7.17-5.92s1.58-5.92,7.17-5.92c3.18,0,6.75,1.4,6.75,6v.68Z" transform="translate(-4.19 -5.9)"/><rect class="cls-1" x="92.97" y="113.43" width="3.33" height="15.83"/><path class="cls-1" d="M110.78,133.47a3.83,3.83,0,1,0-3.51-3.81,3.58,3.58,0,0,0,3.51,3.81m-6.84-6.73c0-.9,0-2-.09-2.58H107c0,.5.09,1,.09,1.51h0a5.21,5.21,0,0,1,4.5-1.93c4.07,0,6.07,2.72,6.07,5.83,0,4.93-3.79,6-5.94,6a5.33,5.33,0,0,1-4.49-1.93h0v5.72h-3.33Z" transform="translate(-4.19 -5.9)"/><path class="cls-1" d="M121.69,126.26h-2.85v-2.1h2.85v-.94c0-2.93,1.56-4,4.71-4,.92,0,2.06,0,2.85.13v2.06c-.42,0-1-.09-1.51-.09-2.21,0-2.72.72-2.72,2.52v.33h3.42v2.1H125v8.9h-3.33v-8.9" transform="translate(-4.19 -5.9)"/><path class="cls-1" d="M143.56,132.54c0,1,.09,1.91.09,2.61h-3.2c0-.62-.09-1.21-.09-1.82h0a5.28,5.28,0,0,1-4.65,2.24c-2,0-5-1.07-5-4.65v-6.77H134V130c0,2.72,1.25,3.35,2.85,3.35s3.42-1.21,3.42-3.88v-5.3h3.33v8.39" transform="translate(-4.19 -5.9)"/><rect class="cls-1" x="142.33" y="113.43" width="3.33" height="15.83"/><path class="cls-1" d="M168.35,133.47a3.83,3.83,0,1,0-3.5-3.81,3.58,3.58,0,0,0,3.5,3.81m-6.84-6.73c0-.9,0-2-.09-2.58h3.2c0,.5.09,1,.09,1.51h0a5.2,5.2,0,0,1,4.49-1.93c4.07,0,6.07,2.72,6.07,5.83,0,4.93-3.79,6-5.94,6a5.32,5.32,0,0,1-4.5-1.93h0v5.72h-3.33Z" transform="translate(-4.19 -5.9)"/><rect class="cls-1" x="172.86" y="113.43" width="3.33" height="15.83"/><path class="cls-1" d="M190.35,130.14c-2.52,0-3.95.52-3.95,1.84,0,.75.62,1.76,2.52,1.76,1.64,0,4.12-1,4.16-3.59h-2.74m6.07,2.93c0,.73,0,1.34.09,2.09h-3.07a11.3,11.3,0,0,1-.09-1.51,6.92,6.92,0,0,1-5.21,1.93c-3.86,0-5.2-1.8-5.2-3.37,0-3.44,3.29-4,7.5-4h2.65c0-1.95-1.38-2.46-3-2.46s-2.54.68-2.67,1.54H183.9c.33-2.83,3.38-3.51,6.23-3.51,3.09,0,6.29.88,6.29,4.74Z" transform="translate(-4.19 -5.9)"/><path class="cls-1" d="M208.36,128a2.42,2.42,0,0,0-2.65-2.3c-1.75,0-3.22,1.25-3.22,4,0,2.13.83,3.9,3.18,3.9a2.46,2.46,0,0,0,2.78-2.28h3.46c0,2.89-3,4.25-6.22,4.25-4.19,0-6.66-2.12-6.66-5.92s2.65-5.92,6.55-5.92c4.36,0,6.09,1.91,6.25,4.28h-3.46" transform="translate(-4.19 -5.9)"/><path class="cls-1" d="M224.1,128.43c-.2-2-1.69-2.72-3.51-2.72-1.64,0-3.29.83-3.49,2.72h7m-7,2c0,2.3,1.91,3.2,3.79,3.2,1,0,2.46-.35,2.81-1.4h3.55c-.33,2.74-4.19,3.37-6.44,3.37-5.59,0-7.17-2.89-7.17-5.92s1.58-5.92,7.17-5.92c3.18,0,6.75,1.4,6.75,6v.68Z" transform="translate(-4.19 -5.9)"/><rect class="cls-1" x="225.78" y="126.19" width="3.07" height="3.07"/></svg>