<svg id="Layer_1" data-name="Layer 1" xmlns="http://www.w3.org/2000/svg" viewBox="0 0 68.80269 67.21812"><defs><style>.cls-1{fill:#fff;}</style></defs><title>adidas</title><g id="Ka9IK1"><path class="cls-1" d="M159.38411,139.61345H141.76748A38.70339,38.70339,0,0,1,142.361,127.246c1.35585-6.11048,3.72887-11.716,8.22275-16.45126.84558,1.013,1.71035,1.92308,2.43161,2.93542a38.45275,38.45275,0,0,1,6.61135,22.38552C159.58393,137.26274,159.46989,138.40717,159.38411,139.61345Z" transform="translate(-115.96895 -110.7947)"/><path class="cls-1" d="M116.48949,124.23985a32.06136,32.06136,0,0,1,15.00163,6.00148,33.45371,33.45371,0,0,1,8.98282,9.36826c-.27928.01248-.4525.027-.62573.027q-9.60763.00172-19.21523.01183a.70479.70479,0,0,1-.78674-.54618c-.72716-1.92112-1.55229-3.807-2.22647-5.74579a22.97617,22.97617,0,0,1-1.19312-5.80353A12.07911,12.07911,0,0,1,116.48949,124.23985Z" transform="translate(-115.96895 -110.7947)"/><path class="cls-1" d="M160.75109,139.60782a33.14569,33.14569,0,0,1,8.98968-9.37541,31.69546,31.69546,0,0,1,14.97807-5.98877,35.57825,35.57825,0,0,1-.02541,4.136,34.168,34.168,0,0,1-3.48185,10.88663.60443.60443,0,0,1-.63435.37866q-9.66748-.01474-19.335-.00832C161.12053,139.63655,160.99883,139.62279,160.75109,139.60782Z" transform="translate(-115.96895 -110.7947)"/><path class="cls-1" d="M179.86672,142.094c-.71192.97661-1.31919,1.84453-1.97464,2.6744-.10881.13776-.42777.15156-.6497.15183q-9.52656.01139-19.05313.00613-17.15333,0-34.30666.00749a.93488.93488,0,0,1-.94173-.47552c-.38-.637-.8389-1.2265-1.2523-1.84422a3.31358,3.31358,0,0,1-.22578-.52011Z" transform="translate(-115.96895 -110.7947)"/><path class="cls-1" d="M175.61831,147.54073a7.70557,7.70557,0,0,1-2.64754,2.45416,1.00188,1.00188,0,0,1-.52273.10585q-22.00827.0069-44.01653-.003a.884.884,0,0,1-.53817-.175c-.83455-.71965-1.64892-1.46271-2.47-2.198l.10813-.184Z" transform="translate(-115.96895 -110.7947)"/><path class="cls-1" d="M138.92428,166.65163V161.824h3.04783V177.61h-3.03176l-.04206-.62676a6.09105,6.09105,0,0,1-5.39868.655,6.2512,6.2512,0,0,1-3.22713-2.56359,6.00406,6.00406,0,0,1,.43894-7.10879A6.32268,6.32268,0,0,1,138.92428,166.65163Zm-3.31476,8.35928a3.31038,3.31038,0,0,0,3.31784-3.19569,3.44712,3.44712,0,0,0-3.21048-3.30687,3.33529,3.33529,0,0,0-3.4127,3.23147A3.18739,3.18739,0,0,0,135.60951,175.01091Z" transform="translate(-115.96895 -110.7947)"/><path class="cls-1" d="M159.80674,177.651h-3.00563l-.06472-.59185a6.2719,6.2719,0,0,1-5.05188.67653,5.65591,5.65591,0,0,1-2.79752-1.80248,6.0139,6.0139,0,0,1-.33229-7.824,5.94639,5.94639,0,0,1,3.79374-2.32539,6.08511,6.08511,0,0,1,4.42815.868v-4.86309c.96035,0,1.8714-.00818,2.7818.01226.09433.00212.212.16076.26845.27228a.78522.78522,0,0,1,.01327.32559q.00033,7.3476-.00106,14.69519C159.839,177.255,159.82088,177.41607,159.80674,177.651Zm-9.53823-5.86606c-.20769,1.49854,1.48516,3.30035,3.23954,3.24369a3.187,3.187,0,0,0,3.25761-3.20933,3.27915,3.27915,0,0,0-3.31939-3.311A3.33385,3.33385,0,0,0,150.26851,171.7849Z" transform="translate(-115.96895 -110.7947)"/><path class="cls-1" d="M170.10453,166.59094v-.69267h3.04823v11.72494H170.121l-.03529-.56313c-3.52812,1.91578-6.29385.63409-7.87364-1.13468a5.89022,5.89022,0,0,1-.33711-7.81372,5.80152,5.80152,0,0,1,3.801-2.30905C166.736,165.61829,167.45625,165.35424,170.10453,166.59094Zm-3.24045,8.4198a3.00822,3.00822,0,0,0,3.20351-3.16485,3.11259,3.11259,0,0,0-3.10821-3.322,3.33283,3.33283,0,0,0-3.35544,3.29562A3.24333,3.24333,0,0,0,166.86408,175.01075Z" transform="translate(-115.96895 -110.7947)"/><path class="cls-1" d="M128.52326,177.6353h-2.93394l-.046-.62853a6.49512,6.49512,0,0,1-4.31181.92042,6.26382,6.26382,0,0,1-3.84236-2.16568,6.16024,6.16024,0,0,1-.17257-7.65137c2.0456-2.52051,4.69962-3.01826,8.32233-1.48006l.05878-.72684h2.92556Zm-6.36445-2.62426a3.25329,3.25329,0,0,0,3.39691-3.40806,3.34814,3.34814,0,0,0-3.38768-3.085,3.2869,3.2869,0,0,0-3.20631,3.19253A3.16073,3.16073,0,0,0,122.15881,175.011Z" transform="translate(-115.96895 -110.7947)"/><path class="cls-1" d="M177.21417,173.82644a2.42057,2.42057,0,0,0,3.55865,1.514,1.04776,1.04776,0,0,0,.67482-1.03021c-.03651-.48738-.39085-.66158-.80794-.74815-1.05389-.21871-2.11455-.40835-3.16154-.65594a3.587,3.587,0,0,1-2.73357-1.80628,3.53152,3.53152,0,0,1,1.48742-4.67115,6.45489,6.45489,0,0,1,2.58388-.702,5.74034,5.74034,0,0,1,4.07043,1.12327,3.76565,3.76565,0,0,1,1.45166,2.83451h-3.06088c-.12634-.62132-.18333-1.35853-1.006-1.41281a10.86762,10.86762,0,0,0-2.24729.10086.70389.70389,0,0,0-.04451,1.334c.84674.27651,1.721.47429,2.59221.669a8.1228,8.1228,0,0,1,3.08162,1.09683c1.50255,1.053,1.32237,3.74016.37917,4.7771a5.33191,5.33191,0,0,1-3.58816,1.70182,6.55962,6.55962,0,0,1-4.58637-.959,3.87267,3.87267,0,0,1-1.78277-3.16581Z" transform="translate(-115.96895 -110.7947)"/><path class="cls-1" d="M169.44114,152.66741c-.22663.16231-.45225.326-.68.48671a27.72574,27.72574,0,0,1-8.85272,4.3359c-1.43731.38137-2.92085.5863-4.37817.896-.366.07777-.42838-.08944-.40857-.36693q.15306-2.14478.3215-4.28845c.02986-.37836.08693-.75457.1355-1.16568H169.375Z" transform="translate(-115.96895 -110.7947)"/><path class="cls-1" d="M131.53564,152.55969h14.09368c.0752.6462.19928,1.31732.2215,1.9918.03745,1.13675.00421,2.27568.01413,3.41357.00287.32951-.02934.46609-.45183.422a24.1104,24.1104,0,0,1-8.74685-2.69522c-1.63272-.85589-3.177-1.88065-4.7594-2.83213A4.59027,4.59027,0,0,1,131.53564,152.55969Z" transform="translate(-115.96895 -110.7947)"/><path class="cls-1" d="M143.25745,165.87792h2.99208v11.73592h-2.99208Z" transform="translate(-115.96895 -110.7947)"/><path class="cls-1" d="M146.12837,152.558h8.7418c-.29089,1.13508-2.21065,3.9259-4.3085,6.26937A24.81607,24.81607,0,0,1,146.12837,152.558Z" transform="translate(-115.96895 -110.7947)"/><path class="cls-1" d="M143.21819,164.82575c0-.9159.00807-1.7947-.00447-2.67321-.00428-.29979.1306-.37407.40006-.37042.75171.0102,1.50379.01229,2.25541-.00077.30776-.00534.43125.11792.42895.41972-.00657.86028-.00231,1.72064-.00231,2.62468Z" transform="translate(-115.96895 -110.7947)"/><path class="cls-1" d="M182.76819,164.86964a1.45749,1.45749,0,0,1-1.54662-1.4612,1.62783,1.62783,0,0,1,1.52661-1.61482,1.59281,1.59281,0,0,1,1.56711,1.61941A1.425,1.425,0,0,1,182.76819,164.86964Zm.66113-.53987a2.41836,2.41836,0,0,0,.27173-.31981,1.18256,1.18256,0,0,0-.21345-1.52261,1.25,1.25,0,0,0-1.583.11326,1.33612,1.33612,0,0,0,.00106,1.56,1.11493,1.11493,0,0,0,1.54057.15232Z" transform="translate(-115.96895 -110.7947)"/><path class="cls-1" d="M183.44619,164.313l-.74607-.50658-.251.55314-.17992-.06269v-1.73746a4.72465,4.72465,0,0,1,.715.007c.34434.05191.574.34746.39.61105a.70026.70026,0,0,0,.04935.93622c.03433.04954.00535.143.0057.21611Z" transform="translate(-115.96895 -110.7947)"/></g></svg>