<svg id="Layer_1" data-name="Layer 1" xmlns="http://www.w3.org/2000/svg" viewBox="0 0 1440 346.56"><defs><style>.cls-1{fill:#fff;}.cls-2{fill:#faed1c;}.cls-3{fill:#231f20;}</style></defs><title>Advance_Auto_Parts_ed1e30</title><path class="cls-1" d="M1157.39,21.81s92.42,25.75,163.53,2.75c63.61-6.5,84.78-5,84.78-5l-95.31,323.52-87.27,8s-56.27,11.55-85.29,9.88-80.67-14.57-80.67-14.57Z" transform="translate(-10.08 -14.57)"/><path class="cls-2" d="M286.64,15.59l-53.93-1L111.33,190.25h54.88l17.21-28.11,57.2.49L242,190.25l54,.5L286.64,15.59ZM241.53,127.51l-34.88-1,34.88-54.21v55.2Z" transform="translate(-10.08 -14.57)"/><path class="cls-2" d="M416.38,17.6,402.89,62.25s1.43-6.39-25.57-5.51c-41.38,1.36-78,61.17-75.81,92.86,2.93,42.69,38.61,41.16,38.61,41.16H409L462.43,17.6ZM375,147.59H362.91s-16.29-3-13-20.58,22.33-28.59,40.46-27.11L375,147.59Z" transform="translate(-10.08 -14.57)"/><polygon class="cls-2" points="449.09 42.17 451.41 176.18 489.56 176.18 572.78 42.17 530.94 42.17 495.6 102.39 496.52 42.17 449.09 42.17 449.09 42.17"/><path class="cls-2" d="M660.08,146.07c4.88-18.36,18.59-45.65,16.27-64.73-.35-3-4.16-29.61-40-26.61-31.29,2.62-57.68,24.11-57.68,24.11L566.14,119s39-23.27,53-23.09c11.18.14,11.15,11.54,4.66,17.08-5.39,4.61-76.16,17.55-76.73,53.19-.46,28.64,20.43,26.93,24.18,27.11,20.47,1,38.14-10,38.14-10s6,9,12.55,10,25.11,1,25.11,1l20.46-33.61s-11.15-.52-7.43-14.57Zm-50.69,17.58s-14.43,9-19.07,2,3.26-23.6,27.44-28.12l-8.37,26.11Z" transform="translate(-10.08 -14.57)"/><path class="cls-2" d="M705.18,56.74l-40,135,45.58.5,24.65-80.8s13-13.58,20.93-12.56,7.89,8.56,7,12.06S740,191.25,740,191.25l45.59.49s26-83.86,27-88.36c2.28-11.13,6.06-48.63-23.24-49.64s-43.73,24.08-43.73,24.08l4.66-21.07Z" transform="translate(-10.08 -14.57)"/><path class="cls-2" d="M929.79,61.76,917.7,107.42S874.91,81,860.51,125c-12.11,37,45.11,18.57,45.11,18.57s-12.12,44-12.57,44.16c-59.54,21.14-86.5-13.06-82.25-46C819.56,73.43,873,57.34,886,56c15.8-1.65,26.61-3.27,43.82,5.77Z" transform="translate(-10.08 -14.57)"/><path class="cls-2" d="M1037.39,84.8c-3.89-19.07-20.39-29.09-33.65-29.07-52.07.09-69.3,41.69-73.95,48.2S894,192.81,962.35,193.73c34.91.47,54.87-12,54.87-12l10.23-36.64s-15.76,12-41.38,12.54c-22.8.49-23.72-12.54-23.72-26.09l70.22.5s8.72-28.14,4.81-47.23Zm-41.09,26.65H967.93s8.29-24.19,23.24-23.58c12.09.5,5.12,23.58,5.12,23.58Z" transform="translate(-10.08 -14.57)"/><path class="cls-2" d="M188.06,232.52S164,306.6,163.63,312s-2.68,31.8,22.42,32.17,39.82-18.07,39.82-18.07.63,16.86,22.75,16.62l17.07-.36,16.06-26.75s-10,.36-10-4.34,22.42-78.42,22.42-78.42L254,232.52s-17.73,61.79-20.74,66.5-9.62,11.74-21.42,9c-2.51-.57-3.89-5.49-2.43-11.88,2.89-12.55,18.49-63.29,18.49-63.29l-39.82-.36Z" transform="translate(-10.08 -14.57)"/><path class="cls-2" d="M304.17,259.62H291.12l4.69-17.35L351,201.44h12.38L355,230.7l29.78.73-8,27.83H345.66l-10,38s-3.39,8.31,8,8.31c12,0,22.08-6.14,22.08-6.14l-10.37,34.68s-17.4,10.49-37.81,10.13c-17.8-.33-29.45-11.18-29.11-23.86.34-13,15.73-60.71,15.73-60.71Z" transform="translate(-10.08 -14.57)"/><path class="cls-2" d="M612.67,203.24l-70.93-.36L499.58,343.46h46.17l16.73-51c51.86,3.62,79-19.15,85.32-53.85s-33.08-35.42-35.13-35.42Zm-12,39.76c-1.86,18.09-17.4,21-18.74,21h-11l8.7-34.34s22.75-2.89,21.08,13.37Z" transform="translate(-10.08 -14.57)"/><path class="cls-2" d="M148.26,200.54l-42.51-.8L10.08,338.21H53.33L66.9,316.05l45.08.38,1.09,21.78,42.52.39-7.33-138.06ZM112.7,288.75,85.21,288l27.49-42.73v43.5Z" transform="translate(-10.08 -14.57)"/><path class="cls-2" d="M713.66,306.46c3.91-14.71,14.9-36.58,13-51.88-.29-2.41-3.34-23.73-32-21.33-25.08,2.1-46.23,19.32-46.23,19.32l-10.06,32.17s31.26-18.65,42.47-18.5c9,.11,8.93,9.25,3.74,13.69-4.32,3.69-61,14.06-61.49,42.62-.37,23,16.37,21.58,19.37,21.73,16.41.8,30.58-8,30.58-8s4.83,7.24,10.06,8,20.13.8,20.13.8l16.39-26.94s-8.93-.43-6-11.68ZM673,320.54s-11.57,7.24-15.29,1.61,2.62-18.92,22-22.54L673,320.54Z" transform="translate(-10.08 -14.57)"/><path class="cls-2" d="M752.28,234.59,719.15,343.73l41.16.36s14-45.53,17.06-51.32,18.55-25.86,32.79-8.67c.32.38,29.78-43,29.78-43s-10.17-8.92-21.08-7.95c-16.39,1.45-33.12,26-33.12,26l6.36-24.93-39.81.36Z" transform="translate(-10.08 -14.57)"/><path class="cls-2" d="M998.21,241.09l-8,30.72s-11.37-12.65-24.09-10.48-7.15,13.14-6,14.1c5.85,4.88,22,10.91,24.76,23.13,3,13.3-11.07,47.52-47.85,47.7-27.19.11-39.15-9.39-39.15-9.39l8.36-31.81S921.5,318.68,928,318.79c7.36.14,18-3,13.71-12.65C938.5,299,915.58,294.22,916.57,274c.63-12.67,12.71-37.49,40.49-40.12,33-3.11,41.15,7.23,41.15,7.23Z" transform="translate(-10.08 -14.57)"/><path class="cls-2" d="M840.59,261.21h-7.33L876.82,203h23l-8.36,29.27,29.78.72-8,27.83H882.08L872,298.8s-3.39,8.31,8,8.31c12,0,22.09-6.14,22.09-6.14l-10.38,34.69s-17.4,10.49-37.81,10.12c-17.8-.31-29.44-11.18-29.11-23.85.33-13,15.72-60.71,15.72-60.71Z" transform="translate(-10.08 -14.57)"/><path class="cls-3" d="M1425.23,34.37c0-6.89,4.87-12.09,11.09-12.09s11,5.2,11,12.09-4.86,12.16-11,12.16-11.09-5.16-11.09-12.16ZM1436.32,49c7.43,0,13.76-6.17,13.76-14.59s-6.33-14.52-13.76-14.52-13.83,6.17-13.83,14.52S1428.82,49,1436.32,49Zm-2.88-13.44h2.74l4.14,7.28H1443l-4.47-7.39a4.24,4.24,0,0,0,4.07-4.62c0-3.3-1.83-4.76-5.55-4.76h-6V42.8h2.38V35.52Zm0-2.16v-5.2h3.25c1.65,0,3.42.4,3.42,2.47,0,2.58-1.8,2.74-3.81,2.74Z" transform="translate(-10.08 -14.57)"/><polygon class="cls-2" points="1022.56 329.58 1120.35 6.17 1079.97 6.17 981.29 329.58 1022.56 329.58"/><path class="cls-2" d="M448.38,231.79c-53.85-.61-76.42,46-79,66.13-3.84,30.43,15.58,47,40.15,47,47.2,0,69.28-40.8,74.95-54.57,8.44-20.49,2.68-58.1-36.14-58.55Zm-19.14,77.36c-8,3.48-16.42.81-18.86-9.71-1.62-7,.13-25.42,17.84-32.84,12.77-5.36,19.23,6.15,19,14.06-.19,5.31-2.47,21.81-17.94,28.49Z" transform="translate(-10.08 -14.57)"/><path class="cls-3" d="M1216.18,99.47l-19,63.36a218,218,0,0,0,36.08-1.26c19.35-2.45,34.66-5.77,49.21-8.71l19-63.5c-14.63,2.94-30,6.26-49.35,8.71A226.14,226.14,0,0,1,1216.18,99.47Z" transform="translate(-10.08 -14.57)"/><path class="cls-3" d="M1235.58,34.72a334.65,334.65,0,0,1-78.2-12.91l-20.18,65.34c7,2,40.71,11,79,12.31Z" transform="translate(-10.08 -14.57)"/><path class="cls-3" d="M1386.7,84.08l19-64.51c-38-3.94-60.21-.08-84.78,5l-19.41,64.79C1326.59,84.31,1349.56,80.44,1386.7,84.08Z" transform="translate(-10.08 -14.57)"/><path class="cls-3" d="M1177.5,228.57,1157.9,294a227.13,227.13,0,0,0,35.7-1.4c19.42-2.45,34.87-5.73,49.62-8.61L1263,218.12c-15.48,3-31.54,6.47-51.48,9A223.45,223.45,0,0,1,1177.5,228.57Z" transform="translate(-10.08 -14.57)"/><path class="cls-3" d="M1197.2,162.83c-37.9-1.55-71.57-10.87-79.29-13.16l-20.6,66.72c9.68,2.67,43.17,11.15,80.2,12.17Z" transform="translate(-10.08 -14.57)"/><path class="cls-3" d="M1243.22,284l-20.09,67.11c45.52-5.3,87.27-8,87.27-8l18.86-64C1291.8,275.33,1268.55,279,1243.22,284Z" transform="translate(-10.08 -14.57)"/><path class="cls-3" d="M1282.49,152.86,1263,218.12c25.36-4.93,49.18-8.63,85.75-5L1368,147.63C1330.52,143.9,1307.61,147.79,1282.49,152.86Z" transform="translate(-10.08 -14.57)"/><path class="cls-3" d="M1077.13,281.71l-20,64.68s32.78,14.85,80.67,14.57l20.06-67C1120,292.75,1085.77,284.07,1077.13,281.71Z" transform="translate(-10.08 -14.57)"/></svg>