<svg id="Layer_1" data-name="Layer 1" xmlns="http://www.w3.org/2000/svg" viewBox="0 0 140.17 27.87"><defs><style>.cls-1{fill:#fff;}.cls-1,.cls-2{fill-rule:evenodd;}.cls-2{fill:#e4494b;}</style></defs><title>Aeropostale-0b4c82</title><path class="cls-1" d="M123.33,31.51l.13-.63.13-20.13a1.28,1.28,0,0,0-.13-.38h3.8l-.25.51V28.22h3.93l.38-.25v3.55Z" transform="translate(-2.02 -3.78)"/><path class="cls-1" d="M115.6,31.51l.13-.38-.51-5.06h-3.17L111.55,31v.51H107.5l.25-.51,1.39-8.74L110.79,11l-.13-.63H117a4.65,4.65,0,0,0,.13,2.28L119.65,31l.25.51ZM115,22.4l-.89-8.23h-.51l-1.14,8.23Z" transform="translate(-2.02 -3.78)"/><path class="cls-1" d="M10,31.39l.13-.38-.51-5.06H6.46l-.51,4.94v.51H2l.13-.51,1.39-8.74L5.19,11l-.13-.76h6.33a4.65,4.65,0,0,0,.13,2.28l2.53,18.36.25.51Zm-.63-9.12-.89-8.1C8.23,14,8.1,14,8,14.17l-1.14,8.1Z" transform="translate(-2.02 -3.78)"/><polygon class="cls-1" points="103.7 9.62 103.07 9.37 101.3 9.37 101.3 27.22 101.42 27.73 97.62 27.73 97.75 27.22 97.88 9.37 95.98 9.37 95.6 9.62 95.6 6.58 103.7 6.58 103.7 9.62 103.7 9.62"/><path class="cls-1" d="M90.91,16.19a.47.47,0,0,0,.13-.38V14.29a1,1,0,0,0-.13-.51,1.47,1.47,0,0,0-1.27-.51c-.38,0-.76.38-1,.76a3.14,3.14,0,0,0-.13,1.14s-.13,1.65-.13,2.41.76.76,1,.89l3.8,1a1.07,1.07,0,0,1,.89.51,1.56,1.56,0,0,1,.51,1l-.13,7.72a3.41,3.41,0,0,1-2.66,2.53c-2.28.63-5.06.51-6.58-1.65A3.75,3.75,0,0,1,85,28.35V24.8c0-.13-.13-.13-.13-.38h3.67a1.27,1.27,0,0,1-.13.38v1.65a1.86,1.86,0,0,0,.76,1.65,1.08,1.08,0,0,0,.89,0c1.27-.38,1-2.28,1-3.67,0-.63.13-1.52-.51-1.9a2.2,2.2,0,0,0-.89-.38L86,21.26a.74.74,0,0,0-.51-.13A.84.84,0,0,1,85,20.5V13a3.52,3.52,0,0,1,2-2.41c2-.63,4.68-.63,6.33.51,1.14.76,1.27,1.9,1.27,3.17v1.52a.47.47,0,0,0,.13.38Z" transform="translate(-2.02 -3.78)"/><path class="cls-1" d="M52.17,29.23c-1,1.9-2.91,2.41-4.94,2.41a4.84,4.84,0,0,1-4.05-2.28A2.55,2.55,0,0,1,42.8,28V13.53A4.45,4.45,0,0,1,46,10.37a5.39,5.39,0,0,1,5.57,1.39,2.78,2.78,0,0,1,.89,2.15V27.84a4.33,4.33,0,0,1-.25,1.39ZM49,24.42V14.55a1.15,1.15,0,0,0-.38-.89,1.63,1.63,0,0,0-1.52-.13,1,1,0,0,0-.63.89l-.13,11.9a1.33,1.33,0,0,0,.51,1.27,1.39,1.39,0,0,0,1.39.13c.25-.13.76-.51.76-.89V24.42Z" transform="translate(-2.02 -3.78)"/><path class="cls-1" d="M39,31.39H35.7c-.25-.25-.25-.76-.38-1.14-.13-2.28.13-4.69,0-7-.13-.25-.25-.63-.51-.76a2.28,2.28,0,0,0-1.27-.25h-.63v8.36c0,.38.13.51.13.76H29.37l.13-.76V10.87l-.13-.63h6.84a3.27,3.27,0,0,1,2.41,1.65,5.5,5.5,0,0,1,.25,1.65V17a8.35,8.35,0,0,1-.51,2.91,1.93,1.93,0,0,1-1.39.76v.51a1.6,1.6,0,0,1,.76.13c1,.38,1,1.52,1.14,2.53V31a.46.46,0,0,0,.13.38ZM35.45,16.07V13.79a.83.83,0,0,0-1-.63H32.92v5.7h1.39c.38,0,1.14,0,1.14-.63V16.07Z" transform="translate(-2.02 -3.78)"/><path class="cls-1" d="M18,31.39l.25-.63v-20a.47.47,0,0,0-.13-.38v-.13H25.2v3l-.38-.13h-3v5.7h3l.38-.13v3.42a1,1,0,0,0-.63-.25H21.78v6.46h3a1.27,1.27,0,0,0,.38-.13v3.17Z" transform="translate(-2.02 -3.78)"/><path class="cls-1" d="M135,31.51l.13-.63v-20a1,1,0,0,0-.13-.51h7.22v3l-.51-.13h-2.91l-.13,5.7h3.17l.38-.13v3.42a1.8,1.8,0,0,0-.76-.25h-2.79v6.46h3a1.28,1.28,0,0,0,.38-.13v3.17Z" transform="translate(-2.02 -3.78)"/><path class="cls-1" d="M80.15,29.23a4.68,4.68,0,0,1-4.81,2.41,5.27,5.27,0,0,1-4.18-2.15A6.69,6.69,0,0,1,70.78,28l.13-14.43a4.09,4.09,0,0,1,3-3.17,5.66,5.66,0,0,1,5.57,1.39,2.9,2.9,0,0,1,1,2.15L80.4,27.84a2.21,2.21,0,0,1-.25,1.39ZM77,24.42V14.55a.9.9,0,0,0-.38-.76,1.35,1.35,0,0,0-1.52-.13.8.8,0,0,0-.63.76v11.9c0,.63,0,1,.38,1.39a1.77,1.77,0,0,0,1.39,0,1.09,1.09,0,0,0,.76-.89V24.42Z" transform="translate(-2.02 -3.78)"/><path class="cls-1" d="M65.59,22.52c-1.52.76-3.29.51-5.06.63v8c0,.13,0,.25.13.25h-3.8c0-.13.13-.13.13-.25V10.87a2.13,2.13,0,0,0-.25-.63H62.8c1.39.13,3.17.13,3.67,1.77.13.25.13,4.05.13,4.05v4.81a2.09,2.09,0,0,1-1,1.65Zm-2.66-6.08V14.17a.83.83,0,0,0-1-.63H60.52v6.33h1.27c.38,0,1.14.13,1.14-.63V16.45Z" transform="translate(-2.02 -3.78)"/><polygon class="cls-2" points="23.55 0 23.55 0 15.45 4.18 23.55 4.18 23.55 0 23.55 0"/></svg>