<?xml version="1.0" encoding="utf-8"?>
<!-- Generator: Adobe Illustrator 21.0.2, SVG Export Plug-In . SVG Version: 6.00 Build 0)  -->
<svg version="1.1" xmlns="http://www.w3.org/2000/svg" xmlns:xlink="http://www.w3.org/1999/xlink" x="0px" y="0px"
	 viewBox="0 0 329.4 308" style="enable-background:new 0 0 329.4 308;" xml:space="preserve">
<style type="text/css">
	.st0{display:none;}
	.st1{fill:#FFFFFF;}
</style>
<g id="Grid" class="st0">
</g>
<g id="Layer_1">
</g>
<g id="Desktop">
</g>
<g id="Guides">
</g>
<g id="Page_1">
	<g id="Layer_1_1_">
		<path class="st1" d="M23.6,265c1.1,2.8,1.3,3.2,2.6,4c1.1,0.6,2,0.6,2,1.1c0,0.3-0.2,0.3-0.9,0.3c-1.3,0-2.2-0.1-4.8-0.1h-4.6
			c-0.3,0-0.6,0-0.6-0.5c0-0.4,0.4-0.6,1-0.7c0.9-0.1,1.6-0.3,1.6-1c0-0.4-0.2-0.8-0.4-1.4l-1.5-5.1c-0.1-0.3-0.2-0.4-1-0.4
			c-1,0-2.2-0.1-4.8-0.1c-1,0-1.3,0.5-1.9,2c-0.7,1.6-1.8,3.8-1.8,4.6c0,1.1,0.9,1.2,1.8,1.3c0.4,0,1.1,0.1,1.1,0.7
			c0,0.5-0.3,0.6-1.2,0.6c-0.5,0-1.2-0.1-2.6-0.1c-1.5,0-2.7,0.1-4.3,0.1c-0.4,0-0.7,0-0.7-0.3c0-0.7,1.1-0.5,2-1.1
			c0.8-0.5,1.3-1.1,1.7-1.8l6.5-13.9c1.5-3.2,2.4-5.8,3.3-8.1h0.5L23.6,265L23.6,265z M14.8,253c-0.1-0.2-0.2-0.2-0.3-0.2
			c-0.2,0-0.3,0.2-0.5,0.5L12,258c-0.2,0.4-0.3,0.7-0.3,1c0,0.3,1.5,0.3,2.7,0.3c1.5,0,2.6,0,2.6-0.2c0-0.1,0-0.3-0.1-0.4L14.8,253
			L14.8,253z"/>
		<path class="st1" d="M44.8,260.9c0.4,0.9,0.8,1.7,1.1,1.7c0.3,0,1-1.8,0.6-0.9l5-12.5c0.7-1.8,1.1-2.3,2.8-2.3h5.9
			c0.7,0,0.8,0.2,0.8,0.6c0,0.4-0.1,0.7-1.7,0.8c-1.9,0.2-2.2,0.3-2.2,1.7v16.4c0,1.6,0.5,2.3,2.1,2.6c1.3,0.3,1.9,0.6,1.9,0.8
			c0,0.5-0.2,0.6-1.3,0.6c-1,0-3-0.2-4.4-0.2c-1.5,0-3.2,0.1-5.2,0.1c-0.5,0-0.6,0-0.6-0.5c0-0.5,0.5-0.7,1.5-0.8
			c1.4-0.1,1.6-0.6,1.6-1v-15c0-0.8,0-1-0.2-1c-0.2,0-0.6,0.8-1.1,2.1l-6.2,15.3c-0.1,0.3-0.3,0.4-0.5,0.4c-0.3,0-0.4-0.2-0.6-0.7
			l-6.6-15c-0.3-0.7-0.9-1.9-1.1-1.9c-0.2,0-0.2,0.2-0.2,0.4l-0.2,12.1c0,3.7,0.3,4.4,1.6,4.5c2.1,0.2,2.4,0.3,2.4,0.9
			c0,0.5-0.3,0.5-1.2,0.5c-0.7,0-2.2-0.1-4.2-0.1c-1.7,0-2.5,0.1-3.5,0.1c-0.6,0-0.9,0-0.9-0.5c0-0.6,0.1-0.8,1.8-0.9
			c1-0.1,1.7-0.4,1.8-2.9l0.8-15.7c0.1-1.5-0.3-1.9-2.2-2.1c-1.5-0.2-1.6-0.4-1.6-0.9c0-0.3,0.1-0.6,0.8-0.6c0.6,0,2.2,0.2,3.2,0.2
			c1.2,0,2.2-0.2,2.5-0.2c1.5,0,1.6,0.1,1.8,0.4L44.8,260.9L44.8,260.9z"/>
		<path class="st1" d="M66.8,250.5c0-0.9,0-2.2-1.2-2.3c-1.9-0.2-2.1-0.3-2.1-0.8c0-0.5,0.2-0.5,0.8-0.5c1.6,0,3.4,0.2,8,0.2
			c2.4,0,5-0.2,8.3-0.2c0.8,0,0.8,0.1,0.8,3.2c0,1.4,0,2.3-0.6,2.3c-0.6,0-0.6-1.1-1.4-2.4c-0.7-1.1-2.8-1.7-6-1.7
			c-1.7,0-1.8,0.1-1.8,2.2v5.9c0,0.8,0.2,1,2.4,1c2.2,0,2.7-0.5,3.2-1.3c0.6-0.9,0.9-2.1,1.5-2.1c0.6,0,0.5,1,0.5,1.1
			c0,0.9-0.3,2.9-0.3,4.4c0,1.6,0.2,2.2,0.2,2.6c0,0.3-0.1,0.5-0.6,0.5c-0.5,0-0.5-0.1-0.9-1.9c-0.3-1.1-1.1-1.9-4.4-1.9
			c-1.4,0-1.6,0.2-1.6,1.1v7.3c0,1.4,1.8,1.7,3.6,1.7c1.6,0,2.1-0.3,2.9-0.7c2.7-1.5,2.7-3.8,3.5-3.8c0.5,0,0.5,0.4,0.5,0.7
			c0,0.5-0.5,2-0.6,2.9c-0.1,0.8-0.4,2.3-0.7,2.3c-3.3,0-4.7-0.1-6.2-0.1h-8.2c-1.9,0-2.4,0.1-2.7,0.1c-0.5,0-0.9-0.1-0.9-0.6
			c0-0.8,0.8-0.8,1.1-0.8c2.5-0.3,2.9-0.4,2.9-4.2V250.5L66.8,250.5z"/>
		<path class="st1" d="M88.4,250c0-1.1-0.7-1.6-1.3-1.7c-2.2-0.2-2.3-0.3-2.3-0.7c0-0.5,0.2-0.6,0.7-0.6c1.7,0,5.4,0.2,6.1,0.2
			c0.6,0,4.2-0.2,5.9-0.2c3.4,0,7.4,1.3,7.4,5.4c0,4.9-4.5,5.1-4.5,5.8c0,0.3,0.1,0.5,0.4,0.9l4.8,8.2c0.7,1.1,1.5,1.6,2.3,1.9
			c1.5,0.4,1.7,0.5,1.7,0.7c0,0.3,0,0.4-0.4,0.4h-6.7c-0.3,0-0.6-0.1-0.7-0.4c-0.7-1.4-1.5-2.9-1.7-3.3c-3.5-7-4.3-7.6-5.7-7.6
			c-1.1,0-1.3,0.1-1.3,3.2v4.2c0,1.9,0.3,2.6,1.1,2.7c2.2,0.2,2.6,0.4,2.6,0.8c0,0.4-0.2,0.5-0.6,0.5c-1.3,0-2.1-0.1-5.5-0.1h-5.2
			c-0.7,0-0.8,0-0.8-0.5c0-0.5,0.3-0.7,1.2-0.8c0.7-0.1,2.5-0.2,2.5-1.8c0-0.8,0.3-2,0.3-8.5V250L88.4,250z M92.9,256.9
			c0,0.7,0.2,0.8,0.7,0.8c3.4,0,6.8-0.2,6.8-4.8c0-4.1-3.7-4.8-6.1-4.8c-1.2,0-1.3,0.9-1.3,2.6V256.9L92.9,256.9z"/>
		<path class="st1" d="M115.1,250.4c0-1.6-0.3-2.1-1.8-2.1c-1,0-1.1-0.2-1.1-0.7c0-0.5,0.2-0.7,1.1-0.7c0.9,0,1.9,0.2,3.8,0.2
			c3.1,0,3.5-0.2,4.8-0.2c0.9,0,1.1,0.1,1.1,0.4c0,0.4-0.3,0.6-1.2,0.7c-1.9,0.1-2.1,0.4-2.1,1.8v16.7c0,2,0.7,2,2.1,2.4
			c0.8,0.2,1.3,0.3,1.3,0.9c0,0.3-0.1,0.5-0.9,0.5c-1,0-2.9-0.1-5.7-0.1c-2.2,0-3.4,0.1-4.4,0.1c-0.6,0-0.6-0.3-0.6-0.7
			c0-0.5,0.2-0.6,1.7-0.6c1.3-0.1,2.2-0.1,2.2-3V250.4L115.1,250.4z"/>
		<path class="st1" d="M124.9,259c0-9.3,7.3-12.6,13-12.6c2.9,0,6.7,0.9,6.9,2c0.1,0.5,0.2,2.6,0.2,2.9c0,0.3-0.1,0.5-0.5,0.5
			c-1,0-2.4-4.2-6.7-4.2c-4.1,0-8,4.3-8,10.8c0,9.9,5.8,11.2,7.6,11.2c5,0,6.5-5.1,7.3-5.1c0.3,0,0.4,0.3,0.4,0.7
			c0,0.4-0.5,3-0.7,3.8c-0.4,1.6-5.1,2.1-6.8,2.1C131.4,270.9,124.9,266.3,124.9,259L124.9,259z"/>
		<path class="st1" d="M168.4,265c1.1,2.8,1.3,3.2,2.6,4c1.1,0.6,2,0.6,2,1.1c0,0.3-0.1,0.3-0.9,0.3c-1.3,0-2.2-0.1-4.8-0.1h-4.6
			c-0.3,0-0.6,0-0.6-0.5c0-0.4,0.3-0.6,1-0.7c0.9-0.1,1.6-0.3,1.6-1c0-0.4-0.2-0.8-0.4-1.4l-1.6-5.1c-0.1-0.3-0.2-0.4-1-0.4
			c-1,0-2.2-0.1-4.8-0.1c-0.9,0-1.3,0.5-1.9,2c-0.7,1.6-1.8,3.8-1.8,4.6c0,1.1,0.9,1.2,1.8,1.3c0.4,0,1.1,0.1,1.1,0.7
			c0,0.5-0.3,0.6-1.2,0.6c-0.5,0-1.2-0.1-2.6-0.1c-1.5,0-2.7,0.1-4.3,0.1c-0.4,0-0.7,0-0.7-0.3c0-0.7,1.1-0.5,2-1.1
			c0.8-0.5,1.3-1.1,1.7-1.8l6.5-13.9c1.5-3.2,2.4-5.8,3.3-8.1h0.5L168.4,265L168.4,265z M159.7,253c-0.1-0.2-0.2-0.2-0.3-0.2
			c-0.1,0-0.3,0.2-0.5,0.5l-2.1,4.7c-0.2,0.4-0.3,0.7-0.3,1c0,0.3,1.5,0.3,2.7,0.3c1.5,0,2.6,0,2.6-0.2c0-0.1,0-0.3-0.1-0.4
			L159.7,253L159.7,253z"/>
		<path class="st1" d="M178.7,250.7c0-1.7-0.4-2-3.1-2.4c-0.5-0.1-0.6-0.1-0.6-0.7c0-0.3,0.1-0.5,0.6-0.5c5.4,0,6.2-0.1,7.7-0.2
			l9.2,11.3c2.8,3.4,4.2,4.5,4.7,5c0.2,0.2,0.2,0.2,0.3,0.2c0.1,0,0.2-0.1,0.2-0.2V251c0-2.3-0.3-2.6-3.1-2.7
			c-0.7,0-0.8-0.2-0.8-0.7c0-0.5,0.1-0.8,1-0.8c0.9,0,2.3,0.1,3.5,0.1c2.1,0,3.1-0.1,3.7-0.1c0.6,0,0.9,0.1,0.9,0.6
			c0,0.4-0.1,0.5-2.1,0.8c-1,0.2-1.2,0.6-1.3,2.7c-0.2,3.7-0.3,8-0.3,12.4v7.6c0,0.6-0.2,0.8-0.4,0.8c-0.7,0-1.1-1.1-2.8-3.1
			l-15.5-17.4c-0.1-0.1-0.2,0-0.2,0.1v7c0,3,0.2,5.4,0.2,7.7c0,1.9,0.4,2.5,2.9,3c1.1,0.2,1.4,0.4,1.4,0.7c0,0.6-0.4,0.6-1.1,0.6
			c-1.4,0-2.7-0.1-4.1-0.1c-1.6,0-2.6,0.1-3.6,0.1c-0.6,0-1.1,0-1.1-0.6c0-0.4,0.5-0.7,1.6-0.8c1.4-0.1,2.1-0.4,2.1-2.4
			c0-2.1,0.3-7.8,0.3-8.3V250.7L178.7,250.7z"/>
		<path class="st1" d="M219.1,250.5c0-0.9,0-2.2-1.2-2.3c-2-0.2-2.1-0.3-2.1-0.8c0-0.5,0.2-0.5,0.8-0.5c1.6,0,3.3,0.2,8,0.2
			c2.4,0,5-0.2,8.3-0.2c0.8,0,0.8,0.1,0.8,3.2c0,1.4,0,2.3-0.6,2.3c-0.6,0-0.6-1.1-1.4-2.4c-0.7-1.1-2.8-1.7-6.1-1.7
			c-1.7,0-1.7,0.1-1.7,2.2v5.9c0,0.8,0.1,1,2.4,1c2.2,0,2.7-0.5,3.2-1.3c0.6-0.9,0.9-2.1,1.5-2.1c0.6,0,0.5,1,0.5,1.1
			c0,0.9-0.3,2.9-0.3,4.4c0,1.6,0.2,2.2,0.2,2.6c0,0.3-0.1,0.5-0.6,0.5c-0.5,0-0.5-0.1-1-1.9c-0.3-1.1-1.1-1.9-4.4-1.9
			c-1.4,0-1.6,0.2-1.6,1.1v7.3c0,1.4,1.8,1.7,3.6,1.7c1.6,0,2.1-0.3,2.9-0.7c2.7-1.5,2.7-3.8,3.5-3.8c0.5,0,0.5,0.4,0.5,0.7
			c0,0.5-0.5,2-0.6,2.9c-0.1,0.8-0.4,2.3-0.7,2.3c-3.3,0-4.7-0.1-6.2-0.1h-8.1c-1.9,0-2.4,0.1-2.7,0.1c-0.5,0-0.9-0.1-0.9-0.6
			c0-0.8,0.8-0.8,1.1-0.8c2.5-0.3,2.9-0.4,2.9-4.2V250.5L219.1,250.5z"/>
		<path class="st1" d="M257.8,265c1.1,2.8,1.3,3.2,2.6,4c1.1,0.6,2,0.6,2,1.1c0,0.3-0.2,0.3-0.9,0.3c-1.3,0-2.2-0.1-4.8-0.1H252
			c-0.3,0-0.6,0-0.6-0.5c0-0.4,0.3-0.6,1-0.7c0.9-0.1,1.6-0.3,1.6-1c0-0.4-0.2-0.8-0.4-1.4l-1.6-5.1c-0.1-0.3-0.2-0.4-1-0.4
			c-1,0-2.2-0.1-4.8-0.1c-1,0-1.3,0.5-1.9,2c-0.7,1.6-1.8,3.8-1.8,4.6c0,1.1,0.9,1.2,1.8,1.3c0.4,0,1.1,0.1,1.1,0.7
			c0,0.5-0.3,0.6-1.2,0.6c-0.5,0-1.2-0.1-2.6-0.1c-1.5,0-2.7,0.1-4.4,0.1c-0.4,0-0.6,0-0.6-0.3c0-0.7,1.1-0.5,2-1.1
			c0.8-0.5,1.3-1.1,1.7-1.8l6.5-13.9c1.5-3.2,2.4-5.8,3.3-8.1h0.5L257.8,265L257.8,265z M249,253c-0.1-0.2-0.2-0.2-0.3-0.2
			c-0.2,0-0.3,0.2-0.5,0.5l-2.1,4.7c-0.2,0.4-0.3,0.7-0.3,1c0,0.3,1.5,0.3,2.8,0.3c1.5,0,2.6,0,2.6-0.2c0-0.1,0-0.3-0.1-0.4L249,253
			L249,253z"/>
		<path class="st1" d="M283.9,268.3c0,1-4.8,2.6-9,2.6c-6.1,0-12.7-3.3-12.7-11.9c0-8.1,5.9-12.6,13.2-12.6c2.9,0,7.4,0.5,7.4,2.1
			c0,1.2,0.2,2.4,0.2,3.6c0,0.2-0.1,0.3-0.4,0.3c-0.3,0-0.4-0.1-0.9-1.2c-1-2.2-2.9-3.7-6-3.7c-5.5,0-9,4.8-9,11.5
			c0,6.7,4.9,10.5,8.3,10.5c4.3,0,5-0.4,5-6.5c0-2-0.1-2.5-1.8-2.6c-2.4-0.2-2.4-0.2-2.4-0.7c0-0.4,0.2-0.5,0.9-0.5h5.9
			c1.5,0,2.7-0.1,3.3-0.1c0.7,0,1.1,0,1.1,0.6c0,0.4-0.1,0.5-1.6,0.8c-1,0.2-1.3,0.5-1.4,2.4L283.9,268.3L283.9,268.3z"/>
		<path class="st1" d="M292.2,249.6c0-0.3-0.5-1.3-2-1.3c-1.3,0-1.5-0.4-1.5-0.8c0-0.4,0.2-0.6,0.7-0.6c1.7,0,3.4,0.2,5,0.2
			c1.7,0,3.3-0.2,5-0.2c0.8,0,1.1,0.1,1.1,0.7c0,0.3-0.2,0.6-0.8,0.7c-1.9,0.2-2.9,0.4-2.9,1.4v17c0,1.9,0.2,2.1,1.1,2.1h2.7
			c5.8,0,6.6-4.1,7.5-4.1c0.3,0,0.5,0.1,0.5,0.8c0,1.3-0.7,4.8-1.4,4.8c-2.9,0-8.3-0.1-11-0.1c-1.7,0-4.2,0.1-6.3,0.1
			c-1,0-1.4,0-1.4-0.6c0-0.6,1.2-0.6,2.4-0.9c1.2-0.2,1.3-0.4,1.3-4.6V249.6L292.2,249.6z"/>
		<path class="st1" d="M314.1,250.5c0-0.9,0-2.2-1.2-2.3c-1.9-0.2-2.1-0.3-2.1-0.8c0-0.5,0.2-0.5,0.8-0.5c1.6,0,3.4,0.2,8,0.2
			c2.4,0,5-0.2,8.3-0.2c0.8,0,0.8,0.1,0.8,3.2c0,1.4,0,2.3-0.6,2.3c-0.6,0-0.6-1.1-1.4-2.4c-0.7-1.1-2.8-1.7-6-1.7
			c-1.7,0-1.7,0.1-1.7,2.2v5.9c0,0.8,0.1,1,2.4,1c2.2,0,2.7-0.5,3.2-1.3c0.6-0.9,0.9-2.1,1.5-2.1c0.6,0,0.5,1,0.5,1.1
			c0,0.9-0.3,2.9-0.3,4.4c0,1.6,0.1,2.2,0.1,2.6c0,0.3-0.1,0.5-0.6,0.5c-0.4,0-0.5-0.1-0.9-1.9c-0.3-1.1-1.1-1.9-4.4-1.9
			c-1.4,0-1.6,0.2-1.6,1.1v7.3c0,1.4,1.8,1.7,3.6,1.7c1.6,0,2.1-0.3,2.9-0.7c2.7-1.5,2.7-3.8,3.5-3.8c0.5,0,0.5,0.4,0.5,0.7
			c0,0.5-0.4,2-0.6,2.9c-0.2,0.8-0.4,2.3-0.7,2.3c-3.3,0-4.7-0.1-6.2-0.1h-8.2c-1.9,0-2.4,0.1-2.7,0.1c-0.5,0-0.9-0.1-0.9-0.6
			c0-0.8,0.8-0.8,1.1-0.8c2.5-0.3,2.8-0.4,2.8-4.2V250.5L314.1,250.5z"/>
		<path class="st1" d="M80,281.7c6.7,0,11.1,4.8,11.1,9.9c0,5.1-4.4,9.9-11.1,9.9c-6.7,0-11.1-4.8-11.1-9.9
			C68.9,286.5,73.3,281.7,80,281.7L80,281.7L80,281.7z M80,300.4c4,0,6.8-3.3,6.8-8.8c0-6.3-2.8-8.8-6.8-8.8c-4,0-6.8,2.5-6.8,8.8
			C73.2,297.1,76,300.4,80,300.4L80,300.4z"/>
		<path class="st1" d="M95.8,284.8c0-0.9-0.1-1.4-0.9-1.4c-1.9,0-1.9-0.2-1.9-0.5c0-0.6,0.5-0.6,1.1-0.6h7.5c0.6,0,0.6,0.1,0.6,0.6
			c0,0.3-0.1,0.4-1,0.4c-1.5,0-1.7,0.1-1.7,2.7l-0.1,8.2c-0.1,5.2,2,6.1,5.5,6.1c3.1,0,6-1.2,6-4.6l0.2-10.3c0-1.1-0.1-1.6-2.1-2.1
			c-0.9-0.2-1.1-0.3-1.1-0.6c0-0.3,0.1-0.5,0.6-0.5c0.4,0,1,0.1,1.5,0.1h4.7c0.2,0,0.2,0.2,0.2,0.3c0,0.4-0.1,0.4-1,0.6
			c-1.3,0.4-1.7,0.7-1.7,2.1l-0.2,9.8c-0.1,4.4-2.6,6.3-7.7,6.3c-2.5,0-8.6-0.7-8.5-5.7L95.8,284.8L95.8,284.8z"/>
		<path class="st1" d="M133.1,282.7c2.9,0,1.9-1.4,2.8-1.4c0.2,0,0.4,0.2,0.4,0.9c0,4.4-0.2,4.7-0.6,4.7c-0.2,0-0.4-0.2-0.5-0.5
			c-0.5-2-1.1-2.5-5.3-2.5c-1.3,0-1.5,0.1-1.5,0.7v13.2c0,1.5,0.1,2.1,1,2.1c1.8,0,2.3,0.2,2.3,0.6c0,0.4-0.3,0.5-0.9,0.5
			c-0.9,0-3.2-0.1-4.2-0.1c-1.5,0-3,0.2-4.4,0.2c-0.6,0-0.7-0.1-0.7-0.4c0-0.7,1.6-0.4,2.5-0.8c0.3-0.2,0.7-1.2,0.7-1.7v-12.5
			c0-1.7-0.1-1.7-2.4-1.8c-4.4-0.1-4.6,3.4-5.6,3.4c-0.4,0-0.4-0.2-0.4-0.3c0-0.8,0.8-2.8,1.4-4.5c0.3-0.8,0.4-0.9,0.7-0.9
			c0.8,0-0.3,1.2,3,1.2H133.1L133.1,282.7z"/>
		<path class="st1" d="M144.6,289.8c0,0.6,0.2,0.8,1.2,0.8c3,0,3.8-0.6,4.1-1.2c0.5-0.9,0.5-1.6,0.9-1.6c0.5,0,0.6,0.1,0.6,3.8
			c0,2.8,0,2.9-0.5,2.9c-0.3,0-0.5-0.5-0.7-1.2c-0.3-0.9-0.8-1.7-3.6-1.7c-1.8,0-1.9,0.1-1.9,1.1v5.1c0,1.6,0.4,1.8,2.4,2.1
			c1.2,0.2,1.2,0.3,1.2,0.6c0,0.4-0.1,0.5-0.8,0.5c-1.5,0-3-0.1-4.5-0.1c-1.4,0-2.9,0.1-4.4,0.1c-0.4,0-0.5-0.2-0.5-0.5
			c0-0.4,0.2-0.5,1.9-0.6c0.4,0,0.8-0.2,0.8-1.3c0-4.6,0.2-9.2,0.2-13.8c0-1.2-0.4-1.5-1.3-1.6c-1.2,0-1.2-0.2-1.2-0.5
			c0-0.4,0.3-0.5,1.2-0.5c1.5,0,3,0.1,4.4,0.1c1.7,0,6.5-0.1,7.8-0.1c1.2,0,1.4,0,1.4,1.4c0,3.1-0.1,3.1-0.5,3.1
			c-0.4,0-0.4-1.1-0.9-1.8c-0.9-1.5-3.9-1.7-5.1-1.7c-1.9,0-2.2,0.1-2.2,2V289.8L144.6,289.8z"/>
		<path class="st1" d="M159.2,284.9c0-1.3-0.2-1.7-1.5-1.7c-0.8,0-0.9-0.2-0.9-0.5c0-0.4,0.2-0.5,0.9-0.5c0.7,0,1.6,0.1,3.1,0.1
			c2.5,0,2.9-0.1,3.9-0.1c0.7,0,0.9,0.1,0.9,0.4c0,0.3-0.2,0.5-1,0.6c-1.6,0.1-1.7,0.3-1.7,1.5V298c0,1.6,0.5,1.7,1.7,1.9
			c0.6,0.2,1,0.2,1,0.7c0,0.3-0.1,0.4-0.7,0.4c-0.8,0-2.4-0.1-4.6-0.1c-1.7,0-2.7,0.1-3.6,0.1c-0.5,0-0.5-0.2-0.5-0.6
			c0-0.4,0.1-0.5,1.3-0.5c1-0.1,1.8-0.1,1.8-2.4V284.9L159.2,284.9z"/>
		<path class="st1" d="M184.4,282.7c2.9,0,1.9-1.4,2.8-1.4c0.2,0,0.4,0.2,0.4,0.9c0,4.4-0.2,4.7-0.6,4.7c-0.2,0-0.4-0.2-0.5-0.5
			c-0.5-2-1.1-2.5-5.3-2.5c-1.3,0-1.5,0.1-1.5,0.7v13.2c0,1.5,0.2,2.1,1,2.1c1.8,0,2.3,0.2,2.3,0.6c0,0.4-0.3,0.5-0.9,0.5
			c-1,0-3.2-0.1-4.2-0.1c-1.5,0-3,0.2-4.4,0.2c-0.6,0-0.7-0.1-0.7-0.4c0-0.7,1.6-0.4,2.5-0.8c0.3-0.2,0.7-1.2,0.7-1.7v-12.5
			c0-1.7-0.1-1.7-2.4-1.8c-4.4-0.1-4.6,3.4-5.6,3.4c-0.4,0-0.4-0.2-0.4-0.3c0-0.8,0.8-2.8,1.4-4.5c0.3-0.8,0.4-0.9,0.7-0.9
			c0.8,0-0.3,1.2,3,1.2H184.4L184.4,282.7z"/>
		<path class="st1" d="M206.2,282.7c2.9,0,1.9-1.4,2.8-1.4c0.2,0,0.4,0.2,0.4,0.9c0,4.4-0.2,4.7-0.6,4.7c-0.2,0-0.4-0.2-0.5-0.5
			c-0.5-2-1.1-2.5-5.3-2.5c-1.3,0-1.5,0.1-1.5,0.7v13.2c0,1.5,0.1,2.1,1,2.1c1.8,0,2.3,0.2,2.3,0.6c0,0.4-0.3,0.5-0.9,0.5
			c-1,0-3.2-0.1-4.2-0.1c-1.5,0-3,0.2-4.4,0.2c-0.6,0-0.7-0.1-0.7-0.4c0-0.7,1.6-0.4,2.5-0.8c0.3-0.2,0.7-1.2,0.7-1.7v-12.5
			c0-1.7-0.1-1.7-2.4-1.8c-4.5-0.1-4.6,3.4-5.6,3.4c-0.4,0-0.4-0.2-0.4-0.3c0-0.8,0.8-2.8,1.4-4.5c0.3-0.8,0.4-0.9,0.7-0.9
			c0.8,0-0.3,1.2,3,1.2H206.2L206.2,282.7z"/>
		<path class="st1" d="M214.1,285c0-0.7,0-1.8-1-1.8c-1.6-0.2-1.7-0.3-1.7-0.6c0-0.4,0.1-0.4,0.6-0.4c1.3,0,2.7,0.1,6.4,0.1
			c2,0,4.1-0.1,6.7-0.1c0.6,0,0.7,0.1,0.7,2.5c0,1.2,0,1.9-0.5,1.9c-0.5,0-0.5-0.9-1.1-1.9c-0.6-0.9-2.3-1.3-4.9-1.3
			c-1.3,0-1.4,0.1-1.4,1.8v4.7c0,0.6,0.1,0.8,2,0.8c1.8,0,2.1-0.4,2.5-1c0.5-0.7,0.7-1.7,1.2-1.7c0.5,0,0.4,0.8,0.4,0.9
			c0,0.7-0.2,2.4-0.2,3.5c0,1.3,0.1,1.8,0.1,2.1c0,0.3-0.1,0.4-0.5,0.4c-0.4,0-0.4-0.1-0.8-1.6c-0.2-0.9-0.9-1.6-3.6-1.6
			c-1.1,0-1.3,0.2-1.3,0.9v5.9c0,1.1,1.5,1.4,2.9,1.4c1.3,0,1.7-0.2,2.3-0.6c2.1-1.2,2.1-3.1,2.9-3.1c0.4,0,0.4,0.3,0.4,0.6
			c0,0.4-0.4,1.6-0.5,2.4c-0.1,0.7-0.3,1.8-0.6,1.8c-2.6,0-3.8-0.1-5-0.1h-6.6c-1.5,0-1.9,0.1-2.2,0.1c-0.4,0-0.7-0.1-0.7-0.5
			c0-0.6,0.7-0.6,0.9-0.6c2-0.2,2.3-0.3,2.3-3.4V285L214.1,285z"/>
		<path class="st1" d="M231.8,284.6c0-0.9-0.5-1.3-1.1-1.4c-1.7-0.2-1.8-0.2-1.8-0.6c0-0.4,0.2-0.5,0.6-0.5c1.3,0,4.3,0.1,4.9,0.1
			c0.5,0,3.4-0.1,4.7-0.1c2.7,0,5.9,1.1,5.9,4.3c0,4-3.6,4.1-3.6,4.7c0,0.2,0.1,0.4,0.3,0.7l3.9,6.6c0.5,0.8,1.2,1.3,1.9,1.5
			c1.2,0.3,1.3,0.4,1.3,0.6c0,0.2,0,0.3-0.3,0.3H243c-0.2,0-0.5-0.1-0.6-0.3c-0.6-1.1-1.2-2.3-1.4-2.7c-2.8-5.7-3.5-6.1-4.6-6.1
			c-0.9,0-1,0.1-1,2.6v3.4c0,1.6,0.3,2.1,0.9,2.2c1.8,0.2,2.1,0.3,2.1,0.7c0,0.3-0.2,0.4-0.5,0.4c-1.1,0-1.7-0.1-4.4-0.1h-4.2
			c-0.6,0-0.7,0-0.7-0.4c0-0.4,0.3-0.5,1-0.6c0.6-0.1,2-0.1,2-1.4c0-0.6,0.2-1.6,0.2-6.8V284.6L231.8,284.6z M235.4,290.2
			c0,0.6,0.2,0.6,0.5,0.6c2.7,0,5.5-0.2,5.5-3.9c0-3.3-3-3.8-4.9-3.8c-1,0-1.1,0.7-1.1,2.1V290.2L235.4,290.2z"/>
		<path class="st1" d="M261.9,286c0,0.3-0.1,0.5-0.4,0.5c-0.8,0-0.7-3.6-4.4-3.6c-2.8,0-3.6,1.8-3.6,3.2c0,3.4,9.7,2.9,9.7,9.5
			c0,2.2-1,5.9-6.9,5.9c-2.7,0-5.7-0.7-5.7-2c0-1.4,0-3.9,0.7-3.9c0.7,0,0.4,1.5,1.5,2.8c0.7,0.9,2.4,1.9,4.3,1.9
			c2.6,0,3.7-1.6,3.7-3.2c0-4.7-9.5-3.9-9.5-10.3c0-3.1,2.1-5.2,6.4-5.2c2.2,0,4.1,0.4,4.1,1.3V286L261.9,286z"/>
		<path class="st1" d="M77.7,6c0,0-4.8,26.6,13.2,35c0,0-0.8-4.2,0.3-5.4c0,0,6.8,12,21.9,19c15.1,7,32.4,31.7,34.6,38.5
			c2.2,6.8,14.9,26.6,18.3,26.3c3.4-0.3,17.3-4.6,22.7-34.4c0,0,5.4-26.8,31.4-37.7s43.3-18.8,52.6-30.4c0,0-0.8,10.9-7.8,16
			c0,0,21.6-9.3,27.5-21.9c0,0-3.1,19.7-19.5,27c0,0,19.2-3.7,32.4-21.7c0,0-2.2,13.1-18.8,26.1c0,0,13.9-0.5,21.9-11
			c0,0-6.8,16.1-24.1,19.9c0,0,13.9,0.8,23.9-7.6c0,0-13.2,18-27.5,19.5c0,0,7,4.9,17.6-2.9c0,0-7.1,10-19.3,11.5
			c0,0,1.5,2.4,5.4,2.2c0,0-3.9,4.6-9.7,4.8c0,0,0.8,2,4.4,2s-6.6,4.4-13.4,4.2c0,0,0.7,4.2,7,3.9c0,0-23.6,5.3-26.3,6.6
			c-2.7,1.4-6.1,4.9-8.8,12.4c-2.7,7.5-13.6,34.8-23.6,40.2s-9.8,5.8-19.2,5.4c0,0,7.3,23.4,20.9,32.9c13.6,9.5,21.4,16.1,16.8,20
			H228l-3.9,5.4c0,0-3.9-2-4.9-0.7c-1,1.4-3.6,3.1-3.6,3.1s-3.2-2.2-4.1-0.7c-0.8,1.5-5.9,2.7-7.3,0.8c-1.4-1.9-6.1,0.8-6.1,0.8
			s-2.9-2.9-5.1-2.9s-3.9,0.5-4.8,0.2c-0.8-0.3-3.2-2.7-3.4-3.6c-0.2-0.8-4.6-0.2-4.6-0.2s-2.5-3.6-3.4-7c0,0-6.8,1.2-6.4-0.7
			c0.3-1.9,2.4-5.1,2.4-5.1s4.1-5.4,5.1-7.5c1-2-1.2-9-5.6-1.2l-1.5,5.3c0,0-1.9-4.2-2.7-2.4c-0.8,1.9-1.4,9-1.4,9s-1.4-4.6-2.4-3.1
			c-1,1.5-5.6,8.7-5.6,8.7s-1.2-5.6-2.7-3.6c-1.5,2-5.4,5.6-0.8,8c4.6,2.4,7.5,2.9,7.6,4.9c0.2,2,0.2,4.6-0.8,5.8
			c-1,1.2,0.7-4.4-3.1-4.1c-3.7,0.3-7-0.8-7.1-2.7c-0.2-1.9-6.1-0.5-7.6,0.5c-1.5,1-4.1,7.1-4.1,7.1s-2-3.9-0.5-7
			c0,0-4.4,0.3-4.9,2.5c-0.5,2.2-1.7-4.1,0.2-5.6c0,0-4.4,0.7-4.6,3.7c-0.2,3.1-6.3-9.5,12.6-8.7c0,0,6.6-1.4,6.6-7.8
			c0-6.4-4.4-8.5-8.1-1.9l1.9,2.2l0.3,5.3c0,0-7-5.3-11.5-5.8c-4.6-0.5-7.8,0.2-8,1.2c-0.2,1-1-3.4,1.2-3.9c0,0-3.2-3.6-5.6,0.3
			c0,0-0.2-4.4,2.7-4.4c0,0-3.9-2.7-5.6-0.5c-1.7,2.2,0-8,10.9-1.4c10.9,6.6,7.1,2,8,1.9c0.8-0.2,3.2-5.6,3.2-5.6s-1.5-3.2,0.2-4.9
			s8.7-14.3,8.7-17.6s1.2-19.7-13.6-17.3c-14.8,2.4-16.1,4.6-16.1,4.6s-0.5-3.4,0.2-3.6c0.7-0.2-4.6,0.8-4.6,5.4
			c0,4.6-6.3-7.8,0.5-10.5c0,0-2.2-9.7,5.1-11.7c7.3-2,13.2-5.3,14.6-7.5c1.4-2.2,7.3-16.3-39.7-38.9l-16.8-7c0,0,2.4-0.7,4.1-1.4
			c1.7-0.7-10.9-7.1-11.5-9s1,1.7,6.3,1c5.3-0.7-10.4-6.8-12.7-14.4c0,0,6.1,5.8,9.3,4.8c3.2-1-14.3-4.1-9.8-34.4
			c0,0,0.7,13.2,4.6,13.6c0,0-3.6-19.7,1.9-25.1c0,0-0.2,13.6,3.9,16.1l0,0l-2.4-14.1l2.4,14.1l-2.4-14.1L77.7,6L77.7,6L77.7,6z"/>
	</g>
</g>
</svg>
