<svg id="Layer_1" data-name="Layer 1" xmlns="http://www.w3.org/2000/svg" viewBox="0 0 3238.81 933.9"><defs><style>.cls-1{fill:#f58220;}.cls-1,.cls-2,.cls-3{fill-rule:evenodd;}.cls-2{fill:#ed1b2e;}</style></defs><title>autozone_9c9c9c</title><polygon class="cls-1" points="0 0.9 916.18 0.9 560.33 857.1 0 857.1 0 0.9"/><polygon class="cls-1" points="941.27 0.9 1240.09 0.9 881.96 857.1 578.58 857.1 941.27 0.9"/><path class="cls-1" d="M1314.87,23h248.64c-118.85,286.11-239.12,573.41-360.41,856.2H956.74c-6.1.22,1.47-17,4.56-24.82,23.42-58.94,53.67-121,79.84-183,29.65-70.26,58.61-142.75,89-214C1191.83,312.24,1252.94,161.69,1314.87,23Z" transform="translate(-36 -22.05)"/><polygon class="cls-1" points="1564.01 0.9 1751.05 0.9 1390.64 857.1 1205.88 857.1 1564.01 0.9"/><polygon class="cls-1" points="1798.96 0.9 1917.57 0.9 1557.16 857.1 1438.55 857.1 1798.96 0.9"/><polygon class="cls-1" points="1981.44 0.9 2054.43 0.9 1694.03 857.1 1621.03 857.1 1981.44 0.9"/><path class="cls-1" d="M2213.61,23s-240.95,568.85-358.13,856.2h-41.06L2172.55,23Z" transform="translate(-36 -22.05)"/><polygon class="cls-1" points="2266.57 0.9 2284.82 0.9 1924.54 857.1 1903.87 857.1 2266.57 0.9"/><path class="cls-2" d="M2531,22.94c-47,6.51-93.55,18.47-124.82,47.92-27.74,26.13-42.48,69.45-61.78,107.46-40.28,79.33-82.14,160-119.78,238.15-.7,1.44-7.41,5.71-2.52,8.71h107.17c12.53-21.18,23.75-45.66,34-66.8,3.62-7.44,6.66-16.26,12.61-21.78h45.39c-11.56,30.74-26.94,57.07-37.83,88.58h99.61c41.86-87,85.53-178.65,127.34-267.2,6.43-13.62,14.11-27.77,16.39-40.66C2637.56,56.74,2585.39,15.41,2531,22.94Zm-36.56,165.55c-8.31,17.2-15.89,33.92-24,52.28h-47.91c10.59-21.57,26.06-54.57,39.09-81.32,10.41-21.39,24.29-39.67,54.22-26.14C2515,156.43,2502.34,172.15,2494.45,188.48Z" transform="translate(-36 -22.05)"/><path class="cls-2" d="M3016.43,79.57c-6.74,16-14.28,31-21.43,46.47,15.13,3.38,35.72.49,53,1.45-11,29.93-25.81,55.47-36.56,85.68h-56.74C2934.21,255,2914.3,297.39,2895.39,341c12.12,6.37,34.2,1.27,50.43,2.9-11.52,27.88-24.89,53.62-36.56,81.32-25.72-1.48-47.42,2.07-65.56,0-23.59-2.68-42.11-21.4-49.17-43.56-10-31.48,6.55-60.43,16.39-81.32,14.47-30.73,28.88-60.51,44.13-92.94,22.35-47.54,41.11-93.49,60.52-127.79Z" transform="translate(-36 -22.05)"/><path class="cls-2" d="M3184.12,359.84c22.14-31.18,38.78-68.76,51.69-106,6.18-17.83,13.72-43.6,12.61-69.7-2.37-55.31-48.14-80.24-98.35-74.06-36.23,4.46-62.52,23.32-84.47,46.47-27.38,28.87-60.57,85.09-76.91,130.69-5.7,15.9-11.5,39.1-12.61,53.73-3.6,47.52,8.22,69,32.78,82.77,44.81,25.1,110.2,3.81,140-21.78C3159.46,392.8,3172.7,375.93,3184.12,359.84Zm-80.69-39.21c-7,8.77-17.51,21.34-30.26,10.17-3.1-23.53,10.23-47.74,21.43-71.16,10.08-21.07,22.12-46.07,37.83-53.73,6.63-3.23,18.37,2,20.17,8.71,2.9,10.82-7.83,34.17-11.35,42.11C3130.19,281.74,3119.14,300.86,3103.43,320.63Z" transform="translate(-36 -22.05)"/><path class="cls-2" d="M2647,126h92c4.1-.45-.8,7.86-2.52,11.62-21.45,46.7-46.73,96-69.35,143.76-8.09,17.07-19.9,34.91-20.17,56.63,24.34,15.46,35.9-16.35,44.13-33.4,28.23-58.48,59.93-120.91,87-178.61h94.56c-31.09,67.24-65.59,137.79-99.61,207.66-24.08,49.45-42.08,93.09-105.91,98.75-36.38,3.23-70.45-1.47-94.56-17.43-17.27-11.43-34.92-27-31.52-58.09,2-18.4,16.85-40,25.22-58.09C2592.09,243,2622.76,174.61,2647,126Z" transform="translate(-36 -22.05)"/><path class="cls-3" d="M2506.85,429.29l12.87-27.2C2515.12,410.8,2511,420.08,2506.85,429.29Z" transform="translate(-36 -22.05)"/><path class="cls-3" d="M3263.47,155.61S3286,323,3148.82,431c-55.07,46-186,43.2-194.17-49.37-12.25,21.22-21,46.45-32.78,68.25-40.1-3.47-79.84,7.54-107.17-7.26-21.8-11.81-31.26-32.67-41.61-56.63-18,36.59-55.07,65.17-104.65,71.16-59.06,7.13-123.23-12.22-143.74-63.9-1.74,2.86-3.39,5.82-5,8.84l-12.87,27.2c-2.63,5.82-5.3,11.61-8.13,17.2l-18.77,39.69h41c7.52-12.64,12.9-27.74,20.17-40.66,39.69,54.7,155.29,66.14,215.6,21.78,11-8.07,18.61-20.45,29-27.59,16.06,21.54,35,42.92,68.08,46.47,28.55,3.07,60.56-2.26,93.3,0,6.82-13.44,11.48-29.37,20.17-40.66C3143.76,603.22,3322,286.65,3263.47,155.61Z" transform="translate(-36 -22.05)"/><path class="cls-2" d="M2464.1,481.08H2189.86L2142,576.92h134.27L2042.56,775.87,1990,883.33h282.43l46.65-95.84H2191.75q111-98.71,223.17-196Z" transform="translate(-36 -22.05)"/><path class="cls-2" d="M2504.44,568.21c48.16-5.43,92.16,17.76,97.09,68.25,2.52,25.89-4.77,52.9-11.35,72.61-7,20.84-15.44,40.1-24,58.09-17,35.95-44,76.19-65.56,94.39-29.78,25.09-95.81,45.28-140,20.33-8.3-4.69-19.2-12.79-24-21.78-16.39-31-3.62-94.74,7.57-123.43,6.59-16.91,16-33.47,24-47.92,23.19-42,57.37-91.87,99.61-111.82C2478.76,571.78,2490,569.84,2504.44,568.21Zm-47.91,210.56c15.72-20,26.79-38.61,37.83-63.89,3.66-8.39,14.51-30.58,11.35-42.11-2.39-8.7-15-11.73-22.69-7.26-13.57,7.92-29.05,38.12-36.57,53.73-10.89,22.62-22,47.79-20.17,69.7C2439.92,800.37,2449.44,787.81,2456.53,778.77Z" transform="translate(-36 -22.05)"/><path class="cls-2" d="M2989.86,568.21c-67.68,5.65-109.48,74.82-136.17,135.05-15.72,35.47-32.76,79.37-31.52,117.62,1.81,56.1,47.74,78.93,100.87,72.61,18-2.14,39.23-12,55.48-23.23a197.91,197.91,0,0,0,74.39-95.84h-95.82c-8.91,10.34-24.3,47.37-40.35,31.95-11.75-11.29,6.87-39,12.61-49.37h132.39c21.55-44.78,39.34-116.17,8.83-156.83C3055,579.36,3027.07,565.1,2989.86,568.21Zm-11.35,145.22h-32.78c6.18-12.31,17.21-41.82,29-50.83,6.49-5,15.78-2.52,17.65,7.26C2995.21,684.63,2980.17,700.35,2978.52,713.42Z" transform="translate(-36 -22.05)"/><path class="cls-2" d="M2755.35,883.33h-92L2744,704.71c3-7.74,9.32-26.46-2.52-27.59-16.57-1.58-25.62,31.57-32.78,46.47l-78.17,159.74h-97.08L2669.61,592.9h99.61s-3.81,13.61-5,18.88a84.14,84.14,0,0,1,24-17.43c32.54-16.41,75.87,2.67,75.65,47.92-.07,13.64-13.87,40.66-13.87,40.66Z" transform="translate(-36 -22.05)"/><path class="cls-3" d="M3125.85,609.53,3087,583.06c13,17.23,21.12,39.63,22.66,66.47,1.88,32.76-10.27,70.36-21.43,100.2-11.63,31.07-20.37,58.38-36.56,81.32a234.89,234.89,0,0,1-58,58.09c-21,14.78-49,29.69-80.69,30.49-55.3,1.41-101.66-24.39-111-81.32-12.36,22.07-21.47,47.88-34,69.7H2499.4c-5.33-4.18,4.93-14.31,6.3-20.33-52.66,42.84-169.17,48.47-192.91-30.5-6.5,6.37-9.56,15.93-13.87,24.69-4.16,8.45-8.91,17.35-12.61,26.14H39.65v34.8L2309,944.32c7.22-9.59,11.57-22.5,17.65-33.4,27.73,31.18,62.91,48.28,116,43.57,14.07-1.25,27.11-8.33,41.61-10.16,23.63-3,50.83,0,76.91,0h232c7.23-13.45,12.93-28.68,20.17-42.11,26.59,32.35,60.74,54.37,113.47,53.73,45.53-.55,85.88-25.67,117.26-55.18,33.1-31.12,53.89-68.17,69.35-110.36,17.11-46.7,34.95-102.42,22.7-152.47A136.14,136.14,0,0,0,3125.85,609.53Z" transform="translate(-36 -22.05)"/></svg>