<svg id="Layer_1" data-name="Layer 1" xmlns="http://www.w3.org/2000/svg" viewBox="0 0 235.28 36.53"><defs><style>.cls-1{fill:#fff;}</style></defs><title>Barnes__and__Noble-265a34</title><path class="cls-1" d="M11.13,8.94v9.59h1.48c1.56,0,1.87-1.39,1.87-4.25,0-3.91-.39-5.34-2.3-5.34h-1m0,13.76V34.45h1.52c1.78,0,2.26-1.08,2.26-6.16,0-3.69-.43-5.6-2.34-5.6Zm10,6.25c0,6.9-3.08,9.42-8.29,9.42H5.36V5h7.51c5.77,0,7.29,3.47,7.29,9.15,0,4.08-1.47,6.29-4.12,6.42C18.9,20.61,21.11,23.51,21.11,28.94Z" transform="translate(-5.36 -3.09)"/><path class="cls-1" d="M49.13,9.15v9.76H51c1.56,0,2-1,2-4.12,0-4.86-.91-5.64-2.73-5.64H49.13m5,12.11c3.73,1.13,4.16,5.52,4.16,9.56a36,36,0,0,0,.52,7.53H52.78a23.23,23.23,0,0,1-.43-4.94V29.13c0-2.65-.9-4.64-2.8-5.14h-.41V38.35h-6V5H52c4.17,0,7,2.43,7,8.46C59,18.74,56.75,21,54.16,21.26Z" transform="translate(-5.36 -3.09)"/><path class="cls-1" d="M69.22,20.17c.26,4.47.3,5.77.3,9.68v8.5H64V5h5.46s2.6,9.76,3.17,11.84,1,3.86,1.26,5.29c-.17-3.25-.22-7.29-.22-10.63V5H79V38.35h-4.9s-3-10.28-3.6-12.32a49.36,49.36,0,0,1-1.3-5.86" transform="translate(-5.36 -3.09)"/><polyline class="cls-1" points="84.86 30.28 92.11 30.28 92.11 35.27 79 35.27 79 1.94 91.2 1.94 91.2 6.93 84.86 6.93 84.86 15.96 90.46 15.96 90.46 20.6 84.86 20.6 84.86 30.28"/><path class="cls-1" d="M106.23,30.67c0,3.73.78,4.3,2.13,4.3,1,0,1.85-.61,1.85-4.3,0-3.3-2.21-5.67-4.7-8.67-2.26-2.71-4.79-6.43-4.79-9.59,0-5,2.26-7.9,7-7.9s7.07,2.56,7.07,7.46a8.45,8.45,0,0,1-.43,2.69h-5a15.77,15.77,0,0,0,.13-2.34c0-3.17-.35-4.12-1.74-4.12s-1.52,1.26-1.52,3.64c0,3,2.41,5.4,4.33,7.87,2.83,3.64,5.11,6.53,5.11,9.92,0,5.42-2.29,9.42-7.41,9.42-4.56,0-7.54-2.49-7.54-8.26a12.21,12.21,0,0,1,.39-3.62l5.33,0a22.79,22.79,0,0,0-.27,3.53" transform="translate(-5.36 -3.09)"/><path class="cls-1" d="M156.72,20.17c.26,4.47.3,5.77.3,9.68v8.5h-5.51V5H157s2.6,9.76,3.17,11.84,1,3.86,1.26,5.29c-.17-3.25-.22-7.29-.22-10.63V5h5.34V38.35h-4.9s-3-10.28-3.6-12.32a50,50,0,0,1-1.3-5.86" transform="translate(-5.36 -3.09)"/><path class="cls-1" d="M180.49,21.74c0-5.25,0-8.46-.22-10.85S179.71,8,178.85,8s-1.34.48-1.56,2.91-.13,5.64-.13,10.85c0,6.08,0,8.42.13,10.76.22,2.56.57,2.82,1.56,2.82s1.21-.22,1.43-2.82c.17-2.39.22-4.69.22-10.76m6.16,0c0,14.36-2.34,17.31-7.81,17.31-5.08,0-7.81-2.21-7.81-17.31,0-14.62,2.12-17.23,7.81-17.23S186.66,7.11,186.66,21.74Z" transform="translate(-5.36 -3.09)"/><path class="cls-1" d="M196.93,8.94v9.59h1.48c1.56,0,1.87-1.39,1.87-4.25,0-3.91-.39-5.34-2.3-5.34h-1m0,13.76V34.45h1.52c1.78,0,2.26-1.08,2.26-6.16,0-3.69-.43-5.6-2.34-5.6Zm10,6.25c0,6.9-3.08,9.42-8.29,9.42h-7.46V5h7.51C204.44,5,206,8.5,206,14.19c0,4.08-1.48,6.29-4.12,6.42C204.7,20.61,206.91,23.51,206.91,28.94Z" transform="translate(-5.36 -3.09)"/><polyline class="cls-1" points="211.87 30.28 218.94 30.28 218.94 35.27 205.8 35.27 205.8 1.94 211.87 1.94 211.87 30.28"/><polyline class="cls-1" points="228.03 30.28 235.28 30.28 235.28 35.27 222.18 35.27 222.18 1.94 234.37 1.94 234.37 6.93 228.03 6.93 228.03 15.96 233.63 15.96 233.63 20.6 228.03 20.6 228.03 30.28"/><path class="cls-1" d="M29.49,29.32h3s-.46-3.86-.72-6.38c-.17-1.56-.79-6.43-1-9.64-.09,3.3-.61,8.12-.74,9.64-.22,2.52-.62,6.38-.62,6.38m-6.14,9.07L28.2,4.82h5.73l5.72,33.56h-6.2L32.84,33H29.11l-.61,5.38Z" transform="translate(-5.36 -3.09)"/><path class="cls-1" d="M128.71,37.37c-4.61,0-6.34-3.86-5.82-6.91a13,13,0,0,1,4.56-7.92,60,60,0,0,0,6.69,12.2,6.48,6.48,0,0,1-5.43,2.63m.81-26.91A5.76,5.76,0,0,1,135,5.57c2.42,0,4,1.84,3.51,4.67A6.58,6.58,0,0,1,137,13.66c-1.09,1.36-5,3.79-6.89,4.79A16.48,16.48,0,0,1,129.51,10.46ZM144.44,21c-2.3,0-4,1.55-5.07,3.69-1,2.36-2.19,5.07-2.94,6.57a79.76,79.76,0,0,1-5.72-11c2-1.12,5.47-2.82,7.45-4.62a9.35,9.35,0,0,0,3.28-5.46c.63-3.75-1.5-7-6.22-7a10.17,10.17,0,0,0-9.62,8.3,19.26,19.26,0,0,0,1.1,8.86c-3.57,2.42-6.69,5.09-7.49,9.29-1.15,6.92,3.17,10.08,8.07,10.08a10.17,10.17,0,0,0,7.91-3.79c1.54,1.76,3.5,3.79,5.92,3.79,2,0,4-1.27,5.65-3.34l-.69-1c-1.5,1.44-2.65,2-3.51,2-1.55,0-3.17-1.38-4.55-3.57-.17-.34-.4-.69-.58-1,.92-1.79,1.61-3.75,2.42-5.47,1.5-3.34,2.42-4.44,3.8-4.44,2.3,0,.46,3.86,2.94,3.86a2,2,0,0,0,1.9-1.9C148.7,23.37,147.72,21,144.44,21Z" transform="translate(-5.36 -3.09)"/><path class="cls-1" d="M128.44,9.26s-3.16,4.82,1.26,14.58a48.29,48.29,0,0,0,8,12.53,72.59,72.59,0,0,1-7.37-13.18c-3.62-8.71-1.85-13.93-1.85-13.93" transform="translate(-5.36 -3.09)"/></svg>