<svg id="Layer_1" data-name="Layer 1" xmlns="http://www.w3.org/2000/svg" viewBox="0 0 561.29 355.39"><defs><style>.cls-1,.cls-2,.cls-8,.cls-9{fill:#fff;}.cls-1,.cls-2{stroke:#fff;}.cls-1{stroke-width:2.63px;}.cls-2,.cls-9{stroke-linecap:square;stroke-miterlimit:2;}.cls-2,.cls-4,.cls-9{stroke-width:0.57px;}.cls-3,.cls-6{fill:#ffd520;}.cls-3,.cls-4,.cls-9{stroke:#000;}.cls-3{stroke-width:9px;}.cls-4{fill:none;}.cls-5{fill:#ef3e42;}.cls-7{fill:#008457;}</style></defs><title>bass-pro-shops-6c5c4f</title><path class="cls-1" d="M323.22,356.93c133.63,3,242-79.29,242-177.09S456.89,4.24,323.22,4.24,80.49,68.58,76.29,179.84C72.6,277.57,190.33,354,323.22,356.93Z" transform="translate(-5.27 -2.93)"/><path class="cls-2" d="M30.69,238.91c9.26,31.22,26.76,54.22,54,73.12,2.71,8.69,1.75,18.79,10.58,25.32,5.41,4,13.7,11,20.64,11.63,5.51-17.47-2.24-30.22-2.19-37.24,3.57.52,2.25.58,5.93,2.93,23.94,16.66,59,14.49,83.82,1.63-3.42-18.08-18.21-21.73-28.26-33.64l17.08-1.41c1.52-17,10.94-43.49-6.12-54.32,12-10.91,31.4-19.38,38.26-34.72,11.77-3.84,22.4-11,32.73-19.06,7.74-7.87,11.23-22.66,23.31-23.77,5-3.53,12.38-7.83,10.23-15.71-2.27-6.92-9.11-4.94-13.49-6-8.22,6.35-16.89,6.84-25.9,8.53C245.24,130,241.51,121,240.71,112c-1.4-15,6.55-33.72-3.37-44.49C220.48,73.54,205,61,186.65,65.36l-.18-.2c-25.65,1.14-51.65,9.14-63.2,12.25-8.11,2.69-15.46,7.6-23.72,9.76-4.91-1.71-9.94-3.33-13.15-6.54l-3.74,3.58c-1.44-.41-3.56.71-4.24-1.24l-8.7,4c-9.36-2.26-9.23,6.15-16.9,8.52-.49-.63-3.39.31-3-.73l-1,0,.69,3.76-.15.95c-2.84,4-5.89,4-10.66,5.12,1.5,5.05-3.06,7.12-4.76,10.63-1.62,1.76-6.14.77-5.51,4,5.19,5-1.44,13.23-1.69,15.05,7,6.88-2.06,15.65,6.52,21.9-10.52,8.61-20.28,19.54-23.77,32.41C4.89,202.23,3.22,218.77,10.72,232A22.52,22.52,0,0,0,30.69,238.91Z" transform="translate(-5.27 -2.93)"/><path class="cls-3" d="M322.64,352.71c132.06,2.91,239.18-77.11,239.18-172.23S454.74,8.26,322.64,8.26s-239.88,64-244,172.23C75,275.53,191.32,349.82,322.64,352.71Z" transform="translate(-5.27 -2.93)"/><ellipse class="cls-4" cx="455.9" cy="296.88" rx="10.02" ry="10.04"/><path class="cls-4" d="M461.17,299.81" transform="translate(-5.27 -2.93)"/><path d="M456.87,294.65h5.34c2.79,0,4.13.95,4.13,3.1a2.84,2.84,0,0,1-1.75,2.73c1.19.47,1.33,1.18,1.41,2.5s-.06,2.16.48,2.44v.39h-3a12.13,12.13,0,0,1-.31-2.92c-.09-.88-.57-1.26-1.55-1.26h-1.91v4.18h-2.84Zm5,4.78c1.15,0,1.68-.4,1.68-1.34s-.53-1.21-1.6-1.21h-2.2v2.55Z" transform="translate(-5.27 -2.93)"/><path class="cls-5" d="M386.33,234.82c6.54-10.28,13-14.53,22.48-14.53,6.22,0,13.76,3.32,16.47,9.87,1.92,4.64,2.22,9.17,2.22,14.31A49.55,49.55,0,0,1,420,270.63c-5.08,8.57-13.92,12.46-24.06,12.46-4.76,0-10.84-2-13.68-6-3.18-4.52-3.85-8.43-3.79-14.67A52.72,52.72,0,0,1,386.33,234.82Z" transform="translate(-5.27 -2.93)"/><path class="cls-5" d="M430,234.59s8.37-25.33,21.21-9.08a31.25,31.25,0,0,0,4.72-2.08c3.88-1.94,22.29-3.64,22,15,0,0,1.49,22-11.51,37.12-3.76,4.37-11.1,7-17,7-3.61,0-5.58-.82-8.61-2.56L438,297.57c0,4.31,6,7.11,6,7.11H415.35s6.84-4.83,8.12-10L436.57,232c.21-1.82-2.3-3-5.55,2.81Z" transform="translate(-5.27 -2.93)"/><path class="cls-5" d="M254.3,110.38a19.7,19.7,0,0,0,7.06-9.89l15.18-68.73a12.31,12.31,0,0,0-3.92-9.24h25.15C311.09,22.52,328,22.3,328,40c0,13.07-12.77,24.08-17.36,23.34,8.78,1.4,12,8.44,12,19.39,0,24.69-11.67,23.45-25.39,26.24a70.31,70.31,0,0,1-14,1.42Z" transform="translate(-5.27 -2.93)"/><path class="cls-5" d="M362.33,50l16-.06-8.67,43.31c-.53,2.38-2.23,7-.48,8.29s3.62-1.37,4.44-1.59c0,0-1,9.52-10.95,10.47-3.52.33-10.76-7.06-9.65-8.4-6,7.28-11.09,8.63-15.1,8.88-10.66.64-14.29-11.68-14.29-18,0-16,10.48-46.09,28.19-44.35,1.24.12,6.35-.61,9.39,3.52Z" transform="translate(-5.27 -2.93)"/><path class="cls-5" d="M381.54,93c.13,6.47,12,14.44,19.41,12.69,5.68-1.33,7.37-6.18,7.05-10.65-.36-5-8.71-9.19-12.94-12-6.23-4.17-12.2-11.47-10.3-19.16,2.79-11.27,7.85-14.58,17.6-16.7,2.37-.53,6.1.07,8.74.33,1.58.13,3.86,1.39,7.13,2.87a54.46,54.46,0,0,1,6.61,4.53l-5.37,9.36c-2.57-5.43-5.52-10.55-10.75-12.07-3.17-.92-13.83,1.47-10.25,11.14l14.86,12.25c4.25,3.36,8.26,6.83,8.28,12.5,0,5.89-3.36,20.09-19.73,22.3-4.29.58-8.11.14-13.39-1.43-1.27-.38-12.33-6.84-13.84-8Z" transform="translate(-5.27 -2.93)"/><path class="cls-5" d="M263,195.89a15.42,15.42,0,0,0,8.79-8.57L285.51,124a8.65,8.65,0,0,0-5.52-9h40.3c12.7,0,17.61,9.18,17.61,17,0,18.34-24.25,28.23-41.77,27.12l-4.54,27.38c-1.11,7.47,7,9.44,7,9.44Z" transform="translate(-5.27 -2.93)"/><path class="cls-5" d="M329.86,196.2,339,155.36c1.22-7.19,2-10.83.48-11.47s-5.59,4.24-5.62,4.24,3.15-12.17,11.94-13.64c0,0,6.61-1.71,10.41,2.1,3.51,3.52,2.62,9.59,2.62,9.59,2.93-6.36,17.35-9.76,17.35-9.76l-6.66,13a4.16,4.16,0,0,0-3-1.85,6.5,6.5,0,0,0-5.59,2.31c-2.1,1.8-4.11,2.61-7.54,12.52-4,12.76-7.51,33.8-7.51,33.8Z" transform="translate(-5.27 -2.93)"/><path class="cls-5" d="M372.73,148.18c6.54-10.28,13-14.53,22.48-14.53,6.22,0,13.76,3.32,16.47,9.87,1.92,4.64,2.22,9.17,2.22,14.31A49.55,49.55,0,0,1,406.42,184c-5.08,8.57-13.92,12.46-24.06,12.46-4.76,0-10.84-2-13.68-6-3.18-4.52-3.85-8.43-3.79-14.67A52.72,52.72,0,0,1,372.73,148.18Z" transform="translate(-5.27 -2.93)"/><path class="cls-5" d="M318.83,233.47c7.94,4.86,11.25,6.43,10.77,19.55-.27,7.58-8.35,27-27.47,30.41-5.67,1-19-.55-26.06-2.63-1.69-.5-6-2.55-10.66.22L269,257.15c.09,4.48,5,13.75,12.14,18.08,6.57,4,13.9,4.73,20.23,0,8.38-6.23,9.57-11.86,9.14-17.82-.48-6.67-9.77-9.66-16.25-11.64-12.65-3.85-16.48-12.36-13.95-22.59,3.71-15,13.11-23.29,22.46-23.92,3.23-.22,8.12-.39,11.63.44,2.06.49,6.6.88,10.94,2.85a55.24,55.24,0,0,0,8.32,2.39l-2.3,11.49c-3.42-7.23-12.15-12.18-19.4-12.42-7.61-.26-15.62,6.22-14.86,18.47.24,3.88,5,7.35,6.4,7.47A66.34,66.34,0,0,1,318.83,233.47Z" transform="translate(-5.27 -2.93)"/><path class="cls-5" d="M328.28,281.29,342,212.23c.7-2.45-3.09-8.57-3.09-8.57.51,0,20.65.08,20.81.15l-4.23,22V226c5-2.6,10.8-6.59,16.34-4.39,4.76,1.89,6.29,6.91,4.84,14.92-.87,4.81-4.18,21.25-4.18,23.11,0,1-3.18,13.13-2.13,13.13,1.28,0,2.73,2.89,7.78-1.09,0,0-2.73,11.31-11.57,11.31-5,0-10-2.64-10-8.23,0-4.54,5.62-33.71,5.87-35.44.73-5-.07-7.66-2.05-8.14-2.94-.72-4.79.45-5.85,4.21-3.43,12.19-10.08,45.86-10.18,45.84Z" transform="translate(-5.27 -2.93)"/><path class="cls-5" d="M477.32,267.84c.13,6.47,12,14.44,19.41,12.69,5.68-1.33,7.37-6.18,7.05-10.65-.36-5-8.71-9.19-12.94-12-6.23-4.17-12.2-11.47-10.3-19.16,2.79-11.27,7.85-14.58,17.6-16.7,2.37-.53,6.1.07,8.74.33,1.58.13,3.86,1.39,7.13,2.87a54.45,54.45,0,0,1,6.61,4.53l-5.37,9.36c-2.57-5.43-5.52-10.55-10.75-12.07-3.17-.92-13.83,1.47-10.25,11.14l14.86,12.25c4.25,3.36,8.26,6.83,8.28,12.5,0,5.89-3.36,20.09-19.73,22.3-4.29.58-8.11.14-13.39-1.43-1.27-.38-12.33-6.84-13.84-8Z" transform="translate(-5.27 -2.93)"/><path class="cls-5" d="M425,94.62c.13,6.47,12,14.44,19.41,12.69,5.68-1.33,7.37-6.18,7.05-10.65-.36-5-8.71-9.19-12.94-12-6.23-4.17-12.2-11.47-10.3-19.16,2.79-11.27,7.85-14.59,17.6-16.7,2.37-.53,6.1.07,8.74.33,1.58.13,3.86,1.39,7.13,2.87a54.46,54.46,0,0,1,6.61,4.53l-5.37,9.36c-2.57-5.43-5.52-10.54-10.75-12.07-3.17-.92-13.83,1.47-10.25,11.14L456.78,77.2C461,80.56,465,84,465.05,89.69c0,5.89-3.36,20.09-19.73,22.3-4.29.58-8.11.14-13.39-1.43-1.27-.38-12.33-6.84-13.84-8Z" transform="translate(-5.27 -2.93)"/><path class="cls-6" d="M281.33,98.1c-2.75,9.34-1.9,7-1.65,7.1.09,0,3.8.11,5.91.11,10.94,0,14.42-9,15.92-25.21,1.06-11.39-3-12.12-13.95-12Z" transform="translate(-5.27 -2.93)"/><path class="cls-6" d="M289,62.34c6.72-.53,8.18,1.43,13.1-2.59,1-.83,7.43-9,7.43-19.71,0-9.5-4.33-12.16-13.64-11.19-.61.06-.76,2.88-1.55,5.65Z" transform="translate(-5.27 -2.93)"/><path class="cls-6" d="M352.53,95.48c2.1-10.72,6.83-35.33,6.83-34.69,0-.3,1.06-4.58,1-4.72-.32-.64-1-2.41-2.28-2.41-10,0-19,32-19,40.07,0,3.56,1.58,7.89,5.67,7.79C349.42,101.4,352,98.43,352.53,95.48Z" transform="translate(-5.27 -2.93)"/><path class="cls-6" d="M297,154.43a22.32,22.32,0,0,0,18.56-7.56c3.78-4.16,5.13-9.56,5.13-15.67,0-8.56-4.66-11.49-7.59-11.49-2.71,0-9.05-.27-9.06.13-.19,0-1,5.24-1.42,6.6Z" transform="translate(-5.27 -2.93)"/><path class="cls-6" d="M456.21,231.49c-4.42,0-6.25,6.54-8.46,13.53l-4.82,25.54c-.56,2.15,1.33,5.55,3.54,6.37,11.75,4.31,17-26.58,18-33.49.48-3.19-.35-9.42-1.88-11C460.58,230.26,457.49,231.49,456.21,231.49Z" transform="translate(-5.27 -2.93)"/><path class="cls-6" d="M386.11,189.74c10.41-1,14.59-31.56,14.59-39.87,0-6.6-2.08-9.53-5.25-9.53-7.08,0-10,9.77-11.86,15.52-2.42,7.57-5.5,21.62-4.29,27.88C379.86,186.62,382.94,190.06,386.11,189.74Z" transform="translate(-5.27 -2.93)"/><path class="cls-6" d="M399.71,276.38c10.41-1,14.59-31.56,14.59-39.87,0-6.6-2.08-9.53-5.25-9.53-7.08,0-10,9.77-11.86,15.52-2.42,7.57-5.5,21.62-4.29,27.88C393.46,273.26,396.54,276.7,399.71,276.38Z" transform="translate(-5.27 -2.93)"/><path d="M280.42,150.86c-11.94,1.08-15.39,15.47-23,23.12-10.2,7.88-20.71,14.81-32.34,18.54-6.78,14.92-25.34,23.44-37.2,34.05,16.86,10.54,7.55,36.31,6,52.83L177,280.77c9.93,11.59,24.55,15.13,27.93,32.72-24.51,12.51-59.18,14.61-82.83-1.58-3.64-2.29-8.63-4.55-12.41-3.7,1.49,12.31,7.83,24.25,4.63,36.95-6.85-.65-11-7.3-16.32-11.19-8.72-6.34-7.77-16.17-10.45-24.62-27.48-18.07-45.34-42.26-53.4-72.81-1.37.28-3.07-.42-4.05,0l-1.2-.19c-4.62.81-10.29-1.74-14.48-4.82C7,218.64,8.67,202.55,13.17,189.32c3.45-12.52,13.1-23.14,23.49-31.52-8.48-6.08.48-14.61-6.44-21.29.25-1.77,6.81-9.73,1.67-14.64-.62-3.17,3.84-2.21,5.44-3.92,1.68-3.41,6.19-5.42,4.71-10.33,4.72-1.06,7.73-1.11,10.54-5l.15-.92L52.05,98l1,0c-.38,1,2.48.09,3,.71,7.58-2.3,7.45-10.48,16.7-8.28l8-4.22c.68,1.9,2.77.8,4.19,1.21l2.21-2c3.17,3.12,9.62,3.24,14.48,4.9,8.16-2.1,15.43-6.88,23.44-9.5,20.14-5.82,40.58-11,62.45-11.91l.18.19c18.14-4.24,33.43,7.95,50.09,2.06,9.81,10.47,1.95,28.66,3.33,43.27.8,8.8,4.48,17.55,10.5,23.52,8.91-1.64,17.48-2.12,25.6-8.29,4.33,1.06,11.08-.86,13.33,5.87C292.65,143.24,285.33,147.42,280.42,150.86Z" transform="translate(-5.27 -2.93)"/><path class="cls-7" d="M126.87,138.18a34.2,34.2,0,0,0-.8-10c1,.38,1.55-.44,2.16-.92.05-1.19.37-2.53-.88-3.19l2.21-2c-.57-.62-1.39-1.17-1-2.17l1.15-1c.54,1.3,1.9,1.11,3.09,1.16.2-2.63,1.11-5.82,1.44-9.38-.09,5.86-1.82,14.21,4.55,15.94a30.61,30.61,0,0,0-3.58,11.53Z" transform="translate(-5.27 -2.93)"/><path class="cls-7" d="M139.66,138.18c.23-1.39.51-2.75.84-4.05l0-1.1,1.1,0a19.61,19.61,0,0,0-.72,5.1Z" transform="translate(-5.27 -2.93)"/><path class="cls-7" d="M142.15,110.62c2.63-1.12-.42-4,.81-6.91.92.38,1.46-.36,2.08-.93-2.12-1.88.5-5.51-1.71-7.39-.62.57-1.41,1-1.19,2l-2-.09c3,0,3-3.35,4.39-5,2.24,4.48-1.49,15.22,3.06,18.32H145a3.77,3.77,0,0,0-.3-.45l-.3.45Z" transform="translate(-5.27 -2.93)"/><path class="cls-7" d="M151.07,110.62c-.13-3.75-4.31-7.82.47-10.69,2.29,0-.64,4.73,3,4.3.26-5.86,3.77-6.38,7.76-10.11,1.54-.19,2.94,2.6,4.24.19l.14-3.14c6.65,7.1,2.21-5.77,6.6-7.1,7.89-9.34,14.47,6.94,23.15-1-6.15,4.57,8.76,9.24.36,14.73-3.48,3.67-6.16,6.7-10.88,7.85,6.76-3.1,10.45-9.57,9.19-17.45l-2-2.13c-.54.57-1.41,1-1.11,2-2.09-.77-3.43-3.13-6.18-2.32l-2.21,1.94a14.7,14.7,0,0,1,8.16,5.64c1.42,4.23-3.73,5.45-5.63,8.17-3.16.45-5.39-.92-7.15-3.47-4.72-4.63,10.61-13-.59-11.59l-3-3.28c-2.39,4.15-4.93,9.56-2.69,14.59l1,0c-1.3.62-1.1,1.91-1.16,3.09-3.86-1-.4-11.84-5-5.5-3,5.56,5.38,7,4.74,11.78,2.43,1.05,6.19,1.31,7.33,3.47h-3.59a2.91,2.91,0,0,0-.74-.19l-.22.19h-2.62a1.48,1.48,0,0,0-1.4-.38,3.33,3.33,0,0,0-.35.38Z" transform="translate(-5.27 -2.93)"/><path class="cls-7" d="M188.48,110.62a16.09,16.09,0,0,1,4.75-4.66l6.55-6c-1.31,3.65-2.92,7.15-4.5,10.66Z" transform="translate(-5.27 -2.93)"/><path class="cls-7" d="M144.41,110.62l-3.07,4.58c-.28-1.37,1.08-3.35-.83-4.2a6,6,0,0,0,1.63-.38Z" transform="translate(-5.27 -2.93)"/><path class="cls-7" d="M195.29,110.62c-3.57,7.92-7,15.87-6.55,25.67l.27,1.89H143.37c-2.31-3.64-2.69-8.33.79-15.45l.09-2.12c1.19.05,2.53.37,3.27-.87-3-2.23-1-6.36-2.5-9.11h2.54a5.73,5.73,0,0,0,3.48.85,4.54,4.54,0,0,0,0-.85h19.54c-1.75,2.26,1.6,4.74,2.14,7.1,1.46-.28,3.44,1,4.2-.92-1.91-2.89,1.05,3,3.17,1.25l0,1c-.62-1.3-2-1.11-3.18-1.16-3.21,1.56,1.49,2.87-.23,5.26l2,2.13c-2.89,2,.49,4.27.82,6.33l-.73-.71,1.07-1.06.73.8-1.06,1,1.94,2.21c3.06-6.38,2.33-16.23,7-23.22Z" transform="translate(-5.27 -2.93)"/><path class="cls-7" d="M175,110.62c-.57.49-1.16,1-1,1.88-.61-.45-1-1.35-1.65-1.88Z" transform="translate(-5.27 -2.93)"/><path class="cls-7" d="M179.54,110.62c.5,1,.49,2.29-.37,4.24-.83-1.46-1.57-3.56-3.22-4.24Z" transform="translate(-5.27 -2.93)"/><path class="cls-7" d="M197.72,138.18c2.84-1.92,6.32-3,9-5.34-4.57-7.94-2.66-18.32-4-27.48,4.2-.75.82-6.94,3.56-9.28-.57-.62-1-1.41-2.07-1.11L202,96.92c1-3.7,5.5-7.15,2.55-11.45-1-3.27-4.54-1.14-6.13-3.42l1.15-1L185,79.4c3.36-1,6.48-2.52,10.52-1.65,1.78,3.82,5.95,0,9.36,1.44-5.08,1.56-.25,7.39,2.76,8.54,1-.29,1.5.58,2.07,1.11,1.53-3.76,5.55-8.34,9.83-9-4.4,9.07-16.17,14-13.76,26.68,4.31,9.43-1.74,22.56,3.15,31.66Z" transform="translate(-5.27 -2.93)"/><path class="cls-7" d="M283.15,138.18l1-.76q.14.39.23.76Z" transform="translate(-5.27 -2.93)"/><path class="cls-7" d="M254.94,168.4a40.85,40.85,0,0,1-11.44,10.23l.79-.65,1,1.06-.8.73-1-1.15c-7.13,3.59-13.72,8.65-21.46,10.6,2-6.88,10.13-4.22,13-8.86-1.35-2-4.12-.87-6.23-1.3l-1.06,1c-3.06-1.92-6.48,2.52-9.68,3.73-8,1.26-14,.82-21,1.18-5.78,7.73-14,13.91-23.71,13.65,6.16-1.09,12.08-8,19.33-8.57,0-1.19.37-2.53-.88-3.19-2.13.24-4.41,3.63-6.4.73a23.26,23.26,0,0,1-9.36-1.44c-4.06-2.39-3.71-8.25-8-8.78-3.24,7.93-15.35,1.27-22.19,4.28a48.37,48.37,0,0,1-13-13.25h5.06c4.38,5.18,3.58,15.83,13.34,11.36l2.18-3c.52-2.1-1,2.68,1,3.19,1.37-.28,3.35,1,4.2-.83-.83-3.95-3.08-7.38-5.7-10.67h4l0,.05c4.24,2.06,9.95,3.59,14.62,1.68.31-.74-.12-1.24-.59-1.73h8.26a8.91,8.91,0,0,0,4.73,7.56c1-2.08.48-4.81,0-7.56h14.36a17.84,17.84,0,0,1,2.54,4.15,76.23,76.23,0,0,0,14.38-4.15H225c-9.43,4.74-19.22,8.46-29.74,10.2.92.38,1.46-.44,2.08-.93a26.9,26.9,0,0,0-12.59.46l3,4.3-1.07,1.06c2.65,1.56,6.18-1.42,9.51-1.7,5-1.73,11.22-.18,16.83-.27,9-7.65,20.17-9.53,30.68-13.12Z" transform="translate(-5.27 -2.93)"/><path class="cls-7" d="M143.75,168.4a24.87,24.87,0,0,1,1.38,4.8,34.1,34.1,0,0,1-2.44-4.8Z" transform="translate(-5.27 -2.93)"/><path class="cls-7" d="M132.72,168.4a62,62,0,0,1-9.38-24.58l1,1.15a11.87,11.87,0,0,0,2.57-6.79h8.35c-1.16,9.65,1,20.18,1.75,29.38a8.37,8.37,0,0,1,.81.83Z" transform="translate(-5.27 -2.93)"/><path class="cls-7" d="M142.69,168.4c-3.72-9-4.63-20.52-3-30.22h1.27c-.08,11.5,10.16,20.84,15.84,30.22h-4C147.62,162,141.08,156,141,147.76c-4,7.72.22,14,2.75,20.64Z" transform="translate(-5.27 -2.93)"/><path class="cls-7" d="M170.84,168.4l-.34-.35c-.4-4.27-6.17-.79-8.25-3.52-5.31,1-7.72-6-11.11-9.94l-1.84-4.34c4-1.95,8.44,3,10.15,6.75-.17,1.86,2,2.9,2.95,4.38,1.19,0,2.53.37,3.19-1-3.48-11.52-17.26-14.45-22.21-22.25H189l2.12,15c-4.68.22-9.62,2.29-11.86,6.87a77.12,77.12,0,0,0-.17,8.38Z" transform="translate(-5.27 -2.93)"/><path class="cls-7" d="M183.81,168.4c-.72-4.05-1.4-8.13,2.84-10.17,3.5,1.43,9.64,2.9,12.68-.45-4.06-4.18-5.1-9.5-5.62-15a10.71,10.71,0,0,1,4-4.63h11.21q.3.55.65,1.09c-5.33,7.08,1.29,24.3-12.56,22.57-1.15,2.75-.15,4.71,1.14,6.56Z" transform="translate(-5.27 -2.93)"/><path class="cls-7" d="M215.08,168.4c7.93-3.19,13.59-7.05,25.2-10.92,5-1.14,8.46-6.76,13.89-6.69l-1.06,1L255,154c7.92-6.94,19.18-9.3,28.1-15.79h1.24c1.71,6.66-6.6,7.81-10.16,10.36-1.19-.05-2.53-.37-3.18.88-6.89-5.5-9.9,6.7-16.09,6.59-5.25,1.55-10,4.66-15.92,4.56-4.62,2.79-9.29,5.44-14,7.83Z" transform="translate(-5.27 -2.93)"/><path class="cls-7" d="M243.64,168.4c7.14-2.44,14-5.66,19.71-12a134,134,0,0,1-8.41,12Z" transform="translate(-5.27 -2.93)"/><polygon points="263.11 135.83 270.59 131.99 264.13 135.87 263.11 135.83"/><polygon points="247.98 145.69 251.16 144.81 251.11 145.83 247.98 145.69"/><path class="cls-8" d="M224.94,147.35l1.15-1L225,145.23c3-1.06,10.54-2,13.6,1.71,5.63-2.38,10.27-7.53,17-6.64C247.19,147.42,236.67,149,224.94,147.35Z" transform="translate(-5.27 -2.93)"/><path class="cls-8" d="M242.14,138.68c1-7-4.29-14.22-6.44-21.29l1.5-33.61c1,.39,1.54-.36,2.16-.92l-1-1.06L240.29,85c1,17.48-6.45,38,5.08,51.68Z" transform="translate(-5.27 -2.93)"/><path d="M203,168.4c-2.64.05-2-2.9-3-4.3L216,159.54c-2.2-2.14-5.74-.77-8.31-.37,3.5,1.52,2.59-2.78,4.34-4-.49,1.51,1.26,2.18,2,3.24.92.38,1.46-.44,2.08-.93a73,73,0,0,1,1.64-36.75C216.5,106.07,221.48,91.58,228,79.2c3.15-.2,6.44-3.54,9.45-.6-17.94,7.87-15.07,29.35-19.86,45.29-1,10.42,9.16,19.37,1.82,29.51l1.06,1.07c.85-1.83,2.83-.55,4.2-.83,5.46,1.27,11.59-2.71,17.94-2.34C230.56,160.19,215.66,161.14,203,168.4Z" transform="translate(-5.27 -2.93)"/><path class="cls-5" d="M234.82,137.25l-1.94-2.13c-.62.57-1.49,1-1.19,2-3-1.92-8.55-.55-9.18-5.6,1.88-5.87-2.67-10.67.71-15.79,2.53,6.07,1.87,13.35,7.6,18.2,1.63-4.18-1.89-9.1-2.53-13.72.31-7,.33-16.82,3.2-24l2,.09c-.36,11.8-2.27,24.22,3.76,33.76C236.72,132.57,238.26,136.13,234.82,137.25Z" transform="translate(-5.27 -2.93)"/><path class="cls-8" d="M225.22,141.07l.09-2.12,8.35,1.39C230.84,140.64,227.42,139.22,225.22,141.07Z" transform="translate(-5.27 -2.93)"/><path class="cls-7" d="M42,220.65a8.26,8.26,0,0,1-.73-1.67l1,1.06c3.33-2.32-2.92-5,.33-7.3-1.82-1.19-.52-3.51-.78-5.31l2.21-2c-1-.89,1.3,3.12,2.95,4.38,2.94-3-.4-6.31-.6-9.47.92.3,1.46-.44,2.08-1-3.75-1.61-1.11-5.66-1.66-8.49l3,3.28,1.06-1,1,1.06-4.25,1.94,2.95,4.38c-1-.38-1.54.36-2.16.92,1,1.83,4.21,2.74,2.9,5.4-.92-.38-1.46.36-2.08.93-.22,5,3.09,8.81,5.71,12.84a2.46,2.46,0,0,1,1.62,0Z" transform="translate(-5.27 -2.93)"/><path class="cls-7" d="M92.44,161q-.18-.38-.34-.76c-1.66-4.75-7.45-2.54-8-7.67-1.39.62-1.1,1.91-1.24,3.09-2.2-3.93-2.55-11.26-8.94-10.95,0-1.1.36-2.45-.88-3.19l-1.15,1.05,2.45-7.29c-1.89,6.29,3.51,10.87,7.78,14,2.91-2.34-.46-5-.69-7.43.92.38,1.46-.36,2.08-.93-1.12-1.58-.16-3.92-1.8-5.35,3.94-2.71,1.73-8.34,2.6-12.47l3,3.28c1.39-.62,1.1-1.91,1.24-3.09,4.88,2.86-1.28,7.68.46,12.61-.57-.54-1-1.41-2.07-1.11-2.19,3.3-.86,7.87-.52,11.54,2.81,1.74,2.16,4.77,5,6.52l-2.21,2A14.7,14.7,0,0,0,93.3,161Z" transform="translate(-5.27 -2.93)"/><path class="cls-7" d="M110.88,161a8.06,8.06,0,0,0-.83-3.11c5.57-2.9-1.35-7.71,2.64-11.45l-.8.73-3-3.28.8-.73c.57.62,1,1.49,2.07,1.2,3.52-4.6-3.08-5.33-3.81-9.7-.54.66-1.41,1.13-1.11,2.08l-2-2.22c-.54.66-1.41,1.13-1.11,2.08-1.19-.05-2.47.14-3.09-1.16-.28-3.16,3.27-1,4.29-3l-6-6.56L96.68,130c-1.13-1.24-2.7-2.33-1.93-4.25.92.38,1.46-.44,2.17-1-.72-1.05-2.47-1.73-2-3.24l1.06-1c.56,2.58,3.29,4.31,5,6.52,3.91-.17,4.94,3.45,7,6.61,2-1.36.95-4.12,1.38-6.23,3.12.56,1.16-3.18,3.32-4,.57.54,1,1.41,2.07,1.11,5.11-9.81,11.35-20.16,23-23.12l-.09,2c-7.65,2-8.56,7.27-15.23,12-6.26,7.12-11,15.07-9.56,25.85q2.42,10,5.45,19.73Z" transform="translate(-5.27 -2.93)"/><path class="cls-7" d="M118.36,161q4.1,13.23,9.32,26.09l3,2.26c-5.64.77-11.28,1.54-16.93,2.39l.8-.73,1,1.06-.71.73c-5.79-1.62-12.69.79-19,1.27C86.21,195.31,85.31,205.9,76.34,209c-3.41,2.14-2.72,7.53-1.57,10.48a10.6,10.6,0,0,0,.92,1.19H60.83c-2.6-2.14-6.1-4-6.72-8.5,4.23,6.06,10-.4,13.41,5.87,1.3-.54,1.1-1.91,1.16-3.1l1.05,1.15,2.13-2c-6.75-2.94,1.43-9.21-6.87-9.75-.5-5.89-6.27-7.85-6.81-13-3.89,1.44-5.8-3.24-7.06-5.5l-2.21,1.94.52-11.54c2.11,9.87,10.95,15.46,14.74,23.79,1.59,2.45,3.84,3.32,6.08,4.52,2.89-2-.57-4.28-.82-6.41,3.59,3.31,9.68,3.92,13.5,3.84-2.33-3.08-7.77-6.81-6.86-11.87l1.06,1.07c1.49-2.83-2.09-6.39-.63-10.57-2.52-.71-4-3.67-6-5.46l4.38-3c-3-.3-2.64-3.69-4-5.45,5.43,2,5.25,7.89,7.88,11.92,1.39-.62,1.1-1.91,1.24-3.09,1.13,1.41,3,1.49,4,3.33.74-1.33,2-.93,3.19-1,1.41,4.49,7.69,2.73,7,7.71l3,3.28c1.3-.62,1-1.91,1.16-3.09-2.51-2.83.79,1.4,2.12.1l1.94,2.21c2.41-2.53-3.85-7.06,1.53-9.46-3.2-6.93-8.63-11.44-11.5-17.63h.85c4.83,4.21,11.53,4.24,16.14,10.56,1.19,0,2.53.37,3.27-.87-2.37-2.6-1.53-6.35-1.83-9.68Z" transform="translate(-5.27 -2.93)"/><path class="cls-7" d="M95.88,220.65c-3.7-3.61-7-7.64-8-12.17,1.09-5.48,6.31-8.14,10.9-10.06-3.29,3.34-11.18,4.94-9.88,10.1,1,.38,1.55-.44,2.17-1,.1,1.54-2.6,3-.19,4.24l-.73-.8,2.21-2,.73.8c-1.24,1.13-2.9,2.08-2.31,4.06l1,1.15,6.55-6c-1.14,2.76-5.42,5.37-3.51,8.26,7-9.89,18.82-16.25,30.22-18.63l-2.21,1.94,1.05,1.15c-8.26,4.38-18.2,10.37-23,19Z" transform="translate(-5.27 -2.93)"/><path class="cls-7" d="M104,220.65c8.63-8.18,18.6-15.91,29.32-19.66.38-.92-.44-1.47-.93-2.08l0,1-3.14-.14,0-1c-2.74.47,3.2.57,4.2-.92,2,2.9-2.37,5.51-3.51,8.26-1.19,0-2.45-.36-3.19,1-.38.92.44,1.47.93,2.08,4.41-1.84,10.16-4.9,12-8.9-.57-.62-1-1.41-2.07-1.11l.1-2.12c2.06-.59,2.93,1.07,4.14,2.31,1.3-.62,1.1-1.91,1.16-3.09L141,194c.62-.57,1.49-1,1.2-2.07,8.19,8.79,21.44,10.74,34.12,12.07.95-.3,1.42.57,2,1.11,1.41-1.13,4,.77,6.27.28,10-2.7,21.6-.56,29.75-8.11-5.38,8.22-15.74,16.41-25.07,23.35h-53l-.54-.59c.62-.57,1.41-1,1.11-2.08l-1-1.06-3.23,3.73h-8.79l5.83-6.13-1-1.06c-4,1.95-6.16,4.74-9.82,6.87l.79-.64.89,1h-1.38l-.3-.33-.34.33H112a103.82,103.82,0,0,1,12.43-8.49c-4.08-1.88-8.52,2.42-12.74,3.68-.83,1.87-2.5,3.35-4.18,4.81Z" transform="translate(-5.27 -2.93)"/><path class="cls-7" d="M120,280.26c-1.54,4.55-.26,10.42-2.42,14.6,10.68,10.09,26.78,12.68,41.22,16.56l1.15-1c13.43,3.58,27.14.88,39-3.53-.38,1,.36,1.55.92,2.17-26.26,7.84-58.86,5.53-80.24-12-2,1-.83,3.45-1.34,5.21a112,112,0,0,0,40.25,15.5c1.41-1.21,4,.77,6.27.28,12.55.39,23.88-2.25,34.92-5.83-16.1,8.72-39.49,11.33-56.78,2.73a48.84,48.84,0,0,1-27.75-13.83l-10.43-.47c.69-4.14-.13-8.59-2.67-10.66-.51,3.89.35,11.16-1.8,15.65,10.17.46,5.51,13.51,10.68,19.44l-1.89-3.23c-4.19-7-9.76-13.45-8.51-22.49-1.14-1.16-2.08-2.81-4.06-2.22l-1.06,1c.57.62,1,1.41,2,1.11-4.39,5.16,2.56,11.26,3.49,17,5.11,7.37,9.86,15,11.51,23.65-2.25-4.69-4.51-9.3-6.68-14-4.83,1.57-.22,4.92-.33,7.38-2.75-3.18-6.7-5.91-4.79-10.76.16,2,2.31,3.42,2.9,5.4,4.92-5.65-4.77-11-5.52-17.09.68-1.93-.88-3-1.93-4.25-4.14,3.22.91,8.21.46,12.61-2.87-6-.4-17.62-10.78-17.32-3.4-1.85-6.66-6.93-10.19-5.64l3,4.3,1.06-1c-.38.92.44,1.47,1,2.09-3.81-4.17-9-5.17-11.11-9.94-.25-.1,4.6,5.48,7.15,3.47L61.57,280.87c1.29-.34,3.19.85,4.05-.61h.44l.77.84a2,2,0,0,0,.86-.84h35.52l.33.36.39-.36h1.71a8.36,8.36,0,0,0-1.41,7.7c1.38-.53,1.1-1.91,1.24-3.09,1.42,2.53-3.29,3.34-.24,5.26,2.37-1.68,4.71-4.72,2.45-7.2-.38.92.36,1.46.93,2.08a42.68,42.68,0,0,1,4.08-4.75h1.79c.55,3.4-1.45,6,.22,9.28.38-1-.44-1.55-.92-2.17-1.39.62-1.1,1.91-1.24,3.09.65.62,1,1.41,2.07,1.11-.42,1.77.66,4.2-1.25,5.22l1,1.15c4.55-1.16,2.36-7.21,4.62-10.34-1.8-1.53-.49-4.19-.74-6.33l1.11-1Z" transform="translate(-5.27 -2.93)"/><path class="cls-7" d="M65.62,280.26a2.2,2.2,0,0,0,.15-.31l.29.31Z" transform="translate(-5.27 -2.93)"/><path class="cls-7" d="M67.69,280.26c.66-1.22.06-3.05.39-4.38l-1-1.15,1.06-1-4-3.33-1.15,1L58.08,266c-1.38.53-1.1,1.91-1.24,3.09l-2-2.22,1.15-1-6-5.54L51,259.3,48,256c4.9-3.1-4.66-2.08.23-5.18-1-1.32-2.61-2.41-1.93-4.34,8.45,4.89,2.78,15.69,11.78,19.49,3.59-2.31,6.19,5.89,10.34,2.5-1-1.24-2.61-2.33-1.93-4.25l1.15-1c-2.31-7.33-11.13-9.51-11.88-17.37-.92-.38-1.46.44-2.08.93L53.52,250l-2-2.13c6.52-3.37-3-6-2.71-9.65-2,1-.84,3.53-1.25,5.22-1.39-1.17-1.49-2.79-1.93-4.25l1,1.06c.61-2.35-4.56-8.28-3.64-11.73-1.31-1.16-1.49-2.79-1.93-4.25.57.54,1,1.41,2.07,1.11,1.07-1.17-.18-3-1.11-4.7H56.46c1.69.58,3.06,2.39,4.66.24l-.28-.24H75.68c4.56,5.13,12.64,4.23,15.35,11.1,2.59-.9,4.2,3,6.27.28.38-1-.36-1.55-.92-2.17,8.69,1.41,16.48,7.54,26.05,4.31,3.13-1.65,5.89-4.41,8.72-7l-1.06-1.07c-2.63,0,1.11-.21,1.06,1.07,1.79-2,4.74-3.53,5.45-6l-.43-.47h53c-2.68,2-5.28,3.88-7.65,5.63l-4.24-.19c-2,11.73-3.19,23.84-7.82,34.35a121.72,121.72,0,0,0,4.64-33.39c-8.25,2.18-5.11,13.55-9.28,19.48-.22-6.56,5.79-11.65,3.93-17.68-12.42,4.21-26,12.44-33.55,22.73.35,1.72-1,4,.87,5.23-7.89,3.56-16.15,5.91-23.57,10.51l1,1.15c-1-2.51-2.72,0-4.15-.19l-2.21,1.94.79-.64,1,1.06-.71.73c-1.08-2.51-2.72,0-4.24-.19-2.45,1.59-4.71,4.72-2.45,7.2l1.7,1.86Z" transform="translate(-5.27 -2.93)"/><path class="cls-7" d="M103.94,280.26l10.59-9.69c-2.48,3.89-6.55,6.48-8.88,9.69Z" transform="translate(-5.27 -2.93)"/><path class="cls-7" d="M112.69,280.26c.44-.42.92-.84,1.46-1.29a7.47,7.47,0,0,1,.33,1.29Z" transform="translate(-5.27 -2.93)"/><path class="cls-7" d="M119.32,280.26l1.1-1a10.21,10.21,0,0,0-.4,1Z" transform="translate(-5.27 -2.93)"/><path class="cls-7" d="M107.52,220.65c-2.13,1.86-4.28,3.71-4.73,6.36-2.11-2-4.58-4.08-6.91-6.36h5q-.54,1-1,2l1,1.15q1.57-1.56,3.21-3.12Z" transform="translate(-5.27 -2.93)"/><path class="cls-7" d="M118.47,220.65l-1.79,1.71.71-.73,1.05,1.15-.79.64-1-1.06c-2.23,2.37-5.54,4.17-6.6,7l-5.21-1.25a40.78,40.78,0,0,1,7.14-7.47Z" transform="translate(-5.27 -2.93)"/><path class="cls-7" d="M120.49,220.65l.09.09-.71.73-.76-.83Z" transform="translate(-5.27 -2.93)"/><path class="cls-7" d="M132.55,220.65,131.39,222l.71-.73,1.06,1.07-.8.73-1-1.06c-3.92,4.08-9.47,8.59-16.14,7.61l8.52-9Z" transform="translate(-5.27 -2.93)"/><path class="cls-8" d="M191.5,74.42c-57.06,1.44-120.27,28.29-142.29,83.94-3.47,5.37-5.28,12.57-7.07,17.54.31-1.51.23-4.68,1.58-9-.13-.21.24-.63,1-2.65C63.31,109.26,123.39,76,177.9,72.7c4.37,1,10.31-.81,15.73-.32l24.11,2.1C209.3,79,201,73,191.5,74.42Z" transform="translate(-5.27 -2.93)"/><polygon points="187.8 270.14 188.99 268.07 188.9 270.19 187.8 270.14"/><rect x="173.68" y="260.75" width="3.14" height="1.02" transform="translate(-98.83 421.75) rotate(-87.44)"/><path d="M170.25,126c-1.7-5.6-1.94-7.83-2.53-13.81C172.89,116.53,169.76,120,170.25,126Z" transform="translate(-5.27 -2.93)"/><path d="M167.71,137.39c-.82,1.24-3.28,3-1.29,4.19l-1.89-3.23c-2.09,3.05-1.1,7.6-1.62,11.49-.35-3.67-.56-8.36-4.84-9.66l-1.06,1c-1.32,1-.8-4.8-.69-7.43,2.68-1.16,2.12-3.82,2.32-6.19-5.41-4.33-1.5-8.23-3.55-13.77-2-5.36,3.92-4.16,4.53-8.22l4.93,7.53c-.54-1.3-1.9-1.11-3.09-1.16-1.9.68-.8,2.77-1.2,4.11-1-.3-1.55.44-2.17,1,.59,2.07,3.23,3.72-.23,5.26,1.4,1.08,2.23,3.25,4.1,3.33.48-1.34,0-4.85.33-7.38-.21,2.88,1.81,5,2.81,7.52-1,.21-1.5-.58-2.07-1.2-2,.68-.8,2.77-1.21,4.2.57.54,1,1.41,2,1.11l2.21-2c-.41,5.42,4.05,6.3,3.64,11.73Z" transform="translate(-5.27 -2.93)"/><path d="M169,109.13c-3.37,1.21-5.33-2.28-6.08-4.53.49-1.42.81-3,2.22-4.07C164.18,104.24,167.18,107.35,169,109.13Z" transform="translate(-5.27 -2.93)"/><path class="cls-7" d="M152.87,252c-.29-2.19,1-12.25,7-13.38Z" transform="translate(-5.27 -2.93)"/><polygon class="cls-7" points="191.69 300.76 192.25 301.72 189.02 303.62 188.46 302.74 191.69 300.76"/><path class="cls-7" d="M145.54,304.53c17.38,2.73,32.42-1.18,47.46-5.19l1.94,2.21C180.85,308.92,161.84,306.71,145.54,304.53Z" transform="translate(-5.27 -2.93)"/><path class="cls-7" d="M193.73,258.38c1.61-9.45-.31-17.7-6.21-24.43l.14-3.14C196.1,237.65,196.45,248.73,193.73,258.38Z" transform="translate(-5.27 -2.93)"/><path class="cls-7" d="M191.53,278.24l-1.66-.1-11.61-2.58c2.59-4.73,3.6-10.21,4.94-15.51,1.23,2.86.91,6.25,3.78,8.59,2.42-6.61-3.08-12.81-2.25-20.09.51,5.64,2.75,10.75,4.55,15.94-.18-3.58,1.31-10.4-.36-14.73-.62-3.17-2.72-5.73-1.7-9.52,4.34,11.34,2.2,24.93,4.63,36.95Z" transform="translate(-5.27 -2.93)"/><path class="cls-7" d="M122.9,294.08l1.06-1c19.85,2.59,42.09,8.52,59.87-1.57l3.08,3.28C167.73,304.16,142.66,300.57,122.9,294.08Z" transform="translate(-5.27 -2.93)"/><path class="cls-7" d="M166.41,282.33c11.94-14.35,14.73-33,15-52.9C184.25,248.09,179.14,269.3,166.41,282.33Z" transform="translate(-5.27 -2.93)"/><rect class="cls-7" x="178.31" y="308.7" width="1.1" height="2.04" transform="matrix(0.05, -1, 1, 0.05, -143.88, 471.51)"/><path class="cls-7" d="M122.12,288.77l.09-2c2.36.45,5.55-.69,7.25,1.35,4.68-.13,12.51,1.41,17.85-.22,3.83-.25,7,1.16,11.58-.59l1.06-1c-4.44-3.35-11.26,1-17.8-.8,9.29-.6,6.36-1.67,14.85-3.59.57.62,1,1.49,2.07,1.2l-1.06,1c1,.72,1.5,2.62,3,2.26,3.71.51,9.92.36,13.7-2.53l2,2.22c-9.52,6-23.2,4.06-33.72,3.68,7.57,5.44,20.68,4.84,29.28,2.42l7.48-3.92C164.94,298.09,139.16,293.27,122.12,288.77Z" transform="translate(-5.27 -2.93)"/><path class="cls-7" d="M178.06,234.55l1,1.15c-2.57,6.18-.48,14.61-3.06,20.87l3.2-24.09C179.46,233.51,178.59,234,178.06,234.55Z" transform="translate(-5.27 -2.93)"/><path class="cls-7" d="M163.36,280.16l1.06,1.07c-12.65-4-19.49-16.35-25-27.4,1-.63,1.72-2.39,3.23-1.9.36,1.46-1.53,2-2.26,3,.62,1.3,1.91,1,3.09,1.16,1.5-1.21,1.5-3.08,3.32-4,.45-2.45-.94,2,1,2.09,3.88-1.27,1.61-5.54,2.41-8.31,2.87,6.17-2.93,14.16-2.93,19.85,6.84-8.62,13.77-19.11,16.07-30.75l3.28-3.08a245.66,245.66,0,0,1-15.39,38.26l1,1.06c9.32-7,12.48-16.87,15.88-26.59-1,8.12-2,16.24-6.2,22.85l.83,4.2c.38-1-.44-1.55-.92-2.17-2,2.29-3.75,6-2.49,8.31,4.43-2.27,11.27-12.59,13.48-20.4C170.48,265.42,169.17,273.78,163.36,280.16Z" transform="translate(-5.27 -2.93)"/><rect class="cls-7" x="160.94" y="252.2" width="2.12" height="1.1" transform="translate(-103.02 400.36) rotate(-87.44)"/><path class="cls-7" d="M123.42,282.53c9.31-1,17.86-4.39,26.57-7.23l2.95,4.38C144.26,283.81,133.84,283.17,123.42,282.53Z" transform="translate(-5.27 -2.93)"/><path d="M148.39,122.92c1.34-3.43-2.07-5-.64-8.45l4.94,5.49c-.92-.38-1.46.36-2.08.93,4.38,2.75-.74,9,3.64,11.73C149.55,131.3,150.37,126.15,148.39,122.92Z" transform="translate(-5.27 -2.93)"/><path d="M146.57,211.11c-6.75-2.94-5.85,5.35-8.77,8-1.74-4.76,5.68-9.19,4.76-13.48-3.82,1.79-6.79,5.65-10.75,6.83,3.12-3.35,7.8-11,12-8.9,1.85.34-.09,5.78,4,4.43l3.28-3C151.72,208,148,209.05,146.57,211.11Z" transform="translate(-5.27 -2.93)"/><path d="M117.81,197.15l.71-.65,1.06,1.07-.8.73c-5.08-2.35-10,2.78-14.9,4.6a14.39,14.39,0,0,0-8.62,4.8c8.57-11.18,24.58-14,33.12-13.23C124.48,194.3,121.33,196.29,117.81,197.15Z" transform="translate(-5.27 -2.93)"/><path d="M194.32,199.56c3.72-5.19,11.08-10.3,17.26-11.81A21.33,21.33,0,0,1,194.32,199.56Z" transform="translate(-5.27 -2.93)"/><rect x="121.74" y="132.34" width="5.18" height="1.02" transform="translate(-19.21 248.21) rotate(-87.44)"/><path d="M121.37,187.87c-.68-1.9-2.77-.8-4.19-1.21,0-5.7-7.89-5.88-4.61-12.79l6,6.56-1.15,1C117.63,184,121.14,185.31,121.37,187.87Z" transform="translate(-5.27 -2.93)"/><path d="M119.67,178.36c-.49-6.15-8.52-6.93-6.68-14C115.72,169.76,120.39,171.75,119.67,178.36Z" transform="translate(-5.27 -2.93)"/><path d="M96.85,219.35l-1-1.06,9.74-7C104.15,215.68,98.69,216.2,96.85,219.35Z" transform="translate(-5.27 -2.93)"/><path d="M85.48,192.56c-1.51-4.32-9.35-3.74-8-9.8l9,8.82c1.63-4.09-5.35-7.72-4.69-12.8-.08,1.87,2,2.9,3,4.3l1.15-1c1.3,1.25,1.22,3.12,3,4.3l4.15.19c-2.89,2,.49,4.27.82,6.33C91.08,192.81,86.88,187.94,85.48,192.56Z" transform="translate(-5.27 -2.93)"/><polygon points="78.42 299.94 80.41 301.05 78.37 300.95 78.42 299.94"/><polygon points="80.36 231.73 82.48 231.83 80.27 233.77 80.36 231.73"/><path d="M80.42,235.45l1,1.06-3-4.3,1.06-1-.71.65-1.06-1.07.8-.73,4,4.43C81.58,234.14,81,234.88,80.42,235.45Z" transform="translate(-5.27 -2.93)"/><polygon points="69.52 240.69 70.58 239.63 72.51 243.97 71.71 244.7 64.75 236.99 65.47 236.25 69.52 240.69"/><path d="M74.63,269.89c-2,.51-2.92-1.15-4.06-2.31,2.51-1-.13-2.73.19-4.16A14.84,14.84,0,0,0,74.63,269.89Z" transform="translate(-5.27 -2.93)"/><path d="M73.23,231c.57.62,1.31,1.16.93,2.08-2.14-1.46-6.9-1.41-6-5.54l6.18,2.4Z" transform="translate(-5.27 -2.93)"/><path d="M71.11,230.86c-2-2.64,0,.76,1.1,0Z" transform="translate(-5.27 -2.93)"/><path class="cls-7" d="M73,165.72c-.44-1.47-.54-3.09-1.93-4.25,1.41-1,.26-3.82-.78-5.31l-1-1.06c-1.59,3.33.65,8.19-2.64,11.45l-.24,5.26-3.14-.14c.47-4.83-5.14-4.74-7-8.73,3.31-1.81-1.3-3.29-.78-5.31,2,1.88,3.56,9.77,8.07,7.67l.09-2,1,1.06a11.9,11.9,0,0,0,.47-10.44c2.45-1.51,3.33,3.3,5.26.24-1.26-2.18-.93-5.83-3.87-6.55l.14-3.14c3.34,3.13,5.56,6.63,5.8,10.81-2.92,2.68.43,5.63.64,8.45l1,1.06Z" transform="translate(-5.27 -2.93)"/><path d="M64.19,245.18c-1.35,1.64,1.25,4.31,1.83,6.46-1-.39-1.54.36-2.16.92.57.62,1,1.41,2.07,1.11l0,1.1c-4.48,1.41-1.92-2.72-4-4.43,2.51-1-.13-2.73.19-4.16-11.54-.26-8.85-14.77-18.15-17.65,1.38-.53,3.48-3.76.24-5.26,1.19.05,2.53.37,3.18-.88-1.12-1.58-.16-3.92-1.8-5.35,4.84,5.66,11.84,12.69,17.05,17.6l1.06-1-.14,3.14c-1-.39-1.55.36-2.17.92,5.58.59,1,6.59,4.88,8.64C65.69,245.76,65.22,245,64.19,245.18Z" transform="translate(-5.27 -2.93)"/><path class="cls-7" d="M56.95,173.42c-1.92-.77-.64-2.83-.92-4.21C55.79,170.82,57.7,171.67,56.95,173.42Z" transform="translate(-5.27 -2.93)"/><polygon class="cls-7" points="49.41 173.54 51.34 177.88 49.32 175.66 49.41 173.54"/><path class="cls-7" d="M28.4,177.41c1.15-4.88,6.43-3.2,9.65-4.84Z" transform="translate(-5.27 -2.93)"/><polygon class="cls-7" points="18.69 180.58 32.58 173.89 29.3 176.89 18.69 180.58"/><rect class="cls-7" x="34.51" y="169.85" width="1.02" height="2.12" transform="translate(-142.55 195.35) rotate(-87.45)"/><polygon class="cls-7" points="85.81 86.98 93.14 88.33 93.1 89.34 85.81 86.98"/><path class="cls-7" d="M88.74,95a20.92,20.92,0,0,0-13.42-3.75C79.75,86.93,86.63,90.81,88.74,95Z" transform="translate(-5.27 -2.93)"/><path class="cls-7" d="M74.12,93.31c4.16,2,10.58.81,12.4,5.83C82.25,97.5,79,93.53,74.12,93.31Z" transform="translate(-5.27 -2.93)"/><path class="cls-7" d="M63.5,97c4.48-7.11,12.72.57,17.66,3.94l.92,2.17C75.89,101.13,70.45,97.48,63.5,97Z" transform="translate(-5.27 -2.93)"/><path class="cls-7" d="M71.66,102.64c2.38,2,6.73-.38,8.17,3.51C77,108.15,75.08,102.28,71.66,102.64Z" transform="translate(-5.27 -2.93)"/><path class="cls-7" d="M73.14,115.29c-6.9-5.24-16.13-5.83-24.81-7.41,6.2.11,18.75.5,26,5.42C73.71,113.87,72.84,114.35,73.14,115.29Z" transform="translate(-5.27 -2.93)"/><path class="cls-7" d="M53.72,105c2.18-1.18,2.19-3.39,3.37-5.12l14.34,8C65.52,107,60.28,104.43,53.72,105Z" transform="translate(-5.27 -2.93)"/><rect class="cls-7" x="64.86" y="99.73" width="1.1" height="2.12" transform="translate(-43.48 158.69) rotate(-87.43)"/><path class="cls-7" d="M63.3,124.38C53.57,123.6,44,119.6,34,122c6.91,1.24,13.82,2.41,18.57,8.23-1.51-.49-2.18,1.26-3.23,1.9-.68-1.9-2.77-.8-4.19-1.21l-1.06,1c-2.18-.61-6.77-.64-9.46.68l-1.15,1a17,17,0,0,0,.56-12.56c1.46-.28,3.44,1,4.28-.83C40.93,121.25,58,118.36,63.3,124.38Z" transform="translate(-5.27 -2.93)"/><path class="cls-7" d="M39.46,118c3.13-1.65,2.93-4.8,4.48-7.2-.48-.62-1.31-1.16-.93-2.08,7.14,1.77,13.25,5.7,19.55,9.29C53.56,118,47.86,116.46,39.46,118Z" transform="translate(-5.27 -2.93)"/><path class="cls-7" d="M39.73,134.89l15.77.71C51,138.54,45.73,133.54,39.73,134.89Z" transform="translate(-5.27 -2.93)"/><polygon class="cls-7" points="38.27 141.57 45.66 139.78 41.41 141.71 38.27 141.57"/><path class="cls-7" d="M34,146.11l-.73-8.37,13.6,1.63C42.57,141.65,37.7,142.28,34,146.11Z" transform="translate(-5.27 -2.93)"/><path class="cls-7" d="M19.72,183.32c.1,1.62-1.8,2.3-1.21,4.2l2,2.13c5.22-2.83,10.38-6.08,16.05-7.61l0,1c-5.75,3.23-12,4.9-17.25,9.69a3.27,3.27,0,0,0-.79-5.22c-5.33,8.95-6.8,21-6.66,31.17,6.84-8.62,18.61-17.2,25.06-20.9l-16.38,15,2,2.22,1.06-1c-2.63,3.71-6.34,6.94-7.8,11.13,1.11-3.86,4.46-6.77,6.74-10.16l-2-2.22C17,216.45,15,220.87,12.68,225c-6.58-23.85,4.79-48.18,21.73-64.17l11.86-6.78C38.12,163.22,25.1,171.48,19.72,183.32Z" transform="translate(-5.27 -2.93)"/><path class="cls-7" d="M36.76,155.76c-1-1.83-.84-4-2.9-5.4l8.35-.65Z" transform="translate(-5.27 -2.93)"/><path class="cls-7" d="M16.89,201.05c-3.51-3.13,12.08-9.83,18.46-13.89Z" transform="translate(-5.27 -2.93)"/><path class="cls-7" d="M25.2,201.42,14.3,211.48c1.75-10.64,13.82-12.73,20.81-19.05C35.53,198.31,28.25,197.82,25.2,201.42Z" transform="translate(-5.27 -2.93)"/><polygon class="cls-7" points="27.47 217.8 28.48 219.88 28.15 227.27 27.47 217.8"/><path class="cls-7" d="M24.8,235.08c4-3.48,1.8-9.78,2.69-14.59C29,225.06,33.45,233.43,24.8,235.08Z" transform="translate(-5.27 -2.93)"/><path class="cls-7" d="M23.93,229.77c.57.62,1.39,1.17,1,2.17-1.18-.14-2.55.14-3.09-1.24l2.46-9.33Z" transform="translate(-5.27 -2.93)"/><path class="cls-7" d="M19.83,228.57c-4.27-1.47-.15-6.13,1.39-8.36Z" transform="translate(-5.27 -2.93)"/><path class="cls-7" d="M18.67,231.66c-.62-1.39-2-1.11-3.09-1.24l3.14.14Z" transform="translate(-5.27 -2.93)"/><path class="cls-8" d="M230.56,78.35a7.53,7.53,0,0,0-4.67,3.81c-.47.87-.42,2.12-.8,2.83-1.79,3.28-2.59,6.52-4.17,9.79-2.58,5.35-2.53,11.27-3,17.26-.26,3.31.61,6.73-.54,9.74-1,2.58-2.13,5-2.37,7.71-.08.89.39,2,.18,3-2,9.69-1.51,19.64,3.61,27.51.92,1.42,4.61,1.65,5.36-.86.55-1.84-1-3.68-2.3-5.27-.39.47-.94-.29-1.33.17-.45-1.62,1.32-2.45,1.33-3.59,0-2,1.43-3.7.8-5.92-.59-2.06-.5-4.2-1.07-6.16-1.6-5.45-3.24-10.71-2.81-16.45,0-.22.83-.31.92-.6.89-2.85-.47-6.13.58-9,1.42-4-.16-8.58,1.09-12.67,1.33-4.36,3.46-8.09,5.66-12.3,2.43-4.64,7.14-6.87,11.53-9.06-3.41-.72-8.5-2-10.64,1.39" transform="translate(-5.27 -2.93)"/><path class="cls-9" d="M181.27,90.46c-1.73,1-3.22,2.31-3.41,4.16-.33,3.13,2.16,5.91,4.71,6.68,3.4,1,7.3-.75,9.45-4,1.6-2.4.63-5.2-1.2-7.19A7.25,7.25,0,0,0,179,91.57" transform="translate(-5.27 -2.93)"/><path d="M185.12,99.31c-3.9-.26-4.55-2.67-3.87-6.47,1.24-1.05,2.33-2.62,4.24-1.85-.38.92.44,1.47.93,2.08.62-.57,1.49-1,1.19-2C191.5,93.38,188.92,99.82,185.12,99.31Z" transform="translate(-5.27 -2.93)"/><path class="cls-8" d="M151.48,197.41c10.08,4.5,20.71,4.15,30.83,7.25,11-1.34,22.82-1.5,32.36-8.15.21,3.12-2.17,5.93-4.26,7.93a180.72,180.72,0,0,1-26.8,21.48c-1.17.75-2.6-1.25-4.19-.89-1.94.44-3.62.77-4.23,2.91a2.16,2.16,0,0,0-1.37-1.56c-1.84-.67-2.94,1.44-4.52,2.06,0-.63-.72-.55-.94-1-12.28,6.62-27,10.66-34.29,24.08-.34.63-1,2.3,0,3.42-6.92,4.2-14.47,7.33-20.84,12.47.65,3-3.37,2.94-4,5-.24.8,1.22,2.21.2,2.81-3.54,2.09-6.71,5.79-6.92,10.14,0,.86-1,1.21-1.29,1.8-1.11,2,.14,4.49-2,6,.8-.52.42.5.75.58-2.28,1-.16,2.42.72,3.43-2.27-1-6.53-1.21-6.37,1,.23,3,.86,7.69-.61,10.88-.34-1.24-.41-2.65-1.35-3.56A14.55,14.55,0,0,0,89.09,303c-2.95-1.41-5.77-2.58-8.58-4.27-2-1.19-.91-3.48-.85-5.49,0-.57,1.37,0,1.38-.37.12-3.33.85-6.88-1-9.77-.63-1-1.07-2-1.68-3,2.31.84,4.28-.71,6.28-1.63l-4.44-9.17c2.11.72,5.17,1.07,5.7,0,2.32-4.78-3.34-9.08-3.51-14.22a65.21,65.21,0,0,0-.76-9.12c3.24,1.42,6,4.5,9.65,2.4-.88-.77-.21-2-.91-2.86,3.43.12,6.35,4.51,9.78,1,.68-.7-.15-2.62-.82-3.93a30.52,30.52,0,0,1,4-.34c1.76,0,3.54,2.72,5.08.85.84-1-.65-2.93-.23-4.11s2.4-.13,3.54-1c-1.14.49-.17-1.08-.94-1a.8.8,0,0,1,.93-.83c1.78.44,3.47,1.33,5.14,1.4,3.28.13,6.11-2,8.86-3.75a56.49,56.49,0,0,0,11.56-10.2c3.34-3.69,4.74-9.53,9.14-11.26,1.4-.55,4.54.42,5.31-1.22,1-2.19,2.8-7.1-1.24-8l.38-.18c-1-.48-1.84,1.07-2.58.27a4,4,0,0,1-.42-4.76,4.7,4.7,0,0,1,2.9-1.51C150.94,196.89,151.19,197.28,151.48,197.41Z" transform="translate(-5.27 -2.93)"/><path class="cls-8" d="M159.74,178.5c-2.9-.51,9.34,11.72,13.73,13.18,4.83,1.6,9.57-.94,14.44-2s8.73-5,13.51-5.6c4.55-.55,9.14-1.07,13.8-1.25,4.33-.17,8.46-1.89,12.44-3.41,10.35-4,20.77-7,29.8-14.24,1.36-1.09-2.07,1.4-2.34-1-10.54,3.5-15,4.51-25.85,8a31.13,31.13,0,0,0-9.26,5.19,14,14,0,0,1-8.54,2.46c-3.18,0-6.33.42-9.47.52a27.36,27.36,0,0,0-9.25,2c-2.13.85-5.47,1-6.42-1.3-.67-1.63-.38-4.83,2-4.54s4.79.12,7.29.69a19.78,19.78,0,0,0,10.16,0c8.55-2.52,15.78-6.84,24-9.92,2.34-.88,5.49-1.08,6.4-4.26A15.07,15.07,0,0,0,231,164c-7.07,2.24-13.32,5.39-20.29,7.69-3.92,1.29-7.89,2.47-12.07,2.14a34.09,34.09,0,0,1-6.14-1.29c-1.52-.41-3.67-1.56-4.6-.48a6.33,6.33,0,0,0-1.44,3.18c-1-1.5-7.79,2.13-9,2.59C173.61,179.28,166.79,179.73,159.74,178.5Z" transform="translate(-5.27 -2.93)"/><path class="cls-8" d="M180.86,199.7c5.75-2.48,10.55-6.62,16.48-8.78,0,0,.6.8.4.95C190.75,197.14,190.56,196.59,180.86,199.7Z" transform="translate(-5.27 -2.93)"/><path class="cls-8" d="M167.24,196.89c3.57-1.18,6.61-3.15,10.31-4,.32-.07,1,.62.81.73-5.84,3.62-6.49,3.09-12.26,4.42C165.93,198.12,166.54,197.12,167.24,196.89Z" transform="translate(-5.27 -2.93)"/><path class="cls-8" d="M203.64,199c4.2-1.42,7.14-5.31,11.15-5.91.62-.09-.6,1.45-1,1.64C210.57,196.45,208.12,199.86,203.64,199Z" transform="translate(-5.27 -2.93)"/><path class="cls-8" d="M142.28,256.92c1.43.52,3.22-2.06,4.26-3-.63,1-.1,1.2.15,2,.76-.37.46.39.34.83s1.85-2.42,2.43-2.88c-.38,3.26-3.21,8.24-2.29,11,.14.43-.27,1.89.57,1.35.61-.38,1.35-.49,1.84-1,1.54-1.67,7.23-12,9.07-14.08.65-.72-.5.7.15,1-1.56,2.56-7.73,14.36-8.09,17.27-.13,1.06.89,2.61,2.08,2.42,2.46-.4,8.08-7.33,12.58-16.76.52.95-6.59,14.36-7,15.2.39,0,2.53-2.34,2.92-2.34-.81,1.88-3.83,6-3.43,8.17.28,1.57,1.87,1.83,3.1,1.38,2.06-.75,3.34-2.64,5-4a9.14,9.14,0,0,1-3,5.44,2.34,2.34,0,0,1-1.92,0c-3.06-1-5.19-3.13-7.82-5-3-2.15-4.77-5-6.92-7.9s-4.5-5.8-5.13-9.52A4,4,0,0,0,142.28,256.92Z" transform="translate(-5.27 -2.93)"/><path class="cls-8" d="M179.52,275.12c1.49-2,2-6.64,3.21-8.77.33,1.66,1.23,3,.73,4.68,1.34-.51.15-.61,1-1.26.44-.33-.37-3.07.26-2.77s1.83,2.6,2.12,2.7c1.78.59,1.82-3,2.43-4.51.82,3,.66,8.93.29,12.13C186.55,276.3,182.52,276.32,179.52,275.12Z" transform="translate(-5.27 -2.93)"/><path class="cls-8" d="M181.42,229.09s1.31,34-15.18,53.34C166.24,282.43,186.82,263.57,181.42,229.09Z" transform="translate(-5.27 -2.93)"/><path class="cls-8" d="M187.7,233.18s6.13,4.82,6.42,14.76c0,0,1-8.18-6.28-15.93Z" transform="translate(-5.27 -2.93)"/><path class="cls-5" d="M123.44,147.31c4.91,12.34,8.95,26.06,21.62,33.13,5.55,3.1,11.67,2,17.81,1.72,2.29-.11,5.12.2,6.5,1.57,1.67,1.66,3.55,3.73,4.19,6.25.33,1.3-.85,2.57-2,3.23a51.38,51.38,0,0,1-7.62,3.67c-4.42,1.65-8.38-1.07-13-1.68-1.54-.21-2.68-1.67-4-1.87s-1.94-1.26-3.07-1.52c-2-.46-3.88-2-5.85-3.3s-5.37-3-6.71-4.85c-7-9.71-8.11-16.94-11.55-27.42-1.93-5.89-4.09-11.29-1.49-18.68,2.14,1.82,4.09,3.78,5,6.52" transform="translate(-5.27 -2.93)"/><path class="cls-8" d="M88.67,209a2.06,2.06,0,0,0,1.75-.29c-.67.73-1.3,1.84-.73,2.5s1.35-.46,2-.9c0,.54-.44.52-.71.76s-.32.75-.41,1.15a2.59,2.59,0,0,0,.29,2.15,1.22,1.22,0,0,0,1.8.4c.75-.68,1.46-1.37,2.25-2a3.66,3.66,0,0,0-.21,4.47c.05.07.45.36.62.17a33.16,33.16,0,0,1,2.86-3c.78-.68,1.92-.67,2.86-1.09-.52.72-1.35.94-2,1.47a14.4,14.4,0,0,0-2.6,2.65c-.22.28-.6.52-.48,1,.17.69.79,1.32,1.42,1,2.74-1.58,4.81-3.86,7.63-5.19-.86,1.32-2.56,2.16-3.48,3.52-.79,1.18-1.22,2.18-2,3.37-.27.39-.28,1.9,0,2,.57.2.82,1.43,1.49,1,1.16-.78,2.06-2.26,3.14-3.11.68-.53,1.32-1,2-1.56,2.41-2.11,4.31-4.68,7.37-5.73.57-.2,1.1-.8,1.73-.8a5,5,0,0,1-2.45,2.1c-.39.2-.9.18-1.16.55-2.2,3.16-4.89,5.22-7.59,7.75a3.11,3.11,0,0,0-1.15,2.82c.38,1.15,2.2,1.78,3.58,1.45.5-.12.8-.75,1.06-1.17a19.15,19.15,0,0,1,5.58-5.84c1.37-.94,2.51-1.83,3.9-2.68a32,32,0,0,1,6-2.7c.74-.27.23-.55.55.48A34.33,34.33,0,0,0,112.4,225c-.86,1-2.29,2.12-2.42,3.43,1.53.44,3.77,1,5.2.54a14.13,14.13,0,0,0,5.39-3.25c1.77-1.59,3.23-3.45,5.08-5,1.32-1.09,2-2.79,3.51-3.44a14.89,14.89,0,0,1,4-1.09c.54-.07,1.52-.11,1.53.53,0,1-1.52,1.45-2.07,2.27a18,18,0,0,1-3.07,3.46,47,47,0,0,1-6.9,5.52,7.2,7.2,0,0,1-2.79.95,59.24,59.24,0,0,1-6.26.49c-2.82.19-5.35-.79-8.15-1.37a4.84,4.84,0,0,1-2.6-.84c-2.51-2.45-4.5-5.12-7.1-7.5-1.79-1.64-3.7-2.92-5.08-5a11.44,11.44,0,0,1-1.88-5.9Z" transform="translate(-5.27 -2.93)"/><path class="cls-8" d="M200,311.65s-35.32,20.46-83.19-11.11a6.83,6.83,0,0,0-2.21-1.22,2.48,2.48,0,0,1-1.06-.47c-1.55-1.68-2.13-3.9-4.31-5.16-1.07-.62-2.36-1.78-3.54-2.32-2.63-1.21-4-5-6.81-4.88-1.35.07-.66,2.76-1.31,4.33-.39,1-.74,2.6.24,3.26a2.92,2.92,0,0,0,2.95,0c1.44-1.16,3.14-1.37,4.2.2s1.16,2.28,2.47,3.36c1.54,1.25,1.28.61,2.89,1.78.89.64,3.35,2.61,4.3,3.32C114.57,302.74,155.88,332.11,200,311.65Z" transform="translate(-5.27 -2.93)"/><path class="cls-8" d="M101.15,306a7.56,7.56,0,0,1,1.17,1.46c1.88,2.36,3.12,2.81,3.57,4.73,1.08,4.67,4.75,8.15,4,12.81-3.12-4.15-3.93-9.16-7.11-13.58C101.69,309.84,100.51,308.1,101.15,306Z" transform="translate(-5.27 -2.93)"/><path class="cls-8" d="M170.18,305.51s9.92,0,16.35-2C186.53,303.47,181,307,170.18,305.51Z" transform="translate(-5.27 -2.93)"/><path class="cls-8" d="M226.67,178.53c1.55,1.51,3.81,1.15,5.8,1.63.21.05,1.41.33.82.91-2.52,2.48-6,3-8.91,5.13-.82.6-2.32,2.3-1.15,2.55,3.1.67,5.59-1.94,8.64-2.82a14.13,14.13,0,0,0,6.12-3.09,14.76,14.76,0,0,1,2.47-2.16c2.82-1.7,5.24-3.42,8-5.18,1.42-.89,2.35-2.27,3.69-3.24,1.12-.81,1.29-1.83,2.4-2.65s2-.8,1.46-2.44c.08.25-1.08-1.89-.15-2.31-1.63.74-3.19,1.61-4.79,2.38-1.91.92-4,1.65-6,2.43-4.85,1.92-9.62,3.69-14.37,6-1,.48-1.05,1.81-2.05,2.32" transform="translate(-5.27 -2.93)"/><path class="cls-8" d="M256.6,156.24a91.88,91.88,0,0,0-15.15,3.55c-.11,0,0,.66,0,1,1,0,2.07.35,2.91.33,4.55-.1,8.68-2.54,12.85-4.42C257,156.56,256.76,156.22,256.6,156.24Z" transform="translate(-5.27 -2.93)"/></svg>