<svg id="Layer_1" data-name="Layer 1" xmlns="http://www.w3.org/2000/svg" viewBox="0 0 179.03 32.29"><defs><style>.cls-1{fill:#f4d792;}</style></defs><title>bebe</title><path class="cls-1" d="M38,23.14a7.34,7.34,0,0,1-3.34,6.29Q31,32,24.35,32a23.38,23.38,0,0,1-9-1.57q-4.86-2.06-4.87-6.19,0-9.73,13.66-9.73Q38,14.49,38,23.14m6.49-.64q0-5-5.16-8.21Q33.94,11,24.75,11,16,11,11,14.61h-.2V3.93A.82.82,0,0,0,10,3H5.63q-.89.1-.89.88V33.86q0,.93.89.88l.64,0H8.82l.74,0q.83,0,.84-.88V31.79h.2q4.47,3.54,13.07,3.54,11,0,16.46-4.37a10.4,10.4,0,0,0,4.37-8.45m40.93-1.38H55.8q0-2.7,4.35-4.79a23.82,23.82,0,0,1,10.39-2.09q14.06,0,14.89,6.88m5.48,2.09a3.31,3.31,0,0,0,1-2.43,3.17,3.17,0,0,0-.34-1.52q-1.77-4-7-6.21a34,34,0,0,0-13.22-2.23q-11.25,0-17,3.73a10.21,10.21,0,0,0-5.16,9q0,5.16,5.26,8.25Q60,35.13,69.75,35.13q8.7,0,13.66-1.62A18.5,18.5,0,0,0,90,30h0a.73.73,0,0,0,.2-.54.81.81,0,0,0-.64-.84l-3.15-.93h-.25a.79.79,0,0,0-.74.44,11.89,11.89,0,0,1-2.51,1.72Q79,31.74,70.69,31.74q-14.89,0-14.89-7.52H88.48a3.31,3.31,0,0,0,2.43-1m39-.07a7.34,7.34,0,0,1-3.34,6.29Q122.89,32,116.21,32a23.38,23.38,0,0,1-9-1.57q-4.87-2.06-4.87-6.19,0-9.73,13.66-9.73,13.86,0,13.86,8.65m6.49-.64q0-5-5.16-8.21Q125.79,11,116.6,11q-8.7,0-13.71,3.6h-.2V3.93a.82.82,0,0,0-.83-.89H97.48q-.89.1-.89.88V33.86q0,.93.89.88l.64,0h2.55l.74,0q.83,0,.84-.88V31.79h.2q4.47,3.54,13.07,3.54,11,0,16.46-4.37a10.4,10.4,0,0,0,4.37-8.45m40.93-1.38H147.65q0-2.7,4.35-4.79a23.81,23.81,0,0,1,10.39-2.09q14.06,0,14.89,6.88m6.49-.34a3.17,3.17,0,0,0-.34-1.52q-1.77-4-7-6.21a34,34,0,0,0-13.22-2.23q-11.26,0-17,3.73a10.21,10.21,0,0,0-5.16,9q0,5.16,5.26,8.25,5.55,3.29,15.33,3.29,8.7,0,13.66-1.62A18.51,18.51,0,0,0,181.81,30h0a.73.73,0,0,0,.2-.54.81.81,0,0,0-.64-.84l-3.15-.93h-.25a.79.79,0,0,0-.74.44,11.87,11.87,0,0,1-2.51,1.72q-3.83,1.92-12.14,1.92-14.89,0-14.89-7.52h32.68a3.44,3.44,0,0,0,3.44-3.44" transform="translate(-4.74 -3.04)"/></svg>