<?xml version="1.0" encoding="utf-8"?>
<!-- Generator: Adobe Illustrator 21.0.2, SVG Export Plug-In . SVG Version: 6.00 Build 0)  -->
<svg version="1.1" id="Layer_1" xmlns="http://www.w3.org/2000/svg" xmlns:xlink="http://www.w3.org/1999/xlink" x="0px" y="0px"
	 viewBox="0 0 704 487" style="enable-background:new 0 0 704 487;" xml:space="preserve">
<style type="text/css">
	.st0{fill:#010101;}
	.st1{fill:#F6EB16;}
</style>
<g>
	<g>
		<path class="st0" d="M22.4,118.8c48.4-38,96.9-75.8,145.5-113.6c118.9,11.3,237.7,22.7,356.6,34c57.7,5.4,115.3,11.2,173,16.4
			c-0.7,13-2.4,25.9-3.4,38.9c-12.1,129-24.3,258-36.5,387c-177-16.5-353.9-33.2-530.9-49.6C87.6,386,48.4,340.1,9.2,294.3
			c-1.1-1.5-3.2-2.8-2.8-4.8C11.7,232.6,17.2,175.7,22.4,118.8z M31.5,122.9c-1.2,5-1.1,10.4-1.8,15.5c-4.9,49.7-9.8,99.3-14.7,149
			c38.7,45,77.5,89.9,116.2,134.9c172.9,16.5,345.8,33.1,518.6,49.6c12.7-135.8,25.5-271.6,38.2-407.4
			c-55.4-5.4-110.8-10.7-166.1-16C405,37.2,288,25.9,171.1,14.8C124.6,50.9,77.9,86.8,31.5,122.9z"/>
	</g>
	<g>
		<path class="st0" d="M113.4,88.1c26.2,2.5,52.3,5.2,78.5,7.7c14.4,1.1,28.9,4.4,42,10.6c7.9,3.9,16,9.5,18.5,18.4
			c2.4,10.5-1.5,22.4-10.2,29c-4.1,3.4-9,5.4-13.9,7.1c8.7,2.9,17,8,22.5,15.5c6.6,8.8,6.8,22.1-0.1,30.8c-6.6,8.1-17,11.6-27,13.6
			c-19.5,3.9-39.4,0.8-59-1c-21.1-2.1-42.1-4.3-63.2-6.5C105.6,171.7,109.5,129.9,113.4,88.1z M168,142.2c7.4,1,15.6,2.4,22.6-1
			c4.7-2.2,5.7-9.6,1.2-12.4c-6.6-4.2-14.7-3.6-22.2-3.6C169,130.8,168.4,136.5,168,142.2z M165.4,168.8c-0.5,6.8-1,13.7-1.4,20.5
			c8.4,1.3,17.1,2.5,25.5,0.5c3.9-0.9,8.1-3.9,8-8.3c0.3-4.5-3.7-7.7-7.4-9.2C182.3,169.2,173.7,168.8,165.4,168.8z"/>
	</g>
	<path class="st0" d="M270.4,103.9c39.1,3.6,78.2,7.4,117.3,11.2c-1.1,11.7-2.2,23.4-3.4,35.2c-17.6-1.7-35.2-3.4-52.8-5
		c-0.4,3.8-0.7,7.5-1,11.3c16.1,1.5,32.1,3.1,48.2,4.6c-1,10.7-2.1,21.5-3.1,32.2c-16-1.5-32-3.1-48-4.5c-0.4,4.2-0.8,8.5-1.2,12.7
		c18,1.7,36,3.4,54,5.2c-1,11.1-2.2,22.2-3.1,33.3c-39.4-3.6-78.8-7.6-118.2-11.2C262.8,187.1,266.6,145.5,270.4,103.9z"/>
	<path class="st0" d="M440,123c20.2-4.3,41.2-1.9,61,3.5c10.2,2.8,20,7,29,12.5c-6.4,9.9-13.4,19.5-20.2,29.2
		c-9.1-5.5-19-10.2-29.7-11.4c-5.8-0.6-12.1-1.1-17.5,1.4c-1.7,0.7-3.8,3-2,4.8c2.5,2.5,6,3.6,9.2,4.9c12.1,4.3,24.7,7,36.9,11
		c14.4,4.9,24.3,20.7,21.8,35.8c-1.7,11.5-10.2,20.8-20.2,26.1c-16.4,8.8-35.5,10.5-53.8,9.5c-24.7-1.6-49.2-7.9-71.5-18.7
		c7.3-10.9,14.8-21.8,22.2-32.7c7.3,6.4,16.5,10.1,25.6,13c8.2,2.4,16.8,4.5,25.3,3.4c3-0.7,7.1-1.2,8.2-4.6c0-2.5-2.3-4.1-4.2-5.3
		c-5.2-3.1-11.5-3.7-17.2-5.4c-12.8-3.6-26.5-6.6-36.9-15.5c-7-5.7-11.2-14.8-10.6-23.9c0-7.8,4.2-14.8,9.6-20.1
		C414.6,131.2,427.2,125.8,440,123z"/>
	<path class="st0" d="M535.6,129.6c44.4,3.9,88.7,8.4,133.1,12.6c-1.2,13.6-2.6,27.1-3.8,40.7c-11.5-1.1-23-2.3-34.6-3.3
		c-2.6,28.1-5.4,56.3-8,84.4c-21-2.1-42-4-63-6c2.4-28.2,4.8-56.4,7.2-84.6c-11.4-1.1-22.9-2.3-34.4-3.2
		C532.9,156.6,534.7,143.2,535.6,129.6z"/>
	<g>
		<path class="st0" d="M55.5,189.2c8-1.6,16.8,1.4,22.1,7.8c5.5,6.3,7.2,15.6,4.3,23.4c-3.1,8.7-11.7,15.1-20.9,15.4
			c-8.1,0.5-16.3-3.7-20.7-10.5c-4.4-6.5-5.2-15.3-1.9-22.5C41.3,195.8,48,190.5,55.5,189.2z M55.4,198.1
			c-6.5,1.9-11.1,8.7-10.4,15.5c0.5,7.5,7.5,13.9,15,13.5c8.5,0.2,15.9-8.3,14.5-16.7C73.7,201.5,63.8,195.1,55.4,198.1z"/>
	</g>
	<g>
		<path class="st0" d="M126.1,231.8c28.6,2.6,57.2,5.6,85.8,8.4c13.4,1.9,26.8,5.3,38.6,11.9c6.8,3.9,13.4,9.7,15,17.8
			c1.3,8.3-0.9,17.2-6.4,23.6c-4.7,5.4-11.2,9-18,10.8c8.8,3.4,17.4,8.3,22.8,16.2c6.1,8.6,6.3,21.2,0,29.8
			c-5.2,6.9-13.4,10.5-21.4,12.8c-16.8,4.4-34.4,3.6-51.4,1.7c-25.6-2.4-51.1-5.2-76.7-7.7C118.2,315.3,122.3,273.6,126.1,231.8z
			 M180,285.4c6.6,1.1,13.5,2,20.1,0.2c3.2-0.9,6.3-3.4,6.6-7c0.6-3.2-1.5-6.2-4.3-7.5c-6.4-3.1-13.8-2.7-20.7-2.7
			C181,274.1,180.6,279.7,180,285.4z M177.5,312c-0.5,6.8-1,13.6-1.4,20.5c8.3,1.4,17,2.5,25.4,0.6c3.8-0.9,7.8-3.4,8.1-7.7
			c0.7-4.5-3.1-8.1-6.9-9.6C194.8,312.5,186,312.1,177.5,312z"/>
	</g>
	<path class="st0" d="M280.2,246.6c20.4,1.8,40.7,3.6,61,5.5c-2.1,22.8-4.2,45.6-6.3,68.4c-0.5,4.1-1.9,8.4-0.3,12.5
		c1.6,4.9,6.5,7.6,11.3,8.4c5.7,1.1,12.4,1,17.1-2.9c3.8-3.1,5.3-8.2,5.4-12.9c2.1-23.3,4.4-46.7,6.6-70c20.3,1.7,40.6,4.2,61,5.5
		c0.4,3.1-0.4,6.2-0.5,9.3c-2.4,24.6-4.6,49.3-7.1,73.9c-3.3,13.8-14.4,24.7-27,30.6c-17.1,7.9-36.5,8.5-55,6.9
		c-18.2-1.8-36.8-6.1-51.9-16.8c-12.1-8.6-21.4-22.3-22.1-37.5C274.9,300.5,277.6,273.6,280.2,246.6z"/>
	<path class="st0" d="M436.6,263.6c0.5-0.6,1-1.2,1.6-1.8c22.8,2.2,45.6,4.3,68.4,6.3c6.1,11.4,11.7,23,17.7,34.5
		c7.6-10.1,15-20.4,22.6-30.6c23.7,2.2,47.4,4.4,71.1,6.8c-21.1,20.8-42.1,41.7-63.1,62.5c-1.4,1.5-3.5,2.8-3.4,5.1
		c-1.6,17.3-3.3,34.5-4.9,51.8c-20.8-1.9-41.6-4-62.4-5.9c1.6-17.5,3.5-35.1,4.9-52.6c-4.9-8-10.6-15.5-15.7-23.4
		c-11.6-17-23.3-34-34.9-51C437.9,264.9,437,264,436.6,263.6z"/>
	<g>
		<path class="st0" d="M624.3,282.9c5.4-2.7,12.6,0.8,13.9,6.7c1.5,5.1-1.9,10.9-7,12.3c-4.9,1.5-10.7-1.4-12.3-6.3
			C617.1,290.7,619.6,284.8,624.3,282.9z M625.2,284.7c-6,2.8-5.9,12.8,0.5,15.1c5.2,2.2,11-2.9,10.4-8.3
			C636.2,286.1,630,282.1,625.2,284.7z"/>
	</g>
	<g>
		<path class="st0" d="M625.1,286c2.5,0.4,5.7-0.2,7.6,1.8c1.5,2.2-0.1,5.1-2.7,5.4c0.8,1.7,1.6,3.3,2.5,5c-3.3,0.5-3.2-3.7-4.8-5.5
			c-2.3,0-1,3.4-1.6,4.9c-0.5,0-1.6-0.1-2.1-0.1C624.4,293.6,624.8,289.8,625.1,286z M627.2,287.6c-0.1,0.8-0.4,2.5-0.6,3.3
			c1.6,0.2,4.4,1.1,4.6-1.3C631,287.7,628.5,288.2,627.2,287.6z"/>
	</g>
</g>
<g>
	<g>
		<path class="st1" d="M31.5,122.9c46.4-36.1,93.1-72,139.6-108.1c117,11,233.9,22.4,350.9,33.6c55.4,5.3,110.8,10.6,166.1,16
			c-12.7,135.8-25.5,271.6-38.2,407.4c-172.9-16.5-345.8-33.1-518.6-49.6c-38.7-45-77.5-89.9-116.2-134.9
			c4.9-49.7,9.8-99.3,14.7-149C30.4,133.2,30.3,127.9,31.5,122.9z M113.4,88.1c-3.9,41.8-7.9,83.5-11.8,125.3
			c21.1,2.2,42.1,4.4,63.2,6.5c19.6,1.8,39.4,4.8,59,1c9.9-1.9,20.4-5.4,27-13.6c6.9-8.7,6.7-22,0.1-30.8
			c-5.5-7.5-13.8-12.6-22.5-15.5c4.9-1.8,9.9-3.8,13.9-7.1c8.6-6.6,12.6-18.5,10.2-29c-2.6-8.9-10.7-14.5-18.5-18.4
			c-13.1-6.2-27.5-9.5-42-10.6C165.8,93.3,139.6,90.6,113.4,88.1z M270.4,103.9c-3.8,41.6-7.6,83.2-11.3,124.9
			c39.4,3.6,78.8,7.6,118.2,11.2c1-11.1,2.1-22.2,3.1-33.3c-18-1.8-36-3.5-54-5.2c0.4-4.2,0.8-8.5,1.2-12.7c16,1.4,32,3,48,4.5
			c1-10.8,2.1-21.5,3.1-32.2c-16-1.5-32.1-3.1-48.2-4.6c0.3-3.8,0.7-7.6,1-11.3c17.6,1.6,35.2,3.3,52.8,5
			c1.1-11.7,2.3-23.4,3.4-35.2C348.6,111.3,309.5,107.5,270.4,103.9z M440,123c-12.8,2.8-25.5,8.2-35,17.5
			c-5.4,5.3-9.6,12.3-9.6,20.1c-0.6,9.1,3.6,18.2,10.6,23.9c10.4,8.9,24.1,11.8,36.9,15.5c5.8,1.7,12,2.2,17.2,5.4
			c1.9,1.2,4.2,2.8,4.2,5.3c-1.1,3.4-5.3,3.9-8.2,4.6c-8.6,1.1-17.2-0.9-25.3-3.4c-9.1-3-18.3-6.6-25.6-13
			c-7.4,10.9-14.8,21.8-22.2,32.7c22.3,10.8,46.8,17.1,71.5,18.7c18.3,0.9,37.4-0.8,53.8-9.5c10-5.3,18.5-14.6,20.2-26.1
			c2.5-15.1-7.4-30.9-21.8-35.8c-12.2-4-24.8-6.8-36.9-11c-3.2-1.3-6.7-2.4-9.2-4.9c-1.8-1.7,0.3-4.1,2-4.8c5.4-2.5,11.7-2,17.5-1.4
			c10.7,1.2,20.6,5.9,29.7,11.4c6.8-9.7,13.8-19.2,20.2-29.2c-9-5.5-18.8-9.7-29-12.5C481.3,121.1,460.2,118.7,440,123z
			 M535.6,129.6c-1,13.6-2.7,27-3.6,40.6c11.5,0.9,22.9,2.1,34.4,3.2c-2.4,28.2-4.8,56.4-7.2,84.6c21,2,42,3.9,63,6
			c2.7-28.1,5.4-56.3,8-84.4c11.5,1,23.1,2.1,34.6,3.3c1.3-13.6,2.6-27.1,3.8-40.7C624.4,138,580,133.5,535.6,129.6z M55.5,189.2
			c-7.5,1.3-14.2,6.6-17.2,13.6c-3.2,7.2-2.5,16,1.9,22.5c4.5,6.8,12.6,11,20.7,10.5c9.2-0.4,17.8-6.7,20.9-15.4
			c2.9-7.8,1.3-17.2-4.3-23.4C72.3,190.6,63.5,187.6,55.5,189.2z M126.1,231.8c-3.8,41.8-7.9,83.5-11.7,125.3
			c25.6,2.5,51.1,5.4,76.7,7.7c17.1,1.9,34.7,2.7,51.4-1.7c8.1-2.2,16.3-5.9,21.4-12.8c6.4-8.6,6.1-21.1,0-29.8
			c-5.4-7.9-14.1-12.8-22.8-16.2c6.9-1.8,13.4-5.4,18-10.8c5.5-6.4,7.6-15.3,6.4-23.6c-1.6-8.1-8.2-13.9-15-17.8
			c-11.8-6.6-25.2-10.1-38.6-11.9C183.2,237.4,154.7,234.4,126.1,231.8z M280.2,246.6c-2.5,27-5.2,53.9-7.6,80.9
			c0.6,15.2,9.9,28.9,22.1,37.5c15.1,10.7,33.7,15,51.9,16.8c18.5,1.7,37.9,1,55-6.9c12.6-5.9,23.7-16.8,27-30.6
			c2.5-24.6,4.7-49.3,7.1-73.9c0.2-3.1,0.9-6.2,0.5-9.3c-20.3-1.3-40.6-3.8-61-5.5c-2.2,23.3-4.5,46.6-6.6,70
			c-0.1,4.8-1.7,9.8-5.4,12.9c-4.7,3.9-11.4,4-17.1,2.9c-4.8-0.8-9.7-3.6-11.3-8.4c-1.6-4.1-0.2-8.4,0.3-12.5
			c2.1-22.8,4.2-45.6,6.3-68.4C320.9,250.2,300.5,248.4,280.2,246.6z M436.6,263.6c0.4,0.4,1.3,1.2,1.7,1.6
			c11.5,17.1,23.2,34,34.9,51c5.2,7.8,10.9,15.4,15.7,23.4c-1.4,17.6-3.3,35.1-4.9,52.6c20.8,1.9,41.6,4,62.4,5.9
			c1.6-17.3,3.3-34.5,4.9-51.8c-0.1-2.3,2-3.6,3.4-5.1c21.1-20.8,42.1-41.7,63.1-62.5c-23.7-2.3-47.4-4.5-71.1-6.8
			c-7.6,10.1-15,20.4-22.6,30.6c-6-11.5-11.6-23.1-17.7-34.5c-22.8-2-45.6-4.1-68.4-6.3C437.6,262.4,437.1,263,436.6,263.6z
			 M624.3,282.9c-4.7,2-7.2,7.9-5.4,12.6c1.6,4.9,7.3,7.9,12.3,6.3c5.1-1.3,8.5-7.2,7-12.3C636.9,283.7,629.7,280.2,624.3,282.9z"/>
	</g>
	<path class="st1" d="M168,142.2c0.4-5.7,0.9-11.4,1.6-17.1c7.4-0.1,15.6-0.6,22.2,3.6c4.5,2.9,3.5,10.2-1.2,12.4
		C183.6,144.6,175.5,143.2,168,142.2z"/>
	<path class="st1" d="M165.4,168.8c8.3,0,16.9,0.4,24.7,3.5c3.8,1.5,7.7,4.7,7.4,9.2c0,4.5-4.1,7.4-8,8.3c-8.4,2-17.1,0.8-25.5-0.5
		C164.4,182.4,164.9,175.6,165.4,168.8z"/>
	<path class="st1" d="M180,285.4c0.6-5.7,1-11.3,1.7-17c6.9-0.1,14.3-0.4,20.7,2.7c2.8,1.3,4.9,4.3,4.3,7.5c-0.3,3.5-3.4,6.1-6.6,7
		C193.6,287.4,186.6,286.5,180,285.4z"/>
	<g>
		<path class="st1" d="M625.2,284.7c4.8-2.5,10.9,1.5,10.8,6.8c0.6,5.4-5.1,10.5-10.4,8.3C619.3,297.5,619.2,287.4,625.2,284.7z
			 M625.1,286c-0.3,3.8-0.7,7.6-1.1,11.5c0.5,0,1.6,0.1,2.1,0.1c0.6-1.5-0.7-4.9,1.6-4.9c1.6,1.8,1.6,6,4.8,5.5
			c-0.8-1.7-1.6-3.4-2.5-5c2.6-0.3,4.2-3.1,2.7-5.4C630.8,285.8,627.6,286.4,625.1,286z"/>
	</g>
	<path class="st1" d="M627.2,287.6c1.3,0.5,3.8,0.1,4,2c-0.2,2.4-3,1.5-4.6,1.3C626.8,290.1,627.1,288.5,627.2,287.6z"/>
	<path class="st1" d="M177.5,312c8.5,0,17.3,0.4,25.2,3.7c3.9,1.6,7.6,5.1,6.9,9.6c-0.3,4.2-4.3,6.8-8.1,7.7c-8.4,2-17,0.8-25.4-0.6
		C176.5,325.7,177,318.9,177.5,312z"/>
</g>
</svg>
