<svg id="Layer_1" data-name="Layer 1" xmlns="http://www.w3.org/2000/svg" viewBox="0 0 160.32 113.75"><defs><style>.cls-1{fill:#f08528;}.cls-1,.cls-3{fill-rule:evenodd;}.cls-2{fill:#fff;}.cls-3{fill:#f79239;}</style></defs><title>Big_Lots_000000</title><path class="cls-1" d="M136.19,99c.29-20.6,3.7-45,10.12-60.35l26.78,5.48c-10.17,16.58-17,38.24-20.69,57.31L136.19,99Zm.92,20.3A138,138,0,0,1,136.2,105l15.14,2.44c-.8,4.91-1.37,9.58-1.71,13.86l-12.52-2Z" transform="translate(-12.77 -7.5)"/><polygon class="cls-2" points="141.49 109.26 142.62 109.26 142.62 112.2 143.07 112.2 143.07 109.26 144.2 109.26 144.2 108.86 141.49 108.86 141.49 109.26 141.49 109.26"/><path class="cls-2" d="M160.57,119.7v-3.34h-.64l-.95,2.82h0l-1-2.82h-.64v3.34h.44v-2c0-.1,0-.52,0-.83h0l.94,2.8h.45l.94-2.8h0c0,.31,0,.73,0,.83v2Z" transform="translate(-12.77 -7.5)"/><polygon class="cls-2" points="7.16 104.82 19.27 104.82 19.27 111.6 0.01 111.6 0.01 65.67 7.16 65.67 7.16 104.82 7.16 104.82"/><path class="cls-2" d="M76.73,96.19a24,24,0,1,1-24-23.78,23.83,23.83,0,0,1,24,23.78Zm-40.84-.06A16.84,16.84,0,1,0,52.72,79.19,17,17,0,0,0,35.88,96.13Z" transform="translate(-12.77 -7.5)"/><polygon class="cls-2" points="79.13 111.6 71.97 111.6 71.97 72.44 61.38 72.44 61.38 65.67 89.84 65.67 89.84 72.44 79.13 72.44 79.13 111.6 79.13 111.6"/><path class="cls-2" d="M125.17,84.4l-.59-1C123,80.6,121.2,79.19,118,79.19c-3.38,0-6.14,2.38-6.14,5.65a4.3,4.3,0,0,0,1.89,3.45,20.34,20.34,0,0,0,4.3,2.36l2.9,1.27c5.71,2.49,11.21,5.6,11.21,13.31a14.65,14.65,0,0,1-14.92,14.63c-7.61,0-13.29-4.92-14.79-12.2l-.21-1,7-2,.18,1.28c.58,4,3.62,7.14,7.66,7.14s7.88-3.18,7.88-7.39S121.82,100,117.58,98l-2.67-1.16c-5.11-2.31-10.22-5.19-10.22-12.21,0-7.55,6.43-12.25,13.41-12.25a13.73,13.73,0,0,1,12.34,7.37l.5.92-5.78,3.7Z" transform="translate(-12.77 -7.5)"/><path class="cls-2" d="M12.77,67.3V8.44h24.9c11.4,0,23,2.73,23,16.32C60.7,29.91,58.12,35,53,36.62v.47c6.4,2.26,10.46,6.95,10.46,14,0,12.1-11.24,16.24-21.54,16.24ZM32.6,31.08h2c3.12,0,6.64-.31,6.64-4.37,0-4.37-4-4.06-7.1-4.06H32.6v8.43Zm0,12.41v9.76H35c3.51,0,8.59-.08,8.59-4.92s-5.46-4.84-8.9-4.84Z" transform="translate(-12.77 -7.5)"/><polygon class="cls-2" points="54.6 0.94 75.99 0.94 75.99 59.8 54.6 59.8 54.6 0.94 54.6 0.94"/><path class="cls-2" d="M123.95,32.64h33c0,1.87-.06,3.68-.13,5.43l-12.46-2.55-.9,2.16c-3.3,7.91-5.8,18-7.52,28.79a36.09,36.09,0,0,1-11.07,1.77c-18,0-32.47-11.09-32.47-30C92.41,19.05,106.54,7.5,125,7.5c10.23,0,24.28,5.07,28.88,15.14l-20,7.34a9,9,0,0,0-8.12-4.53C118.17,25.46,114,32,114,39.12c0,6.48,4.06,12.57,11,12.57,3.36,0,7.65-1.56,8.66-5.15h-9.68V32.64Z" transform="translate(-12.77 -7.5)"/><path class="cls-3" d="M136.19,99c.29-20.6,3.7-45,10.12-60.35l26.78,5.48c-10.17,16.58-17,38.24-20.69,57.31L136.19,99Zm.92,20.3A138,138,0,0,1,136.2,105l15.14,2.44c-.8,4.91-1.37,9.58-1.71,13.86l-12.52-2Z" transform="translate(-12.77 -7.5)"/><polygon class="cls-2" points="141.49 109.26 142.62 109.26 142.62 112.2 143.07 112.2 143.07 109.26 144.2 109.26 144.2 108.86 141.49 108.86 141.49 109.26 141.49 109.26"/><path class="cls-2" d="M160.57,119.7v-3.34h-.64l-.95,2.82h0l-1-2.82h-.64v3.34h.44v-2c0-.1,0-.52,0-.83h0l.94,2.8h.45l.94-2.8h0c0,.31,0,.73,0,.83v2Z" transform="translate(-12.77 -7.5)"/></svg>