<svg id="Layer_1" data-name="Layer 1" xmlns="http://www.w3.org/2000/svg" viewBox="0 0 176.81 50.58"><defs><style>.cls-1,.cls-2{fill:#231f20;}.cls-1{stroke:#231f20;stroke-miterlimit:2.61;stroke-width:1.11px;}.cls-1,.cls-2,.cls-3{fill-rule:evenodd;}.cls-3{fill:#fad717;}</style></defs><title>Cabelas</title><path class="cls-1" d="M176.72,40.63l-1.28-2.74a19.9,19.9,0,0,1-2.68.53,33.46,33.46,0,0,1-3.77.17,18.5,18.5,0,0,0-.42-3.77A14.25,14.25,0,0,0,167,31.52a16.42,16.42,0,0,1,1-2l-1.28-3h-3s-3.61,4.86-5.42,6.89S154.11,38,154.11,38l-3.61-.41.2,3s-5.9,5.74-8.31,5.74l-.49,0C143.34,43,148.37,38,148.37,38l-1.28-3L144,33.17c-.35-1.82-1-3.82-2.66-4.72-2.14-1.17-5.21-1.19-8.76.9C125,33.8,120.82,44.3,120.82,44.3s-6.23,3.52-10.34,3.25a7.36,7.36,0,0,1,.24-.81s12.19-7.72,20-19.27c4.26-6.29,6.19-15.69.55-18-2.25-.94-5.95-.12-11.14,4.31-8.44,7.2-16.32,29-16.32,29s-8,6.56-13.48,5a4.86,4.86,0,0,1-1.88-1,4.9,4.9,0,0,1,.16-1.27s9.45.09,12.43-4.66c2-3.14,2.66-7.36-.88-10.42-1.55-1.34-4.24-1.87-8-.7a17.09,17.09,0,0,0-10.43,9.72H80.32c0-1.08.21-4.18-1.4-5.82a8.15,8.15,0,0,0-1.66-1.27A28.24,28.24,0,0,0,84,20.18c.7-3.07,2.09-9-4.25-10.94-2.59-.81-6.45.54-10.4,4.4-7.34,7.14-13.1,27.8-13.1,27.8s-5.2,5.84-7.72,4.73c.83-3.52,6-8.34,6-8.34l-1.28-3L50.13,33c-.38-2-1.2-4.07-3.07-4.92-2.12-1-5-.86-8.36,1.1C33.85,32,30.39,37.4,28.55,40.86c0,0-9.16,7.6-15.24,4.45-5.64-2.93-1.9-14.1,3.29-20.68C24.42,14.71,31.24,10.25,35,12.88l.18.14c-.1,2.87-2.46,6.16-2.46,6.16l1.28,3,5,2.43s7.34-13.44-1.88-18C30.25,3.19,16.12,8,6.29,23.43.2,33-.09,42,2.89,46.78s5.21,8.06,10.3,8.06c4.82,0,12-4.31,14.61-6,.21.69,2.23,6,5.25,6,4.7,0,8.24-3.3,8.9-4l.12.11a3.66,3.66,0,0,0,3.81,3.85c3.87,0,10.78-5.66,11.27-6.07l0,.06c.11.74,1.19,6.21,8.55,6.21,10,0,13.64-9.75,13.64-9.75h1.05C80.56,49.23,84,55,89.62,55a27.44,27.44,0,0,0,15.62-5.28l0,0c.08.51.88,5,5.61,5,5,0,11.41-4.47,11.43-4.48h0c0,.05.46,4.48,4.61,4.48,4.75,0,8.32-3.93,8.78-4.45l.09.12c.18.83,1.1,4.33,3.57,4.33,4.55,0,11.39-5.87,12.92-7.24.18.42,2.64,7.24,6.73,7.24,6.82,0,9.43-8.94,9.43-8.94s4.28.61,6.49-1.42,1.8-3.85,1.8-3.85Zm-22.4-11.71h3.92a23.52,23.52,0,0,0,1.86-3,35.69,35.69,0,0,0,1.66-3.68l-1.28-3h-4.91s-.44,1.44-1.13,3.24S153,25.9,153,25.9l1.28,3ZM129,45.5a14.89,14.89,0,0,1,3.72-5.63c1.91-1.93,4.63-4.18,6.39-4a16.88,16.88,0,0,1-2.9,4.68c-1.54,1.91-5,5.51-7.21,5Zm-.67-26.61c-1.54,4.19-7.94,11.82-13.31,16.23,3.48-7.41,9.49-16.23,13.31-16.23Zm-50.53.3c-1.25,3.36-5.78,8.9-10.29,13,2.81-6.39,6.83-13.17,10.29-13ZM63.49,44.65l6.25-4.93s2.77-1.05,4.49-.16c-.46,3.07-4.55,7.51-8.63,7.51a4.36,4.36,0,0,1-2.44-.6,7,7,0,0,1,.33-1.81Zm-28.55.85a14.89,14.89,0,0,1,3.72-5.63c1.91-1.93,4.63-4.18,6.39-4a16.86,16.86,0,0,1-2.9,4.68c-1.54,1.91-5,5.51-7.21,5Z" transform="translate(-0.49 -5.02)"/><path class="cls-2" d="M169.51,52.34a2.92,2.92,0,1,1,2.93,2.92,2.89,2.89,0,0,1-2.93-2.92Zm2.93,2.44a2.43,2.43,0,1,0-2.35-2.44,2.34,2.34,0,0,0,2.35,2.44Zm-.61-.75h-.5V50.67h1.27c.79,0,1.17.29,1.17,1a.87.87,0,0,1-.86.92l.94,1.48h-.56l-.88-1.45h-.58V54Zm.6-1.89c.43,0,.81,0,.81-.55s-.37-.49-.72-.49h-.69v1Z" transform="translate(-0.49 -5.02)"/><path class="cls-3" d="M155.57,19.23h4.91a35.66,35.66,0,0,1-1.66,3.69,23.51,23.51,0,0,1-1.86,3H153s.71-1.63,1.4-3.43,1.13-3.24,1.13-3.24ZM48.41,46.12c2.48,1.32,7.82-4.69,7.82-4.69S62,20.78,69.33,13.64c4-3.85,7.8-5.15,10.4-4.4s4,3.56,3,7.92c-2,8.71-9.26,14.65-9.26,14.65s3.64-.47,5,1.55.6,6.08.6,6.08h2.62a17.09,17.09,0,0,1,10.43-9.72c3.77-1.17,6.57-.74,8,.7s1.57,4.26-.4,7.4c-3,4.76-12.43,4.66-12.43,4.66a4.15,4.15,0,0,0,3,5.27c5.43,1.57,13.48-5,13.48-5s7.88-21.81,16.32-29c5.19-4.42,9-5.43,11.14-4.31,3.23,1.68,2.85,8.1-1.83,15-7.82,11.55-20,19.27-20,19.27s-1.38,3.63,1,3.82c4.11.33,10.43-3.24,10.43-3.24S125,33.8,132.53,29.36c3.55-2.09,6.62-2.07,8.76-.9,1.64.89,2.31,2.9,2.66,4.72L147.09,35s-11.52,11.41-4.7,11.41c2.41,0,8.31-5.74,8.31-5.74l-.2-3,3.61.41s2.41-2.63,4.21-4.66,5.42-6.89,5.42-6.89h3a16.65,16.65,0,0,0-1,2c-.4,1,1.2,2.63,2,4.66s.2,5.47.2,5.47,2.16,0,4.81-.2a10.49,10.49,0,0,0,2.68-.53s.4,1.54-1.81,3.57-6.49,1.42-6.49,1.42-2.61,8.94-9.43,8.94c-5.42,0-6.42-7.52-6.42-7.52s-8.09,7.52-13.24,7.52c-2.81,0-3.61-4.51-3.61-4.51s-3.74,4.51-8.82,4.51c-4.18,0-4.61-4.48-4.61-4.48s-6.42,4.48-11.43,4.48S104,46.73,104,46.73A27.44,27.44,0,0,1,88.33,52c-10.23,0-7.62-9.75-7.62-9.75H78.09S74.48,52,64.45,52c-7.88,0-8.56-6.29-8.56-6.29s-7.29,6.09-11.3,6.09-3.81-4.08-3.81-4.08-3.81,4.08-9,4.08-4.21-6.71-4.21-6.71-9.63,6.71-15.64,6.71c-10.43,0-15.44-13-5.62-28.39S30.36,3,37.18,6.62s.6,15,.6,15l-5-2.43s4.81-6.69,1-9.32S23.14,11.69,15.32,21.61s-8.42,20.26-2,23.7c6,3.24,15.24-4.45,15.24-4.45,1.85-3.46,5.3-8.83,10.16-11.69,3.33-2,6.24-2.06,8.36-1.1,1.86.85,2.68,3,3.07,4.92l3.14,1.81s-9.55,8.82-4.86,11.32Zm-11-9.28c-2.27,2.29-5.23,6.43-3.18,8.26s6.22-2.45,8-4.59c2-2.53,4.22-5.85,2.5-7.35s-5,1.38-7.27,3.67Zm94,0c-2.27,2.29-5.23,6.43-3.18,8.26s6.22-2.45,8-4.59c2-2.53,4.23-5.85,2.5-7.35s-5,1.38-7.27,3.67Zm-54-20.46c-4.75-2.1-10.95,11.14-13.51,18.69,7.19-5.08,17-17.16,13.51-18.69Zm18,17c-.85-.86-3.81,2.14-5.93,5.14,4.24-.43,6.78-4.28,5.93-5.14Zm32.6-17.26c-4.59-2.37-14.07,13.4-16.48,21.45,7.17-4,20.07-19.59,16.48-21.45ZM68.46,36.7l-6.25,4.93s-1.9,5.43,3.4,5.43c4.46,0,8.93-5.31,8.66-8.33-.36-4.11-5.81-2-5.81-2ZM158,45.89c2.12.22,4-3.43,4-3.43s-1.54-.08-2.73-.2-2.67-.33-2.67-.33-.74,3.75,1.38,4Zm4.39-12.74-4.24,5.35a22.6,22.6,0,0,0,2.32.29,13.85,13.85,0,0,0,2.23,0,12.47,12.47,0,0,0,.21-2.46,27.68,27.68,0,0,0-.52-3.18Z" transform="translate(-0.49 -5.02)"/></svg>