<svg xmlns="http://www.w3.org/2000/svg" viewBox="0 0 283.5 49.49"><defs><style>.cls-1,.cls-2{fill:#231f20;}.cls-1{fill-rule:evenodd;}</style></defs><title>calvin_klein</title><g id="Vordergrund"><path class="cls-1" d="M44.38,17.11a20.79,20.79,0,0,0-12.63-4.29,20.52,20.52,0,1,0,12.6,36.72l2.29,2.77A24.12,24.12,0,1,1,31.76,9.23,24.35,24.35,0,0,1,47,14.61Z" transform="translate(-7.64 -9.23)"/><rect class="cls-2" x="78.19" width="3.57" height="47.4"/><polygon class="cls-1" points="99.94 49.49 85.21 17.9 89.39 17.9 99.94 40.83 110.5 17.9 114.68 17.9 99.94 49.49"/><rect class="cls-2" x="118.93" y="17.9" width="3.57" height="29.49"/><circle class="cls-2" cx="120.71" cy="2.22" r="2.16"/><path class="cls-1" d="M136.58,56.63V27.13h3.57v2.6s2.29-3.59,8.36-3.59,11.89,5.07,11.89,11.63V56.63h-3.66V38.29a8.39,8.39,0,0,0-8.49-8.56,8,8,0,0,0-8.11,7.52V56.63Z" transform="translate(-7.64 -9.23)"/><polygon class="cls-1" points="169.91 0 169.91 47.4 173.19 47.4 173.19 27.04 176.76 23.47 193.7 47.4 198.05 47.4 179.09 20.5 198.13 0 193.35 0 173.19 21.52 173.19 0 169.91 0"/><rect class="cls-2" x="203.5" width="3.57" height="47.4"/><rect class="cls-2" x="249.48" y="17.9" width="3.57" height="29.49"/><circle class="cls-2" cx="251.27" cy="2.22" r="2.16"/><path class="cls-1" d="M267.31,56.63V27.13h3.57v2.6s2.29-3.59,8.36-3.59,11.89,5.07,11.89,11.63V56.63h-3.66V38.29A8.39,8.39,0,0,0,279,29.73a8,8,0,0,0-8.11,7.52V56.63Z" transform="translate(-7.64 -9.23)"/><path class="cls-1" d="M224.21,38.47a12.1,12.1,0,0,1,23.4,0Zm27.33,3.12a15.66,15.66,0,1,0-15.65,15.67A15.92,15.92,0,0,0,250,48.56L246.84,47a12.25,12.25,0,0,1-10.94,6.73c-7.43,0-11.91-5.65-12.14-12.15Z" transform="translate(-7.64 -9.23)"/><path class="cls-1" d="M51,42.1A12.37,12.37,0,1,1,63.37,54.47,12.37,12.37,0,0,1,51,42.1Zm24.9,9.66a15.83,15.83,0,1,1,0-19.26V27.13h3.33V56.63H75.89Z" transform="translate(-7.64 -9.23)"/></g></svg>