<svg id="Layer_1" data-name="Layer 1" xmlns="http://www.w3.org/2000/svg" viewBox="0 0 98.08 35.3"><defs><style>.cls-1{fill:#c41230;}.cls-2{fill:#133d8d;}.cls-3{fill:#fff;}</style></defs><title>champs</title><path class="cls-1" d="M51,37c-9.24,0-18.05-1.76-24.82-5-7.09-3.36-11-7.86-11-12.68s3.91-9.33,11-12.68c6.77-3.21,15.59-5,24.82-5S69,3.5,75.82,6.71c7.09,3.36,11,7.86,11,12.68s-3.91,9.33-11,12.68C69,35.28,60.22,37,51,37Z" transform="translate(-1.98 -1.74)"/><path class="cls-2" d="M51,35.33c-18.27,0-33.7-7.3-33.7-15.94S32.72,3.45,51,3.45s33.7,7.3,33.7,15.94S69.26,35.33,51,35.33" transform="translate(-1.98 -1.74)"/><path class="cls-1" d="M7.26,32.77A3.39,3.39,0,0,1,4,29.44L2,9.36A3.34,3.34,0,0,1,2.92,7a3.2,3.2,0,0,1,2.3-1H96.79a3.26,3.26,0,0,1,3.26,3.25v.09L98,29.5a3.36,3.36,0,0,1-3.24,3.27l-10,0L78.1,30.41v-1c-.21-.13-1.44-.83-5.75-1.52a140.07,140.07,0,0,0-21.41-1.27c-12,0-18.79.63-22.34,1.16-3.77.56-4.92,1.16-5.18,1.32v.92l-.25.12-5.59,2.55-10.34,0Z" transform="translate(-1.98 -1.74)"/><path class="cls-2" d="M7.22,31.26h0a1.87,1.87,0,0,1-1.73-1.89l-2-20.13A1.74,1.74,0,0,1,5.17,7.5H96.75a1.75,1.75,0,0,1,1.76,1.74v0L96.46,29.37a1.87,1.87,0,0,1-1.74,1.88l-9.82,0-5.34-1.89c0-2.49-11.41-4.2-28.66-4.2s-29,1.27-29,3.75v.2l-4.71,2.14Z" transform="translate(-1.98 -1.74)"/><path class="cls-3" d="M34.11,20.92V11.78c0-.38.36-.6,1.22-.6v-.87H29.19v.87c.75,0,1.23.22,1.23.6l0,3.77H25.72V11.78c0-.38.47-.6,1.22-.6v-.87H20.79v.87c.87,0,1.22.22,1.22.66V23.18c0,.58-.87,1-1.22,1.16v.91c2.57-.72,3.83-1,6.14-1.46v-.87s-1.22,0-1.22-.62v-5h4.71v4.14c-.11.66-.39.85-1.23,1v.87c2.73-.43,4.16-.65,6.16-.85v-.89S34.13,21.53,34.11,20.92Z" transform="translate(-1.98 -1.74)"/><path class="cls-3" d="M17.21,24.39c-3.12,3.42-6.86.53-6.86-5.73,0-2.39,1.5-6.8,3.9-6.78,3.17,0,4.85,3.36,4.85,3.36H20V10.31h-.89a2,2,0,0,1-1.67.64c-.83-.14-1.44-1.1-3.13-1.19-3.88-.21-8.12,4.12-8.12,8.95,0,6.43,5,9.61,7.55,9.44,3.59-.24,2.68-1.61,6.27-2.69v-4h-.89A11.84,11.84,0,0,1,17.21,24.39Z" transform="translate(-1.98 -1.74)"/><path class="cls-3" d="M80.06,10.31H70.72v.87c.49,0,1.19,0,1.23.69v9.48c0,.72-.68.74-1.23.8V23c1.85.29,3.32.51,6.16,1.11v-.86A1.31,1.31,0,0,1,75.64,22V17.28H80a3.51,3.51,0,0,0,2.7-3.37C82.68,11.83,81.19,10.31,80.06,10.31Zm-2,5.25H75.65v-3.9H78.1c.83,0,1.27,1.23,1.27,1.94S78.82,15.55,78.1,15.56Z" transform="translate(-1.98 -1.74)"/><path class="cls-3" d="M86,13.07c-.06-1.54,1.43-1.81,2.64-1.65a6,6,0,0,1,4.19,3.33h.88V10.31h-.88c-.12,1.34-2.67-.55-5.09-.59-2.12,0-3.94,1.1-4.22,3.24-.89,6.93,9.07,6.93,9.07,9.9a3.21,3.21,0,0,1-3.68,2.91C85,25.49,84,20.19,84,19.69h-.87v6.19c2.65-.08,3.47,1.63,5.74,1.82,1.89.15,6.6-1.05,6.6-6C95.46,15.49,86.12,16.49,86,13.07Z" transform="translate(-1.98 -1.74)"/><path class="cls-3" d="M61.54,15.48l-3.17-5.17H52.88v.87c.77,0,1.23.24,1.23.61V20c0,.7-1.2.79-1.2.79v.86c3,.05,4.14.09,5.29.14v-.88c-.49-.05-1.18-.27-1.2-.83v-5l4,6.69c.09.18.22.18.3,0l3.62-6.42v5.11c-.14.58-.66.71-1.22.8v.87c1.88.17,2.9.29,6.12.7V22a1.57,1.57,0,0,1-1.21-1V11.8c0-.37.45-.62,1.22-.62v-.87H64.48Z" transform="translate(-1.98 -1.74)"/><path class="cls-3" d="M50.67,19.92l-4.24-9.61H41.26v.87c.84,0,1.05.52.61,1.43s-4,7.16-4.52,8.24c-.26.49-.61.61-1.25.7v.89c2.64-.28,4.47-.45,5.64-.48v-.89c-.52,0-1.27-.26-1.07-.9l.55-1h5l.41,1c.1.51-.59.7-1.09.75v.87c3-.12,5.24-.12,6.52-.11v-.87A2,2,0,0,1,50.67,19.92ZM42.1,17.44,44,14l1.44,3.4Z" transform="translate(-1.98 -1.74)"/><path class="cls-3" d="M39.09,33v-1.5H40v.69h.67c.41,0,.48,0,.47-.38v-.39c0-.34,0-.37-.4-.38h-.57a1.13,1.13,0,0,1-.59-.13,1,1,0,0,1-.46-1v-.57a1,1,0,0,1,.41-.93,1.08,1.08,0,0,1,.68-.17h1.76v1.45h-.88v-.65h-.7c-.27,0-.35,0-.34.37v.35c0,.34.08.36.41.36h.5a1.25,1.25,0,0,1,.71.16,1,1,0,0,1,.41,1v.59a1.14,1.14,0,0,1-.15.68,1.08,1.08,0,0,1-1,.44H39.09Z" transform="translate(-1.98 -1.74)"/><path class="cls-3" d="M43.13,33v-.8h.37V29.12h-.37v-.8h2.08c1,0,1.14.49,1.14,1v.6a1.19,1.19,0,0,1-.26.89,1.12,1.12,0,0,1-.85.26h-.83v1.14h.38V33Zm2-2.76c.28,0,.34,0,.35-.42v-.38c0-.29,0-.33-.38-.34h-.66v1.14Z" transform="translate(-1.98 -1.74)"/><path class="cls-3" d="M48.49,33.12a1,1,0,0,1-1.06-.5,2.16,2.16,0,0,1-.12-.91v-1.9c0-.65,0-.75.12-1a1,1,0,0,1,1-.5h.83c.54,0,1.12.09,1.12,1.19V32a1.11,1.11,0,0,1-.33.94,1.14,1.14,0,0,1-.84.23h-.69l0-.1Zm.25-4c-.46,0-.49,0-.49.63v2c0,.54,0,.55.37.56h.49c.34,0,.36-.07.36-.56v-2c0-.59,0-.61-.45-.62Z" transform="translate(-1.98 -1.74)"/><path class="cls-3" d="M53.83,33.16v-1.6c0-.3-.07-.36-.43-.36h-.66v2h-1.3v-.8h.38V29.23h-.38v-.8h2.1c.69,0,1.15.22,1.15,1.12V30a.86.86,0,0,1-.3.75c.34.14.37.41.37.77v.84h.39v.8Zm-.47-2.77c.4,0,.4-.08.4-.36v-.46c0-.25-.05-.35-.38-.35h-.65v1.16Z" transform="translate(-1.98 -1.74)"/><polygon class="cls-3" points="54.83 31.48 54.83 30.68 55.22 30.68 55.22 27.55 54.77 27.55 54.77 28.22 53.9 28.22 53.9 26.75 57.44 26.75 57.44 28.22 56.58 28.22 56.58 27.55 56.13 27.55 56.13 30.68 56.5 30.68 56.5 31.48 54.83 31.48"/><path class="cls-3" d="M60.46,33.22v-1.5h.89v.69H62c.41,0,.48,0,.47-.38v-.39c0-.34,0-.37-.4-.38h-.57a1.13,1.13,0,0,1-.59-.13,1,1,0,0,1-.46-1v-.57a1,1,0,0,1,.41-.93,1.08,1.08,0,0,1,.68-.17h1.76v1.45h-.88v-.65h-.7c-.27,0-.35,0-.34.37V30c0,.34.08.36.41.36h.5a1.24,1.24,0,0,1,.71.16,1,1,0,0,1,.41,1v.59a1.14,1.14,0,0,1-.15.68,1.08,1.08,0,0,1-1,.44H60.46Z" transform="translate(-1.98 -1.74)"/><path class="cls-3" d="M64.63,28.44l0,0,0,0a.16.16,0,0,0,0-.07.14.14,0,0,0-.06-.13.29.29,0,0,0-.16,0H64.3v.55h.11v-.24h.07l.14.24h.11l-.15-.24Zm-.23-.07v-.15h.17l0,0a.05.05,0,0,1,0,0s0,.05,0,.06h-.18Z" transform="translate(-1.98 -1.74)"/><path class="cls-3" d="M64.5,27.91a.53.53,0,1,0,.53.53A.53.53,0,0,0,64.5,27.91Zm0,1a.44.44,0,1,1,.44-.44A.44.44,0,0,1,64.5,28.88Z" transform="translate(-1.98 -1.74)"/></svg>