<svg id="Layer_1" data-name="Layer 1" xmlns="http://www.w3.org/2000/svg" viewBox="0 0 166.36 55.29"><defs><style>.cls-1{fill:#fff;}</style></defs><title>charming_charlie</title><path class="cls-1" d="M33.19,54.08l.73-2L33.46,52h0v0l-.14.36c-1.07,2.73-3.07,7.81-11.36,7.81-3.79,0-6.41-1.52-8-4.65C12.65,53.07,12,49.5,12,44.66c0-6.72,1.09-11.22,3.34-13.76,2-2.22,4.46-2.52,6.64-2.52,2.72,0,5.57,1.07,5.82,3.47h0a3.56,3.56,0,0,0-1.62,3,3.44,3.44,0,0,0,1,2.49,3.66,3.66,0,0,0,5.05,0,3.44,3.44,0,0,0,1-2.49,3.51,3.51,0,0,0-.48-1.76,8.4,8.4,0,0,0-4.51-3.92,17.15,17.15,0,0,0-18.19,3.54A16.26,16.26,0,0,0,5.32,44.44,17.68,17.68,0,0,0,6.87,52a13.85,13.85,0,0,0,4,5,16.24,16.24,0,0,0,5.34,2.76,19.6,19.6,0,0,0,5.68.84,14.89,14.89,0,0,0,7-1.47A9,9,0,0,0,33.19,54.08ZM11.64,31.51l.38-.29Zm.8-.59.21-.15Zm-1,.77L11,32Zm-.6.51-.31.29Zm-.59.55-.17.18Z" transform="translate(-5.32 -5.65)"/><path class="cls-1" d="M139.93,29.06H128.5v.41h5.69v30h-6.82V9.4a12.47,12.47,0,0,1,1.85-.14,14.43,14.43,0,0,1,3.57.47c1.55.4,2.32,1.2,2.24,2.33a3.5,3.5,0,1,0,4.63,3.61,4.16,4.16,0,0,0,0-.56c0-2.39-1.95-4.47-5.22-5.56a14.56,14.56,0,0,0-4.59-.76,14.23,14.23,0,0,0-2.49.22V7.67H115.94v.41h5.7v3.21a17.34,17.34,0,0,0-3.62,3,3.47,3.47,0,0,0-2.64-1c-2.19,0-5,2.09-5,4.45a2.71,2.71,0,0,0,.72,1.89l-.88.49a2.66,2.66,0,0,0-1.73,2.42,2,2,0,0,0,.2.92,1.87,1.87,0,0,1-1.21.51c-.44,0-.62-.2-.62-.69a5,5,0,0,1,.34-1.49l1.62-4.65a9.8,9.8,0,0,0,.34-1,3.26,3.26,0,0,0,.12-.84,2,2,0,0,0-2.21-1.9c-1.34,0-3,1-4.39,2.74l.86-2.57v0H95.62l-.11.34h2.32l-2.59,7.2A6,6,0,0,0,94.8,23a1.1,1.1,0,0,0,0,.13v0a2.07,2.07,0,0,1-1.52.88c-.54,0-.65-.32-.65-.59a5.47,5.47,0,0,1,.4-1.7l1.59-4.54.12-.36c.08-.22.14-.41.19-.58a2.52,2.52,0,0,0,.15-.85,2,2,0,0,0-2.21-1.9c-1.37,0-2.94,1.39-4,2.72a4.08,4.08,0,0,0,.12-.82,1.82,1.82,0,0,0-1.92-1.9h0c-1.74,0-3.44,1.84-4.17,2.74l.86-2.56v0H79.93l-.09.26a2,2,0,0,0-1.24-.4c-1.39,0-2.75,1.37-3.33,2.18L75,16c.29-.87.55-1.73.69-2.29l0-.12h-5.5l-.32.89A1.79,1.79,0,0,0,68,13.29H68c-2.39,0-7.64,3.94-7.64,8a3.65,3.65,0,0,0,.42,1.8,2.64,2.64,0,0,1-1.83.85c-.45,0-.68-.21-.68-.63a4.74,4.74,0,0,1,.33-1.45l1.64-4.65L60.3,17a6.6,6.6,0,0,0,.25-.74,3.13,3.13,0,0,0,.12-.82,2,2,0,0,0-2.21-1.9c-1.9,0-3.32,1.41-4.36,2.68L58,5.68v0H54.16L54,6h2.23L50.47,21.91A5.39,5.39,0,0,1,46.77,24a2.3,2.3,0,0,1-2.49-2.47c0-2.72,2-7.93,5.16-7.93.73,0,1.06.21,1.06.7a.27.27,0,0,1,0,0,1.11,1.11,0,0,0-.87,1.08,1.13,1.13,0,0,0,1.12,1.12,1.08,1.08,0,0,0,.61-.19h0l.1-.07,0,0,.12-.12a.94.94,0,0,0,.09-.13,1.12,1.12,0,0,0,.15-.41v-.07a.37.37,0,0,0,0-.1.15.15,0,0,0,0-.06v0a.88.88,0,0,0,0-.1c0-1.22-.85-1.95-2.28-1.95-3.61,0-7,4.18-7,7.43a3.6,3.6,0,0,0,3.8,3.7h0a5.47,5.47,0,0,0,3.75-1.61l-.47,1.3h1.7L53.22,19c1-2.9,3.54-5.15,5-5.15a.89.89,0,0,1,1,.91,2.92,2.92,0,0,1-.21,1l-2,5.79a4,4,0,0,0-.29,1.38c0,1,.66,1.49,1.85,1.49a3.37,3.37,0,0,0,2.46-1,2.61,2.61,0,0,0,2,1h.16c1.89,0,3.31-1.41,4.24-2.51a5,5,0,0,0-.17,1c0,1,.54,1.49,1.61,1.49a2.78,2.78,0,0,0,1.86-.73l-.15.42h1.7l1.78-5c.94-2.68,3.07-5.32,4.31-5.32a.66.66,0,0,1,.65.37,1.1,1.1,0,0,0-.78,1.05,1.12,1.12,0,1,0,2.25,0,.16.16,0,0,0,0-.06v0a.28.28,0,0,0,0-.06A1.48,1.48,0,0,0,80,14l-.07-.06H82L78.56,24l0,.13h1.69L82,19c1.2-3.39,3.58-5.2,4.83-5.2.52,0,.77.31.77,1a4.8,4.8,0,0,1-.33,1.41l-2.85,7.88v0h1.72L88,19c1-2.93,3.34-5.2,4.64-5.2.64,0,.94.29.94.91a2.85,2.85,0,0,1-.19,1l-2,5.84a3.63,3.63,0,0,0-.29,1.4c0,.95.67,1.49,1.85,1.49a2.65,2.65,0,0,0,2-.89c.21.59.78.89,1.68.89a2.81,2.81,0,0,0,1.84-.67l-.12.35H100L101.83,19c1-2.93,3.53-5.2,5-5.2a.89.89,0,0,1,1,.91,3,3,0,0,1-.21,1l-2,5.84a4,4,0,0,0-.29,1.4c0,.95.67,1.49,1.85,1.49a2.63,2.63,0,0,0,1.79-.67,1.51,1.51,0,0,0,.27.26,2.49,2.49,0,0,0,.59.3h0l.55.15-.7.37c-.87.46-2.5,1.73-2.5,3.23a2.52,2.52,0,0,0,1.18,2,13.73,13.73,0,0,0-4.39,6.45l-.39,1.58V29H92.29v.41H98V59.5H97a5.24,5.24,0,0,1-.91.36,5.38,5.38,0,0,1-1.54.22,3.25,3.25,0,0,1-1.24-.22,2.16,2.16,0,0,1-.58-.36c-.72-.61-1.07-1.7-1.07-3.34V37.84A9.46,9.46,0,0,0,89.22,31c-2-2-5-3-9.1-3A14.82,14.82,0,0,0,73,29.6a7.67,7.67,0,0,0-3.58,3.85,3.55,3.55,0,0,0-.32,1.06v.05l0,.07v0h0v.07A2,2,0,0,0,69,35a3.45,3.45,0,0,0,1,2.49,3.66,3.66,0,0,0,5.05,0,3.45,3.45,0,0,0,1-2.49,3.59,3.59,0,0,0-1.77-3.07c.32-3,3.8-3.48,5.85-3.48,2.36,0,3.95.71,4.86,2.18.76,1.22,1.1,3,1.1,5.68,0,2.92-.26,4.63-1.67,5.89A9,9,0,0,1,82,43.66a19,19,0,0,1-2.32.83c-.5.16-1.07.34-1.69.55l-2,.61-2.06.63a13.28,13.28,0,0,0-5.09,2.54,6.79,6.79,0,0,0-2.08,5.29,5.91,5.91,0,0,0,2.7,5.38H65V37.77c0-3.2-1-5.68-3.05-7.35a12.23,12.23,0,0,0-7.88-2.36,12.51,12.51,0,0,0-8.86,3.33,14,14,0,0,0-3.79,6.3v-30H30.08v.41h5.62V59.5H30.08v.41h17V59.5H41.45V42.66c0-7.78,5.37-14.11,12-14.11,3.73,0,5.87,2.54,5.87,7v24H53.67v.41H70.2a13.54,13.54,0,0,0,5.69,1c3.22,0,5.57-.67,7.2-2.06a9.72,9.72,0,0,0,2.74-4.72l.19,1a7.59,7.59,0,0,0,2.09,4.32c1.11,1,2.68,1.47,4.94,1.47a8.37,8.37,0,0,0,4.14-1h12.89V59.5h-6.42V42.37c0-6.06,2.63-10.19,5.09-12a6.29,6.29,0,0,0,3.07.78,6.45,6.45,0,0,0,2.38-.44,3.54,3.54,0,0,0-1.43,2.84,3.45,3.45,0,0,0,1,2.49,3.65,3.65,0,0,0,5,.06,3.47,3.47,0,0,0,1.1-2.33h0v0s0,0,0-.07v-.08a.24.24,0,0,0,0,0,3.52,3.52,0,0,0-.31-1.44,5.54,5.54,0,0,0-2.9-3.23,4.89,4.89,0,0,0,1.21-3c0-1.71-1.1-2.63-3.26-2.74l-3.12-.14c-1.53-.07-2.21-.42-2.21-1.1s.58-1.22,1.58-1.71l.53-.24h0l.06,0a2.23,2.23,0,0,0,.29.18,4.38,4.38,0,0,0,2.26.52c2.18,0,4.71-2.21,4.83-4.22a2.74,2.74,0,0,0-.36-1.39v0c-.05-.09-.12-.22-.19-.31a22.57,22.57,0,0,1,3.32-2.92V59.5h-5.7v.41h29.69V59.5h-5.69ZM114,20.31c-1.36,0-1.95-.61-1.95-2s1.12-4.64,3.17-4.64a1.69,1.69,0,0,1,1.92,1.9C117.19,17.45,116.19,20.31,114,20.31ZM97,24c-.46,0-.7-.2-.7-.59a4.48,4.48,0,0,1,.31-1.31l2.89-8.13h2.29l-3.13,9A2.44,2.44,0,0,1,97,24Zm-27.71,0a.57.57,0,0,1-.6-.65A8.2,8.2,0,0,1,69.25,21l2.54-7.07H74c-.21.75-.5,1.71-.8,2.63L71,22.91A2.13,2.13,0,0,1,69.33,23.93Zm.19-8.82a5,5,0,0,1-.45,1.7l-1.3,3.61v0c0,.71-2.48,3.63-4.4,3.63-1.09,0-1.32-1-1.32-1.75,0-2.79,2.86-8.7,6.05-8.7A1.38,1.38,0,0,1,69.52,15.12ZM108.71,28a3.39,3.39,0,0,1,1.36-2.9l.69-.53,3.42.12c1.77.06,2.74.78,2.74,2a3.21,3.21,0,0,1-.71,1.92,7.45,7.45,0,0,0-2.59-.44,8.53,8.53,0,0,0-4.54,1.29A2.87,2.87,0,0,1,108.71,28ZM112,29.05a2.18,2.18,0,0,1,2.11,1.21,5.82,5.82,0,0,1-2.31.5,3.27,3.27,0,0,1-2.37-.89A5.08,5.08,0,0,1,112,29.05ZM78.2,59.91c-2.19,0-3.77-.71-4.69-2.12a8.07,8.07,0,0,1-1-4.47c0-3.52,1.64-5.9,5-7.28L83,43.85A6.54,6.54,0,0,0,86,41v8.53C86,53.4,85,59.91,78.2,59.91Z" transform="translate(-5.32 -5.65)"/><path class="cls-1" d="M170.47,52.29c-1.08,3.53-3.45,8.23-11.51,8.23-4,0-6.81-1.73-8.37-5.13-1.44-3.12-1.6-7.18-1.6-10,0-.79,0-1.4,0-2s0-1.11,0-1.78h22.63v0a15.72,15.72,0,0,0-1.41-6.44A12,12,0,0,0,167,31a13.75,13.75,0,0,0-8.54-3,15.81,15.81,0,0,0-11.54,5.09,17,17,0,0,0-4.69,11.51,17.63,17.63,0,0,0,1.25,6.68,14.87,14.87,0,0,0,3.47,5.15,15.43,15.43,0,0,0,5.28,3.31,18.78,18.78,0,0,0,6.67,1.17,15,15,0,0,0,7-1.48,9.09,9.09,0,0,0,4.39-5.1l.73-2v0l-.56-.08ZM143,39.78l0-.1Zm.23-.67a16.94,16.94,0,0,1,3.14-5.35A17.33,17.33,0,0,0,143.23,39.11Zm3.17-5.39.37-.41ZM165,41.23,149,41.13c.58-6.59,2.08-12.68,9.12-12.68a5.59,5.59,0,0,1,4.68,1.86c1.12,1.37,1.78,3.55,2.08,6.88l0,.46A13.85,13.85,0,0,1,165,41.23Zm5.2-6.2-.06-.13Zm-.31-.59-.16-.28Zm-.34-.57-.24-.36Zm-.37-.54-.29-.39Zm-.4-.53-.32-.38Zm-.43-.51L168,32Zm-.47-.49-.27-.26Zm-1.12-1,.05,0Zm.42.34.18.16Zm-20,1.71-.18.18Z" transform="translate(-5.32 -5.65)"/><path class="cls-1" d="M100.49,9.09a1.14,1.14,0,1,0-1.18-1.16A1.15,1.15,0,0,0,100.49,9.09Z" transform="translate(-5.32 -5.65)"/></svg>