<svg id="Layer_1" data-name="Layer 1" xmlns="http://www.w3.org/2000/svg" viewBox="0 0 133.26433 85.8894"><defs><style>.cls-1{fill:#35387d;}.cls-2{fill:#cd2032;}.cls-3{fill:#ca3232;}</style></defs><title>citi</title><path class="cls-1" d="M149.20854,123.77626h-10.867V176.918h10.867Zm9.96377.08761v9.96377h9.14889V163.808a14.63748,14.63748,0,0,0,3.32078,9.96377,11.19829,11.19829,0,0,0,8.76994,3.96186,17.20609,17.20609,0,0,0,9.61474-2.41829l.17381-.08761v-.17523l2.59352-10.10979-.64107.40744a15.66275,15.66275,0,0,1-8.04125,2.65193c-3.37919,0-5.09728-2.01014-5.09728-5.9727v-28.201h11.09918v-9.96448H179.01437V107.25711l-10.69317,5.73978v10.867h-9.14889Zm52.589-.08761H200.80673V176.918h10.95459Zm-79.65458,8.3625-.23364-.17523a23.30153,23.30153,0,0,0-18.79212-9.06127c-7.866,0-14.33449,2.41828-19.52081,7.19645Q85.301,137.65913,85.286,150.43439c0,8.5071,2.768,15.23841,8.27417,20.33711,5.0987,4.77745,11.65408,7.138,19.52081,7.138a23.41723,23.41723,0,0,0,18.79212-9.00286l.23364-.17523-6.14793-7.42937-.23292.23222c-3.99178,3.96186-8.27417,6.00191-12.87782,6.00191a15.92388,15.92388,0,0,1-11.9162-4.86507c-3.17618-3.17618-4.69055-7.28477-4.69055-12.23746A16.84918,16.84918,0,0,1,100.93185,138.11a16.18115,16.18115,0,0,1,11.9162-4.77816c4.60293,0,8.886,2.03934,12.87782,6.0012l.23292.23364Z" transform="translate(-85.286 -92.02013)"/><path class="cls-2" d="M143.70169,115.03623a45.27376,45.27376,0,0,1,14.50972-10.05138,41.5046,41.5046,0,0,1,16.60676-3.3799,42.43023,42.43023,0,0,1,16.69508,3.3799,46.11836,46.11836,0,0,1,14.39219,10.05138l.17523.146h12.46967l-.46585-.728a53.44771,53.44771,0,0,0-19.05425-16.49065,52.34475,52.34475,0,0,0-48.45192,0,53.09553,53.09553,0,0,0-19.02575,16.48994l-.49505.728h12.55728l.0869-.14531Z" transform="translate(-85.286 -92.02013)"/><path class="cls-1" d="M149.20854,123.77626h-10.867V176.918h10.867Zm9.96377.08761v9.96377h9.14889V163.808a14.63748,14.63748,0,0,0,3.32078,9.96377,11.19829,11.19829,0,0,0,8.76994,3.96186,17.20609,17.20609,0,0,0,9.61474-2.41829l.17381-.08761v-.17523l2.59352-10.10979-.64107.40744a15.66275,15.66275,0,0,1-8.04125,2.65193c-3.37919,0-5.09728-2.01014-5.09728-5.9727v-28.201h11.09918v-9.96448H179.01437V107.25711l-10.69317,5.73978v10.867h-9.14889Zm52.589-.08761H200.80673V176.918h10.95459Zm-79.65458,8.3625-.23364-.17523a23.30153,23.30153,0,0,0-18.79212-9.06127c-7.866,0-14.33449,2.41828-19.52081,7.19645Q85.301,137.65913,85.286,150.43439c0,8.5071,2.768,15.23841,8.27417,20.33711,5.0987,4.77745,11.65408,7.138,19.52081,7.138a23.41723,23.41723,0,0,0,18.79212-9.00286l.23364-.17523-6.14793-7.42937-.23292.23222c-3.99178,3.96186-8.27417,6.00191-12.87782,6.00191a15.92388,15.92388,0,0,1-11.9162-4.86507c-3.17618-3.17618-4.69055-7.28477-4.69055-12.23746A16.84918,16.84918,0,0,1,100.93185,138.11a16.18115,16.18115,0,0,1,11.9162-4.77816c4.60293,0,8.886,2.03934,12.87782,6.0012l.23292.23364Z" transform="translate(-85.286 -92.02013)"/><path class="cls-3" d="M143.70169,115.03623a45.27376,45.27376,0,0,1,14.50972-10.05138,41.5046,41.5046,0,0,1,16.60676-3.3799,42.43023,42.43023,0,0,1,16.69508,3.3799,46.11836,46.11836,0,0,1,14.39219,10.05138l.17523.146h12.46967l-.46585-.728a53.44771,53.44771,0,0,0-19.05425-16.49065,52.34475,52.34475,0,0,0-48.45192,0,53.09553,53.09553,0,0,0-19.02575,16.48994l-.49505.728h12.55728l.0869-.14531Z" transform="translate(-85.286 -92.02013)"/></svg>