<svg id="Layer_1" data-name="Layer 1" xmlns="http://www.w3.org/2000/svg" viewBox="0 0 175.75 35.73"><defs><style>.cls-1{fill:#231f20;}.cls-1,.cls-2,.cls-3,.cls-4,.cls-5,.cls-6,.cls-7{fill-rule:evenodd;}.cls-2{fill:#b22c1b;}.cls-3{fill:#c53221;}.cls-4{fill:#fff;}.cls-5{fill:#ffd400;}.cls-6,.cls-8{fill:#d5a10f;}.cls-7{fill:#bf2f38;}</style></defs><title>Cold_Stone_Creamery</title><path class="cls-1" d="M163.16,6.42a16.77,16.77,0,1,1-16.77,16.77A16.8,16.8,0,0,1,163.16,6.42Z" transform="translate(-4.18 -5.33)"/><path class="cls-2" d="M163.16,7.48a15.71,15.71,0,1,1-15.71,15.71A15.74,15.74,0,0,1,163.16,7.48Z" transform="translate(-4.18 -5.33)"/><path class="cls-3" d="M176.87,30.84a15.74,15.74,0,0,1-1.06,1.65c-.12-.6-.29-1.32-.41-1.68a7.54,7.54,0,0,0-1-2.16l-.23-.27,0,0c-.3.34-1.09.18-1,.93,0,.51,1,2.11.37,2.5-.33.2-.39.55-.48,1l.06.28c0,.16.68.18,1,.22a8.54,8.54,0,0,0,1,.05q-.37.44-.77.85a5.23,5.23,0,0,0-.78,0c-.07,0-.09,0-.11.08s.09.38.12.54l0,.13q-.46.41-.95.78s0-.09,0-.15a3.19,3.19,0,0,0-.29-1.4l0,0a.53.53,0,0,1-.44.07,5.11,5.11,0,0,1-.45-.39l-.51-.08c-.2,0-.8-.25-.87,0a3.72,3.72,0,0,0,.2,1.66,9.45,9.45,0,0,0,2.05.53q-.55.39-1.13.74a5.86,5.86,0,0,0-.87-.2c-.22,0-.18.28-.2.49-.05.56-.58.36-.64-.09a1.73,1.73,0,0,0-.17-.73,13,13,0,0,0-1.79-.73,1,1,0,0,1-.61-.8c0-.31.9.1,1.12.17a3.16,3.16,0,0,0,1.1.29c.06,0,.07-.1.06-.16a9.23,9.23,0,0,0-.25-1.6c-.14-.05-.23-.05-.37-.1-.73-.24-1.11-.24-1.82-.54-.32-.13-.62-.38-.59-.65s.39-.1.81.07a5.3,5.3,0,0,0,1.87.44c.23,0,.12-.52.16-.7s.08-.24.21-.25.32.07.45.34a2.63,2.63,0,0,1,.15.63l.74.15a12.65,12.65,0,0,0-.81-1.06,3,3,0,0,0-1.11-.73c-.37-.11-1.44-.23-.84-.85a1.09,1.09,0,0,1,.77-.26c1.16.17,1.63.78,2.71,2.18.65.85.79.49.95-.31.37-1.95-.34-2.37.06-3.5.29-.82-.73-1.56-.37-2.15.54-.89,1.66-.51,2.51-.58,1.71-.15,2.94-.76,2.74-2.76-.08-.83-.81-3.4-1.84-3.35-1.26.07-3.4.81-4.54-.11-.9-.73-2.28-1.9-1.11-3A2.73,2.73,0,0,1,172.08,15a2.65,2.65,0,0,1,2.12,1.15c.41.74-.4,1.53-1.25,1.55a3.12,3.12,0,0,1-1.3-.36c-.23-.08-.57-.24-.77,0a.9.9,0,0,0,.08,1c.2.2.62.13.89.11,1.2-.1,2.15.19,3.26-.59s.12-2.63-.39-3.1a6.78,6.78,0,0,0-3.84-2,11.84,11.84,0,0,0-2.9,0c-.76.12-1.79.59-1.7.77a7.81,7.81,0,0,1,.61,3.8c-.28,3.66-3.78,4.27-6.8,4.49a7.94,7.94,0,0,1-3.47-.84,2.17,2.17,0,0,1-1.36-2.38,5.29,5.29,0,0,1,.77-1.53,3.76,3.76,0,0,1,2.42-1.59,4.05,4.05,0,0,1,3,.24,5.32,5.32,0,0,1,1.21,1c.58.67.79,1.2-.12,1.88a1.86,1.86,0,0,1-2.05.21c-.16-.13-1-.84-.63-1.07.2-.12,1.52.23,1.45-.31s-.76-.88-1.26-1c-1.45-.38-3.46,1.42-3.41,2.84.07,2.18,3,1.59,4.46,1.26a12,12,0,0,0,2.23-.7A3.39,3.39,0,0,0,165,17.9,5.65,5.65,0,0,0,165,14a9.92,9.92,0,0,0-1-1.58,5.1,5.1,0,0,0-1.15-1.23c-.26-.18-.69-.62-.78-.44a3.26,3.26,0,0,0-.27.91c0,.39-.09,1.05-.57.78a.65.65,0,0,1-.32-.65,3.11,3.11,0,0,1,.29-1.19c.05-.13.17-.29.13-.32-.79-.57-2.73-.46-3.63-.28a7.89,7.89,0,0,0-6.07,5.13A8.5,8.5,0,0,0,151,19a6.39,6.39,0,0,0,.81,2.48c.05.09.05.16.16.13a5.39,5.39,0,0,1,1.51-.2c1.41,0,1.58.91.93.84a10.85,10.85,0,0,0-1.58.3c-.17.06-.2.09-.11.23a10.63,10.63,0,0,0,3.13,3c.28.17,1.25.69,1.16.53a1.87,1.87,0,0,1,.52-2.49c1.17-.87,2-1.45,3.49-1.33a3.38,3.38,0,0,1,2.22.94c.55.52.83,1.07.05,1.69a3.8,3.8,0,0,1-1.51.77c-.53.09-1,.76-1.5.2-1.63-1.91,2.63-.59,2.18-1.93a1,1,0,0,0-.74-.62c-1.24-.39-3.5,1-3.76,2.21a.9.9,0,0,0,.42,1c.29.21,1,.12.63.65s-1.07.13-1.45,0c-1.88-.44-3.54-2-4.8-3.41-.26-.29-.74-.8-.81-.91s-.61.49-.83.74a1.23,1.23,0,0,0,.18,1.91c1,.75,2.29,1,2.83,2.29.61,1.41-.66,2.65-1.39,3.71a3.86,3.86,0,0,0-.77,2.52,15.8,15.8,0,0,1-1.46-1.7,5.52,5.52,0,0,1,1.28-2.67,3.22,3.22,0,0,0,.81-2,.73.73,0,0,0-.45-.65c-1.1-.61-2.26-1.23-2.48-2.61A2.73,2.73,0,0,1,151,22.1c.22-.13.21-.15.1-.36a19,19,0,0,1-.67-1.86,9,9,0,0,1,5.89-10.63,7.23,7.23,0,0,1,5.66.19,6,6,0,0,1,1.21-.62,3.29,3.29,0,0,1,3.71.67c.34.4.7,1,.38,1.56a1.14,1.14,0,0,1-2,0,.54.54,0,0,1-.08-.51c.09-.24.37-.1.56-.2s0-.23,0-.28A1.65,1.65,0,0,0,164,9.51c-.49.07-1.35.45-1.11.56a3.69,3.69,0,0,1,.66.46,8.88,8.88,0,0,1,1.35,1.39,5.44,5.44,0,0,0,.64.76c.09.08.21,0,.31-.06a7.15,7.15,0,0,1,5.47-.79A7.73,7.73,0,0,1,176.07,15c.7.83,1.28,2.68.69,3.58a.49.49,0,0,0,.09.58A6.66,6.66,0,0,1,178.68,25a2.36,2.36,0,0,1-2.25,1.56,3.41,3.41,0,0,0-1.15.39,8.77,8.77,0,0,1,1,2c.24.67.45,1.29.64,1.91Zm-7.69,6.86q-.69.29-1.41.51c-.88-.71-1.78-1.4-2.7-2.08l-.35-.25a4.62,4.62,0,0,1-1,.72,3.56,3.56,0,0,1-4.08-1.37c-.33-.45-.41-1.09.32-1a1.9,1.9,0,0,1,.81.34c.61.41,1.18,1,1.91.6a2.16,2.16,0,0,0,.57-.52,9.77,9.77,0,0,1-.84-.63.3.3,0,0,1,.19-.51,1.69,1.69,0,0,1,1,0,2,2,0,0,1,.33.14,2,2,0,0,0,.13-.28c.21-.61.36-1.67-.21-2.18-.86-.76-1.66-1-2.1-2.08-.49-1.26.85-.47,1-.62.79-1,1.21-.66,2.26-.91a1.88,1.88,0,0,1,1.52.83c.3.5,1.22-.4,1.12-.88a2.18,2.18,0,0,0-1-1.47c-.17-.07-.32-.12-.35,0a.45.45,0,0,0-.06.17c-.1.45-.72.76-1,.42-.06-.07-.06-.13,0-.3s.13-.19.06-.22a.81.81,0,0,0-.42.08.55.55,0,0,1-.74-.25c-.15-.27.24-.6.57-.73l.54-.19c.26-.09.43-.43.57-.65a7.1,7.1,0,0,1,2.61-2.5c1.25-.63,3.32-1.24,4.42,0a2.85,2.85,0,0,1,.51,1.68c0,1-1.11,1.49-1.57,1.62a1.51,1.51,0,0,1-2.12-1.1c-.07-.44,1.53-.52,1.73-.35s.05.15.12.19c.74.42.8-1.84,0-1.94a4.64,4.64,0,0,0-3.15,1.13c-.3.21-1.32,1.06-1.47,1.66s0,.42.31.54a2.58,2.58,0,0,1,1.67,2.59,1.66,1.66,0,0,1-1.36,1.8,2.12,2.12,0,0,1-1.45.87,2,2,0,0,1-1,0l-.17-.07-.27-.13-.11,0c-.12,0-.11.1,0,.17a6.45,6.45,0,0,1,.84,1,4.34,4.34,0,0,1,.45,3.15,1.43,1.43,0,0,1-.1.24c1,.76,2.36,1.79,3.61,2.83Zm-12.85-.36a15.83,15.83,0,0,1-1.52-.84,5.66,5.66,0,0,0,1.28-.69c1.36-1,3.35-3.8,1.22-5.12-.46-.29-1.54-.27-1.84.25-.09.15-.43,1.11-.21,1.25.47.32,1.39-.09,1.82-.18s0,.73,0,1,.07.3,0,.43a1.52,1.52,0,0,1-2,.31,2.87,2.87,0,0,1-.84-3.59c.27-.47.68-.42,1.19-.43,1.43,0,3.49.33,4.09,1.84a2.8,2.8,0,0,1,.17.84,6.26,6.26,0,0,1-1.13,3.13,6.62,6.62,0,0,1-2.2,1.85Zm-8.61-17a15.57,15.57,0,0,1,1-3.3,2,2,0,0,1,.8.68,1.58,1.58,0,0,1,.11,1.72.59.59,0,0,1-.44.24c-.15,0-.56-.13-.66,0s0,.11.08.15A3.1,3.1,0,0,0,149,20a1,1,0,0,1,.43.46.3.3,0,0,1-.14.36c-.28.19-.87-.07-1.12-.23l-.44-.31Zm3.07,8.79c-.61.26-1.41.49-1.94,0a1.75,1.75,0,0,1,.11-2.3,1.3,1.3,0,0,1,.4-.24,1.24,1.24,0,0,1,1,0,3.49,3.49,0,0,1,1.25,1.19c.09.12.27.2.3.35s-.09.34-.27.46a5.84,5.84,0,0,1-.86.53Zm-.52-.76c-.46.23-.87.39-1.09-.16a.84.84,0,0,1,0-.63.21.21,0,0,1,.15-.1,1.16,1.16,0,0,1,1,.74.14.14,0,0,1-.05.16Zm8.93,2.07c-.09-.51-.22-1.18.17-1.56a.58.58,0,0,1,.84.09,1.51,1.51,0,0,1,0,1.89c-.32.38-.92,0-1-.41Zm16.16-7.26a.69.69,0,0,1-.67-.63,1,1,0,0,1,.07-.36.86.86,0,0,1,.41-.44.62.62,0,0,1,.54,0c.17.08.39.23.31.44a4.45,4.45,0,0,0-.22.44c0,.15,0,.31-.06.43a.38.38,0,0,1-.38.13Zm-18.5-7.71c.42-.54,1-.87.73-1.61s-1.19-.93-1.86-.93a1.52,1.52,0,0,0-1.32,2.06,1.57,1.57,0,0,0,1.23,1c.65,0,.86,0,1.23-.47Zm9.88,6.89c0-.18-.15-.27-.09-.38s.31-.16.5-.31.28-.66-.42-.91a1,1,0,0,0-1.3.7A.92.92,0,0,0,166,22.6c.21,0,.66.09.72-.29Zm5.78-5.5a4.65,4.65,0,0,1-.67-.31c-.21-.09.08-.29.16-.34a1.21,1.21,0,0,1,.61-.18c.16,0,.66.33.56.58s-.39.31-.66.24Zm.34,10.71c.15-.58-.32-1.13,0-1.25s.74.13.89.47a1.13,1.13,0,0,1-.12.83c-.23.27-.8.15-.75,0Zm-7.27,1.63a2.08,2.08,0,0,1-1.36.1c-.37-.34.19-.69.53-.81s1.23.42.82.71Z" transform="translate(-4.18 -5.33)"/><path class="cls-4" d="M167.59,31.42a.54.54,0,0,1,0,.66.81.81,0,0,1-.75.34,2.75,2.75,0,0,1-.64-.2l-.19.38a.5.5,0,0,1,.13.56.58.58,0,0,1-.67.36c-.31.51-.64,1-1,1.52s-.6.9-.93,1.33c-.17.23-.34.46-.52.68a2.54,2.54,0,0,1-1.21,1,.88.88,0,0,1-.59-.14A.79.79,0,0,1,161,37a5.64,5.64,0,0,1,.62-1.06,3.06,3.06,0,0,0,.24-.4c-.09-.44,0-.9-.06-1.34A28,28,0,0,0,160.61,30q-.44-1.25-.94-2.48a2,2,0,0,1-1.77-.68,2.74,2.74,0,0,1-.69-1.48,3.85,3.85,0,0,1-1.6.34,3.16,3.16,0,0,1-1.63-.42,2.33,2.33,0,0,1-1.05-1.57,5.46,5.46,0,0,1,0-1.29,2.56,2.56,0,0,1,.46-1.24A3.7,3.7,0,0,1,154.91,20a3.85,3.85,0,0,1-1-.46.78.78,0,0,1-.26-.63,1.74,1.74,0,0,1,.43-1.06,1.1,1.1,0,0,1,1.23-.32,1.65,1.65,0,0,1,.58-1.23,2.19,2.19,0,0,1,1.11-.47c0-.16.06-.31.09-.46a.66.66,0,0,1-.34.11,1.07,1.07,0,0,1-.86-.67,2.46,2.46,0,0,1-.3-1.64,1.66,1.66,0,0,1,.59-.82,1.17,1.17,0,0,1,.83-.23,1.53,1.53,0,0,1,1.12,1,5.76,5.76,0,0,1,2-1.64A5.63,5.63,0,0,1,161.7,11a3.17,3.17,0,0,1-.41-1.11,1.57,1.57,0,0,1,1.14-1.45A1.35,1.35,0,0,1,164,9a1.39,1.39,0,0,1,.26.94,2.15,2.15,0,0,1-.5,1,5.18,5.18,0,0,1,2,.87,3.9,3.9,0,0,1,.9.91,3,3,0,0,1,2,.75c.53.53.91,1.64.3,2.24a5.52,5.52,0,0,1,2.2,1.68.79.79,0,0,1,.28-.63c.74-.5,1.61.17,1.87.85s-.14,1.6-1,1.39a1.13,1.13,0,0,1-.4-.2,9.2,9.2,0,0,1,.26,1.2,3,3,0,0,1-.38,1.86,1.54,1.54,0,0,1-.46.48,4.54,4.54,0,0,1,.08,1.21c-.09,1.28-.74,3-2.27,2.94a3.93,3.93,0,0,1-.92-.29,12,12,0,0,1-.28,1.62,14.21,14.21,0,0,1-.39,1.4,1.82,1.82,0,0,1,.87.42.55.55,0,0,1,0,.62.71.71,0,0,1-.54.32,2.22,2.22,0,0,1-.81-.16l-.21.47a2.85,2.85,0,0,1,.75.42Z" transform="translate(-4.18 -5.33)"/><path class="cls-5" d="M166.36,26a12.83,12.83,0,0,1-2.28,6.43,14.32,14.32,0,0,1-1.46,2c-.16.15-.36-1.62-.39-1.94a16.79,16.79,0,0,0-1.39-4.66c-.26-.6-.59-.88-.48-1.37a4.77,4.77,0,0,1,.44-.76,2.82,2.82,0,0,0,.35-1.53c0-.42,1.09.27,1.2.38a3.24,3.24,0,0,0,1.19.84c.71,2.87.58,3.53,2.82.62Z" transform="translate(-4.18 -5.33)"/><path class="cls-6" d="M160.06,25.62a.93.93,0,0,1,.22.41c0,.23-.51.2-.65.16a3.41,3.41,0,0,1-.3-.68.17.17,0,0,1,.24-.2,1,1,0,0,1,.49.3Zm4.45,6.4a8,8,0,0,1-.85-.71c0-.05.18-.39.21-.46s.14-.25.2-.36.07,0,.14.08c.23.16.59.43.89.62,0,0,.13.07.06.18s-.3.49-.4.69-.17,0-.25,0Zm-.76-2.59a4.92,4.92,0,0,1-.94-.93,2.15,2.15,0,0,1,.39-.88c.12-.12.36.16.44.24a4.35,4.35,0,0,1,.5.45.4.4,0,0,1,.08.18,1.85,1.85,0,0,1-.27.78c-.1.18-.14.17-.2.15Zm.65.53a.13.13,0,0,1,0-.14,3.68,3.68,0,0,0,.25-.65c0-.09,0-.24.1-.3s0,0,.08,0,.3.21.53.36a5.92,5.92,0,0,0,.59.34s.12.05.06.19-.25.53-.44.89c0,.07-.08.12-.2.06a3.58,3.58,0,0,1-.95-.74Zm-3.92-3.51a39,39,0,0,1,1.61,4.46,10.67,10.67,0,0,1,.62,3.81s-.06.25,0,.24.23-.18.3-.27c.48-.65.91-1.33,1.36-2,.1-.15,0-.18-.12-.29s-.48-.37-.64-.5-.26-.28-.31-.24c-.26.3-.35.35-.51.34s-.07-.2,0-.28a3.19,3.19,0,0,0,.18-.3s0-.11-.07-.17-.18-.21-.37-.43-.31-.54,0-.43l.21.17c.2.17.19.23.4.39.06,0,.22-.2.29-.39a2.64,2.64,0,0,0,.16-.41s-.08-.13-.1-.16c-.4-.32-.68-.72-1-1-.1-.08-.17.09-.24.18-.19.26-.39,0-.29-.23a1,1,0,0,0,.13-.41,7.53,7.53,0,0,0-.67-.89.58.58,0,0,1-.06-.58c.1-.15.41.32.5.42a1.83,1.83,0,0,0,.46.47s.06,0,.08-.06a5.39,5.39,0,0,0,.35-.86c-.05-.07-.1-.09-.15-.16-.29-.33-.48-.45-.74-.81-.12-.16-.2-.37-.1-.49s.22.07.38.28a3.05,3.05,0,0,0,.8.77c.11.07.22-.22.28-.3s.11-.09.18-.06.14.13.12.3a1.52,1.52,0,0,1-.11.36c.11.11.71.62.94.86.07.07.13-.06.15-.13.1-.31.56-.26.53,0a2.3,2.3,0,0,1-.14.48c0,.09.29.29.43.41s.87.59.9.53a10.19,10.19,0,0,0,.47-1.38,4.36,4.36,0,0,0,.17-1.35,1.46,1.46,0,0,1,0-.53c.1-.34.48-.33.67-.36s.42.14.18,1.56a15.87,15.87,0,0,1-.6,2.32l0,.11c0,.06.21.14.29.17s.29.09.44.15.37.08.32.25a.3.3,0,0,1-.33.19A2.61,2.61,0,0,1,167,30c-.08,0-.09-.09-.18.1s-.3.69-.4.88-.05.13,0,.17c.18.18.76.35.92.51s-.13.33-.3.33a2.68,2.68,0,0,1-.85-.31c-.06,0-.06,0-.12.08s-.3.62-.38.74-.12.19,0,.24a.71.71,0,0,1,.2.15s0,.21-.13.21a.66.66,0,0,1-.28-.07c-.05,0-.08,0-.12.08-.37.63-.76,1.24-1.17,1.85-.25.38-.52.78-.8,1.14s-.88,1.28-1.43,1.47a.34.34,0,0,1-.44-.42c.14-.47.83-1.27.91-1.62a1.79,1.79,0,0,1-.05-.57A14.54,14.54,0,0,0,161,30c-.31-.9-.65-1.77-1-2.65l-.28-.63.74-.23Z" transform="translate(-4.18 -5.33)"/><path class="cls-6" d="M162.09,14.63c.37-.14.75-.13.84-.58s-.32-.81-.65-1a.88.88,0,0,0-1.26.63.9.9,0,0,0,.33.84c.32.2.43.25.75.13Zm-5.35.43c-.2,0-.41-.29-.48-.44a1.82,1.82,0,0,1-.2-1.52c.25-.45.72-.78,1.21-.45a1.23,1.23,0,0,1,.54.92.91.91,0,0,1-.46.88.34.34,0,0,1-.29,0c-.08,0-.24-.23-.32-.2s0,.06,0,.1a1.83,1.83,0,0,0,.11.23.55.55,0,0,1,.08.35.17.17,0,0,1-.18.13Zm2.08,7.67c.11-.28.24-.65.55-.72a.34.34,0,0,1,.39.29.87.87,0,0,1-.57.93c-.27.09-.46-.27-.37-.49ZM164.94,21c.07-.08,0-.18.07-.21s.2,0,.34,0,.33-.24.06-.58a.55.55,0,0,0-.85,0,.53.53,0,0,0-.06.76c.1.08.3.24.44.07ZM155,19.6c-.38-.05-.84-.18-1-.6a1,1,0,0,1,.74-1.1.76.76,0,0,1,.27,0,.71.71,0,0,1,.48.32,2,2,0,0,1,.27,1c0,.09.08.18,0,.26s-.15.14-.27.15a3.25,3.25,0,0,1-.58,0Zm0-.53c-.3,0-.55-.06-.49-.4a.48.48,0,0,1,.2-.31.12.12,0,0,1,.1,0,.67.67,0,0,1,.26.65.08.08,0,0,1-.07.06Zm7.28-8a.36.36,0,0,1-.22-.18,3.28,3.28,0,0,1-.41-1,.65.65,0,0,1,0-.22,1.06,1.06,0,0,1,.46-.61,1.54,1.54,0,0,1,.32-.19.76.76,0,0,1,.42-.07.9.9,0,0,1,.64.34,1.47,1.47,0,0,1,.31.6,1.38,1.38,0,0,1-.32.94A1,1,0,0,1,163,11a1.42,1.42,0,0,1-.75,0Zm.19-.4c-.15,0-.26-.28-.3-.38a.81.81,0,0,1,.19-.78c.16-.16.66-.42.78-.09a.43.43,0,0,1,0,.29,6.06,6.06,0,0,1-.29.64c-.08.15-.21.33-.39.33ZM169,23.93a.4.4,0,0,1-.15-.51.58.58,0,0,1,.14-.16.49.49,0,0,1,.34-.1.36.36,0,0,1,.27.16c.06.09.13.23,0,.31a2.57,2.57,0,0,0-.24.15c-.06.06-.07.16-.16.2a.22.22,0,0,1-.23,0Zm3.2-5.38a1.49,1.49,0,0,1-.56-.84c0-.2-.06-.54.17-.61a1,1,0,0,1,.46,0,.91.91,0,0,1,.55.42,1.35,1.35,0,0,1,.25.59.51.51,0,0,1-.27.5.6.6,0,0,1-.59-.07Z" transform="translate(-4.18 -5.33)"/><path class="cls-7" d="M163.17,25.15a.63.63,0,0,1,.46.1c.52.43.58.87.7,1.88.07.61.25.48.56.13.76-.85.53-1.27,1.07-1.72.38-.32.1-1,.46-1.17.53-.28,1,.24,1.42.45.89.43,1.68.49,2.18-.55.21-.44.61-1.92.08-2.2s-1.92-.61-2.21-1.4c-.23-.63-.56-1.62.35-1.84a1.58,1.58,0,0,1,1.52.13,1.53,1.53,0,0,1,.71,1.2c0,.48-.65.64-1.08.4a1.79,1.79,0,0,1-.54-.57c-.09-.11-.21-.28-.37-.24s-.3.37-.26.52.27.25.41.32c.63.31,1,.73,1.79.67s.84-1.27.72-1.65a3.91,3.91,0,0,0-1.3-2.15,6.83,6.83,0,0,0-1.45-.84c-.41-.17-1.06-.24-1.07-.12a4.51,4.51,0,0,1-.83,2.06c-1.22,1.73-3.14,1-4.7.21a4.58,4.58,0,0,1-1.47-1.45,1.25,1.25,0,0,1,0-1.58,3,3,0,0,1,.83-.53,2.17,2.17,0,0,1,1.67-.07,2.34,2.34,0,0,1,1.43,1,3.08,3.08,0,0,1,.31.83c.09.5,0,.83-.62.89a1.07,1.07,0,0,1-1.08-.5c0-.11-.25-.71,0-.72s.68.56.81.28-.11-.66-.32-.87a1.87,1.87,0,0,0-2.53.39c-.61,1.1,1,1.68,1.84,1.95a6.92,6.92,0,0,0,1.31.31,2,2,0,0,0,1.38-.45,3.26,3.26,0,0,0,1.12-1.94,5.77,5.77,0,0,0,0-1.08,3,3,0,0,0-.2-1c-.08-.17-.16-.51-.26-.45a1.88,1.88,0,0,0-.4.37c-.14.18-.36.49-.51.21a.37.37,0,0,1,0-.42,1.78,1.78,0,0,1,.5-.5c.06-.05.17-.09.16-.12a3.46,3.46,0,0,0-1.71-1.22,4.55,4.55,0,0,0-4.53.74,4.91,4.91,0,0,0-1.42,1.75,3.69,3.69,0,0,0-.33,1.47c0,.06,0,.09,0,.11a3.12,3.12,0,0,1,.81.35c.69.42.51.92.21.69A6.35,6.35,0,0,0,158,17c-.1,0-.13,0-.12.08a6.12,6.12,0,0,0,.68,2.39c.09.17.41.71.42.6A1.08,1.08,0,0,1,160,19a2.65,2.65,0,0,1,2.12.38,2,2,0,0,1,.82,1.12c.12.42.09.78-.47.85a2.2,2.2,0,0,1-1-.07c-.29-.11-.73.08-.8-.35-.24-1.43,1.48.49,1.65-.31a.57.57,0,0,0-.19-.53,2.14,2.14,0,0,0-2.52,0,.52.52,0,0,0-.08.61c.08.19.44.34.12.51s-.57-.25-.73-.41a5.92,5.92,0,0,1-1.37-3.11c0-.22-.13-.62-.13-.69s-.45.06-.63.12a.71.71,0,0,0-.48,1c.27.67.82,1.19.72,2s-1.11,1.12-1.79,1.43a2.16,2.16,0,0,0-1.36,2.19c0,.77,1.22.88,1.8.83,1-.09,2.78-.89,2.12-2.17-.14-.28-.68-.59-1-.43-.09,0-.54.42-.48.56.14.3.72.37,1,.45s-.22.36-.28.48-.06.17-.13.21a.88.88,0,0,1-1.1-.45,1.66,1.66,0,0,1,.65-2c.27-.15.46,0,.72.14.72.41,1.63,1.2,1.48,2.12a1.62,1.62,0,0,1-.17.47A3.61,3.61,0,0,1,157,25.06c-1.37.54-3.22.36-3.63-1.28a3.93,3.93,0,0,1,.15-2,3.24,3.24,0,0,1,1.83-1.52c.38-.18.84-.38,1-.76a.42.42,0,0,0,0-.45,2.26,2.26,0,0,1-.45-2,1.58,1.58,0,0,1,1.39-.82c.15,0,.15,0,.15-.15a11,11,0,0,1,.22-1.12,5.21,5.21,0,0,1,6.07-3.52,4.17,4.17,0,0,1,2.74,1.77,3.44,3.44,0,0,1,.78.05,1.9,1.9,0,0,1,1.64,1.43c0,.3,0,.72-.27.89a.65.65,0,0,1-1-.59.31.31,0,0,1,.11-.28c.12-.09.21.06.34.07s.08-.1.09-.13c0-.43-.37-.67-.73-.82s-.8-.18-.72-.05a2.13,2.13,0,0,1,.19.42,5.11,5.11,0,0,1,.26,1.09,3.16,3.16,0,0,0,.09.56c0,.07.1.06.17.06a4.12,4.12,0,0,1,2.94,1.23,4.46,4.46,0,0,1,1.43,3,2.13,2.13,0,0,1-.72,2,.28.28,0,0,0-.13.31,3.84,3.84,0,0,1-.83,3.43,1.36,1.36,0,0,1-1.58.1,1.76,1.76,0,0,0-.85-.13c-.24.1-.34.31-.81.39-.25.08-.6-.23-.77.16s-.12,1.35-.56,1.35-.53.57-1.13.75a.38.38,0,0,1-.38-.08,8.49,8.49,0,0,1-.32-1.87,1.74,1.74,0,0,0-.33-.69c-.15-.16-.64-.54-.17-.67Zm-.05-.3a1.22,1.22,0,0,1-1,0,1.16,1.16,0,0,1-.51-.31l-.07-.09-.09-.15,0,0c-.05,0-.08,0-.07.07a3.7,3.7,0,0,1,.13.73,2.5,2.5,0,0,1-.71,1.7,2.76,2.76,0,0,1-1.54.4,2.06,2.06,0,0,1-1.62-1.89c0-.32.12-.66.44-.38a1.1,1.1,0,0,1,.3.41c.18.38.3.83.77.87a2.64,2.64,0,0,0,1.21-.48c.28-.24.68-.72.54-1.14-.2-.63-.53-1-.42-1.65s.56,0,.67,0c.68-.25.79,0,1.39.22A1.08,1.08,0,0,1,163,24c0,.34.72.17.81-.1a1.26,1.26,0,0,0,0-1c-.07-.08-.12-.15-.16-.13l-.08.07c-.18.19-.59.16-.64-.1,0-.05,0-.08.08-.15s.12-.05.1-.09a.47.47,0,0,0-.23-.09.31.31,0,0,1-.29-.34c0-.18.3-.23.5-.19l.33.06a.83.83,0,0,0,.48-.15,4.1,4.1,0,0,1,2-.47c.81.06,2,.37,2.19,1.3a1.65,1.65,0,0,1-.24,1,1.12,1.12,0,0,1-1.26.34c-.54-.14-1-.57-.72-1.17.09-.24.91.2,1,.34s0,.09,0,.13c.24.43.94-.68.55-1a2.68,2.68,0,0,0-1.9-.37,2.58,2.58,0,0,0-1.22.39c-.2.2-.12.22,0,.36a1.49,1.49,0,0,1,.06,1.78,1,1,0,0,1-1.21.49ZM169.43,20a2.74,2.74,0,0,1-.24-.35c-.08-.11.13-.12.18-.12a.7.7,0,0,1,.36.09c.08,0,.23.36.1.45s-.28,0-.4-.07Zm-3,5.4c.24-.24.18-.65.36-.63s.32.28.3.5a.65.65,0,0,1-.31.38c-.19.06-.44-.16-.36-.25ZM162.35,24c-.14,0-.66-.22-.7-.35s.3-.28.5-.24.48.57.2.6Z" transform="translate(-4.18 -5.33)"/><path class="cls-4" d="M119.9,41.05H26.75L26.14,41a6.3,6.3,0,0,1-2.93-1.31l-.43-.39a6.27,6.27,0,0,1-1.65-3.06,6.18,6.18,0,0,1,.2-3.17c-.14.22-.28.44-.44.65a6.76,6.76,0,0,1-3.15,2.22,9.38,9.38,0,0,1-6.06,0l-.41-.17A8.5,8.5,0,0,1,7.87,33,9.44,9.44,0,0,1,7,31.94a16.72,16.72,0,0,1-2.7-8.38A33.11,33.11,0,0,1,4.55,16c.56-3.25,1.79-6.65,4.39-8.81a7.32,7.32,0,0,1,3.19-1.53,7.19,7.19,0,0,1,4.79.59,2.74,2.74,0,0,1,2.65-.85,3.79,3.79,0,0,1,1.14.35l.38.27.38.51,0,.2a2.27,2.27,0,0,1,.82.82l.11.55q0,1,0,2.06a10.86,10.86,0,0,1,1.81-2.45l.53-.47A7,7,0,0,1,27,6a6.77,6.77,0,0,1,1.78-.21,6.12,6.12,0,0,1,2.63.75A8.05,8.05,0,0,1,34,8.84a8.9,8.9,0,0,1,.6.68,4.11,4.11,0,0,1,.1-2.4l.24-.41.52-.47L36,6.1h7.3l.66.2a2.48,2.48,0,0,1,.7,1l.12,0,.48.47.22.4.17.6a4.71,4.71,0,0,1-.09,1.8l-.3.66-.41.44-.53.22-.26,0q0,2,0,4a3.81,3.81,0,0,1,2.76-.46l.57.18a3.64,3.64,0,0,1,1.46,1.14l.22.36a3.1,3.1,0,0,1,.33.29q0-3,0-6.09a1.71,1.71,0,0,1-.37-.63l-.2-.08-.42-.45-.3-.67a4.44,4.44,0,0,1,0-2.06l.11-.31.21-.39.46-.45.62-.2h5.05a11.41,11.41,0,0,1,4,.61c.26.1.51.21.76.34a8.44,8.44,0,0,1,2.85,2.53c3,3.13,3.53,7.81,3,11.94a13.5,13.5,0,0,1-1.27,4.23A10.13,10.13,0,0,1,62.32,28a9.75,9.75,0,0,1-1.15,1H70c-.24-.27-.43-.58-.69-.83a6.7,6.7,0,0,1-1.9-4,6,6,0,0,1,.37-2.56,6.55,6.55,0,0,1,1.3-2.07,4.84,4.84,0,0,1,2-1.28l0,0a9.28,9.28,0,0,1-2.13-3.45,7.36,7.36,0,0,1,.23-5.27,7.17,7.17,0,0,1,2-2.56,6.65,6.65,0,0,1,2.36-1.13,6.36,6.36,0,0,1,2.5-.07,11.62,11.62,0,0,1,2.07.66l.36-.2A4.41,4.41,0,0,1,81.12,6l.35.14.46.33.22.38.08-.15.61-.48.64-.13H94.6l.64.13.61.48.31.58.55.44.3.54a3.88,3.88,0,0,1,.14,1c0,.27,0,.54,0,.81a9,9,0,0,1,3.23-3.51,6.62,6.62,0,0,1,2-.71,6.46,6.46,0,0,1,2.14.07,6.6,6.6,0,0,1,2,.85,8.32,8.32,0,0,1,2,2l.07.07A3.4,3.4,0,0,1,109,7l.27-.39.47-.38.58-.17h4.89a2.59,2.59,0,0,1,2.27,1.21l.32-.62.49-.43.6-.16h5.69l.67.28.23.27.27-.29.64-.26h14.07l.39.05.42.14.41.25.34.35.27.51.25.16.34.35.22.39a3.48,3.48,0,0,1,.2,1c0,2,.08,4,.11,6a3.61,3.61,0,0,1-.11.79l-.2.43-.39.44-.57.3a12,12,0,0,1-1.9.06v6.63a8.8,8.8,0,0,1,1.25.07l.56.29a2.23,2.23,0,0,1,.59.88l.26.14.39.44.2.43a3.62,3.62,0,0,1,.11.79c0,2.24-.11,4.47-.15,6.71a4.22,4.22,0,0,1-.11.89l-.13.32-.22.33-.29.29-.33.21a3.53,3.53,0,0,1-.89.24L141,36H127.35l-.6-.14a2.3,2.3,0,0,1-.83-1,6.08,6.08,0,0,1-1.38,4l-.39.43a6.26,6.26,0,0,1-3.06,1.65,7.68,7.68,0,0,1-1.2.12Z" transform="translate(-4.18 -5.33)"/><path class="cls-7" d="M49.74,28.09c-.31,0-.35-1.81,0-1.85s.8-.05,1-.27a1.22,1.22,0,0,0,.13-.65q0-7.55,0-15.09c0-.47-.09-.62-.57-.72l-.57-.09c-.37,0-.4-1.83,0-1.84h5a7.29,7.29,0,0,1,5.06,1.56c3,2.61,3.55,7.21,3.11,10.93a9.48,9.48,0,0,1-3.17,6.47,7.65,7.65,0,0,1-4.84,1.55Zm5.56-2.53c0,.39,0,.56.4.61,2,.06,2.19-2.26,2.32-3.77.17-1.88.19-3.77.18-5.66a35,35,0,0,0-.22-4c-.13-1.06-.36-2.7-1.53-3.14-1-.29-1.16,0-1.16.91q0,7.42,0,14.85c0,.06,0,.17,0,.23Z" transform="translate(-4.18 -5.33)"/><path class="cls-7" d="M35.05,17.84c0,3.23-.83,6.91-3.25,9.22a4.83,4.83,0,0,1-2.68,1.33c-3.26.41-5.4-2.9-6.27-5.59a17,17,0,0,1-.2-9.23c.72-2.76,2.68-6.29,5.94-6.29,3,0,5,3.12,5.77,5.69a16.43,16.43,0,0,1,.68,4.88ZM28.6,9.17c-.95,0-1.21,1.49-1.33,2.18A30.47,30.47,0,0,0,27,15.43c-.06,2.12-.05,4.24.06,6.36a18.83,18.83,0,0,0,.33,2.87c.14.65.58,2.15,1.58,1.71.66-.3.88-1.49,1-2.11a27.85,27.85,0,0,0,.3-3.72c.07-2.14.06-4.29,0-6.42a21.35,21.35,0,0,0-.31-3c-.12-.63-.43-1.91-1.27-1.91Z" transform="translate(-4.18 -5.33)"/><path class="cls-7" d="M46.33,28.09c1.12,0,1.36-.57,1.06-1.36-.46-1.21-.92-2.78-1-3A2.44,2.44,0,0,1,47,21.28,3.67,3.67,0,0,0,48,19c.31-2.72-4.12-3.19-4.45.56a8.28,8.28,0,0,0,1.13,4.67c.39.59,1.3,1.74.21,2.12-.86.3-3,.54-3.11-.77,0-5.07-.06-10.15,0-15.22,0-.23.08-.72.36-.77s.62-.11,1-.16.42-1.87,0-1.86H36.2c-.42,0-.36,1.86,0,1.84a4.41,4.41,0,0,1,.57.09c.45.13.56.22.56.72q0,7.55,0,15.09a1.21,1.21,0,0,1-.13.65c-.21.21-.73.22-1,.27s-.31,1.83,0,1.85c3.37,0,6.77-.11,10.13,0Z" transform="translate(-4.18 -5.33)"/><path class="cls-7" d="M20,24.65c.37,0,.41.38.41.57,0,2.27-.15,4.7-1.55,6.58S15,34.1,13,33.92a6.67,6.67,0,0,1-5.12-3.33c-1.91-3.05-2.25-7-2.18-10.53s.76-7.77,3.14-10.7A6.37,6.37,0,0,1,12.1,7.13a6.6,6.6,0,0,1,3.61.12,7.81,7.81,0,0,1,1.22.69.28.28,0,0,0,.22,0,2.68,2.68,0,0,0,1-.92c.23-.36,2-.29,2,.16,0,2.94,0,5.34,0,8.24,0,.17.11.82-.48.83H18.33c-.5,0-.55-.69-.61-.92A17.62,17.62,0,0,0,16,10.66c-.33-.58-.89-1.47-1.63-1.53-1.28-.11-1.73,2-1.9,2.83a52.4,52.4,0,0,0-.3,14.32c.15,1.44.44,4.88,2.55,5.08a2.58,2.58,0,0,0,2.53-1.51,9.48,9.48,0,0,0,.85-4.54c0-.22,0-.67.5-.66Z" transform="translate(-4.18 -5.33)"/><path class="cls-6" d="M57.07,10.53c-.82-.18-.92.15-.92,1q0,7.15,0,14.31a1.48,1.48,0,0,1-.51,0,.74.74,0,0,1,0-.09c0-.14,0-.28,0-.41q0-7.19,0-14.38c0-.25,0-.5,0-.75a.89.89,0,0,1,.07-.36c0-.06.17,0,.23,0a1.92,1.92,0,0,1,.49.12,1.66,1.66,0,0,1,.3.2,1.9,1.9,0,0,1,.34.42ZM50.6,29.11c-.13,0-.21-.32-.24-.69h4.51a7.89,7.89,0,0,0,5.42-1.94c2.08-1.9,2.84-4.73,3-7.46a16,16,0,0,0-1-6.78,14.74,14.74,0,0,1,1.4,8.84,9.48,9.48,0,0,1-3.17,6.47,7.64,7.64,0,0,1-4.84,1.55Z" transform="translate(-4.18 -5.33)"/><path class="cls-6" d="M29.29,10.21c-.81.17-1.05,1.51-1.16,2.17a30.52,30.52,0,0,0-.31,4.07c-.06,2.12-.05,4.24.06,6.36a18.88,18.88,0,0,0,.33,2.88c0,.09,0,.2.08.32a1.4,1.4,0,0,1-.27-.38,6,6,0,0,1-.5-1.89c-.13-1-.18-2-.22-2.94-.08-2-.06-4.07,0-6.11a24.65,24.65,0,0,1,.33-3.55c.09-.49.26-1.3.72-1.56s.58,0,.75.29a2.14,2.14,0,0,1,.18.36ZM26.34,28.15a4.57,4.57,0,0,0,2.5.59c2.8-.16,4.7-2.81,5.59-5.24a16.48,16.48,0,0,0,.94-5.66,15.56,15.56,0,0,0-1.13-6.16,13.1,13.1,0,0,1,1.62,5.74c0,.93.05,1.87,0,2.8a11.73,11.73,0,0,1-3.2,7.85A4.82,4.82,0,0,1,30,29.4a4.48,4.48,0,0,1-3.64-1.25Z" transform="translate(-4.18 -5.33)"/><path class="cls-6" d="M47.19,29.07c.71,0,1.06-.16,1.15-.54A3.1,3.1,0,0,0,48,27.09c-.37-1.06-.69-2.17-.75-2.37a2.44,2.44,0,0,1,.57-2.43,3.67,3.67,0,0,0,1-2.26,1.84,1.84,0,0,0-.54-1.61,4.09,4.09,0,0,1-.2,1.62,4.39,4.39,0,0,1-.88,1.44,2.47,2.47,0,0,0-.54,1,2.1,2.1,0,0,0,0,1.18c.3,1,.58,1.92.93,2.86A1.39,1.39,0,0,1,47.56,28a2.54,2.54,0,0,1-1.86.34c-1.05,0-2.1,0-3.16,0-1.9,0-3.81.06-5.71.07,0,.37.1.68.23.69,3.37,0,6.77-.15,10.13,0Zm-4.58-2.9c0-4.93-.06-9.85,0-14.78,0-.23.08-.72.36-.77s.62-.11,1-.16.42-1.87,0-1.86h-.26a2.71,2.71,0,0,1-.09.63,1,1,0,0,1-.2.38c-.17.18-.37.17-.6.2l-.53.09c-.21,0-.2.31-.21.49-.06,5.06,0,10.13,0,15.19,0,.33.26.5.53.59Z" transform="translate(-4.18 -5.33)"/><path class="cls-6" d="M10.19,33.37c2.62,1.55,7,1.15,8.93-1.38a8.78,8.78,0,0,0,1.53-4.59c.05-.58,0-1.16.08-1.74a.85.85,0,0,1,.23,0c.28.06.31.39.31.56,0,2.27-.15,4.7-1.55,6.58s-3.81,2.3-5.9,2.12a6.26,6.26,0,0,1-3.63-1.56Zm5.14-23.22C14,10,13.54,12.06,13.37,13a52.42,52.42,0,0,0-.3,14.32,14.15,14.15,0,0,0,.54,3,7.3,7.3,0,0,1-1-3.27,55.78,55.78,0,0,1-.21-12,31.84,31.84,0,0,1,.48-3.29c.25-1.23,1-3.46,2.45-1.6Zm5.09-2.29c.31.06.55.17.54.34,0,1,0,1.9,0,2.79,0,1.7,0,3.4,0,5.09,0,.3,0,.58,0,.83s-.17.34-.43.34H19.19c-.38,0-.5-.41-.56-.69h1a.79.79,0,0,0,.53-.19.74.74,0,0,0,.2-.31,1.39,1.39,0,0,0,.07-.53c0-.22,0-.44,0-.67,0-2.34,0-4.68,0-7Z" transform="translate(-4.18 -5.33)"/><path class="cls-6" d="M141.29,8.6c.4.05.52.31.53.73,0,2.53.07,3.33.11,5.86,0,.21,0,.64-.38.64-.68,0-.5,0-1.18,0a.52.52,0,0,1-.58-.47l-.05-.22h1.07a.63.63,0,0,0,.4-.21.93.93,0,0,0,.19-.61c0-.13,0-.25,0-.38l-.1-5.33Zm-4.49,2.48-.19-.09a4.79,4.79,0,0,0-2.08-.21c-.54.11-.42.79-.43,1.23q0,3,0,6a3,3,0,0,1-.53.29V11a5.1,5.1,0,0,1,0-.69c0-.09,0-.17.12-.21a1.58,1.58,0,0,1,.36,0,4.73,4.73,0,0,1,1.49.19,2.81,2.81,0,0,1,.62.32l.26.18.37.32Zm1.43,5h.15c.41,0,.39.35.39.52v8.87c0,.17,0,.5-.39.52h-1.15c-.53,0-.57-.19-.59-.29l-.06-.4c.32,0,.64,0,1,0a.7.7,0,0,0,.7-.77q0-4.22,0-8.45Zm-4.13,6.21q0,4.35,0,8.7h0l-.19,0-.17,0c-.11-.05-.12-.24-.12-.34s0-.16,0-.24q0-4.3,0-8.6a3.17,3.17,0,0,1,.82.5l.15.14.11.12a4.68,4.68,0,0,0-.54-.2Zm7.5,4.11h.16c.41,0,.38.43.38.64,0,2.53-.1,3.53-.13,6.06,0,1.06.13,1.37-1,1.37H127.52c-.2,0-.31-.31-.34-.69h12.51a4.18,4.18,0,0,0,1.16-.08.76.76,0,0,0,.51-.45,2.59,2.59,0,0,0,.09-.88c0-.09,0-.18,0-.27,0-1.9.09-3.8.13-5.7Z" transform="translate(-4.18 -5.33)"/><path class="cls-6" d="M116.41,27.27l.22,0c.41.1.43,1.78,0,1.8h-5.2c-.23,0-.35-.33-.38-.69h4.75a.53.53,0,0,0,.36-.19.88.88,0,0,0,.16-.3,2.2,2.2,0,0,0,.09-.65Zm-1.3-10.07q0,4.16,0,8.31c0,.11,0,.21,0,.32a.86.86,0,0,1-.31-.15.59.59,0,0,1-.14-.28,5,5,0,0,1-.1-1.22q0-4.1,0-8.2l.53,1.22Zm9.75-8.6h.35c.11,0,.19.08.19.17,0,.38,0,.67,0,1s-.12.63-.26.65a2.19,2.19,0,0,0-1.21.38.68.68,0,0,0-.18.32,4.12,4.12,0,0,0-.13,1.06q0,8.09,0,16.18c0,.36.13,1.09-.39,1.08h-1.54c-.46,0-.63-.42-.74-.69h1.43a.65.65,0,0,0,.52-.23.8.8,0,0,0,.16-.34,3.68,3.68,0,0,0,0-.84q0-7.83,0-15.67c0-.38-.06-1.35.21-1.64a1.56,1.56,0,0,1,.73-.25l.38-.06a.48.48,0,0,0,.26-.2.87.87,0,0,0,.11-.23,2.5,2.5,0,0,0,.1-.7Z" transform="translate(-4.18 -5.33)"/><path class="cls-6" d="M104,10.21c-.8.16-1.05,1.53-1.16,2.17a29,29,0,0,0-.3,3.8c-.07,2.13-.07,4.27,0,6.4a20.9,20.9,0,0,0,.31,3c0,.14.06.29.1.44h0a2.59,2.59,0,0,1-.57-1.24,16.76,16.76,0,0,1-.33-2.56C102,20.12,101.94,18,102,16a39.31,39.31,0,0,1,.23-4,9,9,0,0,1,.32-1.61,1.51,1.51,0,0,1,.53-.82.54.54,0,0,1,.24-.06l.13,0a.84.84,0,0,1,.43.41,2.63,2.63,0,0,1,.13.28Zm6.59,9.72a13.66,13.66,0,0,1-1.42,5.66c-1.05,2.06-2.86,4.05-5.37,3.83a4.56,4.56,0,0,1-2.31-.9c-.1-.07-.33-.26-.45-.37a5.42,5.42,0,0,0,1,.43,4.61,4.61,0,0,0,1.83.14,4.81,4.81,0,0,0,2.12-.84,7,7,0,0,0,1.49-1.42,11.3,11.3,0,0,0,1.86-3.59,15.52,15.52,0,0,0,.66-3.48,19.25,19.25,0,0,0-.11-4.16,14.33,14.33,0,0,0-.75-3c-.06-.16-.12-.31-.19-.47a13.22,13.22,0,0,1,1.62,6c0,.75,0,1.5,0,2.25Z" transform="translate(-4.18 -5.33)"/><path class="cls-6" d="M86.51,13a15.39,15.39,0,0,0-.62,2.67c0,.21,0,.54-.34.54H84.39c-.38,0-.4-.35-.38-.69h.78a.74.74,0,0,0,.27-.12.92.92,0,0,0,.27-.56l0-.28a10.41,10.41,0,0,1,1.14-3.63V13ZM89.9,29.11H86.34c-.14,0-.23-.31-.26-.69h6.54c.3,0,.4-.25.49-.52a3.14,3.14,0,0,0,.08-.66l.27,0c.37,0,.34,1.87,0,1.85ZM92.11,12V25.87l-.31-.05a.4.4,0,0,1-.12,0,2.09,2.09,0,0,1-.1-.72V10.87A6.75,6.75,0,0,1,92.11,12Zm3-3.41h.18c.45,0,.36.69.35.89,0,1.11,0,2.16,0,3.22s0,2,0,3.22c0,.19-.15.25-.33.25H94.25c-.29,0-.3-.33-.34-.54l0-.15h.77a.66.66,0,0,0,.3-.11.62.62,0,0,0,.2-.22,1.21,1.21,0,0,0,.11-.55v-.14q-.12-2.89-.12-5.79V8.6Z" transform="translate(-4.18 -5.33)"/><path class="cls-6" d="M76.55,10.13A1.51,1.51,0,0,0,74.46,12a2.49,2.49,0,0,1-.59-1.66,1.2,1.2,0,0,1,.6-.87,1.48,1.48,0,0,1,1.1,0,2.24,2.24,0,0,1,1,.71Zm4.63-1.75c.28,0,.5.08.52.2s-.05,3.23,0,5.74a3.44,3.44,0,0,0,0,.49h0c0,.35,0,.68,0,1s0,.36-.34.37H79.88c-.32,0-.36-.24-.38-.38l-.06-.31h1a.76.76,0,0,0,.62-.23.85.85,0,0,0,.11-.47c-.06-1.75,0-3.51,0-5.26,0-.38,0-.76,0-1.13ZM75,21.24a2,2,0,0,1,.57,1.38,2.38,2.38,0,0,1-1.37,2,1.94,1.94,0,0,0-1.1,1.88,2.08,2.08,0,0,1-.35-.51,1.35,1.35,0,0,1,.1-1.54,2.3,2.3,0,0,1,.66-.56,3.12,3.12,0,0,0,1.35-1.44A2.36,2.36,0,0,0,75,21.24ZM75.75,30a7.23,7.23,0,0,1-4.2-1.58A6.67,6.67,0,0,0,73,29a7.26,7.26,0,0,0,2.2.27,9.67,9.67,0,0,0,3.13-.6,7.36,7.36,0,0,0,2.28-1.5,6.16,6.16,0,0,0,1.64-3.82,7.65,7.65,0,0,0-.11-1.9,7.28,7.28,0,0,0-.37-1.35,7,7,0,0,1,.66,1.41,7.15,7.15,0,0,1,.14,4.11c-.89,3-3.65,4.34-6.82,4.34Z" transform="translate(-4.18 -5.33)"/><path class="cls-7" d="M34.16,35.7A2,2,0,0,1,33.5,37a2.08,2.08,0,0,1-1.4.47,2.17,2.17,0,0,1-1.66-.67A2.48,2.48,0,0,1,29.8,35a2.54,2.54,0,0,1,.64-1.82,2.26,2.26,0,0,1,1.72-.68,2.11,2.11,0,0,1,1.39.45,1.75,1.75,0,0,1,.62,1.23H33a.86.86,0,0,0-.31-.51,1,1,0,0,0-.61-.17.94.94,0,0,0-.8.4,2.18,2.18,0,0,0,0,2.16.91.91,0,0,0,.78.38,1,1,0,0,0,.65-.2.89.89,0,0,0,.3-.57Z" transform="translate(-4.18 -5.33)"/><path class="cls-7" d="M43.1,34.66H44a.86.86,0,0,0,.53-.13.51.51,0,0,0,.17-.43.45.45,0,0,0-.17-.38.84.84,0,0,0-.51-.13H43.1v1.07Zm-1.2,2.68V32.65h2.25a2.19,2.19,0,0,1,1.31.32,1.16,1.16,0,0,1,.42,1,1.22,1.22,0,0,1-.18.68,1.36,1.36,0,0,1-.56.47.86.86,0,0,1,.44.32,1.55,1.55,0,0,1,.15.71c0,.09,0,.22,0,.38,0,.38.08.6.19.66v.16H44.69a2.23,2.23,0,0,1-.11-.68q0-.43,0-.55a.57.57,0,0,0-.19-.4.72.72,0,0,0-.47-.13h-.8v1.76Z" transform="translate(-4.18 -5.33)"/><polygon class="cls-7" points="49.58 32.02 49.58 27.32 53.15 27.32 53.15 28.29 50.78 28.29 50.78 29.11 52.95 29.11 52.95 30.05 50.78 30.05 50.78 31.06 53.23 31.06 53.23 32.02 49.58 32.02 49.58 32.02 49.58 32.02"/><path class="cls-7" d="M66.52,35.51h1L67,33.89l-.5,1.62Zm-.11-2.86h1.31l1.66,4.69H68.08l-.29-.86H66.23l-.27.86H64.72l1.69-4.69Z" transform="translate(-4.18 -5.33)"/><path class="cls-7" d="M76.89,37.34V32.65h1.65l.62,2.28c.06.2.11.4.15.59s.08.38.12.55q.06-.29.14-.6c.05-.21.11-.43.17-.67l.58-2.15H82v4.69h-1.1V35.26c0-.15,0-.35,0-.62s0-.57,0-.92L80,37.34H78.83L78,33.73c0,.42,0,.79,0,1.12s0,.59,0,.78v1.71Z" transform="translate(-4.18 -5.33)"/><polygon class="cls-7" points="85.79 32.02 85.79 27.32 89.35 27.32 89.35 28.29 86.99 28.29 86.99 29.11 89.15 29.11 89.15 30.05 86.99 30.05 86.99 31.06 89.43 31.06 89.43 32.02 85.79 32.02 85.79 32.02 85.79 32.02"/><path class="cls-7" d="M102.57,34.66h.89a.87.87,0,0,0,.53-.13.51.51,0,0,0,.17-.43.45.45,0,0,0-.17-.38.84.84,0,0,0-.51-.13h-.93v1.07Zm-1.2,2.68V32.65h2.25a2.19,2.19,0,0,1,1.31.32,1.15,1.15,0,0,1,.42,1,1.22,1.22,0,0,1-.18.68,1.36,1.36,0,0,1-.56.47.86.86,0,0,1,.44.32,1.54,1.54,0,0,1,.15.71c0,.09,0,.22,0,.38,0,.38.08.6.19.66v.16h-1.26a2.22,2.22,0,0,1-.11-.68c0-.29,0-.47,0-.55a.57.57,0,0,0-.19-.4.72.72,0,0,0-.47-.13h-.8v1.76Z" transform="translate(-4.18 -5.33)"/><polygon class="cls-7" points="110.15 32.02 110.15 30.25 108.53 27.32 109.87 27.32 110.74 29.21 111.6 27.32 112.95 27.32 111.32 30.25 111.32 32.02 110.15 32.02 110.15 32.02 110.15 32.02"/><path class="cls-6" d="M119.88,39.06a4.06,4.06,0,0,0,0-8.11H27.06a4.06,4.06,0,1,0,0,8.11Zm0,.52a4.58,4.58,0,0,0,0-9.15H27.06a4.58,4.58,0,1,0,0,9.15Z" transform="translate(-4.18 -5.33)"/><path class="cls-7" d="M133.24,21.29q0,4.54,0,9.07c0,.33,0,.75.35.89,2.32.64,4.74-2.58,5.27-4.36.12-.4.19-.62.3-1a.48.48,0,0,1,.56-.46h1.18c.41,0,.38.43.38.64,0,2.53-.1,3.54-.13,6.07,0,1.06.13,1.37-1,1.37H126.66c-.52,0-.41-2.07,0-2.11a2.57,2.57,0,0,0,1.22-.32,1.43,1.43,0,0,0,.24-1q0-9.61,0-19.22a1.44,1.44,0,0,0-1.45-1.41c-.35,0-.43-1.83,0-1.88h13.69c.46,0,.6.3.61.73,0,2.53.07,3.33.11,5.86,0,.21,0,.64-.38.64H139.5a.51.51,0,0,1-.58-.47A6.38,6.38,0,0,0,135.75,10a4.79,4.79,0,0,0-2.08-.21c-.54.11-.42.79-.43,1.23v7.78A3.27,3.27,0,0,0,135.67,16l.1-.64c0-.1.05-.28.59-.29h1.15c.41,0,.39.35.39.52v8.87c0,.17,0,.5-.39.52h-1.15c-.53,0-.57-.19-.59-.29l-.1-.64a3.27,3.27,0,0,0-2.44-2.78Z" transform="translate(-4.18 -5.33)"/><path class="cls-7" d="M114.25,14.43q0,5,0,10.06a3.49,3.49,0,0,0,.18,1.2.75.75,0,0,0,.4.37,4.28,4.28,0,0,0,.94.22c.41.1.43,1.78,0,1.8h-5.2c-.52,0-.52-1.67,0-1.82a2.48,2.48,0,0,0,1.15-.33.65.65,0,0,0,.19-.28,4.31,4.31,0,0,0,.15-1.31q0-7.09,0-14.17c0-.13,0-.38-.15-.46a1.11,1.11,0,0,0-.25-.1,7.83,7.83,0,0,0-1.15-.17c-.45,0-.52-1.82,0-1.86h4.66a1.18,1.18,0,0,1,1.21.85L120.55,18q0-3.41,0-6.82a3.94,3.94,0,0,0-.15-1.14.62.62,0,0,0-.34-.37,3.91,3.91,0,0,0-1-.24c-.37,0-.45-1.82,0-1.83h5.2c.37,0,.35,1.85,0,1.83a2.47,2.47,0,0,0-1.21.38.74.74,0,0,0-.18.32,4.09,4.09,0,0,0-.13,1.06q0,8.09,0,16.18c0,.36.13,1.09-.39,1.08h-1.54c-.5,0-.66-.51-.77-.77l-5.8-13.23Z" transform="translate(-4.18 -5.33)"/><path class="cls-7" d="M109.75,17.84a14.89,14.89,0,0,1-1.45,6.73c-1.05,2.06-2.86,4.05-5.37,3.83-2.91-.26-4.71-3.37-5.46-5.87a17.29,17.29,0,0,1-.41-7.62,11.1,11.1,0,0,1,3.14-6.41,4.52,4.52,0,0,1,6.08-.08A8.62,8.62,0,0,1,108,10.61a14.32,14.32,0,0,1,1.71,7.23ZM103.3,9.17c-.94,0-1.22,1.51-1.33,2.19a29,29,0,0,0-.3,3.8c-.06,2.13-.06,4.27,0,6.4a20.9,20.9,0,0,0,.31,3,3.24,3.24,0,0,0,.72,1.68.79.79,0,0,0,1.19-.08,3.9,3.9,0,0,0,.69-1.88,29.06,29.06,0,0,0,.31-4c.06-2.13.05-4.27-.06-6.4a19.25,19.25,0,0,0-.33-2.93c-.13-.61-.43-1.77-1.24-1.78Z" transform="translate(-4.18 -5.33)"/><path class="cls-7" d="M89,28.09H85.48c-.34,0-.37-1.83,0-1.85a6.7,6.7,0,0,0,.89-.11.48.48,0,0,0,.32-.21,2.49,2.49,0,0,0,.14-.91V9.88A9,9,0,0,0,85,14.61c0,.21,0,.54-.34.54H83.53c-.38,0-.4-.35-.38-.69.09-2,.13-3.92.12-6,0-.19-.1-.88.36-.88H94.45c.45,0,.36.69.36.88,0,2.08,0,4,.12,6,0,.34,0,.69-.38.69H93.39c-.29,0-.3-.33-.34-.54a9,9,0,0,0-1.81-4.73V25a2.49,2.49,0,0,0,.14.91.48.48,0,0,0,.32.21,6.71,6.71,0,0,0,.89.11c.37,0,.34,1.86,0,1.85Z" transform="translate(-4.18 -5.33)"/><path class="cls-7" d="M74.89,29c-3.35,0-6-2.6-6-5.39,0-1.71,1.31-4,3.43-4.13a2.27,2.27,0,0,1,2.44,2.13,2.38,2.38,0,0,1-1.37,2,1.88,1.88,0,0,0-1.06,2.07c.73,2.6,4.65,2.48,6-.08.91-1.69-.84-3.46-2-4.62s-2.55-2.27-3.75-3.44A9,9,0,0,1,70.63,15a6,6,0,0,1-.18-4.76,5.12,5.12,0,0,1,4-3.13,5.71,5.71,0,0,1,3,.56,3.45,3.45,0,0,0,.72.24c.45,0,.66,0,.86-.33s1.72-.32,1.8,0-.1,4.62,0,7.23c0,.23,0,.36-.34.37H79c-.32,0-.36-.24-.38-.38-.3-1.64-1.07-5-2.92-5.66a1.7,1.7,0,0,0-1.56.1c-1.12.87-.53,2.2.13,3A21.78,21.78,0,0,0,77,15c.85.75,1.7,1.48,2.48,2.3a8.93,8.93,0,0,1,2.09,3.25,7.22,7.22,0,0,1,.14,4.11c-.89,3-3.65,4.34-6.82,4.34Z" transform="translate(-4.18 -5.33)"/><path class="cls-8" d="M146.16,37a1.22,1.22,0,0,1,.9.35,1.29,1.29,0,0,1,.35.93,1.27,1.27,0,0,1-.36.93,1.29,1.29,0,0,1-1.8,0,1.38,1.38,0,0,1,0-1.85,1.21,1.21,0,0,1,.9-.35Zm0,.3a.82.82,0,0,0-.65.28,1.12,1.12,0,0,0,0,1.4.84.84,0,0,0,.68.29.86.86,0,0,0,.57-.25,1,1,0,0,0,.29-.75,1,1,0,0,0-.25-.7.84.84,0,0,0-.65-.29Zm-.5.29h.49q.56,0,.56.42t-.32.36l.34.61h-.34l-.31-.58H146V39h-.29V37.57Zm.29.23v.34h.24a.31.31,0,0,0,.16,0,.16.16,0,0,0,.06-.14.14.14,0,0,0-.08-.14l-.18,0Z" transform="translate(-4.18 -5.33)"/></svg>