<svg id="Layer_1" data-name="Layer 1" xmlns="http://www.w3.org/2000/svg" viewBox="0 0 124.83 75.32"><defs><style>.cls-1{fill:#ef3e42;}</style></defs><title>Cub_Foods</title><path class="cls-1" d="M41.57,3.59c2.84,0,4.78,2.08,4.78,5.12,0,2.72-.6,5.35-.6,8.07,0,2.16.6,4.32.6,6.47,0,3.68-3.21,5.52-6.28,5.52-4,0-5.91-2-5.68-6.32.07-2.31.15-3.43-1.35-5.27a8,8,0,0,0-6.35-2.48c-9.35,0-10.39,10-10.39,17.74,0,8.23,1,17.26,10.76,17.26,2,0,4.26-.32,5.75-1.84,1.8-1.76,1.87-3.52,1.87-5.92-.08-1.83-.15-3.28,1-4.87a5.2,5.2,0,0,1,4.56-2.23c4.86,0,7,3.75,7,8.55,0,12.07-10.69,17.66-20.7,17.66-6.8,0-13.38-2.08-18.17-7.59C3.89,48.27,2,39.56,2,32.61c0-6.32,1.27-14.47,4.56-19.82A20.52,20.52,0,0,1,24,3.27,16.4,16.4,0,0,1,36.93,8.95a4.48,4.48,0,0,1,4.64-5.35" transform="translate(-1.95 -3.27)"/><path class="cls-1" d="M48.74,33.4c0-1,.3-5.59-1.35-5.59-.74,0-1.49.56-2.47.56-2.46,0-3.28-2.16-3.28-4.56,0-3,1.27-5.51,6.87-5.51,1.42.08,3.06.8,4.71.8s3.44-.72,5.3-.8c2.47,0,1.95,2.39,1.95,4.39v19c0,1.68,0,4.47.9,6.07a4.89,4.89,0,0,0,4.18,2.48,6.32,6.32,0,0,0,5.38-3.2c1.57-2.55,1.72-5.28,1.72-8.23V33.4c0-1,.3-5.59-1.35-5.59-.74,0-1.49.56-2.47.56-2.46,0-3.29-2.16-3.29-4.56,0-3,1.27-5.51,6.43-5.51,1.42.08,3.07.8,4.71.8s3.44-.72,5.31-.8c2.62,0,2.39,1.84,2.39,3.92V44.91c0,1-.3,5.6,1.35,5.6.75,0,1.5-.56,2.46-.56,2.47,0,3.29,2.16,3.29,4.56,0,3-1.27,5.51-4.41,5.51-1.86-.07-3.59-.79-5.3-.79s-3.29.72-4.71.79c-2.84-.07-2.69-2.55-2.69-4.23v-1.6A16.21,16.21,0,0,1,61.07,61c-3.81,0-8.22-1.52-10.47-5s-1.87-8.15-1.87-12.14" transform="translate(-1.95 -3.27)"/><path class="cls-1" d="M101.43,39.4c0,4.64,1.2,10.87,6.58,10.87,5.15,0,6.13-6.79,6.13-11,0-2.72-.22-5.68-1.5-8-1-1.76-2.61-3.35-4.56-3.35-5,0-6.65,7.11-6.65,11.5M89.09,19.66c0-1,.3-5.67-1.34-5.67-.75,0-1.5.56-2.47.56C82.81,14.54,82,12.39,82,10c0-3.12,1.27-5.6,4.41-5.6,1.94,0,4,.8,6,.8,2.24,0,4.41-.8,6.58-.8a2.45,2.45,0,0,1,2,1.12c.6.8.45,2.48.45,3.2V22.45a12.31,12.31,0,0,1,10.46-5.35c10.77,0,14.57,11.67,14.57,21.42,0,10.95-4.79,22.53-16.44,22.53-4.93,0-9.42-1.92-12.19-7.35l.23,2.16c0,2.56-2,3.76-4.19,3.76-4,0-4.78-2-4.78-5.83Z" transform="translate(-1.95 -3.27)"/><path class="cls-1" d="M41.57,3.59c2.84,0,4.78,2.08,4.78,5.12,0,2.72-.6,5.35-.6,8.07,0,2.16.6,4.32.6,6.47,0,3.68-3.21,5.52-6.28,5.52-4,0-5.91-2-5.68-6.32.07-2.31.15-3.43-1.35-5.27a8,8,0,0,0-6.35-2.48c-9.35,0-10.39,10-10.39,17.74,0,8.23,1,17.26,10.76,17.26,2,0,4.26-.32,5.75-1.84,1.8-1.76,1.87-3.52,1.87-5.92-.08-1.83-.15-3.28,1-4.87a5.2,5.2,0,0,1,4.56-2.23c4.86,0,7,3.75,7,8.55,0,12.07-10.69,17.66-20.7,17.66-6.8,0-13.38-2.08-18.17-7.59C3.89,48.27,2,39.56,2,32.61c0-6.32,1.27-14.47,4.56-19.82A20.52,20.52,0,0,1,24,3.27,16.4,16.4,0,0,1,36.93,8.95a4.48,4.48,0,0,1,4.64-5.35" transform="translate(-1.95 -3.27)"/><path class="cls-1" d="M48.74,33.4c0-1,.3-5.59-1.35-5.59-.74,0-1.49.56-2.47.56-2.46,0-3.28-2.16-3.28-4.56,0-3,1.27-5.51,6.87-5.51,1.42.08,3.06.8,4.71.8s3.44-.72,5.3-.8c2.47,0,1.95,2.39,1.95,4.39v19c0,1.68,0,4.47.9,6.07a4.89,4.89,0,0,0,4.18,2.48,6.32,6.32,0,0,0,5.38-3.2c1.57-2.55,1.72-5.28,1.72-8.23V33.4c0-1,.3-5.59-1.35-5.59-.74,0-1.49.56-2.47.56-2.46,0-3.29-2.16-3.29-4.56,0-3,1.27-5.51,6.43-5.51,1.42.08,3.07.8,4.71.8s3.44-.72,5.31-.8c2.62,0,2.39,1.84,2.39,3.92V44.91c0,1-.3,5.6,1.35,5.6.75,0,1.5-.56,2.46-.56,2.47,0,3.29,2.16,3.29,4.56,0,3-1.27,5.51-4.41,5.51-1.86-.07-3.59-.79-5.3-.79s-3.29.72-4.71.79c-2.84-.07-2.69-2.55-2.69-4.23v-1.6A16.21,16.21,0,0,1,61.07,61c-3.81,0-8.22-1.52-10.47-5s-1.87-8.15-1.87-12.14" transform="translate(-1.95 -3.27)"/><path class="cls-1" d="M101.43,39.4c0,4.64,1.2,10.87,6.58,10.87,5.15,0,6.13-6.79,6.13-11,0-2.72-.22-5.68-1.5-8-1-1.76-2.61-3.35-4.56-3.35-5,0-6.65,7.11-6.65,11.5M89.09,19.66c0-1,.3-5.67-1.34-5.67-.75,0-1.5.56-2.47.56C82.81,14.54,82,12.39,82,10c0-3.12,1.27-5.6,4.41-5.6,1.94,0,4,.8,6,.8,2.24,0,4.41-.8,6.58-.8a2.45,2.45,0,0,1,2,1.12c.6.8.45,2.48.45,3.2V22.45a12.31,12.31,0,0,1,10.46-5.35c10.77,0,14.57,11.67,14.57,21.42,0,10.95-4.79,22.53-16.44,22.53-4.93,0-9.42-1.92-12.19-7.35l.23,2.16c0,2.56-2,3.76-4.19,3.76-4,0-4.78-2-4.78-5.83Z" transform="translate(-1.95 -3.27)"/><path class="cls-1" d="M55.28,68.82c0-1.19-.08-1.61-.5-1.61s-.59.14-.89.14c-.67,0-1-.74-1-1.33,0-.85.5-1.51,1.77-1.51,1,0,1.84.2,3,.2,2.8,0,4.94-.2,7.63-.2.62,0,1,.24,1,.89s-.16,1.27-.16,1.93.16,1.23.16,1.84a1.52,1.52,0,0,1-1.51,1.67c-1,0-1.51-.7-1.51-1.67,0-.48.12-.91.12-1.39S63,67.11,62,67.11H60.43c-1.23,0-1.47.12-1.47,1v1c0,.73.16.83.4.83.58,0,1,0,1-.59,0-.24,0-.46,0-.69,0-.54.32-.78,1.09-.78s1,.36,1,1.06-.16,1.19-.16,2,.16,1.55.16,2.38c0,.64-.3,1.13-1,1.13s-1.05-.43-1.05-1.15v-.41c0-.48-.4-.54-.78-.54-.54,0-.62.2-.62.72v1.41c0,.91.2,1.17.52,1.17s.6-.14.89-.14c.66,0,1,.74,1,1.33A1.37,1.37,0,0,1,60,78.33c-1,0-1.57-.2-2.72-.2s-2,.2-3,.2a1.37,1.37,0,0,1-1.39-1.51c0-.59.36-1.33,1-1.33.3,0,.58.14.89.14s.5-.36.5-1.61" transform="translate(-1.95 -3.27)"/><path class="cls-1" d="M73.86,64.23a6.16,6.16,0,0,0-4.95,2.21,8.43,8.43,0,0,0-1.4,4.92,8.54,8.54,0,0,0,1.58,5.25A6.91,6.91,0,0,0,79,76.36a8.65,8.65,0,0,0,1.41-5,8.23,8.23,0,0,0-1.67-5.19,6.07,6.07,0,0,0-4.9-2M74,75.73c-1.81,0-2.64-1.21-2.64-4.33,0-3.55,1.23-4.31,2.68-4.31,1.73,0,2.6,1.23,2.6,4.43,0,2.92-.83,4.21-2.64,4.21" transform="translate(-1.95 -3.27)"/><path class="cls-1" d="M88.16,64.23a6.16,6.16,0,0,0-4.95,2.21,8.44,8.44,0,0,0-1.39,4.92,8.56,8.56,0,0,0,1.57,5.25,6.91,6.91,0,0,0,9.93-.24,8.62,8.62,0,0,0,1.41-5,8.25,8.25,0,0,0-1.67-5.19,6.08,6.08,0,0,0-4.91-2m.12,11.5c-1.8,0-2.64-1.21-2.64-4.33,0-3.55,1.23-4.31,2.68-4.31,1.73,0,2.61,1.23,2.61,4.43,0,2.92-.84,4.21-2.64,4.21" transform="translate(-1.95 -3.27)"/><path class="cls-1" d="M98.19,74c0,1.13-.08,1.61-.5,1.61s-.6-.14-.89-.14c-.68,0-1,.74-1,1.33a1.4,1.4,0,0,0,1.51,1.51c.92,0,1.63-.2,2.7-.2,1.27,0,2.23.2,3.7.2a5.28,5.28,0,0,0,4.59-2.22,8.21,8.21,0,0,0,1.45-4.69,8,8,0,0,0-1.61-4.89,5.39,5.39,0,0,0-4.55-2c-1.07,0-2,.2-3.69.2-1,0-1.75-.2-2.7-.2A1.37,1.37,0,0,0,95.76,66c0,.59.36,1.33,1,1.33.3,0,.58-.14.89-.14s.5.2.5,1.61m3.67-.37c0-1.11.1-1.33,1.08-1.33A2.69,2.69,0,0,1,105,68.24a5.08,5.08,0,0,1,.89,3.06,6,6,0,0,1-.76,3.1,2.72,2.72,0,0,1-2.22,1.33,1.72,1.72,0,0,1-.82-.18.63.63,0,0,1-.26-.62Z" transform="translate(-1.95 -3.27)"/><path class="cls-1" d="M119,65.66l0,0c0-.82.31-1.2,1.2-1.2s1.27.34,1.27,1.13c0,.62-.12,1.05-.12,1.59s.12.71.12,1.25a1.24,1.24,0,0,1-1.41,1.31c-1,0-1.35-.68-1.51-1.43s-.83-1.34-2.28-1.34a1.35,1.35,0,0,0-1.51,1.23c0,.62.28,1.05,2.17,1.39,2.42.44,4.9,1.39,4.9,4.29a4.69,4.69,0,0,1-5,4.73,5.27,5.27,0,0,1-3.5-1.31,1.09,1.09,0,0,1-1.21,1.14,1.15,1.15,0,0,1-1.27-1.27c0-.63.08-1.27.08-1.93,0-.48-.08-.93-.08-1.41,0-.88.86-1.21,1.61-1.21.94,0,1.39.62,1.55,1.63.1.59.53,1.55,2.3,1.55,1,0,1.93-.4,1.93-1.49a1.11,1.11,0,0,0-.68-1.12,13.46,13.46,0,0,0-1.95-.59,7.43,7.43,0,0,1-3-1.13,3.48,3.48,0,0,1-1.47-3c0-2.64,2-4.21,4.55-4.21A3.93,3.93,0,0,1,119,65.66" transform="translate(-1.95 -3.27)"/><path class="cls-1" d="M124,59.16v-.82h.55c.29,0,.59.06.59.39s-.31.43-.65.43m-.49.34h.47l.71,1.16h.45l-.76-1.18a.7.7,0,0,0,.69-.74c0-.52-.31-.76-.94-.76h-1v2.67h.4Zm.49,2.14a2.32,2.32,0,1,0-2.35-2.33,2.32,2.32,0,0,0,2.35,2.33m-1.89-2.33a1.88,1.88,0,1,1,1.89,1.93,1.88,1.88,0,0,1-1.89-1.93" transform="translate(-1.95 -3.27)"/></svg>