<svg xmlns="http://www.w3.org/2000/svg" xmlns:xlink="http://www.w3.org/1999/xlink" data-name="Layer 1" width="270" height="270"><rect id="backgroundrect" width="100%" height="100%" x="0" y="0" fill="none" stroke="none"/><defs><style>.cls-1{fill:url(#linear-gradient);}.cls-2{fill:url(#linear-gradient-2);}.cls-3{fill:url(#linear-gradient-3);}.cls-4,.cls-6{fill:#a6377d;}.cls-4{opacity:0.35;}.cls-5{fill:#3d2f38;}.cls-10,.cls-6{opacity:0.73;}.cls-20,.cls-7{fill:#fff;}.cls-7{opacity:0.64;}.cls-8{opacity:0.65;fill:url(#linear-gradient-4);}.cls-9{fill:#858585;}.cls-10{fill:#802a60;}.cls-11,.cls-12{opacity:0.23;}.cls-12{fill:#e0329e;}.cls-13{fill:#731a1a;opacity:0.49;}.cls-14{fill:url(#linear-gradient-5);}.cls-15,.cls-16,.cls-17,.cls-18,.cls-19,.cls-22{fill:none;}.cls-15,.cls-20{stroke:#3f1f08;}.cls-15,.cls-16,.cls-17,.cls-18,.cls-19,.cls-20,.cls-22{stroke-miterlimit:10;}.cls-15,.cls-22{stroke-width:1.00634px;}.cls-16,.cls-17{stroke:#9e7058;}.cls-16,.cls-17,.cls-18,.cls-19{stroke-width:0.9039px;}.cls-17,.cls-19{stroke-dasharray:6.04661 2.01554;}.cls-18,.cls-19{stroke:#623e28;}.cls-20{stroke-width:0.92071px;}.cls-21{opacity:0.08;}.cls-22{stroke:#fff;}.cls-23{opacity:0.14;}.cls-24{opacity:0.38;fill:url(#linear-gradient-6);}</style><linearGradient id="linear-gradient" x1="104.8819580078125" y1="241.8885040283203" x2="104.18428039550781" y2="270.6763000488281" gradientTransform="translate(60.93638 -217.79354) rotate(12.39591)" gradientUnits="userSpaceOnUse"><stop offset="0.00033" stop-color="#545454"/><stop offset="0.9993" stop-color="#171717"/></linearGradient><linearGradient id="linear-gradient-2" x1="133.5634002685547" y1="263.24609375" x2="128.10597229003906" y2="303.7292175292969" gradientTransform="translate(60.93638 -217.79354) rotate(12.39591)" gradientUnits="userSpaceOnUse"><stop offset="0.00033" stop-color="#545454"/><stop offset="1" stop-color="#141414"/></linearGradient><linearGradient id="linear-gradient-3" x1="65.28436279296875" y1="171.03546142578125" x2="102.69551849365234" y2="185.44720458984375" gradientTransform="matrix(0.99704, 0.07682, -0.07682, 0.99704, 23.38115, -117.45602)" gradientUnits="userSpaceOnUse"><stop offset="0" stop-color="#96757e"/><stop offset="0.03203" stop-color="#927980"/><stop offset="0.15285" stop-color="#878285"/><stop offset="0.28508" stop-color="#838587"/><stop offset="0.9993" stop-color="#595959"/></linearGradient><linearGradient id="linear-gradient-4" x1="75.11630249023438" y1="176.77401733398438" x2="102.51647186279297" y2="176.77401733398438" gradientTransform="matrix(0.99725, 0.07409, -0.07409, 0.99725, 22.62647, -114.73157)" gradientUnits="userSpaceOnUse"><stop offset="0.02851" stop-color="#838587" stop-opacity="0.3"/><stop offset="0.9993" stop-color="#424242"/></linearGradient><linearGradient id="linear-gradient-5" x1="134.5018310546875" y1="94.52945709228516" x2="134.5018310546875" y2="230.17893981933594" gradientUnits="userSpaceOnUse"><stop offset="0.03745" stop-color="#a46f46"/><stop offset="0.11323" stop-color="#8e603d"/><stop offset="0.64286" stop-color="#854e36"/><stop offset="0.8112" stop-color="#824733"/><stop offset="0.89094" stop-color="#814934"/><stop offset="0.91963" stop-color="#7e5039"/><stop offset="0.927" stop-color="#7c533b"/><stop offset="0.99965" stop-color="#593c2b"/></linearGradient><linearGradient id="linear-gradient-6" x1="132.0274200439453" y1="264.5374755859375" x2="132.54188537597656" y2="229.91900634765625" gradientUnits="userSpaceOnUse"><stop offset="0" stop-color="#a46f46" stop-opacity="0"/><stop offset="0.21825" stop-color="#a16d45" stop-opacity="0.04298"/><stop offset="0.42813" stop-color="#976641" stop-opacity="0.17315"/><stop offset="0.63466" stop-color="#875b3b" stop-opacity="0.39082"/><stop offset="0.83784" stop-color="#704c33" stop-opacity="0.69409"/><stop offset="0.99965" stop-color="#593c2b"/></linearGradient></defs><title>aap_icon</title><g class="currentLayer"><title>Layer 1</title><rect width="270" height="270" id="svg_1" class="selected" fill="none"/><path class="cls-1" d="M112.53366,71.58545 a8.62157,8.62157 0 0 0 6.99422,-2.37916 c2.4687200000000002,-2.65693 2.34194,-6.7346200000000005 2.0641,-10.35079 c-0.58043,-7.55466 -2.21006,-14.45039 -9.104190000000001,-18.68068 c-4.8171,-2.95581 -9.754,-3.1224600000000002 -13.51535,1.47388 C89.81455,52.83948 98.842,70.504 112.53366,71.58545 z" id="svg_2"/><path class="cls-2" d="M92.46485,98.30584 s25.45663,-47.90907 76.18395,-59.87567 c24.75367,-5.83941 -32.24051,91.3756 -32.24051,91.3756 z" id="svg_3"/><path class="cls-3" d="M88.47068,50.403 a16.25773,16.25773 0 0 0 -5.285,0.34313000000000005 c-4.93067,1.29146 -8.47289,6.22736 -8.72442,11.31815 a16.048,16.048 0 0 0 6.53291,13.16622 c6.4512,4.90685 31.80289,8.45861 32.89395,-3.08163 C114.93195,61.10755 97.45,51.04951 88.47068,50.403 z" id="svg_4"/><circle class="cls-4" cx="170.86185836791992" cy="248.4515838623047" r="5.80679988861084" transform="rotate(-77.60408782958984 39.039760589599595,181.4038848876953) " id="svg_5"/><circle cx="170.86185836791992" cy="248.4515838623047" r="4.528510093688965" transform="rotate(-77.60408782958984 39.039760589599595,181.4038848876953) " id="svg_6"/><path class="cls-5" d="M133.75707,63.30806 c-0.014680000000000002,-0.003390000000000001 -0.02730000000000001,-0.010550000000000002 -0.04207000000000001,-0.013800000000000003 c-0.025000000000000005,-0.005500000000000001 -0.04969000000000001,-0.003740000000000001 -0.07475000000000001,-0.008710000000000002 C133.67919,63.29292 133.718,63.30017 133.75707,63.30806 z" id="svg_7"/><path class="cls-5" d="M132.80484,68.43366 a7.30728,7.30728 0 0 1 -3.7207600000000003,-1.8978900000000003 a3.83906,3.83906 0 0 0 7.38849,1.90945 A7.90711,7.90711 0 0 1 132.80484,68.43366 z" id="svg_8"/><ellipse class="cls-6" cx="163.9649362564087" cy="86.654541015625" rx="5.469729900360107" ry="3.0994999408721924" transform="rotate(-15.090579986572266 -4.009779930114792,45.162361145019524) " id="svg_9"/><ellipse class="cls-7" cx="175.39375686645508" cy="243.2524185180664" rx="0.8038899898529053" ry="1.2579200267791748" transform="rotate(-77.60408782958984 42.844120025634766,179.51487731933594) " id="svg_10"/><path class="cls-8" d="M105.4809,65.74577 c-0.6971200000000002,-0.52466 -1.24149,-0.91943 -1.49464,-1.10654 c-4.63549,-3.4262 -12.794740000000001,-7.1879 -18.09634,-3.2597 c-0.23690000000000003,0.17553000000000002 0.7546000000000002,5.24138 0.8815400000000001,5.72634 a12.76375,12.76375 0 0 0 3.01865,5.6278500000000005 a10.85963,10.85963 0 0 0 8.00664,3.1575100000000003 a54.89094,54.89094 0 0 0 10.91855,-1.6324800000000002 c0.50582,-0.10700000000000001 3.5785,-0.38113 3.75726,-1.26745 C112.78367,71.44876 108.07487,67.698 105.4809,65.74577 z" id="svg_11"/><circle class="cls-9" cx="234.33914184570312" cy="245.55033493041992" r="1.192139983177185" transform="rotate(-77.60408782958984 75.83615112304688,194.7237548828125) " id="svg_12"/><circle class="cls-9" cx="243.8887939453125" cy="250.65604782104492" r="1.192139983177185" transform="rotate(-77.60408782958984 80.0648193359375,199.8805694580078) " id="svg_13"/><circle class="cls-9" cx="157.20263004302979" cy="152.50429916381836" r="1.192139983177185" transform="rotate(-32.60409164428711 -4.10809993743901,95.84751892089842) " id="svg_14"/><path class="cls-10" d="M166.47022,44.00982 a0.8289400000000001,0.8289400000000001 0 0 0 0.269,-0.90827 c-0.04633000000000002,-0.13109 -0.126,-0.24884000000000003 -0.16791000000000006,-0.3814100000000001 a0.94632,0.94632 0 0 1 0.785,-1.10394 a1.99981,1.99981 0 0 1 1.43526,0.40687000000000006 a11.174,11.174 0 0 0 1.26627,0.8563700000000001 a1.99161,1.99161 0 0 0 1.417,0.15513000000000002 a1.36783,1.36783 0 0 0 0.96081,-1.00091 a1.0485,1.0485 0 0 0 -0.6395400000000001,-1.17285 c-0.12038,-0.44215000000000004 0.35351000000000005,-0.8407500000000001 0.8067000000000001,-0.9086000000000001 a1.6758100000000002,1.6758100000000002 0 0 1 1.5816500000000002,0.6862200000000002 a0.25967,0.25967 0 0 1 0.029070000000000006,0.22900000000000004 a5.30635,5.30635 0 0 1 -2.74208,2.9098 a10.80679,10.80679 0 0 1 -4.0973,0.936 c-0.6040000000000001,0.038380000000000004 -1.4609100000000002,0.024180000000000004 -1.80384,-0.5458000000000001 A1.35465,1.35465 0 0 0 166.47022,44.00982 z" id="svg_15"/><path class="cls-11" d="M166.81064,72.95662 s-4.36961,8.6747 -20.13149,8.00586 C146.67916,80.96248 161.70607,87.21642 166.81064,72.95662 z" id="svg_16"/><path class="cls-12" d="M163.18763,61.79744 c0.017950000000000008,-0.04900000000000001 0.03857000000000001,-0.09245000000000002 0.05630000000000001,-0.14200000000000002 c0,0 -0.031090000000000007,0.06000000000000001 -0.08970000000000003,0.16028000000000003 z" id="svg_17"/><path class="cls-13" d="M147.41311,81.22911 s9.75379,-1.3158500000000002 11.3988,-2.00989 c0.99349,-0.41916000000000003 2.06547,1.393 2.06547,1.393 S156.19564,83.80973 147.41311,81.22911 z" id="svg_18"/><path class="cls-14" d="M54.70056,92.52169H203.60388a14.0293,14.0293,0,0,1,14.0293,14.0293v109.8094a14.0293,14.0293,0,0,1-14.0293,14.0293H54.70056a3.33008,3.33008,0,0,1-3.33008-3.33008V95.85177A3.33008,3.33008,0,0,1,54.70056,92.52169Z" id="svg_19"/><path class="cls-15" d="M51.37048,101.90926 h149.3656 c4.53747,0 8.21581,4.29293 8.21581,9.58852 V212.06489 c0,5.29559 -3.6783400000000004,9.58852 -8.21581,9.58852 H51.37048 " id="svg_20"/><line class="cls-16" x1="51.28664016723633" y1="101.57380676269531" x2="54.30561828613281" y2="101.57380676269531" id="svg_21"/><path class="cls-17" d="M56.32118,101.57381 H200.65224 c4.53748,0 8.21582,4.2929200000000005 8.21582,9.58852 V211.72945 c0,5.29559 -3.6783400000000004,9.58852 -8.21582,9.58852 H55.31337 " id="svg_22"/><line class="cls-16" x1="54.30561828613281" y1="221.31796264648438" x2="51.28664016723633" y2="221.31796264648438" id="svg_23"/><line class="cls-18" x1="51.37049865722656" y1="102.37049102783203" x2="54.38948059082031" y2="102.37049102783203" id="svg_24"/><path class="cls-19" d="M56.405,102.37049 H200.7361 c4.53748,0 8.21582,4.2929200000000005 8.21582,9.58852 V212.52613 c0,5.29559 -3.6783400000000004,9.58852 -8.21582,9.58852 H55.39723 " id="svg_25"/><line class="cls-18" x1="54.38948059082031" y1="222.11465454101562" x2="51.37049865722656" y2="222.11465454101562" id="svg_26"/><path class="cls-20" d="M59.32763,92.52169 " id="svg_27"/><g class="cls-21" id="svg_28"><line class="cls-22" x1="51.634788513183594" y1="132.17713928222656" x2="134.11705017089844" y2="230.71446228027344" id="svg_29"/><line class="cls-22" x1="51.49440002441406" y1="175.95274353027344" x2="97.33358001708984" y2="230.71446228027344" id="svg_30"/><line class="cls-22" x1="169.537353515625" y1="230.1666717529297" x2="58.05936813354492" y2="92.17732238769531" id="svg_31"/><line class="cls-22" x1="95.15892028808594" y1="92.17732238769531" x2="206.34173583984375" y2="229.81402587890625" id="svg_32"/><line class="cls-22" x1="130.80853271484375" y1="92.17732238769531" x2="216.40321350097656" y2="198.17385864257812" id="svg_33"/><line class="cls-22" x1="167.9080810546875" y1="92.17732238769531" x2="217.40530395507812" y2="153.41009521484375" id="svg_34"/><line class="cls-22" x1="67.92060089111328" y1="230.1271514892578" x2="183.2465057373047" y2="92.35321044921875" id="svg_35"/><line class="cls-22" x1="51.634788513183594" y1="200.77569580078125" x2="142.39158630371094" y2="92.35321044921875" id="svg_36"/><line class="cls-22" x1="52.231468200683594" y1="151.33944702148438" x2="101.60684967041016" y2="92.35321044921875" id="svg_37"/><line class="cls-22" x1="106.23751068115234" y1="230.1271514892578" x2="215.5880889892578" y2="99.49162292480469" id="svg_38"/><line class="cls-22" x1="144.7583770751953" y1="230.1271514892578" x2="217.50926208496094" y2="143.2153778076172" id="svg_39"/><line class="cls-22" x1="182.55093383789062" y1="230.1271514892578" x2="216.46946716308594" y2="189.60641479492188" id="svg_40"/></g><g class="cls-23" id="svg_41"><line class="cls-20" x1="51.634788513183594" y1="132.97381591796875" x2="134.11705017089844" y2="231.51113891601562" id="svg_42"/><line class="cls-20" x1="51.49440002441406" y1="176.74942016601562" x2="97.33358001708984" y2="231.51113891601562" id="svg_43"/><line class="cls-20" x1="169.537353515625" y1="230.96334838867188" x2="58.05936813354492" y2="92.9739990234375" id="svg_44"/><line class="cls-20" x1="95.15892028808594" y1="92.9739990234375" x2="206.34173583984375" y2="230.61070251464844" id="svg_45"/><line class="cls-20" x1="130.80853271484375" y1="92.9739990234375" x2="216.40321350097656" y2="198.9705352783203" id="svg_46"/><line class="cls-20" x1="167.9080810546875" y1="92.9739990234375" x2="217.40530395507812" y2="154.206787109375" id="svg_47"/><line class="cls-20" x1="67.92060089111328" y1="230.923828125" x2="183.2465057373047" y2="93.14988708496094" id="svg_48"/><line class="cls-20" x1="51.634788513183594" y1="201.57237243652344" x2="142.39158630371094" y2="93.14988708496094" id="svg_49"/><line class="cls-20" x1="52.231468200683594" y1="152.13612365722656" x2="101.60684967041016" y2="93.14988708496094" id="svg_50"/><line class="cls-20" x1="106.23751068115234" y1="230.923828125" x2="215.5880889892578" y2="100.28829956054688" id="svg_51"/><line class="cls-20" x1="144.7583770751953" y1="230.923828125" x2="217.50926208496094" y2="144.01205444335938" id="svg_52"/><line class="cls-20" x1="182.55093383789062" y1="230.923828125" x2="216.46946716308594" y2="190.40309143066406" id="svg_53"/></g><path class="cls-24" d="M215.682,257.9174 c0.03687000000000001,-0.4138800000000001 0.06348000000000001,-0.8307500000000001 0.06348000000000001,-1.25415 V242.83976 a14.02935,14.02935 0 0 0 -14.02936,-14.0293 H54.23714 a3.33005,3.33005 0 0 0 -3.33008,3.33008 V257.9174 z" id="svg_54"/></g></svg>