<svg id="Layer_1" data-name="Layer 1" xmlns="http://www.w3.org/2000/svg" viewBox="0 0 187.09 99.7"><defs><style>.cls-1{fill:#fff;}</style></defs><title>CVS_Pharmacy_c93c3b</title><path class="cls-1" d="M25.24,80.29a6.47,6.47,0,0,0-5.75-2.87l-3.12.82-2.46,2.3V77.91H7.75v23.32h6.82V93.67A5.56,5.56,0,0,0,19,95.73a7.69,7.69,0,0,0,5.58-2.05c1.81-1.64,2.63-3.94,2.63-7.14a9.78,9.78,0,0,0-2-6.24Zm-4.93,6.41c0,2.63-.9,3.86-3,3.86-1.81,0-2.79-1.4-2.79-4l.74-2.87a2.52,2.52,0,0,1,1.89-1.07c2.05,0,3.12,1.4,3.12,4.11Z" transform="translate(-1.59 -1.53)"/><path class="cls-1" d="M48.81,84.89c0-5-2.22-7.47-6.73-7.47a6.32,6.32,0,0,0-5.17,2.71V71.5h-7V95.32h7V86.53c0-2.3.82-3.53,2.46-3.53C41.18,83,42,84.06,42,86.12v9.2h6.82V84.89Z" transform="translate(-1.59 -1.53)"/><path class="cls-1" d="M69.18,79.47c-1.23-1.4-3.7-2.05-7.47-2.05-6.16,0-9.36,1.89-9.36,5.83h6.57c.16-1.07.82-1.64,2.38-1.64s2.14.57,2.14,1.56l-1.89,1.23-4.11.66c-4.27.66-6.32,2.46-6.32,5.5a4.9,4.9,0,0,0,2,3.94,7,7,0,0,0,4.35,1.23A9.53,9.53,0,0,0,64,93.51l.25,1.81H71.4v-.25l-1.07-2.38V84.8c0-2.63-.41-4.43-1.15-5.34Zm-5.75,8.21c.33,2.87-.66,4.19-2.87,4.19-1.48,0-2.3-.41-2.3-1.31s.57-1.64,1.81-2l3.37-.9Z" transform="translate(-1.59 -1.53)"/><path class="cls-1" d="M74.27,77.91V95.32H81v-6c0-3.45,1.31-5.09,4.19-5.09l1.56.16v-6.9l-.82-.08c-2.63,0-4.52,1.31-5.5,4.11h-.16V77.91Z" transform="translate(-1.59 -1.53)"/><path class="cls-1" d="M89.3,95.32h6.9V86.69c0-2.46.82-3.7,2.3-3.7a2.07,2.07,0,0,1,1.81.66l.41,2.87v8.79h7V86.69q0-3.7,2.46-3.7l1.72.66.41,2.87v8.79h7V85.05c0-5.09-2.14-7.64-6.65-7.64a6.76,6.76,0,0,0-5.91,3.29c-1-2.22-2.87-3.29-5.75-3.29a6.78,6.78,0,0,0-3.45,1.07l-2.05,2.05V77.91H89.3V95.32Z" transform="translate(-1.59 -1.53)"/><path class="cls-1" d="M139.56,79.47c-1.23-1.4-3.7-2.05-7.39-2.05-6.41,0-9.61,1.89-9.61,5.83h6.73c.16-1.07.82-1.64,2.3-1.64s2.38.57,2.38,1.56c0,.66-.74,1.07-2,1.23l-4.19.66c-4.27.66-6.32,2.46-6.32,5.5a4.56,4.56,0,0,0,2.05,3.94,6.77,6.77,0,0,0,4.27,1.23,9.24,9.24,0,0,0,6.41-2.22l.41,1.81h7v-.25a3.24,3.24,0,0,1-.82-2.38V84.8c0-2.63-.41-4.43-1.23-5.34ZM134,87.68c.08,2.87-.82,4.19-3,4.19-1.48,0-2.22-.41-2.22-1.31s.57-1.64,1.81-2l3.45-.9Z" transform="translate(-1.59 -1.53)"/><path class="cls-1" d="M159.93,79.05a10.22,10.22,0,0,0-6.24-1.64,9.49,9.49,0,0,0-7,2.55,9,9,0,0,0-2.79,6.9,8.48,8.48,0,0,0,2.79,6.65c1.72,1.56,4.11,2.22,7,2.22,5.83,0,9-2.3,9.69-7.14h-7A2.44,2.44,0,0,1,153.69,91c-2,0-2.87-1.31-2.87-4.19,0-3.2.9-4.85,2.87-4.85a2.26,2.26,0,0,1,1.72.74l.82,1.72h7a6.4,6.4,0,0,0-3.29-5.42Z" transform="translate(-1.59 -1.53)"/><path class="cls-1" d="M172,77.91h-7l5.75,15.93v1.89c-.25.41-1,.57-2.05.57l-1.4-.16v4.93l3,.16c2.87,0,4.93-.57,6-1.64l2.63-5.5,5.58-16.18H178l-3,10.68-3-10.68Z" transform="translate(-1.59 -1.53)"/><path class="cls-1" d="M45.36,27.4H65.08c-.82-8.21-3.94-14.45-9.28-19-5.5-4.52-13-6.9-22.59-6.9-9,0-16.43,3-22.34,9C4.71,16.64,1.59,24.69,1.59,34.79c0,10.27,3,18.48,8.87,24.56,6.16,6,14.37,9,24.8,9,8.38,0,15.36-2.38,20.78-7,5.5-4.85,8.62-11.25,9.61-19.3H45.53c-1,7.23-4.35,10.76-10.51,10.76-4.93,0-8.38-1.72-10.27-5.34-1.56-2.71-2.38-6.65-2.38-12,0-6.08,1.15-10.59,3.2-13.72A9.57,9.57,0,0,1,34,17a11.57,11.57,0,0,1,8,2.71c1.89,1.81,3,4.35,3.37,7.64Z" transform="translate(-1.59 -1.53)"/><polygon class="cls-1" points="107.75 1.64 96.34 43.94 85.17 1.64 64.22 1.64 85.82 65.21 106.77 65.21 128.78 1.64 107.75 1.64 107.75 1.64"/><path class="cls-1" d="M140.14,6.62c-5.26,3.53-7.8,8.62-7.8,15.19a16.6,16.6,0,0,0,5.58,13c2.87,2.38,7.15,4.43,12.57,6.08l12.65,3.29c3.7,1.23,5.58,2.87,5.58,4.93a3.77,3.77,0,0,1-2.3,3.37l-6.32,1.23A10.54,10.54,0,0,1,154.18,52a7.07,7.07,0,0,1-3.29-5h-20c.16,6,2.87,11.09,8,15,5.34,4.27,12,6.32,20.12,6.32,9,0,16.1-1.81,21.35-5.5,5.58-3.86,8.3-9.28,8.3-16.43,0-5.34-1.89-9.44-5.75-12.57-2.71-2.38-6.82-4.27-12.4-5.91l-12.65-3.29c-3.78-1.23-5.75-2.87-5.75-4.93,0-2.46,2.22-3.7,6.73-3.7L164,17.3a5.68,5.68,0,0,1,3.2,4.35H187c-.82-6.16-3.29-10.92-7.56-14.37-4.76-3.78-11.25-5.75-19.55-5.75s-14.78,1.64-19.71,5.09Z" transform="translate(-1.59 -1.53)"/></svg>