<?xml version="1.0" encoding="utf-8"?>
<!-- Generator: Adobe Illustrator 21.0.2, SVG Export Plug-In . SVG Version: 6.00 Build 0)  -->
<svg version="1.1" id="Layer_1" xmlns="http://www.w3.org/2000/svg" xmlns:xlink="http://www.w3.org/1999/xlink" x="0px" y="0px"
	 viewBox="0 0 446.4 242.4" style="enable-background:new 0 0 446.4 242.4;" xml:space="preserve">
<style type="text/css">
	.st0{fill:#FFFFFF;}
	.st1{clip-path:url(#SVGID_2_);fill:url(#SVGID_3_);}
	.st2{clip-path:url(#SVGID_5_);fill:url(#SVGID_6_);}
	.st3{fill:#80B098;}
	.st4{fill:#231F20;}
	.st5{fill:none;stroke:#187D6C;stroke-width:2.9674;}
	.st6{fill:none;stroke:#FFFFFF;stroke-width:2.9674;}
	.st7{clip-path:url(#SVGID_8_);}
	.st8{clip-path:url(#SVGID_10_);}
	.st9{fill:none;stroke:#010101;stroke-width:0.6396;}
	.st10{fill:none;stroke:#231F20;stroke-width:1.1927;}
	.st11{clip-path:url(#SVGID_14_);fill:#BDBEBF;}
	.st12{clip-path:url(#SVGID_14_);fill:#BEBFC1;}
	.st13{clip-path:url(#SVGID_14_);fill:#BFC1C3;}
	.st14{clip-path:url(#SVGID_14_);fill:#C0C1C3;}
	.st15{clip-path:url(#SVGID_14_);fill:#C0C2C4;}
	.st16{clip-path:url(#SVGID_14_);fill:#C3C4C6;}
	.st17{clip-path:url(#SVGID_14_);fill:#C5C5C7;}
	.st18{clip-path:url(#SVGID_14_);fill:#C6C6C8;}
	.st19{clip-path:url(#SVGID_14_);fill:#C6C8C9;}
	.st20{clip-path:url(#SVGID_14_);fill:#C7C9CA;}
	.st21{clip-path:url(#SVGID_14_);fill:#C8CACA;}
	.st22{clip-path:url(#SVGID_14_);fill:#CACBCC;}
	.st23{clip-path:url(#SVGID_14_);fill:#CCCDCF;}
	.st24{clip-path:url(#SVGID_14_);fill:#CDCFCF;}
	.st25{clip-path:url(#SVGID_14_);fill:#CFD0D1;}
	.st26{clip-path:url(#SVGID_14_);fill:#D0D1D3;}
	.st27{clip-path:url(#SVGID_14_);fill:#D2D3D4;}
	.st28{clip-path:url(#SVGID_14_);fill:#D4D4D6;}
	.st29{clip-path:url(#SVGID_14_);fill:#D5D6D6;}
	.st30{clip-path:url(#SVGID_14_);fill:#D6D8D8;}
	.st31{clip-path:url(#SVGID_14_);fill:#D6D7D9;}
	.st32{clip-path:url(#SVGID_14_);fill:#D7D8DA;}
	.st33{clip-path:url(#SVGID_14_);fill:#D9DADB;}
	.st34{clip-path:url(#SVGID_14_);fill:#DBDBDD;}
	.st35{clip-path:url(#SVGID_14_);fill:#DBDCDD;}
	.st36{clip-path:url(#SVGID_14_);fill:#DCDDDE;}
	.st37{clip-path:url(#SVGID_14_);fill:#DDE0E0;}
	.st38{clip-path:url(#SVGID_14_);fill:#DFE0E1;}
	.st39{clip-path:url(#SVGID_14_);fill:#E0E1E2;}
	.st40{clip-path:url(#SVGID_14_);fill:#E2E3E4;}
	.st41{clip-path:url(#SVGID_14_);fill:#E3E4E5;}
	.st42{clip-path:url(#SVGID_14_);fill:#E5E6E7;}
	.st43{clip-path:url(#SVGID_14_);fill:#E7E7E7;}
	.st44{clip-path:url(#SVGID_14_);fill:#E8E8E8;}
	.st45{clip-path:url(#SVGID_14_);fill:#E9EAEB;}
	.st46{clip-path:url(#SVGID_14_);fill:#EAEAEC;}
	.st47{clip-path:url(#SVGID_14_);fill:#EBECEB;}
	.st48{clip-path:url(#SVGID_14_);fill:#EEEDEE;}
	.st49{clip-path:url(#SVGID_14_);fill:#EFEFEF;}
	.st50{clip-path:url(#SVGID_14_);fill:#F0F0F0;}
	.st51{clip-path:url(#SVGID_14_);fill:#F2F2F2;}
	.st52{clip-path:url(#SVGID_14_);fill:#F3F2F3;}
	.st53{clip-path:url(#SVGID_14_);fill:#F3F3F3;}
	.st54{clip-path:url(#SVGID_14_);fill:#F4F5F5;}
	.st55{clip-path:url(#SVGID_14_);fill:#F6F6F7;}
	.st56{clip-path:url(#SVGID_14_);fill:#F7F8F9;}
	.st57{clip-path:url(#SVGID_14_);fill:#F8FAFB;}
	.st58{clip-path:url(#SVGID_14_);fill:#FAFAFB;}
	.st59{clip-path:url(#SVGID_14_);fill:#FDFEFF;}
	.st60{clip-path:url(#SVGID_14_);fill:#FFFFFF;}
	.st61{fill:none;stroke:#BEBFC1;stroke-width:1.6977;}
	.st62{fill:none;stroke:#939598;stroke-width:1.6977;stroke-linecap:round;}
	.st63{fill:none;stroke:#F9A13B;stroke-width:1.6977;stroke-linecap:round;}
	.st64{fill:none;stroke:#231F20;stroke-width:0.3222;}
	.st65{clip-path:url(#SVGID_16_);fill:#C5C5C7;}
	.st66{clip-path:url(#SVGID_16_);fill:#C8CACA;}
	.st67{clip-path:url(#SVGID_16_);fill:#CDCFCF;}
	.st68{clip-path:url(#SVGID_16_);fill:#CFD0D1;}
	.st69{clip-path:url(#SVGID_16_);fill:#D0D1D3;}
	.st70{clip-path:url(#SVGID_16_);fill:#D2D3D4;}
	.st71{clip-path:url(#SVGID_16_);fill:#D4D4D6;}
	.st72{clip-path:url(#SVGID_16_);fill:#D5D6D6;}
	.st73{clip-path:url(#SVGID_16_);fill:#D6D8D8;}
	.st74{clip-path:url(#SVGID_16_);fill:#D6D7D9;}
	.st75{clip-path:url(#SVGID_16_);fill:#D7D8DA;}
	.st76{clip-path:url(#SVGID_16_);fill:#D9DADB;}
	.st77{clip-path:url(#SVGID_16_);fill:#DBDBDD;}
	.st78{clip-path:url(#SVGID_16_);fill:#DBDCDD;}
	.st79{clip-path:url(#SVGID_16_);fill:#DCDDDE;}
	.st80{clip-path:url(#SVGID_16_);fill:#DDE0E0;}
	.st81{clip-path:url(#SVGID_16_);fill:#DFE0E1;}
	.st82{clip-path:url(#SVGID_16_);fill:#E0E1E2;}
	.st83{clip-path:url(#SVGID_16_);fill:#E2E3E4;}
	.st84{clip-path:url(#SVGID_16_);fill:#E3E4E5;}
	.st85{clip-path:url(#SVGID_16_);fill:#E5E6E7;}
	.st86{clip-path:url(#SVGID_16_);fill:#E7E7E7;}
	.st87{clip-path:url(#SVGID_16_);fill:#E8E8E8;}
	.st88{clip-path:url(#SVGID_16_);fill:#E9EAEB;}
	.st89{clip-path:url(#SVGID_16_);fill:#EAEAEC;}
	.st90{clip-path:url(#SVGID_16_);fill:#EBECEB;}
	.st91{clip-path:url(#SVGID_16_);fill:#EEEDEE;}
	.st92{clip-path:url(#SVGID_16_);fill:#EFEFEF;}
	.st93{clip-path:url(#SVGID_16_);fill:#F0F0F0;}
	.st94{clip-path:url(#SVGID_16_);fill:#F2F2F2;}
	.st95{clip-path:url(#SVGID_16_);fill:#F3F2F3;}
	.st96{clip-path:url(#SVGID_16_);fill:#F3F3F3;}
	.st97{clip-path:url(#SVGID_16_);fill:#F4F5F5;}
	.st98{clip-path:url(#SVGID_16_);fill:#F6F6F7;}
	.st99{clip-path:url(#SVGID_16_);fill:#F7F8F9;}
	.st100{clip-path:url(#SVGID_16_);fill:#F8FAFB;}
	.st101{clip-path:url(#SVGID_16_);fill:#FAFAFB;}
	.st102{clip-path:url(#SVGID_16_);fill:#FDFEFF;}
	.st103{clip-path:url(#SVGID_16_);fill:#FFFFFF;}
	.st104{fill:none;stroke:#231F20;stroke-width:3.304;}
	.st105{fill:none;stroke:#231F20;stroke-width:1.5534;}
	.st106{clip-path:url(#SVGID_18_);fill:url(#SVGID_19_);}
	.st107{fill:none;stroke:#231F20;stroke-width:1.159;}
</style>
<polygon class="st0" points="23.6,21.4 14.6,21.4 14.6,25.2 24.7,25.2 24.7,30.3 8.3,30.3 8.3,8 24.2,8 24.2,13 14.6,13 14.6,16.4 
	23.6,16.4 "/>
<path class="st0" d="M34.7,30.3L26.9,8h6.8l2.7,8.6c0.8,2.6,1.5,5,2.1,7.9h0.1c0.6-2.8,1.4-5.4,2.1-7.8L43.6,8h6.6l-8,22.3H34.7z"/>
<polygon class="st0" points="68.1,21.4 59.1,21.4 59.1,25.2 69.2,25.2 69.2,30.3 52.8,30.3 52.8,8 68.7,8 68.7,13 59.1,13 
	59.1,16.4 68.1,16.4 "/>
<path class="st0" d="M72.6,8.3c1.8-0.3,4.5-0.5,7.9-0.5c3.7,0,6.2,0.5,7.9,1.8c1.4,1,2.3,2.6,2.3,4.9c0,3-2.4,4.9-4,5.4v0.1
	c1.5,0.6,2.3,2.1,2.9,3.9c0.8,2.3,1.5,5.6,1.9,6.4h-6.3c-0.4-0.7-1-2.2-1.7-5.1C82.9,22.5,82,22,79.9,22h-1.1v8.3h-6.2V8.3z
	 M78.8,17.6h1.9c2.4,0,3.9-1,3.9-2.7c0-1.7-1.3-2.6-3.4-2.6c-1.4,0-2.1,0.1-2.4,0.1V17.6z"/>
<path class="st0" d="M100.3,30.3V21L92.6,8h7.3l2.1,5c0.7,1.6,1.1,2.6,1.7,4h0.1c0.5-1.3,1-2.4,1.6-3.9l2.1-5h7.2l-8.1,12.8v9.5
	H100.3z"/>
<path class="st0" d="M125,24c1.5,0.7,3.9,1.6,6.4,1.6c2.1,0,3.1-0.7,3.1-1.8c0-1-1-1.6-3.7-2.3c-3.8-1.1-6.9-3-6.9-6.9
	c0-4,3.6-7,9.4-7c3,0,5.1,0.5,6.8,1.3l-1.4,4.9c-1.1-0.4-2.9-1.2-5.5-1.2c-1.8,0-2.9,0.6-2.9,1.6c0,1.2,1.4,1.6,4.3,2.5
	c4.3,1.4,6.4,3.5,6.4,6.9c0,3.7-2.9,7.2-10,7.2c-2.9,0-5.8-0.8-7.2-1.5L125,24z"/>
<polygon class="st0" points="159.7,21.4 150.7,21.4 150.7,25.2 160.7,25.2 160.7,30.3 144.4,30.3 144.4,8 160.2,8 160.2,13 
	150.7,13 150.7,16.4 159.7,16.4 "/>
<path class="st0" d="M170.7,24.8l-1.4,5.4h-6.6l7-22.3h8.5l7.5,22.3h-6.9l-1.7-5.4H170.7z M176.2,20.3l-1.2-3.9
	c-0.4-1.2-0.9-2.9-1.3-4.2h-0.1c-0.4,1.3-0.7,2.9-1.1,4.2l-1.1,3.9H176.2z"/>
<path class="st0" d="M189.4,24c1.5,0.7,3.9,1.6,6.4,1.6c2.1,0,3.1-0.7,3.1-1.8c0-1-1-1.6-3.7-2.3c-3.8-1.1-6.9-3-6.9-6.9
	c0-4,3.6-7,9.4-7c3,0,5.1,0.5,6.8,1.3l-1.4,4.9c-1.1-0.4-2.9-1.2-5.5-1.2c-1.9,0-2.9,0.6-2.9,1.6c0,1.2,1.4,1.6,4.3,2.5
	c4.3,1.4,6.4,3.5,6.4,6.9c0,3.7-2.9,7.2-10,7.2c-2.9,0-5.8-0.8-7.2-1.5L189.4,24z"/>
<path class="st0" d="M219.8,30.7c-7.3,0-11.8-4.9-11.8-11.4c0-6.8,4.9-11.8,12.2-11.8c7.5,0,12,4.9,12,11.4
	C232.2,25.7,227.5,30.7,219.8,30.7L219.8,30.7z M220.1,25.8c3.4,0,5.4-2.8,5.4-6.7c0-3.8-2.1-6.8-5.5-6.8c-3.3,0-5.4,2.9-5.4,6.8
	C214.6,23,216.7,25.8,220.1,25.8L220.1,25.8z"/>
<path class="st0" d="M235.5,30.3V8h7.8l3.7,6.5c1.4,2.5,2.8,5.5,3.9,8.4h0.1c-0.4-3.3-0.4-6-0.4-9.1V8h5.8v22.3h-6.8l-4-7.4
	c-1.4-2.6-3-5.6-4.3-8.6h-0.1c0.2,3.4,0.2,6.6,0.2,10v6H235.5z"/>
<path class="st0" d="M268.2,24c1.5,0.7,3.9,1.6,6.4,1.6c2.1,0,3.1-0.7,3.1-1.8c0-1-1-1.6-3.7-2.3c-3.8-1.1-6.9-3-6.9-6.9
	c0-4,3.6-7,9.4-7c3,0,5.1,0.5,6.8,1.3l-1.4,4.9c-1.1-0.4-2.9-1.2-5.5-1.2c-1.8,0-2.9,0.6-2.9,1.6c0,1.2,1.4,1.6,4.3,2.5
	c4.3,1.4,6.4,3.5,6.4,6.9c0,3.7-2.9,7.2-10,7.2c-2.9,0-5.8-0.8-7.2-1.5L268.2,24z"/>
<polygon class="st0" points="292.7,13.1 286.4,13.1 286.4,8 305.3,8 305.3,13.1 298.9,13.1 298.9,30.3 292.7,30.3 "/>
<path class="st0" d="M312.2,24.8l-1.4,5.4h-6.6l7-22.3h8.5l7.5,22.3h-6.9l-1.7-5.4H312.2z M317.7,20.3l-1.2-3.9
	c-0.4-1.2-0.9-2.9-1.3-4.2h-0.1c-0.4,1.3-0.7,2.9-1.1,4.2l-1.1,3.9H317.7z"/>
<path class="st0" d="M330.3,8.3c1.8-0.3,4.5-0.5,7.9-0.5c3.7,0,6.2,0.5,7.9,1.8c1.4,1,2.3,2.6,2.3,4.9c0,3-2.4,4.9-4,5.4v0.1
	c1.5,0.6,2.3,2.1,2.9,3.9c0.8,2.3,1.5,5.6,1.9,6.4H343c-0.4-0.7-1-2.2-1.7-5.1c-0.7-2.7-1.6-3.2-3.7-3.2h-1.1v8.3h-6.2V8.3z
	 M336.5,17.6h1.8c2.4,0,3.9-1,3.9-2.7c0-1.7-1.3-2.6-3.4-2.6c-1.4,0-2,0.1-2.4,0.1V17.6z"/>
<polygon class="st0" points="357.4,13.1 351.1,13.1 351.1,8 370,8 370,13.1 363.6,13.1 363.6,30.3 357.4,30.3 "/>
<path class="st0" d="M373.5,24c1.5,0.7,3.9,1.6,6.4,1.6c2.1,0,3.1-0.7,3.1-1.8c0-1-1-1.6-3.7-2.3c-3.8-1.1-6.9-3-6.9-6.9
	c0-4,3.6-7,9.4-7c3,0,5.1,0.5,6.8,1.3l-1.4,4.9c-1.1-0.4-2.9-1.2-5.5-1.2c-1.8,0-2.9,0.6-2.9,1.6c0,1.2,1.4,1.6,4.3,2.5
	c4.3,1.4,6.4,3.5,6.4,6.9c0,3.7-2.9,7.2-10,7.2c-2.9,0-5.8-0.8-7.2-1.5L373.5,24z"/>
<path class="st0" d="M406.4,24.8l-1.4,5.4h-6.6l7-22.3h8.5l7.5,22.3h-6.9l-1.6-5.4H406.4z M411.9,20.3l-1.2-3.9
	c-0.4-1.2-0.9-2.9-1.2-4.2h-0.1c-0.4,1.3-0.7,2.9-1.1,4.2l-1.1,3.9H411.9z"/>
<polygon class="st0" points="427,13.1 420.7,13.1 420.7,8 439.6,8 439.6,13.1 433.2,13.1 433.2,30.3 427,30.3 "/>
<g>
	<defs>
		<polygon id="SVGID_1_" points="439.5,235.3 439.5,36.7 8.1,37 7.6,235.5 		"/>
	</defs>
	<clipPath id="SVGID_2_">
		<use xlink:href="#SVGID_1_"  style="overflow:visible;"/>
	</clipPath>
	
		<linearGradient id="SVGID_3_" gradientUnits="userSpaceOnUse" x1="-225.5292" y1="777.5681" x2="-220.7211" y2="777.5681" gradientTransform="matrix(0 40.7361 40.7361 0 -31451.5312 9223.8555)">
		<stop  offset="0" style="stop-color:#026655"/>
		<stop  offset="0.2545" style="stop-color:#1C6D5B"/>
		<stop  offset="0.6829" style="stop-color:#41836C"/>
		<stop  offset="1" style="stop-color:#5F987C"/>
	</linearGradient>
	<rect x="7.6" y="36.7" class="st1" width="431.8" height="198.8"/>
</g>
<g>
	<defs>
		<polygon id="SVGID_4_" points="430.9,226.1 430.9,45.4 16.6,45.7 16.2,226.3 		"/>
	</defs>
	<clipPath id="SVGID_5_">
		<use xlink:href="#SVGID_4_"  style="overflow:visible;"/>
	</clipPath>
	
		<linearGradient id="SVGID_6_" gradientUnits="userSpaceOnUse" x1="-195.4214" y1="759.9822" x2="-190.6126" y2="759.9822" gradientTransform="matrix(0 -38.6544 -38.6544 0 29600.2168 -7329.3491)">
		<stop  offset="0" style="stop-color:#026655"/>
		<stop  offset="0.2545" style="stop-color:#1C6D5B"/>
		<stop  offset="0.6829" style="stop-color:#41836C"/>
		<stop  offset="1" style="stop-color:#5F987C"/>
	</linearGradient>
	<rect x="16.2" y="45.4" class="st2" width="414.8" height="180.9"/>
</g>
<path class="st3" d="M98.7,160.5l-18.4,18.2H30.1V53.2h49.2l19.4,18.2V160.5z M55.5,156.4h12.1V78.2H55.5V156.4z"/>
<rect x="108" y="53.2" class="st3" width="28.4" height="125.5"/>
<polygon class="st3" points="214,101.4 186.4,101.4 186.4,76.9 174.2,76.9 174.2,155.1 186.4,155.1 186.4,125.2 214,125.2 
	214,160.5 195.3,178.7 166.1,178.7 145.8,160.5 145.8,71.4 164.4,53.2 195.3,53.2 214,71.4 "/>
<polygon class="st3" points="251.3,106.8 251.7,106.8 270.3,53.2 299.3,53.2 274.7,111.9 303.1,178.7 272.3,178.7 251.7,125.2 
	251.3,125.2 251.3,178.7 223,178.7 223,53.2 251.3,53.2 "/>
<polygon class="st3" points="395.6,53.2 415.5,71.4 415.5,93.7 387.2,93.7 387.2,76.9 375.5,76.9 375.5,102.4 396.1,104.2 
	415.5,122.4 415.5,160.5 397,178.7 365.5,178.7 347.1,160.5 347.1,138.5 375.5,138.5 375.5,155.1 387.2,155.1 387.2,128.8 
	366.9,127.3 347.1,109.1 347.1,71.4 365.7,53.2 "/>
<path class="st4" d="M101.9,165.1l-18.4,18.2H33.3V57.8h49.2L101.9,76V165.1z M58.7,161h12.1V82.8H58.7V161z"/>
<rect x="111.2" y="57.8" class="st4" width="28.4" height="125.5"/>
<polygon class="st4" points="217.2,105.9 189.5,105.9 189.5,81.4 177.3,81.4 177.3,159.7 189.5,159.7 189.5,129.8 217.2,129.8 
	217.2,165.1 198.5,183.3 169.2,183.3 148.9,165.1 148.9,76 167.5,57.8 198.5,57.8 217.2,76 "/>
<polygon class="st4" points="254.5,111.4 254.9,111.4 273.4,57.8 302.5,57.8 277.9,116.4 306.3,183.3 275.5,183.3 254.9,129.8 
	254.5,129.8 254.5,183.3 226.1,183.3 226.1,57.8 254.5,57.8 "/>
<polygon class="st4" points="398.7,57.8 418.7,76 418.7,98.2 390.3,98.2 390.3,81.4 378.6,81.4 378.6,107 399.3,108.8 418.7,126.9 
	418.7,165.1 400.1,183.3 368.7,183.3 350.3,165.1 350.3,143.1 378.6,143.1 378.6,159.7 390.3,159.7 390.3,133.4 370,131.9 
	350.3,113.6 350.3,76 368.8,57.8 "/>
<path class="st0" d="M100.2,162.3l-18.4,18.2H31.6V55h49.2l19.4,18.2V162.3z M57.1,158.2h12.1V79.9H57.1V158.2z"/>
<rect x="109.5" y="55" class="st0" width="28.4" height="125.5"/>
<polygon class="st0" points="215.6,103.1 187.9,103.1 187.9,78.6 175.7,78.6 175.7,156.8 187.9,156.8 187.9,126.9 215.6,126.9 
	215.6,162.3 196.8,180.5 167.6,180.5 147.3,162.3 147.3,73.2 165.9,55 196.8,55 215.6,73.2 "/>
<polygon class="st0" points="252.9,108.5 253.2,108.5 271.8,55 300.9,55 276.3,113.6 304.6,180.5 273.9,180.5 253.2,126.9 
	252.9,126.9 252.9,180.5 224.5,180.5 224.5,55 252.9,55 "/>
<polygon class="st0" points="397.1,55 417.1,73.2 417.1,95.4 388.7,95.4 388.7,78.6 377,78.6 377,104.2 397.6,105.9 417.1,124.1 
	417.1,162.3 398.5,180.5 367,180.5 348.6,162.3 348.6,140.2 377,140.2 377,156.8 388.7,156.8 388.7,130.6 368.4,129 348.6,110.8 
	348.6,73.2 367.2,55 "/>
<polygon class="st4" points="55.3,194.7 62.5,198.3 62.5,202.7 52.2,202.7 52.2,199.4 48,199.4 48,204.5 55.5,204.8 62.5,208.4 
	62.5,216.1 55.8,219.7 44.3,219.7 37.6,216.1 37.6,211.7 48,211.7 48,215 52.2,215 52.2,209.7 44.8,209.4 37.6,205.8 37.6,198.3 
	44.4,194.7 "/>
<path class="st4" d="M81.6,206.5h-3.8v-7.1h3.8V206.5z M91.5,198.3l-7-3.6H67.5v25.1h10.3v-8.5h6.8l7-3.5V198.3z"/>
<path class="st4" d="M109.3,215h-4.3v-15.6h4.3V215z M119.6,198.3l-7.1-3.6h-11.1l-6.8,3.6v17.8l6.8,3.6H113l6.6-3.6V198.3z"/>
<path class="st4" d="M139.6,204.9h-4.3v-5.5h4.3V204.9z M149.6,198.3l-6.9-3.6H125v25.1h10.3v-10.1h4.3v10.1h10v-10.1l-5.2-2.5
	l5.2-2.4V198.3z"/>
<polygon class="st4" points="174.4,199.4 168.6,199.4 168.6,219.7 158.3,219.7 158.3,199.4 152.4,199.4 152.4,194.7 174.4,194.7 "/>
<rect x="177.7" y="194.6" class="st4" width="10.3" height="25.1"/>
<polygon class="st4" points="218.7,219.7 210.1,219.7 203.4,207.5 203.3,207.5 203.3,219.7 193.6,219.7 193.6,194.7 202.2,194.7 
	208.8,206.7 209,206.7 209,194.7 218.7,194.7 "/>
<polygon class="st4" points="248.3,204.1 238,204.1 238,199.4 233.1,199.4 233.1,215 238,215 238,211.4 235.4,211.4 235.4,206.7 
	248.3,206.7 248.3,216.1 241.5,219.7 230,219.7 222.8,216.1 222.8,198.3 229.7,194.7 241.3,194.7 248.3,198.3 "/>
<polygon class="st4" points="294.7,204.1 284.3,204.1 284.3,199.4 279.5,199.4 279.5,215 284.3,215 284.3,211.4 281.7,211.4 
	281.7,206.7 294.7,206.7 294.7,216.1 287.8,219.7 276.4,219.7 269.2,216.1 269.2,198.3 276.1,194.7 287.7,194.7 294.7,198.3 "/>
<path class="st4" d="M313.6,215h-4.3v-15.6h4.3V215z M323.9,198.3l-7.1-3.6h-11.1l-6.8,3.6v17.8l6.8,3.6h11.5l6.6-3.6V198.3z"/>
<path class="st4" d="M343.7,215h-4.3v-15.6h4.3V215z M354,198.3l-7.1-3.6h-11.1l-6.8,3.6v17.8l6.8,3.6h11.5l6.6-3.6V198.3z"/>
<path class="st4" d="M373.9,215h-4.3v-15.6h4.3V215z M384.2,198.3l-7.1-3.6h-17.9v25.1h18.3l6.7-3.6V198.3z"/>
<polygon class="st4" points="406.2,194.7 413.5,198.3 413.5,202.7 403.2,202.7 403.2,199.4 398.9,199.4 398.9,204.5 406.4,204.8 
	413.5,208.4 413.5,216.1 406.7,219.7 395.3,219.7 388.6,216.1 388.6,211.7 398.9,211.7 398.9,215 403.2,215 403.2,209.7 
	395.8,209.4 388.6,205.8 388.6,198.3 395.3,194.7 "/>
<polygon class="st3" points="53.6,191.3 60.9,195 60.9,199.4 50.5,199.4 50.5,196.1 46.3,196.1 46.3,201.1 53.8,201.5 60.9,205.1 
	60.9,212.7 54.1,216.4 42.7,216.4 36,212.7 36,208.3 46.3,208.3 46.3,211.7 50.5,211.7 50.5,206.4 43.2,206.1 36,202.5 36,195 
	42.7,191.3 "/>
<path class="st3" d="M80,203.2h-3.8v-7.1H80V203.2z M89.9,195l-7-3.6H65.8v25.1h10.3v-8.5h6.8l7-3.5V195z"/>
<path class="st3" d="M107.6,211.7h-4.3v-15.6h4.3V211.7z M117.9,195l-7.1-3.6H99.8l-6.8,3.6v17.8l6.8,3.6h11.5l6.6-3.6V195z"/>
<path class="st3" d="M137.9,201.6h-4.3v-5.5h4.3V201.6z M147.9,195l-6.9-3.6h-17.7v25.1h10.3v-10.1h4.3v10.1h10v-10.1l-5.2-2.5
	l5.2-2.4V195z"/>
<polygon class="st3" points="172.8,196.1 166.9,196.1 166.9,216.4 156.6,216.4 156.6,196.1 150.8,196.1 150.8,191.3 172.8,191.3 "/>
<rect x="176" y="191.3" class="st3" width="10.3" height="25.1"/>
<polygon class="st3" points="217,216.4 208.4,216.4 201.8,204.2 201.6,204.2 201.6,216.4 191.9,216.4 191.9,191.3 200.6,191.3 
	207.2,203.4 207.3,203.4 207.3,191.3 217,191.3 "/>
<polygon class="st3" points="246.6,200.7 236.3,200.7 236.3,196.1 231.5,196.1 231.5,211.7 236.3,211.7 236.3,208.1 233.7,208.1 
	233.7,203.3 246.6,203.3 246.6,212.7 239.8,216.4 228.3,216.4 221.1,212.7 221.1,195 228,191.3 239.6,191.3 246.6,195 "/>
<polygon class="st3" points="293,200.7 282.7,200.7 282.7,196.1 277.8,196.1 277.8,211.7 282.7,211.7 282.7,208.1 280.1,208.1 
	280.1,203.3 293,203.3 293,212.7 286.2,216.4 274.7,216.4 267.5,212.7 267.5,195 274.4,191.3 286,191.3 293,195 "/>
<path class="st3" d="M311.9,211.7h-4.3v-15.6h4.3V211.7z M322.2,195l-7.1-3.6h-11.1l-6.8,3.6v17.8l6.8,3.6h11.5l6.6-3.6V195z"/>
<path class="st3" d="M342,211.7h-4.3v-15.6h4.3V211.7z M352.3,195l-7.1-3.6h-11.1l-6.8,3.6v17.8l6.8,3.6h11.5l6.6-3.6V195z"/>
<path class="st3" d="M372.2,211.7h-4.3v-15.6h4.3V211.7z M382.6,195l-7.1-3.6h-17.9v25.1h18.3l6.7-3.6V195z"/>
<polygon class="st3" points="404.6,191.3 411.8,195 411.8,199.4 401.5,199.4 401.5,196.1 397.2,196.1 397.2,201.1 404.8,201.5 
	411.8,205.1 411.8,212.7 405.1,216.4 393.6,216.4 386.9,212.7 386.9,208.3 397.2,208.3 397.2,211.7 401.5,211.7 401.5,206.4 
	394.1,206.1 386.9,202.5 386.9,195 393.7,191.3 "/>
<polygon class="st0" points="54.4,192.7 61.7,196.3 61.7,200.7 51.3,200.7 51.3,197.4 47.1,197.4 47.1,202.5 54.6,202.8 61.7,206.4 
	61.7,214.1 54.9,217.7 43.4,217.7 36.7,214.1 36.7,209.7 47.1,209.7 47.1,213 51.3,213 51.3,207.7 43.9,207.4 36.7,203.8 
	36.7,196.3 43.5,192.7 "/>
<path class="st0" d="M80.7,204.5h-3.8v-7.1h3.8V204.5z M90.6,196.3l-7-3.6H66.6v25.1h10.3v-8.5h6.8l7-3.5V196.3z"/>
<path class="st0" d="M108.4,213h-4.3v-15.6h4.3V213z M118.7,196.3l-7.1-3.6h-11.1l-6.8,3.6v17.8l6.8,3.7h11.5l6.6-3.7V196.3z"/>
<path class="st0" d="M138.7,202.9h-4.3v-5.5h4.3V202.9z M148.7,196.3l-6.9-3.6h-17.7v25.1h10.3v-10.1h4.3v10.1h10v-10.1l-5.2-2.5
	l5.2-2.4V196.3z"/>
<polygon class="st0" points="173.6,197.4 167.7,197.4 167.7,217.7 157.4,217.7 157.4,197.4 151.6,197.4 151.6,192.7 173.6,192.7 "/>
<rect x="176.8" y="192.7" class="st0" width="10.3" height="25.1"/>
<polygon class="st0" points="217.8,217.7 209.2,217.7 202.5,205.5 202.4,205.5 202.4,217.7 192.7,217.7 192.7,192.7 201.3,192.7 
	208,204.7 208.1,204.7 208.1,192.7 217.8,192.7 "/>
<polygon class="st0" points="247.4,202.1 237.1,202.1 237.1,197.4 232.2,197.4 232.2,213 237.1,213 237.1,209.4 234.5,209.4 
	234.5,204.7 247.4,204.7 247.4,214.1 240.6,217.7 229.1,217.7 221.9,214.1 221.9,196.3 228.8,192.7 240.4,192.7 247.4,196.3 "/>
<polygon class="st0" points="293.8,202.1 283.5,202.1 283.5,197.4 278.6,197.4 278.6,213 283.5,213 283.5,209.4 280.9,209.4 
	280.9,204.7 293.8,204.7 293.8,214.1 287,217.7 275.5,217.7 268.3,214.1 268.3,196.3 275.2,192.7 286.8,192.7 293.8,196.3 "/>
<path class="st0" d="M312.7,213h-4.3v-15.6h4.3V213z M323,196.3l-7.1-3.6h-11.1l-6.8,3.6v17.8l6.8,3.7h11.5l6.6-3.7V196.3z"/>
<path class="st0" d="M342.8,213h-4.3v-15.6h4.3V213z M353.1,196.3l-7.1-3.6h-11.1l-6.8,3.6v17.8l6.8,3.7h11.5l6.6-3.7V196.3z"/>
<path class="st0" d="M373,213h-4.3v-15.6h4.3V213z M383.4,196.3l-7.1-3.6h-17.9v25.1h18.3l6.7-3.7V196.3z"/>
<polygon class="st0" points="405.3,192.7 412.6,196.3 412.6,200.7 402.3,200.7 402.3,197.4 398,197.4 398,202.5 405.5,202.8 
	412.6,206.4 412.6,214.1 405.8,217.7 394.4,217.7 387.7,214.1 387.7,209.7 398,209.7 398,213 402.3,213 402.3,207.7 394.9,207.4 
	387.7,203.8 387.7,196.3 394.5,192.7 "/>
<path class="st0" d="M415.8,214.4c0-1.6,1.2-2.8,2.8-2.8c1.5,0,2.8,1.2,2.8,2.8c0,1.6-1.2,2.8-2.8,2.8
	C417.1,217.2,415.8,216,415.8,214.4 M418.6,217.8c1.9,0,3.4-1.4,3.4-3.4c0-2-1.6-3.4-3.4-3.4c-1.9,0-3.5,1.4-3.5,3.4
	C415.2,216.3,416.8,217.8,418.6,217.8 M417.9,214.6h0.7l1,1.7h0.7l-1.1-1.7c0.6-0.1,1-0.4,1-1.1c0-0.8-0.5-1.1-1.4-1.1h-1.5v3.9h0.6
	V214.6z M417.9,214.1v-1.2h0.8c0.4,0,0.9,0.1,0.9,0.6c0,0.6-0.5,0.6-1,0.6H417.9z"/>
<path class="st5" d="M316.6,107.8c6.5-5.4,6.5-9.4,5.1-12.6"/>
<path class="st5" d="M315.6,112c8.6-5.7,9.5-9.9,9.2-13.9"/>
<path class="st5" d="M313.7,116.6c8.2-3.1,13.9-11,13.5-15.1"/>
<path class="st6" d="M316.1,107.2c6.5-5.4,6.5-9.4,5.1-12.6"/>
<path class="st6" d="M315,111.5c8.6-5.7,9.5-9.9,9.2-13.9"/>
<path class="st6" d="M313.2,116c8.2-3.1,13.9-11,13.5-15.1"/>
<g>
	<defs>
		<path id="SVGID_7_" d="M325.5,86.9c1.6,0,3,0.2,4.4,0.7c4.9,2,7.8,7.4,6,12.9c-0.6,1.7-1.6,3.4-3.1,4.6c-1.7,1.4-3.5,2.2-5.8,2.5
			c-5.6,0.5-10.5-3.7-11.2-8.9c-0.6-4.7,1.9-8.9,5.8-10.8c0.6-0.3,1.3-0.5,2-0.7c0.2-0.1,0.5-0.1,0.7-0.1c0.1,0,0.1,0,0.2,0
			c0.1,0,0.2,0,0.2,0c0.1,0,0.2,0,0.3,0C325.2,86.9,325.4,86.9,325.5,86.9"/>
	</defs>
	<clipPath id="SVGID_8_">
		<use xlink:href="#SVGID_7_"  style="overflow:visible;"/>
	</clipPath>
	<g class="st7">
		<defs>
			<rect id="SVGID_9_" x="312.5" y="84.6" width="27.1" height="27"/>
		</defs>
		<clipPath id="SVGID_10_">
			<use xlink:href="#SVGID_9_"  style="overflow:visible;"/>
		</clipPath>
		<g class="st8">
			<defs>
				<rect id="SVGID_11_" x="312.5" y="84.6" width="27.1" height="27"/>
			</defs>
			<clipPath id="SVGID_12_">
				<use xlink:href="#SVGID_11_"  style="overflow:visible;"/>
			</clipPath>
			<g style="clip-path:url(#SVGID_12_);">
				
					<image style="overflow:visible;" width="8" height="8" xlink:href="D5C75FA9A5B30474.jpg"  transform="matrix(3.3914 0 0 3.3766 312.5029 84.6484)">
				</image>
			</g>
		</g>
	</g>
</g>
<path class="st9" d="M316.1,94.3c1.6-5.5,7.4-8.7,12.9-7c5.5,1.6,8.6,7.4,6.9,12.9c-1.6,5.5-7.4,8.7-12.9,7.1
	C317.6,105.7,314.5,99.9,316.1,94.3z"/>
<path class="st0" d="M343,83.7c-0.3-7.9-7-14.1-15-13.7c-7.9,0.3-14.1,7-13.7,15c0.3,7.9,7,14.1,15,13.7
	C337.2,98.3,343.3,91.6,343,83.7"/>
<path class="st10" d="M343,83.7c-0.3-7.9-7-14.1-15-13.7c-7.9,0.3-14.1,7-13.7,15c0.3,7.9,7,14.1,15,13.7
	C337.2,98.3,343.3,91.6,343,83.7z"/>
<g>
	<defs>
		<path id="SVGID_13_" d="M343,83.7c-0.3-7.9-7-14.1-15-13.7c-7.9,0.3-14.1,7-13.7,15c0.3,7.9,7,14.1,15,13.7
			C337.2,98.3,343.3,91.6,343,83.7"/>
	</defs>
	<clipPath id="SVGID_14_">
		<use xlink:href="#SVGID_13_"  style="overflow:visible;"/>
	</clipPath>
	<path class="st11" d="M343.8,83.1c-0.3-8.2-7.3-14.5-15.4-14.2c-8.2,0.3-14.5,7.3-14.2,15.4c0.3,8.2,7.3,14.5,15.4,14.2
		C337.8,98.1,344.2,91.2,343.8,83.1"/>
	<path class="st12" d="M314.4,84.3c0.3,8.1,7.2,14.4,15.3,14c8.1-0.3,14.4-7.2,14-15.3c-0.4-8.1-7.2-14.4-15.3-14
		C320.3,69.4,314,76.2,314.4,84.3"/>
	<path class="st13" d="M314.5,84.3c0.3,8,7.1,14.3,15.2,13.9c8-0.3,14.2-7.1,13.9-15.2c-0.3-8-7.1-14.3-15.2-13.9
		C320.4,69.5,314.2,76.3,314.5,84.3"/>
	<path class="st14" d="M314.6,84.3c0.3,7.9,7.1,14.1,15,13.8c7.9-0.3,14.1-7,13.8-15c-0.3-7.9-7.1-14.1-15-13.8
		C320.5,69.6,314.3,76.3,314.6,84.3"/>
	<path class="st15" d="M314.8,84.3c0.3,7.9,7,14,14.9,13.6c7.9-0.3,14-7,13.6-14.9c-0.3-7.9-7-14-14.9-13.6
		C320.5,69.8,314.4,76.4,314.8,84.3"/>
	<path class="st16" d="M314.9,84.3c0.3,7.8,6.9,13.9,14.7,13.5c7.8-0.3,13.9-6.9,13.5-14.7c-0.3-7.8-6.9-13.9-14.7-13.5
		C320.6,69.9,314.6,76.5,314.9,84.3"/>
	<path class="st17" d="M315,84.3c0.3,7.7,6.9,13.7,14.6,13.4c7.7-0.3,13.7-6.9,13.4-14.6c-0.3-7.7-6.9-13.7-14.6-13.4
		C320.7,70,314.7,76.6,315,84.3"/>
	<path class="st18" d="M315.2,84.3c0.3,7.7,6.8,13.6,14.5,13.3c7.7-0.3,13.6-6.8,13.3-14.4c-0.3-7.7-6.8-13.6-14.5-13.3
		C320.8,70.1,314.8,76.6,315.2,84.3"/>
	<path class="st19" d="M315.3,84.3c0.3,7.6,6.7,13.5,14.3,13.1c7.6-0.3,13.5-6.7,13.1-14.3c-0.3-7.6-6.7-13.5-14.3-13.1
		C320.9,70.3,315,76.7,315.3,84.3"/>
	<path class="st20" d="M315.4,84.3c0.3,7.5,6.7,13.3,14.2,13c7.5-0.3,13.3-6.7,13-14.2c-0.3-7.5-6.7-13.3-14.2-13
		C320.9,70.4,315.1,76.8,315.4,84.3"/>
	<path class="st21" d="M315.6,84.3c0.3,7.4,6.6,13.2,14,12.9c7.4-0.3,13.2-6.6,12.9-14c-0.3-7.4-6.6-13.2-14-12.9
		C321,70.5,315.3,76.8,315.6,84.3"/>
	<path class="st22" d="M315.7,84.2c0.3,7.4,6.5,13.1,13.9,12.8c7.4-0.3,13.1-6.5,12.8-13.9c-0.3-7.4-6.5-13.1-13.9-12.8
		C321.1,70.7,315.4,76.9,315.7,84.2"/>
	<path class="st23" d="M315.8,84.2c0.3,7.3,6.5,12.9,13.7,12.6c7.3-0.3,12.9-6.5,12.6-13.7c-0.3-7.3-6.5-12.9-13.7-12.6
		C321.2,70.8,315.5,77,315.8,84.2"/>
	<path class="st24" d="M316,84.2c0.3,7.2,6.4,12.8,13.6,12.5c7.2-0.3,12.8-6.4,12.5-13.6c-0.3-7.2-6.4-12.8-13.6-12.5
		C321.3,70.9,315.7,77,316,84.2"/>
	<path class="st25" d="M316.1,84.2c0.3,7.1,6.3,12.7,13.5,12.4c7.1-0.3,12.7-6.3,12.4-13.5c-0.3-7.1-6.3-12.7-13.5-12.4
		C321.3,71.1,315.8,77.1,316.1,84.2"/>
	<path class="st26" d="M316.3,84.2c0.3,7.1,6.3,12.5,13.3,12.2c7.1-0.3,12.5-6.3,12.2-13.3c-0.3-7.1-6.3-12.5-13.3-12.2
		C321.4,71.2,315.9,77.2,316.3,84.2"/>
	<path class="st26" d="M316.4,84.2c0.3,7,6.2,12.4,13.2,12.1c7-0.3,12.4-6.2,12.1-13.2c-0.3-7-6.2-12.4-13.2-12.1
		C321.5,71.3,316.1,77.2,316.4,84.2"/>
	<path class="st27" d="M316.5,84.2c0.3,6.9,6.1,12.3,13,12c6.9-0.3,12.3-6.1,12-13.1c-0.3-6.9-6.1-12.3-13.1-12
		C321.6,71.5,316.2,77.3,316.5,84.2"/>
	<path class="st28" d="M316.7,84.2c0.3,6.8,6.1,12.1,12.9,11.9c6.8-0.3,12.1-6.1,11.8-12.9c-0.3-6.9-6.1-12.1-12.9-11.9
		C321.7,71.6,316.4,77.4,316.7,84.2"/>
	<path class="st29" d="M316.8,84.2c0.3,6.8,6,12,12.8,11.7c6.8-0.3,12-6,11.7-12.8c-0.3-6.8-6-12-12.8-11.7
		C321.7,71.7,316.5,77.4,316.8,84.2"/>
	<path class="st30" d="M316.9,84.2c0.3,6.7,5.9,11.9,12.6,11.6c6.7-0.3,11.9-5.9,11.6-12.6c-0.3-6.7-5.9-11.9-12.6-11.6
		C321.8,71.9,316.6,77.5,316.9,84.2"/>
	<path class="st31" d="M317.1,84.2c0.3,6.6,5.9,11.8,12.5,11.5c6.6-0.3,11.7-5.9,11.5-12.5c-0.3-6.6-5.9-11.7-12.5-11.5
		C321.9,72,316.8,77.6,317.1,84.2"/>
	<path class="st32" d="M317.2,84.2c0.3,6.5,5.8,11.6,12.4,11.3c6.5-0.3,11.6-5.8,11.3-12.4c-0.3-6.5-5.8-11.6-12.3-11.3
		C322,72.1,316.9,77.6,317.2,84.2"/>
	<path class="st33" d="M317.3,84.2c0.3,6.5,5.7,11.5,12.2,11.2c6.5-0.3,11.5-5.7,11.2-12.2c-0.3-6.5-5.7-11.5-12.2-11.2
		C322.1,72.2,317,77.7,317.3,84.2"/>
	<path class="st34" d="M317.5,84.2c0.3,6.4,5.7,11.3,12.1,11.1c6.4-0.3,11.4-5.7,11.1-12.1c-0.3-6.4-5.7-11.3-12.1-11.1
		C322.1,72.4,317.2,77.8,317.5,84.2"/>
	<path class="st35" d="M317.6,84.2c0.3,6.3,5.6,11.2,11.9,11c6.3-0.3,11.2-5.6,11-11.9c-0.3-6.3-5.6-11.2-11.9-11
		C322.2,72.5,317.3,77.8,317.6,84.2"/>
	<path class="st36" d="M317.7,84.2c0.3,6.2,5.5,11.1,11.8,10.8c6.2-0.3,11.1-5.5,10.8-11.8c-0.3-6.2-5.6-11.1-11.8-10.8
		C322.3,72.6,317.5,77.9,317.7,84.2"/>
	<path class="st37" d="M317.9,84.2c0.3,6.2,5.5,11,11.6,10.7c6.2-0.3,11-5.5,10.7-11.7c-0.3-6.2-5.5-11-11.7-10.7
		C322.4,72.8,317.6,78,317.9,84.2"/>
	<path class="st38" d="M318,84.2c0.3,6.1,5.4,10.8,11.5,10.6c6.1-0.3,10.8-5.4,10.6-11.5c-0.3-6.1-5.4-10.8-11.5-10.6
		C322.5,72.9,317.7,78.1,318,84.2"/>
	<path class="st39" d="M318.1,84.1c0.3,6,5.3,10.7,11.4,10.4c6-0.3,10.7-5.3,10.4-11.4c-0.3-6-5.3-10.7-11.4-10.4
		C322.5,73,317.9,78.1,318.1,84.1"/>
	<path class="st40" d="M318.3,84.1c0.3,6,5.3,10.6,11.2,10.3c6-0.3,10.6-5.3,10.3-11.2c-0.3-6-5.3-10.6-11.2-10.3
		C322.6,73.2,318,78.2,318.3,84.1"/>
	<path class="st40" d="M318.4,84.1c0.3,5.9,5.2,10.4,11.1,10.2c5.9-0.3,10.4-5.2,10.2-11.1c-0.3-5.9-5.2-10.4-11.1-10.2
		C322.7,73.3,318.1,78.3,318.4,84.1"/>
	<path class="st41" d="M318.5,84.1c0.2,5.8,5.2,10.3,11,10.1c5.8-0.2,10.3-5.1,10.1-11c-0.2-5.8-5.1-10.3-11-10.1
		C322.8,73.4,318.3,78.3,318.5,84.1"/>
	<path class="st42" d="M318.7,84.1c0.2,5.7,5.1,10.2,10.8,9.9c5.7-0.2,10.2-5.1,9.9-10.8c-0.2-5.7-5.1-10.2-10.8-9.9
		C322.9,73.6,318.4,78.4,318.7,84.1"/>
	<path class="st43" d="M318.8,84.1c0.2,5.7,5,10,10.7,9.8c5.6-0.2,10-5,9.8-10.7c-0.2-5.7-5-10-10.7-9.8
		C322.9,73.7,318.6,78.5,318.8,84.1"/>
	<path class="st44" d="M318.9,84.1c0.2,5.6,4.9,9.9,10.5,9.7c5.6-0.2,9.9-4.9,9.7-10.5c-0.2-5.6-5-9.9-10.5-9.7
		C323,73.8,318.7,78.5,318.9,84.1"/>
	<path class="st45" d="M319.1,84.1c0.2,5.5,4.9,9.8,10.4,9.5c5.5-0.2,9.8-4.9,9.5-10.4c-0.2-5.5-4.9-9.8-10.4-9.5
		C323.1,73.9,318.8,78.6,319.1,84.1"/>
	<path class="st46" d="M319.2,84.1c0.2,5.4,4.8,9.6,10.3,9.4c5.4-0.2,9.6-4.8,9.4-10.3c-0.2-5.4-4.8-9.6-10.3-9.4
		C323.2,74.1,319,78.7,319.2,84.1"/>
	<path class="st47" d="M319.3,84.1c0.2,5.4,4.7,9.5,10.1,9.3c5.4-0.2,9.5-4.8,9.3-10.1c-0.2-5.3-4.8-9.5-10.1-9.3
		C323.3,74.2,319.1,78.7,319.3,84.1"/>
	<path class="st48" d="M319.5,84.1c0.2,5.3,4.7,9.4,10,9.1c5.3-0.2,9.4-4.7,9.2-10c-0.2-5.3-4.7-9.4-10-9.2
		C323.3,74.3,319.2,78.8,319.5,84.1"/>
	<path class="st49" d="M319.6,84.1c0.2,5.2,4.6,9.3,9.8,9c5.2-0.2,9.3-4.6,9-9.8c-0.2-5.2-4.6-9.2-9.8-9
		C323.4,74.5,319.4,78.9,319.6,84.1"/>
	<path class="st50" d="M319.7,84.1c0.2,5.1,4.6,9.1,9.7,8.9c5.1-0.2,9.1-4.6,8.9-9.7c-0.2-5.1-4.6-9.1-9.7-8.9
		C323.5,74.6,319.5,78.9,319.7,84.1"/>
	<path class="st51" d="M319.9,84.1c0.2,5.1,4.5,9,9.6,8.8c5.1-0.2,9-4.5,8.8-9.5c-0.2-5.1-4.5-9-9.6-8.8
		C323.6,74.7,319.7,79,319.9,84.1"/>
	<path class="st52" d="M320,84.1c0.2,5,4.4,8.9,9.4,8.6c5-0.2,8.9-4.4,8.6-9.4c-0.2-5-4.4-8.8-9.4-8.6
		C323.7,74.9,319.8,79.1,320,84.1"/>
	<path class="st53" d="M320.1,84.1c0.2,4.9,4.4,8.7,9.3,8.5c4.9-0.2,8.7-4.4,8.5-9.3c-0.2-4.9-4.4-8.7-9.3-8.5
		C323.7,75,319.9,79.2,320.1,84.1"/>
	<path class="st54" d="M320.3,84.1c0.2,4.8,4.3,8.6,9.1,8.4c4.8-0.2,8.6-4.3,8.4-9.1c-0.2-4.8-4.3-8.6-9.1-8.4
		C323.8,75.1,320.1,79.2,320.3,84.1"/>
	<path class="st55" d="M320.4,84.1c0.2,4.8,4.2,8.5,9,8.2c4.8-0.2,8.5-4.2,8.3-9c-0.2-4.8-4.2-8.5-9-8.2
		C323.9,75.3,320.2,79.3,320.4,84.1"/>
	<path class="st56" d="M320.5,84c0.2,4.7,4.2,8.3,8.8,8.1c4.7-0.2,8.3-4.2,8.1-8.8c-0.2-4.7-4.2-8.3-8.9-8.1
		C324,75.4,320.3,79.4,320.5,84"/>
	<path class="st57" d="M320.7,84c0.2,4.6,4.1,8.2,8.7,8c4.6-0.2,8.2-4.1,8-8.7c-0.2-4.6-4.1-8.2-8.7-8
		C324.1,75.5,320.5,79.4,320.7,84"/>
	<path class="st58" d="M320.8,84c0.2,4.5,4,8.1,8.6,7.9c4.5-0.2,8.1-4,7.9-8.6c-0.2-4.5-4-8.1-8.6-7.9
		C324.1,75.6,320.6,79.5,320.8,84"/>
	<path class="st59" d="M320.9,84c0.2,4.5,4,7.9,8.4,7.7c4.5-0.2,7.9-4,7.7-8.4c-0.2-4.5-4-7.9-8.4-7.7
		C324.2,75.8,320.8,79.6,320.9,84"/>
	<path class="st60" d="M337,83.3c-0.2-4.4-3.9-7.8-8.3-7.6c-4.4,0.2-7.8,3.9-7.6,8.3c0.2,4.4,3.9,7.8,8.3,7.6
		C333.8,91.4,337.2,87.7,337,83.3"/>
</g>
<line class="st0" x1="332.7" y1="86.3" x2="335.8" y2="84.9"/>
<line class="st10" x1="332.7" y1="86.3" x2="335.8" y2="84.9"/>
<line class="st0" x1="322.2" y1="81.3" x2="324.4" y2="83.8"/>
<line class="st10" x1="322.2" y1="81.3" x2="324.4" y2="83.8"/>
<path class="st61" d="M341,91.1c-2.3-1.2-4.3-3-5.6-5.3"/>
<path class="st61" d="M323.2,97.3c1.8-3.6,2-8,0.3-12"/>
<polyline class="st62" points="337.3,85.7 336.2,86.4 334.1,86.6 "/>
<polyline class="st62" points="338.5,87.1 337.5,87.9 335.3,88.3 "/>
<polyline class="st62" points="339.4,88.4 338.5,89.2 336.3,89.8 "/>
<polyline class="st62" points="340.7,89.2 339.8,90.1 337.8,90.9 "/>
<polyline class="st62" points="341,91.2 341,91.2 339,92.3 "/>
<polyline class="st62" points="323,89 324.3,88.8 326.1,87.5 "/>
<polyline class="st62" points="322.5,87.5 323.7,87.2 325.4,85.8 "/>
<polyline class="st62" points="323.2,90.6 324.5,90.5 326.3,89.3 "/>
<polyline class="st62" points="323.1,92.5 324.3,92.5 326.3,91.4 "/>
<polyline class="st62" points="322.9,94.1 324.2,94.1 326.2,93.3 "/>
<polyline class="st62" points="322.8,95.6 324,95.7 326.1,94.9 "/>
<polyline class="st62" points="324.1,97.3 324.5,97.2 326,96.7 "/>
<polyline class="st63" points="337.2,85.5 336.1,86.2 334,86.5 "/>
<polyline class="st63" points="338.4,87 337.4,87.7 335.2,88.1 "/>
<polyline class="st63" points="339.3,88.2 338.3,89.1 336.2,89.7 "/>
<polyline class="st63" points="340.6,89 339.7,90 337.7,90.7 "/>
<polyline class="st63" points="340.9,91.1 340.9,91.1 338.9,92.1 "/>
<polyline class="st63" points="322.9,88.8 324.1,88.6 326,87.3 "/>
<polyline class="st63" points="322.4,87.4 323.6,87.1 325.3,85.7 "/>
<polyline class="st63" points="323.1,90.5 324.3,90.3 326.2,89.2 "/>
<polyline class="st63" points="323,92.4 324.2,92.3 326.2,91.3 "/>
<polyline class="st63" points="322.8,93.9 324,94 326.1,93.1 "/>
<polyline class="st63" points="322.7,95.4 323.9,95.6 326,94.7 "/>
<polyline class="st63" points="323.7,97.1 324.4,97 325.9,96.5 "/>
<path class="st64" d="M314.7,79.7c-2.3,7.8,1.9,16,9.6,18.3c7.7,2.3,16-2.1,18.4-9.9c0.8-2.7,0.6-5,0-7.5"/>
<path class="st0" d="M345.7,69.5c-0.4-9.5-8.4-16.9-17.9-16.5c-9.5,0.4-16.9,8.4-16.5,17.9c0.4,9.5,8.4,16.9,17.9,16.5
	C338.8,87,346.1,79,345.7,69.5"/>
<path class="st10" d="M345.7,69.5c-0.4-9.5-8.4-16.9-17.9-16.5c-9.5,0.4-16.9,8.4-16.5,17.9c0.4,9.5,8.4,16.9,17.9,16.5
	C338.8,87,346.1,79,345.7,69.5z"/>
<g>
	<defs>
		<path id="SVGID_15_" d="M345.7,69.5c-0.4-9.5-8.4-16.9-17.9-16.5c-9.5,0.4-16.9,8.4-16.5,17.9c0.4,9.5,8.4,16.9,17.9,16.5
			C338.8,87,346.1,79,345.7,69.5"/>
	</defs>
	<clipPath id="SVGID_16_">
		<use xlink:href="#SVGID_15_"  style="overflow:visible;"/>
	</clipPath>
	<path class="st65" d="M310.7,72.2c0.4,9.8,8.7,17.4,18.5,17c9.8-0.4,17.4-8.7,17-18.5c-0.4-9.8-8.7-17.4-18.5-17
		C317.9,54.1,310.3,62.4,310.7,72.2"/>
	<path class="st66" d="M329.2,88.5c9.4-0.4,16.7-8.4,16.3-17.8c-0.4-9.4-8.4-16.7-17.8-16.3c-9.4,0.4-16.7,8.4-16.3,17.8"/>
	<path class="st67" d="M311.9,72.2c0.4,9.1,8.1,16.2,17.3,15.8c9.1-0.4,16.2-8.1,15.8-17.3c-0.4-9.1-8.1-16.2-17.3-15.8
		C318.6,55.3,311.5,63,311.9,72.2"/>
	<path class="st68" d="M312.1,72.1c0.4,9,8,16.1,17.1,15.7c9-0.4,16.1-8,15.7-17.1c-0.4-9-8-16.1-17.1-15.7
		C318.7,55.5,311.7,63.1,312.1,72.1"/>
	<path class="st69" d="M312.3,72.1c0.4,9,8,15.9,16.9,15.5c8.9-0.4,15.9-7.9,15.5-16.9c-0.4-9-7.9-15.9-16.9-15.5
		C318.8,55.6,311.9,63.2,312.3,72.1"/>
	<path class="st69" d="M312.4,72.1c0.4,8.9,7.9,15.7,16.7,15.3c8.9-0.4,15.7-7.9,15.3-16.7c-0.4-8.9-7.9-15.7-16.7-15.4
		C318.9,55.8,312,63.3,312.4,72.1"/>
	<path class="st70" d="M312.6,72.1c0.4,8.8,7.8,15.6,16.5,15.2c8.8-0.4,15.6-7.8,15.2-16.6c-0.4-8.8-7.8-15.6-16.5-15.2
		C319,56,312.2,63.4,312.6,72.1"/>
	<path class="st71" d="M312.8,72.1c0.4,8.7,7.7,15.4,16.4,15c8.7-0.4,15.4-7.7,15-16.4c-0.4-8.7-7.7-15.4-16.4-15
		C319.1,56.1,312.4,63.4,312.8,72.1"/>
	<path class="st72" d="M312.9,72.1c0.4,8.6,7.6,15.2,16.2,14.9c8.6-0.4,15.2-7.6,14.9-16.2c-0.4-8.6-7.6-15.2-16.2-14.9
		C319.2,56.3,312.6,63.5,312.9,72.1"/>
	<path class="st73" d="M313.1,72.1c0.4,8.5,7.5,15.1,16,14.7c8.5-0.4,15.1-7.5,14.7-16c-0.4-8.5-7.5-15.1-16-14.7
		C319.3,56.5,312.7,63.6,313.1,72.1"/>
	<path class="st74" d="M313.3,72.1c0.4,8.4,7.4,14.9,15.8,14.5c8.4-0.4,14.9-7.4,14.5-15.8c-0.4-8.4-7.5-14.9-15.8-14.5
		C319.4,56.6,312.9,63.7,313.3,72.1"/>
	<path class="st75" d="M313.5,72.1c0.4,8.3,7.4,14.7,15.7,14.4c8.3-0.4,14.7-7.4,14.4-15.7c-0.4-8.3-7.4-14.7-15.7-14.4
		C319.5,56.8,313.1,63.8,313.5,72.1"/>
	<path class="st76" d="M313.6,72.1c0.3,8.2,7.3,14.6,15.5,14.2c8.2-0.4,14.6-7.3,14.2-15.5c-0.3-8.2-7.3-14.6-15.5-14.2
		C319.6,57,313.3,63.9,313.6,72.1"/>
	<path class="st77" d="M313.8,72.1c0.4,8.1,7.2,14.4,15.3,14.1c8.1-0.3,14.4-7.2,14-15.3c-0.3-8.1-7.2-14.4-15.3-14
		C319.7,57.1,313.4,64,313.8,72.1"/>
	<path class="st78" d="M314,72.1c0.3,8,7.1,14.2,15.1,13.9c8-0.3,14.2-7.1,13.9-15.1c-0.3-8-7.1-14.2-15.1-13.9
		C319.8,57.3,313.6,64.1,314,72.1"/>
	<path class="st79" d="M314.1,72.1c0.3,7.9,7,14.1,14.9,13.7c7.9-0.3,14.1-7,13.7-15c-0.3-7.9-7-14.1-14.9-13.7
		C319.9,57.5,313.8,64.1,314.1,72.1"/>
	<path class="st80" d="M314.3,72.1c0.3,7.8,6.9,13.9,14.8,13.6c7.8-0.3,13.9-6.9,13.6-14.8c-0.3-7.8-6.9-13.9-14.8-13.6
		C320,57.6,314,64.2,314.3,72.1"/>
	<path class="st81" d="M314.5,72c0.3,7.7,6.9,13.7,14.6,13.4c7.7-0.3,13.7-6.9,13.4-14.6c-0.3-7.7-6.9-13.7-14.6-13.4
		C320.1,57.8,314.1,64.3,314.5,72"/>
	<path class="st82" d="M314.6,72c0.3,7.6,6.8,13.6,14.4,13.2c7.6-0.3,13.6-6.8,13.2-14.4c-0.3-7.6-6.8-13.6-14.4-13.2
		C320.2,58,314.3,64.4,314.6,72"/>
	<path class="st83" d="M314.8,72c0.3,7.5,6.7,13.4,14.2,13.1c7.5-0.3,13.4-6.7,13.1-14.2c-0.3-7.6-6.7-13.4-14.2-13.1
		C320.3,58.1,314.5,64.5,314.8,72"/>
	<path class="st83" d="M315,72c0.3,7.4,6.6,13.2,14.1,12.9c7.4-0.3,13.2-6.6,12.9-14.1c-0.3-7.4-6.6-13.2-14.1-12.9
		C320.4,58.3,314.7,64.6,315,72"/>
	<path class="st84" d="M315.2,72c0.3,7.4,6.5,13.1,13.9,12.7c7.3-0.3,13.1-6.5,12.7-13.9c-0.3-7.4-6.5-13.1-13.9-12.7
		C320.5,58.5,314.8,64.7,315.2,72"/>
	<path class="st85" d="M315.3,72c0.3,7.3,6.4,12.9,13.7,12.6c7.3-0.3,12.9-6.4,12.6-13.7c-0.3-7.3-6.4-12.9-13.7-12.6
		C320.6,58.6,315,64.8,315.3,72"/>
	<path class="st86" d="M315.5,72c0.3,7.2,6.4,12.7,13.5,12.4c7.2-0.3,12.7-6.4,12.4-13.5c-0.3-7.2-6.4-12.7-13.5-12.4
		C320.7,58.8,315.2,64.8,315.5,72"/>
	<path class="st87" d="M315.7,72c0.3,7.1,6.3,12.6,13.3,12.2c7.1-0.3,12.6-6.3,12.3-13.3c-0.3-7.1-6.3-12.6-13.3-12.3
		C320.9,58.9,315.4,64.9,315.7,72"/>
	<path class="st88" d="M315.8,72c0.3,7,6.2,12.4,13.2,12.1c7-0.3,12.4-6.2,12.1-13.2c-0.3-7-6.2-12.4-13.2-12.1
		C320.9,59.1,315.5,65,315.8,72"/>
	<path class="st89" d="M316,72c0.3,6.9,6.1,12.2,13,11.9c6.9-0.3,12.2-6.1,11.9-13c-0.3-6.9-6.1-12.2-13-11.9
		C321,59.3,315.7,65.1,316,72"/>
	<path class="st90" d="M316.2,72c0.3,6.8,6,12.1,12.8,11.8c6.8-0.3,12.1-6,11.8-12.8c-0.3-6.8-6-12.1-12.8-11.8
		C321.1,59.4,315.9,65.2,316.2,72"/>
	<path class="st91" d="M316.3,72c0.3,6.7,5.9,11.9,12.6,11.6c6.7-0.3,11.9-5.9,11.6-12.6c-0.3-6.7-5.9-11.9-12.6-11.6
		C321.3,59.6,316.1,65.3,316.3,72"/>
	<path class="st92" d="M316.5,72c0.3,6.6,5.9,11.7,12.5,11.4c6.6-0.3,11.7-5.9,11.4-12.5c-0.3-6.6-5.9-11.7-12.5-11.4
		C321.4,59.8,316.2,65.4,316.5,72"/>
	<path class="st93" d="M316.7,71.9c0.3,6.5,5.8,11.6,12.3,11.3c6.5-0.3,11.6-5.8,11.3-12.3c-0.3-6.5-5.8-11.6-12.3-11.3
		C321.5,59.9,316.4,65.4,316.7,71.9"/>
	<path class="st94" d="M316.9,71.9c0.3,6.4,5.7,11.4,12.1,11.1c6.4-0.3,11.4-5.7,11.1-12.1c-0.3-6.4-5.7-11.4-12.1-11.1
		C321.6,60.1,316.6,65.5,316.9,71.9"/>
	<path class="st95" d="M317,71.9c0.3,6.3,5.6,11.2,11.9,11c6.3-0.3,11.2-5.6,11-11.9c-0.3-6.3-5.6-11.2-11.9-11
		C321.7,60.3,316.8,65.6,317,71.9"/>
	<path class="st96" d="M317.2,71.9c0.3,6.2,5.5,11.1,11.8,10.8c6.2-0.3,11.1-5.5,10.8-11.8c-0.3-6.2-5.5-11.1-11.8-10.8
		C321.8,60.5,316.9,65.7,317.2,71.9"/>
	<path class="st97" d="M317.4,71.9c0.3,6.1,5.5,10.9,11.6,10.6c6.1-0.3,10.9-5.4,10.6-11.6c-0.3-6.1-5.4-10.9-11.6-10.6
		C321.9,60.6,317.1,65.8,317.4,71.9"/>
	<path class="st98" d="M317.5,71.9c0.3,6,5.4,10.7,11.4,10.5c6-0.3,10.7-5.4,10.5-11.4c-0.3-6-5.4-10.7-11.4-10.5
		C322,60.8,317.3,65.9,317.5,71.9"/>
	<path class="st99" d="M317.7,71.9c0.3,5.9,5.3,10.5,11.2,10.3c5.9-0.3,10.5-5.3,10.3-11.2C339,65,334,60.4,328,60.7
		C322.1,60.9,317.5,66,317.7,71.9"/>
	<path class="st100" d="M317.9,71.9c0.3,5.8,5.2,10.4,11,10.1c5.9-0.2,10.4-5.2,10.1-11c-0.3-5.9-5.2-10.4-11.1-10.1
		C322.2,61.1,317.6,66,317.9,71.9"/>
	<path class="st101" d="M318,71.9c0.2,5.8,5.1,10.2,10.9,10c5.8-0.2,10.2-5.1,10-10.9c-0.2-5.8-5.1-10.2-10.9-10
		C322.3,61.3,317.8,66.1,318,71.9"/>
	<path class="st102" d="M318.2,71.9c0.2,5.7,5,10.1,10.7,9.8c5.7-0.2,10.1-5,9.8-10.7c-0.2-5.7-5-10.1-10.7-9.8
		C322.4,61.4,318,66.2,318.2,71.9"/>
	<path class="st103" d="M338.6,71c-0.2-5.6-4.9-9.9-10.5-9.6c-5.6,0.2-9.9,4.9-9.6,10.5c0.2,5.6,4.9,9.9,10.5,9.6
		C334.5,81.3,338.8,76.6,338.6,71"/>
</g>
<polygon class="st4" points="324.5,72.7 329.9,75 333.8,71.3 331.1,65.4 325.3,66.4 "/>
<polygon class="st104" points="324.5,72.7 329.9,75 333.8,71.3 331.1,65.4 325.3,66.4 "/>
<path class="st4" d="M340.2,71.8l3.3,4.4l1.2-0.5c0.7-2,1.1-4.2,1-6.4c0-0.7-0.1-1.4-0.2-2.1l-2.6-0.8L340.2,71.8z"/>
<path class="st105" d="M340.2,71.8l3.3,4.4l1.2-0.5c0.7-2,1.1-4.2,1-6.4c0-0.7-0.1-1.4-0.2-2.1l-2.6-0.8L340.2,71.8z"/>
<path class="st4" d="M327.6,83.9l2,3.3c2.7-0.2,5.1-1,7.3-2.2l0.5-1.9l-5.6-2.8L327.6,83.9z"/>
<path class="st105" d="M327.6,83.9l2,3.3c2.7-0.2,5.1-1,7.3-2.2l0.5-1.9l-5.6-2.8L327.6,83.9z"/>
<path class="st4" d="M315.7,75.3l-1.4,4.6c1.1,1.5,2.3,2.8,3.8,4l2.8-2.3l-0.8-6.3L315.7,75.3z"/>
<path class="st105" d="M315.7,75.3l-1.4,4.6c1.1,1.5,2.3,2.8,3.8,4l2.8-2.3l-0.8-6.3L315.7,75.3z"/>
<line class="st105" x1="319.1" y1="76" x2="324.5" y2="72.7"/>
<line class="st105" x1="332" y1="81.3" x2="329.3" y2="72"/>
<line class="st10" x1="341.5" y1="71.7" x2="332.3" y2="70.7"/>
<line class="st10" x1="343.5" y1="75.4" x2="336.6" y2="83.4"/>
<line class="st10" x1="328.2" y1="84" x2="319.8" y2="81.3"/>
<line class="st4" x1="316.1" y1="76.1" x2="312.8" y2="66.6"/>
<line class="st10" x1="316.1" y1="76.1" x2="312.8" y2="66.6"/>
<line class="st10" x1="343.2" y1="67.4" x2="338.9" y2="59.8"/>
<g>
	<defs>
		<path id="SVGID_17_" d="M322.7,33.5c-12,0.6-20.2,10.2-19.8,21.7c0.5,11.4,10.1,20.2,21.5,19.8c11.4-0.5,20.2-10.1,19.8-21.5
			C343.7,41.9,334.1,32.9,322.7,33.5"/>
	</defs>
	<clipPath id="SVGID_18_">
		<use xlink:href="#SVGID_17_"  style="overflow:visible;"/>
	</clipPath>
	
		<radialGradient id="SVGID_19_" cx="-109.8334" cy="921.75" r="4.8052" gradientTransform="matrix(4.3181 0 0 -4.3181 797.8447 4034.2561)" gradientUnits="userSpaceOnUse">
		<stop  offset="0" style="stop-color:#E99F47"/>
		<stop  offset="1" style="stop-color:#E48E25"/>
	</radialGradient>
	<rect x="302.4" y="32.9" class="st106" width="42.3" height="42.5"/>
</g>
<path class="st64" d="M322.7,33.5c-12,0.6-20.2,10.2-19.8,21.7c0.5,11.4,10.1,20.2,21.5,19.8c11.4-0.5,20.2-10.1,19.8-21.5
	C343.7,41.9,334.1,32.9,322.7,33.5z"/>
<path class="st10" d="M305.6,45.6c-0.5,0-0.7,0.1-1.2,0.2c-1.1,2.7-1.8,5.7-1.7,8.8c0.3,8.2,4.5,14.6,10.9,17.9
	c4.2-2.7,7.2-7.8,6.9-13.1C320.2,51.4,313.5,45.2,305.6,45.6z"/>
<path class="st10" d="M332.1,35.2c-3.8,2.7-5.9,7.2-5.7,12.1c0.3,7.9,7,14.1,14.9,13.7c0.6,0,1.1-0.1,1.7-0.2
	c0.9-2.5,1.3-5.1,1.2-7.9C343.8,45,338.8,38.3,332.1,35.2z"/>
<line class="st10" x1="316.3" y1="34.8" x2="331" y2="74.8"/>
<line class="st10" x1="304.8" y1="62.8" x2="320.1" y2="56.3"/>
<line class="st10" x1="327.4" y1="52.3" x2="342.5" y2="45.9"/>
<path class="st107" d="M317.5,74.1c-11-3.3-17.3-14.8-14-25.8c3.3-11,14.8-17.3,25.8-14c11,3.3,17.3,14.8,14,25.8
	C340,71.1,328.5,77.3,317.5,74.1z"/>
</svg>
