<svg id="Layer_1" data-name="Layer 1" xmlns="http://www.w3.org/2000/svg" viewBox="0 0 175.75 83.6"><defs><style>.cls-1{fill:#ed1b2e;}.cls-1,.cls-2,.cls-3{fill-rule:evenodd;}.cls-2{fill:#004fa3;}.cls-3{fill:#fdb827;}</style></defs><title>Dollar_rent_a_car</title><polygon class="cls-1" points="88.29 24.5 88.29 0 63.14 24.5 88.29 24.5 88.29 24.5"/><polygon class="cls-2" points="175.75 52.88 175.75 24.5 0 24.5 0 52.88 175.75 52.88 175.75 52.88"/><path class="cls-3" d="M54.38,53.11a11,11,0,1,0-11-11,11,11,0,0,0,11,11Z" transform="translate(-4.61 -4.01)"/><path class="cls-3" d="M15.78,34.49h-2v-.81h10.1c4.73,0,8.45,4.16,8.45,8.93,0,6.14-4.26,8.75-7.82,9.07-.9.08-1.82.14-2.74.14h-8V51h2V34.49ZM20.34,51h2.58c2.36,0,3.39-1,3.86-2.53a9.16,9.16,0,0,0,.3-2.69V39.4a7,7,0,0,0-.52-3.31c-.52-1.14-1.47-1.6-3.64-1.6H20.34V51Z" transform="translate(-4.61 -4.01)"/><path class="cls-3" d="M76.91,51.81V51h1.85V34.49H76.91v-.81h8.85v.81H83.32V51h3c3.07,0,4.21-2.55,5.05-5.13h.76l-.27,5.95Z" transform="translate(-4.61 -4.01)"/><path class="cls-3" d="M104,51.81V51h1.85V34.49H104v-.81h8.85v.81h-2.44V51h3c3.07,0,4.21-2.55,5.05-5.13h.76L119,51.81Z" transform="translate(-4.61 -4.01)"/><path class="cls-3" d="M128.13,52V51.2c.65,0,1.85,0,2.15-.79l6.41-16.95h1.06l6.73,17.73h1.63V52H137.5V51.2h2.09l-1.47-4.26h-5.57l-.71,2a9.27,9.27,0,0,0-.54,1.85c0,.68,2.06.46,2.44.46V52Zm4.78-5.89h4.89l-2.42-6.65-2.47,6.65Z" transform="translate(-4.61 -4.01)"/><path class="cls-3" d="M154.91,51.62v-.81H157V34.3h-2.17v-.81h10.78c2.72,0,5.57,1.22,5.57,4.4,0,3-3.77,3.86-6.06,4.1V42c3.78.71,5.35,2.2,5.35,4.81,0,2.25.11,3.23.49,3.64.19.19.73.41,2.09.11l.16.57a7.69,7.69,0,0,1-3.18.84c-3.31,0-4.43-1.49-4.51-5.68-.05-3.23-.62-3.94-2.8-3.94h-1.17v8.42h2.25v.81Zm6.68-10.13h1.14c2.74,0,3.53-.46,3.53-2.36V36.5c0-1.3.43-2.2-2.72-2.2h-2v7.2Z" transform="translate(-4.61 -4.01)"/><polygon class="cls-1" points="49.77 52.89 49.77 38.05 32.47 55.6 32.47 83.6 63.27 52.89 49.77 52.89 49.77 52.89"/><path class="cls-1" d="M54.57,74.35h3.09c1.59,0,2.93.67,2.93,2.44a1.66,1.66,0,0,1-1.36,1.83v.06a1.8,1.8,0,0,1,.43.42l1.53,2.29H58.23l-1.12-2.26h0v2.26h-2.5v-7Zm2.5,3.12h.18c.42,0,.84-.07.84-.59s-.38-.61-.82-.61h-.2v1.19Z" transform="translate(-4.61 -4.01)"/><polygon class="cls-1" points="64.36 70.34 69.09 70.34 69.09 72.26 66.93 72.26 66.93 72.93 68.9 72.93 68.9 74.76 66.93 74.76 66.93 75.45 69.16 75.45 69.16 77.38 64.36 77.38 64.36 70.34 64.36 70.34"/><path class="cls-1" d="M82.16,74.35h2.45l2.3,3.9H87a10.58,10.58,0,0,1-.21-1.79V74.35h2.45v7H86.77l-2.25-3.7h-.07a8.23,8.23,0,0,1,.16,1.41v2.29H82.16v-7Z" transform="translate(-4.61 -4.01)"/><polygon class="cls-1" points="92.61 70.34 97.98 70.34 97.98 72.63 96.58 72.56 96.58 77.38 94.02 77.38 94.02 72.56 92.61 72.63 92.61 70.34 92.61 70.34"/><path class="cls-1" d="M117.52,81.39h-2.71l2.44-7h2.83l2.51,7h-2.71l-.23-.88h-1.93l-.21.88Zm1.69-2.55-.3-1.24c-.07-.3-.12-.61-.17-.91h-.09l-.47,2.15Z" transform="translate(-4.61 -4.01)"/><path class="cls-1" d="M140.16,77.2a2.28,2.28,0,0,0-1.5-.71,1.38,1.38,0,0,0-1.39,1.37,1.4,1.4,0,0,0,1.43,1.37,2,2,0,0,0,1.47-.65l-.07,2.63a5.66,5.66,0,0,1-1.82.28,3.53,3.53,0,0,1-3.57-3.57,3.66,3.66,0,0,1,3.68-3.7,5.34,5.34,0,0,1,1.72.29l.07,2.68Z" transform="translate(-4.61 -4.01)"/><path class="cls-1" d="M150.5,81.39H147.8l2.44-7h2.83l2.51,7h-2.71l-.23-.88h-1.93l-.21.88Zm1.69-2.55-.3-1.24c-.07-.3-.12-.61-.17-.91h-.09l-.47,2.15Z" transform="translate(-4.61 -4.01)"/><path class="cls-1" d="M163.48,74.35h3.09c1.59,0,2.93.67,2.93,2.44a1.66,1.66,0,0,1-1.36,1.83v.06a1.8,1.8,0,0,1,.43.42l1.53,2.29h-2.95L166,79.13h0v2.26h-2.5v-7Zm2.5,3.12h.18c.42,0,.84-.07.84-.59s-.38-.61-.82-.61H166v1.19Z" transform="translate(-4.61 -4.01)"/><path class="cls-3" d="M174.11,53.93a2.07,2.07,0,1,1,2.08,2,2,2,0,0,1-2.08-2Zm2.08,1.71a1.7,1.7,0,1,0-1.67-1.71,1.65,1.65,0,0,0,1.67,1.71Zm-.43-.52h-.36V52.76h.9c.56,0,.83.21.83.67a.61.61,0,0,1-.61.65l.67,1h-.4l-.62-1h-.41v1Zm.43-1.32c.3,0,.57,0,.57-.38s-.26-.35-.51-.35h-.49v.73Z" transform="translate(-4.61 -4.01)"/></svg>