<svg id="Layer_1" data-name="Layer 1" xmlns="http://www.w3.org/2000/svg" viewBox="0 0 187.46 33.42"><defs><style>.cls-1{fill:#fff;}.cls-2{fill:#fcee21;}.cls-3{fill:#231f20;}</style></defs><title>Dollar_General</title><rect class="cls-1" width="187.46" height="33.42" rx="3.17" ry="3.17"/><path class="cls-2" d="M7.63,5.86H188.77A2.21,2.21,0,0,1,191,8.08V35.17a2.21,2.21,0,0,1-2.19,2.19H7.63a2.2,2.2,0,0,1-2.19-2.19V8.08A2.2,2.2,0,0,1,7.63,5.86Z" transform="translate(-4.47 -4.91)"/><polygon class="cls-3" points="117.98 7.08 122.44 7.08 125.78 14.4 125.78 7.08 130.67 7.08 130.67 26.64 126.42 26.64 122.82 18.74 122.82 26.64 117.98 26.64 117.98 7.08"/><polygon class="cls-3" points="133.63 7.08 142.85 7.08 142.85 11.3 138.65 11.3 138.65 14.02 142.38 14.02 142.38 18.29 138.65 18.29 138.65 22.43 143.08 22.43 143.08 26.64 133.63 26.64 133.63 7.08"/><polygon class="cls-3" points="105.89 7.08 115.11 7.08 115.11 11.3 110.91 11.3 110.91 14.02 114.64 14.02 114.64 18.29 110.91 18.29 110.91 22.43 115.34 22.43 115.34 26.64 105.89 26.64 105.89 7.08"/><path class="cls-3" d="M150,31.55V16.13h-1.29l.84-4.14h9.84a2.19,2.19,0,0,1,2.46,2.44v6.94a3.28,3.28,0,0,1-1.42,3l2.92,7.19h-5.13l-3.05-7.26v7.26Z" transform="translate(-4.47 -4.91)"/><path class="cls-3" d="M75.22,31.55V16.13H73.91L74.76,12h9.81A2.19,2.19,0,0,1,87,14.43v6.94a3.28,3.28,0,0,1-1.42,3l2.94,7.19H83.4l-3.05-7.26v7.26Z" transform="translate(-4.47 -4.91)"/><polygon class="cls-3" points="164.72 26.64 159.65 26.64 163.61 7.08 170.05 7.08 173.94 26.64 169.01 26.64 168.45 23.56 165.28 23.56 164.72 26.64"/><polygon class="cls-3" points="59.17 26.64 54.09 26.64 58.06 7.08 64.51 7.08 68.4 26.64 63.47 26.64 62.9 23.56 59.71 23.56 59.17 26.64"/><polygon class="cls-3" points="43.95 7.08 49.02 7.08 49.02 22.32 53.25 22.32 53.25 26.64 43.95 26.64 43.95 7.08"/><polygon class="cls-3" points="33.53 7.08 38.62 7.08 38.62 22.32 42.85 22.32 42.85 26.64 33.53 26.64 33.53 7.08"/><path class="cls-3" d="M7.79,12h9.43a2.72,2.72,0,0,1,2.71,2.71V28.86a2.72,2.72,0,0,1-2.71,2.69H8.15V16.22H7.09Z" transform="translate(-4.47 -4.91)"/><path class="cls-3" d="M98.23,12h6.42a2.72,2.72,0,0,1,2.71,2.71v2.37l-4.82.72v-.54a1.05,1.05,0,0,0-1.11-1.11,1.07,1.07,0,0,0-1.11,1.11v9a1.06,1.06,0,0,0,1.11,1.09,1,1,0,0,0,1.11-1.09V23.23h-.93V19.14h5.74v9.72a2.72,2.72,0,0,1-2.71,2.69H98.23a2.72,2.72,0,0,1-2.71-2.69V14.71A2.72,2.72,0,0,1,98.23,12Z" transform="translate(-4.47 -4.91)"/><path class="cls-3" d="M25.72,12h6.42a2.72,2.72,0,0,1,2.71,2.71V28.86a2.72,2.72,0,0,1-2.71,2.69H25.72A2.7,2.7,0,0,1,23,28.86V14.71A2.7,2.7,0,0,1,25.72,12Z" transform="translate(-4.47 -4.91)"/><polygon class="cls-3" points="175.68 7.08 180.75 7.08 180.75 22.32 184.98 22.32 184.98 26.64 175.68 26.64 175.68 7.08"/><path class="cls-3" d="M189.22,13.28A1.26,1.26,0,0,0,188,12a1.28,1.28,0,1,0,0,2.56A1.27,1.27,0,0,0,189.22,13.28Z" transform="translate(-4.47 -4.91)"/><polygon class="cls-2" points="62.16 19.45 61.32 14.79 60.46 19.45 62.16 19.45"/><path class="cls-2" d="M157.25,17.26V20A1.06,1.06,0,0,1,156.14,21h-1V16.15h1A1.07,1.07,0,0,1,157.25,17.26Z" transform="translate(-4.47 -4.91)"/><path class="cls-2" d="M82.43,17.26V20A1,1,0,0,1,81.32,21h-1V16.15h1A1.05,1.05,0,0,1,82.43,17.26Z" transform="translate(-4.47 -4.91)"/><path class="cls-2" d="M15.12,17.26v9A1,1,0,0,1,14,27.39H13V16.15h1A1.05,1.05,0,0,1,15.12,17.26Z" transform="translate(-4.47 -4.91)"/><path class="cls-2" d="M30,17.26v9a1.1,1.1,0,0,1-2.19,0v-9a1.1,1.1,0,1,1,2.19,0Z" transform="translate(-4.47 -4.91)"/><polygon class="cls-2" points="167.7 19.45 166.87 14.79 166.01 19.45 167.7 19.45"/><path class="cls-2" d="M189.08,13.28A1.13,1.13,0,0,1,188,14.41a1.12,1.12,0,0,1-1.13-1.13A1.13,1.13,0,0,1,188,12.15,1.15,1.15,0,0,1,189.08,13.28Z" transform="translate(-4.47 -4.91)"/><path class="cls-3" d="M187.48,14h.18v-.61h.45c.29,0,.23.27.25.43l0,.18h.23c-.09-.14-.07-.16-.07-.34s0-.27-.18-.36c.14-.11.2-.18.18-.36s-.23-.34-.43-.34h-.63Z" transform="translate(-4.47 -4.91)"/><path class="cls-2" d="M188.11,12.72c.11,0,.27,0,.25.27s-.14.2-.25.2h-.45v-.47Z" transform="translate(-4.47 -4.91)"/></svg>