<svg id="Layer_1" data-name="Layer 1" xmlns="http://www.w3.org/2000/svg" viewBox="0 0 187.09 29.99"><defs><style>.cls-1{fill:#fff;}</style></defs><title>Eddie_Bauer_ed1e30</title><path class="cls-1" d="M39.63,4a28,28,0,0,0-2.88.25,18.22,18.22,0,0,0-2.44.47,16.36,16.36,0,0,0-2.19.69A13.57,13.57,0,0,0,30,6.51a4.87,4.87,0,0,0-.78.53,13.67,13.67,0,0,0-1.31,1.31,6.43,6.43,0,0,0-.63.88,6.06,6.06,0,0,0-.47,1,4,4,0,0,0-.28,1,12.13,12.13,0,0,0,0,1.38,10.32,10.32,0,0,0,.34,1.31c.06.13.13.25.19.41a.61.61,0,0,1,0,.22s-.06,0-.13.06c-.53,0-1.06,0-1.6,0a24.61,24.61,0,0,0-2.54.34c-1.66.47-1.66.47-2.29.69s-.63.31-.81.34c-1,.53-1.13.66-1.25.69-.91.63-.94.69-1.16.81s-.5.44-.78.66l-1,1a.24.24,0,0,1,0,.13l-.59.69c-.56.91-.56.91-1,1.78-.12.34-.25.69-.41,1A14.32,14.32,0,0,0,13,24.32c0,.44,0,.91,0,1.38a1.37,1.37,0,0,1-.31.5c-3.91,1.5-4.26,1.6-6.48,2.41-2.72.91-2.72.91-4.79,1.53L1,30.43a3,3,0,0,1-.16.34v.69A1.88,1.88,0,0,0,1.1,32a2.75,2.75,0,0,0,.66.28h.53l.47-.09C7,30.8,7.61,30.55,9,30.11l4.63-1.78H14a5.4,5.4,0,0,1,.75.72l.22.13c.06.06.13.16.22.25a.24.24,0,0,1,.13,0,2,2,0,0,1,.28.25c.47.25.94.5,1.44.75s1,.28,1.53.44c.69.13.69.13,1.78.25h2c1.06-.12,1.06-.12,2.35-.34.78-.22,1.57-.44,2.35-.69.59-.22,1.19-.44,1.78-.69s1.19-.53,1.78-.81c.91-.5,1.85-1,2.79-1.5.13,0,.13,0,.25.09A4.46,4.46,0,0,1,34,28c.25.31.5.63.75,1a5.41,5.41,0,0,0,.44.38,4.76,4.76,0,0,0,.81.41l.5.09a11.18,11.18,0,0,0,1.72-.09L40,29.3a7.83,7.83,0,0,1,1.5-.56c.69-.34,1.41-.69,2.13-1,.38-.25.63-.34,1.53-.88l.56-.28c.13,0,.13,0,.34.13l.56.75a3.16,3.16,0,0,1,.5.56c.22.13.47.25.72.41a7.67,7.67,0,0,0,1.16.34,17.4,17.4,0,0,0,1.85,0c.38-.06.78-.16,1.19-.25a23.83,23.83,0,0,0,2.35-.75h.47c.16.22.31.44.5.66l.56.56a6.63,6.63,0,0,1,.66.34,2.56,2.56,0,0,0,.69.16c.66,0,1.31,0,2,0,1.16-.25,1.16-.25,1.94-.47.31-.09.63-.22.94-.34,1.38-.69,1.53-.81,2.28-1.22.28,0,.28,0,.41.06.38.44.38.44.44.59a5.17,5.17,0,0,0,.75.69c.13,0,.47.28,1,.5l.75.19h.94a9.81,9.81,0,0,0,1.25-.34,13.92,13.92,0,0,0,1.57-1l.72-.63h.25l.22.13c.16.22.34.44.53.66a8.72,8.72,0,0,0,1,.85c.34.09.69.22,1,.34.5,0,1,0,1.57,0l.85-.09c1.63-.47,1.63-.47,2.6-.81h.28c.28.19.41.22.81.47.31.09.63.22,1,.34s.75.09,1.13.16A9.87,9.87,0,0,0,85,29.42l1.5-.47c.91-.47,1.53-.88,1.66-.91l1-.75a.83.83,0,0,1,.16-.19.53.53,0,0,0,.16-.06,1.36,1.36,0,0,0,.19-.22l.22-.13c.25-.28,1.41-1.38,2.57-2.6a5.58,5.58,0,0,1,.85-.88,1.84,1.84,0,0,1,.13-.22c.16-.16.31-.31.5-.47l.19-.28c4.95-5.38,4.95-5.38,5.79-6.26l.22-.13c.69-.69,1-.94,1.19-1.16l.22-.13a7.85,7.85,0,0,1,1.16-1,.24.24,0,0,0,.13,0s.06-.09.13-.16c1.19-.85,1.31-.88,1.66-1.13a12.54,12.54,0,0,1,1.6-.75,5.3,5.3,0,0,1,1.16,0,4.61,4.61,0,0,0,.41.28,2.6,2.6,0,0,0,.25.38v.41a1.26,1.26,0,0,1-.16.28,12.32,12.32,0,0,1-1,.84,1.37,1.37,0,0,0-.19.22.53.53,0,0,0-.16.06c-.81.75-1.66,1.5-2.5,2.29-2.19,2.19-2.5,2.57-2.79,2.82a10.21,10.21,0,0,1-1,1.16.53.53,0,0,1-.06.16,2,2,0,0,0-.28.25c-.09.19-.25.31-.38.53a6.7,6.7,0,0,0-1,1.16.24.24,0,0,1,0,.13c-.09.09-.19.22-.31.34-.34.5-.69,1-1.06,1.57s-.63,1.16-.94,1.75c-.06.16-.13.34-.22.53-.09.41-.22.81-.34,1.25v.91a2.74,2.74,0,0,0,.16.47c.25.31.25.31.44.44a6,6,0,0,1,.63.16h.66l.63-.09a15.29,15.29,0,0,0,1.78-.69c.5-.31.63-.34,1.41-.88.13-.13.25-.16.31-.25a2.59,2.59,0,0,0,.38-.25,10.21,10.21,0,0,1,1.28-1.1c.44-.47.88-.94,1.35-1.41.56-.69,1.13-1.38,1.72-2.07.06-.16.34-.47.5-.75a2,2,0,0,1,.25-.28.24.24,0,0,1,0-.13,2,2,0,0,1,.25-.28c1.1-1.66,1.13-1.78,1.66-2.6a.53.53,0,0,0,.16-.06.87.87,0,0,1,.28,0,.84.84,0,0,0,.16.19l.41.22a4.23,4.23,0,0,1,.53.13h1.38c.59-.06,1.19-.12,1.82-.22.44-.06.91-.16,1.38-.25a3.46,3.46,0,0,1,.53.06,6.32,6.32,0,0,1,.56.41c.13.19.25.38.38.59s.13.56.22.88v1.47a3.09,3.09,0,0,1-.16.34,1.18,1.18,0,0,1-.38.28c-2.19.44-2.19.44-4.19.91-1.66.47-1.66.47-3,.91l-2.19.94c-1.13.59-1.31.75-1.6.91a3.26,3.26,0,0,0-.66.66c-.06.13-.16.25-.25.41a6.71,6.71,0,0,1-.22.75v1.25c.09.28.19.56.28.88s.38.56.59.88a4.77,4.77,0,0,1,.38.41c.16.06.16.06.69.5.28.13.72.41,1.75.88l1.63.47a8.26,8.26,0,0,0,1.47.09l1-.09c1-.25,1-.25,1.69-.47.38-.19.69-.28,1.13-.53l.25-.09a17.16,17.16,0,0,0,1.6-1.1c.06-.09.25-.19,1-.88a4,4,0,0,1,.66-.72c.09-.19.38-.5.94-1.31.16-.28.34-.59.53-.91.22-.56.44-1.13.69-1.72a9.54,9.54,0,0,1,.34-1.41l.09-.09a11.83,11.83,0,0,1,1.53-.25c.53,0,1.1,0,1.66-.06a11.68,11.68,0,0,1,1.5.12l.22.13a1.4,1.4,0,0,0,0,.34,8.07,8.07,0,0,1-.34.75,4.24,4.24,0,0,1-.13.53V27a4,4,0,0,0,.25.85,4.66,4.66,0,0,1,.34.53,2.66,2.66,0,0,0,.66.5c.25.09.5.22.78.34a5.05,5.05,0,0,1,.59.12h.75c.44-.06.88-.16,1.31-.25.22-.06.44-.13.69-.22,1.38-.69,1.53-.81,1.66-.84.28-.25.44-.31,1.44-1.16,0,0,0-.06.06-.09a1.12,1.12,0,0,0,.28-.13.78.78,0,0,1,.25,0l.16.16c.09.22.22.44.34.69a2.69,2.69,0,0,1,.41.53c.22.13.28.22.85.53a2.92,2.92,0,0,1,.41.13,4.43,4.43,0,0,1,.63,0l.75-.09c.22-.06.44-.16.69-.25s.59-.31.91-.5l.91-.63.63-.53a1.17,1.17,0,0,1,.31,0,1.36,1.36,0,0,1,.19.22c.22.47.47.81.5.94l.59.59a2.74,2.74,0,0,0,.31.19,5,5,0,0,0,1.1.28h.5a7.94,7.94,0,0,0,1.22-.28c.34-.16.69-.34,1-.53s.5-.38.78-.56c.38-.34.75-.69,1.16-1a1.4,1.4,0,0,1,.34,0,4.36,4.36,0,0,0,.44.84A7,7,0,0,0,150,28a.34.34,0,0,1,.16,0,2,2,0,0,1,.28.25c.28.13.56.25.88.41s.63.13,1,.22a9.71,9.71,0,0,0,1.44.06,16.83,16.83,0,0,0,2-.34c.22-.06.44-.16.69-.25a2.36,2.36,0,0,0,.47,0,5.39,5.39,0,0,1,1,.34c.44.06.88.13,1.35.22h1.6c.38-.06.78-.13,1.19-.22s.66-.22,1-.34l1.22-.66c.25-.19.5-.38.78-.56.44-.44.91-.88,1.38-1.31.56-.72,1.13-1.47,1.69-2.22a15,15,0,0,0,.85-1.38l.28-.19c.16,0,.16,0,.78.22.47.31.47.31.56.44a3.08,3.08,0,0,1,0,.81,13.23,13.23,0,0,1-.78,1.94,2.62,2.62,0,0,1-.13.47v.44a2.91,2.91,0,0,0,.13.41l.28.47a12.31,12.31,0,0,0,1,1.13l.63.44.47.19h1c1.6-.47,1.6-.47,2.19-.69l1-.47c1.06-.53,2.13-1.1,3.19-1.66,2.88-1.6,3.38-1.91,3.63-2,.85-.47.85-.47,1.82-.94l.75-.28h.59l.31.31V24l-.19.75a.4.4,0,0,0,0,.19.34.34,0,0,1,.16,0c.09-.06.19-.16.31-.25a8,8,0,0,0,.72-1.35c.06-.25.13-.53.22-.81v-1c-.06-.22-.16-.44-.25-.69l-.28-.38a3.27,3.27,0,0,0-.34-.28,4.84,4.84,0,0,1-.53-.16h-1c-.28.06-.59.13-.91.22s-.63.22-.94.34a17.44,17.44,0,0,1-2,1c-1.31.75-1.66,1-2.57,1.5-1.66,1-1.66,1-2.47,1.57-.59.34-1.22.69-1.85,1-.25.09-.5.22-.78.34a7,7,0,0,0-.69.16h-.66a2.17,2.17,0,0,1-.31-.13l-.16-.16a2.17,2.17,0,0,0-.13-.31v-.28a5.42,5.42,0,0,1,.22-.66,2.61,2.61,0,0,1,.25-.38,16.24,16.24,0,0,0,.69-1.78v-.88L173,21c-.16-.13-.31-.28-.5-.44l-.56-.28a4.56,4.56,0,0,1-.81-.28c-.28-.19-.28-.19-.41-.22-.28-.25-.44-.31-.5-.41-.28-.16-.56-.34-.88-.53a3.19,3.19,0,0,1-.44-.13h-.47a2.92,2.92,0,0,0-.41.13,3.48,3.48,0,0,0-.72.59c-.13.25-.25.5-.41.75a2.6,2.6,0,0,0-.06.81c.13.34.25.5.31.69v.41a11.11,11.11,0,0,1-.81,1.38A17,17,0,0,1,164.9,25c-.28.22-.56.44-.88.66-.13,0-.47.28-1.31.72a8.34,8.34,0,0,1-1.35.47,6.41,6.41,0,0,0-.69.13h-.5a.53.53,0,0,1-.16-.06,1,1,0,0,1,.06-.25,4.53,4.53,0,0,1,.41-.28c.72-.63.72-.63,1.53-1.41.13-.22.28-.34.41-.56,0,0,.09-.06.16-.13.19-.28.38-.59.59-.91s.34-.88.53-1.31v-.91a9.61,9.61,0,0,0-.47-1.16l-.63-.81a2.18,2.18,0,0,0-.56-.38l-.38-.09c-.34,0-.69,0-1,0s-.66.16-1,.25a9.94,9.94,0,0,0-1.25.56c-.5.31-.56.41-.91.63s-.47.41-1.06,1.06c-.16.22-.34.44-.53.69,0,.13-.28.47-.63,1.16-.09.34-.22.69-.34,1s-.06.44-.09.69,0,.75,0,1.16l.19.56v.34a1.74,1.74,0,0,0-.19.25l-.41.19a6,6,0,0,1-1.28.06,3.65,3.65,0,0,1-.56-.12,3.17,3.17,0,0,1-.78-.47,1.79,1.79,0,0,0-.28-.47,2.92,2.92,0,0,0-.13-.41,13.75,13.75,0,0,1,0-1.66c.09-.34.19-.72.31-1.1v-.28a1.86,1.86,0,0,0-.13-.25,3.1,3.1,0,0,0-.88-.38,3.79,3.79,0,0,0-.88,0l-.22.12a2.84,2.84,0,0,0-.28.31c-.22.47-.34.63-.44.88a7.42,7.42,0,0,0-.72,1.06c-.16.13-.28.34-1.06,1.06l-.5.31c-.25.09-.5.22-.78.34l-.63.09h-.59l-.41-.09a2.15,2.15,0,0,1-.53-.41c-.06-.13-.13-.28-.19-.44V24.6c.09-.34.22-.69.34-1a4.12,4.12,0,0,0,.41-.84c0-.28,0-.28-.06-.41a3.33,3.33,0,0,0-.34-.19,4.3,4.3,0,0,1-.53-.13h-.69a2.35,2.35,0,0,0-.34.13,3.3,3.3,0,0,0-.38.31c-.16.28-.31.56-.5.85A18.58,18.58,0,0,1,139.92,25c-.22.16-.28.25-.69.53a5.92,5.92,0,0,1-1,.47h-.88a3.22,3.22,0,0,1-.44-.13l-.47-.28c-.13-.16-.25-.31-.38-.5v-.63c.41-.75.41-.75.88-1.5a4.4,4.4,0,0,1,.16-.5v-.63a2.79,2.79,0,0,0-.16-.47l-.85-.85c-.13-.06-.28-.13-.44-.22l-1-.28h-1.31c-.38.06-.78.13-1.19.22s-.69.22-1,.34-.94.44-1.44.69c-.63.41-1.28.81-1.94,1.22a1,1,0,0,0-.25.06c-2.16,0-4.35,0-6.54,0l-.19-.09a5.7,5.7,0,0,1-.34-1.06c-.16-.34-.31-.72-.47-1.1a7.38,7.38,0,0,1-.5-.75c-.91-.88-.91-.88-1-1a.26.26,0,0,1,.06-.22c.56-.28,1.66-.72,2.57-1.19.16-.13.41-.22.75-.47a7.37,7.37,0,0,0,1.25-.78,2,2,0,0,0,.28-.25.24.24,0,0,0,.13,0l2-1.69c.41-.47.85-.94,1.28-1.41.44-.63.44-.63.53-.69.16-.28.34-.59.53-.91s.38-.81.59-1.25l.28-1.22V7.33a8.59,8.59,0,0,0-.25-.85c-.12-.22-.25-.44-.38-.69a7.08,7.08,0,0,0-1.13-.85,6.62,6.62,0,0,0-1-.34L125,4.51a15.59,15.59,0,0,0-1.82.16l-1.66.47-1.63.56c-2,.94-2,.94-3.79,1.85-.56.31-1.16.63-1.75,1-3.07,1.91-3.07,1.91-3.29,2h-.47a1.26,1.26,0,0,1-.28-.16c-.19-.19-.41-.38-.63-.59s-.53-.22-.81-.34a6.86,6.86,0,0,0-1.41-.16c-.41.06-.85.13-1.28.22-.28.09-.59.22-.91.34-.88.47-.88.47-2.29,1.35-.06.09-.69.53-.78.66a.53.53,0,0,0-.16.06c-.06.06-.13.16-.22.25a.24.24,0,0,0-.13,0c-.16.19-.78.69-1.31,1.22-.28.22-2.22,2.16-2.79,2.79-.16.16-.31.31-.5.47a1.75,1.75,0,0,1-.13.22c-.19.16-.38.34-.56.53a.53.53,0,0,1-.06.16c-.19.19-.38.38-.59.56a.24.24,0,0,1,0,.13,9.64,9.64,0,0,0-.94,1,1.81,1.81,0,0,1-.13.22c-.13.13-.28.25-.44.41l-1.13,1.31a4.79,4.79,0,0,1-.41.38,1.8,1.8,0,0,1-.13.22c-.72.78-1.25,1.28-2,2.16l-.22.13c-.16.16-.31.31-.47.5l-.22.13a2,2,0,0,1-.25.28c-.78.59-.78.59-.85.69a.24.24,0,0,0-.13,0,6.81,6.81,0,0,1-1.16.81l-.85.47c-.25.09-.53.22-.81.34a6.45,6.45,0,0,0-.75.16h-1a1.32,1.32,0,0,1-.47-.22.68.68,0,0,1-.06-.38c.13-.12.28-.25.44-.41l1.31-.94c.47-.44.94-.91,1.44-1.38a.53.53,0,0,1,.06-.16.84.84,0,0,0,.19-.16c.06-.16.34-.53.75-1.31,0-.13.06-.25.09-.41v-1l-.09-.47c-.06-.19-.16-.41-.25-.63a4.59,4.59,0,0,0-.56-.81c-.16-.16-.34-.31-.53-.47s-.34-.16-.53-.25a3.62,3.62,0,0,1-.56-.13h-.53a6.3,6.3,0,0,0-.75.13c-.22.06-.47.13-.72.22l-.94.47c-.22.16-.44.31-.69.47S81,20,80.38,20.72s-.59.78-.69.85a3.25,3.25,0,0,1-.41.69,14.59,14.59,0,0,0-.56,1.5,6.3,6.3,0,0,1-.13.75,5.56,5.56,0,0,0,.06,1c.13.34.25.72.41,1.1A2.23,2.23,0,0,1,79,27a1.47,1.47,0,0,1-.5.34c-.34.06-.72.13-1.1.22a4.94,4.94,0,0,1-1.1-.06,4.11,4.11,0,0,1-.56-.22c-.16-.09-.31-.22-.5-.34a2.82,2.82,0,0,1-.28-.66,4.64,4.64,0,0,0-.06-.66,3.65,3.65,0,0,1,.13-.56,5.5,5.5,0,0,1,.56-.91,6.91,6.91,0,0,0,1-.91c.13,0,.13,0,.25-.16l.19-.38v-.28a3.16,3.16,0,0,0-.22-.47,3.94,3.94,0,0,0-.78-.59,2.36,2.36,0,0,1-.34-.12h-.34a2.37,2.37,0,0,0-.34.13l-.91.81a.24.24,0,0,1,0,.13c-.34.38-.44.56-.53.63-.31.53-.63,1.1-.94,1.66-.09.06-.25.34-.81,1a12.07,12.07,0,0,1-1.25,1,5.74,5.74,0,0,1-.91.34,7.13,7.13,0,0,1-1.22,0,2.46,2.46,0,0,1-.56-.25,2,2,0,0,0-.5-.44c-.06-.13-.13-.28-.22-.44v-.41a2.17,2.17,0,0,1,.13-.31c.72-.59,1.28-1.16,1.63-1.44l1.44-1.53c.13-.22.28-.34.38-.53s.34-.41.47-.5c.25-.38.53-.69,1.47-2,1.1-1.72,1.1-1.72,1.44-2.35a.4.4,0,0,1,0-.19c.06-.13.16-.28.25-.44.13-.41.25-.84.41-1.28a5.31,5.31,0,0,0,0-1,1.23,1.23,0,0,0-.25-.5,1.29,1.29,0,0,0-.41-.31,2.93,2.93,0,0,1-.41-.13h-.53a6.43,6.43,0,0,0-.69.13c-.19.06-.41.13-.63.22-1,.47-1.13.59-1.25.63a5.46,5.46,0,0,0-.63.47c-.09.06-.22.13-.34.22-1.31,1.19-1.31,1.19-2,1.88-.34.41-.69.85-1.06,1.28-.06.16-.53.78-1.16,1.82-.47,1-.69,1.57-.94,2,0,0-.06,0-.13.06-.56,0-1.38-.06-3.38-.06a21.26,21.26,0,0,0-2.35.34c-.34.09-.72.22-1.1.34a8,8,0,0,0-.75.34,7.49,7.49,0,0,0-1,.69c-.19.19-.38.41-.59.63a5.13,5.13,0,0,0-.53,1c-.06.22-.13.44-.22.69s-.16.25-.25.41a3.43,3.43,0,0,0-.47.25c-.34.09-.69.22-1,.34s-.72.09-1.1.16h-1l-.56-.09c-.16-.06-.34-.16-.53-.25s-.28-.19-.44-.31-.22-.31-.34-.5a4,4,0,0,0,0-.59,3.08,3.08,0,0,1,.16-.34c.85-.59.91-.69,1.28-.94a8.31,8.31,0,0,0,.75-.63A14.4,14.4,0,0,0,52.21,22l.19-.09c.16-.19.34-.38.53-.56l.22-.13,2.22-2.32c.69-.81.69-.81.78-.88s.38-.5.44-.66.06,0,.63-.88c.13-.31.25-.63.41-1a4.76,4.76,0,0,0,0-1,1.68,1.68,0,0,0-.25-.53L57,13.68a2.39,2.39,0,0,1-.34-.12H55.47c-.44.09-.88.22-1.31.34s-1,.44-1.5.69L51,15.68a8.15,8.15,0,0,0-.63.53l-.22.13c-.25.28-1.38,1.35-2.16,2.19-.09.16-.28.31-.38.5s-.09.06-.91,1.22A6.43,6.43,0,0,1,46,21.51a5.29,5.29,0,0,1-.44,1c-.06.06-.16.13-.25.22h-.25l-1.53-.47c-.63-.13-1.25-.25-1.91-.41-2.29,0-2.29,0-2.85,0a19,19,0,0,0-1.91.47,4.2,4.2,0,0,0-.56.22c-.28.16-.56.31-.88.47s-.22.19-.34.22c-.34.31-.69.66-1.06,1s-.53.69-.81,1a4.49,4.49,0,0,0-.47.34c-.81.44-1.66.88-2.5,1.31-.31.09-.75.34-1.35.56a14.55,14.55,0,0,1-2.16.81c-.41.09-.81.22-1.22.34L23.79,29H22.07c-.41-.06-.81-.13-1.25-.22l-1.1-.47a5.11,5.11,0,0,1-.85-.69c0-.16,0-.16-.28-.56a1.57,1.57,0,0,0-.06-.38.75.75,0,0,1,.19-.34l.31-.22c2.28-1,2.88-1.25,3.1-1.38,1.1-.44,1.6-.69,1.91-.78,1.41-.66,2-.88,2.22-1a.4.4,0,0,0,.19,0c.72-.31,1.44-.66,2.16-1a.4.4,0,0,0,.19,0c3.79-1.72,3.79-1.72,4.23-2,.63-.28,1.25-.59,1.91-.91,4.13-2.13,4.41-2.32,5.32-2.75,3.29-1.85,3.29-1.85,3.63-2,1.57-1,1.94-1.28,2.41-1.57,1.38-1,1.44-1.13,1.66-1.25.06-.06.13-.16.22-.25a.24.24,0,0,0,.13,0,16,16,0,0,0,1.35-1.47c.16-.28.31-.56.47-.88,0-.13.06-.25.09-.41V7.67c0-.09-.06-.22-.09-.34s-.22-.34-.34-.53c-.28-.25-.53-.57-.85-.81a6.55,6.55,0,0,0-1.1-.63A9.47,9.47,0,0,0,46,4.66a11.22,11.22,0,0,0-1.5-.34A15.34,15.34,0,0,0,41.82,4c-.72,0-1.44,0-2.19,0Zm1.94,2.07-2,.25a12.73,12.73,0,0,0-1.66.34,13.65,13.65,0,0,0-1.5.47c-.39.15-.39.15-1,.41a16.26,16.26,0,0,0-1.78,1,5.89,5.89,0,0,0-.85.56,17.24,17.24,0,0,0-1.47,1.47,3.19,3.19,0,0,0-.41.63c-.13.24-.22.5-.34.75s-.06.25-.09.41v1.19l.09.47c.09.22.22.44.34.69s.34.38.53.59a7.16,7.16,0,0,0,1.06.66l1.66.56h1c.22-.06.44-.13.69-.22a3.53,3.53,0,0,1,.81-.34c2.29-1.16,2.57-1.35,3-1.57.16-.13.63-.34.78-.47s1.1-.63,1.63-.91c.16-.13.28-.16,1.25-.81.41-.22,1.59-1,1.85-1.19A13.76,13.76,0,0,0,46.8,9.67,3.38,3.38,0,0,0,47.36,9a1.73,1.73,0,0,0,.22-.53,2.54,2.54,0,0,0,0-.75.45.45,0,0,0-.13-.28c-.08-.08,0-.1-.16-.22a2.1,2.1,0,0,0-.72-.5,4.53,4.53,0,0,0-.91-.34,8,8,0,0,0-1.38-.22c-.91-.06-1.82,0-2.72,0Zm80.63.69s0,0-.94.25c-.56.22-1.13.44-1.72.69-1.82.94-1.88,1-2.35,1.22-.16.13-.41.22-.75.47-1.41.81-1.6,1-2.38,1.44-.38.28-.5.31-.72.5-.47.28-.53.38-1.41.94-.09.13-.31.25-.44.41h-.09a.53.53,0,0,1-.06.16.12.12,0,0,0-.09,0c-.06.13-.13.28-.19.44-.06.41-.13.81-.22,1.22a18.35,18.35,0,0,1-.69,2v.34c.06.06.06.06.22.06l.47-.28,1.13-.38a16.88,16.88,0,0,1,1.88,0c.44.09.88.22,1.31.34.28.13.56.25.88.41h.81l.34-.09.63-.34c.47-.31.94-.66,1.44-1,.72-.63.94-.75,1.1-.94s.5-.47.78-.72l.22-.13c.28-.38.91-1,1.47-1.72.13-.25.31-.47,1-1.78.09-.31.22-.63.34-1,0-.16.06-.34.09-.53V7.67l-.09-.28L123.8,7a4.87,4.87,0,0,1-.53-.16c-.34,0-.69,0-1.06-.06ZM77.6,13.65s0,0-.47.22a1.36,1.36,0,0,1-.22.19v.41c.91.91.91.91,1.38,1.44.22.34.44.69.66,1.06a.34.34,0,0,0,0,.16l.16.16h.53l.25-.16c.06-.13.13-.25.22-.41v-.38a6.82,6.82,0,0,0-.22-.75l-.47-.84c-.16-.22-.34-.44-.53-.66a2.33,2.33,0,0,0-.63-.38,5.66,5.66,0,0,1-.69-.06Zm-6.07,1.44a6.83,6.83,0,0,1-.59.38c-.06.09-.19.13-.5.47a.24.24,0,0,0-.13,0,4.45,4.45,0,0,1-.69.75c-.09.19-.25.31-.38.53,0,0-.06,0-.12.06-.69,1.06-.85,1.38-1,1.5-.25.56-.53,1.13-.81,1.72-.09.44-.22.88-.34,1.31v.69a.43.43,0,0,1,.09.13h.22a2.77,2.77,0,0,1,.31-.19.11.11,0,0,1,0-.09l.25-.16A14.82,14.82,0,0,0,69,21c.13-.22.28-.34.41-.56s.31-.41.59-.72c.69-1,.72-1.06,1-1.38a3.09,3.09,0,0,1,.41-.63c.22-.41.44-.81.66-1.25.06-.19.13-.41.22-.63v-.56a.53.53,0,0,0-.06-.16,5.6,5.6,0,0,1-.69-.06Zm-17,.13s0,0-.31.06-.63.31-1,.47-.34.22-1.28.91c-.16.19-.5.47-.66.66-.09,0-.22.22-.53.5-.59.72-.59.72-.66.88,0,0-.06,0-.13.06a5.9,5.9,0,0,1-.75,1.16,6.14,6.14,0,0,1-.47.88c-.09.31-.16.38-.34.91v.72a.43.43,0,0,1,.09.13,1.18,1.18,0,0,0,.31,0c.59-.44.72-.59.94-.72s.44-.41.66-.63l.22-.12a6.32,6.32,0,0,1,.69-.69,6.35,6.35,0,0,1,.69-.69l.47-.47a.24.24,0,0,1,0-.13c.19-.16.31-.34.41-.38.85-1,1-1.25,1.16-1.44a9.18,9.18,0,0,0,.78-1.31c0-.44,0-.44,0-.56s-.06-.06-.34-.16Zm53.12.44-.91.72a.12.12,0,0,1,0,.09,6.08,6.08,0,0,1-.66.5c-.31.34-1,.91-1.1,1.06-.38.31-.66.63-.85.75a14.29,14.29,0,0,1-1.38,1.38c-.13.19-.28.31-1.19,1.35-.19.16-.31.38-.66.69a.64.64,0,0,1-.22.31.11.11,0,0,0-.09,0,.34.34,0,0,1,0,.16c-.16.16-.16.16-.25.19a5.12,5.12,0,0,0-.44.66c-.34.38-.44.56-.63.75a.45.45,0,0,1-.06.19l-.59.88c-.09.28-.22.47-.28.69v.5a.43.43,0,0,1,.09.13,2.24,2.24,0,0,0,.78-.09,24.11,24.11,0,0,0,2-1.47c1.19-1.19,1.38-1.31,1.5-1.5s.41-.38.63-.59c1.25-1.5,1.35-1.57,1.47-1.78a8,8,0,0,0,.88-1.13c.44-.72.91-1.47,1.38-2.22.22-.44.44-.91.66-1.38a2.76,2.76,0,0,1,.16-.47v-.31a.8.8,0,0,1-.22-.06Zm-80.1.63s-1.44.28-2.29.5l-1.22.47c-.28.13-.59.28-.91.44l-1.6,1c-.44.38-.88.78-1.31,1.19l-.56.66a2.18,2.18,0,0,1-.44.59c-.06.19-.22.41-.69,1.5a3,3,0,0,0-.09.88.42.42,0,0,0,.19.22,1.93,1.93,0,0,0,.56-.06c.06-.06.44-.16,1.31-.5.06-.06,3.44-1.44,3.51-1.5.44-.19.63-.22,2.22-.91.19-.12,2.6-1.16,2.94-1.35l.34-.09c.44-.25,1-.47,1-.53.56-.22,1-.47,1.31-.56l.34-.25c0-.44,0-.44,0-.56L31.49,17a9.36,9.36,0,0,0-1.25-.44l-1-.19c-.53,0-1.06,0-1.63-.06Zm132.81,4.19s0,0-1,.38c-.78.59-.81.66-1,.81a5.77,5.77,0,0,0-.75,1,3.17,3.17,0,0,1-.22.47c-.06.25-.13.5-.19.78v.72a2.92,2.92,0,0,0,.13.41c.09.16.19.31.31.5a1.52,1.52,0,0,0,.38,0c.22-.19.44-.38.69-.56.59-.63.78-.75.91-.94a2.8,2.8,0,0,1,.31-.28c.22-.28.44-.59.69-.91.09-.22.22-.44.34-.69s.06-.25.09-.41V21a2.14,2.14,0,0,0-.12-.31,1.81,1.81,0,0,0-.56-.22ZM84,20.66s-.38.16-1.06.53l-.56.47c-.22.28-.47.56-.72.88a7.12,7.12,0,0,0-.34.69c-.06.06-.06.06-.25.75v1c.06.16.16.34.25.53l.13.13a4.64,4.64,0,0,0,.66,0c.25-.16.53-.31.81-.5,1.13-.85,1.35-1,1.69-1.25l.47-.47c.19-.28.38-.56.59-.85a2.17,2.17,0,0,1,.13-.31,3.82,3.82,0,0,0,0-.88,1.91,1.91,0,0,0-.44-.5,1.75,1.75,0,0,1-.38-.13c-.31,0-.63,0-1-.06ZM132.47,22s0,0-.88.25c-1,.47-1.25.66-1.38.69a12.37,12.37,0,0,0-1.35,1.16c-.13.22-.25.31-.31.47,0,0-.06,0-.13.06a3.39,3.39,0,0,1-.34.75v.85c.09.13.19.28.31.44l.31.09h1.16l.47-.09,1-.47c.13-.13.41-.25,1.13-.78a.12.12,0,0,1,0-.09l.5-.41c.16-.22.41-.47.88-1.1.09-.25.22-.53.34-.81v-.31a1.37,1.37,0,0,0-.25-.47,3.78,3.78,0,0,1-.44-.16c-.34,0-.72,0-1.1-.06ZM62.42,23s0,0-1.56.25a7.07,7.07,0,0,0-.75.25c-.31.16-.63.31-1,.5s-.44.38-.66.59-.25.44-.41.69a2.39,2.39,0,0,0-.06.81,2.88,2.88,0,0,0,.12.41,4,4,0,0,0,.34.53,6.58,6.58,0,0,1,.66.34,5.12,5.12,0,0,1,.59.13h.85c.34-.06.72-.13,1.1-.22l1.1-.47c.25-.19.5-.38.78-.56s.16-.22.25-.28.13-.31.19-.5a19,19,0,0,0,0-2.25.75.75,0,0,0-.34-.19c-.41,0-.81,0-1.25,0Zm-22.16.53s0,0-.41.06-.69.22-1,.34a2.36,2.36,0,0,1-.63.41,4.48,4.48,0,0,0-.63.72,3,3,0,0,1-.16.34,7.65,7.65,0,0,0,0,.84,4,4,0,0,0,.5.66,3.25,3.25,0,0,0,.63.34l.47.09h1.28a5.65,5.65,0,0,0,1.16-.28c.06-.06.28-.09.75-.34l.28-.09c1.44-.81,1.57-.94,2-1.19A1.64,1.64,0,0,0,45,25c0-.38,0-.38-.06-.53-.31-.13-.63-.25-1-.41a19.9,19.9,0,0,0-2.13-.47c-.5,0-1,0-1.57,0Zm75.09,2s-.63.12-3.6.81c-.72.22-1.47.44-2.22.69a13.66,13.66,0,0,0-1.5.69l-.56.38a3.37,3.37,0,0,0-.28.34,2.22,2.22,0,0,0-.09.25,9.06,9.06,0,0,0,0,.91,4.53,4.53,0,0,0,.34,1c.06.13.16.25.25.41a2.76,2.76,0,0,1,.44.5c.16,0,.16,0,.72.34.41,0,.81,0,1.22,0l.41-.09.63-.28c1.1-.81,1.16-.91,1.35-1,.31-.34.66-.69,1-1.06.5-.72,1-1.44,1.53-2.16.09-.25.22-.41.66-1.31v-.31l-.31-.09Z" transform="translate(-0.88 -4.01)"/></svg>