<svg id="Layer_1" data-name="Layer 1" xmlns="http://www.w3.org/2000/svg" viewBox="0 0 193.51 50.98"><defs><style>.cls-1{fill:#fff;}</style></defs><title>Famous_Footwear_9e1b2d</title><g id="_1u6J5P" data-name="1u6J5P"><path class="cls-1" d="M17,33.57a65.35,65.35,0,0,1,3.69-5.79c3.48-4.39,8.21-7,13.38-8.93,5-1.84,13.5-3.43,17.38-3.28v3c-3.2.47-6.39.86-9.55,1.42a37.15,37.15,0,0,0-16.49,7.49,18.45,18.45,0,0,0-3.69,3.87c-3.09,4.39-2.77,8.9.79,12.92,3,3.4,6.92,5.38,11.13,6.84a6.76,6.76,0,0,1,1.74.77c-.35,0-.7.05-1,.05H5.86c-3.67,0-5-1.33-5-5q0-20.37,0-40.75c0-2.9,1.44-4.46,4.27-4.47,10.25,0,20.5,0,31.21,0-.65.3-.9.45-1.18.54A36.5,36.5,0,0,0,21.92,9.8C15.51,15.7,14.22,23,16,31.18A14.5,14.5,0,0,0,17,33.57Z" transform="translate(-0.87 -1.27)"/><path class="cls-1" d="M118.77,8c-1.57,4.65-3.16,9.29-4.71,13.95-.28.83-.52,1.42-1.62,1.42A1.64,1.64,0,0,1,110.61,22c-1.45-4.27-3-8.51-4.49-12.75a2.19,2.19,0,0,0-.8-1.16V28.18h-4.12V1.68c1.82,0,3.6-.06,5.37.05.36,0,.8.68,1,1.14,1.35,3.49,2.63,7,3.94,10.49.17.47.37.93.66,1.66.29-.61.51-1,.66-1.37,1.37-3.59,2.76-7.17,4.07-10.78a1.55,1.55,0,0,1,1.78-1.22c1.52.09,3,0,4.68,0V28.15h-4.15V8.09Z" transform="translate(-0.87 -1.27)"/><path class="cls-1" d="M147.91,15c0,1.69,0,3.38,0,5.07,0,4.77-2.3,7.65-7,8.32a17.84,17.84,0,0,1-6.08-.26c-3.7-.79-5.74-3.52-5.83-7.46s-.08-7.58,0-11.37a7.5,7.5,0,0,1,5.72-7.47,12.18,12.18,0,0,1,8.42.31,7.21,7.21,0,0,1,4.8,7C147.94,11.14,147.91,13.09,147.91,15Zm-4.78-.1c0-1.79,0-3.59,0-5.38-.08-2.62-1.79-4-4.77-4s-4.53,1.45-4.56,4c0,3.58,0,7.17,0,10.75,0,2.77,1.51,4,4.63,4.05s4.66-1.19,4.71-4.09C143.15,18.52,143.13,16.73,143.13,14.93Z" transform="translate(-0.87 -1.27)"/><path class="cls-1" d="M153.5,1.72h4.7c0,.57.07,1.1.07,1.64,0,5.54,0,11.07,0,16.61,0,3,1.41,4.43,4.41,4.44s4.57-1.45,4.58-4.48c0-6,0-12,0-18.11H172c0,.5.07,1,.07,1.58q0,7.77,0,15.53c0,7.19-4.27,10.76-11.46,9.6-4.76-.77-7.2-3.6-7.22-8.42q0-8.38,0-16.76C153.43,2.84,153.47,2.34,153.5,1.72Z" transform="translate(-0.87 -1.27)"/><path class="cls-1" d="M96.06,28c-.28.17-.33.21-.37.21-4.39.31-4.37.3-5.46-4-.69-2.71-.14-2.29-3-2.31-1.48,0-3.35-.48-4.34.23s-1.18,2.6-1.4,4a2.51,2.51,0,0,1-1,1.93,3.57,3.57,0,0,1-1.89.18c-.65,0-1.3-.09-2-.09-.44,0-.45.06-.42-.37a5.07,5.07,0,0,1,.18-1C78.52,19,80.67,11.06,82.74,3.14c.32-1.23.86-1.64,2.1-1.54s2.76,0,4.3,0ZM83.57,18h5.06L86.3,7.17l-.33,0Z" transform="translate(-0.87 -1.27)"/><path class="cls-1" d="M51.49,34.83c0,4.72.07,9.22,0,13.72A3.41,3.41,0,0,1,48,51.84a53.49,53.49,0,0,1-9.4-1,6,6,0,0,1-5-5.25c-.37-2.78,1.12-4.71,3.18-6.24,3.38-2.51,7.35-3.53,11.43-4.17C49.23,35,50.26,34.95,51.49,34.83Z" transform="translate(-0.87 -1.27)"/><path class="cls-1" d="M193.6,4.89l-2.51,3.24a28.6,28.6,0,0,0-4.18-2.37c-2.28-.84-4.2.4-4,2.42a3.23,3.23,0,0,0,1,1.94,25.93,25.93,0,0,0,3.3,2.21c1.17.73,2.43,1.33,3.56,2.11A7.38,7.38,0,0,1,194,23.13a7.91,7.91,0,0,1-1.84,3.27c-3.27,3.41-12.53,3.13-15-2.69l3.52-2.77.8,1.15a5.26,5.26,0,0,0,5.81,2.11,2.69,2.69,0,0,0,1.48-4.53,13.68,13.68,0,0,0-2.82-2.07c-1.55-1-3.21-1.81-4.7-2.88a7.51,7.51,0,0,1-3.18-7.23,6.13,6.13,0,0,1,2.49-4.57C184.34.12,190.68,1.06,193.6,4.89Z" transform="translate(-0.87 -1.27)"/><path class="cls-1" d="M74.1,1.79v4.1H65.84v6.79H72.7v4H65.79V28.14H61.18V1.79Z" transform="translate(-0.87 -1.27)"/><path class="cls-1" d="M124.86,40.43c-1.06,3.36-2.13,6.71-3.17,10.08-.27.87-.49,1.52-1.69,1.51s-1.28-.75-1.5-1.53l-3.73-13.73h2.31L120,48.53l.29.07c.18-.48.37-1,.52-1.46q1.4-4.55,2.79-9.1c.22-.72.31-1.42,1.43-1.41s1.16.77,1.38,1.47c1.13,3.49,2.25,7,3.69,10.48q.85-3.47,1.69-6.95a24.84,24.84,0,0,0,.7-3.14c.18-1.68,1-2.2,2.71-1.64-.68,2.52-1.38,5.06-2.06,7.61q-.84,3.11-1.67,6.23c-.19.7-.32,1.31-1.34,1.31a1.5,1.5,0,0,1-1.68-1.32c-1-3.42-2.13-6.81-3.2-10.22Z" transform="translate(-0.87 -1.27)"/><path class="cls-1" d="M70.67,44.76c.11-7.3,5-9.19,9.85-7.79a4.27,4.27,0,0,1,.57.22c3.63,1.65,5.06,7.44,2.85,11.58-1.77,3.32-6.67,4.54-10,2.44C71.37,49.62,70.75,47.09,70.67,44.76Zm11.59-.34c0-2.83-1.39-6.15-4.53-6.09A3.83,3.83,0,0,0,74,41a9,9,0,0,0,.1,7,3.75,3.75,0,0,0,3.61,2.39,3.94,3.94,0,0,0,3-1.19A7,7,0,0,0,82.08,46,7.23,7.23,0,0,0,82.27,44.42Z" transform="translate(-0.87 -1.27)"/><path class="cls-1" d="M94.06,36.54c4.5,0,7.25,3,7.23,7.87s-2.74,7.75-7.17,7.8S87,49.21,87,44.4,89.65,36.56,94.06,36.54Zm-4.42,7.82a11.48,11.48,0,0,0,.37,2.4,5.81,5.81,0,0,0,1.07,2.32,3.88,3.88,0,0,0,3.07,1.29A3.76,3.76,0,0,0,97.8,48a8.71,8.71,0,0,0,0-7.42,3.78,3.78,0,0,0-3.68-2.29,3.84,3.84,0,0,0-3,1.3A6.75,6.75,0,0,0,89.64,44.36Z" transform="translate(-0.87 -1.27)"/><path class="cls-1" d="M150.23,44.68H140.11c-.74,3.24.27,5,3.35,5.32a30.76,30.76,0,0,0,5.7-.45l.1-.46.79,1.34c-2.77,2.36-8.61,2.32-11-.2a6.47,6.47,0,0,1-1.48-3.39,33.37,33.37,0,0,1-.06-5.21,4.48,4.48,0,0,1,2.14-3.86,7.62,7.62,0,0,1,8.15-.42C150.19,38.61,150.9,40.81,150.23,44.68Zm-2.13-1.86c.33-1.8-.16-3.12-1.67-3.89a4.89,4.89,0,0,0-5.09.24A3.06,3.06,0,0,0,140,42.82Z" transform="translate(-0.87 -1.27)"/><path class="cls-1" d="M162.2,42.89c.25-2,0-4.32-2.41-4.54a9.14,9.14,0,0,0-2.88.26c-.2,0-2.58.75-2.6.71-.47-1.29,0-2.09,1.32-2.26a31.34,31.34,0,0,1,5-.43c3,.12,4.12,1.39,4.17,4.36,0,2.41,0,4.82,0,7.23,0,1.75.45,2.12,2.57,2.24-.25.55-.34,1.22-.68,1.4-1.42.74-2.88.11-4.15-1.71.13.19-1.78,1-1.94,1-1.53.47-3.36,1.16-5,.71a4.08,4.08,0,0,1-.75-7.44,16.16,16.16,0,0,1,5.24-1.49A19.29,19.29,0,0,1,162.2,42.89Zm.14,3.72c-.06-.8-.25-2.18-.61-2.14a16.39,16.39,0,0,0-5.24,1.16c-1.57.77-1.33,3.2.17,4.08s2.94.34,4.29-.33a2.55,2.55,0,0,0,1.4-2.26C162.36,47,162.36,46.86,162.34,46.61Z" transform="translate(-0.87 -1.27)"/><path class="cls-1" d="M69.06,36.66,69,38.39H65.42V51.83H63V38.54l-2-.23L61,36.79l2-.21c0-2-.13-4.15,2-5.3s4-.78,6.28-.21c-.1.51-.23,1-.3,1.53,0,.11-1.35-.28-1.76-.28A3.24,3.24,0,0,0,66,33.56c-.66.73-.61,2.24-.8,3.11Z" transform="translate(-0.87 -1.27)"/><path class="cls-1" d="M112.81,49.72l.46,1.57a8.19,8.19,0,0,1-6.26.33,3.13,3.13,0,0,1-1.9-3.23c0-2.71,0-5.43,0-8.14,0-.55,0-1.1,0-1.72l-2.31-.24V36.79l2.24-.2V32.84h2.3v3.82h4.48l.11,1.73h-4.5c0,3.44-.06,6.69,0,9.95a1.72,1.72,0,0,0,1.93,1.61C110.45,49.95,111.52,49.81,112.81,49.72Z" transform="translate(-0.87 -1.27)"/><path class="cls-1" d="M178.21,38.72c-4.35.22-5.45,1.41-5.45,5.72q0,3.53,0,7.05a1.52,1.52,0,0,1-.14.38h-2.11V36.78h1.86l.28,2.41c1.47-2.26,3.26-3.29,5.84-2.57Z" transform="translate(-0.87 -1.27)"/></g></svg>