<svg id="Layer_1" data-name="Layer 1" xmlns="http://www.w3.org/2000/svg" viewBox="0 0 481.13 291.5"><defs><style>.cls-1{fill:#fff;}.cls-2{fill:#ed1b34;}</style></defs><title>foot_locker_221f1e</title><path class="cls-1" d="M373.56,151.67c0-.12-13.24-18.62-13.24-18.62s-11.5-9.76-15.06-13.05l-4.06-5.37L321.65,101.3s-16-7.22-23.33-10.7a81.36,81.36,0,0,0-13.55-5c-1.2-.35-4.62-1.88-5.73-2.37a8.23,8.23,0,0,0,3.66-6.44,10.37,10.37,0,0,0-1.34-5.28l2.77-4.23c.14-.21-1-4.6-1.09-5.44,1.08-.6,3.48-4.33,3.48-4.33l1-2c.11-.22-2.06-5.64-2.06-5.64s-2.79-2.36-4-3.31c-.23-4.78-2.54-11.61-2.63-11.89.31-1.08,2.77-7,2.77-7a4.22,4.22,0,0,0,.14-3c-1.75-7.26-2.57-9.4-4.23-10.65l-3.35-2.9a6.92,6.92,0,0,0-1.7-.06l-6.27.35a44.52,44.52,0,0,0-12-3.44c-3.09-.31-11.24,2-12,2.18a56.25,56.25,0,0,1-7.87.66A4.1,4.1,0,0,0,231.53,12l-4.39,3.51-5.71,3-1.43.77a12.57,12.57,0,0,0-.92,1.71,12.53,12.53,0,0,1-5.3,5.77l-1,1.2-.54.63L208.26,39.9c-.06.16,7.18,26.91,7.18,26.91L223,77.69l.87.75-5.41,4.36c-8.11,1.76-20.34,2.88-20.87,2.93l-.33,0h.36a3.88,3.88,0,0,0-2,.55l-27.82,14.42c-2.11,1.09-27.18,16.18-27.18,16.18l-14.63,10.77c-.09.07-4.82,8.26-4.82,8.26s-.42,12.84-.42,12.84,8,16.06,8,16.06L141.72,178s42.25,25.73,47.63,29l.87,1.09-4.12,11.53H296.24l.37-4.75,4.93-1.35c.12,0,55.3-33.23,55.3-33.23l18.32-18.62C375.36,161.52,373.56,151.67,373.56,151.67Zm-190.49-9.29,3-1.05v0l1.43,10.81c0,.21,4.27,17.52,4.27,17.52l-.2,5.11-6.64-4.59-6.62-7.1-6.53-12.39,5.3-1.88C177.2,148.8,181.71,143.87,183.08,142.38ZM304.9,177.33l-3.27,2.47,7.2-30.84,10.78,5.33h0l4.22,4.59Zm3.67-28.59h0v-.09l0,0ZM277.33,13.91h0ZM215.38,26.43h0Z" transform="translate(-8.76 -7.95)"/><path d="M368.43,153.71l-12.3-17.22c-5.32-3.93-14.89-12.84-14.89-12.84l-3.83-5.06-18.17-12.43S303.52,99.05,296,95.5s-11.48-4.24-16.53-5.87c-2.8-.91,1.09-.68-9.7-3.83-7.52-2.19-3-3.83,1.64-5.19s5.74-2.32,5.87-4.24-1.64-4-1.64-4l.14-2.32,2.59-4a31.62,31.62,0,0,1-1.09-7.52A14.57,14.57,0,0,0,280.7,57l1-1.91L280.83,53l-4.78-4.1c.28-6.7-2.46-12-2.73-13.8s3.14-9.16,3.14-9.16-1.78-7.38-2.32-7.65l-2-1.78-7.24.41c-1.5-1.37-8.47-3.28-11.2-3.55s-6.83,1.23-10.11,2.05a45.28,45.28,0,0,1-8.61.82l-4.78,3.82L224,23.35c-3.42,7.24-7,8.2-7,8.2l-3.14,8.75L220.57,65l6.15,8.75,3,2.87v5.19l-1.64.14-7.38,5.87C212,89.9,198,91.13,198,91.13l-27.74,14.21-26.78,16.12-13.53,10-3.55,6.15-.27,10.11,7,13.94,12,12.16L193,202.9l3.42,4.1-2.6,7.24h9A26,26,0,0,0,204.59,204a17,17,0,0,0-2.46-7.79H191.47l-6.83-3.41c-13.25-9.71-15.44-8.48-30.47-20.09s-20.77-22.14-20.77-22.14L132,145.24l.41-6.29,1.64-3.41,6.83-6.56,11.48-6.15L154,123l2.46,3.69c-4.1,4.65-11.2,5.74-11.2,5.74L143.92,134l-.14,2.87,3.28,11.89s3.42,6.42,5.74,10.39,25.69,21.73,25.69,21.73,6.29,6.83,6.83,7.38,4.37,1,5.06.41c5.83-4.67,10.25-5.47,10.25-5.47l.55-15.17-3.28-22.68v-23.5L199,106.43l3.42-4.78c-1.5,10.11-.14,14.76-.14,14.76v72.15l3,4.78c1-14,1.31-25.42,1.79-34.57,1.42-27.48.81-35.25.81-35.25l-.82-8.88,1.23-6.15,4.92-7c-.82,7.11-1.37,9.43-1.91,19.4s-.41,28.56-.68,35.66-2.19,38.67-2.6,42-2,15.71-2,15.71h6.56c1.37-11.75.82-17.49,1.23-26.92s1.37-12.57,1.78-20-.27-23.64,2.6-49.33a103.55,103.55,0,0,1,3.83-18.72c.71-2.46,1.88-2,1.78-.14a39.1,39.1,0,0,0,.14,5.19L224,118l-3.28,43.59-.27,24.6-1.91,12.84.55,15.17h6.83l3.83-58.48,4.92-51.93,5.6-2.19L233,214.24h9.7L250,103.83l3-3.82,3,3-5.19,111.23h8.34L261,160.41l5.87,2.32-1.09,51.51h8.61V178.85l2.25-15.24c1.78.05,3.76-2.8,3.76-2.8l-3.15,53.43h5.61s5.19-75.43,5.74-89-3.83-26.51-3.83-26.51l4.51,4L292.59,128l-5.05,74.33L286,214.24h5.19l.27-3.55,7.52-2s6.7-6,54.11-32.25l16.4-16.67Zm-207-38.26,16.81-9.84L195.84,97l-1.64,3.28-23.09,13.39L162,117.5Zm11.89,19.27,16.53-13,4.37-.41.41,2.46-1,1.78L190,127.2l-7.93,6-7.38,3.28-.82,1.5-1.23-1.37Zm-2.87-6.83-2.73,1-2-1.5.14-2.46,3.83-3.69,24.6-13.25.27,2.32-1.37,1.64Zm26.37,51.79-2.46,1.09h-3.69l-9.29-6.42-7.52-8.06-9.29-17.62,1.09-1.5,8.47-3,5.88-6.42,11.2-4,.68,1-.41,7,1.37,9.57,4.37,17.9Zm80.89-72.42,4.1-2.6-.68,25.28H277Zm-11.75-4.1,4.1,8.2.27,5.47-.68,13h-6.56l1.77-26.51ZM243.8,125.06a1.55,1.55,0,1,1,1.55-1.55A1.55,1.55,0,0,1,243.8,125.06Zm1-17.82a1.35,1.35,0,1,1,1.35-1.35A1.35,1.35,0,0,1,244.76,107.24Zm14.12-33.83-12,.36-4.74,2.92v2l6.19,4.92s-.55,6.74-.55,8.56-3.1-.36-3.1-.36l-12-7.29.36-7.29,1.46-.37,2.92-14-4-5.65L233,51l2-2.37,4.19-.73,5.47,4.56h2.73l1.27-5.65L260,39.88h7.66a24.81,24.81,0,0,1,1.64,2c.18.37-.91,1.09-.91,1.09l-8.56,4,2,3.46,7.65,1.28,4.92-1.09,3.46,3.1-2.91,2.19L272.36,57l2.55,2.73V61l-4.19.73-2.37,2.74s-.18,1.82.18,2.18,2.37-.18,3.46-.73,2.18.18,2,.91-1.82.91-2.55,1.09-1.64,2.37-1.46,2.91,1.09,0,1.09,0a27.19,27.19,0,0,1,1.46,3.1c.36,1.09-2.37,1.64-2.37,1.64Zm23.73,65.33H262.93v-1.68h19.68Zm0-3.89H262.93V132.8h19.68Zm18.58-34,21.59,13.8,9.29,6.83-1.5,1.09-5.06-1.5s-6.7-4.65-9.56-7a111,111,0,0,0-10.79-7.38,31.65,31.65,0,0,0-10-3.83l-.41-3Zm-4.37,31.7s0-2.6,1.64-.68c1,1.09,1.23,5.74,1.23,5.74l-1.64,17.08-3,12,.55-12.71L297,141.82Zm1.23-9.7,20.77,13,1.64,2.73L318,140.32l-13.25-6.42Zm4.51-5.33-3.14-.14-3.28-2.46-.82-4.1h2.46l7.1,3,20.63,14.35-.27,1.78-1.5.55-2.6-.27Zm-5.19,57.8,5.88-26.78.27-6.42,7.24,1.78,12.16,6,7.92,8.47-1.09,2.32-21.32,20.77-7.24,5.47-8.06,1.37Zm52.88-15.71-23.37,21.59L293.13,200l.27-8.75,9.57-1.23,15.58-12.71,18.86-18.58-11.48-11.61,7.24-10.52,3.14.14,14.62,19ZM240.11,50.45l1.46,3.28-.73,3.46-1.64.36-1.82-1.64-.73-2-1.64.18-.73-1.64,1.09-2.19,2.55-.18Z" transform="translate(-8.76 -7.95)"/><path class="cls-2" d="M174.78,283a3.89,3.89,0,0,1-3.89-3.9V267.7h6.6V251.94h-6.6l-.09-15.7H153.34v15.7h-7V267.7h7V290a8.74,8.74,0,0,0,8.74,8.75h18.67V283Z" transform="translate(-8.76 -7.95)"/><path class="cls-2" d="M233,279.08V231.82H215.52V290a8.74,8.74,0,0,0,8.74,8.75h25.63V283h-13A3.89,3.89,0,0,1,233,279.08Z" transform="translate(-8.76 -7.95)"/><path class="cls-2" d="M465.16,250.69a8.74,8.74,0,0,0-8.74,8.74v39.31h17.52V270.3a3.9,3.9,0,0,1,3.9-3.9h9.29V250.69Z" transform="translate(-8.76 -7.95)"/><path class="cls-2" d="M30.18,247.81h13V232.08H17.51a8.75,8.75,0,0,0-8.74,8.74v57.92H26.29V275H35.6V259.25H26.29v-7.54A3.9,3.9,0,0,1,30.18,247.81Z" transform="translate(-8.76 -7.95)"/><path class="cls-2" d="M39.91,274.74A24.59,24.59,0,1,1,64.5,299.33,24.58,24.58,0,0,1,39.91,274.74Zm24.59,7.1a7.1,7.1,0,1,0-7.1-7.1A7.1,7.1,0,0,0,64.5,281.84Z" transform="translate(-8.76 -7.95)"/><path class="cls-2" d="M93.85,274.74a24.59,24.59,0,1,1,24.59,24.59A24.58,24.58,0,0,1,93.85,274.74Zm24.59,7.1a7.1,7.1,0,1,0-7.1-7.1A7.1,7.1,0,0,0,118.43,281.84Z" transform="translate(-8.76 -7.95)"/><path class="cls-2" d="M253.78,274.74a24.58,24.58,0,1,1,24.58,24.59A24.58,24.58,0,0,1,253.78,274.74Zm24.58,7.1a7.1,7.1,0,1,0-7.1-7.1A7.1,7.1,0,0,0,278.37,281.84Z" transform="translate(-8.76 -7.95)"/><path class="cls-2" d="M338.91,278.56a7.1,7.1,0,1,1,0-7.64l14.73-9.41a24.59,24.59,0,1,0,0,26.46Z" transform="translate(-8.76 -7.95)"/><polygon class="cls-2" points="398.51 290.79 377.87 265.7 394.27 245.84 375.45 245.84 366.5 256.73 366.5 223.94 349.01 223.94 349.01 290.79 366.5 290.79 366.5 276.5 367.74 277.92 378.27 290.79 398.51 290.79"/><path class="cls-2" d="M432,281.12v0a8.06,8.06,0,0,1-11.31-1.54l31.1-6.93c-.08-2.86-1.72-8.5-5.08-13a25.22,25.22,0,0,0-18-9.55,24.69,24.69,0,0,0-26.38,24.65,24.74,24.74,0,0,0,39.73,19.69h0a24.86,24.86,0,0,0,5.86-6.35l-14-9A8.08,8.08,0,0,1,432,281.12Zm-12.65-8.69a7.81,7.81,0,0,1,5.5-5.4,8.27,8.27,0,0,1,8.26,2.32Z" transform="translate(-8.76 -7.95)"/><path class="cls-2" d="M480.86,294.33a4.52,4.52,0,1,1,4.52,4.49A4.47,4.47,0,0,1,480.86,294.33Zm8.34,0a3.82,3.82,0,1,0-3.82,3.8A3.83,3.83,0,0,0,489.2,294.33Zm-1.68,2.43h-.83l-1.47-2.27h-.83v2.27h-.69v-4.92h2.14c.89,0,1.75.24,1.75,1.3s-.68,1.32-1.55,1.35Zm-2.3-3c.61,0,1.68.12,1.68-.67,0-.5-.67-.6-1.2-.6h-1.31v1.27Z" transform="translate(-8.76 -7.95)"/></svg>