<svg id="Layer_1" data-name="Layer 1" xmlns="http://www.w3.org/2000/svg" viewBox="0 0 175.75 32.66"><defs><style>.cls-1{fill:#fff;fill-rule:evenodd;}</style></defs><title>Frys</title><path class="cls-1" d="M8.51,31h-4V18.34H0l2.33-4H4.46V6.4s.21-.89,1-.89H20.17l-2.4,4H9.33a.84.84,0,0,0-.75.41v4.32h6.59l-2.4,4.12H8.51V31Z" transform="translate(0 -5.51)"/><path class="cls-1" d="M11.05,31V21.09s.21-.89,1-.89h7.68l-2.4,3.91H15.92a.84.84,0,0,0-.75.41V31Z" transform="translate(0 -5.51)"/><path class="cls-1" d="M20.66,29.86V20.19h4.19v6.65s-.14.62.34.62h1.3V20.19H30.6V33.64l-3.09,4.53h-1V31h-4.8c-1,0-1.1-1.17-1.1-1.17Z" transform="translate(0 -5.51)"/><polygon class="cls-1" points="31.97 14.68 35.2 14.68 32.93 18.39 32 18.39 31.97 14.68 31.97 14.68"/><path class="cls-1" d="M37.12,20.19H47.27l-2.2,4H40.41s-.41.07-.41.34v.55h5.83v4.68a1,1,0,0,1-1,1.28H34.95l2.33-3.72h4.25a.55.55,0,0,0,.55-.41v-.64h-5s-.87-.27-.87-1V21.18c0-.78.93-1,.93-1Z" transform="translate(0 -5.51)"/><path class="cls-1" d="M51.33,25.71c0-3.89,4.76-5.58,7.14-5.58h3.89V22H59c-4.07,0-4.85,2.74-4.85,2.74H62.3v1.92H54.12s.78,2.74,4.85,2.74h3.39v1.88H58.46c-2.38,0-7.14-1.69-7.14-5.58Z" transform="translate(0 -5.51)"/><path class="cls-1" d="M72.94,25.71c0-3.89,4.76-5.58,7.14-5.58H84V22H80.58c-4.07,0-4.85,2.74-4.85,2.74h8.19v1.92H75.73s.78,2.74,4.85,2.74H84v1.88H80.08c-2.38,0-7.14-1.69-7.14-5.58Z" transform="translate(0 -5.51)"/><path class="cls-1" d="M84.74,25.71c0-3.89,4.76-5.58,7.14-5.58h3.89V22H92.38c-4.07,0-4.85,2.74-4.85,2.74l-.19.84.19,1.08s.78,2.74,4.85,2.74h3.39v1.88H91.87c-2.38,0-7.14-1.69-7.14-5.58Z" transform="translate(0 -5.51)"/><path class="cls-1" d="M152,25.71c0-3.89,4.76-5.58,7.14-5.58H163V22h-3.38c-4.07,0-4.85,2.74-4.85,2.74l-.19.84.19,1.08s.78,2.74,4.85,2.74H163v1.88h-3.89c-2.38,0-7.14-1.69-7.14-5.58Z" transform="translate(0 -5.51)"/><path class="cls-1" d="M66.15,20.12H63.63v8.5c0,.87,1.42,2.65,3.48,2.65H74V29.4H67.38c-.69,0-1.19-.78-1.19-.78l0-8.5Z" transform="translate(0 -5.51)"/><polygon class="cls-1" points="96.43 14.62 108.09 14.62 108.09 16.54 103.38 16.54 103.38 25.77 100.87 25.77 100.87 16.58 96.43 16.58 96.43 14.62 96.43 14.62"/><path class="cls-1" d="M111.32,31.27h-2.58V20.12h7.46s3.8.23,3.8,3-3.07,3.11-3.07,3.11l3.69,5H117.5l-3.78-4.93h-2.38l0,4.93Zm5.06-6.62a1.59,1.59,0,0,0,1.28-1.42c0-1-1.46-1.19-1.46-1.19h-4.87v2.61Z" transform="translate(0 -5.51)"/><path class="cls-1" d="M139.34,31.28h-2.56V20.13h7.64c.64,0,3.29.59,3.29,3.06v8.08h-2.56V23.34A1.37,1.37,0,0,0,143.77,22h-4.44v9.31Z" transform="translate(0 -5.51)"/><polygon class="cls-1" points="148.44 14.62 150.91 14.62 150.91 25.77 148.44 25.77 148.44 14.62 148.44 14.62"/><path class="cls-1" d="M164.31,31.27V29.41h6.82s2,0,2-1.51c0-1.19-2.06-1.64-2.06-1.64h-4s-3-.46-3-3,3.06-3.16,3.06-3.16h7.27V22h-6.86s-1.28.18-1.28,1.19,1.24,1.1,1.24,1.1h3.8s4.53.82,4.53,3.52-2.93,3.43-4.35,3.43Z" transform="translate(0 -5.51)"/><path class="cls-1" d="M128.59,20.11c3.93,0,7,3,7,5.63s-2.47,5.72-7,5.72c-5,0-7.55-3.11-7.55-5.58s2.38-5.76,7.59-5.76Zm-5.08,5.72c0,1.88,2.24,3.71,4.85,3.71s4.94-1.74,4.94-3.61c0-2.15-2.52-4-4.8-4-3.16,0-5,2.06-5,3.93Z" transform="translate(0 -5.51)"/></svg>