<svg id="Layer_1" data-name="Layer 1" xmlns="http://www.w3.org/2000/svg" viewBox="0 0 308.42 76.48"><defs><style>.cls-1{fill:#fff;}.cls-2{fill:#ed1c24;}.cls-3{fill:#ee3124;}</style></defs><title>Gamestop_000000</title><path class="cls-1" d="M60,45a10.61,10.61,0,0,1-.41,3.9,1.85,1.85,0,0,1-1.77.74,1.94,1.94,0,0,1-1.91-.94,11.24,11.24,0,0,1-.48-4.21A13.07,13.07,0,0,1,56,40.21q.55-1.5,4-3.75ZM55.44,26.29a15.3,15.3,0,0,1,.36-4.38c.24-.56.85-.84,1.83-.84a1.93,1.93,0,0,1,1.84,1A10.46,10.46,0,0,1,60,26.36a7.81,7.81,0,0,1-.51,3.48q-.51.86-7.73,3.33-6.76,2.29-8.46,4t-1.71,6.4V47q0,6.36,3.21,8.23a13.76,13.76,0,0,0,7.06,1.87A10.7,10.7,0,0,0,56.93,56a8.7,8.7,0,0,0,3.47-3.39v3.75H74.71V35.29q0-10.42-.76-13.75T69.4,15.92q-3.78-2.29-11.23-2.29a21.86,21.86,0,0,0-10.1,2,11.22,11.22,0,0,0-5.18,4.67,17.61,17.61,0,0,0-1.29,7.53v1.86H55.44Z" transform="translate(-2.54 -3.99)"/><path class="cls-1" d="M92.87,14.39l-.29,4a11.27,11.27,0,0,1,4.08-3.57,11.87,11.87,0,0,1,5.4-1.19,10.82,10.82,0,0,1,9.3,4.76,12.65,12.65,0,0,1,4.18-3.57,12.4,12.4,0,0,1,11.36.39,7.08,7.08,0,0,1,3.15,3.88,28.8,28.8,0,0,1,.69,7.46V56.36H116.44V29a30.6,30.6,0,0,0-.41-6.64,1.8,1.8,0,0,0-1.92-1.29,1.88,1.88,0,0,0-2,1.27q-.45,1.28-.45,6.66V56.36H97.36V29.69A42.18,42.18,0,0,0,97,22.3a1.73,1.73,0,0,0-1.91-1.24,2.44,2.44,0,0,0-2.44,2.24c-.05.62-.07,1.95-.07,4V56.36H78.28v-42Z" transform="translate(-2.54 -3.99)"/><path class="cls-1" d="M149,29.27V26.22a14.42,14.42,0,0,1,.37-4.35q.37-.8,1.94-.8A1.63,1.63,0,0,1,153,22a13.35,13.35,0,0,1,.41,4.21v3.05Zm19.08,1.29q0-6.12-1.62-9.49a12,12,0,0,0-5.65-5.41,22.58,22.58,0,0,0-10.22-2,22.28,22.28,0,0,0-9,1.69A11.07,11.07,0,0,0,136,20.2a18.42,18.42,0,0,0-1.71,8.68V41.11a25.39,25.39,0,0,0,.76,7.15,11.17,11.17,0,0,0,2.75,4.5,13.35,13.35,0,0,0,5.56,3.2,26.53,26.53,0,0,0,8.23,1.17,23.37,23.37,0,0,0,8-1.18,12.79,12.79,0,0,0,5.27-3.54A11.59,11.59,0,0,0,167.5,48a24.26,24.26,0,0,0,.57-6V38.9H154.14v5.5a10.27,10.27,0,0,1-.57,4.2,2.32,2.32,0,0,1-2.26,1.09,2,2,0,0,1-1.84-.82,8.66,8.66,0,0,1-.48-3.65V36.14h19.08Z" transform="translate(-2.54 -3.99)"/><path class="cls-2" d="M225.73,8.76v5.18h4v6.68h-4V44.49q0,4.15.5,4.63c.34.31,1.73.47,4.18.47v6.78h-5.95a51,51,0,0,1-7.19-.35,7.94,7.94,0,0,1-3.79-1.67,5.52,5.52,0,0,1-2-3,45.74,45.74,0,0,1-.4-8V20.62h-3.14V13.94H211V8.76Z" transform="translate(-2.54 -3.99)"/><path class="cls-2" d="M251.71,45.32a9.17,9.17,0,0,1-.43,3.55,1.81,1.81,0,0,1-1.77.82,1.75,1.75,0,0,1-1.75-.91,10.46,10.46,0,0,1-.45-3.86V26a11,11,0,0,1,.45-4.07,1.83,1.83,0,0,1,1.79-.84,1.75,1.75,0,0,1,1.75.84,12,12,0,0,1,.41,4.07Zm14-22.85A11.43,11.43,0,0,0,263,18.23a13.74,13.74,0,0,0-5.49-3.33A25.39,25.39,0,0,0,249,13.63a20.88,20.88,0,0,0-9.71,2,11,11,0,0,0-5.25,5.28A23.15,23.15,0,0,0,232.62,30V40.82a29.83,29.83,0,0,0,.8,8,10.66,10.66,0,0,0,2.68,4.55,11.69,11.69,0,0,0,5.28,2.8,31.76,31.76,0,0,0,8.27.93A25.17,25.17,0,0,0,257.41,56a12.81,12.81,0,0,0,5.52-3.38,11.11,11.11,0,0,0,2.81-4.93,37.55,37.55,0,0,0,.66-8.32V29.13a23.19,23.19,0,0,0-.71-6.66" transform="translate(-2.54 -3.99)"/><path class="cls-2" d="M203.29,32.33q-2.66-3.42-12.87-8.75-3.56-1.84-4.34-3.14a7.09,7.09,0,0,1-.82-3.83,5.08,5.08,0,0,1,.71-3,2.41,2.41,0,0,1,2.09-1,2.11,2.11,0,0,1,1.81.73q.55.73.54,3.38v3.81h14.22v-2q0-6.11-1.36-8.66t-5.56-4.22A27.41,27.41,0,0,0,187.54,4a25.16,25.16,0,0,0-9.3,1.53,11.21,11.21,0,0,0-5.58,4.26q-1.73,2.73-1.72,8.63a16,16,0,0,0,1.21,6.7,11.26,11.26,0,0,0,3.07,4.12A69.12,69.12,0,0,0,182.78,34a47.18,47.18,0,0,1,7.16,4.67q1.42,1.42,1.42,5.93a5.36,5.36,0,0,1-.74,3.09,2.58,2.58,0,0,1-2.27,1.05,2.45,2.45,0,0,1-2.12-.82q-.6-.81-.6-3.73V38.88H171.41V41.3a23.43,23.43,0,0,0,1.35,8.93q1.35,3.13,5.7,5.16a24.75,24.75,0,0,0,10.5,2,25.56,25.56,0,0,0,9.82-1.75q4.22-1.75,5.7-4.35t1.47-8.06q0-7.54-2.66-10.92" transform="translate(-2.54 -3.99)"/><path class="cls-2" d="M289,44.51a15.46,15.46,0,0,1-.34,4.24q-.34.86-1.74.86a1.82,1.82,0,0,1-1.86-1,15.23,15.23,0,0,1-.43-4.73V26.57a15,15,0,0,1,.41-4.59,1.78,1.78,0,0,1,1.85-1c1,0,1.57.28,1.79.83a18.81,18.81,0,0,1,.32,4.71ZM269.8,14.42V62.21h14.85V52.6a13.26,13.26,0,0,0,4.27,3.27A11.85,11.85,0,0,0,294,57a11.41,11.41,0,0,0,5.86-1.43,6.86,6.86,0,0,0,3.21-3.84,29.31,29.31,0,0,0,.79-8.13V26a27.74,27.74,0,0,0-.62-7,6.82,6.82,0,0,0-3.13-3.66,10.84,10.84,0,0,0-5.93-1.59,12.22,12.22,0,0,0-5.19,1.1,13.22,13.22,0,0,0-4.35,3.33l.25-3.69Z" transform="translate(-2.54 -3.99)"/><path class="cls-1" d="M38.22,23.93H22.86V19.28a20.08,20.08,0,0,0-.44-5.5,2,2,0,0,0-2.08-1.11,2,2,0,0,0-1.94,1c-.34.65-.51,2.26-.51,4.86v24.6a12.81,12.81,0,0,0,.51,4.55,2,2,0,0,0,2,1.09,2.29,2.29,0,0,0,2.28-1.24,12.58,12.58,0,0,0,.6-4.8V36.62H20.29v-7H38.22V56.36H28.53l-1.43-3.64a9.91,9.91,0,0,1-4,3.53,12.73,12.73,0,0,1-5.63,1.16,16.45,16.45,0,0,1-7.23-1.62,13.17,13.17,0,0,1-5.12-4A11.92,11.92,0,0,1,3,46.69a52.65,52.65,0,0,1-.44-7.92V23.55a44.7,44.7,0,0,1,.91-10.69q.91-3.33,5.24-6.11T19.87,4a23.38,23.38,0,0,1,11.2,2.4q4.45,2.4,5.8,5.71t1.35,9.61Z" transform="translate(-2.54 -3.99)"/><polygon class="cls-1" points="302.54 68.52 302.54 66 301.6 66 301.6 65.66 303.86 65.66 303.86 66 302.92 66 302.92 68.52 302.54 68.52"/><path class="cls-1" d="M306.78,72.51V69.65h.57l.67,2,.14.42.15-.46.69-2h.5v2.86h-.36V70.12l-.84,2.39H308l-.82-2.43v2.43Z" transform="translate(-2.54 -3.99)"/><path class="cls-1" d="M298.09,72c.49.38,1.53.52,3.39.46V71.7c0-.82-1.29-1.59-3.83-1.59h-5.41c-2,0-3.74.46-3.74,1.72V73c0,1.39,1.64,1.56,3.82,1.56h5.33V76h-5.33a1.93,1.93,0,0,0-.27-.38c-.66-.54-1.21-.46-3.55-.46v.41c0,1.5,1.78,1.8,3.82,1.8h5.41c1.91,0,3.75-.41,3.75-1.67v-1c0-1.23-1.7-1.53-3.69-1.53h-5.47V71.67h5.49a.63.63,0,0,0,.28.33m-13.85,1.12v-.85c0-1.61-2.9-2.08-5.16-2.08a7.55,7.55,0,0,0-3.39.77,5.93,5.93,0,0,0-2-.66,6,6,0,0,0-1-.11h-.55v7.13H276V71.67h4.43c0,1.2,1.17,1.45,2.95,1.45ZM264,73.17h-5.57v-1.5H264ZM267.81,76h-9.4V74.56h5.66c2.27,0,3.74-.46,3.74-1.45V71.7c0-.79-1.8-1.5-3.77-1.5h-5.6c-1.07,0-3.8.3-3.8,1.64V75.6c0,1.07,1.86,1.72,3.77,1.72H264c1.69,0,3.82-.71,3.82-1.37m-17.64,2.92V70.19h-3.77V76h-5.57V71.7c0-1.67-2.71-1.45-3.83-1.5v5.19c0,1.72,1.39,1.94,3.66,1.94h5.74v1.61h-1.56a7.76,7.76,0,0,0-2.62.24c-.74.3-1,.6-1,1v.27h5.19c2,0,3.74-.47,3.74-1.59M228.71,76h-5.55V74.54h5.55Zm3.8,1.37V71.7c0-.74-1.34-1.5-3.36-1.5h-8.86v.14c.11.74.9,1.34,2.82,1.34h5.6v1.45h-6c-1.56,0-3.42,0-3.42,1.83v.54c0,1.34,1.31,1.83,3.61,1.83Zm-17.43-1.47V67.29h-3.77v10c2.79,0,3.77-.41,3.77-1.47M203,76h-5.57V71.67H203Zm3.8-.57V72.13s0-1.94-3.74-1.94h-9.45V80.47c1.72,0,3.82-.06,3.82-1.64v-1.5H203c2.13,0,3.77-.46,3.77-1.94m-29-2.21h-5.57v-1.5h5.57ZM181.67,76h-9.4V74.56h5.66c2.27,0,3.74-.46,3.74-1.45V71.7c0-.79-1.8-1.5-3.77-1.5h-5.6c-1.07,0-3.8.3-3.8,1.64V75.6c0,1.07,1.86,1.72,3.77,1.72h5.58c1.69,0,3.82-.71,3.82-1.37M164,77.32V72c0-1.23-2-1.78-3.69-1.78h-5.68v-2.9c-2.79,0-3.8.41-3.8,1.47v8.55h3.77V71.67h5.57v4.18c0,.77,1.45,1.47,3.44,1.47ZM146.62,76h-2.76V71.7c2.21,0,2.76-.79,2.76-1.48h-2.76V68.69c0-1.06-1-1.39-3.77-1.39v2.9h-2.24v1.47h2.24v4.15c0,1.23,1.39,1.5,3.14,1.5,2,0,3.39-.35,3.39-1.37m-23.81,0h-5.57V71.67h5.57Zm3.77-.71v-3c0-1.64-1.67-2.08-3.69-2.08h-5.77c-2,0-3.72.41-3.72,2v3c0,1.67,1.72,2.08,3.72,2.08h5.77c2,0,3.69-.38,3.69-2.08m-17.4.71h-2.76V71.7c2.21,0,2.76-.79,2.76-1.48h-2.76V68.69c0-1.06-1-1.39-3.77-1.39v2.9h-2.24v1.47h2.24v4.15c0,1.23,1.39,1.5,3.14,1.5,2,0,3.39-.35,3.39-1.37M89.56,73.12v-.85c0-1.61-2.9-2.08-5.17-2.08A7.55,7.55,0,0,0,81,71a5.94,5.94,0,0,0-2-.66,6,6,0,0,0-1-.11h-.55v7.13h3.83V71.67h4.43c0,1.2,1.18,1.45,3,1.45Zm-20.4.05H63.58v-1.5h5.57ZM73,76h-9.4V74.56h5.66c2.27,0,3.74-.46,3.74-1.45V71.7c0-.79-1.8-1.5-3.77-1.5h-5.6c-1.07,0-3.8.3-3.8,1.64V75.6c0,1.07,1.86,1.72,3.77,1.72h5.57c1.69,0,3.83-.71,3.83-1.37m-17.76-.68V70.22H51.39V76H49.32V70.19c-2,0-3.83.65-3.83,1.64V76h-2V71.48c0-.93-1.8-1.29-3.83-1.29v5.08c0,1.47,1.91,2,4.07,2a9.63,9.63,0,0,0,3.8-.57,12.24,12.24,0,0,0,3.91.57c2.16,0,3.74-.57,3.74-2M31.36,76H25.78V71.67h5.57Zm3.77-.71v-3c0-1.64-1.67-2.08-3.69-2.08H25.67c-2,0-3.72.41-3.72,2v3c0,1.67,1.72,2.08,3.72,2.08h5.77c2,0,3.69-.38,3.69-2.08M13.61,76H8V71.67h5.57Zm3.8-.57V72.13s0-1.94-3.74-1.94H4.21V80.47c1.72,0,3.83-.06,3.83-1.64v-1.5h5.6c2.13,0,3.77-.46,3.77-1.94" transform="translate(-2.54 -3.99)"/><path class="cls-3" d="M308.31,13.77a2.71,2.71,0,1,1-2.69,2.7,2.66,2.66,0,0,1,2.69-2.7Zm0,.42a2.29,2.29,0,0,0,0,4.57,2.29,2.29,0,0,0,0-4.57ZM307.8,18h-.48V15a5.36,5.36,0,0,1,.85-.07,1.58,1.58,0,0,1,.94.23.72.72,0,0,1,.28.62.75.75,0,0,1-.59.73v0c.26,0,.44.29.5.73a2.47,2.47,0,0,0,.19.74H309a2.23,2.23,0,0,1-.2-.77.56.56,0,0,0-.65-.53h-.34Zm0-1.67h.35c.4,0,.73-.14.73-.52s-.19-.53-.73-.53a2.3,2.3,0,0,0-.35,0Z" transform="translate(-2.54 -3.99)"/></svg>