<svg id="Layer_1" data-name="Layer 1" xmlns="http://www.w3.org/2000/svg" viewBox="0 0 183.65 32.15"><defs><style>.cls-1{fill:#fff;}</style></defs><title>gift_card</title><path class="cls-1" d="M30.88,41.51q0,.36-.23.45-1.18.86-2.27,1.56a11.33,11.33,0,0,1-2.47,1.18,17,17,0,0,1-3.22.73,33.54,33.54,0,0,1-4.42.25,18.94,18.94,0,0,1-6.6-1.07,12.74,12.74,0,0,1-4.83-3.08,13.27,13.27,0,0,1-3-5,20.47,20.47,0,0,1-1-6.71A18.43,18.43,0,0,1,4.06,23a14.11,14.11,0,0,1,3.33-5.06,14.28,14.28,0,0,1,5.06-3.11,18.49,18.49,0,0,1,6.37-1.07,14.47,14.47,0,0,1,4.15.59,24.25,24.25,0,0,1,3.65,1.41,5.78,5.78,0,0,0,1.59.54q.63.09,1-.82a.42.42,0,0,1,.29-.32,1.15,1.15,0,0,1,.5-.07,1,1,0,0,1,.43.14.26.26,0,0,1,.14.29,13.6,13.6,0,0,0-.29,3.85q.11,2.13.34,4.35a.52.52,0,0,1-.23.41,1.06,1.06,0,0,1-.5.23,1,1,0,0,1-.54-.07.49.49,0,0,1-.32-.39,9.12,9.12,0,0,0-3.38-6.05,11.17,11.17,0,0,0-7-2.11A8.21,8.21,0,0,0,14.08,17,9.92,9.92,0,0,0,11,20.07a14.06,14.06,0,0,0-1.77,4.31,20.69,20.69,0,0,0-.57,4.76,25.39,25.39,0,0,0,.66,6,14.34,14.34,0,0,0,2,4.63,9.19,9.19,0,0,0,3.15,3,8.66,8.66,0,0,0,4.31,1,19.12,19.12,0,0,0,3.22-.25,6.82,6.82,0,0,0,2.47-.88A4.33,4.33,0,0,0,26,40.9a6.22,6.22,0,0,0,.57-2.83,9.76,9.76,0,0,0-.18-2.13,2.08,2.08,0,0,0-.68-1.18,3,3,0,0,0-1.36-.57q-.86-.16-2.22-.29a.49.49,0,0,1-.45-.23.88.88,0,0,1-.14-.45,1,1,0,0,1,.11-.48.4.4,0,0,1,.39-.2q1.59,0,3.29.11t3,.11q.63,0,1.2,0l1.18-.07L32,32.58q.7,0,1.61,0a.37.37,0,0,1,.34.2,1,1,0,0,1,.11.48.76.76,0,0,1-.14.43.58.58,0,0,1-.41.25,5.52,5.52,0,0,0-1.54.32,1.62,1.62,0,0,0-.79.64,2.23,2.23,0,0,0-.29,1c0,.41,0,.9,0,1.47Z" transform="translate(-2.86 -13.54)"/><path class="cls-1" d="M43.67,39.66q0,1.13,0,1.9A3,3,0,0,0,44,42.83a1.81,1.81,0,0,0,.84.77,5.47,5.47,0,0,0,1.61.41.58.58,0,0,1,.41.25.83.83,0,0,1,.14.48.76.76,0,0,1-.14.43.46.46,0,0,1-.41.2,18.63,18.63,0,0,1-2.13-.16,22.39,22.39,0,0,0-2.68-.16,24.91,24.91,0,0,0-2.83.16,23.37,23.37,0,0,1-2.65.16.42.42,0,0,1-.36-.2.77.77,0,0,1-.14-.43.84.84,0,0,1,.14-.48.58.58,0,0,1,.41-.25,7.11,7.11,0,0,0,1.84-.41,2,2,0,0,0,1-.75,2.52,2.52,0,0,0,.34-1.18q0-.7,0-1.75v-7.3q0-1.95-.09-3.13a4.86,4.86,0,0,0-.41-1.79,1.68,1.68,0,0,0-1-.84,8.49,8.49,0,0,0-1.72-.36.45.45,0,0,1-.41-.23.83.83,0,0,1,0-.91.45.45,0,0,1,.41-.23l1.11-.09,1.38-.11c.48,0,1-.11,1.47-.18s.94-.16,1.34-.25a4.64,4.64,0,0,0,.79-.2,1.41,1.41,0,0,1,.48-.11c.36,0,.6.11.7.32a1.33,1.33,0,0,1,.16.59Zm-2.4-20.09a2.89,2.89,0,0,1-1.95-.7,2.21,2.21,0,0,1-.82-1.75,2.34,2.34,0,0,1,.77-1.77,2.67,2.67,0,0,1,1.91-.73,2.35,2.35,0,0,1,1.79.75,2.53,2.53,0,0,1,.7,1.79,2.36,2.36,0,0,1-.68,1.7A2.3,2.3,0,0,1,41.26,19.57Z" transform="translate(-2.86 -13.54)"/><path class="cls-1" d="M57.32,39.75a15.85,15.85,0,0,0,.09,1.88,2.32,2.32,0,0,0,.45,1.2,2.47,2.47,0,0,0,1.2.73A12.88,12.88,0,0,0,61.4,44a.58.58,0,0,1,.41.25.83.83,0,0,1,.14.48.76.76,0,0,1-.14.43.42.42,0,0,1-.36.2,29.72,29.72,0,0,1-3.24-.16,25.33,25.33,0,0,0-2.79-.16,26.75,26.75,0,0,0-2.9.16,26,26,0,0,1-2.81.16.46.46,0,0,1-.41-.2.76.76,0,0,1-.14-.43.83.83,0,0,1,.14-.48.62.62,0,0,1,.45-.25,8,8,0,0,0,1.88-.39,2,2,0,0,0,1-.7A2.42,2.42,0,0,0,53,41.74q.07-.72.07-1.86V27.46a1.67,1.67,0,0,0-.09-.75q-.09-.11-.68-.11H50a.44.44,0,0,1-.41-.25,1.07,1.07,0,0,1-.14-.52,1.15,1.15,0,0,1,.16-.59.61.61,0,0,1,.43-.32l2.45-.23a.81.81,0,0,0,.29,0,.35.35,0,0,0,.18-.2,1.42,1.42,0,0,0,.07-.52V22.83a10.84,10.84,0,0,1,.61-3.7,8.35,8.35,0,0,1,1.79-2.95,8.2,8.2,0,0,1,2.9-2,10.39,10.39,0,0,1,3.95-.7,11.19,11.19,0,0,1,2.24.23,6.43,6.43,0,0,1,2,.75A4.26,4.26,0,0,1,68,15.87a3.72,3.72,0,0,1,.54,2.06,1.85,1.85,0,0,1-.63,1.41,2.18,2.18,0,0,1-1.54.59A2.54,2.54,0,0,1,65,19.54a1.28,1.28,0,0,1-.61-1.16,1.32,1.32,0,0,1,.2-.88.71.71,0,0,0,.2-.52A1.48,1.48,0,0,0,64,15.62a3.81,3.81,0,0,0-2-.45,4.23,4.23,0,0,0-2.72.77,4.57,4.57,0,0,0-1.41,1.95,8.2,8.2,0,0,0-.52,2.56q-.07,1.38-.07,2.61v.86a1.34,1.34,0,0,0,.09.66c.06.08.26.11.59.11h4.4a.44.44,0,0,1,.41.29,1.65,1.65,0,0,1,0,1.32.44.44,0,0,1-.41.29H58q-.5,0-.59.11a1.65,1.65,0,0,0-.09.75Z" transform="translate(-2.86 -13.54)"/><path class="cls-1" d="M71.37,38.16a9.43,9.43,0,0,0,.57,3.76A2.07,2.07,0,0,0,74,43.15a6.06,6.06,0,0,0,2-.32,5.44,5.44,0,0,0,1.43-.68.34.34,0,0,1,.32,0,.79.79,0,0,1,.32.23,1.15,1.15,0,0,1,.2.34.33.33,0,0,1,0,.32A4.83,4.83,0,0,1,76,45a8.23,8.23,0,0,1-3.24.59q-3.08,0-4.35-1.38a6.25,6.25,0,0,1-1.27-4.33V28.23a6.58,6.58,0,0,0,0-.86.59.59,0,0,0-.27-.45,1.68,1.68,0,0,0-.75-.16l-1.47,0c-.09,0-.17-.09-.23-.27a2.32,2.32,0,0,1-.11-.59,1.5,1.5,0,0,1,.07-.59q.09-.27.27-.27a9.17,9.17,0,0,0,1.95-.34,3.4,3.4,0,0,0,1.38-.79,3.84,3.84,0,0,0,.91-1.47A12.78,12.78,0,0,0,69.38,20a.54.54,0,0,1,.36-.41,1.7,1.7,0,0,1,.68-.14,1.83,1.83,0,0,1,.66.11q.29.11.29.29v3.9a2.62,2.62,0,0,0,.07.84c0,.08.23.11.57.11h4.72a.41.41,0,0,1,.41.36,2.66,2.66,0,0,1,.09.63,2.4,2.4,0,0,1-.11.66.47.47,0,0,1-.48.39H71.78q-.32,0-.36.16a7.5,7.5,0,0,0,0,1.16Z" transform="translate(-2.86 -13.54)"/><path class="cls-1" d="M108.56,13.76a13.48,13.48,0,0,1,3.76.5,21.42,21.42,0,0,1,3.4,1.31l.93.43a1.79,1.79,0,0,0,.75.2q.73,0,1-.86a.41.41,0,0,1,.29-.27,1.16,1.16,0,0,1,.5-.07,1.22,1.22,0,0,1,.43.11.22.22,0,0,1,.14.27,9.62,9.62,0,0,0-.25,1.5q-.07.77-.07,1.59a17.89,17.89,0,0,0,.18,2.54q.18,1.27.36,2.63a.34.34,0,0,1-.2.29,1.21,1.21,0,0,1-.5.14,1.43,1.43,0,0,1-.57-.07.42.42,0,0,1-.32-.32,10.91,10.91,0,0,0-3.67-6,10.28,10.28,0,0,0-6.39-1.93A8.9,8.9,0,0,0,103.34,17a9.51,9.51,0,0,0-3.11,3.29,14,14,0,0,0-1.61,4.44,25.73,25.73,0,0,0-.45,4.74,24.2,24.2,0,0,0,.54,5.08,14.9,14.9,0,0,0,1.77,4.58,10.22,10.22,0,0,0,3.2,3.33,8.54,8.54,0,0,0,4.78,1.29,17.89,17.89,0,0,0,3.9-.39,6.39,6.39,0,0,0,2.9-1.43,9.86,9.86,0,0,0,2.31-3.15,15.35,15.35,0,0,0,1.22-4.15.46.46,0,0,1,.29-.41.87.87,0,0,1,.52,0,1.3,1.3,0,0,1,.5.25q.23.18.18.36-.14.91-.18,1.79t0,1.79q0,1.54.11,3.15t.2,3.38a.48.48,0,0,1-.18.41.83.83,0,0,1-.43.16.88.88,0,0,1-.48-.09.47.47,0,0,1-.27-.34,2.72,2.72,0,0,0-.32-.79,2,2,0,0,0-.59-.63,1.49,1.49,0,0,0-.86-.25,2.25,2.25,0,0,0-1,.32,20.2,20.2,0,0,1-1.93.93,12.26,12.26,0,0,1-1.88.61,13.73,13.73,0,0,1-2,.32q-1,.09-2.27.09-8,0-11.9-4t-3.88-11.5a18.88,18.88,0,0,1,1.22-7.05A14.61,14.61,0,0,1,97,18a14.14,14.14,0,0,1,5.12-3.15A19,19,0,0,1,108.56,13.76Z" transform="translate(-2.86 -13.54)"/><path class="cls-1" d="M139.71,40.24a5.81,5.81,0,0,0,.29,2.22,1.15,1.15,0,0,0,1.16.63A2.45,2.45,0,0,0,142,43a5.38,5.38,0,0,0,.91-.48.26.26,0,0,1,.29,0,.85.85,0,0,1,.27.25,1,1,0,0,1,.16.36.35.35,0,0,1-.09.34,5.28,5.28,0,0,1-4.17,2.13,3.62,3.62,0,0,1-2.25-.7,4.49,4.49,0,0,1-1.38-1.66c-.06-.15-.15-.17-.27,0a10.32,10.32,0,0,1-2.74,1.72,9.87,9.87,0,0,1-3.92.68,5.44,5.44,0,0,1-4-1.38,5.25,5.25,0,0,1-1.41-3.92,5.49,5.49,0,0,1,3-5q3-1.75,8.84-1.75c.06,0,.11-.08.14-.23a7.06,7.06,0,0,0,0-1V31a12,12,0,0,0-.18-2.13,5.42,5.42,0,0,0-.61-1.75,3.11,3.11,0,0,0-1.2-1.18,3.86,3.86,0,0,0-1.9-.43,5,5,0,0,0-2.72.66,2,2,0,0,0-1,1.7,1.73,1.73,0,0,0,.32,1,1.74,1.74,0,0,1,.32,1,1.69,1.69,0,0,1-.63,1.22,2.19,2.19,0,0,1-1.54.59,2.1,2.1,0,0,1-1.75-.66,2.51,2.51,0,0,1-.52-1.61,4,4,0,0,1,.63-2.15,5.74,5.74,0,0,1,1.72-1.75,9.37,9.37,0,0,1,2.54-1.16,10.62,10.62,0,0,1,3-.43,8.87,8.87,0,0,1,5.71,1.68q2.09,1.68,2.09,5.58Zm-4.26-4.49a2.32,2.32,0,0,0,0-.61c0-.08-.11-.11-.23-.11a11.51,11.51,0,0,0-5.51,1.56,3.9,3.9,0,0,0-1.11,5.49,2.62,2.62,0,0,0,2.27.93,6.62,6.62,0,0,0,2.2-.41,6.49,6.49,0,0,0,2.06-1.18,1,1,0,0,0,.36-.73Z" transform="translate(-2.86 -13.54)"/><path class="cls-1" d="M152.86,39.66q0,1.13.07,1.9a2.27,2.27,0,0,0,.48,1.27,2.6,2.6,0,0,0,1.27.77,12.08,12.08,0,0,0,2.49.41.58.58,0,0,1,.41.25.83.83,0,0,1,.14.48.76.76,0,0,1-.14.43.46.46,0,0,1-.41.2,33.17,33.17,0,0,1-3.45-.16,27.2,27.2,0,0,0-2.86-.16,26.12,26.12,0,0,0-2.88.16,26.16,26.16,0,0,1-2.88.16.41.41,0,0,1-.36-.2.76.76,0,0,1-.14-.43.83.83,0,0,1,.14-.48.58.58,0,0,1,.41-.25,8.06,8.06,0,0,0,2-.41,2.07,2.07,0,0,0,1-.75,2.54,2.54,0,0,0,.39-1.18q.07-.7.07-1.75V33.31q0-2.22-.09-3.51a5.62,5.62,0,0,0-.43-2,1.71,1.71,0,0,0-1.07-.93,9.28,9.28,0,0,0-2-.32.36.36,0,0,1-.34-.23,1,1,0,0,1,0-.91.4.4,0,0,1,.39-.23q.91-.09,2.52-.2a17.18,17.18,0,0,0,3.29-.57,1.79,1.79,0,0,1,1,0c.27.09.39.35.36.77l-.09,2.9c0,.06,0,.1,0,.11s.08,0,.14-.07a9.12,9.12,0,0,1,2.34-3,5.65,5.65,0,0,1,3.7-1.13,3.67,3.67,0,0,1,2.81,1,3.37,3.37,0,0,1,.91,2.38,2,2,0,0,1-.59,1.41,2.18,2.18,0,0,1-1.68.63,1.79,1.79,0,0,1-1.45-.5,1.68,1.68,0,0,1-.41-1.09,1.74,1.74,0,0,0-.25-1,1.23,1.23,0,0,0-1.07-.36,2.43,2.43,0,0,0-1.56.57,5.62,5.62,0,0,0-1.2,1.34,6.93,6.93,0,0,0-.77,1.59,4.35,4.35,0,0,0-.27,1.27Z" transform="translate(-2.86 -13.54)"/><path class="cls-1" d="M182.7,37.25q0,1.86.07,3a4.6,4.6,0,0,0,.41,1.81,1.82,1.82,0,0,0,1,.91,5.72,5.72,0,0,0,1.9.25.33.33,0,0,1,.29.2,1,1,0,0,1,.11.48,1.23,1.23,0,0,1-.09.45.32.32,0,0,1-.32.23l-.61,0-.5,0-.54.07-.75.09q-.36,0-1,.18l-1.32.27-1.27.23a6.6,6.6,0,0,1-.77.09q-.36,0-.59-.63a5.45,5.45,0,0,1-.23-1.77c0-.15,0-.21-.11-.18a.6.6,0,0,0-.2.14A10.65,10.65,0,0,1,175.49,45a7.86,7.86,0,0,1-3.22.59,8.93,8.93,0,0,1-3.6-.7,7.48,7.48,0,0,1-2.72-2,9.16,9.16,0,0,1-1.72-3.15,13.29,13.29,0,0,1-.61-4.17,13.13,13.13,0,0,1,1-5.24,10.61,10.61,0,0,1,2.49-3.63,9.92,9.92,0,0,1,3.47-2.11,11.47,11.47,0,0,1,3.83-.68,10.92,10.92,0,0,1,2,.2,7.87,7.87,0,0,1,2.09.7V22.06q0-1.95-.09-3.11a4.12,4.12,0,0,0-.48-1.79,1.94,1.94,0,0,0-1.18-.86,12.91,12.91,0,0,0-2.15-.36.34.34,0,0,1-.29-.23,1,1,0,0,1-.11-.45,1.19,1.19,0,0,1,.09-.45.32.32,0,0,1,.32-.23l1.68-.11,1.86-.16a18.3,18.3,0,0,0,1.86-.27q.91-.18,1.72-.41.59-.18.79.07a1.11,1.11,0,0,1,.25.52ZM178.43,28a5.9,5.9,0,0,0-1.86-1.61,5.14,5.14,0,0,0-2.4-.52,6.93,6.93,0,0,0-2.45.41,4.06,4.06,0,0,0-1.84,1.41,7.1,7.1,0,0,0-1.13,2.72,20.39,20.39,0,0,0-.39,4.35,14.26,14.26,0,0,0,.32,3,10.14,10.14,0,0,0,.93,2.63,5.8,5.8,0,0,0,1.5,1.86,3.22,3.22,0,0,0,2.06.7,6.72,6.72,0,0,0,3.15-.66,6.81,6.81,0,0,0,2.11-1.7Z" transform="translate(-2.86 -13.54)"/></svg>