<svg id="Layer_1" data-name="Layer 1" xmlns="http://www.w3.org/2000/svg" viewBox="0 0 51.97 72.1"><defs><style>.cls-1{fill:#232020;}.cls-2{fill:#005696;}.cls-3{fill:none;stroke:#005696;stroke-width:0.06px;}.cls-4{fill:#fff;}</style></defs><title>goodwill</title><rect class="cls-1" width="51.97" height="67.92"/><path class="cls-2" d="M51.91,7.5H31.23V30.1a18,18,0,0,1-18,18.05H7v6.61H51.91Z" transform="translate(-3.48 -3.96)"/><path class="cls-3" d="M51.91,7.5H31.23V30.1a18,18,0,0,1-18,18.05H7v6.61H51.91Z" transform="translate(-3.48 -3.96)"/><path class="cls-4" d="M7,44.6H13.2A14.47,14.47,0,0,0,27.67,30.12V7.5H7V33.14H9.35a8.58,8.58,0,0,0,6.73-3.22l3,1.83a12,12,0,0,1-9.7,4.92H7V44.6Z" transform="translate(-3.48 -3.96)"/><path class="cls-1" d="M12.72,18.53a4.59,4.59,0,1,1,4.59,4.59,4.59,4.59,0,0,1-4.59-4.59" transform="translate(-3.48 -3.96)"/><path class="cls-1" d="M54.65,73.39a1.35,1.35,0,0,1,.41,1,1.37,1.37,0,0,1-.41,1,1.33,1.33,0,0,1-1,.41,1.35,1.35,0,0,1-1-.41,1.41,1.41,0,0,1,0-2,1.34,1.34,0,0,1,1-.42,1.31,1.31,0,0,1,1,.42m.21-.22a1.63,1.63,0,0,0-1.19-.5,1.65,1.65,0,0,0-1.17.46A1.61,1.61,0,0,0,52,74.37a1.7,1.7,0,0,0,2.88,1.21,1.7,1.7,0,0,0,0-2.41m-1,1.07a.44.44,0,0,1-.27.07h-.19v-.55h.12a.87.87,0,0,1,.29,0A.22.22,0,0,1,54,74a.24.24,0,0,1-.1.22m-.46.41h.21l.17,0a.22.22,0,0,1,.14.14.73.73,0,0,1,0,.23,1.11,1.11,0,0,0,0,.26h.47v-.05a.27.27,0,0,1,0-.06V75a.51.51,0,0,0-.17-.42.61.61,0,0,0-.27-.11.62.62,0,0,0,.33-.13.41.41,0,0,0,.13-.34.48.48,0,0,0-.25-.45.92.92,0,0,0-.37-.1h-.91v1.88h.49Z" transform="translate(-3.48 -3.96)"/><path class="cls-4" d="M22.81,62.41a.86.86,0,1,0,.86-.87.86.86,0,0,0-.86.87M21.13,59.9H26a.37.37,0,0,1,.4.32v4.64a.37.37,0,0,1-.4.32H21.13a.37.37,0,0,1-.4-.32V60.22a.37.37,0,0,1,.4-.32" transform="translate(-3.48 -3.96)"/><path class="cls-4" d="M15.84,62.41a.86.86,0,1,0,.86-.87.86.86,0,0,0-.86.87M14.16,59.9h4.89a.37.37,0,0,1,.4.32v4.64a.37.37,0,0,1-.4.32H14.16a.37.37,0,0,1-.4-.32V60.22a.37.37,0,0,1,.4-.32" transform="translate(-3.48 -3.96)"/><path class="cls-4" d="M9.58,61.71a.86.86,0,1,0,.86.87.87.87,0,0,0-.86-.87m2.71,3.73a3.8,3.8,0,0,1-3.18,3.42,7.14,7.14,0,0,1-1.93.08.29.29,0,0,1-.29-.29V67.11a.29.29,0,0,1,.29-.29H8A2.06,2.06,0,0,0,9.76,66a.38.38,0,0,0,.11-.26.42.42,0,0,0-.42-.42.44.44,0,0,0-.26.09l-.06.06A1.67,1.67,0,0,1,7.86,66H7.19a.29.29,0,0,1-.29-.29V60.18a.29.29,0,0,1,.29-.29H12a.29.29,0,0,1,.28.29v5.27Z" transform="translate(-3.48 -3.96)"/><path class="cls-4" d="M40.44,63v0Zm-4.17,2.18h0Zm.6-1.9h.36a.32.32,0,0,0,.32-.32V60.22a.32.32,0,0,1,.32-.32h1.25a.32.32,0,0,1,.32.32V63a.32.32,0,0,0,.32.32h.36a.32.32,0,0,0,.32-.28V60.22a.32.32,0,0,1,.32-.32H42a.32.32,0,0,1,.32.32v4.64a.32.32,0,0,1-.32.32H35a.32.32,0,0,1-.32-.32V60.22A.32.32,0,0,1,35,59.9h1.26a.32.32,0,0,1,.32.32V63a.32.32,0,0,0,.32.32" transform="translate(-3.48 -3.96)"/><path class="cls-4" d="M31.47,62.49a.36.36,0,0,0,0-.08.39.39,0,0,0,0-.08.87.87,0,0,0-1.73.08.87.87,0,0,0,1.73.08m.32-5.12h1.26a.32.32,0,0,1,.32.32v7.16a.32.32,0,0,1-.32.32H28a.33.33,0,0,1-.32-.32V60.22A.33.33,0,0,1,28,59.9h3.17a.32.32,0,0,0,.32-.27V57.7a.32.32,0,0,1,.32-.32" transform="translate(-3.48 -3.96)"/><path class="cls-4" d="M43.94,57.38H45.2a.32.32,0,0,1,.32.32v1.39a.32.32,0,0,1-.32.32H43.94a.32.32,0,0,1-.32-.32V57.7a.32.32,0,0,1,.32-.32" transform="translate(-3.48 -3.96)"/><path class="cls-4" d="M43.94,59.9H45.2a.32.32,0,0,1,.32.32v4.64a.33.33,0,0,1-.32.32H43.94a.32.32,0,0,1-.32-.32V60.22a.32.32,0,0,1,.32-.32" transform="translate(-3.48 -3.96)"/><path class="cls-4" d="M47.12,57.38h1.24a.32.32,0,0,1,.32.32v7.16a.33.33,0,0,1-.32.32H47.12a.32.32,0,0,1-.32-.32V57.7a.32.32,0,0,1,.32-.32" transform="translate(-3.48 -3.96)"/><path class="cls-4" d="M50.28,57.38h1.24a.32.32,0,0,1,.32.32v7.16a.32.32,0,0,1-.32.32H50.28a.33.33,0,0,1-.32-.32V57.7a.32.32,0,0,1,.32-.32" transform="translate(-3.48 -3.96)"/></svg>