<svg id="Layer_1" data-name="Layer 1" xmlns="http://www.w3.org/2000/svg" viewBox="0 0 175.75 34.45"><defs><style>.cls-1{fill:#7c7c7c;fill-rule:evenodd;}</style></defs><title>Guess</title><path class="cls-1" d="M35,20.12v-.21H22.77v.21c3.24.21,4.49.41,4.49,4.83v8.28c0,2.21-3.8,3.38-7.32,3.38-8.28,0-13.6-6.07-13.6-15.39,0-12.15,6.83-16.5,12.7-16.5,7.11,0,9.94,4.9,11.39,8.77H31L30.57,3.41h-.48A2.86,2.86,0,0,1,27.4,5.07a8,8,0,0,1-2.21-.48,20.73,20.73,0,0,0-6.83-1.17A16.74,16.74,0,0,0,1.3,20.19c0,6.56,1.52,9.53,4.14,12.36,3.11,3.38,8.21,5.32,14,5.32,5.32,0,11.53-2.69,12-3.31V24.33c0-3.73,1.45-4,3.52-4.21Zm99.4-2c-3.93-2.28-7.66-4.49-7.66-8.21,0-3.38,2.76-5.11,5.45-5.11,5.32,0,8.77,4.49,9.73,8.77h.62l-1-10.15H141a2,2,0,0,1-2.07,1.73,6.8,6.8,0,0,1-2.21-.55,13.09,13.09,0,0,0-4.83-1.17c-4.28,0-8.84,2.62-8.84,8.35,0,4.83,3,7,7.73,9.66,7.66,4.49,8.42,6.28,8.42,9.32a6,6,0,0,1-6.42,6c-6.9,0-9.6-6.42-10.63-9h-.55l1.45,10h.48a1.88,1.88,0,0,1,1.86-1.66,7,7,0,0,1,2.35.62,16.59,16.59,0,0,0,5.52,1.1c6.83,0,10.42-4.42,10.42-8.84,0-5.45-4.76-8.21-9.32-10.91Zm33.34,0c-3.93-2.28-7.66-4.49-7.66-8.21,0-3.38,2.76-5.11,5.52-5.11,5.32,0,8.7,4.49,9.73,8.77h.55l-1-10.15h-.48a2,2,0,0,1-2.07,1.73,6.8,6.8,0,0,1-2.21-.55,13.09,13.09,0,0,0-4.83-1.17c-4.21,0-8.84,2.62-8.84,8.35,0,4.83,3.11,7,7.73,9.66,7.66,4.49,8.49,6.28,8.49,9.32s-2.21,6-6.49,6c-6.83,0-9.6-6.42-10.63-9H155l1.38,10h.48a2,2,0,0,1,1.93-1.66,7.92,7.92,0,0,1,2.35.62,15.86,15.86,0,0,0,5.52,1.1c6.76,0,10.35-4.42,10.35-8.84,0-5.45-4.69-8.21-9.32-10.91Zm-96-6.83c0-5.38,1-6.35,4.76-6.83V4.17h-11v.28c3.52.28,4.76,1.45,4.76,6.83V25c0,4.42-.55,6.07-1.24,7.11-1.59,2.69-4.76,4.21-8.63,4.21-9.18,0-9.18-7.52-9.18-10.7V9.35c0-3.73.76-4.56,4.63-4.9V4.17H42.17v.28c3.66.28,4.56,1,4.56,4.9V25.23c0,3.11,0,12.63,12.22,12.63,12.84,0,12.84-9.32,12.84-13.25V11.28Zm41,18h-.69c-2.28,5.11-5,6.63-11.39,6.63-7.52,0-8,0-8-2.49v-13h.41l7.8.07c4.28.07,5.32.9,5.94,4.9h.48V14.32h-.48c-.55,3.59-1.31,4.83-5.94,4.83H92.7V7.42c0-2.07,1-2.07,2.07-2.07h6.9c5.73,0,7.25,1,8.08,5.38h.55l-.14-6.56H83.86v.28c3,.28,4.42.69,4.42,4.9V31.92c0,4.07-1.38,4.69-4.42,4.9v.35h26.85l2.07-7.87Z" transform="translate(-1.3 -3.41)"/></svg>