<svg id="Layer_1" data-name="Layer 1" xmlns="http://www.w3.org/2000/svg" viewBox="0 0 81.87 20.22"><defs><style>.cls-1{fill:#fff;}</style></defs><title>Gymboree</title><path class="cls-1" d="M37.85,4.47A1.33,1.33,0,0,1,39.2,5.92V8.69A1.16,1.16,0,0,1,38,10H36.91V4.47ZM34,2V21.71h4.58a3.3,3.3,0,0,0,3.45-3.66V14a2.58,2.58,0,0,0-2-2.76v0C41,10.93,42,10.54,42,8.34v-2C42,3.18,40.51,2,37.87,2ZM38,12.41a1.31,1.31,0,0,1,1.23,1.43v4c0,.82-.33,1.44-1.23,1.44H36.91V12.41Z" transform="translate(-1.55 -1.7)"/><path class="cls-1" d="M62.27,13.71c-.1-1.78-1.47-2.22-2.76-2.38v0C60.73,11.17,62,10.72,62,8V6.23C62,3.74,60.86,2,58.28,2H54.06V21.71h2.87v-9.2h.78c1.34-.06,1.77.41,1.77,1.58a39.78,39.78,0,0,0,.36,7.64h2.9A71.5,71.5,0,0,1,62.27,13.71ZM59.17,9c0,1-1.09,1-2.24,1.06V4.47h.94c.6,0,1.3.27,1.3,1.07Z" transform="translate(-1.55 -1.7)"/><path class="cls-1" d="M48,19.11c-.93,0-1.43-1.05-1.43-8,0-5.35.51-6.49,1.43-6.49s1.46,1.14,1.46,6.49C49.42,18.06,48.92,19.11,48,19.11ZM48,1.86c-2.3,0-4.25,2.06-4.25,9.15,0,8.89,2,10.88,4.25,10.88s4.28-2,4.28-10.88C52.24,3.92,50.3,1.86,48,1.86Z" transform="translate(-1.55 -1.7)"/><path class="cls-1" d="M72.14,13.37c0-.73.05-1.51.05-2.36,0-7.09-1.95-9.15-4.28-9.15S63.66,3.92,63.66,11c0,8.89,1.94,10.88,4.25,10.88,1.71,0,3.21-1.06,3.88-5.09H69.16c-.24,1.91-.66,2.31-1.25,2.31-.82,0-1.3-.82-1.41-5.74ZM66.49,11c0-5.21.51-6.33,1.42-6.33S69.36,5.77,69.37,11Z" transform="translate(-1.55 -1.7)"/><path class="cls-1" d="M82.12,13.37c0-.73,0-1.51,0-2.36,0-7.09-1.94-9.15-4.28-9.15S73.64,3.92,73.64,11c0,8.89,2,10.88,4.25,10.88,1.71,0,3.21-1.06,3.89-5.09H79.13c-.23,1.91-.65,2.31-1.24,2.31-.82,0-1.3-.82-1.41-5.74ZM76.46,11c0-5.21.51-6.33,1.43-6.33S79.34,5.77,79.35,11Z" transform="translate(-1.55 -1.7)"/><path class="cls-1" d="M6.28,19.08c-.93-.14-1.91-1.18-1.91-8.11,0-5.35.74-6.49,1.67-6.49.77,0,1.49.74,1.65,3.81h2.65C9.93,3.25,8.08,1.7,6,1.7c-2.3,0-4.49,2.05-4.49,9.15,0,8.89,2.19,10.86,4.49,10.86h4.42V11.82H6.58V14.3H7.93v4.77Z" transform="translate(-1.55 -1.7)"/><path class="cls-1" d="M23.6,2,26.28,11h0L29.17,2h2L32,21.71H29.17L29,9.78h0L26.68,17H26L23.79,9.94h0L23.6,21.71H20.74L21.65,2Z" transform="translate(-1.55 -1.7)"/><path class="cls-1" d="M16.89,21.71H14V14.37L10.3,2h2.84L15.47,11h0L17.76,2H20.6L16.89,14.37Z" transform="translate(-1.55 -1.7)"/><path class="cls-1" d="M82,20.3h.27c.21,0,.29.07.29.2s-.1.21-.34.21H82Zm0,.58h.2l.35.58h.24l-.36-.58a.34.34,0,0,0,.32-.36c0-.25-.15-.38-.46-.38h-.5v1.33H82Zm.23,1a1.13,1.13,0,1,0-1.15-1.13A1.13,1.13,0,0,0,82.28,21.92Zm0-.18a1,1,0,1,1,.92-1A.92.92,0,0,1,82.28,21.74Z" transform="translate(-1.55 -1.7)"/></svg>