<svg id="Layer_1" data-name="Layer 1" xmlns="http://www.w3.org/2000/svg" viewBox="0 0 185.17 38.63"><defs><style>.cls-1{fill:#bcbec0;}</style></defs><title>Hot_Topic</title><path class="cls-1" d="M9.32,1.73V38.85H1.87V1.73Zm7.5,14.73V1.73h7.53V38.85H16.83V22.68H10.7V16.47Z" transform="translate(-1.87 -0.93)"/><path class="cls-1" d="M26.61,11.29Q26.57,1.36,37.56,1V7q-3.21.36-3.21,4V29.52q0,3.66,3.21,4v5.93q-10.9-.36-10.94-11.23ZM42.2,11q0-3.68-3.32-4v-6Q50,1,50,11.44V28.37q0,10.79-11.15,11.07V33.51q3.32-.28,3.32-4Z" transform="translate(-1.87 -0.93)"/><path class="cls-1" d="M51.58,1.74H74.19V8H51.58Zm7.59,37.11V9.47h7.37V38.85Z" transform="translate(-1.87 -0.93)"/><path class="cls-1" d="M80.13,1.74h22.61V8H80.13Zm7.59,37.11V9.47h7.37V38.85Z" transform="translate(-1.87 -0.93)"/><path class="cls-1" d="M104.43,11.36q0-9.94,10.75-10.35v6Q112,7.42,112,11v18.6q0,3.66,3.15,4v5.94q-10.7-.36-10.75-11.24ZM119.73,11q0-3.69-3.26-4V1q10.93.08,10.95,10.53v17q0,10.81-10.95,11.09V33.62q3.26-.28,3.26-4Z" transform="translate(-1.87 -0.93)"/><path class="cls-1" d="M129.94,1.8h7.32V38.85h-7.32Zm11.2,15q3.5-.05,3.41-4.43T141.1,8h-2.46V1.8h2.28q11.22,0,11.17,9.89,0,11.38-11,11.33h-2.48v-6.2Z" transform="translate(-1.87 -0.93)"/><path class="cls-1" d="M154,38.85V1.68h7.31V38.85Z" transform="translate(-1.87 -0.93)"/><path class="cls-1" d="M163.9,11q0-9.49,10.58-10V7q-2.94.43-2.94,3.67V29.85a3.16,3.16,0,0,0,2.94,3.54v5.93q-10.62-.46-10.58-10.77ZM176,1q11.07.08,11,10.21l0,2.71H179.3l0-3.19q0-3.44-3.28-3.72Zm0,32.43a3.19,3.19,0,0,0,3.28-3.56l0-2.72,7.7,0V28.7Q187,39,176,39.32Z" transform="translate(-1.87 -0.93)"/></svg>