<svg id="Layer_1" data-name="Layer 1" xmlns="http://www.w3.org/2000/svg" viewBox="0 0 152.49 37.19"><defs><style>.cls-1{fill:#fff;}</style></defs><title>id_card</title><path class="cls-1" d="M9.86,11.63h4.26v36H9.86Z" transform="translate(-9.86 -11.02)"/><path class="cls-1" d="M23.83,11.63q1-.15,2.18-.23t2.52-.1l2.57-.05,2.34,0a19.12,19.12,0,0,1,7.47,1.33,13.88,13.88,0,0,1,5.21,3.72A15.49,15.49,0,0,1,49.18,22a25.51,25.51,0,0,1,1,7.34,25.65,25.65,0,0,1-1,7,16.87,16.87,0,0,1-3,6,14.8,14.8,0,0,1-5.34,4.16,18.38,18.38,0,0,1-8,1.57l-2.13,0q-1.31,0-2.7-.1l-2.57-.13a12.67,12.67,0,0,1-1.7-.15ZM33.54,15H32.08q-.8,0-1.57.05l-1.41.1-1,.1V44a7.05,7.05,0,0,0,1,.08l1.49.05,1.49.05,1,0a13.29,13.29,0,0,0,6-1.23A10.42,10.42,0,0,0,43,39.7,13.39,13.39,0,0,0,45,34.93a24.92,24.92,0,0,0,.62-5.57,23.24,23.24,0,0,0-.57-5.06,13.27,13.27,0,0,0-2-4.6,10.74,10.74,0,0,0-3.72-3.36A11.91,11.91,0,0,0,33.54,15Z" transform="translate(-9.86 -11.02)"/><path class="cls-1" d="M94.15,46.1a9.23,9.23,0,0,1-3.9,1.64,26.16,26.16,0,0,1-5,.46,16.51,16.51,0,0,1-6.06-1.1,13.26,13.26,0,0,1-4.93-3.36A16.19,16.19,0,0,1,70.88,38a25.28,25.28,0,0,1-1.23-8.35A23.77,23.77,0,0,1,71,21.06a16.33,16.33,0,0,1,3.6-5.75,13.84,13.84,0,0,1,5-3.26,16.15,16.15,0,0,1,5.65-1,31,31,0,0,1,5,.33,16.18,16.18,0,0,1,3.34.9l-1,3.8a16.1,16.1,0,0,0-7-1.23,11.76,11.76,0,0,0-4.16.77,9.56,9.56,0,0,0-3.67,2.52,12.74,12.74,0,0,0-2.59,4.57,21.39,21.39,0,0,0-1,6.93,20.49,20.49,0,0,0,.92,6.47,13.31,13.31,0,0,0,2.54,4.62,10.38,10.38,0,0,0,3.8,2.77,12.05,12.05,0,0,0,4.75.92,15.62,15.62,0,0,0,4-.46,11.08,11.08,0,0,0,2.9-1.18Z" transform="translate(-9.86 -11.02)"/><path class="cls-1" d="M98.77,23.81a14.81,14.81,0,0,1,4.55-1.75,25.43,25.43,0,0,1,5.42-.57,10.7,10.7,0,0,1,4.29.72,6,6,0,0,1,2.46,1.87,6.42,6.42,0,0,1,1.13,2.54,13.85,13.85,0,0,1,.28,2.77q0,3.08-.15,6T116.59,41q0,1.9.15,3.59a16.94,16.94,0,0,0,.56,3.13h-3L113.2,44.1h-.26a8.56,8.56,0,0,1-1.16,1.41,7.41,7.41,0,0,1-1.67,1.23,10.48,10.48,0,0,1-2.26.9,10.9,10.9,0,0,1-2.93.36,8.89,8.89,0,0,1-3.06-.51A7.11,7.11,0,0,1,99.44,46a6.82,6.82,0,0,1-1.62-2.29,7.42,7.42,0,0,1-.59-3,7.13,7.13,0,0,1,.92-3.78,6.67,6.67,0,0,1,2.59-2.41,12.82,12.82,0,0,1,4-1.28,31.85,31.85,0,0,1,5.16-.38h1.41a10,10,0,0,1,1.41.1q.15-1.54.15-2.77,0-2.82-1.13-4t-4.11-1.13a14.25,14.25,0,0,0-1.87.13q-1,.13-2.05.37a16.94,16.94,0,0,0-2,.58,10.05,10.05,0,0,0-1.67.77Zm7.29,20.6a7.94,7.94,0,0,0,2.57-.38,7.46,7.46,0,0,0,2-1,6.22,6.22,0,0,0,1.36-1.31,5.82,5.82,0,0,0,.8-1.39V36.08L111.27,36l-1.46,0a26.49,26.49,0,0,0-3.11.18,9.85,9.85,0,0,0-2.67.67,4.7,4.7,0,0,0-1.85,1.33,3.26,3.26,0,0,0-.69,2.13,3.79,3.79,0,0,0,1.28,3A4.73,4.73,0,0,0,106.06,44.4Z" transform="translate(-9.86 -11.02)"/><path class="cls-1" d="M136.77,25.86a9.28,9.28,0,0,0-2.93-.51,4.9,4.9,0,0,0-3.49,1.21,5.25,5.25,0,0,0-1.59,3.06v18h-4.11V21.91h2.88L128.3,25h.21a7.93,7.93,0,0,1,2.34-2.7,5.92,5.92,0,0,1,3.47-1,12.62,12.62,0,0,1,3.34.51Z" transform="translate(-9.86 -11.02)"/><path class="cls-1" d="M161.84,38.75q0,2.62.05,4.75a24.22,24.22,0,0,0,.46,4.19h-2.77l-1-3.65h-.21a8.27,8.27,0,0,1-3,3,8.66,8.66,0,0,1-4.57,1.18q-5.14,0-7.63-3.24t-2.49-10.12q0-6.57,3.11-10a11,11,0,0,1,8.55-3.42,17.37,17.37,0,0,1,3,.21,15.52,15.52,0,0,1,2.39.67V11.63h4.11Zm-10.37,5.86a6.06,6.06,0,0,0,4.16-1.36,7.26,7.26,0,0,0,2.11-4.13V26.38a5.75,5.75,0,0,0-2.11-1,12.86,12.86,0,0,0-3.13-.31,6.92,6.92,0,0,0-5.55,2.34q-2,2.34-2,7.47a21.39,21.39,0,0,0,.33,3.9,9.21,9.21,0,0,0,1.1,3.08,5.74,5.74,0,0,0,2,2A5.89,5.89,0,0,0,151.46,44.61Z" transform="translate(-9.86 -11.02)"/></svg>