<svg id="Layer_1" data-name="Layer 1" xmlns="http://www.w3.org/2000/svg" viewBox="0 0 175.75 79.73"><defs><style>.cls-1{fill:#fff;fill-rule:evenodd;}</style></defs><title>IGA</title><path class="cls-1" d="M45.9,68.64c-2.47,6.87.31,13.8,6.34,15.81C63,88.11,83.16,85,94.82,85l16.45-44.17H95.95v.09H86.34L80.07,58.13h9.45L87,64.82H74.52c-1.39,0-2.21-2.05-1.55-3.93L83.73,31.56c1.15-3,3.27-4.73,7.27-4.73h24.84l7.33-20.32H79.1c-7,0-12.08,4.15-14.44,10.69L45.9,68.64ZM182.25,18.2V21a13.37,13.37,0,0,1-.66,3L159.24,85.11H137l8.57-23.48H133.14l-8.57,23.48H102.39l24.38-66.69C129,12.3,136,6.6,142.59,6.6h25.22c9.19,0,13.8,5.65,14.44,11.59ZM152.95,41.43,157.12,30A2.32,2.32,0,0,0,155,26.83h-6.14a4.72,4.72,0,0,0-4.15,2.94l-4.24,11.66ZM59.44,6.6,30.8,85.11H6.5L35.13,6.6Z" transform="translate(-6.5 -6.52)"/></svg>