<svg id="Layer_1" data-name="Layer 1" xmlns="http://www.w3.org/2000/svg" viewBox="0 0 187.09 28.64"><defs><style>.cls-1{fill:#fff;fill-rule:evenodd;}</style></defs><title>Izod</title><path class="cls-1" d="M194.54,36.08a1.71,1.71,0,1,0,.5,1.21,1.66,1.66,0,0,0-.5-1.21Zm-.17,2.26a1.47,1.47,0,0,1-2.08,0,1.44,1.44,0,0,1-.43-1,1.47,1.47,0,1,1,2.94,0,1.44,1.44,0,0,1-.43,1Z" transform="translate(-9.12 -10.36)"/><polygon class="cls-1" points="21.24 1.84 21.24 0.79 0 0.79 0 1.84 6.59 1.84 6.59 26.83 0 26.83 0 27.89 21.24 27.89 21.24 26.83 14.81 26.83 14.81 1.84 21.24 1.84 21.24 1.84"/><path class="cls-1" d="M46.8,38.44V37.05l25.15-24.9H61.45s-8.3-.41-10.42,6.27H48.91l1.22-7.24H81.38V12.4L56.24,37.3H70.32s6.92.69,9.11-7.61h2l-.57,8.75Z" transform="translate(-9.12 -10.36)"/><path class="cls-1" d="M119.3,10.36c-5.7,0-20.43,4.15-20.43,13.92S110.43,39,119.3,39s20.43-5,20.43-14.73S125,10.36,119.3,10.36Zm10.74,20c0,7.08-8.54,7.57-10.74,7.57s-10.74-.49-10.74-7.57V19c0-7.08,8.54-7.57,10.74-7.57S130,11.91,130,19V30.33Z" transform="translate(-9.12 -10.36)"/><path class="cls-1" d="M173.66,10.93H154.54V12h6.1V37.3h-6.1v1.06h19.12c3.18,0,22.54.12,22.54-13.71s-18.74-13.71-22.54-13.71Zm13.51,14.73c0,11.64-7.49,11.56-11.8,11.56H169V12.15h6.35c4.31,0,11.8-.08,11.8,11.56v2Z" transform="translate(-9.12 -10.36)"/><path class="cls-1" d="M194.09,38.2a.3.3,0,0,1,0-.1s0-.1,0-.14v-.14a.52.52,0,0,0-.1-.29.46.46,0,0,0-.32-.18.72.72,0,0,0,.27-.09.41.41,0,0,0,.18-.37.47.47,0,0,0-.29-.48,1.43,1.43,0,0,0-.51-.07h-.66v1.88H193v-.74h.26a.8.8,0,0,1,.37.06.46.46,0,0,1,.18.43v.25h.31v0Zm-.51-1a.9.9,0,0,1-.31,0H193v-.68h.28a.86.86,0,0,1,.4.07.34.34,0,0,1-.07.57Z" transform="translate(-9.12 -10.36)"/></svg>