<svg id="Layer_1" data-name="Layer 1" xmlns="http://www.w3.org/2000/svg" viewBox="0 0 345.21 250.85"><defs><style>.cls-1,.cls-5{fill:#ee3224;}.cls-2,.cls-4{fill:#fff;}.cls-3{fill:#174a7c;}.cls-4,.cls-5{fill-rule:evenodd;}</style></defs><title>jersey_mikes</title><path class="cls-1" d="M183.47,7C88.29,7,10.79,63.14,10.72,132.3S88,257.78,183.21,257.89s172.65-56.11,172.72-125.25S278.64,7.16,183.47,7" transform="translate(-10.72 -7.04)"/><path class="cls-2" d="M18.91,132.31c-.06,64.64,73.65,117.32,164.3,117.4s164.48-52.41,164.54-117.06S274.1,15.33,183.47,15.23,19,67.67,18.91,132.31" transform="translate(-10.72 -7.04)"/><path class="cls-3" d="M24.36,132.31C24.43,70.68,95.79,20.61,183.44,20.69S342.36,71,342.3,132.64s-71.43,111.7-159.1,111.6S24.29,193.95,24.36,132.31Z" transform="translate(-10.72 -7.04)"/><path class="cls-2" d="M138.78,44a3.25,3.25,0,0,0-2-.2c-.53.12-1.16.57-1,1.12s.95.59,1.47.63l.78,0c1.61,0,3,.45,3.35,2.05a3.31,3.31,0,0,1-.52,2.92,5.33,5.33,0,0,1-2.9,1.66,7.7,7.7,0,0,1-4.1-.21l.73-2.36a4.24,4.24,0,0,0,2.77.43c.66-.18,1.29-.64,1.13-1.33s-1.34-.69-2-.7c-1.88,0-3.16-.2-3.61-2.08s.79-3.67,3-4.21a8.93,8.93,0,0,1,3.62,0L138.78,44" transform="translate(-10.72 -7.04)"/><polyline class="cls-2" points="138.05 42.68 135.17 43.2 133.37 33.24 136.24 32.72 138.05 42.68"/><polyline class="cls-2" points="140.93 31.88 143.83 31.52 149.9 37.02 149.93 37.01 149.16 30.86 152.06 30.49 153.31 40.57 150.41 40.91 144.33 35.4 144.3 35.4 145.06 41.57 142.16 41.92 140.93 31.88"/><path class="cls-2" d="M175.82,40.13a3.31,3.31,0,0,0-2.63-.95,2.78,2.78,0,1,0,.35,5.52A3.45,3.45,0,0,0,176,43.5l.18,3.16a9,9,0,0,1-2.57.6,6.51,6.51,0,0,1-4.3-1.27,4.65,4.65,0,0,1-2-3.71,5,5,0,0,1,1.46-3.78A6.37,6.37,0,0,1,173,36.62a7.43,7.43,0,0,1,2.7.37l.18,3.14" transform="translate(-10.72 -7.04)"/><polyline class="cls-2" points="172.5 31.85 172.49 33.55 175.79 33.54 175.78 35.78 172.5 35.76 172.49 37.51 175.95 37.52 175.94 39.74 169.55 39.73 169.56 29.62 175.96 29.63 175.98 31.84 172.5 31.85"/><polyline class="cls-2" points="189.67 32.52 189.88 30.29 194.4 30.72 193.43 40.78 190.53 40.5 191.27 32.67 189.67 32.52"/><path class="cls-2" d="M210.56,48.6l3.68-2.89,0,0a4.08,4.08,0,0,1-1.62.06,3.52,3.52,0,0,1-3-4.06c.36-2.47,2.8-3.44,5.36-3.08a5.61,5.61,0,0,1,3,1.34,3.64,3.64,0,0,1,1.09,3,6.61,6.61,0,0,1-2.4,3.71l-2.79,2.43-3.29-.48m2-6.56A1.74,1.74,0,0,0,214.14,44a1.76,1.76,0,0,0,2.08-1.37,1.8,1.8,0,0,0-1.6-1.94A1.73,1.73,0,0,0,212.57,42Z" transform="translate(-10.72 -7.04)"/><path class="cls-2" d="M226.66,43.42l-.42,1.09.89.15a3.58,3.58,0,0,1,3.11,4.4,3.36,3.36,0,0,1-2,2.34,5.39,5.39,0,0,1-3.39.11,7.29,7.29,0,0,1-3.4-1.65l1-2.34a5.29,5.29,0,0,0,2.8,1.82,1.67,1.67,0,0,0,2.08-1.09c.27-1.19-.89-2-2-2.22a6.17,6.17,0,0,0-2.19,0l2.13-5.16,5.73,1.26-.49,2.18-3.8-.85" transform="translate(-10.72 -7.04)"/><path class="cls-2" d="M243.12,45.43l-4,2.38,0,0a4.32,4.32,0,0,1,1.58.13,3.54,3.54,0,0,1,2.46,4.45c-.7,2.39-3.25,3-5.71,2.32A5.68,5.68,0,0,1,234.62,53a3.6,3.6,0,0,1-.67-3.12,6.73,6.73,0,0,1,2.85-3.33l3.14-2.06,3.18.95m-2.9,6.2A1.71,1.71,0,0,0,239,49.54a1.78,1.78,0,0,0-2.25,1.05A1.81,1.81,0,0,0,238,52.75,1.72,1.72,0,0,0,240.22,51.63Z" transform="translate(-10.72 -7.04)"/><path class="cls-2" d="M174.49,216.26c0,5-.28,5.84-.63,6.16a3.74,3.74,0,0,1-4.19.18c-1.43-1-2-3.11-2-7a62,62,0,0,1,.69-8.12,34.7,34.7,0,0,0-7.08,0,52,52,0,0,0-1,10.17c0,3.31.31,6.69,1.92,8.81a5.91,5.91,0,0,0,5.31,2.28,8.82,8.82,0,0,0,5.07-1.31l1.83-.9a9.48,9.48,0,0,0,.21,2c1.15.21,6.28,0,6.28,0s.51-19.4.57-21.09a38.1,38.1,0,0,0-7,0c0,3.77,0,6.67,0,8.75" transform="translate(-10.72 -7.04)"/><path class="cls-2" d="M156.34,224.29c1-4.31-2.42-6.9-7.26-9-1.51-.67-2.94-1.33-2.58-3,.6-2.74,5.5-1.57,7.49-.81a15.14,15.14,0,0,0,.81-4.3c0-.15-14-3.11-15.49,3.77-1,4.54,2.8,6.51,6.31,8.09,2.61,1.17,4.1,2.38,3.54,4.25-.71,2.23-6.37,1.37-8.41.26a9.91,9.91,0,0,0-1.09,4.25c4.92,2.52,15.31,2.54,16.69-3.52" transform="translate(-10.72 -7.04)"/><path class="cls-2" d="M226.28,224.37c1-4.31-2.41-6.91-7.25-9-1.5-.65-3-1.33-2.59-3,.6-2.72,5.5-1.55,7.49-.79a15.09,15.09,0,0,0,.81-4.31c0-.16-14-3.11-15.48,3.77-1,4.56,2.8,6.52,6.32,8.1,2.59,1.17,4.1,2.39,3.52,4.24-.69,2.25-6.36,1.4-8.42.26a10.46,10.46,0,0,0-1.08,4.26c4.93,2.51,15.3,2.55,16.69-3.51" transform="translate(-10.72 -7.04)"/><path class="cls-2" d="M198.07,214.72h0m8.34,6.47c-.26-3.85-4.63-4.43-4.6-4.65s3.78-2,2.68-5.86c-1.79-6.25-16.67-2.8-17.39-2.67,0,1.16-.27,20.91-.27,20.91a44.84,44.84,0,0,0,12.82-.1C202.69,228.24,206.72,225.91,206.41,221.19Zm-12.84-5.26c-.2-.22-.18-4.2.16-4.31,1.05-.41,4.91-.54,4.75,1.76C198.33,215.52,193.75,216.14,193.57,215.94Zm.21,8.69a11.61,11.61,0,0,1,.14-4.25c1.29-1.15,5.92-1.48,5.82,1.65C199.61,225,194,225,193.78,224.63Z" transform="translate(-10.72 -7.04)"/><path class="cls-4" d="M153.65,76.58l.13,0s-.12,0-.13,0m146.86,54.66c5.46-1.69,6.5-6.63,6.5-10,0-.25,0-.49,0-.69a5.34,5.34,0,0,0-2.76-4.45c1.08-6.53,2.54-17.6,2.54-25.49,0-1.63-.06-3.13-.19-4.43-.12-1-.85-4.46-5.71-5.53-2.58-.59-12.22-.36-17.5,2-1.48-3.54-5.85-3.86-7.36-3.92a56.44,56.44,0,0,0-8.67.4c-4.5.54-7.54,1.12-8.81,4-.39.91-.69,1.82-1,2.73a14,14,0,0,0-1.74-1.93A19.34,19.34,0,0,0,241.93,79c-6.49.32-13,3.71-18.27,9.5a24.06,24.06,0,0,0-3.31,4.64c-.14-.16-.24-.35-.4-.5h0a2.9,2.9,0,0,0-.21-.25,1.45,1.45,0,0,1,.19.25c-2.93-4.2-3.86-6.58-3.38-8.77h0c.62-2.79,1-6.31-1.27-9a8.35,8.35,0,0,0-6.66-2.62l-10,0c-7.95,0-11.54,8.5-12.64,15a8.71,8.71,0,0,0-5.84-1.83l-1.67.1c-2,.13-4.17.24-5.17-.18a.07.07,0,0,1,0-.06,3.54,3.54,0,0,1,0-.55,9.14,9.14,0,0,0,.16-1.68,7.12,7.12,0,0,0-.69-3,6.27,6.27,0,0,0-4.89-3.52,48.36,48.36,0,0,0-7.05-.57,43.68,43.68,0,0,0-7.06.52,8.72,8.72,0,0,0-5.46,2.81,6.29,6.29,0,0,0-1.36,3.56,19.13,19.13,0,0,0-12.29-3.63c-5.56.26-11.08,2.74-15.87,7.09-.16-9.91-.61-17.53-1-21.66l-.05-.74a9.56,9.56,0,0,0-2.08-6c-2.72-3.12-6.76-3.1-8.06-3.1L95,56.1l.55,0a8.89,8.89,0,0,0-7.69,3.25c-2.24,2.85-1.71,6.48-1.37,8.89L87,70.72c4.14,19.69,2.85,23.31,2,26a3.29,3.29,0,0,1-3.17,2.09c-2.09.14-6.56-2-9.51-4A8.27,8.27,0,0,0,70,93.28c-3.5.46-4.9,3.47-5.35,4.46l-.06.12c-.2.38-1.83,4-4.83,10.75a7.93,7.93,0,0,0-1,3.65,6.88,6.88,0,0,0,.47,2.41c1,2.58,4,4.81,4.12,4.91a45.73,45.73,0,0,0,20.77,8,14.56,14.56,0,0,0-1.35,4.1l-10.5,51.71c-.55,2.69-1.29,6.34,1.3,9.33,1.68,1.9,4.27,2.87,7.71,2.87l11.55,0c6.16,0,8.47-3.42,10-8.5.1-.36.2-.7.3-1.07,0,0,.2.43.2.43,2,5.06,7.82,5,10.31,5h1.86c2.49,0,8.26,0,10.36-5.16a3.2,3.2,0,0,1,.18-.41c0,.08.18.78.18.78,1.47,6.13,4.6,8.82,10.16,8.8l11.37,0c3,0,5.39-.76,7.06-2.27q2.57,2.24,7.22,2.25l6.47,0c4.26,0,7.08-1.53,8.54-4.67,1.16,2.42,3.55,4.5,8.42,4.45h.33l3.24.11,2.14.08a8.23,8.23,0,0,0,5.56-2.37,9.43,9.43,0,0,0,1.28-1.55c4.84,3.6,11.06,7.12,17.49,7.1,5.49,0,7.47-2.73,8.57-5.09,0,0,.21-.43.25-.47a26.85,26.85,0,0,0,13.12,3.18,35,35,0,0,0,17-4.4,22,22,0,0,0,13.3,4c10.88,0,17.85-5.58,20.89-12,4.22.22,8.49-1.1,10.67-2.82,3.69-2.87,3.58-5.76,3.1-9h0c-1.12-7.38-7.16-7-9.14-6.86l-1,.06c-2.73,0-5.54-.12-7.2-2.12-2.13-3.08-3.31-6-3.31-8.23a3.88,3.88,0,0,1,.13-1.1,19,19,0,0,0,.44-3.68,8.94,8.94,0,0,0-.5-3.06C295.26,145.88,298.81,137.25,300.51,131.24Zm-183.93-2c-.25.84-1,3.28-1.91,6.28-.72-2.45-1.86-6.22-1.86-6.22-1.36-4.28-3.66-6.28-6-7.14a24,24,0,0,0,6.56-6.63,23.07,23.07,0,0,0,7.64,7.35C119.28,124,117.65,126,116.58,129.25Zm61.36.27a85.77,85.77,0,0,0-1.59,8.57,13.72,13.72,0,0,0-1.19-1.3,15.71,15.71,0,0,0-10.9-4.24,15.37,15.37,0,0,0-15,11.33c-1.39-7.12-2.39-12.35-2.39-12.35v0a14,14,0,0,0-2-5.26,37.2,37.2,0,0,0,8.74-3l.24-.12a30.75,30.75,0,0,0,8.49-6.57,12.44,12.44,0,0,0,1.46,2.64,16.81,16.81,0,0,0,13.47,6.86,18.47,18.47,0,0,0,2.19-.05A11.38,11.38,0,0,0,177.94,129.52Zm56.11,9.34a12.56,12.56,0,0,0,5.76,10.34,14.25,14.25,0,0,0-2.38,0,24.54,24.54,0,0,0-13.93,5.53,14.05,14.05,0,0,0-6.16-9.47,18.56,18.56,0,0,0-13.45-2.77c.86-3.51,1.86-6.92,2.54-8.88a11.82,11.82,0,0,0,.7-3.85,7.71,7.71,0,0,0-1.17-4.24A22.46,22.46,0,0,0,221.35,117c4.33,6.18,11.82,9.79,20.65,9.77a3.2,3.2,0,0,0,.47,0,14.83,14.83,0,0,0-5.09,3c-2.21,2.13-3.33,6.16-3.33,8.86C234,138.73,234.05,138.8,234.05,138.86Zm25.16-22.54s0,0,0,0a.09.09,0,0,0,0,0Zm1.22,14.42a10.83,10.83,0,0,0,0,1.32,14.1,14.1,0,0,0,.19,2.43,4.42,4.42,0,0,0-.32-.7,15.4,15.4,0,0,0-11-7.8,36.91,36.91,0,0,0,13.61-6.13,16.9,16.9,0,0,0,2.65,1.59A13.77,13.77,0,0,0,260.42,130.74ZM172.71,80a.65.65,0,0,0,0,.11c0,.06.09.13.12.2C172.82,80.21,172.77,80.09,172.71,80Z" transform="translate(-10.72 -7.04)"/><path class="cls-2" d="M288.25,148.1a4.35,4.35,0,1,1-4.35,4.34,4.35,4.35,0,0,1,4.35-4.34m0,7.36a3,3,0,1,0-2.9-3A2.95,2.95,0,0,0,288.24,155.46Zm-1.73-5.21h1.72c1.24,0,2,.3,2,1.38a1.11,1.11,0,0,1-1.18,1.2l1,1.8h-1.13l-.89-1.74h-.41v1.75h-1Zm1,1.84h.88c.41,0,.63-.14.63-.57s-.51-.45-.86-.47h-.63Z" transform="translate(-10.72 -7.04)"/><path class="cls-5" d="M69.45,99.84c.25-.56.63-1.39,1.23-1.48A2.83,2.83,0,0,1,73,99c.77.55,7.88,5.33,13.06,5,3.1-.19,6.85-1.81,8.08-5.85,2.13-7.1-.51-21.58-1.94-28.42l-.44-2.14c-.24-1.78-.56-3.94.36-5.12a3.27,3.27,0,0,1,2.73-1.15L107.42,60a4.8,4.8,0,0,1,3.85,1.22,5.25,5.25,0,0,1,.84,3.11l.06.83c.64,6.66,2.12,26.8.15,37.68s-7.41,16.47-18.23,19c-11.32,2.67-22.64-2.76-27.56-6.39a8,8,0,0,1-2.35-2.61,2.84,2.84,0,0,1,.34-2.12c.05-.12,4.54-10.16,4.81-10.66l.13-.25m231.93,20.83c.2,5.53-2.63,5.81-4.31,6-.67.08-1.18.12-1.29.53l-.25.95c-1.64,6.33-3.66,14.23-18,13.78-4.21-.14-7.53-1.33-9.59-3.47a9.18,9.18,0,0,1-2.29-7.23c.72-7.65,11-10.22,17.06-11.08l.09,0,.06-.06s.57-3.32.31-3.58l-.12-.12-.15.07c-1.36.54-13.42,5-19.51-3.16l-.3-.45-.28.11a31,31,0,0,1-21,8.69c-8.09,0-14.44-3.54-17.44-9.72a18,18,0,0,1,3.24-20c4.3-4.74,9.43-7.46,14.44-7.71a13.52,13.52,0,0,1,9.84,3.39A7.93,7.93,0,0,1,254.21,96c-1.43,5.2-6.74,10.14-12.38,11.49l-.2,0v.19a1.81,1.81,0,0,0,1.06,1.68c2.14,1.22,6.88.55,10.84-1.48,4.75-2.46,6.61-6.08,6.75-8.39l.25-1.92c.52-4.18,1.08-8.5,2.89-12.62.63-.56,10.64-1.82,14-1,.5.14.78.28.85.46.19.67-.23,2.64-.71,4.92-1.08,5.23-2.73,13.12.18,17a3.39,3.39,0,0,0,2.54,1.16,3.33,3.33,0,0,0,2.48-1.24c.86-.81,1.2-5.9,1.61-12.47a42.22,42.22,0,0,1,.55-6.34c.61-.74,11.13-2.84,14.92-1.77.76.21,1.14.52,1.19.94.94,8.75-2.24,29.4-3.12,33a.36.36,0,0,0,.07.34c.2.23.63.25,1.46.23s2,0,2,.48M237.83,99.95c3.38,0,6.9-2.58,7.43-4.69A1.9,1.9,0,0,0,244.1,93a3.29,3.29,0,0,0-3.43.35c-1.91,1.31-3.39,4.35-3.11,6.42l0,.21Zm44.39,27.56v-.24h-.29c-3.33.18-6.72,1.86-7.54,3.71a1.9,1.9,0,0,0,.36,2.17,2.84,2.84,0,0,0,3.2.75A7.18,7.18,0,0,0,282.22,127.5Zm-67-32c3.5,4.39,5,8.52,4.29,12-.89,6.36-6.73,13.11-17.41,13-6.58-.09-10-2.57-12.15-4.71l-.21-.18-.16.23c-2.61,3.13-7.69,5.24-12.35,5.09a11.3,11.3,0,0,1-9.19-4.65c-3-4-1.16-9.46.19-12.31.77-1.61,1.45-3.6-.06-4.33a1.9,1.9,0,0,0-1.32,0c-1,.42-1.63,1.78-2,2.71l-.13.36c-3.14,7.4-8,13.06-13.61,15.94l-.23.11a31,31,0,0,1-16.31,3.15c-8.62-.76-15.13-4.87-17.86-11.29-2.57-6.06-1.19-13.13,3.63-18.42,4.31-4.71,9.42-7.45,14.44-7.69a13.56,13.56,0,0,1,9.84,3.39,7.94,7.94,0,0,1,2.3,8.44c-1.42,5.21-6.74,10.12-12.38,11.46l-.19,0V108a1.85,1.85,0,0,0,1,1.67c2,1.2,6.82.54,10.87-1.48a13,13,0,0,0,4.73-4.3c4.11-7.06,1.49-18.9,1.38-19.43a2.51,2.51,0,0,1,.13-2,3.86,3.86,0,0,1,2-.81,33.91,33.91,0,0,1,6.07-.44,45.22,45.22,0,0,1,6,.41l.18,0c.38.08.75.13.95.65a2.64,2.64,0,0,1,.1,1.62c-.16.83-.74,5,2.79,6.15,2.25,1.07,5.2.89,8.06.72l1.59-.12a3.05,3.05,0,0,1,3.1,1.83,3.76,3.76,0,0,1-.56,3.34c-.62,1.09-6,10.91-3.53,14,.64.82,1.77,1.07,3.33.75,5.33-1.07,8.27-14,8.31-19.06s2.58-13.94,7.59-14h10a3,3,0,0,1,2.42.7c.63.74.69,2.2.15,4.62-.9,4.27.95,8,4.21,12.67m-84.71,4.66c3.36,0,6.89-2.61,7.41-4.68a1.9,1.9,0,0,0-1.16-2.31,3.33,3.33,0,0,0-3.4.35c-1.93,1.31-3.42,4.37-3.11,6.43l0,.21Zm75.51,3c0-1.58-1-3-1.86-4.4a13.45,13.45,0,0,1-1.6-3l-.52.1c.15,3.54-1.5,8.72-3.32,10.47l-.28.26.36.14a6.44,6.44,0,0,0,4.76.17,4,4,0,0,0,2.22-2.44A4.08,4.08,0,0,0,206,103.2Zm40.53,42.72h0c1.61.3,2.38,2.31,2.08,4a1,1,0,0,0,.63,1.09c.83.34,2.25,0,3.37-1.45,3.13-4.12,3.94-9.86,1.91-13.67a7.19,7.19,0,0,0-6.81-3.9,8.28,8.28,0,0,0-6,2.21,6,6,0,0,0-2,4.19c0,1.86.82,6.35,6.78,7.52m-29.46,37c1.86.14,3.45.6,4.11,1.82a2.45,2.45,0,0,1,0,2.08,41.17,41.17,0,0,1-2,4.78l-.2.41c-.53,1.16-.95,2-3.64,2.06-8.14,0-17-8.23-20.76-11.75l-.76-.69,0,6.17a3.23,3.23,0,0,1-1.07,2.22,2.6,2.6,0,0,1-1.7.82l-1.77-.06-3.61-.13h-.39c-1.72,0-3.33,0-3.77-2.77-2-12.56-2.35-40.94,1.56-56.82.93-3.75,3.34-4.15,8.58-4.16h5.75c1.71,0,2.93.49,3.56,1.36s.71,2.26.09,4c-1.24,3.57-4,13.3-4.36,19l0,.54.45-.33c5.87-4.48,11.63-5,17.08-1.57,2.49,1.58,4,4.64,4.14,8.42.26,6.79-3.82,13.92-10.91,19.13l-.16.11.08.18c.92,1.93,6,4.9,9.75,5.12m-12-20.4a3,3,0,0,0-.17-.92,2.06,2.06,0,0,0-1.75-1.24,4.12,4.12,0,0,0-3.29.87c-2.6,2-3.77,6.5-3.9,8.87l0,.23.27,0c3.2,0,5.69-2.16,7.21-4A6.77,6.77,0,0,0,205.08,162.54Zm92,10.6a13.78,13.78,0,0,1,.18,1.86,2.59,2.59,0,0,1-1.35,2.38c-1.72,1.34-7.19,2.71-10.61.74l-.34-.2,0,.38c-.89,6.15-6.63,12.77-17.13,12.8-6.71,0-10.49-2.81-12.46-5.18l-.16-.16-.44.27a30.45,30.45,0,0,1-17.23,5.48c-6.8,0-12.38-2.52-15.72-7.17l-.33-.49c-4.34-6.56-3.48-15.43,2.09-21.61,4.21-4.66,9.26-7.36,14.17-7.6a13.4,13.4,0,0,1,9.68,3.35,7.84,7.84,0,0,1,2.27,8.32c-1.4,5.12-6.62,10-12.15,11.3l-.19.06v.19a2,2,0,0,0,1.19,1.81c2,1.05,6.56.75,10.51-1.63,5.26-3.13,7.49-11,7.7-15.5s2.37-14.76,7.45-14.8l9.87,0a3.13,3.13,0,0,1,2.37.72c.61.71.65,2.17.15,4.56-1,4.83,1.68,10,4.14,13.52,3.49,4.37,9,4.3,11.7,4.25l1.31-.06c2-.14,3-.21,3.38,2.43m-63.51-3c3.32,0,6.78-2.53,7.3-4.62a1.86,1.86,0,0,0-1.14-2.27,3.18,3.18,0,0,0-3.37.37c-1.9,1.26-3.37,4.29-3,6.3l0,.22Zm36.24-.46a14.07,14.07,0,0,1-1.57-2.91l-.5.08c.13,3.4-1.51,8.62-3.28,10.33l-.26.25.35.14a6.15,6.15,0,0,0,4.64.18,3.89,3.89,0,0,0,2.21-2.4C272.21,173.27,271,171.46,269.85,169.7Zm-99.77-8.37-10.76,0a4.4,4.4,0,0,0-3.17.85c-.76.79-1.07,2.24-.94,4.57.24,4.31.88,9.88,1.37,14.35l.58,5.48c.36,4,2.23,4.33,4.76,4.31l6.5,0c2.37,0,3.84-.22,4.24-4.36.37-4,1.17-13.19,1.53-19.82.13-2.34-.16-3.78-.93-4.54s-1.75-.82-3.16-.86m-6-3.77a9.94,9.94,0,0,0,10.06-9.72,9.54,9.54,0,0,0-3-6.93,10.24,10.24,0,0,0-7-2.77,10,10,0,0,0-10.05,9.74,9.47,9.47,0,0,0,3,6.92,10.09,10.09,0,0,0,7,2.77m-22.78-24.69c-.66-3.64-2.61-5.81-5.21-5.81l-10.39,0c-2,0-3.21,1.23-4.1,4.06-.82,2.57-6.85,22.83-6.9,23l-.26.83-7.08-23.83c-.9-2.85-2.13-4-4.09-4l-10.11,0c-2.61,0-4.59,2.19-5.23,5.82L77.41,185c-.48,2.31-.72,4,.15,5,.61.71,1.74,1,3.49,1l11.57,0c2.2,0,3.41-.23,4.83-4.8,1.15-3.79,2.07-8,2.82-11.33l1.25-5.46s6.72,15.63,6.72,15.67c.54,1.35,1.86,1.82,5.25,1.8l1.89,0c3.38,0,4.71-.47,5.26-1.83l6.74-15.67,4,16.77c1.06,4.47,2.52,4.78,4.81,4.78l11.4,0c1.76,0,2.9-.34,3.5-1,.89-1,.63-2.71.16-5l-10-52" transform="translate(-10.72 -7.04)"/></svg>