<svg id="Layer_1" data-name="Layer 1" xmlns="http://www.w3.org/2000/svg" viewBox="0 0 187.09 36.3"><defs><style>.cls-1{fill:#ea4e4e;fill-rule:evenodd;}</style></defs><title>Jewel-Osco_ffffff</title><path class="cls-1" d="M29,3.56S26.07,17,24.41,23.68a10,10,0,0,1-6.64,5.6c-1.66.62-13.9.62-13.9.62l1.24-6.43H14c1-.21,1.45-1.45,1.66-2.28,1.66-5.81,4.36-17.63,4.36-17.63Z" transform="translate(-1.59 -3.56)"/><polygon class="cls-1" points="92.09 28.42 90.22 36.09 0 36.09 1.66 28.42 92.09 28.42 92.09 28.42"/><polygon class="cls-1" points="181.28 28.42 179.41 36.09 102.67 36.09 104.33 28.42 181.28 28.42 181.28 28.42"/><path class="cls-1" d="M122.31,5c3.32,0,11.41,1.45,8.92,12.86-2.28,11.2-11,12.65-14.31,12.65-3.11,0-11.2-1.45-8.92-12.65C110.48,6.47,119.19,5,122.31,5Zm-4.36,21.16c2.7,0,6.84-1.66,8.3-8.3,1.45-6.84-2.07-8.5-4.77-8.5s-6.84,1.66-8.3,8.5c-1.45,6.64,2.07,8.3,4.77,8.3Z" transform="translate(-1.59 -3.56)"/><path class="cls-1" d="M144.71,17.46c.21-1.24,0-2.28-2.49-2.28-2.7,0-3.11.83-3.32,1.66-.62,2.9,11,.83,9.54,7.26-1,5.39-6.22,6.22-9.13,6.22-3.94,0-8.09-1.45-7.26-6.22h4.77c-.21,1.66.42,2.7,3.53,2.7,2.28,0,3.11-1.24,3.32-1.87.62-2.9-11-.83-9.54-7.47.62-2.49,2.9-6,8.5-6,3.53,0,7.47,1,6.84,6Z" transform="translate(-1.59 -3.56)"/><path class="cls-1" d="M167.11,23.27a9.78,9.78,0,0,1-9.54,7.05c-6.84,0-7.26-5.19-6.43-8.92,1.24-5.81,4.56-10,10.79-10,2.7,0,7.05,1.45,6.43,6.84h-4.77a2.61,2.61,0,0,0-2.7-2.9c-2.9,0-4.36,3.11-4.77,5.19s-1,5.81,2.49,5.81c2.28,0,3.53-2.28,3.73-3.11Z" transform="translate(-1.59 -3.56)"/><path class="cls-1" d="M176.85,30.32c-5,0-8.71-2.9-7.26-9.33s6.43-9.54,11.2-9.54,8.5,3.11,7.05,9.54a11,11,0,0,1-11,9.33ZM180,15.38c-3.73,0-5,3.32-5.6,5.6-.41,2.28-.41,5.39,3.32,5.39,3.53,0,5-3.11,5.39-5.39s.41-5.6-3.11-5.6Z" transform="translate(-1.59 -3.56)"/><path class="cls-1" d="M31.87,22.23a4.62,4.62,0,0,0,0,2.9,3.32,3.32,0,0,0,3.53,1.66,4.67,4.67,0,0,0,3.32-2.07h4.56c-1.66,3.53-6.43,6-9.54,6a8,8,0,0,1-4.56-1.45,6.05,6.05,0,0,1-2.28-4.36,13.71,13.71,0,0,1,.21-2.28,14.55,14.55,0,0,1,1-3.73c2.7-7.26,7.67-7.47,9.75-7.47,3.53,0,5.39,1.66,6,3.53,1.24,2.7.62,5.19,0,7.26Zm7.88-3.11c.41-1.45.41-3.73-2.49-3.73a4.6,4.6,0,0,0-4.77,3.73Z" transform="translate(-1.59 -3.56)"/><polygon class="cls-1" points="50.4 8.09 50.61 20.95 56 8.09 60.77 8.09 60.77 20.95 66.17 8.09 71.14 8.09 62.22 26.34 57.45 26.34 57.25 13.48 51.65 26.34 46.67 26.34 45.63 8.09 50.4 8.09 50.4 8.09"/><path class="cls-1" d="M76.05,22.23a4.62,4.62,0,0,0,0,2.9,3.2,3.2,0,0,0,3.53,1.66,3.9,3.9,0,0,0,3.11-2.07h4.77c-1.66,3.53-6.43,6-9.54,6a8,8,0,0,1-4.56-1.45,6.05,6.05,0,0,1-2.28-4.36,13.71,13.71,0,0,1,.21-2.28,9.26,9.26,0,0,1,1-3.73c2.49-7.26,7.67-7.47,9.75-7.47,3.53,0,5.39,1.66,6,3.53,1.24,2.7.62,5.19,0,7.26Zm7.88-3.11c.41-1.45.41-3.73-2.49-3.73a4.6,4.6,0,0,0-4.77,3.73Z" transform="translate(-1.59 -3.56)"/><polygon class="cls-1" points="97.9 1.87 92.71 26.34 87.94 26.34 93.13 1.87 97.9 1.87 97.9 1.87"/><path class="cls-1" d="M186.4,39.86a2.3,2.3,0,0,1-2.28-2.28,2.18,2.18,0,0,1,2.28-2.28,2.3,2.3,0,0,1,2.28,2.28,2.45,2.45,0,0,1-2.28,2.28Zm0-4.15a1.87,1.87,0,0,0,0,3.73,1.88,1.88,0,0,0,0-3.73Zm.41,3.11-.62-1H186v1h-.62V36.33h1c.62,0,1,.21,1,.62a.76.76,0,0,1-.83.83l.83,1Zm-.41-2.07H186v.62h.41c.21,0,.41,0,.41-.41,0-.21-.21-.21-.41-.21Z" transform="translate(-1.59 -3.56)"/><polygon class="cls-1" points="103.71 22.19 95.2 21.99 95.83 18.87 104.54 18.87 103.71 22.19 103.71 22.19"/></svg>