<svg id="Layer_1" data-name="Layer 1" xmlns="http://www.w3.org/2000/svg" viewBox="0 0 82.31 86.9"><defs><style>.cls-1{fill:#fff;}</style></defs><title>Kmart</title><g id="QFIpmc"><path class="cls-1" d="M89.08,5.09,56.74,37.6,88.85,69.89H87.63q-19,0-38,0a2.79,2.79,0,0,1-2.2-.9c-3.56-3.63-7.16-7.21-10.75-10.8-.29-.29-.6-.56-1.07-1V69.79H6.85V5.1H35.44V17.85c.57-.52.89-.8,1.19-1.11,3.65-3.66,7.28-7.33,11-11A2.74,2.74,0,0,1,49.3,5Q68.58,5,87.85,5C88.17,5,88.5,5,89.08,5.09Z" transform="translate(-6.77 -5)"/><path class="cls-1" d="M44.56,91.57c0-2.22,0-4.22,0-6.23,0-.42,0-.84,0-1.26-.09-1.58-.86-2.52-2.15-2.67a2.68,2.68,0,0,0-2.92,2.21,19.87,19.87,0,0,0-.17,3.25c0,1.39,0,2.77,0,4.16a2.09,2.09,0,0,1-.12.44H34.56c0-1.53,0-3,0-4.45,0-1.13,0-2.27,0-3.4a2.14,2.14,0,0,0-1.59-2.17,2.28,2.28,0,0,0-2.77,1.22,7.29,7.29,0,0,0-.67,2.76c-.1,2,0,3.94,0,6.1-1.5,0-2.91,0-4.31,0-.19,0-.51-.52-.51-.79,0-3.86,0-7.73-.05-11.59,0-.73.31-1,1-.94s1.18,0,1.76,0c1.85,0,1.85,0,2.16,1.72,3.25-3.16,7.1-2.73,9.12.51a6.58,6.58,0,0,1,5.34-2.62,5.08,5.08,0,0,1,5.37,5.15c.09,2.56,0,5.12,0,7.68,0,.69-.22,1-.94,1C47.2,91.54,46,91.57,44.56,91.57Z" transform="translate(-6.77 -5)"/><path class="cls-1" d="M23.48,78.29l-6,5.7,6.69,7.54c-2.38,0-4.42,0-6.45,0-.36,0-.75-.49-1-.82-1.59-1.83-3.15-3.67-5-5.8,0,2.09,0,3.82,0,5.56,0,.87-.23,1.22-1.13,1.16a27.1,27.1,0,0,0-2.89,0c-.68,0-1-.2-1-.92,0-5.37,0-16.11,0-16.11v-.64h4.91v9.83c1.2-1.13,5.56-5.47,5.56-5.47Z" transform="translate(-6.77 -5)"/><path class="cls-1" d="M61.15,83c0-1.2-.42-2.08-1.36-2.17a4.73,4.73,0,0,0-2.92.53,3,3,0,0,1-1.86.68c-1.12,0-2.25,0-3.42,0a3,3,0,0,1,1.49-2.81c2.51-1.85,8.34-2,11-.33A3.85,3.85,0,0,1,66,82.14c.06,2.68,0,5.37,0,8,0,.37,0,.75,0,1.24H61.43l-.19-1.59c-2,2-4.31,2.31-6.8,1.91-2.65-.42-3.88-2-3.73-4.61A3.14,3.14,0,0,1,53,84a56.72,56.72,0,0,1,6.29-1A14.74,14.74,0,0,1,61.15,83Zm0,2.57c-1.74.19-3.32.29-4.85.59-.45.09-.92.69-1.11,1.17a1.31,1.31,0,0,0,.51,1.12,3.47,3.47,0,0,0,3.46-.06A3,3,0,0,0,61.14,85.6Z" transform="translate(-6.77 -5)"/><path class="cls-1" d="M80,73.86H84.8V78c1,0,1.95,0,2.85,0s1.11.29,1.07,1.1c-.05,1,0,2,0,3.16H84.87a47.08,47.08,0,0,0,.06,4.87c0,.44.82,1,1.36,1.14a9.51,9.51,0,0,0,2.4,0,25.15,25.15,0,0,1,0,2.56,1,1,0,0,1-.69.66,23.39,23.39,0,0,1-4.37.1A3.63,3.63,0,0,1,80.1,88C79.94,83.36,80,78.66,80,73.86Z" transform="translate(-6.77 -5)"/><path class="cls-1" d="M79,82.14c-1.23.12-2.33.14-3.39.36A3.29,3.29,0,0,0,72.8,86c0,1.79,0,3.59,0,5.47H68V78.2a32,32,0,0,1,4.12.07c.35,0,.59,1,.89,1.51,1.51-1.75,3.64-2.06,6-1.71Z" transform="translate(-6.77 -5)"/></g></svg>