<?xml version="1.0" encoding="utf-8"?>
<!-- Generator: Adobe Illustrator 21.0.2, SVG Export Plug-In . SVG Version: 6.00 Build 0)  -->
<svg version="1.1" id="Layer_1" xmlns="http://www.w3.org/2000/svg" xmlns:xlink="http://www.w3.org/1999/xlink" x="0px" y="0px"
	 viewBox="0 0 171.8 28.2" style="enable-background:new 0 0 171.8 28.2;" xml:space="preserve">
<style type="text/css">
	.st0{fill-rule:evenodd;clip-rule:evenodd;fill:#FFFFFF;}
</style>
<g>
	<polygon class="st0" points="2,3.4 14.4,3.4 14.4,10 22.4,3.2 35.6,3.2 25.2,12.4 38,25.2 22.8,25.2 14.4,17 14.4,25.2 2,25.2 
		2,3.4 	"/>
	<path class="st0" d="M70.2,13.8c0,13.3-13.6,12-16.7,12c-3.1,0-16.7,0.9-16.7-11.4c0-13.1,12-12,17.1-12C58,2.4,70.2,1.1,70.2,13.8
		L70.2,13.8z M48.5,13.8c0,4.5,1,7.7,5.1,7.7c4.1,0,4.9-3.7,4.9-7.9c0-4.1-0.8-6.9-5.1-6.9C49.3,6.7,48.5,9.5,48.5,13.8L48.5,13.8z"
		/>
	<polygon class="st0" points="74.7,25.4 74.7,3 87.1,3 87.1,10.8 95.1,10.8 95.1,3 107.5,3 107.5,25.4 95.1,25.4 95.1,17 86.8,17 
		86.8,25.4 74.7,25.4 	"/>
	<path class="st0" d="M112.8,3v22.4h25.3v-7.1c-0.8,0.8-1.6,1.2-2.6,1.2c-0.9,0-10.3,0-10.3,0V3H112.8L112.8,3z"/>
	<path class="st0" d="M131.8,11.9v-2c-1.7-0.6-2.2-1.9-2.2-3.5c0-0.9,0.9-3.3,4-3.4c2.9-0.1,4.6,1.5,4.7,3.9
		C138.4,9.1,136.7,10.8,131.8,11.9L131.8,11.9z"/>
	<path class="st0" d="M166.8,4.6V10c-3.7-2.5-11.7-3.6-11.7-0.2c0,2.6,6.3,1.8,10.2,3.7c2.9,1.3,4.3,2.9,4.3,5.4
		c0,1.9-2.2,8.2-14.6,7.6c-9.7-0.5-12.1-1.7-13.1-2.4v-6.2c0,0,3.1,2.9,8.8,3.2c4.8,0.3,4.8-1.2,4.8-1.7c0-0.6-0.6-1.3-7.6-2.8
		c-6.4-1.3-6.6-5.2-6.6-6.6c0-1.3,1.1-7.5,15.1-7.5C159.2,2.6,165.7,3.2,166.8,4.6L166.8,4.6z"/>
</g>
</svg>
