<svg id="Layer_1" data-name="Layer 1" xmlns="http://www.w3.org/2000/svg" viewBox="0 0 187.09 147.41"><defs><style>.cls-1{fill:#0367b0;}.cls-1,.cls-2{fill-rule:evenodd;}.cls-2{fill:#fff;}</style></defs><title>Kroger_ffffff</title><path class="cls-1" d="M4.83,77.83c0,43.15,41.27,72.26,91.66,72.26,50.1,0,95.43-30.26,95.43-74.72,0-42.14-41.27-72.69-92.1-72.69-52.42,0-95,34-95,75.15Z" transform="translate(-4.83 -2.67)"/><path class="cls-2" d="M100.26,10.49c46,0,83.84,26.64,83.84,64.73,0,40.11-42.28,67-87.75,67-44.74,0-83.84-25.63-83.84-64.87,0-36.93,39.39-66.9,87.75-66.9Z" transform="translate(-4.83 -2.67)"/><path class="cls-1" d="M15.55,77c0,38.37,37.94,62.41,81.38,62.41,25.05,0,43.88-6.52,58.36-17.52,17.09-13,26.06-30.26,26.06-46.77,0-36.78-36.78-61.69-80.8-61.69-46.92,0-85,28.09-85,63.57Z" transform="translate(-4.83 -2.67)"/><path class="cls-2" d="M35.83,46.82h3.91c2.32,0,2.46.72,2.46,4.05h0V65.06h0c0,2.17.14,3.19,1.3,3.19,4.49,0,7.67-6.08,8.54-10.72,1-5.21.87-9.7,1.88-14.34,2.46-10.57,9.12-17.09,20.27-17.09,8.25,0,14.48,4.34,17.52,12a37.07,37.07,0,0,1,2.17,11.15c0,9.12,0,9.12-2.75,9.12H87.67c-1.74,0-2-.58-2-2.32,0-13.18,0-25.05-12.45-25.05C64.06,31,62.47,36.68,61,51.16S58.85,65.93,48.14,72c3.33,2,11,6.66,11,22.16,0,1.16-.43,1.3-1.88,1.3H54.07c-3,0-3-.14-4.34-10.28-.43-3.91-3-10.14-6.37-10.14-1,0-1.16,1-1.16,3.33h0l.29,15.49h0c0,1.16-.14,1.59-1.45,1.59H36.26c-1.88,0-2.61-.14-2.61-2.32h0L33.37,48.7h0c0-1.16.72-1.88,2.46-1.88Z" transform="translate(-4.83 -2.67)"/><path class="cls-2" d="M93.15,101.41c2.32,0,2.32,0,2.61,5.79a23.12,23.12,0,0,0,1.16,7.39c1.74,4.92,5.79,8.83,11.15,8.83,9.27,0,11.29-8.4,11.29-22a30.74,30.74,0,0,0-.72-7.24,12.61,12.61,0,0,1-5.94,1.59c-5.65,0-9.85-5.07-9.85-14.34,0-10.86,4.78-18.68,11-18.68,1.59,0,2.9.43,5.65,1.74,1.16-.87,1.59-.87,3.33-.87h2.9c1.74,0,2,.14,2,1,0,2.17-.58.43-.58,9.41h0V98.37h0c0,17.23-4.92,30.12-20.85,30.12-11.44,0-19.55-10.43-19.55-24.47,0-2.32.43-2.61,2.17-2.61h4.2Z" transform="translate(-4.83 -2.67)"/><path class="cls-1" d="M116,69.13c-2.75,0-4.78,3.47-4.78,11.15,0,5.07,1.74,8.4,4.63,8.4,3.19,0,3.33-1.74,3.33-13.9,0-3-.29-5.65-3.19-5.65Z" transform="translate(-4.83 -2.67)"/><path class="cls-2" d="M61.9,64.36c0-.43.29-.72,2.61-.72h2.32c1.45,0,1.59,0,3.62,1.88a11.91,11.91,0,0,1,5.65-1.88c1,0,1.16.87,1.16,2.75h0v2.9l.87.43h0c3.33-4.49,6.08-7.1,11.29-7.1,8.11,0,12.45,6.66,12.45,16.22,0,10.43-4.92,17.67-13.32,17.67-7.53,0-12.45-5.94-12.45-15.35A41.07,41.07,0,0,1,77.39,71C71,71.88,70,72.46,70,82.31h0v9.85h0c0,2.75-.14,3.33-2.9,3.33H64.5c-2.17,0-2.17-.29-2.17-3.76h0L61.9,64.36Z" transform="translate(-4.83 -2.67)"/><path class="cls-1" d="M89,69.72c-2.75,0-4.34,3.76-4.34,11.87,0,4.49,1.16,7.82,4.34,7.82,2.9,0,4.63-3.77,4.63-10.72,0-5.21-1.45-9-4.63-9Z" transform="translate(-4.83 -2.67)"/><path class="cls-2" d="M140.07,79.85c-1.74,0-2.32.72-2.32,2.32,0,3.77,1.74,7,4.34,7,4.63,0,2.61-6.81,6.23-6.81h4.34c1.3,0,1.74.29,1.74,1.59,0,7-6.66,12.16-12.16,12.16-8.83,0-13-7.53-13-16.8,0-8.83,5.07-16.94,13.18-16.94,7.82,0,12,6.37,12,15.49,0,1.59-.43,2-3,2H140.07Z" transform="translate(-4.83 -2.67)"/><path class="cls-1" d="M144.58,74.35a1.61,1.61,0,0,0,1.59-1.59c0-1.88-2.32-3.76-3.76-3.76-.72,0-3.76,1.45-3.76,3.91,0,.87.87,1.45,1.88,1.45h4.05Z" transform="translate(-4.83 -2.67)"/><path class="cls-2" d="M158.32,63.62h2.75c1.45,0,2,.14,3.33,2.17,4.05-2.17,4.49-2.46,5.65-2.46,1.45,0,1.88.72,1.88,1.88h0v3h0c0,4.78-3.91.72-6.08,4.78-.58,1.16-1.45,3.48-1.45,8.69h0V93h0c0,1.74-.29,2.46-1.88,2.46h-2.75c-1.45,0-2.9-.14-2.9-1.45h0l-.29-29.4h0c0-.72.58-1,1.74-1Z" transform="translate(-4.83 -2.67)"/><path class="cls-2" d="M134.53,99.46a2.39,2.39,0,1,0,.7,1.68,2.31,2.31,0,0,0-.7-1.68Z" transform="translate(-4.83 -2.67)"/><path class="cls-1" d="M134.29,99.69a2.06,2.06,0,1,1-2.9,2.91,2,2,0,0,1-.59-1.46,2,2,0,0,1,3.5-1.45Z" transform="translate(-4.83 -2.67)"/><path class="cls-2" d="M131.88,102.44h.46v-1h.36a1.1,1.1,0,0,1,.51.08.64.64,0,0,1,.25.6h0v.29h0v.05h.43l0,0h0a.42.42,0,0,1,0-.14q0-.1,0-.19h0v-.19h0a.72.72,0,0,0-.14-.41.64.64,0,0,0-.45-.26,1,1,0,0,0,.38-.13.57.57,0,0,0,.26-.52.65.65,0,0,0-.41-.66,2,2,0,0,0-.71-.09h-.92v2.62Z" transform="translate(-4.83 -2.67)"/><path class="cls-1" d="M133.2,101a1.25,1.25,0,0,1-.44.06h-.42v-.95h.39a1.2,1.2,0,0,1,.56.1.47.47,0,0,1-.1.79Z" transform="translate(-4.83 -2.67)"/></svg>