<svg id="Layer_1" data-name="Layer 1" xmlns="http://www.w3.org/2000/svg" viewBox="0 0 455.97 155.6"><defs><style>.cls-1{fill:#090540;}.cls-2{fill:#ffb202;}</style></defs><title>la_fitness</title><path d="M2.86,151.84V117.91h7.47v27.15H27.24v6.79Z" transform="translate(-2.86 -2.45)"/><path d="M71.7,151.84l-3.1-7.61H54.25l-3.1,7.61H43.53l14.54-34.18H65L79.5,151.84ZM61.42,126.64l-4.51,11h9Z" transform="translate(-2.86 -2.45)"/><path d="M96.91,158V113.16h5.82V158Z" transform="translate(-2.86 -2.45)"/><path d="M133.42,124.7v7.22h16.19v6.79H133.42v13.14H126V117.91h25.84v6.79Z" transform="translate(-2.86 -2.45)"/><path d="M173.86,151.84V117.91h7.47v33.93Z" transform="translate(-2.86 -2.45)"/><path d="M222.87,124.79v27h-7.47v-27H205.08v-6.88H233.2v6.88Z" transform="translate(-2.86 -2.45)"/><path d="M276.54,151.84l-16.43-21.57v21.57h-7.37V117.91h6.88l15.9,20.89V117.91h7.37v33.93Z" transform="translate(-2.86 -2.45)"/><path d="M307.77,151.84V117.91h25.6v6.64H315.19v6.88h16v6.64h-16v7.13h18.42v6.64Z" transform="translate(-2.86 -2.45)"/><path d="M372,152.33a21.59,21.59,0,0,1-14.4-5.43l4.41-5.28c3.05,2.52,6.25,4.12,10.13,4.12,3.05,0,4.9-1.21,4.9-3.2v-.1c0-1.89-1.16-2.86-6.83-4.31-6.84-1.75-11.25-3.64-11.25-10.37v-.1c0-6.16,4.94-10.23,11.88-10.23a19.65,19.65,0,0,1,12.6,4.31l-3.88,5.62c-3-2.08-6-3.34-8.82-3.34s-4.36,1.31-4.36,3v.1c0,2.23,1.45,3,7.32,4.46,6.88,1.79,10.76,4.27,10.76,10.18v.1C384.42,148.55,379.28,152.33,372,152.33Z" transform="translate(-2.86 -2.45)"/><path d="M425.05,152.33a21.59,21.59,0,0,1-14.4-5.43l4.41-5.28c3.05,2.52,6.25,4.12,10.13,4.12,3.05,0,4.9-1.21,4.9-3.2v-.1c0-1.89-1.16-2.86-6.83-4.31-6.84-1.75-11.25-3.64-11.25-10.37v-.1c0-6.16,4.94-10.23,11.88-10.23a19.65,19.65,0,0,1,12.6,4.31l-3.88,5.62c-3-2.08-6-3.34-8.82-3.34s-4.36,1.31-4.36,3v.1c0,2.23,1.45,3,7.32,4.46,6.88,1.79,10.76,4.27,10.76,10.18v.1C437.51,148.55,432.37,152.33,425.05,152.33Z" transform="translate(-2.86 -2.45)"/><path d="M453.74,154a5.07,5.07,0,1,1,5.08-5.08A5,5,0,0,1,453.74,154Zm0-9.58a4.51,4.51,0,1,0,4.47,4.5A4.46,4.46,0,0,0,453.77,144.43Zm1.25,5.13,1.32,1.93h-1.39l-1.15-1.74h-.94v1.74h-1.19V146.1h2.4c1.29,0,2.12.66,2.12,1.78A1.68,1.68,0,0,1,455,149.56Zm-1-2.41h-1.16v1.58H454c.6,0,.92-.32.92-.79S454.61,147.15,454,147.15Z" transform="translate(-2.86 -2.45)"/><path class="cls-1" d="M299.11,12.5c-47.95,14-82.62,28-115.44,48.68h52.74L221.66,72.25H123.55C202.48,24.67,299.11,12.5,299.11,12.5Z" transform="translate(-2.86 -2.45)"/><path class="cls-2" d="M212.44,53.81C318.29-5.94,417.88,2.91,417.88,2.91s-65.65,7.38-139.42,50.9Z" transform="translate(-2.86 -2.45)"/></svg>