<svg id="Layer_1" data-name="Layer 1" xmlns="http://www.w3.org/2000/svg" viewBox="0 0 165.64 51.86"><defs><style>.cls-1{fill:#fff;}</style></defs><title>library</title><path class="cls-1" d="M8.19,8.87A17.61,17.61,0,0,0,8,6.15,4.32,4.32,0,0,0,7.32,4.3a3.24,3.24,0,0,0-1.46-1.1,8.39,8.39,0,0,0-2.54-.49.5.5,0,0,1-.46-.28,1.22,1.22,0,0,1-.15-.59,1.08,1.08,0,0,1,.15-.56A.51.51,0,0,1,3.31,1Q5,1,7.06,1.16t4,.15q1.08,0,2-.05l1.85-.1,1.82-.1q.92-.05,2-.05a.45.45,0,0,1,.44.26,1.06,1.06,0,0,1,.1.56,1.49,1.49,0,0,1-.18.59.46.46,0,0,1-.41.28,10.21,10.21,0,0,0-2.57.44,3,3,0,0,0-1.49,1A3.91,3.91,0,0,0,13.95,6a22,22,0,0,0-.15,2.88V26.74a20.43,20.43,0,0,0,.15,2.75,5.33,5.33,0,0,0,.56,1.85,2.93,2.93,0,0,0,1.13,1.16,8.16,8.16,0,0,0,1.8.72,13.13,13.13,0,0,0,1.62.23q.9.08,1.88.08,1.23,0,2.31-.1a7,7,0,0,0,1.64-.31,11.61,11.61,0,0,0,1.77-.77,4,4,0,0,0,1.26-1.08,5.66,5.66,0,0,0,.85-1.67,14.09,14.09,0,0,0,.54-2.54.5.5,0,0,1,.36-.41,2.1,2.1,0,0,1,.67-.1,1.32,1.32,0,0,1,.64.15.37.37,0,0,1,.23.41q-.26,2.16-.46,4A28.16,28.16,0,0,0,30.59,35a.86.86,0,0,1-.21.44q-.21.28-1,.28H10.76q-2,0-3.85.13L3.26,36a.61.61,0,0,1-.54-.26,1,1,0,0,1-.18-.56,1.08,1.08,0,0,1,.18-.59.73.73,0,0,1,.54-.33,26,26,0,0,0,2.57-.44,3.19,3.19,0,0,0,1.49-.72A2.59,2.59,0,0,0,8,31.7a15,15,0,0,0,.18-2.65V8.87Z" transform="translate(-2.54)"/><path class="cls-1" d="M42.3,29.46q0,1.28.05,2.16a3.4,3.4,0,0,0,.36,1.44,2,2,0,0,0,1,.87,6.21,6.21,0,0,0,1.82.46.66.66,0,0,1,.46.28,1,1,0,0,1,.15.54.87.87,0,0,1-.15.49.52.52,0,0,1-.46.23,21.09,21.09,0,0,1-2.41-.18,25.33,25.33,0,0,0-3-.18,28.17,28.17,0,0,0-3.21.18,26.45,26.45,0,0,1-3,.18.47.47,0,0,1-.41-.23.87.87,0,0,1-.15-.49,1,1,0,0,1,.15-.54.66.66,0,0,1,.46-.28A8.07,8.07,0,0,0,36,33.93,2.21,2.21,0,0,0,37,33.09a2.85,2.85,0,0,0,.38-1.34q.05-.8.05-2V21.5q0-2.21-.1-3.54a5.48,5.48,0,0,0-.46-2,1.9,1.9,0,0,0-1.08-1,9.54,9.54,0,0,0-2-.41.5.5,0,0,1-.46-.26.93.93,0,0,1,0-1,.5.5,0,0,1,.46-.26l1.26-.1,1.57-.13q.82-.08,1.67-.21t1.52-.28a5.09,5.09,0,0,0,.9-.23,1.61,1.61,0,0,1,.54-.13.8.8,0,0,1,.8.36,1.52,1.52,0,0,1,.18.67ZM39.57,6.71a3.27,3.27,0,0,1-2.21-.8,2.51,2.51,0,0,1-.92-2,2.65,2.65,0,0,1,.87-2,3,3,0,0,1,2.16-.82,2.66,2.66,0,0,1,2,.85,2.86,2.86,0,0,1,.8,2,2.67,2.67,0,0,1-.77,1.93A2.6,2.6,0,0,1,39.57,6.71Z" transform="translate(-2.54)"/><path class="cls-1" d="M51.85,9.64q0-2.21-.05-3.54a5.31,5.31,0,0,0-.39-2,1.8,1.8,0,0,0-1.05-1,9.78,9.78,0,0,0-2.05-.41.41.41,0,0,1-.38-.26,1.45,1.45,0,0,1-.15-.51.92.92,0,0,1,.1-.51.45.45,0,0,1,.44-.26q1.49-.1,3.36-.31A21.34,21.34,0,0,0,55.45.09q.72-.21,1,.08a1.26,1.26,0,0,1,.28.59V15.49c0,.07,0,.1.05.1a.17.17,0,0,0,.15-.1,9.33,9.33,0,0,1,2.8-2.67,8.1,8.1,0,0,1,4.49-1.18,7.85,7.85,0,0,1,3.9,1,8.94,8.94,0,0,1,2.85,2.52,11.3,11.3,0,0,1,1.75,3.62A15.36,15.36,0,0,1,73.27,23a15.05,15.05,0,0,1-1.05,5.88A11.4,11.4,0,0,1,69.36,33,11.76,11.76,0,0,1,65.2,35.4a15.5,15.5,0,0,1-5,.8A34.61,34.61,0,0,1,56.37,36a20.55,20.55,0,0,1-4.52-1.1Zm4.83,20.9a2.14,2.14,0,0,0,.36.92,4.82,4.82,0,0,0,1,1.18,6.8,6.8,0,0,0,1.54,1,4.46,4.46,0,0,0,2,.44,5.31,5.31,0,0,0,3.08-.85,5.89,5.89,0,0,0,2-2.31,11.42,11.42,0,0,0,1-3.36,27.34,27.34,0,0,0,.28-4,26,26,0,0,0-.21-3.36,9.62,9.62,0,0,0-.74-2.75,4.58,4.58,0,0,0-1.52-1.87,4.34,4.34,0,0,0-2.57-.69,5.89,5.89,0,0,0-2.47.51,7.9,7.9,0,0,0-2,1.23,5.58,5.58,0,0,0-1.28,1.59,3.39,3.39,0,0,0-.46,1.54Z" transform="translate(-2.54)"/><path class="cls-1" d="M85.18,29.46q0,1.28.08,2.16a2.57,2.57,0,0,0,.54,1.44,3,3,0,0,0,1.44.87,13.73,13.73,0,0,0,2.83.46.66.66,0,0,1,.46.28,1,1,0,0,1,.15.54.87.87,0,0,1-.15.49.52.52,0,0,1-.46.23,37.49,37.49,0,0,1-3.9-.18,30.8,30.8,0,0,0-3.24-.18,29.58,29.58,0,0,0-3.26.18,29.56,29.56,0,0,1-3.26.18.47.47,0,0,1-.41-.23.87.87,0,0,1-.15-.49,1,1,0,0,1,.15-.54.66.66,0,0,1,.46-.28,9.17,9.17,0,0,0,2.23-.46,2.35,2.35,0,0,0,1.16-.85,2.88,2.88,0,0,0,.44-1.34q.08-.8.08-2v-7.5q0-2.52-.1-4A6.36,6.36,0,0,0,79.77,16,1.94,1.94,0,0,0,78.56,15a10.43,10.43,0,0,0-2.26-.36.41.41,0,0,1-.38-.26,1.1,1.1,0,0,1,0-1,.45.45,0,0,1,.44-.26q1-.1,2.85-.23a19.44,19.44,0,0,0,3.72-.64,2,2,0,0,1,1.18-.05q.46.15.41.87l-.1,3.29c0,.07,0,.11.05.13s.08,0,.15-.08a10.33,10.33,0,0,1,2.64-3.44,6.41,6.41,0,0,1,4.19-1.28,4.16,4.16,0,0,1,3.18,1.1,3.81,3.81,0,0,1,1,2.7A2.29,2.29,0,0,1,95,17a2.46,2.46,0,0,1-1.9.72,2,2,0,0,1-1.64-.56A1.9,1.9,0,0,1,91,16a2,2,0,0,0-.28-1.13,1.4,1.4,0,0,0-1.21-.41,2.75,2.75,0,0,0-1.77.64,6.39,6.39,0,0,0-1.36,1.52,7.88,7.88,0,0,0-.87,1.8,4.91,4.91,0,0,0-.31,1.44Z" transform="translate(-2.54)"/><path class="cls-1" d="M115.95,30.13a6.58,6.58,0,0,0,.33,2.52,1.3,1.3,0,0,0,1.31.72,2.79,2.79,0,0,0,.92-.13,6.1,6.1,0,0,0,1-.54.3.3,0,0,1,.33,0,1,1,0,0,1,.31.28,1.14,1.14,0,0,1,.18.41.39.39,0,0,1-.1.39,6,6,0,0,1-4.73,2.41,4.1,4.1,0,0,1-2.54-.8,5.07,5.07,0,0,1-1.57-1.87c-.07-.17-.17-.19-.31-.05a11.66,11.66,0,0,1-3.11,2,11.18,11.18,0,0,1-4.44.77,6.17,6.17,0,0,1-4.52-1.57,6,6,0,0,1-1.59-4.44,6.22,6.22,0,0,1,3.44-5.68q3.44-2,10-2c.07,0,.12-.08.15-.26a8,8,0,0,0,.05-1.18V19.71a13.52,13.52,0,0,0-.21-2.41,6.13,6.13,0,0,0-.69-2A3.53,3.53,0,0,0,108.86,14a4.37,4.37,0,0,0-2.16-.49,5.71,5.71,0,0,0-3.08.74,2.22,2.22,0,0,0-1.18,1.93,2,2,0,0,0,.36,1.1,2,2,0,0,1,.36,1.1,1.91,1.91,0,0,1-.72,1.39,2.47,2.47,0,0,1-1.75.67,2.38,2.38,0,0,1-2-.74,2.84,2.84,0,0,1-.59-1.82,4.54,4.54,0,0,1,.72-2.44,6.5,6.5,0,0,1,2-2,10.62,10.62,0,0,1,2.88-1.31,12,12,0,0,1,3.44-.49,10,10,0,0,1,6.47,1.9q2.36,1.9,2.36,6.32ZM111.12,25a2.63,2.63,0,0,0-.05-.69c0-.08-.12-.13-.26-.13A13,13,0,0,0,104.57,26a4.42,4.42,0,0,0-1.26,6.21,3,3,0,0,0,2.57,1.05,7.48,7.48,0,0,0,2.49-.46,7.35,7.35,0,0,0,2.34-1.33,1.19,1.19,0,0,0,.41-.82Z" transform="translate(-2.54)"/><path class="cls-1" d="M130.84,29.46q0,1.28.08,2.16a2.57,2.57,0,0,0,.54,1.44,3,3,0,0,0,1.44.87,13.73,13.73,0,0,0,2.83.46.66.66,0,0,1,.46.28,1,1,0,0,1,.15.54.87.87,0,0,1-.15.49.52.52,0,0,1-.46.23,37.49,37.49,0,0,1-3.9-.18,30.8,30.8,0,0,0-3.24-.18,29.58,29.58,0,0,0-3.26.18,29.56,29.56,0,0,1-3.26.18.47.47,0,0,1-.41-.23.87.87,0,0,1-.15-.49,1,1,0,0,1,.15-.54.66.66,0,0,1,.46-.28,9.17,9.17,0,0,0,2.23-.46,2.35,2.35,0,0,0,1.16-.85,2.88,2.88,0,0,0,.44-1.34q.08-.8.08-2v-7.5q0-2.52-.1-4a6.36,6.36,0,0,0-.49-2.26A1.94,1.94,0,0,0,124.22,15a10.43,10.43,0,0,0-2.26-.36.41.41,0,0,1-.38-.26,1.1,1.1,0,0,1,0-1,.45.45,0,0,1,.44-.26q1-.1,2.85-.23a19.44,19.44,0,0,0,3.72-.64,2,2,0,0,1,1.18-.05q.46.15.41.87l-.1,3.29c0,.07,0,.11.05.13s.08,0,.15-.08a10.33,10.33,0,0,1,2.64-3.44,6.41,6.41,0,0,1,4.19-1.28,4.16,4.16,0,0,1,3.18,1.1,3.81,3.81,0,0,1,1,2.7,2.29,2.29,0,0,1-.67,1.59,2.46,2.46,0,0,1-1.9.72,2,2,0,0,1-1.64-.56,1.9,1.9,0,0,1-.46-1.23,2,2,0,0,0-.28-1.13,1.4,1.4,0,0,0-1.21-.41,2.75,2.75,0,0,0-1.77.64A6.39,6.39,0,0,0,132,16.57a7.88,7.88,0,0,0-.87,1.8,4.91,4.91,0,0,0-.31,1.44Z" transform="translate(-2.54)"/><path class="cls-1" d="M156,29.05c.1.21.23.29.38.26a.47.47,0,0,0,.33-.26q1.59-3.13,2.8-6t2.13-5.57a4.13,4.13,0,0,0,.36-1.54,1.46,1.46,0,0,0-.28-.92,2,2,0,0,0-.72-.56,4.25,4.25,0,0,0-.92-.31l-.85-.15a.57.57,0,0,1-.44-.28,1,1,0,0,1-.13-.49.75.75,0,0,1,.15-.46.49.49,0,0,1,.41-.21,16.27,16.27,0,0,1,2,.13,16.48,16.48,0,0,0,2.05.13,23.2,23.2,0,0,0,2.41-.13c.82-.08,1.47-.13,2-.13a.43.43,0,0,1,.38.21,1,1,0,0,1,.13.51,1,1,0,0,1-.13.49.41.41,0,0,1-.38.23,4.11,4.11,0,0,0-1.28.36,2.42,2.42,0,0,0-.87.74,7.8,7.8,0,0,0-.72,1.23q-.36.74-.82,1.77-1.49,3.24-3.08,6.91t-3.39,7.52q-1.64,3.6-3.36,7.06t-3.31,6.5q-.41.77-1,1.77a11.75,11.75,0,0,1-1.46,1.9,8.29,8.29,0,0,1-1.93,1.52,4.68,4.68,0,0,1-2.36.62,4.36,4.36,0,0,1-2.26-.64,2.24,2.24,0,0,1-1.08-2.08,2.73,2.73,0,0,1,.67-1.85,2.2,2.2,0,0,1,1.75-.77,1.24,1.24,0,0,1,.72.18,5.36,5.36,0,0,1,.49.39,4.17,4.17,0,0,0,.51.39,1.26,1.26,0,0,0,.69.18,2,2,0,0,0,1.28-.72,15.18,15.18,0,0,0,1.51-1.82q.8-1.11,1.59-2.47T151.39,40q.67-1.28,1.16-2.31t.69-1.49a2.88,2.88,0,0,0,.26-1.08,2,2,0,0,0-.21-.92l-3.65-7.55q-2-4.16-3.8-8.32-.51-1.23-.92-2a5.75,5.75,0,0,0-.85-1.23,3.19,3.19,0,0,0-1-.72,6.11,6.11,0,0,0-1.44-.41.54.54,0,0,1-.39-.28,1,1,0,0,1-.13-.49.75.75,0,0,1,.15-.46.49.49,0,0,1,.41-.21q1.59,0,3.06.13t3,.13q1.49,0,2.93-.13t2.93-.13a.43.43,0,0,1,.39.21.86.86,0,0,1,.13.46,1,1,0,0,1-.13.49.55.55,0,0,1-.39.28,6.19,6.19,0,0,0-2.31.62,1.27,1.27,0,0,0-.67,1.13,5.7,5.7,0,0,0,.46,2.16q1.08,2.88,2.36,5.75T156,29.05Z" transform="translate(-2.54)"/></svg>