<svg id="Layer_1" data-name="Layer 1" xmlns="http://www.w3.org/2000/svg" viewBox="0 0 161.46 74.88"><defs><style>.cls-1{fill:#005697;}.cls-1,.cls-3{fill-rule:evenodd;}.cls-2,.cls-3{fill:#fff;}</style></defs><title>Lowes</title><polygon class="cls-1" points="80.98 0.67 123.21 19.47 147.7 19.47 147.7 27.33 161.1 27.33 161.1 74.27 0.86 74.27 0.86 27.33 14.26 27.33 14.26 19.47 38.75 19.47 80.98 0.67 80.98 0.67"/><path class="cls-2" d="M164.41,76.64H3V28.49h13.4V20.62h25L83.68,1.77,126,20.62h25v7.87h13.4ZM4.17,75.42h159V29.71H149.8V21.84h-24L83.68,3.1,41.58,21.84h-24v7.87H4.17Z" transform="translate(-2.95 -1.77)"/><path class="cls-3" d="M62.88,37.63a3.45,3.45,0,0,1,3.06,2.53l.38,1.6V61.1A4.25,4.25,0,0,1,63.9,64l-1.79.27H50a3.25,3.25,0,0,1-2.93-1.47,4.57,4.57,0,0,1-.64-2.13V40.43a3.51,3.51,0,0,1,1.91-2.53l1-.27Zm-3.57,6h-6V58h6.12l-.13-14.4Z" transform="translate(-2.95 -1.77)"/><path class="cls-3" d="M33.16,31.9V58H43.75V64.3H26.14V31.9Z" transform="translate(-2.95 -1.77)"/><polygon class="cls-3" points="123.21 30.13 123.21 37.73 117.21 37.73 117.21 30.13 123.21 30.13 123.21 30.13"/><path class="cls-3" d="M142.49,39.9v5.47c-1.15-.4-2.55-1.2-3.7-1.6-2-.8-5.23-1.87-6.76-.27a2,2,0,0,0-.64,1.6c.38,1.87,2.42,2.13,3.7,3.07,3.19,1.33,7.53,3.73,7.91,7.87a7.58,7.58,0,0,1-2.55,7.73c-4.21,3.6-15.18-.27-15.18-.27V57.37s7.27,2.8,9.06,2.53a2.75,2.75,0,0,0,2.3-1.6,2.83,2.83,0,0,0-.38-2.27c-3.57-2.67-8.17-3.07-10.59-7.47a8.47,8.47,0,0,1,.38-8c2-3.2,5.36-4.13,8.93-3.73a20.64,20.64,0,0,1,7.53,3.07Z" transform="translate(-2.95 -1.77)"/><path class="cls-3" d="M87.51,58h3.7V37.63h7.14V60.3A4.15,4.15,0,0,1,96.18,64l-1.4.27H86.23c-.89-.13-1.79-1.2-2.3-2-.64,1.2-1,2-2.3,2H73.47a2.93,2.93,0,0,1-1.28-.4c-.77-.4-2-.93-2-3.6V37.63h7V58H81V37.63h6.51V58Z" transform="translate(-2.95 -1.77)"/><path class="cls-3" d="M118.64,43.63h-9.44V48h9.44v6h-9.44v4h9.44V64.3H102.18V37.63h16.46v6Z" transform="translate(-2.95 -1.77)"/><path class="cls-3" d="M143.9,39.63a2.11,2.11,0,1,1,4.21,0,2.15,2.15,0,0,1-2,2.13,2.17,2.17,0,0,1-2.17-2.13Zm2.17,1.73a1.64,1.64,0,0,0,1.66-1.73,1.76,1.76,0,0,0-1.66-1.87,1.78,1.78,0,0,0-1.79,1.87,1.68,1.68,0,0,0,1.79,1.73Zm-.51-.53h-.38V38.3h.89c.64,0,.89.27.89.8s-.26.53-.64.67l.77,1.07h-.51l-.64-1.07h-.38v1.07Zm.51-1.33a.48.48,0,0,0,.51-.53c0-.27-.26-.27-.51-.27h-.51v.8Z" transform="translate(-2.95 -1.77)"/></svg>