<svg id="Layer_1" data-name="Layer 1" xmlns="http://www.w3.org/2000/svg" viewBox="0 0 194.42 43.97"><defs><style>.cls-1{fill:#fad717;}</style></defs><title>loyality_card</title><path class="cls-1" d="M12.14,27c2.2-.18,3.38.66,3.87,2,.13.35.13.66-.44.66-2.2,0-7,1.05-9.58,1.71-1.05.26-1.49.26-2-.44A12.77,12.77,0,0,1,2.87,29,3.08,3.08,0,0,1,3,26.47,165.26,165.26,0,0,1,15,4c.4-.53.79-.48,1.05.09.53,1.1.7,2.94-1.1,6.19-2.28,4.17-6.28,10.94-9.53,18A41.46,41.46,0,0,1,12.14,27Z" transform="translate(-2.66 -2.93)"/><path class="cls-1" d="M50.54,26.47c-1.67,2.72-4.74,4.39-8.39,5.84-2.46,6-5.67,13-9.23,14.41a1.9,1.9,0,0,1-2.5-.88,5.57,5.57,0,0,1-.88-5.45c1.23-4,5.05-6.63,9.36-8.35.44-1.05.88-2.07,1.32-3.16-1.32,1.41-3,2.59-4.74,2.42-3.16-.31-3.25-3.47-2.29-6.37a33.56,33.56,0,0,1,1.93-4.35,6.42,6.42,0,0,1-4,1.1c-1,3.73-3.69,8.3-6.94,9.31a4.74,4.74,0,0,1-5.54-1.84c-1.93-2.59-1.27-6.41.7-9.88,1.71-3,4.35-5.54,7-5.71A3,3,0,0,1,29.23,15c1.05,1.36,2.33,1.58,2.11,4.83,0,.22,0,.44,0,.7,2.9-.13,5.54-3.21,7.91-6.72.35-.53.75-.57,1.14,0,1,1.36.75,3.25-.83,5.84a37,37,0,0,0-3.38,6.46c-.79,2.15-.79,3.69.13,3.78,1.76.13,4-2.68,6.24-6.5,1.93-3.25,3.78-7.21,5.32-9.53.35-.53.7-.66,1.05-.22.66.75,1,2.64-.13,4.83-1.32,2.59-4,7.86-5.89,12.08a22.39,22.39,0,0,0,7.78-6.72c.26-.35.66-.35.75.09A4.15,4.15,0,0,1,50.54,26.47ZM25.37,16.8A15.28,15.28,0,0,0,21.89,21c-1.89,3.29-2.46,7.29-1.32,8.26s3.82-.53,6-4.48A20.4,20.4,0,0,0,28.22,21,5.32,5.32,0,0,1,25.37,16.8Zm3.43,0c-.22-1.45-1.14-1.23-1.32.09a3.53,3.53,0,0,0,1.05,3A10.27,10.27,0,0,0,28.79,16.8Zm2.5,27.5c.57.79,4.17-4,6.9-10.46C32.44,37.19,30.5,43.25,31.3,44.3Z" transform="translate(-2.66 -2.93)"/><path class="cls-1" d="M65.91,13.73q.59-.86,1.05-.26c.66.79,1,2.68,0,4.88-1,2-3.16,5.27-4.22,7.6s-1.14,4.35.35,4.26c1.8-.09,4.22-3.08,5.75-6.11.22-.4.53-.44.7,0a3.94,3.94,0,0,1-.4,2.72c-1.14,2.42-3.91,4.83-6.33,4.7s-3.6-1.54-3.6-3.6c-1.41,1.8-3.38,3.43-5.49,3.43-4.09,0-4.92-5.58-1.27-10.89s7-7.16,9.23-7.16c1.89,0,2.77,1.45,2.68,3.16C64.9,15.35,65.42,14.43,65.91,13.73Zm-3.51,1.8c-1.41-.13-4.61,2.72-7,6.63s-2.9,7.64-1.19,7.69,4.08-2.77,6.33-6.63C63.27,18.38,63.67,15.66,62.39,15.53Z" transform="translate(-2.66 -2.93)"/><path class="cls-1" d="M72,30c2.11.18,5.18-3,6.9-6.37.31-.57.79-.61,1,0a4,4,0,0,1-.44,2.72c-.62,1.32-3.82,5-7.34,4.88-3-.09-4.66-2.2-3.65-6.94,1.63-7.64,6.63-15.59,11.11-20.25.66-.7,1.27-.79,1.89-.22C82.73,5,83,6.61,82.46,8.67c-1.36,5.4-6.28,10.67-10.19,13.22C70.52,26.2,70,29.85,72,30ZM81,7.75c-.57-.35-3.82,4.53-6.85,10.15A23.45,23.45,0,0,0,73.06,20C79.08,15.13,81.54,8.1,81,7.75Z" transform="translate(-2.66 -2.93)"/><path class="cls-1" d="M78.16,24.93a54.27,54.27,0,0,1,5.62-10.67c.4-.53.7-.66,1.05-.26.66.7,1,2.59,0,4.79C83.87,20.71,82,23.7,81.1,25.9c-1.05,2.55-1,4.26.44,4.17,2-.09,4.39-3,5.71-6,.22-.4.53-.35.7,0a3.13,3.13,0,0,1-.31,2.72,7.88,7.88,0,0,1-6.55,4.57C77.76,31.34,76.93,28.53,78.16,24.93ZM88,13.46a1.59,1.59,0,0,1-2.46-.66,2.73,2.73,0,0,1,.22-3.25c.7-.75,2-.22,2.55,1A2.65,2.65,0,0,1,88,13.46Z" transform="translate(-2.66 -2.93)"/><path class="cls-1" d="M89.53,12.45c-.44-.61-.18-.92.48-.88a25,25,0,0,0,3.65-.18A56.46,56.46,0,0,1,97,6c.4-.57.83-.53,1.05,0,.48,1.23.48,2.68-.57,5a2.75,2.75,0,0,1,2.72,1.32c.31.53.13.83-.53.83a13.1,13.1,0,0,0-3.43.18c-1.71,2.94-4.22,7.21-5.89,10.89-1.45,3.21-1,5.93.88,6s4.48-3,6.11-6.33c.26-.53.75-.61.92,0a3.68,3.68,0,0,1-.44,2.5c-.57,1.27-3.47,5.14-7,5C88,31.25,85.62,28,87.73,23c.92-2.2,2.77-5.89,4.66-9.36A3.62,3.62,0,0,1,89.53,12.45Z" transform="translate(-2.66 -2.93)"/><path class="cls-1" d="M104.82,32.31c-2.46,5.89-5.58,13-9.23,14.37a1.89,1.89,0,0,1-2.5-.92,5.52,5.52,0,0,1-.88-5.45c1.32-4,5.05-6.59,9.4-8.3.44-1,.88-2.11,1.36-3.16-1.36,1.41-3,2.55-4.79,2.42C95,31,94.93,27.78,95.95,24.88a46.89,46.89,0,0,1,6-11.11.61.61,0,0,1,1.1,0c1.05,1.41.79,3.25-.83,5.84A40,40,0,0,0,98.8,26c-.88,2.15-.79,3.69.22,3.78,1.71.13,3.91-2.68,6.15-6.5,1.89-3.25,3.78-7.21,5.32-9.45.4-.57.7-.66,1.1-.31.61.79,1,2.68-.18,4.92-1.32,2.55-4,7.82-5.84,12.08a23.38,23.38,0,0,0,7.78-6.77c.22-.31.62-.35.7.09a4,4,0,0,1-.79,2.55C111.54,29.15,108.47,30.82,104.82,32.31ZM94,44.26c.57.83,4.17-4,6.9-10.41C95.15,37.14,93.18,43.16,94,44.26Z" transform="translate(-2.66 -2.93)"/><path class="cls-1" d="M140.4,21.72c1.1,2.94-1.71,6.24-3.56,7.56a8.88,8.88,0,0,1-9.18.92c-2-1.05-3.69-3.78-3.78-7.38-.17-9.31,7.64-17.26,12.56-19.15,2.37-.92,4.52-1.1,5.93.13A8.13,8.13,0,0,1,144.7,7a5,5,0,0,1-.4,3.87c-.66,1.36-1.27,3.08-1.76,4.35-.13.35-.44.61-1,.26-1-.66-1.71-2-1.05-4.22s2.28-4.83,1.27-5.89c-1.23-1.32-7.91,2.24-11.86,8.79s-3.43,12.92-1.27,14.67c2.81,2.28,7.47-.66,10.81-7.21C139.7,21.15,140.18,21.15,140.4,21.72Z" transform="translate(-2.66 -2.93)"/><path class="cls-1" d="M146.15,31.17c-4,0-4.92-5.58-1.27-10.85,3.51-5.05,7-7.07,9.23-7.07a2.62,2.62,0,0,1,2.59,2.9c.66-1.1,1.23-2,1.54-2.42s.7-.66,1.05-.26c.7.79,1,2.64,0,4.83-.88,2-3.21,5.4-4.17,7.64-1.05,2.5-.88,4.13.48,4,2.81-.26,6.77-5.67,8.83-12.12-3.56-1.27.62-7.25,2.37-7.38,1.36-.09.92,2.5,0,5.54a11,11,0,0,0,4.88-2.06c.61-.44.92-.53,1.32-.09.83.92,1.89,2.94.62,4.44-2.06,2.37-4.31,5.45-5,7.64-.75,2.42-.26,4.13,1.1,4.22,1.85.13,4-2.77,5.45-6.06.18-.35.48-.44.66,0a3.88,3.88,0,0,1-.18,2.86c-1.14,2.64-3.73,4.57-6.15,4.48-3.34-.13-4.66-3.16-3.6-6.68.88-2.9,3.56-6.15,5.45-8.26a10.72,10.72,0,0,1-5.18,1.63c-2.15,6.19-6.11,12.83-10.81,13.18-2.42.18-3.73-1.36-3.69-3.6C150.28,29.45,148.3,31.17,146.15,31.17Zm1.63-9.09c-2.37,3.78-2.86,7.6-1.14,7.64s4-2.64,6.28-6.59c2.72-4.79,3.12-7.56,1.85-7.64S150.19,18.21,147.78,22.07Z" transform="translate(-2.66 -2.93)"/><path class="cls-1" d="M187.13,30.2c1.8-.09,4.17-3,5.71-6.06.22-.4.53-.4.7,0a3.84,3.84,0,0,1-.35,2.72c-1.19,2.42-3.91,4.75-6.33,4.61s-3.56-1.45-3.56-3.51c-1.41,1.76-3.38,3.38-5.45,3.38-4.09,0-4.88-5.58-1.27-10.85,3.47-5.1,7-7.07,9.18-7.07a2.61,2.61,0,0,1,2.64,3c2.37-4.52,5.71-10.5,7.29-12.74.44-.62.83-.57,1.05,0,.62,1.45.48,3.34-1.36,6.63-2.11,3.78-6.33,11-8.52,15.68C185.68,28.49,185.64,30.29,187.13,30.2Zm-7.64-8c-2.37,3.78-2.86,7.6-1.14,7.64s4.13-2.55,6.19-6.54c2.55-4.88,3.21-7.64,1.93-7.69S181.9,18.34,179.49,22.2Z" transform="translate(-2.66 -2.93)"/></svg>