<svg id="Layer_1" data-name="Layer 1" xmlns="http://www.w3.org/2000/svg" viewBox="0 0 188.76 67.66"><defs><style>.cls-1{fill:#6d8d24;}.cls-2{fill:#7e543a;}</style></defs><title>marianos</title><path class="cls-1" d="M105.85,2.71S94.74,6.32,94.93,18.17a38.62,38.62,0,0,0-6.27,6.1c-2,2.18-.37,3.59-.42,3.54.82.76,1.28.25,1.38.17a76,76,0,0,1,6.89-6.83c12.14,7.44,24.86.9,33.31-14.2,0,0-14.07-7.75-24-4.25m2.76,2.91c6-1.88,12.58.54,15,1.58a50.87,50.87,0,0,0-24.85,8.22c1.33-7.23,9.87-9.8,9.87-9.8m-9,13c11-8.45,20.58-10.23,24.69-10.6-6.24,11.3-16.89,15.15-24.69,10.6" transform="translate(-4.57 -1.8)"/><path class="cls-2" d="M40.05,53.67c-5.16-5.17-6.61-13.7-6.51-20.88,0-.16-.12-.28-.31-.37-.2-.73-3.43-1.69-3.52-1.27a44.83,44.83,0,0,1-7.21,16.26c-1.19-2.59-2.43-5.16-3.58-7.78C17,35.24,17,33.8,15.64,29.21c-.27-.92-3.88.86-3.59,1.49a8.59,8.59,0,0,1,.83,2.63A57.52,57.52,0,0,1,4.8,58c-1.08,1.75,2,3.92,3.19,2a58.45,58.45,0,0,0,7.4-19.13c1.42,3.37,2.87,6.62,4.34,10,.22.47.35.83.56,1.32.08.2.17.39.25.59a1.38,1.38,0,0,0,1.1.62,2.43,2.43,0,0,0,1.41-.33,5.22,5.22,0,0,0,1.54-1.71,67.28,67.28,0,0,0,5.78-10.16c.84,5,2.68,9.87,6.1,13.3.79.79,4.16-.24,3.57-.82" transform="translate(-4.57 -1.8)"/><path class="cls-2" d="M64.18,57.7c-6.18-7.08-9.27-15.76-10.4-25-.25-2-3.69-1.17-3.46.68.11.89.24,1.76.39,2.64-1.91,7.4-4.46,14.85-10.76,19.66-1.11.85,1.28,3.49,2.46,2.59a21.58,21.58,0,0,0,4.16-4.46,8.59,8.59,0,0,1,1.09-.56c3-1.23,5.11-1.22,7.93-2a42.42,42.42,0,0,0,5.76,8.54c1.22,1.4,4.17-.57,2.84-2.1M49.29,49.84a44.75,44.75,0,0,0,2.91-7.18,49.49,49.49,0,0,0,2.12,5.92,25.68,25.68,0,0,1-5,1.27" transform="translate(-4.57 -1.8)"/><path class="cls-2" d="M123.27,57.7c-6.18-7.08-9.27-15.76-10.4-25-.25-2-3.69-1.17-3.46.68.11.88.24,1.76.39,2.64-1.91,7.4-4.46,14.85-10.76,19.66-1.11.85,1.27,3.49,2.45,2.59a23,23,0,0,0,4.64-4.79l.11,0c2.57-1.52,5.64-1.4,8.52-2a42.43,42.43,0,0,0,5.68,8.38c1.22,1.4,4.17-.57,2.84-2.09m-14.88-7.88a44.6,44.6,0,0,0,2.89-7.16,49.43,49.43,0,0,0,2.23,6.16,25.5,25.5,0,0,1-5.12,1" transform="translate(-4.57 -1.8)"/><path class="cls-2" d="M71.66,39.51c-.12-1.73-3.64-2-3.52-.1.4,6-.88,11.74-2.48,17.49-.48,1.74,3,2.58,3.48.83,1.66-6,2.93-12,2.52-18.22" transform="translate(-4.57 -1.8)"/><path class="cls-2" d="M132.88,60.18c-5.76,4.66-16,5.44-16,5.44C92.63,67.91,80.5,51.66,77.4,46.7c1.07-1.59,2.85-2.67,3.67-4.52a4.31,4.31,0,0,0-1.36-4.9,20,20,0,0,0-11.78-4.54c-1.81-.06-3.37,2.67-1,2.74a18.42,18.42,0,0,1,9.48,3.34c2.77,2,.72,4-1.08,6l-.15.12L74,46s-1.22,1.33-.45,2.12h0c23.79,31.13,49.76,19.46,52.92,18,6-3.11,8-5.94,8-5.94-.31-1.22-1.6,0-1.65,0" transform="translate(-4.57 -1.8)"/><path class="cls-2" d="M147.5,31.1c0-1.9-3.46-1-3.45.67,0,5.83.51,11.65-.08,17.44-6.7-5-8.88-9.41-13.4-16.32-.9-1.38-4,.38-2.91,2s-.22-.19.81,1.39c.88,6.56-.77,14.34-2.93,20.08-.51,1.37,2.06,3.81,2.62,2.32a50.85,50.85,0,0,0,3.37-17.88,72.45,72.45,0,0,0,5.16,6.75,56.12,56.12,0,0,0,5.44,5.13c.47.4,1.22,1,1.58,1.27,1.38,1,2.69,1,3-.69,1.47-7.34.8-14.72.76-22.14" transform="translate(-4.57 -1.8)"/><path class="cls-2" d="M162.22,32.63h-.06c-6.58.07-10.54,6.56-10.54,12.65,0,4.26,1.95,8.41,6.36,10a12,12,0,0,0,4.17.79h0c5.21,0,9.26-3.9,10.52-9.57a11.11,11.11,0,0,0,.27-2.44c0-5.86-4.5-11.47-10.71-11.48m1.12,3.54c4,0,5.56,3.16,5.59,6.41,0,2.25-.23,5.22-1.63,7.11-3.9,5.24-8.09,2.85-10.28,1.18-3.31-2.53-1.75-8.18-1.14-9.46,2-4.19,4.25-5.22,7.43-5.24Z" transform="translate(-4.57 -1.8)"/><path class="cls-2" d="M180.14,29.59c-.71-1.19-4.19-.53-3.39.82,1.13,1.92.76,4.38-1.41,5.34-.59.26-1.17.94-.53,1.5a2.48,2.48,0,0,0,2.46.2c3.15-1.4,4.72-4.75,2.87-7.87" transform="translate(-4.57 -1.8)"/><path class="cls-2" d="M190,30.57c-4.84,1.86-9.23,5.16-7.09,10.91,1.1,2.94,3.74,4.82,4.54,8,.87,3.42-3.07,8.44-6.61,8.82-2.66.29-.6,1.8,1.1,1.61,5.38-.58,10.55-6.15,9.17-11.58-.7-2.78-3.18-4.89-4.44-7.41-2.37-4.72,2.47-7.79,6.14-9.2,1.92-.74-1.84-1.48-2.82-1.11" transform="translate(-4.57 -1.8)"/><path class="cls-2" d="M95,32.23c-1,.06-2.27.77-2.25,1.19,0,1.62-.74,9.87-1,13.62a79.92,79.92,0,0,1-1.11,9.59c-.06.37.73,1,1,1a4.74,4.74,0,0,0,2.75-2.11c.65-1.78,1.15-6.68,1.37-10.14.2-2.93,1-10.68,1-12v0c0-.7-1.32-1.15-1.78-1.12" transform="translate(-4.57 -1.8)"/></svg>