<svg id="Layer_1" data-name="Layer 1" xmlns="http://www.w3.org/2000/svg" viewBox="0 0 196.58 29.02"><defs><style>.cls-1,.cls-2{fill:#fff;}.cls-2{stroke:#000;stroke-width:2.08px;}</style></defs><title>mc_sports</title><path class="cls-1" d="M197.84,29.49a2.27,2.27,0,1,1,2.28,2.2A2.22,2.22,0,0,1,197.84,29.49Zm2.28,1.83a1.83,1.83,0,1,0-1.83-1.83A1.79,1.79,0,0,0,200.12,31.33Zm-.48-.56h-.39V28.23h1c.61,0,.91.22.91.72a.66.66,0,0,1-.67.7l.74,1.11h-.44l-.68-1.1h-.45Zm.47-1.42c.33,0,.63,0,.63-.41s-.29-.37-.56-.37h-.53v.78Z" transform="translate(-5.8 -4.02)"/><path class="cls-1" d="M60.78,8.29c-1.89-2-4.9-3.07-8.93-3.07a15.07,15.07,0,0,0-14,9.59l1.59-8.93H28.78L22.43,19.61,21,5.88H10.32L5.8,31.33h8.32l1.55-8.73L16,20.15,17.2,31.33h6.42l5-10.86-.57,2.78-1.43,8.08H35l1.61-9.07a10.06,10.06,0,0,0,2.2,6.08C40.76,30.7,44,32,48.09,32a14.12,14.12,0,0,0,14-10.47l.2-.69H53.46l-.12.38c-.53,1.71-1.71,3.75-4.33,3.75a3.26,3.26,0,0,1-2.66-1c-.77-.91-.91-2.51-.47-5,.76-4.29,2.63-6.66,5.26-6.66a3.18,3.18,0,0,1,2.45.87,3.22,3.22,0,0,1,.66,2.54l0,.59h8.72l0-.5C63.19,12.61,62.46,10.1,60.78,8.29Z" transform="translate(-5.8 -4.02)"/><path class="cls-1" d="M93.94,14l0-.48A7.9,7.9,0,0,0,92,7.57,8.07,8.07,0,0,0,86,5.42c-5.64,0-9.61,3.09-10.34,8.05-.9,6,3.62,7.36,6.92,8.32,2,.59,3.26,1,3.12,1.92S84.28,25,83.17,25a2.32,2.32,0,0,1-1.47-.49,1.85,1.85,0,0,1-.62-1.5v-.5H73.82l-.05.44A7.49,7.49,0,0,0,75.52,29,8.46,8.46,0,0,0,82,31.55c6.17,0,10.33-3.23,11.13-8.65.85-5.72-3.62-7.07-6.88-8.06-2.07-.63-3.33-1.06-3.19-2,0-.23.14-.93,1.8-.93a2.36,2.36,0,0,1,1.35.34,1.27,1.27,0,0,1,.49,1.21V14Z" transform="translate(-5.8 -4.02)"/><path class="cls-1" d="M112.83,8.42C111.47,6.84,109.28,6,106.31,6H96.19L92.5,30.92h7.61l1.1-7.43h2.89c5.66,0,9.25-3.13,10.09-8.82C114.58,12,114.13,9.92,112.83,8.42Zm-10,4.21h1.44a3.19,3.19,0,0,1,2.39.68,1.5,1.5,0,0,1,.26,1.26,2.38,2.38,0,0,1-2.57,2.36h-2.16Z" transform="translate(-5.8 -4.02)"/><path class="cls-1" d="M161.75,13.42c.35-2.38,0-4-1-5.22C159.5,6.73,157.14,6,153.35,6h-9.93l-3.69,24.88h7.61l1.23-8.32h1.58c1.22,0,1.94.17,2.26.55s.36,1.56.14,3a18.64,18.64,0,0,0-.28,4.33l.07.42h7.53l.17-1.16.05-.58h-.53a12.8,12.8,0,0,1,.28-2.78l.12-.82c.62-4.19-.16-5.45-1.77-6.37A7.55,7.55,0,0,0,161.75,13.42Zm-11.7-.8h2.64a2,2,0,0,1,1.51.52,1.68,1.68,0,0,1,.27,1.39c-.14.95-.6,1.83-3,1.83h-2Z" transform="translate(-5.8 -4.02)"/><polygon class="cls-1" points="157.58 2.02 156.5 9.3 162.42 9.3 159.8 26.9 167.41 26.9 170.02 9.3 175.94 9.3 177.03 2.02 157.58 2.02"/><path class="cls-1" d="M200.32,14l0-.48a7.9,7.9,0,0,0-1.93-5.93,8.07,8.07,0,0,0-6.05-2.15c-5.64,0-9.61,3.09-10.34,8.05-.89,6,3.62,7.36,6.92,8.32,2,.59,3.26,1,3.12,1.92S190.67,25,189.55,25a2.32,2.32,0,0,1-1.47-.49,1.85,1.85,0,0,1-.62-1.5v-.49H180.2l-.05.44A7.49,7.49,0,0,0,181.91,29a8.46,8.46,0,0,0,6.46,2.6c6.17,0,10.33-3.23,11.13-8.65.85-5.72-3.62-7.07-6.88-8.06-2.07-.63-3.33-1.06-3.19-2,0-.23.14-.93,1.8-.93a2.36,2.36,0,0,1,1.35.34,1.27,1.27,0,0,1,.49,1.21V14Z" transform="translate(-5.8 -4.02)"/><path class="cls-1" d="M197.84,29.49a2.27,2.27,0,1,1,2.28,2.2A2.22,2.22,0,0,1,197.84,29.49Zm2.28,1.83a1.83,1.83,0,1,0-1.83-1.83A1.79,1.79,0,0,0,200.12,31.33Zm-.48-.56h-.39V28.23h1c.61,0,.91.22.91.72a.66.66,0,0,1-.67.7l.74,1.11h-.44l-.68-1.1h-.45Zm.47-1.42c.33,0,.63,0,.63-.41s-.29-.37-.56-.37h-.53v.78Z" transform="translate(-5.8 -4.02)"/><path class="cls-2" d="M127.59,18.12" transform="translate(-5.8 -4.02)"/><path class="cls-2" d="M127.45,18.39" transform="translate(-5.8 -4.02)"/><path class="cls-1" d="M127.56,32.55h0A14,14,0,0,1,124.36,5a14,14,0,0,1,6.41,27.17A13.86,13.86,0,0,1,127.56,32.55Zm0-27.43a13.42,13.42,0,0,0-13,16.57,13.34,13.34,0,0,0,13,10.35h0a13.42,13.42,0,0,0,13-16.57A13.34,13.34,0,0,0,127.58,5.13Z" transform="translate(-5.8 -4.02)"/><path class="cls-1" d="M114,13.41A14.62,14.62,0,0,1,127.59,4s.54,1.63,2.41.24c0,0,7.11,1.2,10.06,7.35,0,0,3.31,5.42,1.08,11.44,0,0-1.14.6-.48,1.14A14.59,14.59,0,0,1,127.53,33s-.3-1.08-1.38-.18c0,0-15.05-1.45-12.77-17.52C113.38,15.34,115.54,15.16,114,13.41Zm15-7.53a13,13,0,0,0-14.24,11.41,12.8,12.8,0,0,0,11.64,13.94A13,13,0,0,0,140.6,19.82,12.8,12.8,0,0,0,129,5.88Z" transform="translate(-5.8 -4.02)"/><path class="cls-1" d="M114.59,15.33s15.76,1.23,12.13,17.16C126.72,32.49,128.09,22.15,114.59,15.33Z" transform="translate(-5.8 -4.02)"/><path class="cls-1" d="M129.09,5.16s-2.71,13.43,11.14,18.31C140.23,23.47,128.73,15.82,129.09,5.16Z" transform="translate(-5.8 -4.02)"/></svg>