<svg id="Layer_1" data-name="Layer 1" xmlns="http://www.w3.org/2000/svg" viewBox="0 0 175.75 67.2"><defs><style>.cls-1{fill:#d43d44;}.cls-1,.cls-2{fill-rule:evenodd;}.cls-2{fill:#0f62a7;}</style></defs><title>Meijer</title><path class="cls-1" d="M176.55,51.89a2.71,2.71,0,0,0-2,.84,2.82,2.82,0,0,0-.85,2,2.89,2.89,0,0,0,2.83,2.83,2.79,2.79,0,0,0,2-.84,2.66,2.66,0,0,0,.8-2,2.77,2.77,0,0,0-.8-2,2.71,2.71,0,0,0-2-.84Zm0,.45a2.07,2.07,0,0,1,1.59.7,2.48,2.48,0,0,1,.7,1.74,2.36,2.36,0,0,1-.7,1.69,1.91,1.91,0,0,1-1.59.7,2,2,0,0,1-1.59-.7,2.37,2.37,0,0,1-.7-1.69A2.48,2.48,0,0,1,175,53a2.07,2.07,0,0,1,1.59-.7Z" transform="translate(-5.67 -4.28)"/><path class="cls-1" d="M176.4,53.19l-.89.1v3.13h.5V55h.35a.66.66,0,0,1,.7.55,2.89,2.89,0,0,0,.2.84h.55a2,2,0,0,1-.2-.8c-.05-.45-.25-.7-.55-.75v0a.71.71,0,0,0,.65-.75.83.83,0,0,0-.3-.7,2.5,2.5,0,0,0-1-.2Zm0,1.44H176v-1l.4,0c.5,0,.75.25.75.6s-.25.5-.75.5Z" transform="translate(-5.67 -4.28)"/><path class="cls-2" d="M104.08,10.24a5.94,5.94,0,0,0-6-6A5.74,5.74,0,0,0,93.89,6a5.75,5.75,0,0,0-1.79,4.22,5.78,5.78,0,0,0,1.79,4.27,5.73,5.73,0,0,0,4.22,1.74,5.94,5.94,0,0,0,6-6Z" transform="translate(-5.67 -4.28)"/><path class="cls-2" d="M120.78,10.54A5.74,5.74,0,0,0,119,6.32a5.75,5.75,0,0,0-4.22-1.79,5.6,5.6,0,0,0-4.22,1.79,5.6,5.6,0,0,0-1.79,4.22,5.67,5.67,0,0,0,1.79,4.22,5.6,5.6,0,0,0,4.22,1.79A5.75,5.75,0,0,0,119,14.76a5.82,5.82,0,0,0,1.74-4.22Z" transform="translate(-5.67 -4.28)"/><path class="cls-1" d="M48.41,20a11.6,11.6,0,0,0-6-1.34c-4.47,0-7.55,2-9.29,5.91-.94-3.93-3.68-5.91-8.2-5.91a9.49,9.49,0,0,0-9.2,5.91V19.34h-10V57.46H16.3V35.29c0-3.23.25-5.47.85-6.66s1.69-1.74,3.38-1.74c1.34,0,2.24.4,2.58,1.19s.6,2.53.6,5.27V57.46H34.35V35.29c0-3.33.25-5.57.75-6.76s1.64-1.64,3.33-1.64c1.44,0,2.29.4,2.73,1.24s.6,2.73.6,5.57V57.46H52.39V32.61c0-4.37-.3-7.36-.89-8.85A6.88,6.88,0,0,0,48.41,20Z" transform="translate(-5.67 -4.28)"/><path class="cls-1" d="M67.8,42.3V40.21H87.68c0-8.25-1.44-13.87-4.37-16.95a14.27,14.27,0,0,0-10.79-4.57A14.16,14.16,0,0,0,61,23.91c-2.83,3.48-4.27,8.5-4.27,15.11q0,8.72,4,14t11.78,5.22c8.4,0,13.42-4.42,15.11-13.32H78.13c-.5,3.93-2.29,5.87-5.32,5.87a4.39,4.39,0,0,1-3.63-1.69c-.94-1.19-1.39-3.48-1.39-6.81Zm0-8.3c0-5.52,1.69-8.3,4.92-8.3s4.87,2.44,4.87,7.26v1Z" transform="translate(-5.67 -4.28)"/><polygon class="cls-1" points="97.72 53.18 97.72 15.06 87.13 15.06 87.13 53.18 97.72 53.18 97.72 53.18"/><path class="cls-1" d="M120.73,19.34H110.09V55.92a16.28,16.28,0,0,1-.55,5.22c-.4.75-1.39,1.14-2.93,1.14l-1.44-.1v8.75l5.72.55a10.25,10.25,0,0,0,6.16-1.74,7.69,7.69,0,0,0,3-4.67,46.47,46.47,0,0,0,.65-8.85V19.34Z" transform="translate(-5.67 -4.28)"/><path class="cls-1" d="M129.92,23.91c-2.83,3.43-4.27,8.45-4.27,15.11q0,8.72,4,14c2.73,3.48,6.61,5.22,11.78,5.22,8.35,0,13.42-4.42,15.06-13.32H147c-.5,3.93-2.29,5.87-5.37,5.87A4.45,4.45,0,0,1,138,49.11c-.94-1.19-1.39-3.48-1.39-6.81V40.21h19.88c0-8.25-1.44-13.87-4.32-16.95a14.45,14.45,0,0,0-10.83-4.57,14,14,0,0,0-11.43,5.22Zm16.6,9-.05,1h-9.74c0-5.52,1.64-8.3,4.87-8.3s4.92,2.44,4.92,7.26Z" transform="translate(-5.67 -4.28)"/><path class="cls-1" d="M170.73,19.34h-9.39V57.46H172V41.11c0-7.8,2.54-11.73,7.7-11.73l1.74.15V19l-1.79-.15c-4.27,0-7.26,3.23-8.9,9.69V19.34Z" transform="translate(-5.67 -4.28)"/></svg>