<?xml version="1.0" encoding="utf-8"?>
<!-- Generator: Adobe Illustrator 21.0.2, SVG Export Plug-In . SVG Version: 6.00 Build 0)  -->
<svg version="1.1" id="Layer_1" xmlns="http://www.w3.org/2000/svg" xmlns:xlink="http://www.w3.org/1999/xlink" x="0px" y="0px"
	 viewBox="0 0 606 222.5" style="enable-background:new 0 0 606 222.5;" xml:space="preserve">
<style type="text/css">
	.st0{fill:#FFFFFF;}
</style>
<path class="st0" d="M305.3,186.1c-1.6,0-2.7,1.2-2.7,2.7c0,1.5,1.1,2.6,2.7,2.6c1.7,0,2.8-1.2,2.8-2.6
	C308,187.3,307,186.1,305.3,186.1"/>
<path class="st0" d="M335,186.1c-1.6,0-2.8,1.2-2.8,2.7c0,1.5,1.1,2.6,2.7,2.6c1.7,0,2.8-1.2,2.8-2.6
	C337.7,187.3,336.7,186.1,335,186.1"/>
<path class="st0" d="M116.8,199c-0.7,3.3-1.4,6.4-1.9,9.3h-0.1c-0.4-2.9-0.9-5.9-1.6-9.1l-2.7-12.4h-5.2l-2.9,12.2
	c-0.8,3.4-1.5,6.6-1.9,9.4h-0.1c-0.4-2.7-1.1-6.1-1.8-9.4l-2.5-12.2h-5.2l6.6,26.9h5.3l3.1-12.7c0.8-3.1,1.3-5.7,1.8-8.6h0.1
	c0.3,2.9,0.8,5.5,1.5,8.6l2.8,12.7h5.3l7.2-26.9h-5L116.8,199z"/>
<path class="st0" d="M138.6,193.8c-1.2,0-2.4,0.3-3.3,0.9c-1,0.5-1.9,1.3-2.5,2.2h-0.1v-11.6h-5v28.4h5v-11.6c0-0.6,0-1.1,0.2-1.5
	c0.5-1.5,1.9-2.7,3.8-2.7c2.7,0,3.8,2.1,3.8,4.9v10.9h4.9v-11.5C145.4,196,141.9,193.8,138.6,193.8"/>
<path class="st0" d="M174.1,198H174l-0.2-3.7h-4.3c0.1,1.8,0.2,3.6,0.2,6.3v13.2h4.9v-10.1c0-0.5,0.1-1.1,0.2-1.5
	c0.4-2.2,2-3.7,4.4-3.7c0.6,0,1.1,0.1,1.5,0.2v-4.6c-0.4-0.1-0.7-0.1-1.2-0.1C177.3,193.8,175.1,195.2,174.1,198"/>
<path class="st0" d="M226.2,190.4c2.3,0,4,0.5,5.3,1l1-3.9c-1-0.5-3.3-1.2-6.5-1.2c-8.2,0-14.4,5.4-14.4,14.2
	c0,8.2,5.2,13.6,13.8,13.6c3.2,0,5.8-0.6,7-1.2l-0.8-3.9c-1.3,0.6-3.4,1-5.3,1c-5.9,0-9.4-3.8-9.4-9.7
	C216.8,193.9,220.8,190.4,226.2,190.4"/>
<path class="st0" d="M240.3,198h-0.2l-0.2-3.7h-4.3c0.1,1.8,0.2,3.6,0.2,6.3v13.2h4.9v-10.1c0-0.5,0.1-1.1,0.2-1.5
	c0.4-2.2,2-3.7,4.4-3.7c0.6,0,1,0.1,1.4,0.2v-4.6c-0.4-0.1-0.7-0.1-1.2-0.1C243.5,193.8,241.2,195.2,240.3,198"/>
<path class="st0" d="M294.8,189.3l-4.8,1.4v3.6h-2.8v3.7h2.8v9.2c0,2.6,0.5,4.3,1.5,5.4c0.9,1,2.4,1.6,4.2,1.6
	c1.6,0,2.8-0.2,3.6-0.5l-0.1-3.8c-0.6,0.1-1,0.2-1.9,0.2c-1.9,0-2.5-1.2-2.5-3.6v-8.6h4.7v-3.7h-4.7V189.3z"/>
<rect x="302.8" y="194.2" class="st0" width="5" height="19.5"/>
<path class="st0" d="M321.7,204.1c-0.5,1.7-1,3.3-1.3,4.9h-0.1c-0.4-1.6-0.8-3.1-1.3-4.9l-3.1-9.9h-5.3l7.2,19.5h4.8l7.4-19.5h-5.2
	L321.7,204.1z"/>
<rect x="332.5" y="194.2" class="st0" width="4.9" height="19.5"/>
<path class="st0" d="M348,189.3l-4.8,1.4v3.6h-2.8v3.7h2.8v9.2c0,2.6,0.5,4.3,1.5,5.4c0.9,1,2.4,1.6,4.2,1.6c1.6,0,2.8-0.2,3.6-0.5
	l-0.1-3.8c-0.6,0.1-1,0.2-1.9,0.2c-1.9,0-2.5-1.2-2.5-3.6v-8.6h4.7v-3.7H348V189.3z"/>
<path class="st0" d="M365.1,204.6c-0.4,1.3-0.7,2.7-1,3.8H364c-0.3-1.1-0.7-2.6-1.1-3.8l-3.5-10.4H354l7.1,17.9
	c0.2,0.5,0.3,0.8,0.3,1c0,0.2-0.1,0.5-0.3,0.9c-0.7,1.3-1.8,2.5-2.7,3.1c-1,0.7-2,1.2-2.9,1.4l1.1,4.1c1.2-0.1,3.2-0.8,5.1-2.5
	c2.3-2,4.1-5.2,6.8-12.5l4.9-13.3h-5.3L365.1,204.6z"/>
<polygon class="st0" points="401.9,197.6 390.5,197.6 390.5,186.8 385.5,186.8 385.5,213.7 390.5,213.7 390.5,201.8 401.9,201.8 
	401.9,213.7 406.7,213.7 406.7,186.8 401.9,186.8 "/>
<path class="st0" d="M506.2,193.8c-3.2,0-5.4,1.8-6.2,3.3h-0.1l-0.2-2.9h-4.3c0.1,1.7,0.2,3.6,0.2,5.8v13.7h4.9v-11.4
	c0-0.6,0-1.2,0.2-1.6c0.5-1.5,1.9-2.9,3.8-2.9c2.7,0,3.7,2.1,3.7,4.9v11h4.9v-11.5C513.1,196,509.6,193.8,506.2,193.8"/>
<path class="st0" d="M524.6,202.1c-2.5-0.9-3.4-1.5-3.4-2.7c0-1.2,1-2,2.7-2c1.7,0,3.3,0.6,4.1,1.1l1-3.5c-1.1-0.6-3-1.2-5.2-1.2
	c-4.5,0-7.4,2.7-7.4,6.1c0,2.3,1.5,4.4,5.4,5.7c2.4,0.9,3.2,1.5,3.2,2.8c0,1.3-1,2.2-3.1,2.2c-1.8,0-3.9-0.7-5-1.4l-0.9,3.6
	c1.4,0.8,3.5,1.4,5.9,1.4c5.2,0,7.9-2.6,7.9-6.1C529.7,205.2,528.1,203.4,524.6,202.1"/>
<path class="st0" d="M422.1,206.9c0,0.3,0,0.7-0.1,1.1c-0.4,1.4-1.9,2.7-3.8,2.7c-1.6,0-2.8-0.9-2.8-2.8c0-3,3.3-3.7,6.8-3.6V206.9z
	 M426.9,202c0-4.2-1.8-8.2-8-8.2c-3.1,0-5.6,0.8-7.1,1.7l1,3.2c1.3-0.8,3.3-1.4,5.2-1.4c3.5,0,3.9,2.1,3.9,3.4v0.3
	c-7.2,0-11.5,2.5-11.5,7.4c0,3,2.2,5.8,6.1,5.8c2.5,0,4.6-1.1,5.8-2.6h0.1l0.3,2.2h4.4c-0.2-1.2-0.3-2.9-0.3-4.7V202z"/>
<path class="st0" d="M440.3,210.4c-2.1,0-3.8-1.5-4.3-3.4c-0.1-0.4-0.2-0.9-0.2-1.3v-3c0-0.4,0.1-0.9,0.2-1.2
	c0.5-2.1,2.3-3.6,4.4-3.6c3.2,0,4.8,2.8,4.8,6.2C445.2,207.8,443.4,210.4,440.3,210.4 M442,193.8c-2.9,0-5.2,1.2-6.7,3.4h-0.1
	l-0.2-3h-4.3c0.1,1.8,0.1,3.9,0.1,6.5v20.9h4.9v-10.1h0.1c1,1.6,3.1,2.6,5.5,2.6c4.4,0,8.9-3.4,8.9-10.4
	C450.2,197.7,446.5,193.8,442,193.8"/>
<path class="st0" d="M462.5,210.4c-2.1,0-3.8-1.5-4.3-3.4c-0.1-0.4-0.2-0.9-0.2-1.3v-3c0-0.4,0.1-0.9,0.2-1.2
	c0.5-2.1,2.4-3.6,4.4-3.6c3.2,0,4.8,2.8,4.8,6.2C467.4,207.8,465.6,210.4,462.5,210.4 M464.2,193.8c-3,0-5.2,1.2-6.7,3.4h-0.1
	l-0.2-3h-4.3c0.1,1.8,0.2,3.9,0.2,6.5v20.9h4.9v-10.1h0.1c1,1.6,3,2.6,5.5,2.6c4.4,0,8.9-3.4,8.9-10.4
	C472.4,197.7,468.7,193.8,464.2,193.8"/>
<path class="st0" d="M479.5,201.9c0.2-2,1.5-4.8,4.5-4.8c3.3,0,4.1,3,4,4.8H479.5z M484.3,193.8c-6.2,0-9.5,5.1-9.5,10.5
	c0,5.9,3.7,9.9,10,9.9c2.8,0,5.1-0.6,6.8-1.2l-0.7-3.4c-1.5,0.6-3.1,0.9-5.4,0.9c-3.1,0-5.9-1.5-6-5h13c0.1-0.4,0.2-1.2,0.2-2.1
	C492.7,199,490.7,193.8,484.3,193.8"/>
<path class="st0" d="M152.9,201.9c0.2-2,1.5-4.8,4.5-4.8c3.3,0,4.1,3,4,4.8H152.9z M157.7,193.8c-6.2,0-9.5,5.1-9.5,10.5
	c0,5.9,3.7,9.9,10,9.9c2.8,0,5.1-0.6,6.8-1.2l-0.7-3.4c-1.5,0.6-3.1,0.9-5.4,0.9c-3.1,0-5.9-1.5-6-5h13c0.1-0.4,0.1-1.2,0.1-2.1
	C166.1,199,164.1,193.8,157.7,193.8"/>
<path class="st0" d="M186.6,201.9c0.2-2,1.5-4.8,4.5-4.8c3.3,0,4.1,3,4,4.8H186.6z M191.4,193.8c-6.2,0-9.5,5.1-9.5,10.5
	c0,5.9,3.7,9.9,10,9.9c2.8,0,5.1-0.6,6.8-1.2l-0.7-3.4c-1.5,0.6-3.1,0.9-5.4,0.9c-3.1,0-5.9-1.5-6-5h13c0.1-0.4,0.1-1.2,0.1-2.1
	C199.8,199,197.8,193.8,191.4,193.8"/>
<path class="st0" d="M252.8,201.9c0.2-2,1.5-4.8,4.5-4.8c3.3,0,4.1,3,4,4.8H252.8z M257.6,193.8c-6.2,0-9.5,5.1-9.5,10.5
	c0,5.9,3.7,9.9,10,9.9c2.8,0,5.1-0.6,6.8-1.2l-0.7-3.4c-1.5,0.6-3.1,0.9-5.4,0.9c-3.1,0-5.9-1.5-6-5h13c0.1-0.4,0.1-1.2,0.1-2.1
	C265.9,199,263.9,193.8,257.6,193.8"/>
<path class="st0" d="M279.8,206.9c0,0.3-0.1,0.7-0.2,1.1c-0.4,1.4-1.9,2.7-3.8,2.7c-1.6,0-2.8-0.9-2.8-2.8c0-3,3.3-3.7,6.8-3.6
	V206.9z M284.6,202c0-4.2-1.8-8.2-8-8.2c-3.1,0-5.6,0.8-7,1.7l1,3.2c1.3-0.8,3.3-1.4,5.2-1.4c3.4,0,4,2.1,4,3.4v0.3
	c-7.2,0-11.6,2.5-11.6,7.4c0,3,2.2,5.8,6.1,5.8c2.5,0,4.6-1.1,5.8-2.6h0.1l0.3,2.2h4.4c-0.2-1.2-0.3-2.9-0.3-4.7V202z"/>
<path class="st0" d="M247.5,54.3c2.2-0.4,4.4-0.1,5.9,0.6c1.5,0.7,2.5,2,2.8,3.7c0.1,0.3,0.1,0.6,0.1,0.8c0.2,2.6-0.9,5.2-3.1,7.8
	c-2,2.4-4.1,3.9-6.4,4.1c-0.5,0.1-1,0-1.5,0c-1.2-0.2-2.3-0.9-3.5-2c-0.9-0.9-1.5-2.1-1.8-3.4c-0.1-0.3-0.1-0.7-0.1-1.1
	c-0.2-2.1,0.4-4.2,1.5-6.2C242.9,56.3,245,54.9,247.5,54.3"/>
<polygon class="st0" points="533.9,191.8 532.5,191.8 532.5,190.8 536.5,190.8 536.5,191.8 535.1,191.8 535.1,196.1 533.9,196.1 "/>
<path class="st0" d="M541.6,194.1c0-0.6,0-1.4,0-2.2h0c-0.1,0.7-0.4,1.4-0.6,2l-0.6,2h-0.9l-0.6-2c-0.2-0.6-0.3-1.4-0.5-2.1h0
	c0,0.7-0.1,1.5-0.1,2.2l-0.1,2H537l0.3-5.2h1.6l0.5,1.8c0.2,0.6,0.3,1.3,0.4,1.9h0c0.1-0.6,0.3-1.3,0.5-1.9l0.6-1.8h1.5l0.3,5.2
	h-1.2L541.6,194.1z"/>
<path class="st0" d="M583.1,105c-13.5-7.3-19.3-13.4-15.4-20.1c2.2-3.9,6.2-4.9,9.5-4.7c4.7,0.2,6.7,1.8,8.9,6.8
	c0.3,0.6,0.7,0.9,1.2,0.8c1.7-0.2,2.7-2.1,2.5-4.7c-0.2-2.3-1-4.5-2.4-6c-2.9-3.1-6.6-4.6-11.3-4.6c-8.7,0-15.6,5.9-17.2,12.8
	c-2.8,12.1,9,19.1,16.9,23.4c8.8,4.8,16.9,13.3,12.2,22.5c-5.7,11.3-17.2,14.6-29.8,12.6c-17.1-2.7-16.3-13-15.1-15
	c1.8-2.9,1.9-7.7,0.1-8.6c-4.3-2.3-7.2,2-8,6.1c-0.7,4.1,0,20.1,21,24.8c10.4,2.3,34.1,1.7,42.4-12.2
	C607.9,123.7,597,112.5,583.1,105"/>
<path class="st0" d="M232.6,169.7c-1.8-0.5-11.1-4.2-15.5-13.5c-4.5-9.6-6.5-22-6.5-36.5c0-8.8,0.8-19.4,2.7-32.4
	c3.5-23.6,11.1-41.6,11.1-56c0-6.6-0.9-13.2-5.2-16.6c-3.2-2.6-8.7-4.3-13.6-4.4c-12.6-0.3-30.9,10.5-46.3,35.7
	c-9.7,15.9-22.4,51.4-24.4,63.8c-0.8-5.7-3.1-34.9-10.5-57.5C111.9,13.4,95.6,6.1,87.2,6.3c-15,0.4-30.2,20.1-36.5,44.3
	c-3.8,14.5-7,32.3-9,54.3c-4.7-9.4-8-15.9-10.3-19.4C24.8,75.1,18.1,68.8,11.3,68c-1.7-0.2-4-0.3-5.9,0.8c-0.5,0.3-1.2,0.7-1.5,1.7
	c-0.3,0.9,0.1,2,1.4,2.5c4.6,2,12.3,9.4,19.4,23.8c5.2,10.4,8,19.5,10.6,28.1c3.7,12.2,5.8,23.4,12.2,23.2c2.3-0.1,4.2-0.7,5-2.3
	c1.3-2.6,1-8.3,0.9-11.3c-0.2-4.2-1.2-17.9-1.3-26.1C52,93,53.8,74.1,58.2,54.1C61,41.6,71.6,16.9,83.5,17
	c16.5-0.4,24.4,20.9,30.1,42.1c4.2,15.5,8.8,40.1,13.4,66.5c0.3,2.8,1,5,2,6.6c1.1,1.6,2.8,2.6,4.7,2.6c0.1,0,0.3,0,0.4,0
	c2.4-0.1,4.4-1.5,5.8-3.7c1.4-2.2,2.1-4.9,2.9-8.7c5.3-25.7,8-42.7,24.1-71.9c4.7-8.5,8.4-13.1,14.3-18c5.9-4.9,12.2-7.6,16.7-8.2
	c5.6-0.7,13.1-0.2,14.3,13.5c1.1,13-9.4,42.1-11.3,72.1c-1.1,17.5-1,43.1,9.6,58.4c5.6,8.1,14,10.5,21,8.7c1.1-0.3,2-1,2.7-1.9
	c0.6-0.9,1.1-2,0.8-3.2C234.7,170.8,233.8,170.1,232.6,169.7"/>
<path class="st0" d="M554.1,171.1c-0.6-0.2-1.2-0.3-2-0.3c-1,0-2.8-0.4-4.9-1.7c-4.3-2.5-9.1-9.5-14.1-20.7
	c-3.5-8-6.4-15.9-8.4-23.7c-4.1-16-6.6-30.4-7.5-43.4c-1.8-25.6,2.6-45.1,12.9-58.9c4.1-5.6,7.9-8.2,11-8.4c2.1-0.1,3.4,0.6,4.6,2.4
	c1.2,1.9,2.1,5,2.4,9.4c0.4,6.2,1,20.8-4.3,38.2c-3.1,10-7.5,21.3-14.4,33.5c-1.1,2-2,3.5-1.8,5.2c0.1,0.9,0.9,1.9,2,1.9
	c1.3,0,2.2-1.4,3.2-3.1c7-12.1,11.4-20.4,13.6-25.1c10.7-22.7,15.8-40.4,14.8-53.5c-0.4-5.7-1.8-10.1-4.5-13.1
	c-2.6-3-6.5-4.2-11-3.8c-6.6,0.5-13.4,4.2-20.1,10.9c-15.2,15.3-21.4,40.4-18.9,74.9c0.6,8.2,1.7,16.1,3.3,23.6
	c-9.4,18.2-19.7,27.3-30.3,28.1c-5.2,0.3-10.3-1.3-13.9-5.7c-3.6-4.3-5.8-10.4-6.3-18.5c-0.2-3.5-0.2-7.4,0.3-11.5
	c0.9-7.9,3-13.7,5.9-18c2.6-4,8.9-7.9,12.8-4.7c3.2,2.6,1.1,8.6-0.7,11.4c-3.8,5.9-5.3,7.8-9.3,11c-1.3,1.1-2.6,1.7-3.4,2.6
	c-0.8,0.8-1.3,1.5-1.3,2.9c0,0.6,0.5,1.2,1,1.5c1.2,0.7,3-0.1,4.4-0.6c5.8-2.2,12.1-6.6,17.7-16.9c3.5-6.4,5.5-18.9-2.1-22.9
	c-12.8-6.7-23.5,3.9-27.7,10.5c-4.9,7.6-8.4,19.5-8,30.9c0.1,2.3,0.3,4.6,0.6,6.8c-1.8,2.3-3.8,4.9-4.7,5.9
	c-3.4,3.6-6.5,5.2-7.7,5.2c-0.4,0-1.1-0.3-1.4-0.6c-1.7-1.8-2.1-4.6-2.1-10.4c0-1.4,0.5-6,1.3-11.6c0.5-3.9,0.9-6.8,0.9-8.7
	c0-0.9-0.1-1.6-0.3-2.3c-0.8-2.5-2.4-3.8-5.2-3.8c-2.4,0-4.6,0.9-6.4,4c-9.9,16.5-16.6,25.9-20.6,30.3c-5.7,6-10.2,8.5-12.8,8.7
	c-1.4,0.1-2.3-0.4-2.8-1.3c-1.4-2.7-0.9-7.4-0.6-9.2c1.5-10.1,4.9-19.7,9.9-28.2c5.8-10,12.7-15.6,19.2-16.5c4.6-0.6,9,1.9,13.2,7.5
	c0.5,0.8,1.1,1.2,1.8,1.1c2.3-0.3,3.1-2.6,2.6-6.8c-0.2-1.2-0.5-2.5-1.1-3.8c-2.5-5.5-5.5-8.9-12.3-8.7c-11.1,0.3-21.8,10.8-31.8,27
	c-8.8,14.2-13.3,25.8-13.3,35.2c0,3.8,0.8,6.8,2.6,9c1.8,2.1,4.5,3.2,7.8,3.1c6.5,0,13.8-4.9,22.5-14c5.2-5.5,9.3-10.5,12.3-15.1
	c0,1,0.1,2,0.1,3c0.4,4.6,1.3,9.2,4.2,13.1c1.7,2.3,6.1,5,10.9,5.1c5.6,0,12.5-4.5,16.1-8.6c1.4,4.1,3.4,7.6,6,10.5
	c5.4,6.2,12.6,9,21.2,8.4c8-0.6,16.3-4.4,24-12c3.6-3.5,6.9-8.2,9.7-12.5c1.2,4.1,2.5,8.2,4,12.1c5.7,14.8,13.1,25.6,21.9,32.7
	c4.8,3.9,9.2,5.8,13.3,5.5c0.5,0,0.9-0.1,1.4-0.2c0.7-0.2,1.2-0.3,1.6-0.7c0.5-0.3,1-0.9,0.9-1.7c0-0.1,0-0.3-0.1-0.5
	C555.3,171.7,554.6,171.3,554.1,171.1"/>
<path class="st0" d="M381.7,171.1c-1.6-0.9-3.3-1.3-5-3c-1.8-1.7-3.7-4.6-5.3-10.7c-0.7-2.9-1.7-7.6-1.9-13.8
	c-0.2-6.1,0.4-13.7,2.5-22.3c3.2-13.1,8.3-24.4,8.2-32c-0.1-2.6-0.8-4.9-2.7-6.4c-2-1.7-5-2.6-8.3-2.5c-8.2,0.3-19.3,6-27.9,19
	c-7.1,10.8-10.8,20.6-12.8,27.2c-0.4-13.3,1.7-27.8,6.3-43.8c3.1-10.7,12.2-33.3,18-46c2.3-5.1,4-9,5.2-11.7c0.6-1.3,1-2.4,1.3-3.1
	c0.1-0.4,0.3-0.7,0.3-0.9c0.1-0.3,0.2-0.4,0.2-0.9l-0.1-0.4c-1-3-3.6-4.6-6.7-4.5c-0.6,0-1.5,0.2-2.1,0.4c-3.5,1.1-6.4,4.8-9.6,11.9
	c-3.2,7.2-11.2,28.8-14.6,42.7c-3,12.2-5,23.2-6,33.1c-0.1,0.2-0.2,0.5-0.2,0.8c-2.4,10.7-9.9,22.4-14.2,26.4
	c-6.6,6-12.8,8.8-19.9,8.8c-2.7,0-5.2-0.5-7.1-2.4c-2-2-4-5.4-4.3-10c-0.6-7.2,0.9-15.7,4.5-24.4c2.3-5.5,5.7-10.3,8.4-12.9
	c2.7-2.6,6-4.1,8.6-3.6c0.8,0.1,2.4,1.1,3.7,2.9c1.6,2.1,3.6,3.6,5.8,3.9c0.3,0,0.6,0,0.9,0c1.7,0,3.3-0.5,4.2-1.6
	c1-1.1,1.2-2.6,1.1-4.3c0-0.6-0.1-1.2-0.3-1.9c-0.6-2.9-2-5.3-4.3-6.9c-2.2-1.6-5.2-2.3-8.7-2.3c-11.1,0-22.8,11-28.7,20.8
	c-4.5,7.5-7,15.7-7.9,22.6c-1.5,5.8-2.8,11.6-5.5,15.3c-4.5,6.3-9.1,8.9-12.4,9.2c-1.9,0.2-3.2-0.3-4.4-1.6c-1.2-1.3-2.3-3.5-3-6.6
	c-2.3-13.3,1.6-26.6,4-33.9c2.7-8.2,4.9-12.8,5-15.3c0-0.5,0-1.1,0-1.6c-0.2-2.7-1.6-4.8-3.9-5.6c-1.3-0.5-2.6-0.8-3.9-0.6
	c-2.2,0.2-4,1.6-5.3,3.6c-2.3,3.4-3.8,6.7-4.8,9.9c-3.4,10.6-6.8,25.4-3.2,39.7c1.9,7.8,6.2,12.8,11.6,15.5c2.4,1.2,6.2,1.8,9.5,1.1
	c8.8-1.7,14.8-8.5,18-12v0c1.2,2.9,2.8,5.2,4.9,7c3.2,2.7,7.4,4.1,12.3,4.1h0.1c6.9,0,14.9-2.8,22.3-8.1c6.9-4.9,12.3-10.9,16.5-17
	c0.2,5.4,0.8,9.9,1.8,14.4c0.4,2,1.3,4.5,2.5,5.8c1.2,1.3,2.2,2.2,4,2.1c1-0.1,1.8-0.5,2.3-1c1.2-1.1,1.5-3,2.3-6.2
	c1.6-6.9,8.8-24.6,14.5-33.4c5-7.7,11.1-12.2,16.7-12.3c1.2,0,2.4,0.3,3.1,1.2c0.7,0.8,1.3,3,1.4,5.5c0.4,11.6-6.4,33-5.9,52.2
	c0.2,5.2,0.9,10.2,2.4,14.9c2.7,8.4,8.3,12.4,13.9,12.1c1.1,0,2.2-0.5,3.1-1.2c0.8-0.7,1.6-1.6,1.5-2.9
	C383.5,172.7,382.7,171.7,381.7,171.1"/>
<path class="st0" d="M598.5,75.8h0.4c0.5,0,0.9-0.2,0.9-0.6c0-0.4-0.2-0.6-0.8-0.6c-0.2,0-0.4,0-0.5,0V75.8z M598.5,78h-0.9v-3.9
	c0.4-0.1,0.9-0.1,1.5-0.1c0.7,0,1.1,0.1,1.4,0.3c0.2,0.2,0.4,0.5,0.4,0.9c0,0.5-0.3,0.8-0.8,0.9v0.1c0.4,0.1,0.6,0.4,0.7,1
	c0.1,0.6,0.2,0.9,0.3,1h-1c-0.1-0.1-0.2-0.5-0.3-0.9c-0.1-0.4-0.3-0.6-0.8-0.6h-0.4V78z M599.1,72.8c-1.7,0-3,1.4-3,3.2
	c0,1.8,1.3,3.2,3.1,3.2c1.7,0,3-1.4,3-3.2C602.2,74.2,600.9,72.8,599.1,72.8L599.1,72.8z M599.2,72c2.3,0,4,1.8,4,4
	c0,2.3-1.8,4-4.1,4c-2.3,0-4.1-1.7-4.1-4C595,73.7,596.8,72,599.2,72L599.2,72z"/>
</svg>
