<svg id="Layer_1" data-name="Layer 1" xmlns="http://www.w3.org/2000/svg" viewBox="0 0 149.96 32.84"><defs><style>.cls-1{fill:#b5d78b;}.cls-1,.cls-2{fill-rule:evenodd;}.cls-2{fill:#fff;}</style></defs><title>National</title><path class="cls-1" d="M10,38.78c-1.13-.1-4.13.93-5.34-1.67a3.34,3.34,0,0,1,.88-3.9c1.21-1,3-1.5,5.58-.47l-1.12,6Z" transform="translate(-4.41 -6.2)"/><path class="cls-1" d="M6.95,24.58c0,.07,4.23-4.49,16.29,5.13C32.55,37.14,38,33.35,38,33.31L37,37.89s-4.33,4.63-16.24-4.7C10.93,25.46,6,29,6,29s.9-4.65.92-4.44Z" transform="translate(-4.41 -6.2)"/><path class="cls-1" d="M8.72,15.86c0,.08,4.23-4.48,16.28,5.14,9.31,7.43,14.74,3.64,14.72,3.6l-.93,4.57s-4.33,4.64-16.24-4.7c-9.86-7.73-14.76-4.17-14.76-4.17s.91-4.65.93-4.45Z" transform="translate(-4.41 -6.2)"/><path class="cls-1" d="M10.45,7.21c0,.08,4.24-4.48,16.29,5.14C36.06,19.78,41.48,16,41.46,16l-.94,4.57s-4.32,4.64-16.23-4.7C14.43,8.1,9.53,11.66,9.53,11.66s.91-4.65.92-4.45Z" transform="translate(-4.41 -6.2)"/><path class="cls-2" d="M149.53,32.73A2.42,2.42,0,1,1,152,35.15a2.42,2.42,0,0,1-2.42-2.42Zm4.19,0A1.78,1.78,0,1,0,152,34.57a1.74,1.74,0,0,0,1.76-1.85ZM153.14,34h-.64l-.57-1.1h-.44V34h-.55V31.43h1.26c.69,0,1,.18,1,.8s-.26.68-.72.71l.64,1.1Zm-.92-1.49c.29,0,.49-.06.49-.39s-.38-.32-.63-.32h-.59v.71Z" transform="translate(-4.41 -6.2)"/><path class="cls-2" d="M146.58,35.09l-4.62,0,4.68-21.54h4.66l-4.71,21.52Z" transform="translate(-4.41 -6.2)"/><path class="cls-2" d="M96.26,13.56c-.18.75-.81,3.66-1,4.41-.86,0-3.36,0-4.7,0,.25-.94.8-3.63,1-4.39,1.05,0,3.32,0,4.7,0Z" transform="translate(-4.41 -6.2)"/><path class="cls-2" d="M88,14.69c-.22.87-.69,3.34-.91,4.33l2.45,0c-.22,1.08-.49,2.45-.69,3.21l-2.44,0-1.92,8.85c-.06.23,0,.49.32.49.58,0,1.55,0,2.09,0l-.78,3.46-4.77,0a2.19,2.19,0,0,1-1.8-1.26,5.64,5.64,0,0,1,0-2.85l1.93-8.73c-.62,0-1.24,0-1.79,0,.18-.89.55-2.79.68-3.25h1.82c.26-1.47.72-3.48.9-4.33Z" transform="translate(-4.41 -6.2)"/><path class="cls-2" d="M126.09,20c1.32,1.83.12,4.22-.12,6.15l-2,8.88h-4.66c.55-3.76,1.6-7.52,2.32-11.34a1.13,1.13,0,0,0-.66-1.31c-1.14-.17-2.57-.29-3.39.74l-.44.91-2.36,11c-1,0-3.18,0-4.77,0,.23-1,3.32-15.35,3.47-16.07.55,0,3.34,0,4.44,0,0,.43,0,1,0,1.7,1.42-2.16,4-2.28,6.37-1.87a3.3,3.3,0,0,1,1.8,1.2Z" transform="translate(-4.41 -6.2)"/><path class="cls-2" d="M95.1,19c-1.05,5.35-2.31,10.75-3.47,16h-4.7C88,29.8,89.28,24.34,90.39,19c.9,0,3.49,0,4.71,0Z" transform="translate(-4.41 -6.2)"/><path class="cls-2" d="M106,18.82c-3.88-.4-8,.39-10,4.09-1.58,3-2.85,6.84-1.27,10.2a4.7,4.7,0,0,0,3.4,2.11c3.4.35,7.23.35,9.7-2.67a12.78,12.78,0,0,0,2.53-10.77c-.6-1.94-2.57-2.74-4.32-3Zm-.66,3.93c.93,1.31.37,3.31.05,4.73-.4,1.71-1.1,4.1-3.19,4.33-1.15.06-2.62.23-3.23-1a11.09,11.09,0,0,1,1.21-6.89c.94-1.65,2.85-1.82,4.5-1.47l.65.34Z" transform="translate(-4.41 -6.2)"/><path class="cls-2" d="M78.72,21.12a6.42,6.42,0,0,1,0,3.08l-1.54,7.12.71.29c-.14.76-.55,2.63-.72,3.36-1.42,0-3.56.62-4.27-1.09-.06-.17-.14-.36-.18-.51a5.54,5.54,0,0,1-3.93,1.74,8.33,8.33,0,0,1-4.12-.56A2.75,2.75,0,0,1,63,32.44a6.24,6.24,0,0,1,2.42-5.75c2.36-1.48,5.54-1,8.22-1.76.31.09.77-1.47.39-2.22a3.45,3.45,0,0,0-3.45-.23,3.15,3.15,0,0,0-1.1,1.65H65.25c.27-1.94,1.42-4,3.35-4.62a13.48,13.48,0,0,1,8.6,0,3.11,3.11,0,0,1,1.53,1.65ZM73,27.89c-1.54.74-4.06-.06-5,1.87a1.63,1.63,0,0,0,.11,1.66c.93.74,2.25.34,3.17-.11A3.84,3.84,0,0,0,73.13,28l-.1-.06Z" transform="translate(-4.41 -6.2)"/><path class="cls-2" d="M142.09,21.12A6.5,6.5,0,0,1,142,24.2l-1.54,7.12.71.29c-.15.76-.55,2.63-.72,3.36-1.43,0-3.56.62-4.27-1.09a3.66,3.66,0,0,1-.16-.51,5.59,5.59,0,0,1-3.95,1.74,8.31,8.31,0,0,1-4.11-.56,2.74,2.74,0,0,1-1.58-2.11,6.22,6.22,0,0,1,2.41-5.75c2.36-1.48,5.54-1,8.21-1.76.32.09.77-1.47.39-2.22a3.46,3.46,0,0,0-3.45-.23,3.14,3.14,0,0,0-1.09,1.65h-4.27c.28-1.94,1.43-4,3.34-4.62a13.48,13.48,0,0,1,8.6,0,3.19,3.19,0,0,1,1.54,1.65Zm-5.71,6.77c-1.53.74-4.06-.06-5,1.87a1.61,1.61,0,0,0,.11,1.66c.93.74,2.24.34,3.18-.11A3.87,3.87,0,0,0,136.49,28l-.11-.06Z" transform="translate(-4.41 -6.2)"/><path class="cls-2" d="M50.8,22,47.94,35.09c-1,0-3.87,0-5,0l4.68-21.55h5.21l5,13,2.87-13c1.64-.05,3.33,0,5,0L61,35.1l-5,0L50.8,22Z" transform="translate(-4.41 -6.2)"/><path class="cls-1" d="M37.35,6.92C38.48,7,41.48,6,42.69,8.6a3.34,3.34,0,0,1-.88,3.9c-1.21,1-3,1.48-5.58.47l1.12-6Z" transform="translate(-4.41 -6.2)"/></svg>