<svg id="Layer_1" data-name="Layer 1" xmlns="http://www.w3.org/2000/svg" viewBox="0 0 121.74 14.9"><defs><style>.cls-1{fill:#fff;fill-rule:evenodd;}</style></defs><title>Nordstrom</title><path class="cls-1" d="M25.6,6.29c4,0,6.61,3,6.61,7.32S29.52,21,25.6,21s-6.68-3.15-6.68-7.38,2.76-7.32,6.68-7.32ZM25.6,20C28.49,20,30,17.72,30,13.61S28.49,7.19,25.6,7.19s-4.49,2.38-4.49,6.29c0,4.24,1.54,6.55,4.49,6.55Z" transform="translate(-5.06 -6.22)"/><path class="cls-1" d="M60.15,13.36c0,4.56-2.57,7.38-7,7.38H48.66s.13-4.49.13-7.13-.13-7.13-.13-7.13h5.14c4.17,0,6.36,2.37,6.36,6.87ZM58,13.42c0-3.85-1.8-6-5.27-6-1.54,0-2.12.06-2.12.06a2.63,2.63,0,0,1,.13.9c-.06,1.22-.06,3.53-.06,5.27,0,1.93.06,3.92.06,5.14a3.57,3.57,0,0,1-.13,1s.58.06,1.86.06c3.66,0,5.52-2.25,5.52-6.42Z" transform="translate(-5.06 -6.22)"/><path class="cls-1" d="M103.49,6.29c4,0,6.68,3,6.68,7.32S107.47,21,103.49,21s-6.61-3.15-6.61-7.38,2.7-7.32,6.61-7.32Zm0,13.74c2.89,0,4.5-2.31,4.5-6.42s-1.61-6.42-4.5-6.42-4.43,2.38-4.43,6.29c0,4.24,1.54,6.55,4.43,6.55Z" transform="translate(-5.06 -6.22)"/><path class="cls-1" d="M6.34,15.73a45.92,45.92,0,0,0,.19,5H5.06S5.25,15,5.25,9.5c0-1-.06-3-.06-3h1s4,5.65,6.61,9.31a13.45,13.45,0,0,1,1,1.61,16.29,16.29,0,0,1-.13-1.86v-4a43.18,43.18,0,0,0-.19-5h1.48s-.19,5.26-.19,11.3c0,.58.06,3,.06,3h-1s-3.92-5.52-6.61-9.25A13.06,13.06,0,0,1,6.28,10s.06,1.22.06,1.86v3.85Z" transform="translate(-5.06 -6.22)"/><path class="cls-1" d="M66.76,20a2.66,2.66,0,0,0,2.63-3c-.19-1.22-1.09-1.93-2.63-2.83-2-1.09-3.15-1.93-3.34-3.85-.26-2.37,1.67-4,4-4.11a9.23,9.23,0,0,1,3,.45V8.22A4.34,4.34,0,0,0,67.6,7.13,2.4,2.4,0,0,0,65,9.31c0,1.22,1,1.86,2.7,2.89,2.31,1.35,3.47,2.44,3.47,4.43A4.38,4.38,0,0,1,66.57,21a9.55,9.55,0,0,1-3-.45V18.88A4.6,4.6,0,0,0,66.76,20Z" transform="translate(-5.06 -6.22)"/><path class="cls-1" d="M82.49,6.49V7.83a10.16,10.16,0,0,0-2.76-.32h-.9v4.17c0,4,.19,9.05.19,9.05H76.78s.19-5.07.19-9.05c0-.7-.06-3.27-.06-3.27a6,6,0,0,1,.06-.9H76a9.93,9.93,0,0,0-2.7.32V6.49Z" transform="translate(-5.06 -6.22)"/><path class="cls-1" d="M126.8,20.74h-2.12s-.13-5.2-.32-8.86V10.34s-.26.71-.58,1.48l-3.92,9.31s-2.18-5-3.92-8.8c-.26-.51-.58-1.54-.84-2a11.8,11.8,0,0,1-.06,2.18c-.26,3.72-.32,8.22-.32,8.22h-1.35l.9-14.25h1.22s2.63,5.91,4.3,9.57a10.06,10.06,0,0,1,.58,1.48,7.89,7.89,0,0,1,.51-1.48c1.54-3.66,3.92-9.57,3.92-9.57H126l.77,14.25Z" transform="translate(-5.06 -6.22)"/><path class="cls-1" d="M93.92,9.82c0,1.93-1.16,3.21-3.28,3.72,1.35,2.5,4.11,7.19,4.11,7.19H92.51s-1.16-2.44-4.24-7.83h.19c2.31,0,3.53-1,3.53-2.82a2.58,2.58,0,0,0-2.89-2.7c-.58,0-1.41.06-1.41.06a3.75,3.75,0,0,1,.13,1.22V16c0,3.21.13,4.75.13,4.75H85.83S86,15.15,86,12.2c0-2-.13-5.71-.13-5.71H90c2.57,0,3.92,1.22,3.92,3.34Z" transform="translate(-5.06 -6.22)"/><path class="cls-1" d="M44.35,9.82c0,1.93-1.22,3.21-3.27,3.72,1.35,2.5,4,7.19,4,7.19H42.88s-1.16-2.44-4.24-7.83h.26c2.25,0,3.47-1,3.47-2.82a2.59,2.59,0,0,0-2.89-2.7c-.51,0-1.41.06-1.41.06a3.76,3.76,0,0,1,.13,1.22V16c0,3.21.13,4.75.13,4.75H36.2s.19-5.59.19-8.54c0-2-.19-5.71-.19-5.71h4.24c2.5,0,3.92,1.22,3.92,3.34Z" transform="translate(-5.06 -6.22)"/></svg>