<svg id="Layer_1" data-name="Layer 1" xmlns="http://www.w3.org/2000/svg" viewBox="0 0 187.27 27.42"><defs><style>.cls-1{fill:#231f20;}</style></defs><title>officemax</title><path class="cls-1" d="M24.88,9.37a14.87,14.87,0,0,1,3,9.38c0,3-.72,6.58-2.55,9a11.18,11.18,0,0,1-9,4c-3.38,0-6.69-.9-8.95-3.59-2.05-2.44-2.84-6.33-2.84-9.49,0-3,.68-6.47,2.52-8.91a11.32,11.32,0,0,1,8.95-4C19.38,5.81,22.62,6.67,24.88,9.37ZM11.44,18.78c0,3.31.36,7.84,4.78,7.84S21,22.34,21,19s-.32-8-4.71-8-4.85,4.38-4.85,7.8" transform="translate(-4.54 -4.37)"/><path class="cls-1" d="M37.5,24.53c0,.47-.14,2.51.65,2.51.36,0,.72-.25,1.18-.25,1.19,0,1.58,1,1.58,2,0,1.37-.61,2.48-2.12,2.48s-3-.36-4.45-.36-2.73.32-3.92.36c-1.36,0-2-1.11-2-2.48,0-1.08.4-2,1.58-2,.47,0,.83.25,1.19.25.79,0,.65-2,.65-2.51V18c0-1.26.07-1.4-1.22-1.4s-2.19-.32-2.19-1.9.54-2.12,2-2.12c1.11,0,1.4.11,1.44-1.18C32,7.43,35.42,5.81,39,5.81a8.64,8.64,0,0,1,3.7.75,3.73,3.73,0,0,1,2.16,3.2,2.65,2.65,0,0,1-2.7,2.8,2.32,2.32,0,0,1-2.44-2.12,1.66,1.66,0,0,1,.32-1,1.62,1.62,0,0,0-.72-.14c-1.33,0-1.8.79-1.8,2.05s.07,1.15,1.22,1.15c1.51,0,2.55.07,2.55,1.94,0,1.65-.68,2.08-2.26,2.08S37.5,16.49,37.5,18v6.58" transform="translate(-4.54 -4.37)"/><path class="cls-1" d="M51.74,24.53c0,.47-.14,2.51.65,2.51.36,0,.72-.25,1.19-.25,1.18,0,1.58,1,1.58,2,0,1.37-.61,2.48-2.12,2.48s-3-.36-4.46-.36-2.73.32-3.92.36c-1.37,0-2-1.11-2-2.48,0-1.08.4-2,1.58-2,.47,0,.82.25,1.18.25.79,0,.65-2,.65-2.51V18c0-1.26.07-1.4-1.22-1.4s-2.19-.32-2.19-1.9.54-2.12,2-2.12c1.11,0,1.4.11,1.44-1.18.14-3.91,3.52-5.54,7.08-5.54a8.64,8.64,0,0,1,3.7.75,3.73,3.73,0,0,1,2.16,3.2,2.65,2.65,0,0,1-2.69,2.8,2.32,2.32,0,0,1-2.44-2.12,1.65,1.65,0,0,1,.32-1,1.62,1.62,0,0,0-.72-.14c-1.33,0-1.8.79-1.8,2.05s.07,1.15,1.22,1.15c1.51,0,2.55.07,2.55,1.94,0,1.65-.68,2.08-2.26,2.08s-1.51-.07-1.51,1.4v6.58" transform="translate(-4.54 -4.37)"/><path class="cls-1" d="M66.28,24.53c0,.47-.18,2.51.61,2.51.36,0,.72-.25,1.18-.25,1.19,0,1.59,1,1.59,2,0,1.37-.61,2.48-2.12,2.48s-3-.36-4.46-.36-2.73.32-4,.36c-1.51,0-2.12-1.11-2.12-2.48,0-1.08.39-2,1.58-2,.47,0,.82.25,1.18.25.79,0,.65-2,.65-2.51V19.36c0-.47.14-2.52-.65-2.52-.36,0-.72.25-1.18.25-1.19,0-1.58-1-1.58-2,0-1.37.61-2.48,2.16-2.48,1,0,2,.36,2.95.36s2.12-.36,3.16-.36,1.08,1,1.08,1.83Zm.18-16.78a3.38,3.38,0,1,1-3.38-3.38,3.38,3.38,0,0,1,3.38,3.38" transform="translate(-4.54 -4.37)"/><path class="cls-1" d="M78.33,16.73c-2.66,0-3.59,2.81-3.59,5a6.94,6.94,0,0,0,.9,3.6,3.83,3.83,0,0,0,3,1.58c1.65,0,2.19-.9,2.77-2.27.25-.61.32-1,.9-1.36a2.75,2.75,0,0,1,1.58-.43,2.62,2.62,0,0,1,2.79,2.66,5.77,5.77,0,0,1-2.36,4.35,9.13,9.13,0,0,1-5.89,1.9,9.31,9.31,0,0,1-6.87-2.55A10.47,10.47,0,0,1,68.81,22c0-6.11,3.74-10,9.88-10C82,12,86.2,13.61,86.2,17.6a3.2,3.2,0,0,1-3.38,3.16c-1.47,0-2.87-.68-2.87-2.34a1.62,1.62,0,0,1,.36-1.08,2.9,2.9,0,0,0-2-.61" transform="translate(-4.54 -4.37)"/><path class="cls-1" d="M94.6,22.92c-.72,0-1.62-.22-1.62.75a3.58,3.58,0,0,0,3.7,3.59c3.06,0,2.84-2.84,5.64-2.84a2.25,2.25,0,0,1,2.48,2.26,4.59,4.59,0,0,1-2.48,3.67,10.91,10.91,0,0,1-5.71,1.44c-5.9,0-9.56-4-9.56-9.77s3.52-10,9.41-10a8.8,8.8,0,0,1,6.08,2,8.66,8.66,0,0,1,2.59,6.25c0,2.12-.21,2.66-2.37,2.66Zm3.34-4c.58,0,1.26.18,1.26-.61a2.37,2.37,0,0,0-.76-1.54,2.93,2.93,0,0,0-1.94-.68,3,3,0,0,0-2.44,1c-.33.32-.9.9-.9,1.37,0,.68,1.11.5,1.51.5h3.27" transform="translate(-4.54 -4.37)"/><path class="cls-1" d="M127.41,9.55c.32-1.33.68-3.27,2.73-3.23,1.83,0,3.63.36,5.46.36,1.3,0,3.09-.36,4.92-.36A2.47,2.47,0,0,1,143,9c0,1.08-.64,2.41-1.86,2.41-.54,0-1-.25-1.62-.25-1.08,0-.9,2.23-.9,2.91v9.42c0,.68-.18,2.91.9,2.91.58,0,1.08-.25,1.62-.25,1.22,0,1.86,1.33,1.86,2.41a2.47,2.47,0,0,1-2.51,2.73c-1.55,0-3.09-.36-4.35-.36-1.59,0-3.13.36-4.68.36-1.37,0-2-1.19-2-2.73,0-1.08.43-2.41,1.26-2.41.36,0,.72.25,1.11.25.76,0,.65-2.23.65-2.91V11.13l-5,17a6.18,6.18,0,0,1-.9,2c-.5.72-1,.72-1.87.72H123.6c-2.19,0-2.3-.65-2.8-2.77l-4.82-17v12.4c0,.68-.07,2.91.69,2.91.39,0,.75-.25,1.11-.25.82,0,1.26,1.33,1.26,2.41,0,1.55-.62,2.73-1.73,2.73-1.54,0-3.09-.36-4.35-.36-1.58,0-3.13.36-4.67.36a2.55,2.55,0,0,1-2.8-2.73c0-1.08.64-2.41,1.87-2.41.54,0,1,.25,1.61.25,1.08,0,.9-2.23.9-2.91V14.11c0-.68.18-2.91-.9-2.91-.57,0-1.07.25-1.61.25-1.22,0-1.87-1.33-1.87-2.41,0-1.55.9-2.73,3.41-2.73,1.83,0,3.63.36,5.46.36,1.29,0,3.09-.36,4.92-.36s1.8,1.36,2.12,2.69l2.94,12.47,3.06-11.93" transform="translate(-4.54 -4.37)"/><path class="cls-1" d="M150.91,17c0,1.65-1.59,2.41-3.09,2.41a3.16,3.16,0,0,1-3.31-3.09c0-3.7,5.1-4.31,7.83-4.31a12.81,12.81,0,0,1,5.82,1.08c2.12,1.25,2.3,3.3,2.3,5.53V25.4c0,.47-.11,1.65.61,1.65.28,0,.57,0,.86,0a1.86,1.86,0,0,1,1.8,2c0,2-2,2.76-3.7,2.76s-3.49-.61-4.1-2.3a8.69,8.69,0,0,1-6.14,2.3c-3.27,0-6.4-1.73-6.4-5.39,0-8.52,11.14-4.09,11.14-8.84a2.19,2.19,0,0,0-2.44-2c-.61,0-1.18.11-1.18.83Zm3.63,6.07c-1,1.11-5.21.58-5.21,2.48,0,1.26,1,1.69,2.05,1.69,2.12,0,3.16-1.25,3.16-3.37V23.1" transform="translate(-4.54 -4.37)"/><path class="cls-1" d="M168.45,18.39c-.33-.47-1.08-1.55-1.62-1.55a3.36,3.36,0,0,0-1,.25c-1,0-1.4-1-1.4-2,0-1.37.53-2.48,1.9-2.48.9,0,1.87.36,2.84.36s2.12-.32,3.24-.36a1.81,1.81,0,0,1,1.86,2c0,1.22-.93,1.29-.93,1.87a7.83,7.83,0,0,0,1,2.19l.51.93.54-.93a6.15,6.15,0,0,0,1-1.94c0-.72-1.19-.28-1.19-2,0-1.33.61-2.12,1.47-2.12s1.86.36,2.84.36,2.11-.32,3.23-.36c1.3,0,1.83,1.12,1.83,2.48,0,1.08-.32,2-1.37,2a2.36,2.36,0,0,0-1-.29c-.54,0-.68.39-1,.86l-2.44,3.77,2.44,4.1c.29.43.82,1.37,1.33,1.37a6.23,6.23,0,0,1,.9-.11c1,0,1.37,1,1.37,2,0,1.37-.54,2.48-1.84,2.48-1.11,0-2.16-.36-3.23-.36s-1.94.32-2.84.36A2.12,2.12,0,0,1,175,29.06a1.3,1.3,0,0,1,.54-1.18c.22-.18.65-.5.65-.86a7.24,7.24,0,0,0-1-2l-.54-.93-1,1.69a3.85,3.85,0,0,0-.72,1.44c0,.86,1.22.4,1.22,1.87a2.11,2.11,0,0,1-2,2.3c-1.12,0-2.16-.36-3.24-.36s-1.94.32-2.84.36c-1.26,0-1.79-1.11-1.79-2.48,0-1.08.32-2,1.36-2,.4,0,.75.15,1.15.15.61,0,1-.76,1.37-1.29l.61-.9,1.94-3.09-2.23-3.27" transform="translate(-4.54 -4.37)"/><path class="cls-1" d="M186.77,15.15a2.27,2.27,0,1,1,4.54,0,2.27,2.27,0,1,1-4.54,0Zm-.5,0a2.77,2.77,0,1,0,2.78-2.74A2.76,2.76,0,0,0,186.27,15.15Zm1.7,1.62h.5V15.39H189l.88,1.39h.54l-.92-1.42a.83.83,0,0,0,.85-.88c0-.62-.36-.92-1.13-.92H188Zm.5-2.82h.66c.34,0,.71.07.71.49s-.4.53-.85.53h-.52Z" transform="translate(-4.54 -4.37)"/></svg>