<svg id="Layer_1" data-name="Layer 1" xmlns="http://www.w3.org/2000/svg" viewBox="0 0 601.9 68.41"><defs><style>.cls-1{fill:#fff;}</style></defs><title>Office_Depot</title><path class="cls-1" d="M49.27,27.46C40,27.46,31.35,33.14,31.35,46c0,11.76,5.43,19.28,17.64,19.28,8.33,0,18.23-5,18.23-19C67.21,34,61,27.46,49.27,27.46M47.9,78.31c-23.78,0-35.38-11.87-35.38-31.17,0-19.95,17.2-32.58,38.1-32.58C70.9,14.56,86,23.92,86,45.49,86,65.65,69.2,78.31,47.9,78.31Z" transform="translate(-12.52 -9.9)"/><path class="cls-1" d="M131.05,21.87a36.31,36.31,0,0,0-6.82-.83c-5.18,0-8.15,2-8.15,6.84v4h12V42.58h-12V67c3.35.3,6.94.7,9.9,1.16v9H88.84v-9c3-.45,6.56-.86,10-1.16V42.58H88.14V31.9H98.8V28.06C98.8,16,106.06,9.9,122.46,9.9a62.61,62.61,0,0,1,9.63.72l-1,11.25" transform="translate(-12.52 -9.9)"/><path class="cls-1" d="M174.89,21.87A38.39,38.39,0,0,0,168,21c-5.24,0-8.17,2-8.17,6.84v4h11.85V42.58H159.84V67c3.35.3,6.92.7,9.9,1.16v9H132.68v-9c3-.45,6.45-.86,9.89-1.16V42.58H131.89V31.9h10.68V28.06c0-12.06,7.31-18.16,23.66-18.16a62.36,62.36,0,0,1,9.64.72l-1,11.25" transform="translate(-12.52 -9.9)"/><path class="cls-1" d="M194.3,27.19c-5.78,0-10.56-3.65-10.56-8.19s4.78-8.18,10.56-8.18S204.9,14.41,204.9,19s-4.75,8.19-10.61,8.19M175.76,77.12v-9c3-.45,6.48-.86,9.83-1.16V42.43c-2.63-.34-6.54-.73-9.83-.84v-8.9A216.86,216.86,0,0,1,203,31.87V67c3.16.3,6.51.7,9.12,1.16v9Z" transform="translate(-12.52 -9.9)"/><path class="cls-1" d="M239.67,78c-18.19,0-28.13-7.44-28.13-22.08,0-13.64,9-24.92,30.6-24.92a60.54,60.54,0,0,1,13,1.47V48H244c-.44-1.84-.72-3.54-1.05-5.08a10,10,0,0,0-3.1-.32c-6,0-10.31,4.27-10.31,11.7,0,7.73,3.9,11.76,14,11.76a33.9,33.9,0,0,0,10.83-1.8l1.18,12A68.05,68.05,0,0,1,239.67,78" transform="translate(-12.52 -9.9)"/><path class="cls-1" d="M285.68,40.94c-5,0-8.61,3.11-9,7.77h17c.19-5-3-7.77-8-7.77m24.5,17H276.5c.16,6.06,4.66,9.47,14,9.47a49.86,49.86,0,0,0,16.64-2.84L308.69,75a70,70,0,0,1-20.9,3.13C269.18,78.18,259,70.84,259,55c0-13.89,9.69-24.19,27.16-24.19,17.06,0,24.55,9.19,24.55,21.08A40,40,0,0,1,310.18,57.92Z" transform="translate(-12.52 -9.9)"/><path class="cls-1" d="M368.87,42.87a27.37,27.37,0,0,0-4.16.18V66.88a26.9,26.9,0,0,0,3.82.15c7.38,0,13.25-3.78,13.25-12.12,0-6.92-1.87-12-12.92-12m-1.71,34.82c-6.41,0-16.79-.39-19-.39h-7.85V69.5a51.73,51.73,0,0,1,7.85-.9V41.42a71.17,71.17,0,0,1-7.85-.68v-8h7.41c4.94,0,13.3-.21,22-.21,17.62,0,29.92,5.35,29.92,21.48C399.66,69.14,386.72,77.69,367.16,77.69Z" transform="translate(-12.52 -9.9)"/><path class="cls-1" d="M399.21,77.3V69.5a51.31,51.31,0,0,1,7.75-.9V41.42a70.64,70.64,0,0,1-7.75-.68v-8h44.14V44.9H430.49c-.31-1.12-.4-1.55-.59-2.48h-6.36v7.88h5.38a8.23,8.23,0,0,1,.59-1.83h10.95v12.1H429.52a7.25,7.25,0,0,1-.59-1.73h-5.38v8.67h6.4c.24-1.23.33-1.53.58-2.72h13.1V77.3H399.21" transform="translate(-12.52 -9.9)"/><path class="cls-1" d="M474.25,42.42a13.26,13.26,0,0,0-1.71.1V54.62a6.11,6.11,0,0,0,1.39.14c4.51,0,8.59-2.23,8.59-6.43,0-3.15-2.19-5.91-8.26-5.91m.84,21.19c-.37,0-1.38,0-2.55,0v5a53.1,53.1,0,0,1,7.81.9v7.8H448.25V69.5a52.51,52.51,0,0,1,7.71-.9V41.42a72.44,72.44,0,0,1-7.71-.68v-8h7.6c2.86,0,11.72-.3,18.28-.3,16.14,0,24.87,5.16,24.87,14.91C499,55.93,491.25,63.61,475.08,63.61Z" transform="translate(-12.52 -9.9)"/><path class="cls-1" d="M530.6,43.07c-5.74,0-11.63,3.25-11.63,11.69C519,62.39,522.3,67,530.27,67c5.2,0,12.11-2.61,12.11-12.09,0-7.83-3.84-11.83-11.78-11.83M529.44,78.2c-18.86,0-28.15-8.42-28.15-22.53,0-14.35,13.69-23.85,30.62-23.85,15.64,0,28.12,6.27,28.12,22.43C560,68.79,546.59,78.2,529.44,78.2Z" transform="translate(-12.52 -9.9)"/><path class="cls-1" d="M601.73,47.46a43.72,43.72,0,0,1-.83-4.55h-4.67V68.6a51.14,51.14,0,0,1,7.72.9v7.8h-32V69.5a52.33,52.33,0,0,1,7.8-.9V42.91H575a33,33,0,0,1-.84,4.55H561.46V32.71h53V47.46h-12.7" transform="translate(-12.52 -9.9)"/><path class="cls-1" d="M609.53,73.49h.4c.52,0,.91-.2.91-.65s-.25-.63-.91-.63h-.4v1.27m0,2h-.59V71.81a7.65,7.65,0,0,1,1-.08,1.82,1.82,0,0,1,1.15.31.91.91,0,0,1,.31.75.84.84,0,0,1-.68.86v.07c.29,0,.49.33.56.87a8,8,0,0,0,.25.88h-.63a2.66,2.66,0,0,1-.2-.92.76.76,0,0,0-.84-.68h-.36Zm.57-4.66a2.7,2.7,0,0,0-2.59,2.76,2.74,2.74,0,0,0,2.61,2.79,2.78,2.78,0,0,0,0-5.55Zm0-.53a3.2,3.2,0,0,1,3.2,3.3,3.15,3.15,0,0,1-3.23,3.28,3.23,3.23,0,0,1-3.25-3.28,3.3,3.3,0,0,1,3.25-3.3Z" transform="translate(-12.52 -9.9)"/></svg>