<svg id="Layer_1" data-name="Layer 1" xmlns="http://www.w3.org/2000/svg" viewBox="0 0 175.75 57.08"><defs><style>.cls-1{fill:#273a82;}.cls-1,.cls-2{fill-rule:evenodd;}.cls-2{fill:#fff;}</style></defs><title>Old_Navy_00afec</title><path class="cls-1" d="M90.33,3.17C41.8,3.17,2.46,15.95,2.46,31.71S41.8,60.25,90.33,60.25s87.87-12.78,87.87-28.54S138.86,3.17,90.33,3.17Z" transform="translate(-2.46 -3.17)"/><path class="cls-2" d="M41.17,31.72c0,6.52-3.36,11.35-9.18,11.35s-9.18-4.82-9.18-11.35c0-6.86,3.33-11.48,9.18-11.48s9.18,4.62,9.18,11.48Z" transform="translate(-2.46 -3.17)"/><path class="cls-1" d="M28.72,31.77c0,2.38.22,7,3.28,7s3.28-4.58,3.28-7S35,24.52,32,24.52s-3.28,4.83-3.28,7.25Z" transform="translate(-2.46 -3.17)"/><polygon class="cls-2" points="53.17 39.56 41.98 39.56 41.98 17.41 47.61 17.41 47.61 35.73 53.17 35.73 53.17 39.56 53.17 39.56"/><path class="cls-2" d="M59.29,20.58H66.4c2.78,0,5,0,7.08,2.41a13,13,0,0,1,2.95,8.7A13.51,13.51,0,0,1,73.76,40c-1.91,2.38-4.3,2.71-7,2.71h-7.5V20.58Z" transform="translate(-2.46 -3.17)"/><path class="cls-1" d="M66.06,38.65a2.81,2.81,0,0,0,2-.45,4.21,4.21,0,0,0,1.26-1.7,12.29,12.29,0,0,0,.9-5,12.17,12.17,0,0,0-1.18-5.44c-.93-1.55-1.83-1.47-3.17-1.47h-.67V38.65Z" transform="translate(-2.46 -3.17)"/><polygon class="cls-2" points="94.36 39.56 87.62 26.14 87.62 39.56 82.2 39.56 82.2 17.41 87.69 17.41 94.39 30.75 94.39 17.41 99.79 17.41 99.79 39.56 94.36 39.56 94.36 39.56"/><polygon class="cls-2" points="114.01 35.44 109.84 35.44 108.73 39.56 102.69 39.56 108.35 17.41 115.54 17.41 121.25 39.56 115.04 39.56 114.01 35.44 114.01 35.44"/><polygon class="cls-1" points="113.45 31.27 111.96 23.07 110.47 31.27 113.45 31.27 113.45 31.27"/><polygon class="cls-2" points="132.82 39.56 126.85 39.56 121.5 17.41 127.38 17.41 129.78 29.9 131.9 17.41 138.22 17.41 132.82 39.56 132.82 39.56"/><polygon class="cls-2" points="151.96 28.8 151.96 39.56 146.14 39.56 146.14 28.8 140.2 17.41 146 17.41 148.99 23.77 152.38 17.41 157.67 17.41 151.96 28.8 151.96 28.8"/></svg>