<svg id="Layer_1" data-name="Layer 1" xmlns="http://www.w3.org/2000/svg" viewBox="0 0 164.6 32.01"><defs><style>.cls-1{fill:#4f483e;}</style></defs><title>Pandora</title><path class="cls-1" d="M169.8,18h-.93V18h0a.39.39,0,0,0,0,0v-.11h2.4V18a.2.2,0,0,0,0,0v.08h-.17l-.29,0-.27,0h-.21v2.72h-.54Z" transform="translate(-10.45 -7.65)"/><path class="cls-1" d="M171.91,17.78h.3l1.08,2.08,1.11-2.08h.31l.33,2.94h-.61l-.17-1.92-1,1.86h-.24l-.92-1.82L172,20.72h-.47Z" transform="translate(-10.45 -7.65)"/><polygon class="cls-1" points="101.87 0 101.03 5.28 102.76 5.28 101.87 0"/><polygon class="cls-1" points="96.75 0.47 98.29 5.54 100.02 5.36 96.75 0.47"/><polygon class="cls-1" points="106.97 0.47 105.42 5.54 103.7 5.36 106.97 0.47"/><circle class="cls-1" cx="101.87" cy="6.64" r="0.73"/><circle class="cls-1" cx="104.17" cy="6.85" r="0.73"/><circle class="cls-1" cx="99.54" cy="6.85" r="0.73"/><path class="cls-1" d="M109.58,15.91l.28,1a19.68,19.68,0,0,1,4.78.05l.37-1A17.67,17.67,0,0,0,109.58,15.91Z" transform="translate(-10.45 -7.65)"/><path class="cls-1" d="M19,18.64a10.79,10.79,0,0,1,2.55.38,4.71,4.71,0,0,1,1.79.93,3.78,3.78,0,0,1,1,1.5,5.6,5.6,0,0,1,.35,2v.09l0,.12v.24a6,6,0,0,1-.44,2.4A4.52,4.52,0,0,1,23,28a9.81,9.81,0,0,1-1.78,1.12,9.39,9.39,0,0,1-2,.7,6.76,6.76,0,0,1-.74.14l-.71.11-.68,0-.66,0-1.17,0-.5,0a3.58,3.58,0,0,1-.47,0v9.52H13.19l-.34,0-.31,0H12.4l-.36,0-.42,0H10.45v-21H19Zm-3,10a4.09,4.09,0,0,0,1.87-.29,3.84,3.84,0,0,0,1.4-1,6.15,6.15,0,0,0,.92-1.46,5.3,5.3,0,0,0,.42-1.61v-.06a.09.09,0,0,1,0-.06v-.36a4.37,4.37,0,0,0-.93-2.76,2.91,2.91,0,0,0-1.17-.91,4.08,4.08,0,0,0-1.63-.3l1.17,0h-.2l-.12,0H16.42l-2.07,0v8.86Z" transform="translate(-10.45 -7.65)"/><path class="cls-1" d="M34.05,18.4h1.86L45,39.66h-2.2a.28.28,0,0,1-.13,0h-.27a.29.29,0,0,1-.13,0H40.56l-3.25-8.37h-6l-3,8.37H26.81l-.15,0a.12.12,0,0,1-.09,0H24.74Zm2.78,11.47-2.43-5.95L32,29.86Z" transform="translate(-10.45 -7.65)"/><path class="cls-1" d="M50.19,18.64h2.59l13,14.68V18.64h1.18a.28.28,0,0,0,.15.12l.18.06.21-.06.15-.06,1.18,0v21H66.43L53.22,24.52V39.66h-1.3l-.09,0-.06,0h-.1l-.1,0H50.19Z" transform="translate(-10.45 -7.65)"/><path class="cls-1" d="M86.83,18.64a12.06,12.06,0,0,1,4.35.8,6.26,6.26,0,0,1,2.8,2.2,11,11,0,0,1,1.52,3.17A12.91,12.91,0,0,1,96,28.5q0,.49,0,1t-.13,1.09q-.09.58-.22,1.14a10.63,10.63,0,0,1-.34,1.14,11.18,11.18,0,0,1-1.21,2.35,14.2,14.2,0,0,1-1.84,2.2A7.48,7.48,0,0,1,89.55,39a11.65,11.65,0,0,1-3.65.64H76v-21H86.83ZM80,20.09V38.23l.7.09.67.06h.3l.16,0H82a15.93,15.93,0,0,0,4.22-.61,7.29,7.29,0,0,0,2.9-1.58,7.4,7.4,0,0,0,1.84-3,16.23,16.23,0,0,0,.82-4.52v-.12a.27.27,0,0,1,0-.12v-.7a10.19,10.19,0,0,0-.52-3.49,4.93,4.93,0,0,0-1.57-2.24,10.61,10.61,0,0,0-2.2-1.33A9,9,0,0,0,85.1,20l-.3,0-.3,0-.33,0-.3,0-.18,0-.15,0h-.72l-.21,0-.18,0-.63,0-.57,0-.39,0-.33,0-.28,0-.22,0Z" transform="translate(-10.45 -7.65)"/><path class="cls-1" d="M100.49,28.42v-.26a3,3,0,0,1,0-.3c0-.1,0-.2,0-.3a10.61,10.61,0,0,1,1-3.5,13.1,13.1,0,0,1,2.19-3.23,8.54,8.54,0,0,1,3.39-2.32,13,13,0,0,1,4.67-.77l1.17,0a17.11,17.11,0,0,1,4.6.76,7.3,7.3,0,0,1,3.08,1.88,12.4,12.4,0,0,1,1.91,2.55,10.24,10.24,0,0,1,1.07,2.79,2.51,2.51,0,0,1,.09.36c0,.12,0,.23.06.33l.06.36.06.36a6.19,6.19,0,0,1,.07.71q0,.35,0,.68v.36a11.65,11.65,0,0,1-.83,4.53,8.91,8.91,0,0,1-2.53,3.41A11.36,11.36,0,0,1,113,39.66H111.3l-.74,0a6.47,6.47,0,0,1-.74-.08,5,5,0,0,1-.76-.12l-.76-.18a9.36,9.36,0,0,1-2.8-1.15A13.45,13.45,0,0,1,102.92,36,7.71,7.71,0,0,1,101.09,33a13.64,13.64,0,0,1-.6-4.23v-.32Zm4.18.29a13.88,13.88,0,0,0,.57,4.17A8.08,8.08,0,0,0,107,36a7.52,7.52,0,0,0,5.31,2.52,6.82,6.82,0,0,0,2.73-.73A7.41,7.41,0,0,0,117.25,36,9.43,9.43,0,0,0,119,32.86a16.05,16.05,0,0,0,.82-4.13v-.49a11.2,11.2,0,0,0-.57-3.64,9.13,9.13,0,0,0-1.71-3,8,8,0,0,0-2.44-1.88,7.68,7.68,0,0,0-3-.76,7.1,7.1,0,0,0-2.57.62,5.38,5.38,0,0,0-1.93,1.5,13,13,0,0,0-2.42,4.73l-.18.76q-.09.36-.15.73t-.1.73q0,.36-.1.7Z" transform="translate(-10.45 -7.65)"/><path class="cls-1" d="M129.49,18.64h8.86a10.62,10.62,0,0,1,2.73.42,4.57,4.57,0,0,1,3,2.68,5,5,0,0,1,.37,2,5.55,5.55,0,0,1-.3,1.87,3.72,3.72,0,0,1-.92,1.44A8.2,8.2,0,0,1,142,28.07a6.75,6.75,0,0,1-1.39.73L140,29a3.84,3.84,0,0,1-.67.18,4.59,4.59,0,0,1-.62.14l-.56.08,8.36,10.22H145l-.23,0-.23,0-.2,0h-.47a.09.09,0,0,1-.06,0h-.09l-.45,0-.48,0H141.5l-7.83-9.74v9.74h-1.43a.6.6,0,0,1-.19,0H132a.11.11,0,0,1-.08,0l-.09,0-.09,0h-.09a.09.09,0,0,1-.06,0h-.06l-.37,0-.37,0h-1.25Zm4.33,9.87.19,0a12.89,12.89,0,0,0,2.12-.21,5,5,0,0,0,1.56-.55,6.24,6.24,0,0,0,1.2-.83A4.78,4.78,0,0,0,140,25.33a2.43,2.43,0,0,0,.17-.65,5,5,0,0,0,.08-.58c0-.16,0-.29,0-.39a2,2,0,0,0,0-.33q0-.18-.09-.42a1.49,1.49,0,0,0-.16-.49l-.28-.52a3,3,0,0,0-.62-.76,5.45,5.45,0,0,0-.94-.67,3.81,3.81,0,0,0-1.28-.49,8.88,8.88,0,0,0-1.75-.15l-1.47-.06v8.61A.28.28,0,0,0,133.83,28.51Z" transform="translate(-10.45 -7.65)"/><path class="cls-1" d="M158,18.4h1.88l9.21,21.26h-2.23a.29.29,0,0,1-.13,0h-.27a.29.29,0,0,1-.13,0h-1.75l-3.29-8.37h-6.1l-3,8.37h-1.46l-.15,0a.12.12,0,0,1-.09,0h-1.85Zm2.81,11.47-2.45-5.95-2.45,5.95Z" transform="translate(-10.45 -7.65)"/></svg>