<?xml version="1.0" encoding="utf-8"?>
<!-- Generator: Adobe Illustrator 21.0.2, SVG Export Plug-In . SVG Version: 6.00 Build 0)  -->
<svg version="1.1" id="Layer_1" xmlns="http://www.w3.org/2000/svg" xmlns:xlink="http://www.w3.org/1999/xlink" x="0px" y="0px"
	 viewBox="0 0 181.9 126.8" style="enable-background:new 0 0 181.9 126.8;" xml:space="preserve">
<style type="text/css">
	.st0{fill-rule:evenodd;clip-rule:evenodd;fill:#FFDB96;}
	.st1{fill-rule:evenodd;clip-rule:evenodd;fill:#54301A;}
	.st2{fill:#FFFFFF;}
	.st3{fill-rule:evenodd;clip-rule:evenodd;fill:#FFFFFF;}
</style>
<path class="st0" d="M98.8,3.7c-9.6,0.7-16.5,3.9-20.2,9.4c-2.3,3.4,0.8,9.1,1.1,9.7l0.1,0.1l0.2,0.3c-0.2,0.3-1.7,0.8-2.8,1.2
	c-3.3,1.2-8.3,3.1-11,8.2c-3.6,6.9-2.5,13.4,3.1,18.5c6.5,5.9,17,6.9,22.7,7c5,0.1,11.3,0.2,19.7-5.5c6.8-4.6,10.2-11.3,10.2-16.2
	c0-1-0.1-1.9-0.4-2.7c0,0-0.1-0.1-0.1-0.2c0.3-0.5,0.7-1.1,0.7-1.1c0.1-0.2,0.3-0.6,0.3-0.6c0,0,0.2-1.2,0.2-1.2
	c0-0.1-0.6-1.9-0.6-1.9c0,0-0.2-0.3-0.2-0.3c-0.7-0.8-1.5-1.4-2.5-1.7c0,0,0.2,0,0.2,0l0.9-0.4c0.1-0.1,1.1-0.7,1.1-0.7
	c0.1-0.1,2.8-2.2,2.8-2.2c0,0,1-1.3,1-1.3c0-0.1,0.3-0.5,0.3-0.5l0.5-0.5l1.5-1.5c0,0,0.8-1.1,0.8-1.1c0-0.1,0.2-1.4,0.2-1.4
	c0-0.1-0.2-0.7-0.2-0.7l-0.1-0.2l-0.1-0.1l-0.4-0.4c0,0-0.4-0.2-0.5-0.2c0.2-0.4,0.4-0.8,0.4-1.1c0-0.4-0.2-0.9-0.5-1.2
	c-0.1-0.1-0.3-0.1-0.5-0.2c0.1,0,0.3-0.1,0.3-0.1c0.2-0.1,0.4-0.3,0.4-0.3l0.1-0.1l0.3-0.4l0.3-0.7l-0.1-0.5l-0.1-0.4l-0.2-0.2
	l-0.5-0.5c-0.2-0.1-0.4-0.3-0.4-0.3l-0.2-0.1l-0.4-0.1l-0.4,0l-0.7,0.2c0,0-0.4,0.3-0.4,0.3c0,0-0.4,0-0.4,0c0,0-0.8,0.1-0.8,0.1
	c0,0-1.2,0.4-1.2,0.4l-0.3,0.1c0,0-0.9,0.2-0.9,0.2h-1c-0.2-0.6-0.4-1.4-0.4-1.4C117.8,4.2,112.1,2.7,98.8,3.7 M126.5,17.2
	C126.5,17.2,126.5,17.2,126.5,17.2L126.5,17.2z"/>
<path class="st1" d="M114.9,39.3c0.1-0.3,0-0.6,0.2-0.8c0-0.1,0-0.3-0.1-0.4c0.3-0.1,0.4-0.1,0.6,0.2c0.3,1-0.1,2.1-0.5,3
	c0,0.1,0,0.1,0,0.2c-0.6,1-2.1,1.9-3.1,1c0.1-0.2-0.2-0.3-0.2-0.4c0.3-0.3,0.9-0.3,1.2-0.6C113.9,41,114.5,40.2,114.9,39.3
	 M112.8,32c0.8-0.1,1.5-0.6,2.4-0.7c0,0.2,0.3,0,0.3,0.2c0,0.1,0,0.1,0,0.2c-0.1,0-0.1,0-0.2,0c-0.4,0.4-0.7,0.7-1.2,0.8
	c-0.1,0-0.1,0.1-0.2,0.1c-2.4,0.8-4,2.8-5.2,4.9c0,0.1,0,0.2,0.1,0.2c1.5-1.4,3.2-2.5,5-3.5c0,0.1,0,0.1,0,0.2
	c-1.5,1.6-3.5,2.8-5,4.4c-0.5,0.1-1.2,0.5-1.5-0.1c-0.2-1.2,0.4-2.5,1.3-3.3C109.8,34,111.2,32.9,112.8,32 M103.9,34.9
	c0.2-0.1,0.3-0.1,0.5-0.2c0.5-0.2,0.8-0.5,1.3-0.8c0.8-0.4,1.6-0.5,2.4-0.7c0.2,0,0.5-0.2,0.7,0c0.1,0.1,0.1,0.2,0,0.3
	c-0.1,0.1-0.4,0-0.4,0.1c-0.1,0.2-0.1,0.1-0.3,0.2c-0.2,0.2-0.8,0.2-1,0.3c-1.3,0.7-2.3,1.6-3.5,2.4c-0.3,0.2-0.7,0.4-0.7,0.8
	c0,0.1,0,0.2-0.1,0.3c-1,1.6-2,3.3-2.6,5c0,0.1,0.1,0.3,0.1,0.2c0.8-0.8,1.2-1.9,2.1-2.5c0.2-0.1,0.2,0.3,0.2,0.5
	c-0.3,1-1.3,1.7-2,2.5c-0.2,0.2-1.3,1-1.5,0.5c-0.8-2.2,0.5-4.5,1.7-6.4C101.7,36.4,102.7,35.5,103.9,34.9 M99.3,37.4
	c0.1,0,0.2,0.1,0.1,0.2c-0.5,0.3-0.9,0.3-1.3,0.8c-0.1,0.1-0.2,0.1-0.3,0.1c-0.4,0.2-0.5,0.7-0.8,0.9c-0.1,0.1-0.2,0-0.3,0.1
	c-0.8,0.7-1.5,1.3-2.1,2.3c-0.3,0.6-0.5,1.2-0.8,1.8c-0.1,0.1,0,0.4,0.1,0.3c0.6-0.6,1-1.2,1.6-1.7c0.1-0.1,0.2,0.1,0.1,0.2
	c-0.2,0.8-0.9,1.5-1.2,2.3c0,0.1-0.1,0.2-0.1,0.3c0,0.2-0.5,0.2-0.5,0.5c0,0.1,0,0.2-0.1,0.3c-0.3,0.4-1,0.8-1.5,0.8
	c-0.4,0-0.4-0.3-0.5-0.6c-0.3-1.1,0-2.3,0.3-3.3c0.2-0.8,0.8-1.4,1.3-2.1C95.1,39.1,97,37.7,99.3,37.4 M87.9,40.2
	c0.1-0.1,0.1,0,0.2,0c0.7-0.7,1.3-1.5,1.4-2.5c0-0.6-0.4-1.1-0.5-1.5c-0.2-0.4-0.7-0.5-1.2-0.7c-0.4-0.1-0.8,0-1.2,0.1
	c-0.2,0.1-0.2,0.4-0.5,0.5c-0.7,0.2-1.2,0.7-1.7,1.3c-0.1,0.1-0.2,0-0.3,0.1c-0.6,0.7-0.6,1.4-0.8,2.2c-0.1,0.5-0.1,0.8-0.3,1.2
	c-0.2,0.7-0.1,1.3,0.3,1.9c0.2,0.3,0.2,0.7,0.5,1.1c1,1.2,2.4,2,3.8,2.8c1.7,1,5.3,1.1,7.1,1c2.1,0,4.3-0.6,5.9-1.8
	c0.9-0.7,2.5-0.8,3.6-1.5c4.6-2.7,7.4-5.4,11.1-9c1.3-1.2,3.8-2.4,3.2-4.6c-0.4-1.5-5.4-0.4-6.2-0.1c-4,1.2-8.4,2.2-12.1,4.1
	c-1.6,0.8-3,1.8-4.4,3c-0.3,0.3-0.6,0.4-1,0.6c-0.4,0.3-0.6,0.7-1,0.9c-1.9,1.4-3.4,3.1-5.1,4.8c-0.3,0.3-0.6,0.6-0.9,0.9
	c-0.3,0.2-0.7-0.1-0.5-0.3c0.5-0.7,0.9-1.5,1.5-2.1c0.1-0.1,0.2,0,0.3-0.1c3-3.8,6.8-6.8,11-9.4c1-0.6,2-1.1,3.2-1.5
	c2.3-0.8,4.5-1.7,6.8-2.6c1-0.4,4-1.4,4.9-1.2c0.7,0.1,1.4-0.1,2.1-0.1c0.6,0.1,1.1,0.1,1.7,0.4c1.2,0.5,2,1.6,1.8,2.8
	c0,0-0.4,0.8-0.4,0.9c-1.4,2.3-2.9,3.3-4.8,4.8c-2.2,1.8-4.2,3.9-6.5,5.7c-1,0.8-2.1,1.4-3.2,2.1c-2.8,1.8-5.6,2.8-8.8,3.5
	c-2.8,0.7-5.8,0.6-8.7,0.2c-0.6-0.1-1.6-0.4-2.2-0.6c-1.4-0.5-2.6-1.2-3.7-2.2c-1.7-1.6-2.9-4.1-2.1-6.3c0-0.1-0.1-0.2,0-0.3
	c0.3-0.8,0.6-1.6,1.2-2.2c0.5-0.4,1.1-0.5,1.6-0.9c0.3-0.2,0.8-0.1,1.1-0.3c0.2,0.2,0.9-0.4,1.5-0.3c0.8,0.1,1.5-0.3,2.3-0.2
	c0.6,0.1,1.2,0.2,1.6,0.6c0.6,0.6,0.9,1.4,0.8,2.2c-0.2,1-0.9,1.9-1.7,2.5c-0.2,0.1-0.2,0.2-0.4,0.3c-0.6,0.2-1.4,0.7-2,0.4
	c-0.1-0.1,0.6-0.3,0.6-0.3C87.2,40.5,87.6,40.4,87.9,40.2 M85.6,26.4c0.5-0.3,0.9,0.4,1.3,0.6c0.6,0.2,1.3,0,1.7,0.5
	c0.1,0.1,0,0.1,0,0.2c0.1,0.2,0.5,0.1,0.7,0.3c0.1,0.1,0.1,0.1,0,0.2c-0.1,0.4-0.6,0.5-1,0.5c-0.3,0-0.4-0.3-0.7-0.4
	c-0.1,0-0.2,0.1-0.1,0.2c0.3,0.3,0.1,0.8-0.2,0.7c-0.6-0.1-1.2-0.3-1.4-0.8c-0.2-0.4,0.5-0.2,0.5-0.5c0-0.3-0.5-0.4-0.6-0.6
	C85.7,27,85.3,26.7,85.6,26.4 M96.3,24.5c0.4-0.8,0.9-1.5,1.4-2.3c0.1,0,0.1,0,0.2,0c0.4,0.7-0.2,1.8-0.6,2.3
	c-0.1,0.8-0.5,1.5-1,2.1c-1.1,1.2-2,2.5-3.3,3.5c-0.7,0.6-2,1.1-2.1,1.3c-1.2,0.6-2.5,0.6-3.8,1.1c-0.3,0.1-0.8,0.2-1.1,0.1
	c-0.6-0.2-1.1-0.3-1.7-0.5c-0.7-0.3-1.3-0.9-1.9-1.3c-0.3-0.2-1.1-0.4-2-0.1c-0.6,0.2-1.3,0.4-1.9,0.6c-0.4,0.1-0.4,0.2-0.6,0.2
	c-0.3,0-1.8,0.8-2.1,1.1c-1.1,1.2-2.3,2.5-2.7,4.1c-0.2,1.1-0.4,2.1-0.3,3.3c0.1,1.4,0.2,2.7,0.9,4c1.3,2.5,2.6,3.7,5.2,5.2
	c0.3,0.2,0.6,0.2,0.9,0.4c0.6,0.3,1,0.8,1.7,1c2.7,1,5.5,1.9,8.4,2.4c3,0.4,6-0.1,8.8-0.7c2-0.5,4-1.3,5.9-2.3
	c1.5-0.8,2.6-1.7,4-2.6c0.3-0.2,2.3-2.1,2.4-2.4c0.1-0.5-0.1-1.1,0.1-1.5c0.2-0.5,1.2-0.6,1.4-0.2c0.3,0.7-1,2.3-1.6,2.7
	c-0.7,0.6-1.4,1.4-2.2,2c-0.3,0.2-0.6,0.7-1,0.9c-0.2,0.1-0.3,0.2-0.5,0.4c-0.7,0.6-2.3,1.5-3.2,1.9c-1.4,0.7-5.8,2-7.4,2.1
	c-1.3,0.1-2.6,0.7-4,0.8c-1.3,0.1-2.6,0.2-3.9,0.1c-1-0.1-2.1-0.2-3.2-0.3c-0.5-0.1-0.9-0.2-1.5-0.3c-1.4-0.3-2.7-0.8-4-1.2
	c-2.3-0.7-4.3-2.1-6.1-3.7c-0.8-0.7-1.6-1.4-2.2-2.2c-0.5-0.7-1.1-1.5-1.5-2.3c-0.1-0.1,0.1-0.2,0.1-0.3c-0.4-0.9-0.9-1.8-1-2.8
	c0-0.4-0.1-0.7,0-1c0.1-0.4,0-0.9,0.1-1.3c0.1-0.4,0.1-0.8,0.3-1.1c0.3-0.8,0.7-1.4,1-2.2c0.5-1.8,1.4-3.3,2.8-4.5
	c0.5-0.4,1.1-0.6,1.6-1c0.6-0.1,1.2-0.5,2-0.6c0.9-0.1,1.7-0.3,3.4-0.1c0.7,0.4,1.5,0.4,2.3,0.8c0.8,0.4,1.4,1,2.3,1.3
	c2,0.5,4.1-0.3,5.7-1.4C93.1,28.5,94.8,26.5,96.3,24.5 M94.8,22.4c-0.5-0.3-1.1-0.2-1.6-0.5c-0.1-0.2,0.1-0.4,0-0.6
	c0.9,0,1.8-0.1,2.7,0.2c0.6,0.3,0.9,0.9,0.7,1.5c-0.8,0.4-1.8-0.2-1.8-0.2C94.9,22.7,94.8,22.6,94.8,22.4 M98.3,19.8
	c0.2-0.1,0-0.4,0.4-0.3c0.8,0.3,1.2,1.1,2,1.4c2.4,0.9,4.9,1.7,7.5,2.1c1.5,0.2,2.5,0.2,4,0.1c2.6-0.1,5-0.7,7.5-1.3
	c0.9-0.2,2.3-0.8,3-1.3c1.1-0.9,2.3-1.8,3.5-2.7c0.2-0.1,0.2-0.5,0.4-0.7c0.2-0.2,0.2,0.5,0.1,0.6c-0.6,1.1-1.6,1.8-2.5,2.7
	c-0.5,0.5-0.7,1.3-1.3,1.7c-0.9,0.7-1.8,1.4-2.7,2.1c-1.2,1.1-2.9,1.2-4.5,1.8c-0.5,0.2-1.1,0.3-1.6,0.2c-2.2-0.4-4.6,0.3-7.2-0.4
	c-2.8-0.7-5.2-2.2-7.3-4.1C99.2,21.1,98.3,20.6,98.3,19.8 M91.1,17.5c0.2-0.7,0.6-1.3,1.2-1.8c1.2-1.1,4.4-2.2,6.3-1.9
	c0.7,0.1,1.4,0.2,2,0.3c0.5,0,1.8,0.6,2.3,0.8c0.8,0.3,1.5,0.8,2.3,1.2c0.9,0.4,1.8,0.7,2.8,0.9c1.8,0.5,4.2,0.7,6.1,0.5
	c0.6-0.1,1.1-0.4,1.8-0.4c0.5,0,0.9,0,1.4,0c1.2-0.2,2.5-0.3,3.6-0.7c1.3-0.5,2.6-1.2,4-1.6c0.3-0.1,0.6-0.2,0.8-0.4
	c0.1-0.1,0.2,0,0.1,0.1c-0.2,0,0,0.3-0.2,0.3c-0.7,0.3-1.1,1-1.8,1.2c-0.2,0.1-0.3,0.1-0.5,0.2c-1.1,0.8-2.3,1.5-3.3,2.5
	c-1,1-3.2,1.2-4.5,1.7c-0.8,0.3-1.6,0.3-2.5,0.5c-3,0.6-6.2-0.2-8.6-1.9c-2.3-1.6-4.8-3-7.6-3.4c-1.1-0.2-2.4-0.2-3.4,0.3
	c-0.8,0.4-1.3,1.1-1.7,1.9c0,0.1-0.4,0.1-0.4,0.1C91.1,17.8,91.1,17.7,91.1,17.5 M86.8,11.2c1-0.7,2.1-1.2,3.2-1.8
	C90.8,9,91.7,9,92.4,8.6c0.6-0.3,1.1-0.3,1.8-0.4c3.3-0.3,6.8,0.5,10,1.3c1.4,0.4,2.8,0.4,4.1,0.9c0.2,0.1,0.4,0.2,0.6,0.3
	c0.9,0.3,1.8,0.3,2.7,0.8c0.7,0.3,1.6,0.5,2.4,0.6c2.3,0.2,4.8,0,7.1,0.1c0.9,0,1.6-0.4,2.4-0.7c0.6-0.2,1.3-0.1,1.9-0.2
	c0.1,0,0.2-0.2,0.4-0.4c0.1-0.2,0.7,0.3,0.2,0.5c-0.6,0.2-1.1,0.3-1.6,0.6c-1.5,0.8-3.7,1.6-5.2,2.3c-0.6,0.3-1.2,0.1-1.9,0.3
	c-1.6,0.4-3.2,0.7-4.8,0.5c-1.1-0.1-2.1-0.2-3.1-0.6c-1.4-0.5-2.7-1-4.1-1.4c-1.3-0.4-2.3-1.2-3.6-1.5c-0.2-0.1-1.3-0.4-1.5-0.4
	c-1.8-0.3-3.7-0.6-5.5-0.7c-1.4-0.1-5.3,1.4-6.2,1.8c-0.2,0.1-0.5,0.1-0.7,0.2c-0.4,0.2-0.7,0.5-1.2,0.8c-0.2,0.1-1.5,1.3-1.6,1.4
	c-0.3,0.3-0.8,0.7-0.9,1.2c0,0.3,0.1,0.5,0.1,0.8c0,0.2-0.3,0.4-0.5,0.3c-0.2-0.1-0.1-0.3-0.1-0.5C83.8,14.4,85,12.4,86.8,11.2
	 M93.1,19.4c0,0,0.4-0.1,0.7-0.2c0.2,0.5-0.1,0.8-0.5,1.1c-1.2,1.7-2.1,3.4-2.8,5.3c-0.3,0.3-0.6,0.7-0.8,1
	c-0.8,0.3-1.6-0.3-2.3-0.4c-0.2-0.3-0.3-0.6,0-0.8c0.3,0.2,0.7,0.1,1,0.1c0.3,0.2,0.7,0.1,1,0.3c0.2-0.6,0-1.3,0.5-1.8
	c0-0.1,0-0.2,0-0.4c0.5-0.6,0.6-1.5,1.2-2.1C91.7,20.7,92.2,19.9,93.1,19.4 M86.6,19.6c0-0.1,0-0.1,0-0.2c0.2-0.3,0.4-0.1,0.6-0.1
	l0.1-0.1c0.5,0.1,1,0,1.4,0c0.6,0.2,1.2,0.3,1.7,0.9c0.1,0.3,0.1,0.6,0.1,1c-0.3,0.3-0.7,0.6-1.1,0.6c-0.3-0.5-1.2-0.6-1.1-1.3
	C87.8,20.3,87,20.2,86.6,19.6"/>
<g>
	<g>
		<path class="st2" d="M141.7,112.3c1.8,0,3.3,1.4,3.3,3.3c0,1.9-1.5,3.3-3.3,3.3c-1.8,0-3.3-1.4-3.3-3.3
			C138.3,113.7,139.9,112.3,141.7,112.3 M141.7,112.9c-1.5,0-2.7,1.2-2.7,2.7c0,1.6,1.2,2.7,2.7,2.7c1.5,0,2.7-1.2,2.7-2.7
			C144.3,114.1,143.2,112.9,141.7,112.9 M141,117.5h-0.6v-3.8h1.4c0.9,0,1.3,0.3,1.3,1.1c0,0.7-0.4,1-1,1l1.1,1.7h-0.6l-1-1.6H141
			V117.5z M141,115.4h0.7c0.7,0,0.9-0.2,0.9-0.6c0-0.4-0.2-0.6-0.8-0.6H141V115.4z"/>
		<path class="st2" d="M52.9,113.2h7c2.7,0,4.6,0.8,4.6,3c0,1.5-0.7,2-1.3,2.4c0.8,0.4,1.8,1.3,1.8,2.9c0,2.2-1.7,3.4-4.6,3.4h-7.4
			V113.2z M60,117.8c1.5,0,2.1-0.4,2.1-1.3c0-1-0.7-1.4-2.1-1.4h-4.9v2.7H60z M60.1,122.9c1.4,0,2.5-0.3,2.5-1.7
			c0-1.2-1-1.6-2.5-1.6h-4.9v3.3H60.1z"/>
		<path class="st2" d="M70.9,113.2h7c2.7,0,4.7,0.6,4.7,3.5c0,2.1-1.5,3.3-3.2,3.4l3.6,4.7h-2.8l-3.4-4.6h-3.6v4.6h-2.3V113.2z
			 M77.6,118.4c1.9,0,2.8-0.3,2.8-1.6c0-1.4-0.9-1.6-2.8-1.6h-4.4v3.3H77.6z"/>
		<polygon class="st2" points="89,113.2 99.4,113.2 99.4,115.1 91.2,115.1 91.2,117.8 98.2,117.8 98.2,119.8 91.2,119.8 91.2,122.9 
			99.6,122.9 99.6,124.8 89,124.8 		"/>
		<path class="st2" d="M109.7,113.2h2.6l5.6,11.6h-2.4l-1.2-2.7h-6.7l-1.2,2.7H104L109.7,113.2z M113.4,120.2L111,115l-2.4,5.2
			H113.4z"/>
		<path class="st2" d="M123.3,113.2h5.6c3.7,0,6.6,1.6,6.6,5.8c0,4-2.7,5.9-6.5,5.9h-5.7V113.2z M127.9,122.9c3.9,0,5.4-1.2,5.4-3.9
			c0-2.8-1.6-3.8-5.4-3.8h-2.3v7.7H127.9z"/>
	</g>
	<path class="st3" d="M172.9,80.3c-5.2,0.3-9.7,3.3-13.1,7c-1.7,1.8-3.4,3.9-4.7,6.1c-0.5,0.9-2,3.9,0.2,3.6
		c1.4-0.1,2.7-0.9,3.9-1.6c1.2-0.8,2.4-1.6,3.5-2.4c2.3-1.6,4.5-3.3,6.4-5.4c0.9-1,1.7-2.1,2.4-3.2c0.5-0.8,1-1.6,1.6-2.3
		c0.6-0.7,1.4-1.5,2.3-1.5c0.5,0,0.9,0.2,1.3,0.4c0.5,0.2,1,0.5,1.5,0.8c2.2,1.7,1.3,5.1,0.9,7.4c-0.2,1.5-0.3,3-0.1,4.5
		c0.1,1.1,0.4,3.3,1.7,4.7c0.4,0.4,0.7,0.6,1.1,0.9c0.5,0.4-0.6,0.7-0.8,0.7c-2.5,0.4-3.6-0.2-4.5-0.8c-2.7-2-3.4-5.4-4.8-8.2
		c-2.3,1.8-4.7,3.5-7.2,5.1c-1.3,0.8-2.6,1.5-3.9,2.2c-1.2,0.6-2.4,1.2-3.7,1.5c-2.3,0.6-4.7,0.1-6-2c-1.3-2-0.7-4.6-0.2-6.7
		c0.6-2.1,1.2-4.1,2.4-5.9c1.4-2.1,3.3-3.9,5.3-5.3c3.4-2.4,7.5-3.8,11.7-3.6c1.1,0.1,2.4,0.2,3.3,0.9
		C174.4,78.1,173.6,79.5,172.9,80.3"/>
	<path class="st3" d="M152.4,74.9c1,0.2,2.2,1.1,2.3,2.2c0.1,0.9-0.4,1.6-1.3,1.5c-0.9-0.1-1.7-0.5-2.6-0.7
		c-1.1-0.2-2.3,0.3-3.3,0.8c-2.2,1.1-4,2.9-5.5,4.8c-1.5,1.9-2.3,4.3-2.6,6.7c-0.2,1.5-0.3,3-0.6,4.6c-0.3,1.7-0.7,3.4-1.6,4.9
		c-0.8,1.4-2.2,2.1-3.8,1.5c-1.7-0.6-2.7-2-3-3.8c-0.2-2,0.2-4,0.7-5.9c0.5-1.9,1.2-3.7,1.7-5.6c0.7-2.5,1.1-5.3,1.2-7.9
		c0.1-0.8,0.1-1.5,0.1-2.3c0-0.5-0.1-1,0-1.5c0.1-0.5,0.6-0.3,0.9,0c0.9,0.6,1.5,1.6,2.1,2.5c0.5,0.8,1.2,1.7,1.2,2.7
		C142,76.2,147.4,73.8,152.4,74.9"/>
	<path class="st3" d="M89.5,79.9c-0.5,0.2-2.7,1.8-3.3,2.6C85,84,83.6,85.3,82.7,87c-0.8,1.5-1.6,3.3-2.3,4.8
		c-0.9,1.8-1.5,4.7-2.5,6.4c-1,1.6-2.5,2.1-4.4,1.7c-1.1-0.2-1.5-1-1.8-2c-0.4-1.3-0.5-2.7-0.3-4.1c0.3-2.8,1.5-5.5,2.4-8.1
		c0.5-1.5,1-3,1.2-4.5c0.1-1,0.1-1.7-0.7-2.3c-0.6-0.4-1.3-0.8-1.9-1.1c-0.6-0.3-1.5-0.7-1.9-1.3c-0.3-0.5,0.6-0.8,1-0.8
		c0.8-0.1,1.6,0.1,2.4,0.3c1.6,0.4,3.1,1.1,4.5,1.9c0.9,0.5,1.6,1.2,2,2.1c0.4,0.9,0.5,1.9,0.6,2.9c0.1,0.7-0.2,2.1,0,2.8
		c2.7-4.1,6.9-8.4,11.9-9.1c1.2-0.2,2.5,0,3,1.3c0.5,1.3,0.4,2.7,0,4.1c-0.4,1.5-1,3.7-1.2,4.9c-1.3,5.5-0.7,8.9,0.7,11.5
		c0.3,0.5,0.7,1.6,0.3,2.1c-0.2,0.4-0.8,0.2-1.1,0.1c-1.2-0.5-5.5-1.8-6.7-6.3c-1.2-4.8,2-12.9,2.3-13.8
		C90.3,79.8,90,79.8,89.5,79.9"/>
	<path class="st3" d="M59.7,77.8c0.6,1.9-1.1,2.7-2.6,3.3c-2.4,0.9-4.5,2.4-6.6,3.9c-2.3,1.7-4.8,3.3-6.7,5.4
		c-0.9,1.1-1.8,2.2-2.6,3.4c-0.7,1-1.4,2-1.6,3.2c2.2,0.2,4.3-0.7,6.2-1.8c2.1-1.3,4-2.9,5.9-4.5c0.9-0.8,1.7-1.5,2.6-2.3
		c0.7-0.6,1.6-1.2,2.2-2c0.6-0.8,0.9-1.7,1.3-2.5c0.5-1,1.2-1.8,2.1-2.2c2-0.9,4.4,0.2,5.3,2.1c0.6,1.1,0.5,2.2,0.2,3.3
		c-0.3,1.3-0.8,2.6-0.9,4c-0.2,1.1-0.2,2.5,0.2,3.5c0.3,0.7,0.7,1.4,1.1,2.2c0.3,0.7,2,3.4,0.7,3.9c-2.3,0.3-4.8-1.5-6.4-3
		c-1.6-1.5-3.7-3.9-3.5-6.4c-2.4,1.8-4.7,3.6-7.2,5.2c-1.3,0.8-2.6,1.5-3.9,2.1c-1.2,0.5-2.6,1.1-3.9,1.2c-1.9,0.2-3.9-0.4-5-2
		c-1.1-1.7-1.2-3.9-0.7-5.8c0.6-2.5,1.9-4.8,3.4-6.8c1.6-2.1,3.5-4,5.7-5.4c1.5-1,3.1-1.7,4.8-2.3c1.7-0.6,3.5-1.1,5.3-1.3
		C56.6,76,59.1,75.9,59.7,77.8"/>
	<path class="st3" d="M42,68.6c0.7,0.7-0.8,3.3-2.8,5c-2.6,2.3-8.5,6-16,8.3c-0.5-2.8-0.7-5.6-1-8.4c-0.1-1.2-0.2-2.4-0.3-3.6
		c0-0.4-0.1-1.8,0.3-1.9C29.1,66.9,40,66.6,42,68.6 M45.3,64.7c1.1,0.6,1.8,1.7,2.1,2.9c0.3,1.3-0.1,4.5-5.3,8.2
		c-3.7,2.5-10.4,5.6-16.9,7.8c-0.3,0.1-0.6,0.3-0.9,0.4c-0.2,0.1-0.3,0.1-0.5,0.2c-0.3,0.1-0.3,0.1-0.3,0.5c0.2,1.6,0.5,3.2,1,4.8
		c0.3,1.1,0.6,2.2,1,3.2c0.3,0.9,0.7,1.7,0.9,2.6c0.5,1.5,1.1,3.7,0,5.1c-0.6,0.8-1.7,1.1-2.6,1.3c-1.2,0.2-2.4,0-3.5-0.4
		c-2.2-0.8-3.5-2.2-4.6-4.3c-1.2-2.4-0.4-13.9,0.2-16.7c0.3-1.5,0.6-3.1,0.8-4.6c0.2-1.4,1.4-7,1.1-7.1c-0.3-0.1-3,0.4-4.4,0.9
		c-1.1,0.4-2,1.1-3,1.8c-0.9,0.6-1.9,0.4-2.9,0c-2.2-0.9-4-2.9-4.5-5.4c-0.3-1.6,1-3.2,3.2-4c1.9-0.7,3.9-1,5.9-1.2
		C21.7,59.6,38.1,60.9,45.3,64.7"/>
	<path class="st3" d="M122.3,82.7c-2.9,2.6-10.9,4.5-15,3.6c-0.4-1,1.4-2.2,2-2.7c1.3-0.9,2.7-1.8,4.2-2.4c2-0.8,4.5-0.9,6.6-0.5
		C120.8,80.9,123.5,81.7,122.3,82.7 M125.2,77.7c0.8,0.9,1.3,1.9,1.2,3.1c-0.1,1.1-0.6,2.1-1.3,2.9c-1.3,1.5-2.9,2.4-4.7,3.1
		c-4.5,1.7-9.3,2.2-14.1,2c0,1.1,0.2,2.3,1,3.1c0.7,0.7,1.7,1,2.6,1.1c2.7,0.2,5.5-0.8,7.9-1.7c2.6-0.9,5.1-2.1,7.7-3.1
		c0.7-0.3,1.5-0.6,2.3-0.6c0.9,0,0.7,1.2,0.5,1.8c-0.6,1.7-2.2,3-3.6,4.1c-1.6,1.2-3.2,2.1-4.9,3.1c-2,1.1-4,2.1-6.2,2.8
		c-2.6,0.9-5.5,1.5-8.2,0.9c-2.1-0.5-3.9-1.7-4.9-3.7c-0.9-1.8-0.9-4-0.4-6c0.7-2.5,2.3-4.8,4.1-6.6c1.7-1.8,3.7-3.5,5.9-4.7
		c2.5-1.4,5.3-2.5,8.1-3.1C120.5,75.8,123.5,75.7,125.2,77.7"/>
</g>
</svg>
