<svg id="Layer_1" data-name="Layer 1" xmlns="http://www.w3.org/2000/svg" viewBox="0 0 172.99 36.48"><defs><style>.cls-1{fill:#fbfdff;}.cls-1,.cls-2{fill-rule:evenodd;}.cls-2{fill:#fff;}</style></defs><title>payless</title><path class="cls-1" d="M112.39,36.86c0,1.33,1.23,1.47,2.22,1.59.71.08,1.33.15,1.33.65s-.5.77-1.27.77a2.15,2.15,0,0,1-1.33-.48c-.17-.15-.29-.2-.47,0l-.39.36c-.18.17-.15.26,0,.43a3.08,3.08,0,0,0,2.11.75c1.19,0,2.46-.64,2.46-1.83,0-1.35-1.24-1.49-2.23-1.6-.7-.08-1.31-.15-1.31-.63,0-.32.29-.69,1.11-.69a1.93,1.93,0,0,1,1.33.48.23.23,0,0,0,.33,0l.46-.4a.17.17,0,0,0,0-.29,3.13,3.13,0,0,0-2.08-.71c-1.32,0-2.31.71-2.31,1.65Zm10.74-1.54h-.71a.2.2,0,0,0-.22.22v1.84a.16.16,0,0,1-.16.16h-2.25a.17.17,0,0,1-.17-.16c0-.5,0-1.73,0-1.83a.2.2,0,0,0-.22-.22h-.71a.2.2,0,0,0-.22.22c0,1,0,4.9,0,5.07a.2.2,0,0,0,.22.21h.71a.2.2,0,0,0,.22-.22V38.73a.16.16,0,0,1,.16-.16H122a.16.16,0,0,1,.16.16c0,.08,0,1.76,0,1.88a.2.2,0,0,0,.22.21h.71a.2.2,0,0,0,.22-.22c0-.12,0-4.09,0-5.07a.2.2,0,0,0-.22-.21Zm4.75,5.56a2.87,2.87,0,0,0,2.91-2.83,2.83,2.83,0,0,0-2.9-2.83h-.13a2.84,2.84,0,0,0-2.92,2.84,2.87,2.87,0,0,0,2.84,2.83Zm0-1h-.15A1.75,1.75,0,0,1,126,38.05a1.79,1.79,0,1,1,3.57,0,1.76,1.76,0,0,1-1.73,1.82Zm8.55-4.55h-3.82a.2.2,0,0,0-.22.22V40.6a.2.2,0,0,0,.22.22h3.88a.2.2,0,0,0,.22-.21c0-.14,0-.49,0-.58a.2.2,0,0,0-.22-.22H133.7a.15.15,0,0,1-.16-.16V38.7a.16.16,0,0,1,.16-.16H136a.2.2,0,0,0,.22-.21v-.56a.2.2,0,0,0-.22-.22h-2.3a.15.15,0,0,1-.16-.16v-.93a.16.16,0,0,1,.16-.16h2.72a.2.2,0,0,0,.22-.21v-.57a.2.2,0,0,0-.22-.22Zm1.89,1.54c0,1.33,1.23,1.47,2.22,1.59.71.08,1.33.15,1.33.65s-.5.77-1.27.77a2.15,2.15,0,0,1-1.33-.48c-.17-.15-.29-.2-.47,0l-.39.36c-.18.17-.15.26,0,.43a3.09,3.09,0,0,0,2.11.75c1.19,0,2.46-.64,2.46-1.83,0-1.35-1.24-1.49-2.23-1.6-.7-.08-1.31-.15-1.31-.63,0-.32.29-.69,1.11-.69a1.93,1.93,0,0,1,1.33.48.23.23,0,0,0,.33,0l.46-.4a.17.17,0,0,0,0-.29,3.13,3.13,0,0,0-2.08-.71c-1.32,0-2.31.71-2.31,1.65Zm8.88,4a2.88,2.88,0,0,0,2.91-2.83,2.83,2.83,0,0,0-2.9-2.84h-.13a2.84,2.84,0,0,0-2.92,2.84A2.87,2.87,0,0,0,147,40.89Zm0-1H147a1.76,1.76,0,0,1-1.69-1.81,1.78,1.78,0,1,1,3.57,0,1.76,1.76,0,0,1-1.73,1.82Zm9-4.56h-.71a.2.2,0,0,0-.22.21v2.9c0,.89-.44,1.41-1.22,1.44h-.15c-.77,0-1.2-.56-1.2-1.44,0,0,0-2.75,0-2.89a.2.2,0,0,0-.22-.22h-.71a.2.2,0,0,0-.22.22c0,.14,0,2.92,0,2.92a2.18,2.18,0,0,0,2.34,2.43H154a2.18,2.18,0,0,0,2.37-2.43V35.54a.2.2,0,0,0-.22-.22Zm2.19,0a.2.2,0,0,0-.22.21V40.6a.2.2,0,0,0,.22.22h.71a.2.2,0,0,0,.22-.22V39.17a.16.16,0,0,1,.16-.16h.89a.28.28,0,0,1,.25.12l1,1.46a.4.4,0,0,0,.36.22h.88c.15,0,.15-.11.07-.22l-1.22-1.77.07,0a1.69,1.69,0,0,0,1.18-1.68c0-1.13-.78-1.8-2.09-1.8Zm.93,2.56v-1.4a.15.15,0,0,1,.16-.16h1.29c.67,0,1,.3,1,.84s-.39.87-1,.87h-1.31a.15.15,0,0,1-.16-.16Zm5,.06a2.41,2.41,0,0,0,0,.26,2.78,2.78,0,0,0,2.86,2.68,2.83,2.83,0,0,0,2.11-.8.19.19,0,0,0,0-.3l-.42-.41a.22.22,0,0,0-.32,0,1.92,1.92,0,0,1-1.32.5,1.82,1.82,0,0,1-.1-3.63h.23a2.06,2.06,0,0,1,1.16.47.2.2,0,0,0,.31,0l.44-.51a.19.19,0,0,0,0-.3,3,3,0,0,0-2-.66,2.81,2.81,0,0,0-2.91,2.73Zm10.54-2.64H171a.2.2,0,0,0-.22.22v5.06a.2.2,0,0,0,.22.22h3.88a.2.2,0,0,0,.22-.21V40a.2.2,0,0,0-.22-.22h-2.78a.16.16,0,0,1-.16-.16v-.95a.16.16,0,0,1,.16-.16h2.3a.2.2,0,0,0,.22-.21c0-.14,0-.48,0-.56a.2.2,0,0,0-.22-.22h-2.3a.15.15,0,0,1-.16-.16v-.92a.16.16,0,0,1,.16-.16h2.72a.2.2,0,0,0,.22-.21v-.57a.2.2,0,0,0-.22-.22Z" transform="translate(-4.48 -4.41)"/><path class="cls-1" d="M66.81,14.34C66.71,9.54,63,6,57.43,6h-12a.72.72,0,0,0-.69.7V30.32a.72.72,0,0,0,.72.7h3.29a.71.71,0,0,0,.71-.71V24.25a.59.59,0,0,1,.64-.63h7.36c5.61,0,9.27-3.56,9.38-8.35,0,0,0-.25,0-.47s0-.46,0-.46Zm-9.54,4.94H50.07a.6.6,0,0,1-.64-.63V10.87a.6.6,0,0,1,.64-.62h7.19c3.23,0,4.74,1.95,4.83,4.09,0,0,0,.43,0,.51s0,.42,0,.42c-.1,2.14-1.61,4-4.83,4Zm31-6.79a.71.71,0,0,0-.71-.7H84.76a.71.71,0,0,0-.72.7v1.66H84a7.37,7.37,0,0,0-6.25-2.87A10.41,10.41,0,0,0,67.33,21.43,10,10,0,0,0,77.51,31.57,8.13,8.13,0,0,0,84,28.71H84v1.64a.72.72,0,0,0,.71.7h2.79a.72.72,0,0,0,.72-.7V12.48ZM78,27.67a6.25,6.25,0,1,1,6.17-6.25A6.27,6.27,0,0,1,78,27.67Zm31.2-15.21a.73.73,0,0,0-.73-.72h-2.75a.73.73,0,0,0-.73.72V22.63c0,3-1.58,5-4.86,5-2.59,0-4.62-1.35-4.62-4.57V12.44a.71.71,0,0,0-.71-.7H92a.71.71,0,0,0-.71.7V22.86c0,5.4,3.57,8.63,7.94,8.63a7,7,0,0,0,5.92-2.63h.08v1c0,3.38-2.43,5-5.23,5a6.4,6.4,0,0,1-4.18-1.44,1,1,0,0,0-1.22,0l-2.28,1.38a.5.5,0,0,0-.1.84,11.7,11.7,0,0,0,8,3.13c3.65,0,9-2.58,9-8.46V12.46Zm9.22,16c-.31-.25-.54-.45-.76-.65-.83-.66-1.16-1.51-1.16-3.36V6.67a.71.71,0,0,0-.72-.7H113a.71.71,0,0,0-.71.7v18.5A6,6,0,0,0,114.18,30l.31.29c.31.27.62.53,1,.82l.47.37a.73.73,0,0,0,1-.11l1.61-1.94a.7.7,0,0,0-.11-1Zm21.69-6.71c-.47-7.41-5.84-10.46-9.92-10.46a10.17,10.17,0,1,0,.27,20.32A11.19,11.19,0,0,0,138,28.38l.45-.44c.16-.16.34-.38.34-.38a.52.52,0,0,0-.15-.84l-2.18-1.22a.92.92,0,0,0-1.16.14l-.26.26a6.55,6.55,0,0,1-4.72,2,5.84,5.84,0,0,1-5.82-4.64.37.37,0,0,1,.05-.31.4.4,0,0,1,.31-.1h14.52a.72.72,0,0,0,.71-.7s0-.32,0-.45Zm-4.66-2.4a.28.28,0,0,1-.25.13H124.91a.35.35,0,0,1-.28-.1.34.34,0,0,1,0-.29,5.62,5.62,0,0,1,5.51-4.11A5.52,5.52,0,0,1,135.48,19c0,.14.06.2,0,.3Zm18.12.6-4.27-.8c-1.63-.28-2.57-.88-2.57-2,0-1.56,1.79-2.44,3.62-2.44a7.5,7.5,0,0,1,3.88,1.16h0l.86.52a.87.87,0,0,0,1.07-.18l1.45-1.73a.6.6,0,0,0-.15-.92l-.14-.1a12.62,12.62,0,0,0-7.09-2.19c-4.93,0-7.74,3-7.74,6.31,0,2.75,1.55,4.51,7.09,5.51l2.4.44c1.55.28,2.56,1,2.56,2.24,0,1.08-1.46,2.44-3.91,2.44a8.9,8.9,0,0,1-5.2-1.94l-.49-.36a.88.88,0,0,0-1.09.07l-1.83,1.8a.58.58,0,0,0,.08.91l.4.3a13.06,13.06,0,0,0,7.92,2.65c6,0,8.35-3.67,8.35-6.51s-1.71-4.51-5.21-5.15Zm18.65,0-4.27-.8c-1.63-.28-2.57-.88-2.57-2,0-1.56,1.79-2.44,3.62-2.44a7.5,7.5,0,0,1,3.88,1.16h0l.86.52a.87.87,0,0,0,1.07-.18l1.45-1.73a.6.6,0,0,0-.15-.92l-.14-.1a12.62,12.62,0,0,0-7.09-2.19c-4.93,0-7.73,3-7.73,6.31,0,2.75,1.55,4.51,7.08,5.51l2.4.44c1.55.28,2.57,1,2.57,2.24,0,1.08-1.47,2.44-3.91,2.44a8.9,8.9,0,0,1-5.2-1.94l-.49-.36a.88.88,0,0,0-1.09.07l-1.83,1.8a.58.58,0,0,0,.08.91l.4.3a13.06,13.06,0,0,0,7.92,2.65c6,0,8.35-3.67,8.35-6.51s-1.71-4.51-5.21-5.15Z" transform="translate(-4.48 -4.41)"/><path class="cls-2" d="M20.93,4.43A17,17,0,0,0,13.46,6.5a11.46,11.46,0,0,1,12.06.83,13.18,13.18,0,0,1-2.74,25.92,13.41,13.41,0,0,1-4.91-.7c-.48-.17-1.08-.43-1.42-.59s-1-.48-1.16-.55a1.35,1.35,0,0,0-1.32.08,4.66,4.66,0,0,0-.52.47l-2.74,2.88.52.42A17.62,17.62,0,0,0,14.12,37,17.19,17.19,0,1,0,20.93,4.43Z" transform="translate(-4.48 -4.41)"/><path class="cls-2" d="M18.82,5.17A11.46,11.46,0,0,0,12.59,7,17.18,17.18,0,0,0,8.26,32.36c.36.45.66.79,1,1.19,0,0,2.45-2.54,2.74-2.86a1.29,1.29,0,0,0,.17-1.88c-.16-.27-.39-.6-.57-.85A10.48,10.48,0,0,1,9.92,24a11.52,11.52,0,1,0,8.9-18.85Zm0,18a6.45,6.45,0,1,1,6.45-6.45,6.45,6.45,0,0,1-6.45,6.45Z" transform="translate(-4.48 -4.41)"/></svg>