<svg id="Layer_1" data-name="Layer 1" xmlns="http://www.w3.org/2000/svg" viewBox="0 0 185.53 83.83"><defs><style>.cls-1,.cls-3{fill:#fff;}.cls-2{fill:#231f20;}.cls-3{stroke:#fff;stroke-linecap:round;stroke-linejoin:round;stroke-width:0;}</style></defs><title>Pep_Boys_Auto</title><path class="cls-1" d="M30.29,51.41l-5.1-5.33a13.5,13.5,0,0,1-2.51-3.21c-1.14-2.31-.87-5-.58-7.59.1-.83.45-1.9,1.28-1.88.57,0,1,.57,1.5.78.92.36,1.93-.47,2.2-1.42A7.51,7.51,0,0,0,27,29.83a14.81,14.81,0,0,1,4.1-11.52A23.15,23.15,0,0,1,41.9,12.09a23.54,23.54,0,0,1,9.9-.81c9.26,1.41,16.53,10.86,15.52,20.18a6.34,6.34,0,0,1,5.75,5.29c1.07,1.11,3.09.57,4-.66a8.07,8.07,0,0,0,1.15-4.41L79.59,10l27.92-.1c2,0,4.4.12,5.67,1.73a6.59,6.59,0,0,1,1.06,2.62,92.15,92.15,0,0,1,2.51,23.09c3.28,0,7.4-.51,8.43-3.63a7.87,7.87,0,0,0,.18-3c-.41-5.79-.28-12.74,4.57-15.93,2-1.3,4.4-1.69,6.74-2.05,4.87-.75,9.83-1.49,14.7-.74s9.72,3.26,12.07,7.58c2.22,4.07,1.93,9,1.57,13.62,1.12-1.47,3.74-.36,4.24,1.42s-.34,3.63-1.17,5.29l-3.74,7.51c-.87,1.74-1.73,3.48-2.73,5.15a39.34,39.34,0,0,1-5.28,7A14.07,14.07,0,0,1,151,63.36c-3.56,1.23-7.48,0-10.91-1.56C134,59,128,54.7,126.12,48.31c-.63-2.09-1.19-4.76-3.32-5.24-2.68,4-5,8.21-7.66,12.2-4,6-9.53,11.76-16.67,12.36-6.11.51-12-3.07-15.87-7.82S76.18,48.95,71,45.67a37.12,37.12,0,0,0-9.83,8.58,36.44,36.44,0,0,1-4.85,5.63,18.12,18.12,0,0,1-7.22,3.32c-2.21.56-4.3,1.43-6.27,0C38.17,59.93,34.22,55.51,30.29,51.41Z" transform="translate(-2.43 -1.83)"/><path class="cls-2" d="M45.74,55.22c1.51.69,7.3.81,7.51-3.25-2.15,2-3.22-.5-5-2.5a4.05,4.05,0,0,0,.36-3.5c-3.12,3.82-6.62,2.09-7.23-.25,0,0-1.72,2.06.07,3a29,29,0,0,1-1.79,2.75c-.86,1.12.07,1.56-2,.94,0,0,1,5.19,8.09,2.81" transform="translate(-2.43 -1.83)"/><path class="cls-2" d="M42.16,57.64s3.37,5.69,8.05-.23c0,0-5.17,1.33-8.05.23" transform="translate(-2.43 -1.83)"/><path class="cls-2" d="M27.83,49.92c4.65,8.87,7.42,6.95,9.05,10.31A10.11,10.11,0,0,0,46,66c4.34.06,10.3-2.83,12.45-5.78a70.15,70.15,0,0,1,4.83-5.83,27.41,27.41,0,0,0,2.4-3.54c3.17.48,4.62-1.12,5.51-3.15A116.6,116.6,0,0,0,87.89,66.8a6.89,6.89,0,0,0,5.76,2.05c1.27,0,2.43,0,3.47,0s2.2,0,3.47,0a6.9,6.9,0,0,0,5.76-2.05c8.43-7.58,16.16-17.78,17.58-20.49,0-.09.08-.18.12-.27,0,.4,0,.82,0,1.31,0,5.6,5.92,11.4,8.94,12.92s9.83,6.05,14.08,5.75a15.3,15.3,0,0,0,10.44-5.45c7.63-9.05,8.47-15.61,9.27-16,1.64-.73,1.77-4.61,3.14-8.25s-.31-6.21-3.33-4.54l.3-2a71.53,71.53,0,0,0,.15-9.08c-.3-3.18-3.48-6.21-5.14-8.78s-3.22-.85-6.22-4.12C151.71,5.11,140.18,6.39,135,9c0,0-7.32,4.23-9.29,7.41S124,30.72,123.57,31.93c-1.16-.7-2.81,1.74-3.18,2.86a1.52,1.52,0,0,0-.05.31c-1.06-.06-1.71.59-2,.27-.78-.8.47-15.49-1.41-26.12-.46-2.56-9.14-6-11.34-6.81-4.11-1.52-8.07.19-8.44.82-.38-.63-4.33-2.34-8.45-.82-2.2.81-10.88,4.25-11.33,6.81-1.9,10.63-.63,25.32-1.42,26.12-.37.37-1.2-.58-2.61-.17a5.42,5.42,0,0,0-.2-3.23c-1.58-3-3.58-3.17-4.22-2.43,1.73-7.87-8.58-25.17-27.76-22-5.41.9-6.53,2.65-8.4,3.85s-1.4.72-3.5,3.13-2.57,3.85-3.5,7.94a26.75,26.75,0,0,0,0,9.15s-6.81-3.32-5.6,3.85c-.7,8.18,3.52,14.59,7.7,14.45M167.94,34.29c.08,1.73-1.55,7.25-2,6.19a22.53,22.53,0,0,1-.8-4c1.22-1.21,2.72-3.66,2.8-2.2m-40.49,1.62c-1.45-2.42-1.32-4.77-1.17-7.88s.88-7.69,2.16-9.26,5.35-2.56,7-2.57,11.35,3.33,20.89-2.57c-1.06,2.42,3.4,6,5.15,7.26,4.07,2.93,1.18,16.47,1.34,17.68s2.26.8-.12,7.3c-5.16,14-8.58,11.77-10.14,14.08-1.89,2.8-3.49,2.61-7.13,2.61s-3.57-3-7-3.57c-9.15-1.66-12-12.49-11.34-16.77.36-2.42-2-1.58-2.11-3.94-.21-3.67,2.63-1.25,2.48-2.37M80,42.78c-1.1-6.69-1-8.91-.57-12.26.17-1.21,1.4-4,1.47-7.13.12-5.47-1.6-6.41.43-10.63.54-1.11,8.22,4.9,15.78.53,2.69,3.66,15.24-1.41,15.77-.3,2,4.22.31,4.94.43,10.41.07,3.12,1.3,5.92,1.47,7.13.47,3.35.65,5-.56,12.26,3.47-5.11,8.49-5.16,6.76-.37s-1.72,6.25-3.29,7.2-2.74-3-2.74-3,.15,8.54-2.32,10.56-6.51,8.64-9.36,8c-1.37-.32-3.78.68-6.16.95-2.38-.27-4.87-1.49-6.17-.95-2.49,1-7-6-9.37-8s-2.32-10.56-2.32-10.56-1.16,3.91-2.73,3-1.56-2.42-3.3-7.2,3.29-4.74,6.76.37M27.65,27.29a18.18,18.18,0,0,1,3.09-5,5.77,5.77,0,0,0,2.51-5,80.72,80.72,0,0,0,9-.75c2.29-.52,9.15-3.29,10.21-5.09C53.81,11.54,65,24.64,65,32.29c0,0,0,.87-1.46,1.6-5.08-8.26-13.53-6.69-16.9,1.76l-3.36.16a12.43,12.43,0,0,0-3.52-5.09c-2.43-1.92-8.36-3-11.58,2,0,0-.94-4.14-.52-5.47M55.43,43c-6,0-7.45-10.56-.36-10.56,7.3,0,7.66,10.56.36,10.56m-20.74.1c-7.52.05-5.6-10.51.19-10.51,4.58,0,8.54,10.45-.19,10.51M23.77,34.81A23.72,23.72,0,0,1,27,36.93c-.46,13.28,15.26,10.34,16.38,2.94a27.93,27.93,0,0,1,3.73,0c2.7,9.56,14.1,8.52,16.46,1.06.15.15,2.91-2.43,4.15-4.21,3.11-4.45.72,4.73,0,7.6s-1,1.26-1.86,1-3,10.79-14.49,16.26c-5.81,2.77-7.7,1-9.56-.17A48.28,48.28,0,0,1,35.35,56c-1.29-1.33-3.29-2.66-4.42-5.11-2.73-5.92-2.78-3.65-4.8-5-2.25-1.67-4.67-7.49-2.37-11" transform="translate(-2.43 -1.83)"/><path class="cls-2" d="M138,44.45a19.37,19.37,0,0,1-2.82.83c-1,.22-1.71-.18-2.5.41a2.44,2.44,0,0,0-.88,1.18,2.71,2.71,0,0,0,.83,3.26,2.8,2.8,0,0,1,1-2.48c.82-.73,1.83-.07,2.73-.71a3.59,3.59,0,0,0,1.63-2.5" transform="translate(-2.43 -1.83)"/><path class="cls-2" d="M157.45,45.38a8.38,8.38,0,0,1-2.32-.37,6.06,6.06,0,0,1-1.23-.52,2.44,2.44,0,0,0,.73,1.5c.52.55,1.09.47,1.76.84s1.07.35,1.46.89a2.05,2.05,0,0,1,.35,2,4.34,4.34,0,0,0,1.68-2.11,4.24,4.24,0,0,0,.38-2.26,12.79,12.79,0,0,1-2.82.07" transform="translate(-2.43 -1.83)"/><path class="cls-2" d="M129.63,34.73a1.88,1.88,0,0,0,1.41.63,2.12,2.12,0,0,1,.45-1.74c.82-1.09,2.11-.35,3.48-.38a17.22,17.22,0,0,1,4.81.51,16.43,16.43,0,0,0-3.61.7,15.89,15.89,0,0,0-2.87,1.1l-1.4-.83a2.71,2.71,0,0,0-.27,1.89,2.64,2.64,0,0,0,.68,1.44,6.85,6.85,0,0,1,4.7-1.61,6.74,6.74,0,0,1,3.6.87,6.84,6.84,0,0,1,1.24-3c.59-.87,1.35-1,1.86-1.94a4.64,4.64,0,0,0,.67-2.06l-2.54,1.06s-5.71-.84-8.55-1.67c-.68-.17-2,3.89-4.24,3.31.69.18.09,1.21.59,1.72" transform="translate(-2.43 -1.83)"/><path class="cls-2" d="M145.89,47.1a6.3,6.3,0,0,1-1.72.42c-.13,1.09,2.31,2.07,4.19,1.06,1.22-.66,3.19-1.16,3.6-2.87.13-.57.13-1.47-.45-1.43s-.5,1.33-1.38.8c-1.73-1-.5-3.68-.49-4.72,0-1.35-1-2.06-.71-3.38a3.71,3.71,0,0,1,.65-1.55,1.25,1.25,0,0,0,.59,1.24c.56.37,1-.1,1.71-.16a14.5,14.5,0,0,1,3.28-.29,7.7,7.7,0,0,1,4,1.41,2.09,2.09,0,0,0-.2-2.32c-.26-.35-.42-.65-.85-.71s-.6.35-1,.47c-1.41.39-2.16-.75-3.57-1.1-.72-.18-1.13-.26-1.84-.39a11.19,11.19,0,0,1,4.13-.68,7.28,7.28,0,0,1,3.82.58,7.36,7.36,0,0,1,1.12.72c.3.22.39.56.76.57.65,0,.38-1,.23-1.65s-.55-.94-1-1.42a5.09,5.09,0,0,0-2.58-1.45c-1.79-.47-2.86.54-4.71.74a13.09,13.09,0,0,1-3.36.22,7.94,7.94,0,0,1-3-.88,1.76,1.76,0,0,0,.18,1.68c.26.42.77.34,1,.78s-.56,2.81-.69,3.62c-.73,4.47,1.86,8.08.27,9.66a4.47,4.47,0,0,1-1.9,1" transform="translate(-2.43 -1.83)"/><polygon class="cls-2" points="140.72 43.93 139.32 43.69 138.03 43.45 138.83 44.54 140.31 44.39 140.72 43.93"/><path class="cls-2" d="M156,48.6c-4,3.09-18.52,4.31-18.52,1.24,0-.32.35-.55.19-.83s-.64-.2-1-.13c-.77.14-1.09.71-1.4,1.37s-.5,1-.18,1.45a1.08,1.08,0,0,0,.92.52,15,15,0,0,1,2.12,0c2.42.27,4.69.67,5.88.81,1,.11,3.33.6,4,.57,1.26-.06,3.15-1.77,7-1.33.74.09,2.48-3,1.06-3.72" transform="translate(-2.43 -1.83)"/><polygon class="cls-2" points="140.76 54.74 139.48 55.65 141.91 56.59 145.74 56.5 147.32 56 147.4 54.97 144.17 54.4 140.76 54.74"/><path class="cls-2" d="M81.91,34.28c2-.14,2.66-2,3.6-2.58s4.47,2.7,5.84,2.14c3.33-1.36,4.73.94,4.73.94s0-2.86-2.06-3.27c-3.44-.67-4.72-2.19-5.83-2.19s-5.82.58-5.82.58c-.94,1.46-2.52,4.52-.47,4.37" transform="translate(-2.43 -1.83)"/><path class="cls-2" d="M90.9,37.65c1.08-.25,1,.86,1.82,1.42,0,0,.75-2.61.55-3s-1.84-1-3.09-.9-4,.88-5.1,1.13-.15,1.67.69,2.18,3.12-.32,5.12-.8" transform="translate(-2.43 -1.83)"/><path class="cls-2" d="M102.89,33.84c1.37.57,4.9-2.72,5.84-2.14s1.56,2.43,3.61,2.58.47-2.91-.48-4.37c0,0-4.72-.58-5.83-.58s-2.38,1.52-5.82,2.19c-2.07.4-2.06,3.27-2.06,3.27a4.11,4.11,0,0,1,4.73-.94" transform="translate(-2.43 -1.83)"/><path class="cls-2" d="M104,35.13c-1.25-.11-2.89.48-3.09.9s.61,3,.61,3c.63-.8.78-1.72,1.76-1.41,2,.61,4.28,1.3,5.13.79s1.77-1.93.69-2.18-3.84-1-5.09-1.13" transform="translate(-2.43 -1.83)"/><path class="cls-2" d="M97.13,58c-2.2-.05-4.46-.09-5.52,0,0,0,1.72,1.82,5.52,1.92h0c3.8-.1,5.52-1.92,5.52-1.92-1.06,0-3.33,0-5.52,0" transform="translate(-2.43 -1.83)"/><path class="cls-2" d="M90.2,47.93a6.54,6.54,0,0,1-4.59.63,2.55,2.55,0,0,1-1.84-1.71s.08,7,1,5.21c.86-1.66.71-2,1.8-1.78a.92.92,0,0,0,.12.29c.4.71,1.13,2,1.48,2.67.7,1.26,5.79,2.38,7.82,2.24-.83-1.38-5.27-.89-7.25-4.26l0,0a9.26,9.26,0,0,0,2.7,1.29c2.67.38,5.7-1.33,5.7-1.33l0,0,0,0s3,1.71,5.71,1.33a9.39,9.39,0,0,0,2.7-1.29l0,0c-2,3.38-6.42,2.88-7.25,4.26,2,.13,7.11-1,7.81-2.24.35-.64,1.07-2,1.48-2.67a1,1,0,0,0,.11-.29c1.09-.22.94.12,1.81,1.78.95,1.81,1-5.21,1-5.21a2.54,2.54,0,0,1-1.84,1.71,6.54,6.54,0,0,1-4.59-.63,3.19,3.19,0,0,1-1.78-1.66c-1.9,0-3.2,2.71-5.19,2.71-1.84,0-3.46-2.71-5.19-2.71a3.18,3.18,0,0,1-1.78,1.66" transform="translate(-2.43 -1.83)"/><line class="cls-3" x1="166.88" y1="83.04" x2="166.88" y2="83.04"/><path class="cls-1" d="M164.51,74c-2.86,0-4.32.48-5.54,1.23a7,7,0,0,0-3.11,4.6c-.7,3.31.76,5.83,6.17,5.83a9.94,9.94,0,0,0,6.37-1.92,6.6,6.6,0,0,0,2.27-3.91c.7-3.31-.76-5.83-6.17-5.83m1.41,5.83c-.48,2.27-1.82,3.31-3.36,3.31s-2.43-1-1.95-3.31,1.83-3.31,3.36-3.31,2.43,1,1.95,3.31" transform="translate(-2.43 -1.83)"/><polygon class="cls-1" points="154.55 72.46 142.87 72.46 142.3 75.16 145.8 75.16 144.19 83.54 148.82 83.54 150.44 75.16 154.03 75.16 154.55 72.46"/><path class="cls-1" d="M138.88,80.37c-.45,2.12-1.32,2.78-2.72,2.78s-2-.66-1.54-2.78l1.28-6.08h-4.48L130,80.77c-.37,1.75-.19,2.49.37,3.24.86,1.17,2.68,1.66,5.17,1.66s4.51-.49,5.86-1.66a5,5,0,0,0,1.74-3.24l1.36-6.48h-4.38Z" transform="translate(-2.43 -1.83)"/><path class="cls-1" d="M120.64,74.29l-8,11.08h4.54l1.24-1.84h5.68l.42,1.84h5.11l-3.27-11.08Zm-.54,6.82,2.6-3.87.89,3.87Z" transform="translate(-2.43 -1.83)"/><path class="cls-1" d="M66.79,74.31H58.88L56.53,85.38h8.16c2.22,0,4.7-.28,5.24-2.85a2,2,0,0,0-1.63-2.62,4.33,4.33,0,0,0-.85-.13l.75-.24a3.23,3.23,0,0,0,2.39-2.35c.29-1.84-.76-2.88-3.8-2.88m-1.33,7.77c-.2.92-.86,1.33-2.48,1.33H61.61l.57-2.67h1.38c1.61,0,2.11.41,1.91,1.33M66,77.57c-.16.74-.68,1.21-2,1.21H62.59l.51-2.42h1.37c1.46,0,1.7.43,1.53,1.21" transform="translate(-2.43 -1.83)"/><path class="cls-1" d="M79.5,74c-2.85,0-4.32.48-5.54,1.23a7,7,0,0,0-3.11,4.6c-.7,3.31.75,5.83,6.17,5.83a10,10,0,0,0,6.38-1.92,6.6,6.6,0,0,0,2.27-3.91c.7-3.31-.76-5.83-6.17-5.83m1.41,5.83c-.49,2.27-1.82,3.31-3.36,3.31s-2.44-1-2-3.31,1.83-3.31,3.36-3.31,2.43,1,1.95,3.31" transform="translate(-2.43 -1.83)"/><polygon class="cls-1" points="93.5 72.47 90.09 77.04 88.76 72.47 82.94 72.47 86.72 80.23 86.02 83.54 90.68 83.54 91.39 80.23 98.47 72.47 93.5 72.47"/><path class="cls-1" d="M29,74.3h-7.9L18.75,85.38h4.67l.75-3.56h3.65c2.33,0,4.33-1,4.91-3.67.61-2.88-1.05-3.85-3.72-3.85M28.19,78c-.23,1.09-.91,1.46-2.56,1.46h-.95l.6-2.85h1.41c1.33,0,1.69.48,1.5,1.39" transform="translate(-2.43 -1.83)"/><path class="cls-1" d="M53.61,74.3h-7.9L43.35,85.38H48l.76-3.56h3.65c2.33,0,4.33-1,4.9-3.67.61-2.88-1.05-3.85-3.72-3.85M52.78,78c-.23,1.09-.91,1.46-2.56,1.46h-.95l.6-2.85h1.41c1.33,0,1.69.48,1.5,1.39" transform="translate(-2.43 -1.83)"/><path class="cls-1" d="M112.7,77.6a2.44,2.44,0,0,0-.79-2.65c-.82-.61-2.29-.94-4.64-.94a12.57,12.57,0,0,0-5.17.85,3.69,3.69,0,0,0-2.23,2.67,2.15,2.15,0,0,0,.37,1.93c1.21,1.3,6.39,1.83,6.87,2.53a.63.63,0,0,1,.09.51c-.19.89-1.28,1.12-2.25,1.12a1.5,1.5,0,0,1-1.24-.45,1.65,1.65,0,0,1-.14-1.35H98.81c-.17,1-.28,2,.41,2.69s2.17,1.15,5.17,1.15a12.65,12.65,0,0,0,5.59-1,3.74,3.74,0,0,0,2.15-2.62A2.14,2.14,0,0,0,111.7,80c-1.19-1.32-6.21-1.81-6.79-2.5a.6.6,0,0,1-.09-.51c.12-.57.72-.94,1.7-.94a2,2,0,0,1,1.3.31,1.19,1.19,0,0,1,.3,1.23Z" transform="translate(-2.43 -1.83)"/><polygon class="cls-1" points="40.67 79.17 41.16 76.84 35.44 76.84 35.88 74.8 42.01 74.8 42.51 72.47 31.86 72.47 29.51 83.54 40.13 83.54 40.62 81.21 34.51 81.21 34.95 79.17 40.67 79.17"/><polygon class="cls-1" points="0 80.59 14.56 80.59 14.97 78.67 0.41 78.67 0 80.59"/><polygon class="cls-1" points="0.68 77.41 15.24 77.41 15.65 75.49 1.08 75.49 0.68 77.41"/><path class="cls-1" d="M172.29,82.42h14.58l.41-1.91H172.93a10.29,10.29,0,0,1-.64,1.91" transform="translate(-2.43 -1.83)"/><path class="cls-1" d="M173.15,79.24h14.4l.41-1.92H173.11a7.93,7.93,0,0,1,0,1.92" transform="translate(-2.43 -1.83)"/></svg>