<?xml version="1.0" encoding="utf-8"?>
<!-- Generator: Adobe Illustrator 21.0.2, SVG Export Plug-In . SVG Version: 6.00 Build 0)  -->
<svg version="1.1" id="smart_logo" xmlns="http://www.w3.org/2000/svg" xmlns:xlink="http://www.w3.org/1999/xlink" x="0px" y="0px"
	 viewBox="0 0 550.7 148.7" style="enable-background:new 0 0 550.7 148.7;" xml:space="preserve">
<style type="text/css">
	.st0{fill:#FFFFFF;}
	.st1{fill:#006BB6;}
	.st2{fill:#E03A3E;}
</style>
<g>
	<path class="st0" d="M43.5,79c1.4,0.8,1.6,2,1.6,2.9c0,0.2,0,0.4,0,0.5c-0.1,1.3-0.4,2.3-0.8,2.6c-0.2,0.1-0.6,0.3-1.1,0.3
		C43.3,82.9,43.4,81.8,43.5,79z"/>
	<path class="st0" d="M453.8,74.8c1.6,0.7,1.8,2.1,1.8,3c0,0.1,0,0.2,0,0.2c0,1.3-0.3,2.2-0.7,2.6c-0.2,0.2-0.7,0.3-1.2,0.4
		C453.7,78.5,453.7,77.5,453.8,74.8z"/>
	<path d="M381.1,96.3c1.6-6.2,3.3-12.7,5-18.9c1.9,6.2,3.8,12.4,5.7,18.6C380.9,96.5,380.9,96.3,381.1,96.3z"/>
	<path class="st0" d="M230.4,23.7c-19.8,7.5-30.5,25.3-34.5,36.2c-4.1-10.2-16.3-32.5-41-44C126.3,2.5,82,16,65.1,33.8
		c38-10.6,70.7-7.2,96.1,8.2c11.1,6.7,19,14.4,23.8,19.8c-17.9,0.7-34,0.5-50.4-0.6l-4.3-0.3l0,0.1l-2.1-0.1
		c-21-1.1-44.5-4.3-47.1-4.7l-4.5-0.6l-0.2,4.6l-0.2,6.4C69.8,53.9,55.3,51,49.5,49.9c-0.1,0-36.1-8.3-36.1-8.3l-0.2,4.9l-3.9,80.9
		l3.3,0.8c7.3,1.8,15.2,3.6,23.6,4.9l4.6,0.7c0,0,0.7-16.5,0.9-22.4c1.8,0.3,4,0.6,4,0.6c9.6,1.3,17.8-0.5,23.6-5.3
		c2.3-1.9,4.2-4.2,5.7-6.8l-1.4,37.9l3.8,0.4c15.7,1.6,33.8,3.4,49.3,3.6l4.1,0.1l0.1-4.1c0.1-6.1,0.4-16.3,0.4-17.4l0.1-4.6
		c-4.4,0-13.2-0.3-17.7-0.6c0,0-2.4-0.1-4.8-0.3c0-1.2,0-1.7,0-2.3c2,0.1,4.1,0.2,4.1,0.2c4.1,0.3,8.4,0.6,12.6,0.6l4.1,0
		c0,0,0.5-23.8,0.5-23.8c-1.2,0.1-20.7-1.4-20.7-1.4l0.1-2.3c0,0,32.2,2.6,33.1,2.6c-0.2,7-1.2,54-1.2,54l3.9,0.3
		c7.4,0.6,18.1,1.1,27.4,0.2l3.7-0.3c0,0,0.7-46,0.8-52.8c0.7,0,1.4,0,2.2-0.1l11.6-0.4l-0.1-3.9l0.2-17.7c0,0,5.5,13,5.1,15.4
		c-0.2,1.4-0.3,2.9-0.3,4.4c0,0.1,0,0.1,0,0.2c0,6.8,2.7,12.6,7.5,16.8c-0.3,0.8-6,14.1-6,14.1l-6,13.9l3.4,1.8
		c9,4.7,20.5,7.4,30.7,7.3c13.7-0.1,28.1-6.6,34.2-18.8l-1.7,15.4l5.4-0.9c6-1,20.8-3.4,25.2-4l3.3-0.4c0,0,0.7-9,1-13.1
		c0,0.1,4.9,12.1,4.9,12.1l16.6-2.6l0.9-2.2c0,0,2.1-5.5,3.7-9.5c0.2,3.4,0.6,11.2,0.6,11.2l4.3-0.5c8.7-1,15.6-1.5,24.6-2l4.3-0.3
		l0,0l9.2-0.3c4.1-0.2,8.3-0.3,12.4-0.3l3.2,0c0,0,1.9-7.3,2.1-8.1c3.2-0.1,11.4-0.3,11.4-0.3s0-0.1,0-0.1c0.9,0,2-0.1,3.2-0.1
		c0.5,1.7,2.4,7.6,2.4,7.6l3,0.1l9.2,0c4,0,8.2-0.1,12.3,0.2l5.9,0.3l-0.1-0.5c7.9,0.3,16.1,0.9,21.8,1.3l4.4,0.4
		c0,0,0.1-6.9,0.1-9.5c2.6,4.2,6.4,10.5,6.4,10.5l2.1,0.2c9,0.8,18.8,2,29.3,3.5l8.3,1.2l0,0l3.6,0.5c11.2,1.5,20.3,3.1,24.7,3.9
		l4.9,1l0.1-4.9c0.1-9.1,0.4-17.4,0.7-25.4c0.2-6.6,0.5-13.5,0.6-20.8c3.4,0.6,13.6,2.3,13.6,2.3l0.1-4.7l0.4-26l-3.4-0.7
		c-17-3.4-35-5.8-53.4-7.1l-4.4-0.3l-0.1,4.4l-0.1,8.1c-5.5-11.2-17.1-16.3-28.1-17.2c-10.3-0.8-21.1-1.4-32.1-1.7l-4.2-0.1l0,4.2
		l-0.7,59.3c-3-9.8-6-19.4-9-28.8l-10.9-35.1l-3,0c-9.1,0-17,0.2-25.4,0.5l-3,0.1l-0.8,2.9c-3.2,11.7-6.7,24.1-10,36.1
		c-2.6,9.3-5.3,18.8-7.9,28.1c-0.8-8.4-1.5-16.9-2.3-25.3c-1-12-2.1-24.3-3.3-36.1l-0.4-4.1l-4.1,0.4l-25.4,2.3l-0.9,2.4
		c-2.2,5.6-4.3,11.9-6.5,18c-0.8,2.5-1.7,4.9-2.6,7.4c-0.7-2-1.5-4-2.2-5.9c-2-5.5-4.1-11.3-6.2-16.5l-1.2-3.1L280.4,53
		c-4.1,0.7-8.8,1.4-9.7,1.5l-3.5,0.1l-0.5,3.5l-4.9,44.7c-1.6-9.1-10.2-13.5-10.2-13.5l10-26.3l-3.6-1.6c-9.6-4.1-16.9-5.8-25.4-5.7
		c-8.2,0.1-16.4,2.4-23,6.7c5.5-6.3,14.6-15.3,29.7-18.2C229,38.2,230.4,23.7,230.4,23.7z M499.9,103.4c-0.2,7.9-0.4,16.1-0.6,25.3
		l0,2.4l-4.3-6.4c-4.1-6.1-7.8-11.5-11.8-17.2c0,0-1.8-2.6-3.5-5.1c6.1-4.5,9.5-11.8,10-21.8l0.4,0c2.4,0.2,5.1,0.6,7.8,0.9
		c0,0,1.3,0.2,2.5,0.3C500.3,89.5,500.1,96.6,499.9,103.4z"/>
	<path class="st1" d="M74,29.4C153.5,5.1,193.7,66,193.7,66S168.5-19,74,29.4z"/>
	<path class="st1" d="M227.7,32.5c-0.1-0.3,0-2.5,0-2.9c-29.1,14.8-31.4,45.6-31.4,45.6s10.8-25.2,36.3-32.8
		C229.8,39.5,228.7,38,227.7,32.5z"/>
	<g>
		<circle class="st0" cx="256.9" cy="26.1" r="22.7"/>
		<path class="st2" d="M275.5,26.6c-0.1,10.3-8.6,18.5-18.9,18.4c-10.3-0.1-18.5-8.6-18.4-18.9c0.1-10.3,8.6-18.5,18.9-18.4
			C267.4,7.9,275.6,16.3,275.5,26.6z"/>
		<path class="st0" d="M243.8,26.3c4.3-7.4,11.5-11.8,20-11.7c0.1,0,0.2,0.1,0.3,0.1c-1.3-1.1-2.7-1.9-4.4-2.4
			c-6.6-1.9-13.5,2.2-15.5,9.1c-0.5,1.7-0.6,3.5-0.5,5.2C243.8,26.5,243.8,26.4,243.8,26.3z"/>
	</g>
	<path class="st2" d="M128,65c0,0-0.5,12-0.5,18.1c-3,0.1-16.2-1.2-22-1.5c0,3.2-0.3,6.6-0.4,9.8c6.9,0.3,14.1,1.3,21.1,1.3
		c-0.1,5.8-0.4,10.9-0.5,16.7c-6.9-0.1-13.9-0.8-20.8-1.1c0,3.5-0.1,7.1-0.1,10.6c7.5,0.3,15,1.1,22.4,1.2
		c-0.1-0.3-0.5,17.7-0.5,17.7c-14.8-0.2-32.3-1.9-48.9-3.6l2.7-73.9C87.5,61.2,109.1,64,128,65z"/>
	<path class="st2" d="M134.3,65.3l-0.7,19.3c7,0.5,13.2,0.7,13.2,0.7l-1.2,53.6c8.1,0.6,18.2,1,26.7,0.2l0.8-53.1
		c0,0,11.8-0.3,13.7-0.4c0.1-7.1,0.1-12.6,0.2-19.7C169.3,66.5,152.2,66.5,134.3,65.3z"/>
	<path class="st1" d="M490.7,54.5c-0.1,7.5-0.2,14.4-0.3,22c4.5,0.3,9.6,1.3,14.2,1.8c-0.2,18.3-0.9,32.2-1.1,50.5
		c12.5,1.7,21.5,3.3,24.9,4c0.2-18.3,1.1-32.7,1.4-51c0-0.1,13.3,2.3,13.5,2.5c0.1-7.5,0.2-15.1,0.3-22.6
		C526,58,508.3,55.8,490.7,54.5z"/>
	<path class="st2" d="M48.6,53.9l-31.4-7.2l-3.7,77.5c8,2,15.4,3.6,23.2,4.8l0.9-22.4c2.8,0.4,5.7,0.9,8.5,1.3
		c13.7,1.9,27.7-2.6,28.9-25.1C76.2,63.1,63.2,56.7,48.6,53.9z M41.2,89.4c-0.8-0.1-1.5-0.2-2.3-0.4c0.3-5.1,0.5-10.1,0.8-15.2
		c0.7,0.1,1.5,0.2,2.2,0.3c3.9,0.6,7.6,2.9,7.3,8.5C48.9,88.9,45,89.9,41.2,89.4z"/>
	<path class="st1" d="M196.7,130.8c8.4,4.4,19.3,6.9,28.7,6.9c16.2-0.1,33-9.8,33.2-27.6c0.1-12.7-8.2-18.7-19.7-21.1
		c-2.1-0.4-4.1-0.9-6.1-1.3c-2.1-0.5-5.5-0.8-5.4-3.6c0-3.1,3.5-4,5.9-4c5.9-0.1,11,1.2,16.6,3.3c2.2-6,4.4-12,6.7-18
		c-8.1-3.5-15.1-5.4-23.7-5.3c-16.3,0.2-32.5,10-32.7,27.7c-0.1,11.7,8.8,18,19.4,19.9c1.8,0.3,3.6,0.6,5.5,1c2.5,0.5,6.1,0.7,6,4.1
		c0,3.4-4.2,3.8-6.9,3.8c-6.3,0.1-13.4-2-18.7-5.9C202.6,116.8,199.4,124.6,196.7,130.8z"/>
	<path class="st1" d="M311.3,125.8c3.5-9.2,7.1-17.9,10.6-27.1c0.6,8.8,0.9,16.8,1.5,25.7c8.8-1,15.9-1.5,24.8-2
		c-2.3-23.6-4.3-48.8-6.6-72.4c-7.6,0.7-15.2,1.4-22.8,2.1c-4.3,11.1-8.5,24.6-12.8,35.8c-4.1-10.3-8.2-22.4-12.4-32.7
		c-7.7,1.1-21.4,3.5-22.8,3.5c-2.6,24-5.6,50.7-8.3,74.7c6.1-1.1,20.9-3.4,25.3-4c0.7-9,1.4-18.5,2-27.5c3.4,8.5,6.8,17.1,10.3,25.7
		C302.2,127.3,309,126.2,311.3,125.8z"/>
	<path class="st1" d="M473.8,101.1c6.8-3,11.6-9.6,11.8-22.6c0.3-19.6-13.6-28-27.6-29.1c-10.6-0.8-21.2-1.4-31.9-1.7
		c-0.3,24.9-0.5,47.7-0.8,72.6c7.9,0.2,16.6,0.8,23.6,1.4c0.1-7,0.2-12.2,0.3-19.2c4.5,7.3,8.2,13.4,12.8,20.8
		c9.8,0.9,19.8,2.1,29.5,3.6C485.4,117.8,479.9,110,473.8,101.1z M451.8,85.2c-0.8-0.1-1.6-0.1-2.3-0.2c0.1-5,0.1-10,0.2-15
		c0.8,0.1,1.5,0.1,2.2,0.2c3.9,0.3,7.8,2.4,7.7,7.9C459.5,84.3,455.7,85.5,451.8,85.2z"/>
	<path class="st1" d="M398.4,47.3c-9.4,0-17.1,0.2-25.2,0.5c-6.5,24.2-14.1,50-20.6,74.3c7.2-0.1,14.5-0.6,21.7-0.6
		c0.7-2.6,1.4-5.5,2.1-8.1l11-0.3c-0.2-0.1,9.7-0.3,9.7-0.3c0.3,0.9,1.2,3.5,2.4,7.7c7.2,0.2,14.4-0.2,21.7,0.2
		C413.4,95.1,405.5,70.5,398.4,47.3z M381.1,96.3c1.6-6.2,3.3-12.7,5-18.9c1.9,6.2,3.8,12.4,5.7,18.6
		C380.9,96.5,380.9,96.3,381.1,96.3z"/>
	<path class="st0" d="M539.7,133.1H538v4.6h-1.5v-4.6h-1.7v-1.3h4.9V133.1z M547.3,137.7h-1.4v-4.6h0l-1.6,4.6h-0.9l-1.6-4.6h0v4.6
		h-1.4v-5.9h2.1l1.3,3.6h0l1.3-3.6h2.1V137.7z"/>
</g>
</svg>
