<svg id="Layer_1" data-name="Layer 1" xmlns="http://www.w3.org/2000/svg" viewBox="0 0 187.09 35.91"><defs><style>.cls-1,.cls-5{fill:#fff;}.cls-2{fill:#fcd3c5;}.cls-3{fill:#231f20;}.cls-4{fill:#f69880;}.cls-5{fill-rule:evenodd;}</style></defs><title>Piggly-Wiggly</title><path class="cls-1" d="M6.68,14.17c-.42-.65-.84-1.61-.23-2.08.17-.13.38-.18.56-.3.53-.35.54-1.12.5-1.76a3.28,3.28,0,0,1,.67-2.59c.94-.9,2.51-.51,3.69-1.05a1.79,1.79,0,0,1,.88-.3,1.29,1.29,0,0,1,.51.2A65.11,65.11,0,0,1,20,10.8a6,6,0,0,0-2.18,3.26A18,18,0,0,0,17.27,18a13.3,13.3,0,0,0-3.8.08c-1.15.19-2.41,1-3.51,1.09-1.32.11-1.1-.55-1.63-1.84A19.05,19.05,0,0,0,6.68,14.17Z" transform="translate(-4.23 -4.82)"/><path class="cls-2" d="M14.54,35.17a5,5,0,0,0-.89-1.9c-.31-.31-.72-.49-1-.77-.84-.74-.93-2-1.66-2.89s-1.71-1-2.42-1.75a5.52,5.52,0,0,1-1.06-1.79L5.69,21.93a.9.9,0,0,1-.11-.47c0-.36.47-.51.83-.59l11.21-2.5A1.88,1.88,0,0,1,17.57,17a15.52,15.52,0,0,1,1.28-4,5.23,5.23,0,0,1,3.06-2.68A6.29,6.29,0,0,1,25,10.4a16.27,16.27,0,0,1,5.54,2.44A9.79,9.79,0,0,1,36,11.51,4.23,4.23,0,0,1,36.11,15c-.33.8-.91,1.49-1.23,2.3-.62,1.62-.1,3.41.06,5.14s-.34,3.83-2,4.38c1.59,1,1.82,3.39,1.06,5.13a13.87,13.87,0,0,1-3.65,4.32,11.8,11.8,0,0,1-2.76,2.12c-2.29,1.1-4.91.48-7.32.29S15.49,37.68,14.54,35.17Z" transform="translate(-4.23 -4.82)"/><path class="cls-1" d="M15.36,24.92a2.27,2.27,0,0,1,0-1,1.79,1.79,0,0,1,.93-.93,2.69,2.69,0,0,1,2.1-.23,2.67,2.67,0,0,1,1.45,1.47,14.84,14.84,0,0,0,.8,1.71,2.94,2.94,0,0,1,0,2.65c-1,.38-3.69,1.31-4.71.74C14.73,28.65,15.47,26.16,15.36,24.92Z" transform="translate(-4.23 -4.82)"/><path class="cls-1" d="M23.7,24.82a9,9,0,0,1,.07-2.35,3.7,3.7,0,0,1,.28-1.2,2.23,2.23,0,0,1,2.4-1.08,3.36,3.36,0,0,1,2.17,1.68,7.08,7.08,0,0,1,.79,2.7,16.19,16.19,0,0,1,.12,2c0,.05-3.46.45-3.78.65C24.91,27.71,23.89,26.08,23.7,24.82Z" transform="translate(-4.23 -4.82)"/><path class="cls-3" d="M34.47,18.26a8.92,8.92,0,0,0,2-5.64,12.36,12.36,0,0,0-.16-1.87A12.13,12.13,0,0,0,35,10.62,8.9,8.9,0,0,0,30.13,12a10.71,10.71,0,0,0-6.66-2.88,5.29,5.29,0,0,0-3.33,1.1c-3.82-2.07-6.78-5.08-7.27-5.08s0,1.14-2.27,1.14-3.17.53-3.49,2.8c-.28,1.95-.28,1.95-.57,2.07-1.22.61-1.42.69-1.42,1.46,0,1.42,1.42,2.88,2.84,6.66a26.69,26.69,0,0,0-3.74,1.42c.81,4.47,2.15,7.15,5.89,9.22a5.52,5.52,0,0,0,2.64,3.86c1.3,3.86,4,5.52,6.21,5.52a4.43,4.43,0,0,0,1.87-.41,7.21,7.21,0,0,0,3.45.81c2.07,0,4.22-.77,6.21-3.69a7.27,7.27,0,0,0,4.22-6.5,5,5,0,0,0-.73-2.6,6.88,6.88,0,0,0,1.18-3.86,23.14,23.14,0,0,0-.69-4.83ZM10.27,7.35,11,7.27h0c.69,0,.73,0,.89.81h0l.41,2.36h0c0,.2,0,.28-.16.28s-.28-.12-.69-.65h0L10.07,8.28h0a1.75,1.75,0,0,1-.37-.61c0-.12.08-.24.57-.32ZM8.11,9.87c0-.69.16-1.06.57-1.06.16,0,.24,0,.57.41h0l2.07,2.19h0c.28.28.45.49.45.61,0,.28-.49.41-1,.41C8,12.43,8,12.11,8,11.29H8l.08-1.42ZM6.62,13.25A.32.32,0,0,1,7,12.89c.08,0,.24.28,3.78.61,3.21.32,2.88,1.22,3.53,1.22.12,0,.2-.12.2-.37,0-.41-1.5-4.59-1.5-6.66,0-.49.08-.69.28-.69.49,0,1,1.14,4.34,3.17.93.49,1.26.69,1.26,1.14s-.85,1.46-1.54,3-1,2.76-1.22,3.09-6.37,1.71-6.46,1.71c-.37,0-.53-.28-.89-1.26-.45-1.18-.45-1.22-.61-1.58-.53-1.06-1.54-2.48-1.54-3Zm27.28,9.23a9.62,9.62,0,0,1-.81,3.57c-1,0-1.26,0-1.26.32,0,.57,1.71.61,1.71,2.92,0,2.48-1.5,5-3.57,5.36a6,6,0,0,1-5.85,3.86,7.7,7.7,0,0,1-3.86-1.1,1.76,1.76,0,0,1-1.58.73c-1.83,0-3.94-2-5-5.32A5.78,5.78,0,0,1,11,28.78c-2.44-1.22-4.47-3-5.16-7.27a8.75,8.75,0,0,1,3.29-.85c2.11,0,3.53,2,4,2a.36.36,0,0,0,.37-.37c0-.57-1.22-1.58-2.11-2.15a5.55,5.55,0,0,1,3.37-.93,9.06,9.06,0,0,0-.49,1.71c0,.24.12.41.28.41.81,0,.53-2.72,2.56-2.72.93,0,1.66,1.06,2.07,1.06a.36.36,0,0,0,.32-.37c0-.28,0-.28-1.83-1.71,1.46-5.85,3.65-7.19,5.64-7.19a9.5,9.5,0,0,1,6.86,3.37A6.64,6.64,0,0,1,35.33,12c-.12,3.13-.65,4.26-2.19,6a22.33,22.33,0,0,1,.77,4.55Z" transform="translate(-4.23 -4.82)"/><path class="cls-3" d="M25.81,15.1c.37,0,2.36.69,2.36,1.87,0,.12,0,.2-.2.2-.45,0-1.06-1.34-2.19-1.34C24.31,15.83,24,18,23.54,18c-.12,0-.2-.12-.2-.32a2.72,2.72,0,0,1,2.48-2.6Z" transform="translate(-4.23 -4.82)"/><path class="cls-3" d="M33.76,12.53c.28,0,.49.12.49.37s-2.84,1.62-2.92,1.62a.29.29,0,0,1-.32-.28c0-.41,1.58-1.71,2.76-1.71Z" transform="translate(-4.23 -4.82)"/><path class="cls-3" d="M12.54,23.94a.19.19,0,0,1-.16.2c-.28,0-1.79-1.79-4-1.79l-.93,0c-.24,0-.53-.2-.53-.41s.53-.45,1.1-.45c1.38,0,4.51,1.06,4.51,2.4Z" transform="translate(-4.23 -4.82)"/><path class="cls-3" d="M27.7,27.38l.57-.37h0c0-1.1-.28-2.76-1-3.41h0l-.41.93h0c-.32-.69-.73-1-1-1-.53,0-.89,1-.89,2a5.43,5.43,0,0,0,.41,2.11,2.88,2.88,0,0,0-1,2.23A5.28,5.28,0,0,0,25.35,33h0l-.57.2h0a5.89,5.89,0,0,1-.93-3.13,2.77,2.77,0,0,1,1.26-2.56,5,5,0,0,1-1.26-3.7c0-2.27,1.18-3.33,2.11-3.33,2.15,0,3.21,3.49,3.21,6.62h0l.53,0h0c0-.49,0-.77,0-.89,0-3.33-1.66-6.33-3.78-6.33-1.54,0-2.72,1.46-2.72,3.9a7.89,7.89,0,0,0,1,3.74,2.37,2.37,0,0,1-.81.16c-.53,0-1-.12-1.26-.12s-.49.12-.49.28c0,.32,1,.12,1,.45s-.45.49-.45.69a.19.19,0,0,0,.2.2c.08,0,.08,0,.69-.53h0l.28,0h0a3.36,3.36,0,0,0-.2,1.14,8.84,8.84,0,0,0,.93,3.61,4.42,4.42,0,0,1-1.5.2,2.07,2.07,0,0,1-.89-.16c-.53-2.19-.85-2.88-2.07-3.86h0l.73-.24h0c0-1.91-.41-3-1.26-3.49h0L18.61,27h0c-.37-.85-.37-1-.61-1-.57,0-.93,1.1-.93,1.75a4.47,4.47,0,0,0,.24,1.3h0l-1,.57h0a10.76,10.76,0,0,1-.69-3.53c0-1.75.57-2.88,2-2.88,1.87,0,3.09,2.64,3.45,5.73h0l.32-.12h0c0-3.65-1.83-6.29-3.94-6.29-1.62,0-2.44,1.34-2.44,3.65A9.64,9.64,0,0,0,15.85,30c-1.1,1.26-1.18,1.62-1.18,1.71a.27.27,0,0,0,.28.24c.37,0,1.34-2.19,3.13-2.19,2.8,0,3.17,5.08,3.25,5.08s.41-.24.65-.53C23.52,35,23.68,37,25.39,37c1.38,0,2.27-.81,2.68-4.34h0l2.11-1.79h0a4.75,4.75,0,0,0-2.48-3.49Zm-1.56,5.37c-.37,0-1.18-1.06-1.18-2.8,0-1.22.65-2.23,1.87-2.23.65,0,2.56,1.38,2.56,2.8,0,1.06-2.88,2.23-3.25,2.23Z" transform="translate(-4.23 -4.82)"/><path class="cls-4" d="M23.29,34.44c.65,1.14,1.46,2.07,2.36,2.07,1.06,0,1.54-1.34,1.66-3.41h0l-.65.16h0c-1,.24-1,.73-1,1.71A2.78,2.78,0,0,0,24,34.27a1.67,1.67,0,0,0-.69.16Z" transform="translate(-4.23 -4.82)"/><path class="cls-3" d="M28.34,29.34c-.2,0-.49.24-.49.73s.2.73.45.73.49-.24.49-.77-.2-.69-.45-.69Z" transform="translate(-4.23 -4.82)"/><path class="cls-3" d="M25.9,30.44a.36.36,0,0,0-.37.37,1.12,1.12,0,0,0,.89.93.41.41,0,0,0,.41-.41,1.12,1.12,0,0,0-.93-.89Z" transform="translate(-4.23 -4.82)"/><polygon class="cls-5" points="186.39 31 186.39 27.99 36.98 27.99 36.98 31 186.39 31 186.39 31 186.39 31"/><polygon class="cls-5" points="186.39 35.91 186.39 32.91 36.98 32.91 36.98 35.91 186.39 35.91 186.39 35.91 186.39 35.91"/><path class="cls-3" d="M38,7.81a1.51,1.51,0,1,0,1.55,1.5A1.53,1.53,0,0,0,38,7.81Zm0,2.72A1.21,1.21,0,1,1,39.3,9.31,1.23,1.23,0,0,1,38,10.53Z" transform="translate(-4.23 -4.82)"/><path class="cls-3" d="M38.84,8.92a.41.41,0,0,0-.19-.36.85.85,0,0,0-.42-.08h-.76v1.69h.26V9.39H38l.5.78h.29l-.52-.78h0c.31,0,.55-.13.55-.47ZM38,9.17h-.28V8.67h.45c.22,0,.41,0,.41.25s-.33.26-.58.26Z" transform="translate(-4.23 -4.82)"/><polygon class="cls-5" points="167.48 19.77 172.19 19.77 172.19 0.04 167.48 0.04 167.48 19.77 167.48 19.77 167.48 19.77"/><path class="cls-5" d="M170.77,17.48a6.06,6.06,0,0,0-1.54-4.1h0l1.26-2.27h-2.76c-1.42,0-1.91-.2-3.25-.2a6.66,6.66,0,0,0-7,6.82,6.32,6.32,0,0,0,6.62,6.37,7,7,0,0,0,1.75-.2,1.34,1.34,0,0,1,.2.73c0,1-.69,1.58-2.07,1.58s-2.23-.41-4-1.66h0l-2.44,3.57h0a10,10,0,0,0,6.37,2.4c4,0,6.82-2.23,6.82-5.52a6.58,6.58,0,0,0-1.38-3.82,5.22,5.22,0,0,0,1.42-3.69Zm-6.66,2a1.88,1.88,0,0,1-1.91-1.91,1.94,1.94,0,0,1,1.91-1.95,1.93,1.93,0,0,1,0,3.86Z" transform="translate(-4.23 -4.82)"/><path class="cls-5" d="M157,17.48a6.06,6.06,0,0,0-1.54-4.1h0l1.26-2.27h-2.76c-1.42,0-1.91-.2-3.25-.2a6.66,6.66,0,0,0-7,6.82,6.32,6.32,0,0,0,6.62,6.37,7,7,0,0,0,1.75-.2,1.33,1.33,0,0,1,.2.73c0,1-.69,1.58-2.07,1.58s-2.23-.41-4-1.66h0l-2.44,3.57h0a10,10,0,0,0,6.37,2.4c4,0,6.82-2.23,6.82-5.52a6.57,6.57,0,0,0-1.38-3.82A5.22,5.22,0,0,0,157,17.48Zm-6.66,2a1.88,1.88,0,0,1-1.91-1.91,1.94,1.94,0,0,1,1.91-1.95,1.93,1.93,0,0,1,0,3.86Z" transform="translate(-4.23 -4.82)"/><path class="cls-5" d="M88.82,17.48a6.06,6.06,0,0,0-1.54-4.1h0l1.26-2.27H85.78c-1.42,0-1.91-.2-3.25-.2a6.66,6.66,0,0,0-7,6.82,6.32,6.32,0,0,0,6.62,6.37,7,7,0,0,0,1.75-.2,1.34,1.34,0,0,1,.2.73c0,1-.69,1.58-2.07,1.58s-2.23-.41-4-1.66h0l-2.44,3.57h0A10,10,0,0,0,82,30.51c4,0,6.82-2.23,6.82-5.52a6.58,6.58,0,0,0-1.38-3.82,5.21,5.21,0,0,0,1.42-3.69Zm-6.66,2a1.88,1.88,0,0,1-1.91-1.91,1.94,1.94,0,0,1,1.91-1.95,1.93,1.93,0,0,1,0,3.86Z" transform="translate(-4.23 -4.82)"/><polygon class="cls-5" points="133.95 3.78 138.66 3.78 138.66 0 133.95 0 133.95 3.78 133.95 3.78 133.95 3.78"/><polygon class="cls-5" points="133.95 19.79 138.66 19.79 138.66 5.62 133.95 5.62 133.95 19.79 133.95 19.79 133.95 19.79"/><path class="cls-5" d="M75,17.48a6.06,6.06,0,0,0-1.54-4.1h0l1.26-2.27H72c-1.42,0-1.91-.2-3.25-.2a6.66,6.66,0,0,0-7,6.82,6.32,6.32,0,0,0,6.62,6.37,7,7,0,0,0,1.75-.2,1.34,1.34,0,0,1,.2.73c0,1-.69,1.58-2.07,1.58s-2.23-.41-4-1.66h0l-2.44,3.57h0a10,10,0,0,0,6.37,2.4c4,0,6.82-2.23,6.82-5.52a6.58,6.58,0,0,0-1.38-3.82A5.21,5.21,0,0,0,75,17.48Zm-6.66,2a1.88,1.88,0,0,1-1.91-1.91,1.94,1.94,0,0,1,1.91-1.95,1.93,1.93,0,0,1,0,3.86Z" transform="translate(-4.23 -4.82)"/><path class="cls-5" d="M49.23,10.12a5.46,5.46,0,0,0-3.69,1.34h0v-1H40.86V29.37H45.7V23.8h0a6.58,6.58,0,0,0,3.53,1.1c3.69,0,6.62-3.45,6.62-7.59S53,10.12,49.23,10.12Zm-1,10.06a2.68,2.68,0,0,1-2.68-2.68,2.63,2.63,0,0,1,2.64-2.6,2.71,2.71,0,0,1,2.72,2.68,2.66,2.66,0,0,1-2.68,2.6Z" transform="translate(-4.23 -4.82)"/><polygon class="cls-5" points="98.87 12.37 96.55 5.83 91.31 5.83 96.43 19.27 94.68 25.41 99.68 25.41 105.57 5.83 100.73 5.83 98.87 12.37 98.87 12.37 98.87 12.37"/><polygon class="cls-5" points="126.68 11.87 124.89 5.82 121.16 5.82 119.58 11.87 118.23 5.82 113.24 5.82 116.45 19.79 121.36 19.79 122.94 14.14 124.41 19.79 129.48 19.79 132.73 5.82 127.78 5.82 126.68 11.87 126.68 11.87 126.68 11.87"/><polygon class="cls-5" points="52.28 3.78 56.99 3.78 56.99 0 52.28 0 52.28 3.78 52.28 3.78 52.28 3.78"/><polygon class="cls-5" points="52.28 19.79 56.99 19.79 56.99 5.62 52.28 5.62 52.28 19.79 52.28 19.79 52.28 19.79"/><polygon class="cls-5" points="85.86 19.77 90.58 19.77 90.58 0.04 85.86 0.04 85.86 19.77 85.86 19.77 85.86 19.77"/><polygon class="cls-5" points="182.25 5.83 180.39 12.37 178.07 5.83 172.84 5.83 177.95 19.27 176.21 25.41 181.2 25.41 187.09 5.83 182.25 5.83 182.25 5.83 182.25 5.83"/></svg>