<svg id="Layer_1" data-name="Layer 1" xmlns="http://www.w3.org/2000/svg" viewBox="0 0 681.42 163.42"><defs><style>.cls-1{fill:#231f20;}.cls-2{fill:#f26522;}</style></defs><title>Planet_Fitness</title><path class="cls-1" d="M366.08,113H347.19l12.37-58.26H349.18l2.88-13.5h10.38l1.23-5.79c3.16-14.85,12.46-20.51,25.4-20.51,5.53,0,8.07.14,9.66.27l-3.23,15.25h-5.27c-6.47,0-7,2-8.3,8l-.61,2.83h23.27l-2.87,13.5H378.46Z" transform="translate(-17.37 -8.76)"/><path class="cls-1" d="M286.14,82.23l.72-3.38c7-32.78-11.16-39.52-25.33-39.52-19.24,0-30,10.36-35.89,20.37,1.28-13.38-7.49-20.37-20.38-20.37-13.63,0-20.75,8.09-24.23,12.42h-.25L183,41.21H168.89a43.59,43.59,0,0,0-12.56-1.75c-14.71,0-30.62,3.1-37.45,25.09h18.21c1.43-4.19,4.29-10,13.74-10,3.71,0,8.93.25,10.43,3.93a7.33,7.33,0,0,1,.18,4.43,6,6,0,0,1-1.81,3.24,10.92,10.92,0,0,1-6,2.44l-17.54,2.55c-9,1.27-16.94,5.41-21.76,13l14.45-68H109.9l-8.7,40.94C98.56,45.2,89.71,39.33,78.75,39.33c-12.67,0-19.33,6.61-24.05,12.28h-.26l2.2-10.4H38.56l-21.19,99.7H36.26l7.88-37.1h.27c1.46,3.92,4.67,11.07,17.87,11.07,13.69,0,23.91-7.82,30.58-18.62L89.31,113h18.88l2-9.35c1.93,8,9.45,11.38,17.53,11.38,11.26,0,18.28-4.58,23.38-8.7.71-.58,1.4-1.14,2-1.68a29.12,29.12,0,0,0-.06,8.36c0,.05,0,.09,0,.14h20.38l.6-2.84c-2.13-.81-3.6-2.69-1.81-11.2l7-32.81c3.37-7.23,9.66-11,16.44-11,12,0,10.38,8.92,9.28,14.18L195.68,113h18.87L218.37,95c2.39,14.54,13.56,19.85,28.46,19.85,12.26,0,27.77-5.67,36.43-22.94H263.86c-2.58,5.12-8.55,7.82-13.81,7.82-15.24,0-13.75-12.14-13.14-17.53ZM258,54.83c6.07,0,12.75,3.52,11.37,15.12H240.06C243.14,60.52,249.07,54.83,258,54.83ZM81,77.64c-1.82,8.49-8,21.71-20.14,21.71-12,0-14.46-10-12.19-20.63,2.43-11.46,8-23.06,20.94-23.06C81.63,55.66,83.41,66.31,81,77.64Zm75.26,9.7A14.65,14.65,0,0,1,154,92.55c-3.76,5.65-11.08,9-17.63,9-3.64,0-8.34-2-6.93-8.64,1.67-7.81,7.84-9.56,15.11-10.78,6.68-1,10.11-2,12.35-3.16.47-.25.91-.5,1.29-.74ZM315.6,54.71h11.73l2.87-13.5H318.47l4.13-19.42H303.71l-4.13,19.42h-9.72L287,54.71h9.71l-9.26,43.56c-2,9.31-.32,15.52,16,15.52h2.42c3,0,6-.13,9-.26l3-14.3c-1.38.12-2.77.27-4,.27-7.69,0-7.47-1.64-6.59-5.82Z" transform="translate(-17.37 -8.76)"/><path class="cls-2" d="M473.72,111.45c.79.47.8-.75.79-1.81l-1.92.16Z" transform="translate(-17.37 -8.76)"/><path class="cls-2" d="M471.8,107.39l-2.69-1,1.58.91c.15,2-1.73.77-2.37.37C470.23,110,470.69,107.52,471.8,107.39Z" transform="translate(-17.37 -8.76)"/><path class="cls-2" d="M468.32,104.38c-.65-1.29-1.4-.32-1.4.39C467.38,104.58,468.32,105.09,468.32,104.38Z" transform="translate(-17.37 -8.76)"/><path class="cls-2" d="M405.65,40.94c.26.41.62.77.41,1C406.62,41.87,406.84,41.68,405.65,40.94Z" transform="translate(-17.37 -8.76)"/><polygon class="cls-2" points="388.68 33.21 388.34 33.25 388.63 33.3 388.68 33.21"/><path class="cls-2" d="M422.81,68.7c1.71.26,2,1.22,3.39,1.82l-.27,1.61c1.5.59,1.3-.52,2.65-.4.58,1.54,3.33,2.89,3.78,3.42-.09.8-1,.29-1.46.45,1.66.85,2.47-.25,4.18,1.27l-.24.31c5.51,2.08,9.91,7.6,14.88,11.4-.21-.38.08-.49.19-.79,4.74,4.58,9.17,10.59,15,13-2.45-2.64-4-9.18-8.48-10.39-.08-1.7-2.56-2.37-1.81-3.73-2.85-4.55-6.33-4.31-9.78-7.88-.32-.7.44-.94.77-1.58l3.27,2.43-1.3-2.17c1.22.34,2.67,2.53,3.83,1.87-3.62-1.48-6.56-6.55-10.2-7.18.83,1.21,2.48,2.08,3.56,3.45.18.85.74,1.93.19,2.36-4.65-2.17-7.13-5.28-11.11-8.21-1-.69-2.29-1.78-2-2.44.8.33.68-.49,1.41-.33-1.76-.63-1.72,1.81-3.52,0l1.75-1.65c-2.36,1.33-2.19-2.28-4.49-2.25.06-1.16,1.33-.84,2.47,0-1-1.32-1.94-.31-2.91-1.12l2.16-.89c-2.21.7-1.69-1.78-2-2.74-.35.35-.67,2-2,.95-.45-.62.14-.82.17-1.16a2.05,2.05,0,0,1-2.36.17c.22-.67,1.2-.43,1.66-.95-.72-.45-1.37-.73-1.57-1.54-1.56-.39-.46.87-1.63,1-1.63-1.7,1.11-2.09,1.2-3.77,2,.2,4.07,1.25,5.16,1.34l-3.14-1.47c.63-.54-1.15-2.45.77-2.06-2.39-2.65-6.55-4-9.69-5.09.27.48.7.93.37,1.3-1.7-.45-1-1.21-1.07-1.89-1.35-.17-1.9,1.11-3.05,1.61-1.7-2.27-2.38-1.75-3.58-4.24l-.49,1.28c-.91-1.68-2,.07-3.17-1.39,0-.32.76-.34,1.37-.4-1.51-.27-.72-1.66-2.26-1.83l1.7-.86c-1.07-.49-2.82-.79-1.73-1.72-2.54.61-5.59-1.34-8.29-1.5l.59-1c-1.71.76-4.54-1.79-6.19-.54l0-.52-3,.66c-1.06-.53-.12-2.08-.37-1.65-2.54-.61-4.55-1-6-2-.84,1.41-3.56,1.11-5.68.73-9.86-3.39-21.42-3.28-30.88-1.41-1.41.08-3.34,1.86-5,2.64,2.13.38,2.32-.42,4.4-.45,1.58.4,2.15,2,3.44,3l-.65-1.33c2.13-1.1,1.42.76,3.14-.51l-.17,2.15c.63-1.08,2-.07,2.57.53l.65-1.46c1.25.89,2.07,1.3,2.33,2.67V36.24c.42.82,5,.49,3.19,2.58.42-.26.83-.9,1.65-.65L359,39.54c1.2-.18,2.55-.29,2.77.53a2.43,2.43,0,0,0-1.27,1.37c4.81.9,1.75-4.3,6.16-3.61l-.22.87,1.31-.69.94,1.34c2.27-2.75,6.07,1.66,9.08.85,1.1.08,2,2.08,3.92,2.56l.29-1.35c1.14,1.9,6.62,4.64,6.81,8.17,1.75-.41,0-.33.37-1.33,3.24-.16,2.63,1.91,3.72,3.24,1.91.07-1.06-1,.24-1.6,2.1,2.06,2.78-.75,5.52,1.6,0,.84-1,.07-1.55.39,2.73-.15,6.44,2.55,9.72,4,3.09,2.92,8.1,6.29,11.25,10.12l.35-.37c.89,2.15,3.36,2.36,4.8,4.3Z" transform="translate(-17.37 -8.76)"/><path class="cls-2" d="M453.36,79.15l.58-1.08-2.23-1.18C451.68,78.22,452.62,78,453.36,79.15Z" transform="translate(-17.37 -8.76)"/><polygon class="cls-2" points="433 72.42 434.25 72.93 432.82 71.56 433 72.42"/><polygon class="cls-2" points="412.42 51.16 412.54 51.49 416.68 53.48 412.42 51.16"/><path class="cls-2" d="M406.31,40c.75-.32,1.31.25,2,.12l-2.18-.44Z" transform="translate(-17.37 -8.76)"/><path class="cls-2" d="M388.56,27.58c-1.46,1.72-1.58-.57-1.13,1.61C388.79,29.27,388,28.12,388.56,27.58Z" transform="translate(-17.37 -8.76)"/><path class="cls-2" d="M382.91,29a2.1,2.1,0,0,0,1.69-.12C383.92,27.72,383.57,28.75,382.91,29Z" transform="translate(-17.37 -8.76)"/><path class="cls-2" d="M327.79,171.29c-.44.72.69.83,1.69.89l-.17-1.88Z" transform="translate(-17.37 -8.76)"/><path class="cls-2" d="M331.55,169.7l.87-2.54-.83,1.47c-1.86,0-.75-1.75-.4-2.33C329.11,168,331.41,168.62,331.55,169.7Z" transform="translate(-17.37 -8.76)"/><path class="cls-2" d="M334.29,166.47c1.18-.58.25-1.37-.4-1.4C334.08,165.54,333.65,166.45,334.29,166.47Z" transform="translate(-17.37 -8.76)"/><path class="cls-2" d="M394.51,111.92c-.4.2-.77.47-1,.25C393.55,112.7,393.73,112.92,394.51,111.92Z" transform="translate(-17.37 -8.76)"/><polygon class="cls-2" points="376.13 103.41 376.11 103.08 376.02 103.33 376.13 103.41"/><path class="cls-2" d="M367,124.93c-.23,1.62-1.16,1.86-1.72,3.11l-1.57-.38c-.56,1.37.51,1.26.39,2.53-1.56.36-2.75,3-3.23,3.38-.77-.14-.3-1-.47-1.44-.76,1.54.29,2.39-1.14,3.91l-.31-.25c-2,5-7,9-10.43,13.56.35-.19.47.1.77.22-4.18,4.31-9.66,8.27-11.78,13.76,2.5-2.08,8.43-3.53,9.51-7.62,1.65.07,2.17-2.32,3.47-1.51,4.15-2.56,3.88-5.84,7.17-8.94.64-.26.92.47,1.51.82l-2.2,3,2-1.09c-.27,1.14-2.35,2.36-1.7,3.51,1.41-3.27,5.94-6,6.6-9.28-1.14.74-2,2.15-3.24,3.14-.8.14-1.78.63-2.23.08,1.78-4.47,5-6.34,7.56-10.11.63-.95,1.73-2,2.37-1.69-.31.7.48.65.32,1.33.64-1.59-1.74-1.74,0-3.29l1.6,1.78c-1.32-2.34,2.16-1.89,2.09-4.1,1.12.15.83,1.34.07,2.36,1.25-.84.26-1.82,1-2.69l.87,2.14c-.69-2.17,1.68-1.48,2.63-1.63-.34-.37-1.93-.82-.89-2,.61-.37.81.22,1.14.28a1.84,1.84,0,0,1-.12-2.21c.64.27.38,1.16.87,1.65.46-.64.75-1.21,1.53-1.32.38-1.43-.82-.53-.91-1.64,1.63-1.39,2,1.25,3.61,1.49-.17,1.88-1.24,3.7-1.34,4.71l1.47-2.79c.52.63,2.34-.86,2,.94,2.47-2.06,4-5.65,5.12-8.46-.48.2-.92.54-1.29.18.5-1.52,1.23-.82,1.88-.76.18-1.26-1-1.91-1.49-3.06,2.24-1.3,1.85-1.93,4.33-2.7l-1.23-.64c1.68-.6,0-1.88,1.53-2.72.29.08.28.76.32,1.32.33-1.37,1.64-.44,1.88-1.83l.74,1.69c.53-.92.93-2.49,1.75-1.35-.4-2.4,1.79-4.84,2.11-7.29l1,.72c-.64-1.73,2.2-3.78,1.15-5.51l.52.07-.3-2.82c.61-.87,2,.27,1.64,0,.78-2.22,1.53-3.88,2.74-5-1.27-1-.56-3.41.06-5.26,4.91-8,7.28-18,8.31-26.77.36-1.23-.77-3.46-1-5.25-1,1.77-.29,2.18-.91,4-.85,1.22-2.57,1.19-3.94,2l1.46-.13c.38,2.18-1.11,1-.35,2.91l-2-.79c.85.89-.47,1.84-1.18,2.15l1.23,1c-1.2.84-1.81,1.46-3.2,1.3l1.31.4c-1,.11-1.57,4.38-3.21,2.19.16.43.7,1,.26,1.64l-1.31-.4c-.09,1.15-.3,2.4-1.16,2.39a2.34,2.34,0,0,0-1-1.51c-2,4.15,3.74,2.64,2.2,6.51l-.8-.4.44,1.33-1.46.56c2.14,2.62-2.69,5.17-2.37,8.12-.2,1-2.4,1.35-3.08,3.09l1.27.53c-1.9.72-5.33,5.26-8.8,4.89.25,1.73.33,0,1.26.57-.12,3.07-2.05,2.2-3.5,3-.25,1.78,1.1-.84,1.54.46-2.21,1.68.4,2.67-2,4.93-.82-.14,0-1-.29-1.52,0,2.63-2.93,5.73-4.56,8.62-2.91,2.64-6.48,7-10.16,9.63l.33.37c-2.12.63-2.39,2.95-4.23,4.19Z" transform="translate(-17.37 -8.76)"/><path class="cls-2" d="M357.56,153.34l1.06.62,1.08-2C358.42,151.81,358.62,152.72,357.56,153.34Z" transform="translate(-17.37 -8.76)"/><polygon class="cls-2" points="338.17 141.61 337.72 142.76 339 141.49 338.17 141.61"/><polygon class="cls-2" points="358.12 123.51 357.79 123.62 355.95 127.39 358.12 123.51"/><path class="cls-2" d="M395.43,112.68c.27.72-.3,1.17-.22,1.81l.54-1.94Z" transform="translate(-17.37 -8.76)"/><path class="cls-2" d="M408.94,98.68c-1.54-1.64.68-1.3-1.46-1.31C407.27,98.58,408.47,98,408.94,98.68Z" transform="translate(-17.37 -8.76)"/><path class="cls-2" d="M408.2,93.38a1.73,1.73,0,0,0-.13,1.49C409.3,94.51,408.35,94,408.2,93.38Z" transform="translate(-17.37 -8.76)"/><path class="cls-2" d="M413.55,10.74c.45-.44.27-1.27-.14-2l-.73,2Z" transform="translate(-17.37 -8.76)"/><path class="cls-2" d="M411.63,9.93a22.89,22.89,0,0,0-.89,2.17l.62-1.07c.67,1.1-.12,2.24-.33,2.67C412,13.12,411.44,11.15,411.63,9.93Z" transform="translate(-17.37 -8.76)"/><path class="cls-2" d="M409.87,11.69c-.58-.12-.24,1.25,0,1.67C409.84,12.78,410.14,12.11,409.87,11.69Z" transform="translate(-17.37 -8.76)"/><path class="cls-2" d="M424,31.86c-.35-.05-.66,0-.92-.3C423.17,32,423.37,32.24,424,31.86Z" transform="translate(-17.37 -8.76)"/><polygon class="cls-2" points="405.67 22.8 405.58 22.53 405.57 22.69 405.67 22.8"/><path class="cls-2" d="M418.12,22.37c-.46,1,.18.92-.18,1.07l1.48-.89a12.12,12.12,0,0,1-2,1.19c.94-.62-.16-.6-.16-.79a8.38,8.38,0,0,1,1.55-.43c-.64-.06-2.21.42-2.39-.11l.45-.13C414,21.55,414.26,19,412.61,17c-.09.15-.45.13-.78.22a33,33,0,0,0-1.15-3.59l-.5-.89-.16-.23,0-.06h0c2.94-3.51-4,4.77-3.3,3.94v0h0l0,0,.09-.11.3-.49a12,12,0,0,0,1.09-2.67c-.21,0-2.65.66-1.73-.64a2,2,0,0,0,1.29,2.66c-1.25.55.57,1.32-1.15,1.61-.65,2.16,2.5,2.73,2.86,4.51-.28.32-1.13.34-1.91.56l-1.07-1.45-.52,1.09c-.84-.31-.45-1.43-2-1.38,2,1.2,1,3.77,3.45,4.45.23-.65-.35-1.23-.37-1.92.46-.39.8-.91,1.63-1,2.67,1.29,1.87,2.94,3.16,4.09.33.26.37.79-.3,1.17-.37,0-.89.41-1.33.37.89.18,2.68-1.27,2.68-.62l-2.49,1.39c2.67-1.33.1,1.15,1.75.32-.71.92-1.37,1.16-1.75.85,0,.71,1.21-.39,1.36-.12a20.34,20.34,0,0,1-1.93,1.45c1.91-1.26.25.86.25,1.8.32-.5,1.19-2.15,1.49-1.77,0,.4-.3.89-.4,1.23.28-.47.89-1.48,1.11-1.51a7.34,7.34,0,0,1-.85,1.9c.38,0,.64-.06.81.68.69-.55.1-1.15.45-2,.73.46.1,2.81.56,4.48-1,1.43-3.23,1.12-4.23,1.45a14.32,14.32,0,0,0,3.06.08c-.3,1,2,1.59.32,2.59A7.16,7.16,0,0,0,420,35.86c-.4-.11-.78-.08-1-.62.42-1,1,0,1.58.47.18-1-.88-2.22-1.36-3.4,1.92.3,1.32-.48,3.49.21l-1.19-1.11c1.46.42-.27-1.38,1-1.26.29.2.4.7.51,1.14.09-.87,1.49.51,1.54-.62l1,1.75c.44-.65.65-1.91,1.68-.65-.66-2.13,1.11-3.92.57-6l1.33.52c-1.36-1.29.83-3.44-1.3-4.37l.58-.11a10.05,10.05,0,0,0-2-1.54c.07-.7,2.22-.82,1.63-.77-.58-1.68-1.25-2.75-1-4.1-1.89.57-3-.58-4-1.28a7.64,7.64,0,0,0-8-3.65,8,8,0,0,0-5.86,5c-.42.5.5,2.58.79,3.58.84-.17.21-.89.73-1.41.73-.05,2.13,1.49,3,2.34l-1-1.23c-.23-1.4.74.54.28-1.14L414,20c-.54-1.22.21-.32.49.29l-.56-1.72A6.41,6.41,0,0,1,415,21.37l-.37-1.61c.26,1,.26-.24.29,2.58a8.57,8.57,0,0,0-.09-1L414.67,23c-.13-.51-.15-.76-.45.1,0,.4-.11,1.11-.19,1.82-1.27-.06,1.24-5.27,1.47-5.25l-.53.91a6.35,6.35,0,0,1,.67-.92l-.73,1.16c2.57-2.67.07.54,1.75-.32.34.09-1.62,1-1.38,1l1.61-.37c-1.59.67-2.7,1.09-6.36-.25,1.31.11.31.12,1.58.41,1.79.31-.83-.44-1.53-1.15.86.2.47.43,1.65.88-.88-.77,1.7,1,.78.51-.71-.57-.51-.44-1-.79,1.61.82-.66,1.69-.66,2.08-1.54.13-1.31-2.53,4.19-2.72l-.12.59c2.18-.91,2.88,1.56,3.59,1.4Z" transform="translate(-17.37 -8.76)"/><path class="cls-2" d="M402.1,19.72l-1.36.34,1.06.92C402.86,20.42,401.89,20.32,402.1,19.72Z" transform="translate(-17.37 -8.76)"/><polygon class="cls-2" points="389 10.71 388.29 10.29 388.49 11.07 389 10.71"/><path class="cls-2" d="M408.42,31.7l.06-.25a9,9,0,0,1-2.23-1A8.68,8.68,0,0,0,408.42,31.7Z" transform="translate(-17.37 -8.76)"/><path class="cls-2" d="M425,32.88c.35.69-.15.76,0,1.31l.25-1.28Z" transform="translate(-17.37 -8.76)"/><path class="cls-2" d="M435,19c-2.6-.44-.22-1.53-2.32-.18C433.32,19.9,434.16,18.76,435,19Z" transform="translate(-17.37 -8.76)"/><path class="cls-2" d="M430.44,15.6c.13.61.59.81,1.07,1C432.32,15.5,431.06,15.85,430.44,15.6Z" transform="translate(-17.37 -8.76)"/><path class="cls-1" d="M698.47,63.07c2.82-20.23-13.17-23.74-27.18-23.74-19.06,0-28.74,9.77-32.6,19.17-.07-16.16-14.58-19.17-27.45-19.17-18.39,0-28.07,9.09-32.17,18.16-3.31-14.58-15.7-18.16-26-18.16-19.23,0-30,10.36-35.88,20.37,1.28-13.38-7.5-20.37-20.39-20.37-13.61,0-20.74,8.09-24.22,12.42h-.27l2.23-10.53H445.25l4.12-19.42H430.5l-4.14,19.42h-9.72l-2.87,13.5h9.72l-9.25,43.56c-2,9.31-.35,15.52,16,15.52h2.43c2.92,0,5.89-.13,26.21-.81h1.22l8.76-41.13c2.32-10.93,10-16.6,18.35-16.6,12,0,10.38,8.92,9.25,14.18L487.2,113h18.9L509.89,95c2.4,14.55,13.56,19.85,28.46,19.85A38.07,38.07,0,0,0,569,99.79c2.84,11.41,16,15.09,29.15,15.09,8.69,0,23.32-2.33,31.5-13.16,3.77,9.88,16.2,13.16,28.55,13.16,11.19,0,32.22-3.79,36.66-24.69,5.64-26.44-41-18.22-38.63-29.55.66-3.1,2.85-7,13.1-7s10.83,4.85,10.68,9.44ZM434.1,93.69l8.28-39h11.21l-9.49,44.65c-2.27.1-2.87.14-3.41.14C433,99.5,433.22,97.87,434.1,93.69ZM549.5,54.83c6.07,0,12.74,3.52,11.35,15.12H531.57C534.66,60.52,540.59,54.83,549.5,54.83Zm65.8,38.32c-.56,2.69-3.85,7.41-13.57,7.41-11.87,0-14.7-4.45-13.41-10.52H555.36a14.32,14.32,0,0,1-13.8,9.72c-15.25,0-13.74-12.14-13.14-17.53h49.25l.7-3.38c.25-1.19.47-2.33.65-3.45C587.75,87.43,617.36,83.51,615.29,93.16Zm60.06,0c-.57,2.69-3.86,7.41-13.59,7.41-11.86,0-14.68-4.45-13.4-10.52H634.84c5.42-26.26-41.06-18.09-38.67-29.4.66-3.1,2.86-7,13.11-7s10.83,4.85,10.67,9.44h17.3a2.37,2.37,0,0,1-.08.27C631.47,90.19,677.91,81.14,675.36,93.16Z" transform="translate(-17.37 -8.76)"/></svg>