<svg xmlns="http://www.w3.org/2000/svg" viewBox="0 0 184.14 39.51"><defs><style>.cls-1{fill:#fff;}</style></defs><title>publix</title><rect class="cls-1" x="114.2" y="1.62" width="6.67" height="36.94"/><path class="cls-1" d="M147.13,47.74h-6.68V20.31h6.68Z" transform="translate(-8.23 -9.19)"/><path class="cls-1" d="M169.16,40.31c-2.2,4.28-3.95,7.55-4,7.55h-6.93l7.07-13.94L157,20.38h7.23l4.25,7.06,3.56-7.06h7.22s-3.39,6.8-6.87,13.62l8.32,13.86h-6.94Z" transform="translate(-8.23 -9.19)"/><path class="cls-1" d="M47.37,35.89V20.31h6.32c.14,5.07-.08,10.83,0,15.63a6.1,6.1,0,0,0,5.94,6.15,5.77,5.77,0,0,0,5.95-5.76l0-16h6.41c0,8.11-.08,9.72,0,15.8a12.29,12.29,0,1,1-24.58-.22" transform="translate(-8.23 -9.19)"/><path class="cls-1" d="M97.9,19.62a14.54,14.54,0,1,1,0,29.08c-8,0-14.62-7-14.62-15V10.79H90l0,11.54A14.22,14.22,0,0,1,97.9,19.62Zm0,22.25a7.69,7.69,0,1,0-7.69-7.69A7.69,7.69,0,0,0,97.86,41.87Z" transform="translate(-8.23 -9.19)"/><path class="cls-1" d="M22.76,9.73a14.55,14.55,0,1,1-7.84,26.91l0,11.15H8.24V24A14.31,14.31,0,0,1,22.76,9.73Zm0,22.21a7.65,7.65,0,1,0-7.65-7.65A7.65,7.65,0,0,0,22.75,31.94Z" transform="translate(-8.23 -9.19)"/><circle class="cls-1" cx="135.87" cy="4.12" r="4.13"/><path class="cls-1" d="M189.11,41.3a3.26,3.26,0,1,1-3.27,3.27A3.27,3.27,0,0,1,189.11,41.3Zm0,6.06a2.79,2.79,0,1,0-2.79-2.79A2.79,2.79,0,0,0,189.11,47.36Zm-.71-.92h-.47V42.67h1.45c.85,0,1.19.37,1.19,1a1,1,0,0,1-.95,1.07l1.12,1.65h-.54l-1.12-1.65h-.68Zm0-2.07H189c.52,0,1.08,0,1.08-.65s-.44-.62-.84-.62h-.84Z" transform="translate(-8.23 -9.19)"/></svg>