<svg id="Layer_1" data-name="Layer 1" xmlns="http://www.w3.org/2000/svg" viewBox="0 0 125.06 107.7"><defs><style>.cls-1,.cls-4{fill:#fff;}.cls-1{stroke:#fff;stroke-width:7.05px;}.cls-2{fill:#004f99;}.cls-3{fill:#ef3e42;}</style></defs><title>Rite_Aid_ffffff</title><path class="cls-1" d="M123.17,45.4h0V10.75a6.28,6.28,0,0,0-6.35-6.11H11.93C7.58,4.65,5.16,6.88,5.16,11V46.54" transform="translate(-1.63 -1.12)"/><path class="cls-1" d="M5.16,46.54V76.46C5.4,86.34,17,89.3,17.06,89.3L64,105.1,111,89.27s12.15-3,12.15-13V45.4" transform="translate(-1.63 -1.12)"/><path class="cls-2" d="M123.17,44.13V10.75a6.28,6.28,0,0,0-6.35-6.11H11.93C7.58,4.65,5.16,6.88,5.16,11V32.9c0,.08,0,11.24,0,11.24h118Z" transform="translate(-1.63 -1.12)"/><path class="cls-3" d="M5.17,47.92s0,12.28,0,12.25V76.46C5.4,86.34,17,89.3,17.06,89.3L64,105.1,111,89.27s12.15-3,12.15-13V47.94H5.17Z" transform="translate(-1.63 -1.12)"/><path class="cls-4" d="M27.43,86.48S39,55.2,38.89,55.14h7.44S58.61,86.44,58.5,86.48H51.07l-1.9-5H36.55l-1.8,5Zm19.46-11-4-10.54-.09-.12L39,75.43Z" transform="translate(-1.63 -1.12)"/><polygon class="cls-4" points="60.02 54.2 67.39 54.2 67.39 85.3 60.02 85.3 60.02 54.2 60.02 54.2"/><path class="cls-4" d="M74.3,55.32H89.63c4.57,0,11.86,3.83,11.92,14.92C101.6,79,97.76,86.42,87,86.42H74.3V55.32Zm7,25.46H86c7,0,8.69-4.7,8.64-9.82-.06-6.15-1.55-9.83-8.17-9.83H81.3V80.78Z" transform="translate(-1.63 -1.12)"/><polygon class="cls-4" points="48.87 8.65 56.57 8.65 56.57 37.52 48.87 37.52 48.87 8.65 48.87 8.65"/><polygon class="cls-4" points="58.82 8.65 81.1 8.65 81.1 15.13 73.77 15.13 73.77 37.52 66.25 37.52 66.25 15.13 58.82 15.13 58.82 8.65 58.82 8.65"/><polygon class="cls-4" points="103.63 20.13 103.63 26.24 90.79 26.24 90.79 31.41 105.89 31.41 105.89 37.52 83.76 37.52 83.76 8.65 105.89 8.65 105.89 15.13 90.79 15.13 90.79 20.13 103.63 20.13 103.63 20.13"/><path class="cls-4" d="M22.15,9.82H37.37c7.4,0,10.43,4.25,10.43,9.89a9.6,9.6,0,0,1-6.18,8.8s6.67,10.28,6.54,10.18H39S27.78,23.53,27.75,23.53H36c.9,0,4.26-.15,4.29-3.72s-3-3.88-4.3-3.88H29.17V38.69h-7V9.82Z" transform="translate(-1.63 -1.12)"/><path class="cls-2" d="M108.65,98.06a3.68,3.68,0,1,1,3.68,3.64A3.62,3.62,0,0,1,108.65,98.06Zm3.68,3a3,3,0,1,0-3-3A2.93,2.93,0,0,0,112.33,101.1Zm-.77-.93h-.63V96h1.59c1,0,1.48.37,1.48,1.19a1.09,1.09,0,0,1-1.08,1.15l1.19,1.84h-.71l-1.1-1.81h-.73Zm.76-2.35c.54,0,1,0,1-.68s-.47-.61-.91-.61h-.87v1.3Z" transform="translate(-1.63 -1.12)"/></svg>