<svg id="Layer_1" data-name="Layer 1" xmlns="http://www.w3.org/2000/svg" viewBox="0 0 287.85 116.13"><defs><style>.cls-1{fill:#fff;fill-rule:evenodd;}</style></defs><title>Ross</title><path class="cls-1" d="M32.73,118.74a2.4,2.4,0,0,1-4.8,0v-12a2.4,2.4,0,1,1,4.8,0v12Z" transform="translate(-6.11 -5)"/><path class="cls-1" d="M45.37,121.13a2.4,2.4,0,0,0,0-4.8H40.6a1.76,1.76,0,0,1-1.76-1.76,1.73,1.73,0,0,1,.58-1.31l6.34-5.64a6,6,0,0,0-4-10.5H30.33a2.4,2.4,0,0,0,0,4.8H41.74a1.2,1.2,0,0,1,.85,2l-6.42,5.89a6.52,6.52,0,0,0,4.45,11.29Z" transform="translate(-6.11 -5)"/><path class="cls-1" d="M72,121.13a2.4,2.4,0,1,1,0-4.8h11.4a1.76,1.76,0,0,0,.6-3.41l-10.59-4.18a6,6,0,0,1,2.2-11.62H87.54a2.4,2.4,0,0,1,0,4.8H75.62a1.2,1.2,0,0,0-.49,2.29l10.64,4.32a6.52,6.52,0,0,1-2.33,12.61Z" transform="translate(-6.11 -5)"/><path class="cls-1" d="M10.92,116.32H14a7.21,7.21,0,0,0,0-14.42H8.51a2.4,2.4,0,1,1,0-4.8H14a12,12,0,0,1,0,24H8.51a2.4,2.4,0,0,1-2.4-2.4v-12a2.4,2.4,0,0,1,4.81,0v9.62Z" transform="translate(-6.11 -5)"/><path class="cls-1" d="M54.57,116.33H65.22a2.4,2.4,0,0,1,0,4.8H52.17a2.4,2.4,0,0,1-2.4-2.4v-12a2.4,2.4,0,0,1,2.4-2.4H65.22a2.4,2.4,0,1,1,0,4.79H54.57v7.22Z" transform="translate(-6.11 -5)"/><path class="cls-1" d="M65.22,101.91a2.4,2.4,0,0,0,0-4.8H52.17a2.4,2.4,0,0,0,0,4.8Z" transform="translate(-6.11 -5)"/><path class="cls-1" d="M94.35,121.13a2.4,2.4,0,1,1,0-4.8h11.4a1.76,1.76,0,0,0,.6-3.41l-10.59-4.18A6,6,0,0,1,98,97.12h11.91a2.4,2.4,0,1,1,0,4.8H98a1.2,1.2,0,0,0-.49,2.29l10.64,4.32a6.52,6.52,0,0,1-2.34,12.61Z" transform="translate(-6.11 -5)"/><path class="cls-1" d="M216.42,116.3h10.65a2.4,2.4,0,0,1,0,4.8H214a2.4,2.4,0,0,1-2.4-2.4V99.49a2.4,2.4,0,1,1,4.79,0V116.3Z" transform="translate(-6.11 -5)"/><path class="cls-1" d="M151.45,101.84a12,12,0,1,1-2.45,7.26,11.75,11.75,0,0,1,.47-3.34,2.38,2.38,0,0,1,2.22-1.51,2.41,2.41,0,0,1,2.4,2.42,2.36,2.36,0,0,1-.08.64,7.2,7.2,0,1,0,7-5.48Z" transform="translate(-6.11 -5)"/><path class="cls-1" d="M133.94,109.08h10.65a2.4,2.4,0,1,0,0-4.8h-13a2.4,2.4,0,0,0-2.4,2.4v12a2.4,2.4,0,1,0,4.79,0v-9.62Z" transform="translate(-6.11 -5)"/><path class="cls-1" d="M144.59,101.89a2.4,2.4,0,1,0,0-4.8h-13a2.4,2.4,0,1,0,0,4.8Z" transform="translate(-6.11 -5)"/><path class="cls-1" d="M179.78,118.7a2.4,2.4,0,0,1-4.8,0v-12a2.4,2.4,0,1,1,4.8,0v12Z" transform="translate(-6.11 -5)"/><path class="cls-1" d="M192.42,121.09a2.4,2.4,0,0,0,0-4.8h-4.77a1.76,1.76,0,0,1-1.17-3.06l6.34-5.64a6,6,0,0,0-4-10.5H177.38a2.4,2.4,0,0,0,0,4.8h11.4a1.19,1.19,0,0,1,1.2,1.2,1.16,1.16,0,0,1-.35.85l-6.41,5.88a6.52,6.52,0,0,0,4.44,11.28Z" transform="translate(-6.11 -5)"/><path class="cls-1" d="M276,121.11a2.4,2.4,0,0,1,0-4.8h11.4a1.76,1.76,0,0,0,.6-3.41l-10.59-4.18a6,6,0,0,1,2.21-11.62h11.91a2.4,2.4,0,1,1,0,4.8l-11.92,0a1.2,1.2,0,0,0-.49,2.3l10.64,4.31a6.52,6.52,0,0,1-2.33,12.61Z" transform="translate(-6.11 -5)"/><path class="cls-1" d="M236.26,116.3h10.65a2.4,2.4,0,0,1,0,4.8H233.86a2.4,2.4,0,0,1-2.4-2.4v-12a2.4,2.4,0,0,1,2.4-2.4h13.05a2.4,2.4,0,1,1,0,4.8H236.26v7.22Z" transform="translate(-6.11 -5)"/><path class="cls-1" d="M246.91,101.9a2.4,2.4,0,1,0,0-4.8H233.86a2.4,2.4,0,1,0,0,4.8Z" transform="translate(-6.11 -5)"/><path class="cls-1" d="M253.7,121.11a2.4,2.4,0,0,1,0-4.8h11.4a1.76,1.76,0,0,0,.6-3.41l-10.59-4.18a6,6,0,0,1,2.21-11.62h11.91a2.4,2.4,0,0,1,0,4.8l-11.92,0a1.2,1.2,0,0,0-.49,2.3l10.64,4.31a6.52,6.52,0,0,1-2.33,12.61Z" transform="translate(-6.11 -5)"/><path class="cls-1" d="M83.24,20.24a38.3,38.3,0,1,1-6.37,12.63A7.67,7.67,0,0,1,84,28a7.75,7.75,0,0,1,7.71,7.78,7.62,7.62,0,0,1-.27,2.07,23.18,23.18,0,1,0,22.49-17.63Z" transform="translate(-6.11 -5)"/><path class="cls-1" d="M21.85,74.49a7.71,7.71,0,1,1-15.43,0V35.84a7.71,7.71,0,1,1,15.43,0V74.49Z" transform="translate(-6.11 -5)"/><path class="cls-1" d="M62.49,82.2a7.71,7.71,0,1,0,0-15.43H47.16a5.65,5.65,0,0,1-3.78-9.85L63.76,38.78A19.35,19.35,0,0,0,50.85,5H14.13a7.72,7.72,0,0,0,0,15.43l36.68,0A3.86,3.86,0,0,1,53.54,27L32.91,45.89a21,21,0,0,0,14.3,36.3Z" transform="translate(-6.11 -5)"/><path class="cls-1" d="M165.72,82.2a7.71,7.71,0,1,1,0-15.43h36.67a5.65,5.65,0,0,0,1.93-11L170.27,42.37A19.36,19.36,0,0,1,177.36,5h38.3a7.72,7.72,0,1,1,0,15.43l-38.34,0a3.86,3.86,0,0,0-1.58,7.38l34.21,13.88a21,21,0,0,1-7.5,40.55Z" transform="translate(-6.11 -5)"/><path class="cls-1" d="M236.24,82.2a7.71,7.71,0,1,1,0-15.43h36.66a5.65,5.65,0,0,0,1.94-11L240.78,42.37A19.36,19.36,0,0,1,247.88,5h38.3a7.72,7.72,0,1,1,0,15.43l-38.34,0a3.86,3.86,0,0,0-1.58,7.38l34.21,13.88A21,21,0,0,1,273,82.2Z" transform="translate(-6.11 -5)"/></svg>