<svg id="Layer_1" data-name="Layer 1" xmlns="http://www.w3.org/2000/svg" viewBox="0 0 199.15 80.27"><defs><style>.cls-1{fill:#b5121b;}.cls-2{fill:#010101;}</style></defs><title>Ruby_Tuesday</title><path class="cls-1" d="M29.43,23.1v8.75a3.1,3.1,0,0,0,.17,1.26q.48,1,2.46,1H34.6v4H16.17v-4h2.55a3.11,3.11,0,0,0,2-.51,2.27,2.27,0,0,0,.58-1.78V11.94a3.11,3.11,0,0,0-.17-1.26q-.48-1-2.46-1H16.17v-4H39.8q5,0,7.53,2.34a7.17,7.17,0,0,1,2.24,5.53q0,6.06-7.18,7.75a10.39,10.39,0,0,1,3.1,1.52,4.84,4.84,0,0,1,1.74,4v4.86a18.13,18.13,0,0,0,.21,2,1.09,1.09,0,0,0,1.14,1,1.23,1.23,0,0,0,1.14-.74,5.15,5.15,0,0,0,.38-2.27V28.87H54v2.72q0,3.69-1.57,5.44-1.86,2-5.79,2a7.78,7.78,0,0,1-5.65-1.88A6,6,0,0,1,39.27,33L39,27.61a10.15,10.15,0,0,0-.31-2.28A3.26,3.26,0,0,0,37.91,24,2.88,2.88,0,0,0,36,23.12q-.22,0-1.5,0Zm0-4.2h5.72q6,0,6-4.65a5,5,0,0,0-.56-2.38A3.08,3.08,0,0,0,39,10.42a12,12,0,0,0-4.53-.6H29.43Z" transform="translate(-2.75 -5.62)"/><path class="cls-1" d="M79.51,14.9V32a2.69,2.69,0,0,0,.36,1.67,1.63,1.63,0,0,0,1.41.5h2.17v4H72.29V34.92A16.59,16.59,0,0,1,70,37.24,8.88,8.88,0,0,1,64.47,39,7.57,7.57,0,0,1,59.05,37a5.51,5.51,0,0,1-1.57-2.55,10.46,10.46,0,0,1-.31-2.72V21a2.68,2.68,0,0,0-.36-1.67,1.63,1.63,0,0,0-1.41-.5H53.5v-4H64.4V29.25a8.72,8.72,0,0,0,.36,3.1,3,3,0,0,0,3,2,4.14,4.14,0,0,0,3.58-1.67,4.45,4.45,0,0,0,.86-2.07,18.66,18.66,0,0,0,.1-2.1V21a2.92,2.92,0,0,0-.36-1.67,1.67,1.67,0,0,0-1.41-.5h-2v-4Z" transform="translate(-2.75 -5.62)"/><path class="cls-1" d="M93.73,5.62v12a13,13,0,0,1,2.38-2.12,8.37,8.37,0,0,1,4.67-1.29A9,9,0,0,1,108.56,18q2.19,3,2.19,8.39,0,6.75-3.46,10a9.83,9.83,0,0,1-7,2.65q-5.55,0-7.75-4.17l-1.29,3.36H86.51V11.78a2.69,2.69,0,0,0-.36-1.67,1.68,1.68,0,0,0-1.41-.5h-2v-4Zm4.65,13.21q-2.46,0-3.77,2.74a12.37,12.37,0,0,0-1,5.34,10.69,10.69,0,0,0,1.26,5.79,3.82,3.82,0,0,0,3.39,1.88,3.93,3.93,0,0,0,3.7-2.43,12.61,12.61,0,0,0,1-5.6,11.31,11.31,0,0,0-1.34-5.91A3.62,3.62,0,0,0,98.38,18.83Z" transform="translate(-2.75 -5.62)"/><path class="cls-1" d="M126.94,30.73l4.34-10.16a2.87,2.87,0,0,0,.29-1c0-.46-.39-.69-1.17-.69h-1.88v-4h10.71v4h-1a2.07,2.07,0,0,0-1.5.45,7.77,7.77,0,0,0-.93,1.69l-9.22,20.77A15,15,0,0,1,123.22,47,7.66,7.66,0,0,1,118,48.68a7.26,7.26,0,0,1-4.93-1.6,5.09,5.09,0,0,1-1.81-4,4.86,4.86,0,0,1,1.41-3.6,3.65,3.65,0,0,1,2.69-1.07A3.4,3.4,0,0,1,118,39.55a3.15,3.15,0,0,1,.84,2.17,2.63,2.63,0,0,1-1.6,2.6,8.06,8.06,0,0,1-1.36.43,2.28,2.28,0,0,0,1.88.91q2.22,0,3.79-2.79.71-1.29,1.57-3.27l-8.32-19a3.15,3.15,0,0,0-1-1.41,3.4,3.4,0,0,0-1.67-.29H111v-4H125.9v4h-2q-1.38,0-1.38.67a2.37,2.37,0,0,0,.21.79Z" transform="translate(-2.75 -5.62)"/><path class="cls-2" d="M22.86,46.31V68.75A3.14,3.14,0,0,0,23,70q.51,1,2.52,1h3.18v4.1H8.7v-4.1h3.23a3.21,3.21,0,0,0,2.1-.52,2.31,2.31,0,0,0,.6-1.81V46.31l-1.29,0q-4.64,0-5.56,4.08A27.79,27.79,0,0,0,7.29,55H2.75V42H34.61V55H30q0-.94,0-1.41a8.53,8.53,0,0,0-1.58-5.51,5.2,5.2,0,0,0-4.27-1.85C23.85,46.26,23.39,46.28,22.86,46.31Z" transform="translate(-2.75 -5.62)"/><path class="cls-2" d="M62.44,51.48V68.92a2.73,2.73,0,0,0,.36,1.7,1.66,1.66,0,0,0,1.43.51h2.21v4.06H55.08v-3.3a17,17,0,0,1-2.28,2.36A9.05,9.05,0,0,1,47.12,76a7.71,7.71,0,0,1-5.51-2,5.63,5.63,0,0,1-1.6-2.6,10.71,10.71,0,0,1-.31-2.77V57.75a2.73,2.73,0,0,0-.36-1.7,1.66,1.66,0,0,0-1.43-.51H35.95V51.48H47V66.1a8.87,8.87,0,0,0,.37,3.16,3.09,3.09,0,0,0,3.06,2,4.22,4.22,0,0,0,3.64-1.7A4.53,4.53,0,0,0,55,67.43a19.09,19.09,0,0,0,.1-2.14V57.75a3,3,0,0,0-.37-1.7,1.71,1.71,0,0,0-1.43-.51H51.2V51.48Z" transform="translate(-2.75 -5.62)"/><path class="cls-2" d="M91.71,64.23H74.6q.56,7.5,6.17,7.5a5.59,5.59,0,0,0,4.44-2A7.24,7.24,0,0,0,86.64,67h4.78a9.92,9.92,0,0,1-1.82,4.73Q86.42,76,79.74,76,73.38,76,70,72A12.4,12.4,0,0,1,67,63.53a15.24,15.24,0,0,1,1.08-5.85A10.75,10.75,0,0,1,71.2,53.4a12.69,12.69,0,0,1,8.23-2.65q6.07,0,9.45,3.77a11.88,11.88,0,0,1,2.87,8.23Q91.74,63.33,91.71,64.23Zm-7.58-3.81v-.51a5.89,5.89,0,0,0-1.48-3.84,4,4,0,0,0-3.21-1.33,4.21,4.21,0,0,0-4.25,2.84,8.32,8.32,0,0,0-.56,2.84Z" transform="translate(-2.75 -5.62)"/><path class="cls-2" d="M115.06,51.48v8.36h-4a7.12,7.12,0,0,0-7.28-5.15,4.86,4.86,0,0,0-2.58.58,1.87,1.87,0,0,0-1,1.63q0,1.24,1.87,1.87,1.46.48,6.58,1.65a10.94,10.94,0,0,1,5.42,2.6A6.71,6.71,0,0,1,116,68a7.17,7.17,0,0,1-3.23,6.43A12,12,0,0,1,106.1,76a12,12,0,0,1-6.29-1.51,11.62,11.62,0,0,1-1.87-1.38l-.44,2.06H93.71v-9H97.5a10.37,10.37,0,0,0,1.58,3.28,6.72,6.72,0,0,0,2.72,1.88,9.76,9.76,0,0,0,3.67.69,4.8,4.8,0,0,0,2.77-.68,2.09,2.09,0,0,0,1-1.75q0-1.41-2.06-2.06-2.38-.75-6.26-1.67-4.11-1-5.51-2.55a6.68,6.68,0,0,1-1.67-4.66,7.12,7.12,0,0,1,3.16-6.34,11.31,11.31,0,0,1,6.34-1.58,12.75,12.75,0,0,1,6,1.29,9.5,9.5,0,0,1,1.85,1.24l.44-1.8Z" transform="translate(-2.75 -5.62)"/><path class="cls-2" d="M142.53,42V68.92a2.73,2.73,0,0,0,.37,1.7,1.7,1.7,0,0,0,1.43.51h2v4.06H135.59V72.46A9.55,9.55,0,0,1,128,76a10.06,10.06,0,0,1-4.63-1.09,9.75,9.75,0,0,1-3.56-3.06A13.42,13.42,0,0,1,117.74,64a17.82,17.82,0,0,1,.95-5.89,11.85,11.85,0,0,1,2.62-4.46,9.36,9.36,0,0,1,6.9-2.89,8,8,0,0,1,5,1.68A15.31,15.31,0,0,1,135,54.1V48.3a2.74,2.74,0,0,0-.36-1.7,1.71,1.71,0,0,0-1.43-.51h-2.14V42Zm-12,13.53a4.11,4.11,0,0,0-3.79,2.65A12.93,12.93,0,0,0,125.61,64a10.91,10.91,0,0,0,1.29,5.9,3.81,3.81,0,0,0,3.35,1.94A4.56,4.56,0,0,0,134.4,69a12.17,12.17,0,0,0,1.12-5.71,11.07,11.07,0,0,0-1.26-5.59A4.09,4.09,0,0,0,130.49,55.56Z" transform="translate(-2.75 -5.62)"/><path class="cls-2" d="M171.73,66.44h3.35v2.82q0,3.69-1.7,5.27A6.48,6.48,0,0,1,168.79,76a7,7,0,0,1-5-1.6,5.52,5.52,0,0,1-1.26-2A9.8,9.8,0,0,1,154.63,76q-3.84,0-5.68-2.38a6.6,6.6,0,0,1-1.36-4.18q0-4.66,4.06-6.12,1.24-.44,6.07-1.53a9.27,9.27,0,0,0,3.62-1.36,2.86,2.86,0,0,0,1-2.36A3.15,3.15,0,0,0,161,55.37a7.29,7.29,0,0,0-4.23-1,6.72,6.72,0,0,0-2.94.61,3,3,0,0,1,2.28,2.89,3.37,3.37,0,0,1-.95,2.4,3.56,3.56,0,0,1-2.62,1,3.81,3.81,0,0,1-3.06-1.39,4.06,4.06,0,0,1-1-2.77q0-4,4.32-5.63a16.49,16.49,0,0,1,5.61-.75,18.83,18.83,0,0,1,7.12,1,6.27,6.27,0,0,1,3.64,3.76,10.52,10.52,0,0,1,.43,3.3v11q0,1.67,1,1.67a1,1,0,0,0,1-.85,6.28,6.28,0,0,0,.12-1.41Zm-9.47-2.36-.51.17q-2.65,1-3.54,1.24a6.81,6.81,0,0,0-2.53,1.16,2.75,2.75,0,0,0-.68,2,2.54,2.54,0,0,0,.88,2.07,2.91,2.91,0,0,0,1.89.66,5,5,0,0,0,3-.95,3.24,3.24,0,0,0,1.53-2.65Z" transform="translate(-2.75 -5.62)"/><path class="cls-2" d="M189.39,67.61l4.42-10.34a2.92,2.92,0,0,0,.29-1q0-.7-1.19-.7H191V51.48h10.9v4.06h-1a2.1,2.1,0,0,0-1.53.46,7.77,7.77,0,0,0-.95,1.72l-9.4,21.15a15.24,15.24,0,0,1-3.45,5.27,7.81,7.81,0,0,1-5.34,1.75,7.39,7.39,0,0,1-5-1.63,5.2,5.2,0,0,1-1.85-4.06,5,5,0,0,1,1.43-3.67,3.72,3.72,0,0,1,2.74-1.09,3.47,3.47,0,0,1,2.72,1.14,3.21,3.21,0,0,1,.85,2.21,2.68,2.68,0,0,1-1.63,2.65,8.2,8.2,0,0,1-1.38.44,2.33,2.33,0,0,0,1.92.92q2.26,0,3.86-2.84.73-1.31,1.6-3.33L177,57.26a3.22,3.22,0,0,0-1-1.43,3.49,3.49,0,0,0-1.7-.29H173.2V51.48h15.13v4.06h-2q-1.41,0-1.41.68a2.39,2.39,0,0,0,.22.8Z" transform="translate(-2.75 -5.62)"/></svg>