<svg id="Layer_1" data-name="Layer 1" xmlns="http://www.w3.org/2000/svg" viewBox="0 0 98.94 18.15"><defs><style>.cls-1{fill:#231f20;}.cls-2{fill:#e03b3f;}.cls-3{fill:#fff;}</style></defs><title>Safeway</title><path class="cls-1" d="M7.11,8.42,6.2,7.89C5.09,7.25,4.49,6.76,4.49,6s.69-1.37,1.82-1.37a6.57,6.57,0,0,1,2.93,1l.16.09V3.5l0,0a7.13,7.13,0,0,0-3.23-.77c-2.36,0-3.94,1.36-3.94,3.39,0,1.68,1.09,2.66,2.72,3.61l1,.57c1.35.79,1.83,1.38,1.83,2.24S6.81,14.2,5.53,14.2A6.6,6.6,0,0,1,2,12.93l0,0v2.53l.17.09a8.08,8.08,0,0,0,3.46.76c2.66,0,4.45-1.53,4.45-3.82C10.09,10.81,9.26,9.68,7.11,8.42Z" transform="translate(-2 -0.21)"/><path class="cls-1" d="M23.41,3V16h2.31V10.29H30.8v-2H25.71V5.06h5.36V3Z" transform="translate(-2 -0.21)"/><path class="cls-1" d="M34.82,10.2h4.89v-2H34.82V5.06h5.3V3H32.55V16h7.66V13.91H34.82Z" transform="translate(-2 -0.21)"/><path class="cls-1" d="M76.22,3H73.45l-2.93,4.6a2.59,2.59,0,0,0-.27.49h0a2.77,2.77,0,0,0-.28-.49C68.14,4.8,67,3,67,3H64.25l4.82,7.07V16h2.34V10.07Z" transform="translate(-2 -0.21)"/><path class="cls-1" d="M61.22,2.6H61L54.89,16h2.49l1-2.25h5.52l1,2.25h2.48L61.22,2.6m-2.08,9.25s1.08-2.6,1.77-4.2A3.68,3.68,0,0,0,61.09,7h0a4.83,4.83,0,0,0,.18.63l1.77,4.2Z" transform="translate(-2 -0.21)"/><path class="cls-1" d="M49,8.7a3.94,3.94,0,0,0,.18-.65h0a4.94,4.94,0,0,0,.18.65l3.1,7.73h.21L57.41,3H55l-2.3,7.22a6,6,0,0,0-.16.64h0a4.51,4.51,0,0,0-.18-.64c-.43-1.15-3-7.7-3-7.7h-.2L46.2,10.22a4.35,4.35,0,0,0-.17.65h0a6.51,6.51,0,0,0-.17-.64C45.25,8.42,43.53,3,43.53,3H41.09l4.65,13.42H46Z" transform="translate(-2 -0.21)"/><path class="cls-1" d="M16.47,2.59h-.22L10.15,16h2.49l1-2.25h5.52l1,2.25h2.48L16.47,2.59M14.4,11.84s1.08-2.6,1.77-4.21A3.65,3.65,0,0,0,16.35,7h0a4.72,4.72,0,0,0,.18.64c.72,1.69,1.77,4.21,1.77,4.21Z" transform="translate(-2 -0.21)"/><path class="cls-2" d="M89.23,15.06c0-3.59-5.33-3.93-5.33-9,0-3.68,2.86-5.5,5.7-5.81l-.92,0c-.69,0-1,0-1.6.05-5.31.26-8.15,3.1-8.33,7.48,0,.28,0,.77,0,1.54h0c0,.77,0,1.26,0,1.54.17,4.25,2.86,7.06,7.9,7.45A3,3,0,0,0,89.23,15.06Z" transform="translate(-2 -0.21)"/><path class="cls-2" d="M98.61,7.74C98.45,3.6,95.89.83,91.1.33a3,3,0,0,0-2.52,3.2c0,3.6,5.33,3.93,5.33,9,0,3.19-2.42,5.52-6,5.79h.8c.68,0,1,0,1.6-.05,5.31-.26,8.15-3.1,8.33-7.48,0-.29,0-.77,0-1.54h0C98.65,8.51,98.62,8,98.61,7.74Z" transform="translate(-2 -0.21)"/><path class="cls-3" d="M93.92,12.56c0-5.1-5.33-5.43-5.33-9A3,3,0,0,1,91.1.33L90.28.27l-.68,0C86.76.53,83.9,2.36,83.9,6c0,5.1,5.33,5.44,5.33,9a3,3,0,0,1-2.58,3.21l.42,0,.81,0C91.5,18.08,93.92,15.75,93.92,12.56Z" transform="translate(-2 -0.21)"/><path class="cls-1" d="M99,17.34h-.36v-.13h.89v.13h-.36v1H99Zm.69-.13H100l.33.88.34-.88h.28v1.14h-.18v-1h0l-.38,1h-.12l-.38-1h0v1h-.18Z" transform="translate(-2 -0.21)"/></svg>