<svg id="Layer_1" data-name="Layer 1" xmlns="http://www.w3.org/2000/svg" viewBox="0 0 187.09 36.49"><defs><style>.cls-1{fill:#fff;fill-rule:evenodd;}</style></defs><title>Saks_Fifth_Avenue</title><path class="cls-1" d="M91.18,34.79l.63-.89c1.4,1.64,7.09,3.51,8.55,4a21,21,0,0,0,13.11-.05,16.84,16.84,0,0,0,5.69-4,37.37,37.37,0,0,0,5.33-8,43.46,43.46,0,0,1,3.22-6,22.16,22.16,0,0,1,4.81-5.5,31.35,31.35,0,0,1,3.89-2.68,22.3,22.3,0,0,1,4.15-1.74,21.79,21.79,0,0,1-5.22-2c-1.16-.61-3.2-2-4.83-2.34a7.48,7.48,0,0,0-3.55.07,9.41,9.41,0,0,0-2,.82,6.73,6.73,0,0,0-2.15,1.87,6.81,6.81,0,0,0-1.42,3.23,4.08,4.08,0,0,0,1.06,3.56A4.76,4.76,0,0,0,125,16.35l-.17.91a7.75,7.75,0,0,1-2.47-1A4.53,4.53,0,0,1,121,14.8a4.29,4.29,0,0,1-.62-2.12,7.94,7.94,0,0,1,.47-3A7.83,7.83,0,0,1,123.79,6a8.8,8.8,0,0,1,3-1.31,8.1,8.1,0,0,1,4-.1c1.92.47,4.29,2.09,5.71,2.78a21,21,0,0,0,5.33,1.8c.84.11,2.61.18,3.89.39-.6.52-2.22,2.17-3.16,3a21.22,21.22,0,0,0-4,4.51,25.88,25.88,0,0,0-3.42,7.59l4.24,0,1.66-3.5,2.55-.17-4.45,10.25c-.37.91-.2,1.67.41,2a2.12,2.12,0,0,0,1.81.11,6.47,6.47,0,0,0,2.46-1.83,10.47,10.47,0,0,0,2.45-5,7.65,7.65,0,0,1-1.34-3.05,4.33,4.33,0,0,1,.05-1.7c.3-1.1,1-1.68,1.78-1.63s1.21.56,1.35,1.63a6.52,6.52,0,0,1-.23,2.83,4.48,4.48,0,0,0,.88.43c.62-.89,2.46-3.4,4-4.19,1.71-.91,3.18-.69,3.94-.09,1.24.95.84,2.71-.47,4a6.67,6.67,0,0,1-2.7,1.84,7.26,7.26,0,0,1-3.12.15,6.92,6.92,0,0,0-.86,2.67c-.19,1.65.32,3.18,1.44,3.41,1.38.23,3.5-1.48,4.09-2.41l4.92-9.61H163l-.34.68a6.38,6.38,0,0,1,4.14-1.28,1.41,1.41,0,0,1,1.06,2.15l-4.43,9.54c-.74,1.67,1.59,2.56,2.69.29l5.54-11.43h2.71L169.51,31a1.55,1.55,0,0,0,1.06,2.24,2.51,2.51,0,0,0,2.91-1.51l5.11-10.83h3.21L176.54,32a1.23,1.23,0,0,0,1,1.72c1.7.17,2.57-.73,3.63-1.72a6.31,6.31,0,0,1,.37-5.23,11.25,11.25,0,0,1,7.24-6.4,2.72,2.72,0,0,1,2.67.47,2.4,2.4,0,0,1,.79,2.37,4.13,4.13,0,0,1-1.82,2.25,18.63,18.63,0,0,1-5.72,2.05,8.84,8.84,0,0,0-1,3.37,2.86,2.86,0,0,0,.37,1.7,1.81,1.81,0,0,0,2.33.39,4.85,4.85,0,0,0,2.28-2.09l.58.22a8.13,8.13,0,0,1-2.34,2.47c-2.17,1.3-4.51.84-5.42-.84A5.16,5.16,0,0,1,177,34.63a3.43,3.43,0,0,1-3-1.72,4.87,4.87,0,0,1-4.63,1.34,2.5,2.5,0,0,1-1.92-1.9,4.39,4.39,0,0,1-1.9,2.19,4.41,4.41,0,0,1-2.92.05,2.13,2.13,0,0,1-1-3l4.06-8.8c.56-1.22,0-1.79-1.42-1.2a9.13,9.13,0,0,0-3,2.37l-5.08,10.35-2.83,0,.77-1.53a5.94,5.94,0,0,1-2.88,1.55,3.45,3.45,0,0,1-4-1.86c-.84-2,.28-5.16.74-6.44l-.52-.19c-.21.73-.49,1.58-.62,2.05a10.6,10.6,0,0,1-2.61,4.53,7.09,7.09,0,0,1-2.86,2.06,3.74,3.74,0,0,1-3.31-.38,3.27,3.27,0,0,1-1.11-4l1.92-4.56h-4a11.78,11.78,0,0,0,.15,7.73,6.16,6.16,0,0,0,3.72,3.64,4.32,4.32,0,0,0,2.88.05,3.11,3.11,0,0,0,1.95-2.25l.82-.07a4.42,4.42,0,0,1-1.85,3.22,5.42,5.42,0,0,1-3.52.78,8.42,8.42,0,0,1-7-4.67,13.47,13.47,0,0,1-.89-8.42h-5.32a37.54,37.54,0,0,1-6.39,9.87A18.82,18.82,0,0,1,113.62,39c-4,1.35-8.26,1.28-13.26,0-1.18-.3-7.71-2.41-9.18-4.22Zm35.07-10.14h5.14A26.51,26.51,0,0,1,134.85,17a29.61,29.61,0,0,1,4.34-5.44A25.16,25.16,0,0,0,132,16.12a29.5,29.5,0,0,0-5.79,8.54Zm65.1-2A1.55,1.55,0,0,0,189,21.24c-1.33.54-2.81,3-3.74,5.07a19.13,19.13,0,0,0,3.55-1.19c1.4-.56,2.37-1.33,2.52-2.47Zm-34.84-.07c0-.95-.57-1.38-1.39-1.12A6.28,6.28,0,0,0,152.93,23a15.19,15.19,0,0,0-2.06,2.91,4.61,4.61,0,0,0,4.53-1.4,3.51,3.51,0,0,0,1.12-1.94Z" transform="translate(-5.17 -4.42)"/><path class="cls-1" d="M86.47,20a1,1,0,0,0,.35,1.06A2.18,2.18,0,0,0,89,20.7a1.11,1.11,0,0,0-.67-2A1.82,1.82,0,0,0,86.47,20Z" transform="translate(-5.17 -4.42)"/><path class="cls-1" d="M20.9,13.6a3.89,3.89,0,0,0,.62,1.75A6.88,6.88,0,0,1,26.9,19a16.25,16.25,0,0,0,6.08.48c2.78-5.74,6.87-11,13.21-12.56,1.38-.33,2.45-.55,3.29.06.6.47,1,1.71.3,3.21-1.66,3.62-8.19,7.47-12.08,9.35l-1.51,4.13c-2.81,6.76-6.45,14.2-13.89,16.58a14.34,14.34,0,0,1-10.42-.56A11.42,11.42,0,0,1,5.4,26.94,13.57,13.57,0,0,1,20.18,15.21a6.09,6.09,0,0,1,.69-5.77C23.1,5.88,28,5.37,31.65,6.55a8.33,8.33,0,0,1,4.76,4.18l-.54.57A6.84,6.84,0,0,0,34.79,9.8a8.12,8.12,0,0,0-7.16-2.92,7.16,7.16,0,0,0-5.2,2.21A5.31,5.31,0,0,0,20.9,13.6Zm8.55,13.86c.91-1.64,2.5-5.4,3.12-6.93a19.76,19.76,0,0,1-5.15-.24,13.13,13.13,0,0,1,0,3.91,11.28,11.28,0,0,1-2.51,5.43,25.7,25.7,0,0,1-5.54,4.61l-.38-.6a30.21,30.21,0,0,0,4.91-4.38,9.88,9.88,0,0,0,2.61-5.51,12.89,12.89,0,0,0-.1-3.75c-2.81-.94-4.63-2-5.78-3.86a12.92,12.92,0,0,0-5.4.46,12.45,12.45,0,0,0-5.33,3.21,13.92,13.92,0,0,0-3.35,6.64,11.2,11.2,0,0,0,0,4.9,10.49,10.49,0,0,0,1.65,4,10.58,10.58,0,0,0,4.49,3.4,8.22,8.22,0,0,0,3.89.49c3.8-.29,5.91-2.54,7.61-4.26a32.67,32.67,0,0,0,5.23-7.5Zm8.62-9.33a51,51,0,0,0,7.06-4.24,13.64,13.64,0,0,0,3.09-2.79,4,4,0,0,0,1-3,1.14,1.14,0,0,0-1.5-.71,10.33,10.33,0,0,0-3.48,2.19,23.85,23.85,0,0,0-3.16,3.22,21.17,21.17,0,0,0-3,5.36ZM23,16.76l-.54-.16a7,7,0,0,0,2.18,1.52c.06,0,.45.27.61.28A4.83,4.83,0,0,0,23,16.76Z" transform="translate(-5.17 -4.42)"/><path class="cls-1" d="M68.61,21.59a12.51,12.51,0,0,0-1,3.53,17.29,17.29,0,0,1-1.21,5.3,5.73,5.73,0,0,1-5,3.38,2.85,2.85,0,0,1-2.92-2.19c-.55,1.1-1.75,2.7-3.29,2.08-1.2-.47-1.5-1.62-1.8-3.17a14.47,14.47,0,0,0-.51-3,1.57,1.57,0,0,0-.65-.62l-3.33,6.71-3.18,0,.48-1c-1.23.81-3.14,1.48-4.51.54A1.81,1.81,0,0,1,41,31.38c-1.09,1.47-3.46,3.27-5.52,2.49-1.06-.45-1.57-1.65-1.44-3.35.22-3,3.19-6.9,4.66-8.06l1.32-1,1.29-.81c2.49-1.21,4-.62,4.3.88L46.4,20h2.76l-5.05,11.2c-.29.67-.23,1.21.69.91a4.43,4.43,0,0,0,2.34-1.58L56.5,12.22l3.06,0-4.24,8.68c1.21-.84,4.78-3,6-.44.71,1.58-.63,3.18-1.87,3.9l-2.3,1.49-2.26,1a11.41,11.41,0,0,1,1.38,5.28c0,.22.22.24.56-.15A9.72,9.72,0,0,0,59,28.3l1.65-3.08,2-2.9a9.55,9.55,0,0,1,5-3.32c-1.87-1.3-1.82-4.49-1.3-6.43a11.34,11.34,0,0,1,9.92-7.69l2.48-.09,2.16.11a17.72,17.72,0,0,1,8.52,3.89,16.33,16.33,0,0,1,2.79-1.16c1.39-.36,3.62-.25,4.34,1.36a1.53,1.53,0,0,1-.22,1.68,2.85,2.85,0,0,1-2.08.77h-.94l-.89-.09a6.54,6.54,0,0,1-1.58-.51A39.83,39.83,0,0,0,83.6,21.9a15.27,15.27,0,0,1,1.63,0,2.44,2.44,0,0,1-.35.79c-.23.06-1.48-.06-1.53,0s-2.75,5.72-2.75,5.72a22.85,22.85,0,0,1-3.38,5.52,5.28,5.28,0,0,0,6.43,2.71A5.14,5.14,0,0,0,86.31,34c-2.3,1.11-6,.55-4.43-3l4.34-9.07h2.36L84.24,31c-.44.94-.35,1.9.37,2.15A2.63,2.63,0,0,0,87.54,32l4.39-9.19c.07-.15.06-.17-.11-.16a13.6,13.6,0,0,1-1.81,0,2.73,2.73,0,0,1,.43-.81c.16-.06,1.79.06,2,0s.83-1.62,1.59-2.82c.63-1,1.2-1.78,1.89-2.72a10.37,10.37,0,0,1,3.87-3.23c2.88-1.47,6.16-.29,6.38,3h-2.29c.37-1.19.17-2.24-.77-2.41-1.68-.2-3.7,1.48-5.62,4.18a29.85,29.85,0,0,0-2.31,4s4.51.09,4.75,0,1.58-3.79,1.8-4.1a21.12,21.12,0,0,1,2.93,0c0,.14-1.9,4.13-1.83,4.16s2.23-.06,2.26,0a2.55,2.55,0,0,1-.39.79c-.15.06-2.2-.06-2.29,0s-4.22,9-4.22,9c-.31.63.23,1,1.1,1a4.16,4.16,0,0,0,3.18-2.29L110.83,13h3.05l-4.48,9.47c2-1.11,6.12-1.21,6,2.17s-4.83,5.57-5.81,7.74c-.69,1.5-.13,3.42,2,2.84a5.31,5.31,0,0,0,3.11-3l.82.48A7.34,7.34,0,0,1,112,36c-1.17.45-3.6.05-4.22-1.45a4.73,4.73,0,0,1,.65-4.61c1.08-1.72,3.32-3.62,4.31-5,.79-1.07.64-2.17-.28-2.41a5.15,5.15,0,0,0-3.59,1l-5,10.58h-3.37l.54-1c-.92.45-3,1.51-5.18.74-.84-.3-1.16-1.16-.67-2.22l4.22-9H94.81L89.46,33.84c-2.14,4.47-10.17,5.89-12.87.82-3.42,3.69-8.69,4.62-14.28,4.21a18.49,18.49,0,0,1-10.44-4.53L53,33.79a16.64,16.64,0,0,0,9.54,3.35c7.18.37,11.83-3.75,14.48-9.82,0,0,2.25-4.51,2.24-4.67s-2.47,0-2.54,0a2.68,2.68,0,0,1,.45-.79c.14-.06,2.13.08,2.36,0s.82-1.69,2.28-4.25c.58-1,1.08-1.82,1.71-2.79a27.78,27.78,0,0,1,5-5.54l-1.85-1.2-1.75-1a14.49,14.49,0,0,0-12.33-.17L70.12,8.47c-2.11,1.52-3.84,5.21-2.89,8a3.18,3.18,0,0,0,1.08,1.84l.6.45a9.71,9.71,0,0,1,2.52-.12l-.45.28-.39.28a3,3,0,0,0,1.14-.1c2.12-.45,3.69-2.07,4.8-3.16l.67.39A9.29,9.29,0,0,1,71.9,20a4.62,4.62,0,0,1-2.17,0,6.54,6.54,0,0,0-1.12,1.53Zm-.13-1.94A10.84,10.84,0,0,0,63.67,23c-.5.6-1.41,1.7-1.83,2.3a1.79,1.79,0,0,1,.58.3,1.15,1.15,0,0,1,.11,1.25,2.44,2.44,0,0,1-.89,1.08,7.53,7.53,0,0,1-1.76.56,6.21,6.21,0,0,0-.45,1.48,3,3,0,0,0,.07,1.73,1.72,1.72,0,0,0,1.35,1.06c1.63.21,2.19-2.37,2.39-3.08.28-1.08.84-3.25,1-3.74a14.71,14.71,0,0,1,1.11-2.4,16.29,16.29,0,0,1,3.14-3.87ZM58.15,22.56c.28-.78-.35-1.64-1.46-1.21a8.41,8.41,0,0,0-2.62,2.08L52.83,26c1.31-.2,4.73-1.75,5.33-3.43ZM96,9.62c0-.54-.62-.77-1.19-.78a4.11,4.11,0,0,0-1.53.28,7.08,7.08,0,0,0-1.85,1.13,2.78,2.78,0,0,0,1.17.34,8.74,8.74,0,0,0,1.87.07c.81-.07,1.53-.41,1.53-1ZM37.84,28.11a13.2,13.2,0,0,0-1.08,3.53,1,1,0,0,0,1.49,1.11C41,31.32,44.39,26.32,45,23c.43-2.49-1.47-2.51-3-1.07a20.38,20.38,0,0,0-4.2,6.19Z" transform="translate(-5.17 -4.42)"/></svg>