<svg id="Capa_1" data-name="Capa 1" xmlns="http://www.w3.org/2000/svg" xmlns:xlink="http://www.w3.org/1999/xlink" viewBox="0 0 602.31 602.32"><defs><style>.cls-1{fill:#3c63ae;}.cls-2{fill:url(#linear-gradient);}.cls-3{fill:#333479;}.cls-4{fill:#bbcce0;}.cls-5{fill:#7ea6cf;}.cls-6{fill:#67bd55;}.cls-7{fill:url(#linear-gradient-2);}.cls-8{fill:url(#linear-gradient-3);}.cls-9{fill:url(#linear-gradient-4);}.cls-10{fill:url(#linear-gradient-5);}.cls-11{fill:url(#linear-gradient-6);}.cls-12{fill:url(#linear-gradient-7);}.cls-13{fill:url(#linear-gradient-8);}.cls-14{fill:url(#linear-gradient-9);}.cls-15{fill:url(#linear-gradient-10);}.cls-16{fill:url(#linear-gradient-11);}.cls-17{fill:url(#linear-gradient-12);}</style><linearGradient id="linear-gradient" x1="62.39" y1="324.56" x2="652.7" y2="324.56" gradientTransform="translate(334.22 -157.76) rotate(45)" gradientUnits="userSpaceOnUse"><stop offset="0" stop-color="#3c63ae"/><stop offset="1" stop-color="#2a4e9a"/></linearGradient><linearGradient id="linear-gradient-2" x1="257.63" y1="184.28" x2="358.73" y2="184.28" gradientUnits="userSpaceOnUse"><stop offset="0" stop-color="#3973b9"/><stop offset="1" stop-color="#04a4de"/></linearGradient><linearGradient id="linear-gradient-3" x1="441.42" y1="431.11" x2="441.42" y2="269.52" gradientUnits="userSpaceOnUse"><stop offset="0" stop-color="#ccc"/><stop offset="0.84" stop-color="#ececec"/></linearGradient><linearGradient id="linear-gradient-4" x1="204.39" y1="454.51" x2="204.39" y2="292.92" xlink:href="#linear-gradient-3"/><linearGradient id="linear-gradient-5" x1="297.44" y1="454.51" x2="297.44" y2="292.92" xlink:href="#linear-gradient-3"/><linearGradient id="linear-gradient-6" x1="418.81" y1="454.51" x2="418.81" y2="292.92" xlink:href="#linear-gradient-3"/><linearGradient id="linear-gradient-7" x1="529.87" y1="454.51" x2="529.87" y2="292.92" xlink:href="#linear-gradient-3"/><linearGradient id="linear-gradient-8" x1="274.93" y1="454.51" x2="274.93" y2="292.92" xlink:href="#linear-gradient-3"/><linearGradient id="linear-gradient-9" x1="331.33" y1="454.51" x2="331.33" y2="292.92" xlink:href="#linear-gradient-3"/><linearGradient id="linear-gradient-10" x1="383.76" y1="454.51" x2="383.76" y2="292.92" xlink:href="#linear-gradient-3"/><linearGradient id="linear-gradient-11" x1="449.42" y1="454.51" x2="449.42" y2="292.92" xlink:href="#linear-gradient-3"/><linearGradient id="linear-gradient-12" x1="483.6" y1="454.51" x2="483.6" y2="292.92" xlink:href="#linear-gradient-3"/></defs><title>sams_club</title><rect class="cls-1" x="148.84" y="115.85" width="417.41" height="417.41" transform="translate(-181.16 324.48) rotate(-45)"/><rect class="cls-2" x="148.84" y="115.85" width="417.41" height="417.41" transform="translate(-181.16 324.48) rotate(-45)"/><path class="cls-3" d="M61.35,327,360,28.37,658.7,327,361.79,624,360,625.71,61.35,327ZM360,622.19l1.76-1.76L360,622.19ZM68.39,327,360,618.68,651.66,327,360,35.4,68.39,327Z" transform="translate(-56.38 -23.4)"/><path class="cls-4" d="M56.38,322.07,355.05,23.4,653.73,322.07,356.81,619l-1.76,1.76L56.38,322.07ZM355.06,617.23l1.76-1.76-1.76,1.76ZM63.41,322.07,355.06,613.7,646.69,322.07,355.05,30.43,63.41,322.07Z" transform="translate(-56.38 -23.4)"/><path class="cls-5" d="M58.87,324.55,357.54,25.88,656.21,324.55,359.3,621.47l-1.76,1.76L58.87,324.55ZM357.54,619.71l1.76-1.76-1.76,1.76ZM65.9,324.55,357.54,616.19,649.17,324.55,357.54,32.91,65.9,324.55Z" transform="translate(-56.38 -23.4)"/><path class="cls-6" d="M363.28,246.71l62.42-62.43-62.42-62.42,19.33-19.33,81.76,81.76L382.62,266l-19.34-19.34Zm0-124.86h0Z" transform="translate(-56.38 -23.4)"/><path class="cls-7" d="M358.73,246.71,339.39,266l-81.76-81.77,81.77-81.76,19.33,19.33L296.3,184.28l62.42,62.43Zm0-124.86h0Z" transform="translate(-56.38 -23.4)"/><polygon class="cls-8" points="434.28 264.45 451.12 266.28 435.74 289.71 431.72 289.71 434.28 264.45"/><path class="cls-9" d="M160.73,356.92h4.39a61.08,61.08,0,0,0,15.31,26,34.47,34.47,0,0,0,25.1,10.34,21.79,21.79,0,0,0,16.32-6.63,22.53,22.53,0,0,0,6.45-16.33,29.72,29.72,0,0,0-.94-7.43,27.21,27.21,0,0,0-9.54-14.74,248.94,248.94,0,0,0-22-14.67q-15-9.17-22.22-17.7t-7.2-21.79q0-15,9.91-24.6t24.6-9.59a49.75,49.75,0,0,1,17.36,3.41q9.15,3.41,10.66,3.41,4.39,0,6.48-6.82h4.11l4.47,43.51h-5a56.6,56.6,0,0,0-7.2-17.62,40.67,40.67,0,0,0-12.25-12.77,28.54,28.54,0,0,0-15.92-4.7q-9.22,0-14.8,5.12t-5.58,14.44q0,13,20.67,25.77,19.38,12.35,26.58,17.47a48.56,48.56,0,0,1,12.43,13q5.22,7.92,5.22,19.44,0,15.08-11.09,26.34T207.05,401a43.47,43.47,0,0,1-10.77-1.21q-4.72-1.22-10.88-3.26t-8.75-2q-5.19,0-5.91,6.52h-4.11Z" transform="translate(-56.38 -23.4)"/><path class="cls-10" d="M322.51,384.22q0,6.52,4.18,6.52,4,0,10.3-4.93v5.53a42.78,42.78,0,0,1-7.6,7.24q-4.79,3.68-8.32,3.68-13.62,0-14.19-15.84-16.21,15.85-28.31,15.84a19.44,19.44,0,0,1-14.62-6.37,21.53,21.53,0,0,1-6.05-15.39,24.68,24.68,0,0,1,4.83-15.08,41.81,41.81,0,0,1,12.17-11,107.8,107.8,0,0,1,15.56-7.73L306,340.49q0-17-2.74-23.27t-11.46-6.29a21,21,0,0,0-7.49,1.48q-3.89,1.48-5.19,4.13a7.86,7.86,0,0,0-.58,3.71q0,1.21.15,4t.14,4.39a8.85,8.85,0,0,1-2.63,6.25,8,8,0,0,1-5.94,2.77q-8.5,0-8.5-8.41a14.89,14.89,0,0,1,2-7.73q7.78-15.24,30.69-15.24,15.92,0,22,7.77t6.05,27ZM306,346q-6.2,2.35-11.27,4.36a60.68,60.68,0,0,0-9.51,4.74,23,23,0,0,0-7.31,7.16,20,20,0,0,0-2.88,11.1q0,7.28,3.6,12t10.23,4.74q3.1,0,9.4-3t7.74-6Z" transform="translate(-56.38 -23.4)"/><path class="cls-11" d="M356.68,332.14q0-8.34-2.39-11t-10-2.69V315l29.17-10.54v13.34q0,1.9.88,1.89a2.65,2.65,0,0,0,1.54-.91c.64-.61,1.37-1.38,2.21-2.31s1.59-1.73,2.28-2.39q12.64-9.62,24.1-9.63a19.42,19.42,0,0,1,13.15,4.85A22.91,22.91,0,0,1,425,321.83a57.14,57.14,0,0,1,14.37-12.2q8.49-5.15,16.28-5.15,15.94,0,20.61,10.42t4.67,28.69v38.2q0,6.82,2.72,9.89t9.62,3.75v2.8H451.47v-2.8q7.2-.68,9.92-3.75t2.72-9.89V340.17q0-14.78-3.12-19.82t-12.53-5q-13.3,0-21.38,12.43v54q0,6.82,2.76,9.89t9.88,3.75v2.8H397.91v-2.8q7-.68,9.66-3.75t2.68-9.89V339.26q0-10.91-2.46-17.43t-11.06-6.52a28.1,28.1,0,0,0-13,3.37,27.15,27.15,0,0,0-10.18,8.76v54.34q0,6.82,2.76,9.89t9.88,3.75v2.8H344.34v-2.8q7-.68,9.66-3.75t2.68-9.89Z" transform="translate(-56.38 -23.4)"/><path class="cls-12" d="M502.51,368.77h3.07q4.29,28.58,24.06,28.58A14.51,14.51,0,0,0,540,393.41q4.19-3.94,4.19-10.61a14.7,14.7,0,0,0-4.91-11.56,121.25,121.25,0,0,0-15.37-10.91q-10.46-6.56-15.91-12.85t-5.45-15.92A25.32,25.32,0,0,1,506,318a23,23,0,0,1,9.37-8.64,28,28,0,0,1,12.81-3q4.56,0,13.7,3.71a10.29,10.29,0,0,0,3.61.61c1.31,0,2.34-.81,3.07-2.42h2.52v27.59H548q-2.79-12.05-7.19-18.46T527.93,311a14.3,14.3,0,0,0-9.78,3.71,12.36,12.36,0,0,0-4.19,9.7,14.6,14.6,0,0,0,5,11.22q5,4.54,16,11.48t16.67,13a20.54,20.54,0,0,1,5.66,14.59q0,12.81-7.91,20.24t-19.7,7.43q-2.79,0-13.15-3.11a23,23,0,0,0-7.56-1.59,3.65,3.65,0,0,0-3.89,2.8h-2.52Z" transform="translate(-56.38 -23.4)"/><path class="cls-13" d="M292.54,455.8c-2.15,1-6.66,1.95-12.34,1.95-13.17,0-23-7.3-23-20.8,0-12.89,9.91-21.53,24.4-21.53,5.75,0,9.5,1.1,11.09,1.82l-1.53,4.32a23.93,23.93,0,0,0-9.36-1.7c-11,0-18.23,6.14-18.23,16.91,0,10.09,6.59,16.48,17.88,16.48a27.22,27.22,0,0,0,9.91-1.7Z" transform="translate(-56.38 -23.4)"/><path class="cls-14" d="M318.29,416.1h6.1v36.55h20v4.44H318.29Z" transform="translate(-56.38 -23.4)"/><path class="cls-15" d="M372.64,416.1v24.32c0,9.12,4.64,13,10.88,13,6.86,0,11.37-4,11.37-13V416.1H401v24c0,12.59-7.55,17.7-17.68,17.7-9.56,0-16.77-4.74-16.77-17.51V416.1Z" transform="translate(-56.38 -23.4)"/><path class="cls-16" d="M434.69,416.71a60.18,60.18,0,0,1,11-.91c6,0,9.91.91,12.76,3a8.32,8.32,0,0,1,3.95,7.24c0,4-3,7.48-7.9,9v.18c4.44.91,9.63,4.13,9.63,10.22a10.31,10.31,0,0,1-4,8.21c-3.18,2.62-8.45,3.83-16.08,3.83a80.35,80.35,0,0,1-9.36-.49Zm6,16.78h5.48c6.31,0,10.05-3,10.05-6.93,0-4.74-4.09-6.69-10.19-6.69a29,29,0,0,0-5.34.37Zm0,19.58a37.58,37.58,0,0,0,5.06.24c6.24,0,12-2,12-8,0-5.53-5.47-7.91-12.06-7.91h-5Z" transform="translate(-56.38 -23.4)"/><path class="cls-17" d="M483.68,408.28c6.29,0,11.3,5.69,11.3,12.8s-5,12.86-11.35,12.86-11.41-5.63-11.41-12.86,5.12-12.8,11.41-12.8Zm-.05,2c-5.06,0-9.21,4.84-9.21,10.81s4.14,10.87,9.26,10.87,9.21-4.78,9.21-10.81-4.09-10.87-9.21-10.87Zm-2.15,18.26h-2V414.25a20.67,20.67,0,0,1,3.63-.34,6.23,6.23,0,0,1,4,1.08,3.58,3.58,0,0,1,1.18,3,3.49,3.49,0,0,1-2.51,3.47v.11c1.12.23,1.89,1.36,2.15,3.47a12.65,12.65,0,0,0,.82,3.53h-2.15a11.33,11.33,0,0,1-.87-3.64c-.31-1.82-1.12-2.5-2.76-2.5h-1.43Zm0-7.91H483c1.69,0,3.12-.68,3.12-2.45,0-1.25-.82-2.5-3.12-2.5a9,9,0,0,0-1.48.12Z" transform="translate(-56.38 -23.4)"/></svg>