<svg id="Layer_1" data-name="Layer 1" xmlns="http://www.w3.org/2000/svg" viewBox="0 0 164.69 43.63"><defs><style>.cls-1{fill:#fff;}</style></defs><title>sears</title><path class="cls-1" d="M137.67,31.33c.49,7.7,6.24,12.16,13.79,12.16,5.43,0,13.22-1.62,13.22-8.84,0-7.05-7.14-8.11-14.27-9.57S136,21.76,136,13.25c0-8.27,8-10.71,15.08-10.71,8.84,0,15.41,3.81,15.41,13.3h-3.08c-.08-7.54-5.35-10.62-12.33-10.62-5.68,0-12,2.11-12,8,0,6.65,7.14,7.7,13.87,9.16,8.27,1.54,14.76,3.49,14.76,12.25,0,9-9,11.51-16.3,11.51-9.49,0-16.62-5.11-16.87-14.84h3.08Z" transform="translate(-3.06 -2.55)"/><path class="cls-1" d="M119.91,12.76h.24c1.62-5.43,8.43-9.81,16-9.49V6.36a14.1,14.1,0,0,0-11.51,4.05c-3.08,3.16-4.38,5.76-4.7,12V45.2h-3.08V3.52h3.08Z" transform="translate(-3.06 -2.55)"/><path class="cls-1" d="M110.18,45H107.1V36.93h-.16c-1.95,4.95-7.54,9.24-15.49,9.24s-13.95-3-13.95-11.76c0-9.73,8.43-11.76,15.33-12.33,13.79-1,14.35-1.86,14.35-8.68,0-1.87-2.11-8.19-11.6-8.19-7.46,0-12.41,3.89-12.81,11.11H79.69C80.1,7.17,85.77,2.55,95.58,2.55c7.3,0,14.6,2.27,14.6,10.87ZM107.1,21.52C104.67,24.28,98,24,92,24.77c-7.3.81-11.43,3.41-11.43,9.65,0,5,3.65,9.08,10.95,9.08,14,0,15.57-12,15.57-14.19V21.52Z" transform="translate(-3.06 -2.55)"/><path class="cls-1" d="M41.74,24.76c-.16,9.81,5,18.73,15.33,18.73,7.87,0,13.46-4.7,14.92-12.41h3.08c-1.62,9.73-8.11,15.08-18,15.08-12.16,0-18.57-9.57-18.41-21.08C38.5,13.66,44.5,2.55,57.07,2.55c13.06,0,18.89,10.3,18.33,22.22Zm30.57-2.68c-.16-8.76-5.68-16.87-15.25-16.87-9.24,0-14.68,8.6-15.33,16.87Z" transform="translate(-3.06 -2.55)"/><path class="cls-1" d="M6.14,31.33C6.63,39,12.39,43.5,19.93,43.5c5.43,0,13.22-1.62,13.22-8.84,0-7.05-7.14-8.11-14.27-9.57S4.52,21.76,4.52,13.25c0-8.27,8-10.7,15.08-10.7C28.45,2.55,35,6.36,35,15.85H31.93C31.85,8.3,26.58,5.22,19.61,5.22c-5.68,0-12,2.11-12,8,0,6.65,7.14,7.7,13.87,9.16C29.74,24,36.23,25.9,36.23,34.66c0,9-9,11.51-16.3,11.51-9.49,0-16.62-5.11-16.87-14.84Z" transform="translate(-3.06 -2.55)"/></svg>