<svg id="Layer_1" data-name="Layer 1" xmlns="http://www.w3.org/2000/svg" viewBox="0 0 209.94 26.46"><defs><style>.cls-1{fill:#fff;}</style></defs><title>Sephora</title><path class="cls-1" d="M12.52,14.44a15,15,0,0,1-4-1.9A3.35,3.35,0,0,1,7.38,9.66c.12-2.33,1.89-3.88,4.54-3.75a4.19,4.19,0,0,1,4.17,3.17l3.22-.53c-.84-3.17-3.43-5.11-7.28-5.3C7.49,3,4.51,5.51,4.31,9.51a6,6,0,0,0,1.83,5,15.36,15.36,0,0,0,5.17,2.76c3.27,1.29,5,2.28,4.87,5-.11,2.21-1.95,3.72-4.86,3.57-2.21-.11-3.72-1.1-4.37-2.72l-3.05.67c1.05,2.93,3.61,4.72,7.21,4.9,4.66.24,8.1-2.54,8.3-6.42S17.32,16.35,12.52,14.44Z" transform="translate(-3.92 -3.24)"/><polygon class="cls-1" points="30.59 25.31 43.28 25.31 43.28 22.43 33.75 22.43 33.75 14.19 43.28 14.19 43.28 11.37 33.75 11.37 33.75 3.72 43.28 3.72 43.28 0.84 30.59 0.84 30.59 25.31 30.59 25.31"/><path class="cls-1" d="M64.16,27.88h3.17V19.46H70c5.12,0,8.57-3.33,8.57-8,0-4.8-3.42-8.07-9.18-8.07H64.16V27.88Zm3.17-11.34V6.29h2c3.9,0,5.95,1.79,5.95,5.06s-2,5.19-5.44,5.19Z" transform="translate(-3.92 -3.24)"/><polygon class="cls-1" points="89.61 25.64 92.78 25.64 92.78 14.46 105.6 14.46 105.6 25.64 108.77 25.64 108.77 1.17 105.6 1.17 105.6 11.58 92.78 11.58 92.78 1.17 89.61 1.17 89.61 25.64 89.61 25.64"/><path class="cls-1" d="M138,29.7a12.09,12.09,0,0,0,8.86-3.4A12.65,12.65,0,0,0,150.63,17a12.76,12.76,0,0,0-3.81-9.35,13.26,13.26,0,0,0-17.65,0A12.76,12.76,0,0,0,125.37,17a12.67,12.67,0,0,0,3.77,9.32A12.14,12.14,0,0,0,138,29.7Zm0-2.89a8.73,8.73,0,0,1-6.52-2.6A10,10,0,0,1,128.63,17a10,10,0,0,1,2.81-7.24,9.54,9.54,0,0,1,13.08,0A10,10,0,0,1,147.37,17a10,10,0,0,1-2.81,7.24,8.88,8.88,0,0,1-6.59,2.6Z" transform="translate(-3.92 -3.24)"/><path class="cls-1" d="M162.72,27.88h3.16v-10l8.7,10h4L170,18.37h.19a7.15,7.15,0,0,0,7.35-7.53c0-4.61-3.26-7.43-9.24-7.43h-5.56V27.88ZM165.88,16V6.29H168c4.16,0,6.23,1.67,6.23,4.64,0,3.21-2.11,5-6.07,5Z" transform="translate(-3.92 -3.24)"/><path class="cls-1" d="M190.93,27.88h3.39l2.17-5.67H208l2.17,5.67h3.71L203.56,3.41h-2.66l-10,24.47Zm6.68-8.55,3.9-9.81c.1-.25.35-1,.74-2.27.38,1.31.64,2,.73,2.27l3.84,9.81Z" transform="translate(-3.92 -3.24)"/></svg>