<svg id="Laag_1" data-name="Laag 1" xmlns="http://www.w3.org/2000/svg" viewBox="0 0 810.14 161.82"><defs><style>.cls-1{fill:#e41b13;}</style></defs><title>staples_ffffff</title><path id="_Path_" data-name="&lt;Path&gt;" class="cls-1" d="M67.69,161.42c-55.48-.13-61.37-36.13-61.5-51.51H35.53c.13,7.3,3.46,24.34,30,24.34,8.46,0,15.12-1.28,20-3.72C91.78,127.21,95,122,95,114.78c0-11.28-9.74-14.61-25.63-18.71L54,92.36C30.54,86.47,8.37,81,8.37,47c0-6.66,1.41-19.48,10.12-30.11C28,5.36,43.09-.4,63.59-.4c19.6,0,34.47,6,44.46,17.81,10.25,12.17,11.53,26.39,11.53,32H90.37c-.77-6.28-2.69-22.81-29-22.81-6.41,0-12.3,1.41-16.53,4A15.61,15.61,0,0,0,36.94,44.7c0,11.92,9.23,14.22,14.86,15.63l34.72,9.23c19.6,5.12,37.67,13.71,37.67,41.38,0,19.86-7.82,34.08-23.58,42.54-12.94,7.18-27.42,7.94-32.93,7.94" transform="translate(-6.19 0.4)"/><polyline id="_Path_2" data-name="&lt;Path&gt;" class="cls-1" points="189.75 157.72 159.26 157.72 159.26 31.77 116.08 31.77 116.08 4.1 232.81 4.1 232.81 31.77 189.75 31.77 189.75 157.72"/><polyline id="_Path_3" data-name="&lt;Path&gt;" class="cls-1" points="678.81 157.72 569.78 157.72 569.65 3.97 675.35 3.97 675.35 31.9 599.63 31.9 599.63 63.42 669.2 63.42 669.2 91.23 599.63 91.23 599.63 129.92 678.81 129.92 678.81 157.72"/><path id="_Compound_Path_" data-name="&lt;Compound Path&gt;" class="cls-1" d="M313.31,157.32l-9.23-31.52H251.81l-9.87,31.52H209.79L260.91,3.7h34.85l50.61,153.62H313.31M260,98.77h35.62L278.08,38.93Z" transform="translate(-6.19 0.4)"/><path id="_Compound_Path_2" data-name="&lt;Compound Path&gt;" class="cls-1" d="M383.4,157.32H353L352.9,3.7h65.6c27.55,0,44.72,19,44.72,49.33a60.09,60.09,0,0,1-8.46,29.85c-8.07,12.81-20.63,19.35-37.41,19.35h-34v55.09m0-82.26,27.42.13c21.91,0,21.91-16.53,21.91-23.58,0-14.86-7.56-20.88-25.88-20.88H383.4Z" transform="translate(-6.19 0.4)"/><path id="_Path_4" data-name="&lt;Path&gt;" class="cls-1" d="M469.88,140.28V27.91C469.88,12.28,483-.4,499.22-.4a29.33,29.33,0,0,1,29.6,25.63l9.74,50.1L510.63,80.7l-10.25-53a.65.65,0,1,0-1.28.13l.13,101.73h70.21v27.8H485.26c-8.58,0-15.38-8.71-15.38-17" transform="translate(-6.19 0.4)"/><path id="_Compound_Path_3" data-name="&lt;Compound Path&gt;" class="cls-1" d="M802.37,5.62l4.48.13c2.82-.13,4.1,1,4.1,3.33,0,2.05-1.28,2.95-3.08,3.07l3.33,5.25h-1.92l-3.2-5.13h-1.92v5.13h-1.79V5.75m1.79,5.12h1.92c1.54,0,3.07-.13,3.07-1.92,0-1.54-1.41-1.79-2.56-1.79h-2.43Z" transform="translate(-6.19 0.4)"/><path id="_Compound_Path_4" data-name="&lt;Compound Path&gt;" class="cls-1" d="M816.34,11.51a10.06,10.06,0,1,1-20.12,0,10.06,10.06,0,0,1,20.12,0M806.21,3.06a8.46,8.46,0,0,0,0,16.91,8.46,8.46,0,0,0,0-16.91Z" transform="translate(-6.19 0.4)"/><path id="_Path_5" data-name="&lt;Path&gt;" class="cls-1" d="M751.5,161.42c-55.35-.13-61.37-36.13-61.37-51.51h29.21c.26,7.3,3.46,24.34,30,24.34,8.46,0,15.25-1.28,20.12-3.72,6.28-3.33,9.35-8.58,9.35-15.76,0-11.28-9.61-14.61-25.63-18.71l-15.25-3.72C714.48,86.47,692.31,81,692.31,47c0-6.66,1.28-19.48,10.12-30.11C711.79,5.36,727-.4,747.4-.4c19.6,0,34.59,6,44.46,17.81,10.38,12.17,11.53,26.39,11.66,32H774.18c-.64-6.28-2.69-22.81-29-22.81a32.86,32.86,0,0,0-16.53,4,15.61,15.61,0,0,0-7.94,14.09c0,11.92,9.35,14.22,14.86,15.63l34.85,9.23c19.48,5.12,37.67,13.71,37.67,41.38,0,19.86-7.94,34.08-23.58,42.54-13.07,7.18-27.42,7.94-33.06,7.94" transform="translate(-6.19 0.4)"/></svg>