<svg id="Layer_1" data-name="Layer 1" xmlns="http://www.w3.org/2000/svg" viewBox="0 0 168.74 39.69"><defs><style>.cls-1{fill:#009b4d;fill-rule:evenodd;}</style></defs><title>Stein_Mart</title><path class="cls-1" d="M16.14,3a.46.46,0,0,1-.05.57L13.66,6.31c-.73.36-1.09-.73-1.76-.83a3.49,3.49,0,0,0-3.42.16,4,4,0,0,0-1.35,2.9c.36,4,3.32,6.84,5.44,10.05C15.32,22.16,17.8,26,18.42,30.5a8.43,8.43,0,0,1-4.35,8,9,9,0,0,1-6.48.78,13.67,13.67,0,0,1-5.7-3.37c-.16-.57.36-.93.67-1.35a11.12,11.12,0,0,1,2-2.12l.36.1c1.87,1.66,4.09,3.06,6.68,2.23a3.66,3.66,0,0,0,2-3.58c-.05-3.37-1.92-6-3.73-8.7-1-1.66-2.54-3.21-3.58-4.92C4.49,14.8,2.67,12,2.62,8.53A7.89,7.89,0,0,1,6.25,1.9,7.52,7.52,0,0,1,10.34.61a7.66,7.66,0,0,1,5.49,2.07l.31.36Z" transform="translate(-1.87 -0.6)"/><path class="cls-1" d="M53.29,24.65a2,2,0,0,1,.21,1.87,2.14,2.14,0,0,1-1.14,1.19A2.34,2.34,0,0,1,50,27.24a2.39,2.39,0,0,1-.47-2.33,2.36,2.36,0,0,1,1.81-1.3,2,2,0,0,1,2,1Z" transform="translate(-1.87 -0.6)"/><path class="cls-1" d="M28.48,22.89c-.31-.05-.26.36-.26.57l.05,10.67c.21.47,1,.83,1.35,1a15,15,0,0,0,4.56.05l.1-.1a5.58,5.58,0,0,1-.47-5.54,5.37,5.37,0,0,1,5.34-3A5.58,5.58,0,0,1,43.09,29a5.45,5.45,0,0,1,.41,5l-.57,1.09a5.42,5.42,0,0,0,2.28.41,4.14,4.14,0,0,0,4-2.28l.21-.47a20.14,20.14,0,0,0,.16-4.35c.16-.16.41-.47.62-.26l3.16,1.71c.52.26.16.78.26,1.24v3.16c.21.36.26.93.83.88l.88-.47c2.8-2.23,5.54-4.46,8.39-6.48a3.68,3.68,0,0,1,2.59-.88l1.3.31a6.42,6.42,0,0,1,5.75-.26A4.59,4.59,0,0,1,76,31.69,5.25,5.25,0,0,0,76.66,35a1.92,1.92,0,0,0,1.14.62h6.37c.73.1.88.83,1.35,1.3l1.14,2c.05.31-.1.57-.41.57H76.09c-1.61-.16-3.42-.88-3.89-2.59l-.26-1.4V32.37a1.62,1.62,0,0,0-.83-1.3,1.8,1.8,0,0,0-1.55-.16,2.17,2.17,0,0,0-.88,1c-.1,2.38,0,4.66,0,7a.8.8,0,0,1-.83.41h-3a1,1,0,0,1-.31-.88L64.54,33a.38.38,0,0,0-.31-.31c-2,1.24-3.63,3-5.49,4.4-1.71,1.55-3.89,2.75-6.22,2-.62-.21-1.09-.93-1.76-1.09A10,10,0,0,1,48,39.15a36.12,36.12,0,0,1-4.09.21,10.2,10.2,0,0,1-4.25-.83l-.83-.41a8.53,8.53,0,0,1-4.3,1c-2.49-.05-5,.26-7.36-.16a3.83,3.83,0,0,1-3-2.64l-.31-1.87V23l-.21-.16-3.68-.05-.67-.31a18.81,18.81,0,0,1-1.81-2.85.46.46,0,0,1,.31-.52c1.92.05,3.52,0,5.91,0l.16-.21-.05-4.3c.05-.21.26-.26.47-.36a28.73,28.73,0,0,1,3.21,1.87c1.14.57.62,1.92.83,3h42.8c.21.05.31.73.21.88l-2.69,3ZM38.16,30a1.5,1.5,0,0,0-1,.73,2.7,2.7,0,0,0-.21,1.81,2.5,2.5,0,0,0,1.66,1.71c.67-.16,1.09-.88,1.4-1.4a2.13,2.13,0,0,0-.26-2.33c-.36-.52-.93-.52-1.55-.52Z" transform="translate(-1.87 -0.6)"/><path class="cls-1" d="M123.09,23.35c-.47-.1-1,.05-1.24-.47l.05-2.75a.6.6,0,0,1,.47-.52l33,.05q.23,0,.16-.31l.05-4.46a.66.66,0,0,1,.62,0c1.09.88,2.54,1.5,3.47,2.59.31.62-.1,1.45.05,2.18l.21.16c1.09,0,2.07-.05,3.11,0h3.68c.41.21.1.67,0,.93L165,23.3l-.36.21c-1.61-.05-3.26-.05-4.87,0l-.1.21-.05,11.4c.47,1,1.5.83,2.43.88l6.17.1.26.1,2.07,3.21a.73.73,0,0,1,0,.57l-.21.1L160.49,40l-2-.1a4.68,4.68,0,0,1-2.59-1.71c-2.18,1.55-5.08,2.8-7.77,1.55A4,4,0,0,1,146,36a9.31,9.31,0,0,1,.88-3.58c0-.26-.31-.21-.47-.36l-.21.05A36.62,36.62,0,0,1,139.87,39a5.81,5.81,0,0,1-6.06.41c-.57-.88-1.19.31-1.87.31a6.47,6.47,0,0,1-7.1-1.92,12.91,12.91,0,0,1-3.52,1.92c-2.38.57-5.13.26-6.74-1.92-.73-.73-.67-1.81-.88-2.75l.16-7.46L113.81,8a3.49,3.49,0,0,0-2.18-2.18,2.76,2.76,0,0,0-3,1,6.33,6.33,0,0,0-.62,3.58V29.93L108,39.31l-.31.26-3.52-.05a.93.93,0,0,1-.73-.78l.05-15.28.05-14.66a3.36,3.36,0,0,0-1.71-3,3.23,3.23,0,0,0-3.21.36C96,7.86,95.37,10.76,94.43,13.3a24.36,24.36,0,0,0-.83,8.5,55.05,55.05,0,0,0,4.25,17.36.55.55,0,0,1-.47.41l-3.63-.16c-1-.31-1.09-1.45-1.45-2.23a51.08,51.08,0,0,1-3.16-15A29.67,29.67,0,0,1,92.93,5.53c1.09-1.66,2.54-3.47,4.4-4.15a8,8,0,0,1,8.45,1.55,11.82,11.82,0,0,1,1.3-.93,7.61,7.61,0,0,1,11.66,6.27l-.1,13v6.48l-.05,6.48a1.8,1.8,0,0,0,.52,1,2.89,2.89,0,0,0,2,.26,4.09,4.09,0,0,0,2.44-2,6.26,6.26,0,0,1,3.68-5.39,8.88,8.88,0,0,1,5.91-.26c.88.31,2.33.26,2.43,1.45l.05,5.7a.67.67,0,0,0,.47.67c1.09.52,1.87-.31,2.59-1,2.07-2.28,3.89-4.71,5.7-7.1.21-.41.67-.26,1-.16a61.8,61.8,0,0,1,6.11,3.16c.93,1-.57,1.81-.73,2.75-.26.67-.62,1.66.05,2.23,1.09.67,2.23-.05,3.21-.62.52-.52,1.19-.83,1.5-1.5V23.35Zm5.54,8.7c-.31.52-.73.93-.67,1.61a2.14,2.14,0,0,0,1.14,1.92,2.5,2.5,0,0,0,2.49-.16,19.33,19.33,0,0,0-.05-3.47,2.21,2.21,0,0,0-2.9.1Z" transform="translate(-1.87 -0.6)"/><path class="cls-1" d="M163.29,30.76A2.72,2.72,0,1,1,166,33.46a2.69,2.69,0,0,1-2.75-2.69ZM166,33a2.23,2.23,0,1,0-2.18-2.23A2.13,2.13,0,0,0,166,33Zm-.57-.67H165V29.21h1.14c.78,0,1.09.26,1.09.88a.75.75,0,0,1-.78.83l.88,1.4h-.52L166,31h-.52v1.35Zm.57-1.76c.36,0,.73,0,.73-.52,0-.36-.36-.41-.67-.41h-.62v.93Z" transform="translate(-1.87 -0.6)"/></svg>