<svg id="Layer_1" data-name="Layer 1" xmlns="http://www.w3.org/2000/svg" viewBox="0 0 175.75 51.54"><defs><style>.cls-1{fill:#084831;}.cls-1,.cls-2,.cls-3{fill-rule:evenodd;}.cls-2{fill:#fff;}.cls-3{fill:#f9e543;}</style></defs><title>Subway</title><path class="cls-1" d="M39.58,11.55H74.36c5,0,6.52.86,7.52,1.67.42.34.42.52.48-.08,0-.39.09-.7.14-1.09s.07-.5.49-.5h63.49c.56,0,.64,0,.72.59.27,1.89.54,3.81.81,5.7.1.67,0,.78.47.27,3.73-4.38,8.65-7,13.11-6.63.63.06.54.08.74-.54l2-6.22c.27-.83.28-.83.72-.11,3.33,5.45,6.63,10.8,10,16.23.92,1.51,1.16,1.34-.49,2l-16.65,6.87c-1.34.55-1.62.67-1.18-.72.15-.48.39-1,.29-1.09s-.24.11-.65.55a36.86,36.86,0,0,0-7.26,11.65c-.33.84-.39.67.52.67H153a1.74,1.74,0,0,1,1.94,2v3.63c0,1.87-.95,2.54-2.37,2.54h-32c-1.09,0-1.13.07-1-1l.55-3.45c.06-.39.21-.49-.22-.49h-.31c-.34,0-.35.25-.51.54l-1.78,3.32c-.6,1.12-.51,1.08-1.78,1.08h-36c-1.31,0-1.25,0-1.1-1.3l.22-1.87c.12-1.06,0-.87-.63-.34C74.61,48.23,70.1,49,65.19,49H51.76c-1.18,0-1.24,0-.89-1.11l.47-1.43a18.4,18.4,0,0,1-10.67,3.36c-4.19,0-8-1.76-9.53-5-5.83,5.43-15,5.65-17.68,4.26l-2.2,6.3c-.15.36-.3.36-.55,0L.24,38c-.48-.78-.25-.83.63-1.2L14.81,31c.67-.28.66-.18.49-.88-2-8.44,2-14.3,7.33-17,5.1-2.57,11.5-2.28,15.39.17.53.34.47.46.67-.17l.36-1.1c.14-.43.08-.43.53-.43Z" transform="translate(0 -4.09)"/><path class="cls-2" d="M147.32,43.81h2.08v.34h-.82v2h-.44v-2h-.82v-.34Zm2.4,0h.64l.64,1.86.65-1.86h.64v2.33h-.42V44.22l-.66,1.92h-.43l-.65-1.92v1.92h-.41V43.81Z" transform="translate(0 -4.09)"/><path class="cls-2" d="M41,14.58H49.4L42.12,36.72c-1,3.16,3.19,3.16,4.25-.07l7.26-22.07h8.68L55.17,36.3C53.11,42.57,47.71,47,40.94,47s-9.12-4.47-7.05-10.74L41,14.58ZM4.1,38.81,15.46,34l-1.35,4.1c1.82,1.19,7,1.88,7.91-.83.66-1.51-.73-3.12-2.1-5.15-1.6-2.37-3.21-5.31-1.93-9.2a12.47,12.47,0,0,1,11.64-8.77,13.47,13.47,0,0,1,7.82,2.29l-3.15,6.48c-1.88-1.34-5.89-2.45-7.28.21-1.5,2.88,1.81,6,3.22,8.17,2,3.06,2.1,6,1,8.39-1.91,4.08-7.2,6.86-12.26,6.95a38.14,38.14,0,0,1-7.36-.83l-1.18,3.59L4.1,38.81ZM64.94,14.58H76.7c8.66,0,7,12.21-.11,15.28,8.68,6.39.7,16.44-8.9,16.44H54.51L64.94,14.58Zm5.78,7h2.34a1.81,1.81,0,0,1,1.75,2.64l-.11.32a4.21,4.21,0,0,1-3.65,2.64h-2l1.62-5.6ZM67.18,33.76h2.35a2.17,2.17,0,0,1,2.27,2.55l-.05.31a3.24,3.24,0,0,1-3.12,2.55h-3l1.57-5.41Z" transform="translate(0 -4.09)"/><path class="cls-3" d="M136.77,14.58h7.68l1.69,11.74c5.51-8.05,10.21-12.61,18.46-11.74l1.16-3.52,6,9.71-10.63,4.47,1.26-3.84c-2-1.64-12.9,5.46-18.56,24.9h-8.86l4.59-14-2.76-17.75Zm-12.58,0h11.23L131.74,46.3H123.4l.88-5.3h-6.67l-2.84,5.3h-7.59l17-31.72Zm3.09,8.4-2,11.85h-4.39L127.27,23Zm-41.94-8.4L81.65,46.3h8L99,26.2,95.7,46.3h7.76l17-31.72h-8.14l-9.19,19.7,3.27-19.7h-7l-9.54,19.9,3.34-19.9Z" transform="translate(0 -4.09)"/></svg>