<svg id="Layer_1" data-name="Layer 1" xmlns="http://www.w3.org/2000/svg" viewBox="0 0 175.75 36.58"><defs><style>.cls-1{fill:#231f20;}.cls-1,.cls-2{fill-rule:evenodd;}.cls-2{fill:#9f1d20;}</style></defs><title>Talbots</title><path class="cls-1" d="M49,29.59c1.78-.08,11.43.08,19.62,11.68.89,1.3-.73,2.43-1.86,1.22A16.09,16.09,0,0,0,55.6,36.73c-2.51-.24-6.81-.08-7,1.54S50.2,43.21,62,40.7c1.46-.32,2.27,1,1,1.86s-5.43,1.62-12.41.32c-2.68-.49-7.05-2-6.81-5.35s9.89-4.05,17.76-.73a20.15,20.15,0,0,0-13.46-4.3c-2.35.24-2-.49-2-1.14s1.38-1.7,3-1.78Z" transform="translate(-7.81 -7.02)"/><path class="cls-1" d="M73.68,42.16c-.16-2.43-1.13-21.73-1.13-24.89-.08-1.54,1.95-1.3,3.08-.57s1.62,1.3,1.54,3.81-.89,19.05-1,20.92c-.16,1.46-2.35,2.19-2.51.73Z" transform="translate(-7.81 -7.02)"/><path class="cls-1" d="M83.61,41.92c.24-2.35.12-5.55-.41-11.23a44.71,44.71,0,0,1-.12-8.88,1.62,1.62,0,0,1,2.59-1.3c1,.73,1.86,1,1.62,4.38s-.73,10.3-.65,12.41c1.7-1.62,9.49-6.32,15.32-7.54,2.76-.57,4.78.18,5.76,1.62,2.19,3.24-3.08,10.22-15,12.08-1.14.08-4.41.32-4.3-1.78.08-1.54,1.76-1.38,2.84-1.26.69.08,5.67.37,9.16-2.07s4.24-3.71,3.32-4.7S99,32.27,95.57,34a28.73,28.73,0,0,0-10.38,8.35c-.41.65-1.58.89-1.58-.41Z" transform="translate(-7.81 -7.02)"/><path class="cls-1" d="M131.49,33.89a2.9,2.9,0,0,0,.81-2.84c0-.73,1.3-1.54,2.43-.81s1.95,1.78.49,3.49c-10.46,10.78-22.14,10.38-23.76,7.95s.57-5.27,2-6.57c4.95-4.7,13.62-5.59,15.41-5.43,1.7,0,1.22,1.78-.08,1.95-13.87,2.84-14.43,6.93-12.49,8.07.89.65,5.31,1.13,9.2-1,4.5-2.48,5.55-4.38,6-4.78Z" transform="translate(-7.81 -7.02)"/><path class="cls-1" d="M143.53,25.5a26.62,26.62,0,0,1,.36-4.5c.24-.89,2.43-1.38,2.43.49v4c2.27,0,8.59-.32,10.54-.41S160,26.27,160,26.84s-.16,1.38-2.27,1.3-10.3-.08-11.43-.08a91.74,91.74,0,0,0,1.3,10.78c.65,3.57-.65,3.89-1.7,4s-2.68-.24-2.59-3.41.08-10.3.08-11.27h-3c-1.78,0-2.76-.81-2.76-1.54,0-.57.73-1.05,2.27-1.05s3.61,0,3.61,0Z" transform="translate(-7.81 -7.02)"/><path class="cls-1" d="M170.49,29.27c-1.3,0-7.62.08-14.43,6-.89,1-.65,2.76,1.78,2.19s10.11-1.78,11.59,0c1.62,1.95-6,6.89-14.35,1.38-2.11-1.14-3.32.73-2.19,1.62s5.59,3.24,13,2.35,9.9-4.86,9.08-6.57c-.89-1.86-7.14-2.11-14.35-.57-.89.32-1.86-.24-.73-1.22s4.46-2.84,10.54-2.19c1.62.32,2.27-.65,2.27-1.3s-.41-1.7-2.19-1.7Z" transform="translate(-7.81 -7.02)"/><path class="cls-2" d="M180.3,10.46c4.57.37,4.22,5.19-.32,4.54-26.59-2.92-86.76-6.49-142.22-1.95-.81,3.89-2.11,21.24-1.62,24.49s-.49,4.54-1.78,5.19-2.92.65-3.73-1.13.19-9,.61-11.51c.36-2.15,2.64-13.95,2.64-16.7a102.63,102.63,0,0,0-21.41,4.05c-3.08,1.13-4.05.16-4.54-1s.65-3.57,3.73-4.05c6-1.3,19-3.07,37-4.05A959.18,959.18,0,0,1,180.3,10.46Z" transform="translate(-7.81 -7.02)"/></svg>