<svg id="Layer_1" data-name="Layer 1" xmlns="http://www.w3.org/2000/svg" viewBox="0 0 168.12 114.76"><defs><style>.cls-1{fill:#fff;}.cls-2{fill:#231f20;}.cls-3{fill:#e03a3e;}</style></defs><title>TGI_Fridays</title><path class="cls-1" d="M83.31,38h.77V25.81a4.3,4.3,0,1,1,8.6,0V38h12V51.35h41.23a31.09,31.09,0,0,0,8.41,8.41V79a31.07,31.07,0,0,0-8.41,8.42H92.68v8.27a4.3,4.3,0,0,1-8.6,0V87.46H30.85A31,31,0,0,0,22.43,79V59.76a31,31,0,0,0,8.41-8.41H72.07V38Z" transform="translate(-4.32 -3.29)"/><path class="cls-2" d="M66.75,19.87H52.24V33.23H16.87V34A11.8,11.8,0,0,1,5.08,45.79H4.32V93h.76A11.8,11.8,0,0,1,16.87,104.8v.76H68.29a22.4,22.4,0,0,0,40.17,0h51.41v-.76A11.81,11.81,0,0,1,171.67,93h.76V45.79h-.77A11.81,11.81,0,0,1,159.88,34v-.77H124.52V19.87H110a22.4,22.4,0,0,0-43.26,0Zm.58,1.53h.6l.14-.59a20.89,20.89,0,0,1,40.61,0l.14.59H123V34.76h35.39A13.32,13.32,0,0,0,170.9,47.28V91.52A13.32,13.32,0,0,0,158.38,104H107.51l-.21.44a20.89,20.89,0,0,1-37.85,0l-.21-.44H18.37A13.32,13.32,0,0,0,5.85,91.52V47.28A13.32,13.32,0,0,0,18.37,34.76h35.4V21.4Z" transform="translate(-4.32 -3.29)"/><path class="cls-2" d="M82.54,25.81V36.47h-12V49.82H30l-.22.35a29.5,29.5,0,0,1-8.55,8.55l-.35.23V79.86l.35.23a29.49,29.49,0,0,1,8.56,8.56L30,89H82.54v6.74a5.83,5.83,0,0,0,11.67,0V89h52.51l.22-.35a29.5,29.5,0,0,1,8.56-8.56l.35-.23V58.94l-.35-.23A29.49,29.49,0,0,1,147,50.16l-.23-.35H106.22V36.47h-12V25.81a5.83,5.83,0,0,0-11.67,0ZM83.31,38h.77V25.81a4.3,4.3,0,1,1,8.6,0V38h12V51.35h41.23a31.09,31.09,0,0,0,8.41,8.41V79a31.07,31.07,0,0,0-8.41,8.42H92.68v8.27a4.3,4.3,0,0,1-8.6,0V87.46H30.85A31,31,0,0,0,22.43,79V59.76a31,31,0,0,0,8.41-8.41H72.07V38Z" transform="translate(-4.32 -3.29)"/><path class="cls-1" d="M70.54,49.82V36.47h.61L53.77,21.54V34.76h-6.1l17.5,15.05Z" transform="translate(-4.32 -3.29)"/><path class="cls-1" d="M110.71,89l17.49,15h21.57L132.26,89Z" transform="translate(-4.32 -3.29)"/><path class="cls-1" d="M170.9,91.52v-7l-15-12.92v8.29l-.35.23a29.35,29.35,0,0,0-5.66,4.82l12.32,10.59A13.24,13.24,0,0,1,170.9,91.52Z" transform="translate(-4.32 -3.29)"/><path class="cls-1" d="M18.37,104h.12l-.13-.11S18.37,104,18.37,104Z" transform="translate(-4.32 -3.29)"/><path class="cls-1" d="M170.9,47.28a13.32,13.32,0,0,1-12.52-12.52H135.83L170.9,65Z" transform="translate(-4.32 -3.29)"/><path class="cls-1" d="M94.21,95.73a5.83,5.83,0,0,1-11.67,0V89H66.9l29.92,25.74A21,21,0,0,0,107,105L94.21,94Z" transform="translate(-4.32 -3.29)"/><path class="cls-1" d="M30,89l-.23-.35a29.49,29.49,0,0,0-8.56-8.56l-.35-.23V68.53l-15.05-13V74l34.87,30H62.11L44.64,89Z" transform="translate(-4.32 -3.29)"/><path class="cls-1" d="M29.8,50.16l.22-.35H43L25.49,34.76H18.37a13.26,13.26,0,0,1-4.16,8.91L26.55,54.28A29.88,29.88,0,0,0,29.8,50.16Z" transform="translate(-4.32 -3.29)"/><path class="cls-3" d="M135.83,34.76H123V21.4H108.83l-.14-.59A20.92,20.92,0,0,0,80.11,6.52l50.42,43.29h16.2l.23.35a29.49,29.49,0,0,0,8.56,8.56l.35.23V71.57l15,12.92V65Z" transform="translate(-4.32 -3.29)"/><path class="cls-3" d="M65.17,49.82,47.68,34.76H25.49L43,49.82Z" transform="translate(-4.32 -3.29)"/><path class="cls-3" d="M94.21,89v5L107,105l.26-.54.21-.44H128.2L110.71,89Z" transform="translate(-4.32 -3.29)"/><path class="cls-3" d="M44.64,89l17.46,15h7.14l.21.44a20.84,20.84,0,0,0,27.36,10.25L66.9,89Z" transform="translate(-4.32 -3.29)"/><path class="cls-3" d="M20.9,58.94l.35-.23a29.59,29.59,0,0,0,5.3-4.43L14.21,43.67a13.26,13.26,0,0,1-8.36,3.61v8.29l15.05,13Z" transform="translate(-4.32 -3.29)"/><path class="cls-3" d="M5.85,91.52a13.32,13.32,0,0,1,12.51,12.41l.13.11H40.72L5.85,74Z" transform="translate(-4.32 -3.29)"/><path class="cls-3" d="M82.54,36.47V27L69.83,16.1a21,21,0,0,0-1.75,4.72l-.14.59H53.77v.13L71.15,36.47Z" transform="translate(-4.32 -3.29)"/><path class="cls-1" d="M80.11,6.52A20.77,20.77,0,0,0,69.83,16.1L82.54,27V25.81a5.83,5.83,0,0,1,11.67,0V36.47h12V49.82h24.31Z" transform="translate(-4.32 -3.29)"/><path class="cls-3" d="M146.95,88.64l-.22.35H132.26l17.51,15h8.61a13.27,13.27,0,0,1,3.79-8.54L149.85,84.9A29.82,29.82,0,0,0,146.95,88.64Z" transform="translate(-4.32 -3.29)"/><path class="cls-2" d="M74,41.22h7.14v2H78.86v8.16H76.3V43.19H74Z" transform="translate(-4.32 -3.29)"/><path class="cls-2" d="M80.37,48.88h2.47v2.47H80.37Z" transform="translate(-4.32 -3.29)"/><path class="cls-2" d="M91.17,51.51H90.1l-.5-.94a3,3,0,0,1-2.22,1c-2.65,0-3.73-2.08-3.73-5,0-2.69.83-5.52,3.94-5.52,2.52,0,3.64,1.57,3.64,3.81H88.76c-.07-1.2-.16-1.93-1.11-1.93s-1.24,1.52-1.24,3.4c0,2.07.1,3.37,1.29,3.37.87,0,1.24-1,1.24-1.65H87.67V46.31h3.5Z" transform="translate(-4.32 -3.29)"/><path class="cls-2" d="M92.34,48.88h2.48v2.47H92.34Z" transform="translate(-4.32 -3.29)"/><path class="cls-2" d="M96.19,41.22h2.56V51.35H96.19Z" transform="translate(-4.32 -3.29)"/><path class="cls-2" d="M100.11,48.88h2.48v2.47h-2.48Z" transform="translate(-4.32 -3.29)"/><path class="cls-2" d="M30.86,57.75H45.72v4.78H37.1v5h6.13V72.3H37.1V82.42H30.86Z" transform="translate(-4.32 -3.29)"/><path class="cls-2" d="M53.75,62.33h1c2.08,0,4.05.21,4.05,2.77,0,2-1.52,2.7-3.88,2.7H53.75ZM47.52,82.42h6.23V71.75h2.08l3.09,10.67h6.16L61,70.43a6.11,6.11,0,0,0,4.12-5.68c0-4.85-3.6-7-8.28-7H47.52Z" transform="translate(-4.32 -3.29)"/><path class="cls-2" d="M67.23,65h5.61V82.42H67.23Zm0-7.27h5.61v5H67.23Z" transform="translate(-4.32 -3.29)"/><path class="cls-2" d="M82,62.12h.52c4.12,0,4.53,4.5,4.53,7.34,0,3.25,0,8.59-4.36,8.59H82Zm-6.23,20.3H83.3c7.55,0,10.49-5.68,10.49-12.71,0-7.24-3.6-12-11.26-12H75.79Z" transform="translate(-4.32 -3.29)"/><path class="cls-2" d="M103,63H103l1.8,10h-4Zm-9.21,19.4h5.16l1.08-5h5.71l1,5H113l-5.26-24.66H99.55Z" transform="translate(-4.32 -3.29)"/><path class="cls-2" d="M117.25,72.82l-6.17-15.07h6.51l3.25,9.7,3.91-9.7h5.54l-6.82,14.72v9.94h-6.23Z" transform="translate(-4.32 -3.29)"/><path class="cls-2" d="M134.88,74.59c.9,2.08,1.87,3.54,4.26,3.54A2.34,2.34,0,0,0,141.71,76c0-5-10.95-2.25-10.95-11.78,0-3.71,3.71-7,8-7a8.52,8.52,0,0,1,8.35,5.44l-5,2.08c-.66-1.45-1.59-2.73-3.4-2.73a2,2,0,0,0-2.15,2.08c0,3.5,11.16,2.7,11.16,10.42,0,5.06-4.15,8.35-9,8.35a9.14,9.14,0,0,1-9-6.24Z" transform="translate(-4.32 -3.29)"/><path class="cls-2" d="M131.88,53.57h2.36v2.06l-1.36,2.48h-1.23l1.07-2.18h-.84Z" transform="translate(-4.32 -3.29)"/><path class="cls-2" d="M164.92,99.91c0,.32.25.45.54.45s.47-.05.47-.3-.36-.31-.72-.4-.72-.23-.72-.69.47-.74.91-.74,1,.22,1,.78h-.51c0-.29-.23-.37-.48-.37s-.36.07-.36.28.11.21.72.37c.18,0,.72.15.72.71s-.35.78-1,.78-1-.26-1-.86Z" transform="translate(-4.32 -3.29)"/><path class="cls-2" d="M166.76,98.29h.75l.57,1.67h0l.54-1.67h.75v2.43h-.5V99h0l-.6,1.72h-.41L167.27,99h0v1.71h-.5Z" transform="translate(-4.32 -3.29)"/></svg>