<svg id="Layer_1" data-name="Layer 1" xmlns="http://www.w3.org/2000/svg" viewBox="0 0 98.19 41.84"><defs><style>.cls-1,.cls-2{fill:#fff;}.cls-2{fill-rule:evenodd;}</style></defs><title>The_North_Face</title><path class="cls-1" d="M13.14,40.92a2.18,2.18,0,0,1,.64-1.54h0a2.18,2.18,0,0,1,3.08,0h0a2.18,2.18,0,1,1-3.72,1.54ZM14.2,39.8a1.58,1.58,0,1,0,2.24,0h0a1.58,1.58,0,0,0-2.24,0Z" transform="translate(-1.56 -1.59)"/><path class="cls-2" d="M14.92,40.77v-.38h.3c.24,0,.48,0,.48.19s-.24.19-.48.19Zm0,.4h.41c.27,0,.28.09.3.33a3.11,3.11,0,0,0,.06.36h.49a1.92,1.92,0,0,1-.09-.42c0-.3-.09-.44-.3-.44.27,0,.36-.24.36-.53s-.47-.5-.79-.5h-.89v1.88h.46v-.69Z" transform="translate(-1.56 -1.59)"/><polygon class="cls-2" points="22.09 36.12 28.15 36.12 28.15 33.51 22.09 33.51 22.09 30.68 29.48 30.68 29.48 28.06 18.87 28.06 18.87 41.56 22.09 41.56 22.09 36.12 22.09 36.12"/><path class="cls-2" d="M32.21,43.17,33,40.51h4.79l.79,2.66h3.69L37.59,29.57h-4L28.94,43.17Zm1.6-5.3,1.6-5.65h0L37,37.88Z" transform="translate(-1.56 -1.59)"/><path class="cls-2" d="M53.81,34.57c.16-3.84-2.86-5.2-6-5.2-4,0-6.26,2.49-6.26,7s2.19,7,6.18,7c3.1,0,5.81-1.54,5.76-4.94h-3.4c-.07,1.29,0,2.19-2.28,2.19-2,0-2.85-2.19-2.85-4.15s.82-4.23,2.85-4.23c2.4,0,2.47,1.06,2.56,2.27Z" transform="translate(-1.56 -1.59)"/><polygon class="cls-2" points="64.17 41.56 64.17 38.94 56.71 38.94 56.71 36.08 63.04 36.08 63.04 33.46 56.71 33.46 56.71 30.68 64.17 30.68 64.17 28.06 53.49 28.06 53.49 41.56 64.17 41.56 64.17 41.56"/><polygon class="cls-2" points="0 27.1 2.98 27.1 2.93 19.58 8 27.1 11.64 27.1 11.64 14.4 8.66 14.4 8.68 22.16 3.72 14.4 0 14.4 0 27.1 0 27.1"/><polygon class="cls-2" points="55.91 27.05 55.91 22.04 60.46 22.04 60.46 27.05 64.16 27.05 64.16 14.4 60.46 14.4 60.46 19.23 55.93 19.23 55.93 14.4 52.21 14.4 52.21 27.05 55.91 27.05 55.91 27.05"/><polygon class="cls-2" points="44.01 27.1 47.48 27.1 47.48 16.92 51.39 16.92 51.39 14.4 40.18 14.4 40.18 16.92 44.01 16.92 44.01 27.1 44.01 27.1"/><polygon class="cls-2" points="32.33 13.2 36.03 13.2 36.03 2.75 40.21 2.75 40.21 0.01 28.25 0.01 28.25 2.75 32.33 2.75 32.33 13.2 32.33 13.2"/><polygon class="cls-2" points="64.14 13.2 64.14 10.82 56.7 10.82 56.7 8.03 63.02 8.03 63.02 5.46 56.7 5.46 56.7 2.74 64.14 2.74 64.14 0.01 53.47 0.01 53.47 13.2 64.14 13.2 64.14 13.2"/><polygon class="cls-2" points="44.63 13.2 44.63 8.16 48.94 8.16 48.94 13.2 52.45 13.2 52.45 0.01 48.94 0.01 48.94 5.23 44.65 5.23 44.65 0.01 41.12 0.01 41.12 13.2 44.63 13.2 44.63 13.2"/><path class="cls-2" d="M32.57,24h2.8c1.88,0,2,.66,2.1,2.26a18.38,18.38,0,0,0,.41,2.5h3.37a13.22,13.22,0,0,1-.61-2.9c-.24-2.06-.66-3-2.1-3v-.08C40.39,22.55,41,21.19,41,19.2c0-2.81-1.95-3.42-5.46-3.42H29.38v13h3.19V24Zm0-2.86V18.46h2.06c1.69,0,3.32.14,3.32,1.33s-1.63,1.33-3.32,1.33Z" transform="translate(-1.56 -1.59)"/><path class="cls-2" d="M21.24,28.77c4.43,0,6.94-2.42,6.94-6.58s-2.5-6.58-6.94-6.58S14.3,18,14.3,22.18s2.5,6.58,6.94,6.58Zm3.37-6.54c0,1.76-.58,3.83-3.37,3.83S17.87,24,17.87,22.23s.58-3.93,3.37-3.93,3.37,2.07,3.37,3.93Z" transform="translate(-1.56 -1.59)"/><path class="cls-2" d="M66.84,29.57V43.17h6.75V33a3.36,3.36,0,0,0-.89-2.63,5.11,5.11,0,0,0-2.2-.81Z" transform="translate(-1.56 -1.59)"/><path class="cls-2" d="M66.83,16V28.53h2s2.94-.52,4.62,1.25a4.67,4.67,0,0,1,1.12,3.55V43.2l10.79,0V30.1a15.93,15.93,0,0,0-5.45-10.49A13.78,13.78,0,0,0,69.18,16Z" transform="translate(-1.56 -1.59)"/><path class="cls-2" d="M66.83,14.79V1.65S83.6.08,93.32,13.4C100,22.59,99.75,31,99.75,31V43.17H86.34V30.26s.25-4.83-4.61-10.32A15.6,15.6,0,0,0,70,14.81l-3.13,0Z" transform="translate(-1.56 -1.59)"/></svg>