<svg id="Layer_1" data-name="Layer 1" xmlns="http://www.w3.org/2000/svg" viewBox="0 0 252.2 252.2"><defs><style>.cls-1{fill:#fff;}.cls-2{fill:#ec880e;}</style></defs><title>The_Home_Depot [Converted]</title><polygon class="cls-1" points="0 0 252.2 0 252.2 252.2 0 252.2 0 0 0 0"/><path class="cls-2" d="M18.54,15.58H169.23c12.13,0,24.26,0,36.37,0-3.35,3.4-6.78,6.78-10.16,10.19,1.34,1.41,2.75,2.72,4.09,4.11a21.27,21.27,0,0,1,10.34-4.09,20.06,20.06,0,0,1,10,1.89,12.56,12.56,0,0,0,3.63,1.44,3.47,3.47,0,0,0,2.75-2.4,2.09,2.09,0,0,0-.61-2.35c-2.93-3-5.88-5.85-8.78-8.8,14-.08,27.94,0,41.89,0,0,13.62,0,27.26,0,40.91-2.87-2.82-5.67-5.7-8.52-8.52a2.74,2.74,0,0,0-3-.71,3.24,3.24,0,0,0-1.64,1.59c-.38,1.46.28,2.9.86,4.21a21.85,21.85,0,0,1,2,12.06,19.6,19.6,0,0,1-2.88,7.94c-.4.58-.78,1.19-1.13,1.79,1.46,1.26,2.7,2.77,4.19,4,3.33-3.43,6.76-6.78,10.14-10.19q0,34.16,0,68.32c-.66.23-1.39.68-2.07.35a16,16,0,0,1-2.35-2.17c-8.17-8.12-16.27-16.32-24.46-24.41-3.25,3.25-6.46,6.53-9.76,9.71,1.74,2,3.68,3.71,5.5,5.6q9.84,9.84,19.7,19.67a6.23,6.23,0,0,1,1.51,1.84c.1.83-.48,1.54-.71,2.29a1.51,1.51,0,0,0,1.31,2,2.4,2.4,0,0,0,2.07-1c3.08-3.1,6.18-6.18,9.26-9.26V255.75H144.57l8.78-8.75q-14.94-14.9-29.84-29.84c-3.25,3.13-6.38,6.38-9.61,9.53a6.7,6.7,0,0,0-1.77,2.35,1.73,1.73,0,0,0,1.61,1.87c.81-.1,1.49-.63,2.3-.81s1.26.5,1.77,1c5.9,6,11.83,11.85,17.75,17.78,1.49,1.56,3.1,3,4.49,4.59.63.71.2,1.61-.15,2.32H71.63l16.12-16.12a6,6,0,0,0,2.19-3.53,2.82,2.82,0,0,0-3.18-3c-1.41.28-2.57,1.39-4,1.39a3.94,3.94,0,0,1-2.27-1.36Q61.2,213.89,42,194.64a6.77,6.77,0,0,1-2.19-2.93c-.05-1.46,1-2.65,1.36-4a2.82,2.82,0,0,0-2.82-3.4,4.82,4.82,0,0,0-3.05,1.59c-5.55,5.62-11.2,11.17-16.75,16.8q0-93.55,0-187.13Z" transform="translate(-12.62 -9.66)"/><path class="cls-1" d="M191.78,29.43c.23-.25.63-.48.86-.1Q219,55.66,245.35,82q-9.23,9.23-18.49,18.51A4.87,4.87,0,0,1,224,102a2.79,2.79,0,0,1-3-2.82c.05-1.54,1.36-2.72,1.39-4.29a3.52,3.52,0,0,0-1.34-2.4Q201.5,73,182,53.41c-.73-.71-1.54-1.59-2.65-1.51-1.64,0-2.88,1.54-4.54,1.36a2.74,2.74,0,0,1-2.22-1.51,3.68,3.68,0,0,1,.93-4q9.15-9.15,18.28-18.31Z" transform="translate(-12.62 -9.66)"/><path class="cls-1" d="M217.1,34.55a2.74,2.74,0,0,1,2.6-1.64c1.26.1,2.17,1.13,3,2q7.57,7.6,15.13,15.16c1,.93,2.09,1.84,2.32,3.23a2.87,2.87,0,0,1-2.57,2.88A6.68,6.68,0,0,1,234.35,55a13,13,0,0,0-7.11-2.14,9,9,0,0,0-3.76,1c-1.39-1.49-3-2.82-4.29-4.36a12.74,12.74,0,0,0,1-3.43,13.44,13.44,0,0,0-2.32-7.67,4.54,4.54,0,0,1-.78-3.86Z" transform="translate(-12.62 -9.66)"/><path class="cls-1" d="M106,47.91c2.72-2.88,5.6-5.57,8.32-8.42,2.6,2.52,5.12,5.07,7.67,7.62.83.81.08,2.17-.86,2.5-.78.1-1.46-.43-2.17-.68a9.8,9.8,0,0,0-8.83,0,9.73,9.73,0,0,1-2,1c-.76-.61-1.39-1.36-2.09-2Z" transform="translate(-12.62 -9.66)"/><path class="cls-1" d="M104.24,49.53c3.71,3.58,7.29,7.29,10.95,10.89,5.72,5.7,11.42,11.45,17.17,17.15-3.28,3.33-6.58,6.61-9.89,9.89-.68.76-2,1.08-2.7.15-.81-.86.08-1.92.33-2.8.3-.66-.23-1.24-.66-1.69q-9.91-9.87-19.77-19.77a9.3,9.3,0,0,0-1.84-1.61c-1-.23-1.79.68-2.77.73a1.55,1.55,0,0,1-1.36-1.61,2.59,2.59,0,0,1,.83-1.56c3.23-3.25,6.51-6.46,9.71-9.76Z" transform="translate(-12.62 -9.66)"/><path class="cls-1" d="M117.41,53.56a1.49,1.49,0,0,1,1.13-2c.66-.1,1.19.4,1.64.83,2.72,2.72,5.45,5.47,8.2,8.17.48.53,1.16,1,1.21,1.79a1.38,1.38,0,0,1-1.46,1.46c-1.06,0-1.87-.83-2.82-1.19a5.07,5.07,0,0,0-4.51.05c-.73-.73-1.46-1.49-2.22-2.17a6.73,6.73,0,0,0,.35-3.46c-.2-1.31-1.11-2.32-1.51-3.53Z" transform="translate(-12.62 -9.66)"/><path class="cls-1" d="M165.7,55.53a4.39,4.39,0,0,1,2.5-1.31,2.82,2.82,0,0,1,3.13,3.1c-.23,1.51-1.49,2.72-1.39,4.31a6.19,6.19,0,0,0,1.89,2.65q19.33,19.29,38.61,38.59c.71.63,1.41,1.46,2.42,1.46,1.51,0,2.67-1.13,4.11-1.39a2.83,2.83,0,0,1,3.1,3,4.86,4.86,0,0,1-1.56,2.9c-6.48,6.46-12.94,13-19.42,19.42a4.61,4.61,0,0,1-3.13,1.59,2.87,2.87,0,0,1-2.85-2.42c-.18-1.77,1.46-3.08,1.41-4.84a3.85,3.85,0,0,0-1.21-2.12q-17-16.95-33.95-33.92c9.36,17.38,18.79,34.7,28.15,52.08a6.39,6.39,0,0,1,.4.83c-.68.63-1.34,1.31-2,2-18.74-9.23-37.45-18.56-56.17-27.82-3-1.46-5.88-3.18-9.21-3.58-1.11-.15-1.87.76-2.67,1.34a3.31,3.31,0,0,1-3,.73,3,3,0,0,1-1.72-3.35,5.52,5.52,0,0,1,1.54-2.32c6.05-6,12.08-12.08,18.13-18.08,9.43,4.62,18.89,9.13,28.35,13.74a6.27,6.27,0,0,1,.91.76c.15-.18.28-.35.43-.53l-.35.05C157.23,93,152,83.63,147,74.17c6.25-6.2,12.43-12.43,18.66-18.64Z" transform="translate(-12.62 -9.66)"/><path class="cls-1" d="M132.59,59.79a1.49,1.49,0,0,1,2.35-.23c2.55,2.57,5.14,5.14,7.72,7.72-2.87,2.9-5.75,5.78-8.68,8.65a15.64,15.64,0,0,1-2-2.24,12.4,12.4,0,0,0,1.94-4.51,11.41,11.41,0,0,0-.93-6.83c-.28-.81-.88-1.74-.35-2.55Z" transform="translate(-12.62 -9.66)"/><path class="cls-1" d="M90.24,63.58A3.89,3.89,0,0,1,92,62.32a1.45,1.45,0,0,1,1.74,1.11c.18.88-.48,1.61-.66,2.47-.1.68.45,1.16.86,1.61q10.1,10.1,20.18,20.18a3.71,3.71,0,0,0,1.59,1.11A18.57,18.57,0,0,0,118,88a1.49,1.49,0,0,1,1.54,1.84,3.54,3.54,0,0,1-1.11,1.66q-4.92,4.92-9.84,9.81a2.48,2.48,0,0,1-2.19,1,1.9,1.9,0,0,1-1.06-1.06c-.25-1.11.93-2,.66-3.13a6.6,6.6,0,0,0-.93-1.11C102,94,98.95,90.86,95.84,87.81c-1.08,1.11-2.17,2.19-3.28,3.28-.76-.73-1.51-1.46-2.22-2.24,1.11-1.08,2.19-2.19,3.3-3.28-2.72-2.67-5.42-5.4-8.12-8.1a10.33,10.33,0,0,0-1.77-1.56c-1.24-.4-2.42,1.34-3.61.38a1.78,1.78,0,0,1,.13-2.75c3.3-3.35,6.66-6.63,10-10Z" transform="translate(-12.62 -9.66)"/><path class="cls-1" d="M77.33,76.67a1.58,1.58,0,0,1,2.24.68c.35,1-.58,1.92-.61,2.93,0,.53.4.91.73,1.26Q90.18,92,100.63,102.47c1.26,1.36,2.88-1,4.24,0a1.85,1.85,0,0,1-.18,2.75c-3.28,3.3-6.58,6.56-9.84,9.86a4.92,4.92,0,0,1-1.79,1.34,1.5,1.5,0,0,1-1.89-1.13c-.15-1,.76-1.79.71-2.77a2.88,2.88,0,0,0-.71-1.11q-9.91-9.87-19.8-19.8a6.46,6.46,0,0,0-2-1.61c-.91-.05-1.66.63-2.55.73a1.46,1.46,0,0,1-1.44-1.39,2.57,2.57,0,0,1,1-1.94q4.92-4.92,9.81-9.84a6.45,6.45,0,0,1,1.11-.91Z" transform="translate(-12.62 -9.66)"/><path class="cls-1" d="M59.1,94.7c1.51-1.46,3-3,4.49-4.46,2.65,2.57,5.25,5.25,7.89,7.84a5.59,5.59,0,0,1,1.26,1.61,1.81,1.81,0,0,1-2.35,2c-1.24-.55-2.22-1.54-3.4-2.19a10.49,10.49,0,0,0-6.68-1.74c-.68-.71-1.44-1.36-2-2.12a3.92,3.92,0,0,1,.83-1Z" transform="translate(-12.62 -9.66)"/><path class="cls-1" d="M48.1,105.69c2.82-2.77,5.6-5.57,8.4-8.37q7.94,8,15.94,15.94c2.93,2.9,5.78,5.85,8.73,8.7.83.93,1.94.15,2.85-.18A1.45,1.45,0,0,1,86,123.15a2.5,2.5,0,0,1-.81,1.66c-3.43,3.4-6.81,6.81-10.21,10.21a2.44,2.44,0,0,1-1.79.91,1.4,1.4,0,0,1-1.46-1.44c.05-.81.68-1.46.68-2.27s-.53-1.11-.93-1.56c-8-8-16-16.07-24.09-24,.25-.33.48-.63.76-.93Z" transform="translate(-12.62 -9.66)"/><path class="cls-1" d="M237.38,103.22q4.69,4.62,9.31,9.31a1.85,1.85,0,0,1-1,3c-1.21.18-2.14-.78-3.08-1.41-2.5-1.72-5.45-3.33-8.57-2.8a19.12,19.12,0,0,1-2.32-2.42c1.94-1.87,3.81-3.78,5.7-5.67Z" transform="translate(-12.62 -9.66)"/><path class="cls-1" d="M45.53,108.34c.93.35,1.51,1.41,2.27,2.07-.4,2.93,1,5.67,2.62,8a11.34,11.34,0,0,1,1.36,2.24,1.78,1.78,0,0,1-1.87,2.14c-.63,0-1.06-.53-1.46-.91-2.75-2.77-5.52-5.5-8.27-8.27,1.82-1.72,3.51-3.56,5.35-5.25Z" transform="translate(-12.62 -9.66)"/><path class="cls-1" d="M101.64,122.57a31,31,0,0,1,15.64-.73c8.78,1.87,16.54,7,22.75,13.39,6.08,6.15,10.92,13.87,12.56,22.47a30.39,30.39,0,0,1-.66,14.27,34.57,34.57,0,0,1-6.81,12.41c-1.31-1.39-2.75-2.67-4-4.09a10.38,10.38,0,0,1,.55-1.92A6.31,6.31,0,0,0,140,172q-18.69-18.73-37.43-37.45a6.79,6.79,0,0,0-4.21-2.22,8.46,8.46,0,0,0-3.91.76c-.5.28-.83-.35-1.16-.61-1-1.08-2.12-2.07-3.13-3.18,0-.08,0-.23,0-.3a33.6,33.6,0,0,1,11.53-6.48Z" transform="translate(-12.62 -9.66)"/><path class="cls-1" d="M135.64,121.18a23,23,0,0,1,3.3,1.51c4.06,2,8.1,4,12.18,6a4.53,4.53,0,0,1,1,.73c3.43,3.48,6.89,6.91,10.34,10.37a18,18,0,0,0,6.76,4.49,8.21,8.21,0,0,0,5.6.05,4.64,4.64,0,0,1,2.85-.35,2.83,2.83,0,0,1,1.74,2.37,5.7,5.7,0,0,1-1.89,3.51c-3.08,3.13-6.2,6.23-9.33,9.31a5.52,5.52,0,0,1-3,1.66,2.59,2.59,0,0,1-2.8-3.13c.48-1.64,1.13-3.3.86-5a15.8,15.8,0,0,0-3.86-7.62c-6.83-6.86-13.69-13.69-20.55-20.58-1.06-1.11-2.22-2.12-3.23-3.3Z" transform="translate(-12.62 -9.66)"/><path class="cls-1" d="M212.56,128c1.89-1.89,3.81-3.78,5.7-5.7.83.68,1.56,1.49,2.35,2.24a11,11,0,0,0,1.84,7.14c.68,1.21,1.66,2.24,2.27,3.51a2.27,2.27,0,0,1-.13,1.89,32.4,32.4,0,0,1,8.2,8A21,21,0,0,1,237,157.47,18.21,18.21,0,0,1,232.51,169a23.85,23.85,0,0,1-2.22-2.29,7.51,7.51,0,0,0,.35-2.77,6.14,6.14,0,0,0-2-2.9q-10-9.95-19.92-19.9a4,4,0,0,0-2.37-1.34,6,6,0,0,0-2.57.43c-.78-.73-1.56-1.51-2.32-2.27a17.67,17.67,0,0,1,12.18-4.49,20.14,20.14,0,0,1,5,.73c-2-2.09-4.16-4.06-6.1-6.2Z" transform="translate(-12.62 -9.66)"/><path class="cls-1" d="M80.58,142.84a35.78,35.78,0,0,1,6.18-10.54c1.29,1.31,2.65,2.57,3.91,3.91.25.81-.4,1.56-.53,2.37a6.24,6.24,0,0,0,1.79,6.1q18.39,18.42,36.82,36.82a7.9,7.9,0,0,0,4.44,2.77,9.44,9.44,0,0,0,4.69-.86l4.09,4.06a34.42,34.42,0,0,1-10.11,6.08,30.72,30.72,0,0,1-17.58,1.21c-8.85-1.94-16.65-7.26-22.87-13.74-5.75-6-10.39-13.42-12-21.66a30.22,30.22,0,0,1,1.21-16.52Z" transform="translate(-12.62 -9.66)"/><path class="cls-1" d="M195.21,150.13a18.08,18.08,0,0,1,4.51-10.37c.73.76,1.51,1.51,2.27,2.27a5.24,5.24,0,0,0-.45,2.82,4.2,4.2,0,0,0,1.34,2.14c6.66,6.63,13.27,13.29,19.92,19.92a6.58,6.58,0,0,0,2.65,2,5.47,5.47,0,0,0,3-.38c.76.76,1.54,1.51,2.27,2.32a18.1,18.1,0,0,1-11.32,4.46A20.21,20.21,0,0,1,208,171.92a29.32,29.32,0,0,1-6.56-5.65,12.44,12.44,0,0,1-.71,9,29.21,29.21,0,0,1-5.57,7.09c-.76-.76-1.54-1.54-2.32-2.3a4.27,4.27,0,0,0,.68-3.56,10,10,0,0,0-2.42-3.13c-1.87-1.89-3.76-3.78-5.65-5.67-1.11-1-2.29-2.22-3.88-2.32a4.28,4.28,0,0,0-2.55.83c-.78-.76-1.54-1.54-2.32-2.3,3-3.05,6.48-6.2,10.92-6.76a11.72,11.72,0,0,1,9.86,3.46,19.54,19.54,0,0,1-2.27-10.52Z" transform="translate(-12.62 -9.66)"/><path class="cls-1" d="M62.28,158.93a4.61,4.61,0,0,1,2.8-1.36,2.84,2.84,0,0,1,2.85,3.4c-.38,1.29-1.31,2.42-1.36,3.81.1,1.21,1.11,2.07,1.92,2.88l38.84,38.84a3.73,3.73,0,0,0,2.14,1.24c1.46,0,2.6-1.08,4-1.41a2.85,2.85,0,0,1,3.25,2.85,4.73,4.73,0,0,1-1.46,3L95.69,231.69a4.69,4.69,0,0,1-3.15,1.56,2.82,2.82,0,0,1-2.8-2.93c.15-1.51,1.41-2.72,1.44-4.29a4.09,4.09,0,0,0-1.36-2.29c-5.8-5.83-11.63-11.6-17.4-17.4-.23-.18-.53-.68-.86-.33-2,1.94-4,4-6,5.93-1.36-1.36-2.72-2.72-4.09-4.11,1.94-2,4-4,6-6,0-.1,0-.33,0-.43C62,196,56.68,190.58,51.23,185.16a6.7,6.7,0,0,0-2.77-2c-1.59-.1-2.82,1.13-4.31,1.41a2.85,2.85,0,0,1-3-3.63,7,7,0,0,1,2.22-3c6.31-6.33,12.64-12.61,18.92-18.94Z" transform="translate(-12.62 -9.66)"/><path class="cls-1" d="M174.88,165.74c3,2.82,5.88,5.85,8.85,8.75q8.47,8.51,17,17a3.26,3.26,0,0,0,1.31.88c1.08.1,1.94-1,3-.76a1.64,1.64,0,0,1,1.19,1.59c0,1-.83,1.66-1.44,2.32-3.56,3.51-7.06,7.06-10.62,10.57a1.74,1.74,0,0,1-2.72-.53c-.71-1.19,1.21-2.45.2-3.53q-11-10.93-21.92-21.92a8.53,8.53,0,0,0-1.61-1.41c-1.08-.3-1.94.61-3,.73a1.61,1.61,0,0,1-1.49-1.56,2.94,2.94,0,0,1,1.13-2.14c3.35-3.33,6.71-6.68,10-10Z" transform="translate(-12.62 -9.66)"/><path class="cls-1" d="M152.39,188.21c3-3,5.93-6,9-8.9,2.7,2.72,5.42,5.42,8.12,8.15.91.88-.05,2.22-1,2.62a3.77,3.77,0,0,1-1.84-.58,11,11,0,0,0-7.54-1,14.84,14.84,0,0,0-4.44,2.07c-.76-.78-1.51-1.56-2.29-2.32Z" transform="translate(-12.62 -9.66)"/><path class="cls-1" d="M140.13,200.5c3.48-3.53,7-7,10.49-10.49,5.65,5.57,11.22,11.25,16.9,16.82,4.34,4.31,8.63,8.68,13,13-3.38,3.48-6.86,6.86-10.24,10.31a5.08,5.08,0,0,1-1.79,1.11c-.63-.23-1.41-.45-1.61-1.16-.38-1.19.86-2.12.71-3.28a11.12,11.12,0,0,0-2.14-2.47L147,205.92a20.34,20.34,0,0,0-3.28-3c-1.29-.25-2.45,1.39-3.68.5-1.06-.68-.76-2.19.05-3Z" transform="translate(-12.62 -9.66)"/><path class="cls-1" d="M164.59,194.24a1.57,1.57,0,0,1,1.64-2.07,2.71,2.71,0,0,1,1.24.81c2.65,2.67,5.32,5.3,7.94,8,.86.88,2,1.64,2.32,2.9-.33.55-.68,1.31-1.44,1.39-1.24.13-2.14-.86-3.25-1.26a5.42,5.42,0,0,0-4.87,0c-.81-.81-1.59-1.61-2.4-2.4a5.27,5.27,0,0,0,.4-3.81c-.3-1.29-1.16-2.35-1.59-3.56Z" transform="translate(-12.62 -9.66)"/><path class="cls-1" d="M180.81,200.82a1.57,1.57,0,0,1,2.45-.18c2.72,2.75,5.5,5.47,8.2,8.25-3.1,3-6.08,6.2-9.26,9.15-.73-.78-1.51-1.54-2.27-2.32a11.5,11.5,0,0,0,1.26-12c-.33-.91-1-2-.38-2.93Z" transform="translate(-12.62 -9.66)"/><path class="cls-2" d="M18.54,210.86a8,8,0,0,1,3.08-1c1.34.25,2.17,1.44,3.1,2.32q19,19,38,37.93c.71.78,1.61,1.56,1.74,2.67a8.12,8.12,0,0,1-1.08,3q-22.43,0-44.82,0c0-15,0-29.94,0-44.89Z" transform="translate(-12.62 -9.66)"/><path class="cls-1" d="M135.94,210.18a20.32,20.32,0,0,1,12.66,3.68,30.24,30.24,0,0,1,7.67,7,19.56,19.56,0,0,1,4,11.5,18,18,0,0,1-5.17,12.89c-.78-.76-1.54-1.51-2.29-2.29a4.6,4.6,0,0,0,.83-2.77,7.33,7.33,0,0,0-2.32-3.78l-17-17c-1.16-1.13-2.47-2.37-4.19-2.5a4.27,4.27,0,0,0-2.55.83c-.73-.81-1.74-1.41-2.19-2.42a16.49,16.49,0,0,1,10.57-5.09Z" transform="translate(-12.62 -9.66)"/><path class="cls-1" d="M237.88,241.51a8,8,0,1,1,8,7.9A7.87,7.87,0,0,1,237.88,241.51Zm8,6.59a6.57,6.57,0,1,0-6.42-6.59A6.37,6.37,0,0,0,245.88,248.1Zm-1.67-2h-1.38V237h3.46c2.15,0,3.21.79,3.21,2.59a2.37,2.37,0,0,1-2.36,2.5l2.59,4H248.2l-2.4-3.94h-1.58Zm1.65-5.11c1.17,0,2.21-.08,2.21-1.48,0-1.13-1-1.33-2-1.33h-1.88V241Z" transform="translate(-12.62 -9.66)"/></svg>