<svg id="Layer_1" data-name="Layer 1" xmlns="http://www.w3.org/2000/svg" viewBox="0 0 76.02 74.88"><defs><style>.cls-1{fill:#010101;}.cls-2{fill-rule:evenodd;}</style></defs><title>the_body_shop</title><path class="cls-1" d="M34.1,28.81H31.4v7.33H29.54V28.81H26.85V27.24H34.1Z" transform="translate(-2.56 -3.71)"/><path class="cls-1" d="M43.32,36.14H41.46v-4H38v4H36.13v-8.9H38v3.37h3.47V27.24h1.86Z" transform="translate(-2.56 -3.71)"/><path class="cls-1" d="M52.89,36.14H46.14v-8.9h6.55v1.58H48v1.87H52.3v1.57H48v2.31h4.94Z" transform="translate(-2.56 -3.71)"/><path class="cls-1" d="M28.64,60.2a2.83,2.83,0,0,1-1.07,2.34,4.59,4.59,0,0,1-2.93.85,4.93,4.93,0,0,1-2.92-.79,2.63,2.63,0,0,1-.77-.87,3.64,3.64,0,0,1-.43-1.65h2q.1,1.6,2.16,1.6t2-1.27q0-.81-1.39-1.14l-.76-.18a17.16,17.16,0,0,1-2.42-.69,2.29,2.29,0,0,1-1.42-2.34,2.76,2.76,0,0,1,1-2.27A4.31,4.31,0,0,1,24.45,53a4.19,4.19,0,0,1,2.76.83,3.22,3.22,0,0,1,1.12,2.36h-2q-.22-1.49-2-1.49a2.27,2.27,0,0,0-1.27.32,1,1,0,0,0-.48.85q0,.79,1,1L26,57.5a4.13,4.13,0,0,1,2,1A2.4,2.4,0,0,1,28.64,60.2Z" transform="translate(-2.56 -3.71)"/><path class="cls-1" d="M38.67,63.13H36.6V58.7H32.74v4.44H30.68V53.24h2.07V57H36.6V53.24h2.07Z" transform="translate(-2.56 -3.71)"/><path class="cls-1" d="M50.3,58.2A5.29,5.29,0,0,1,49,62a4.57,4.57,0,0,1-3.44,1.36A4.49,4.49,0,0,1,42.07,62a5.34,5.34,0,0,1-1.28-3.76,5.41,5.41,0,0,1,1.31-3.9,5,5,0,0,1,6.93,0A5.38,5.38,0,0,1,50.3,58.2Zm-2.07,0a4,4,0,0,0-.72-2.51,2.38,2.38,0,0,0-2-.92,2.35,2.35,0,0,0-2,.92,4,4,0,0,0-.72,2.51,4.08,4.08,0,0,0,.72,2.56,2.56,2.56,0,0,0,3.94,0A4.09,4.09,0,0,0,48.23,58.16Z" transform="translate(-2.56 -3.71)"/><path class="cls-1" d="M60.08,56.34a3.2,3.2,0,0,1-.87,2.34,3.05,3.05,0,0,1-2.29.89H54.55v3.57H52.49V53.24H57a3,3,0,0,1,2.24.84A3.07,3.07,0,0,1,60.08,56.34Zm-2.07,0a1.28,1.28,0,0,0-.42-1.08,2.33,2.33,0,0,0-1.4-.32H54.55v2.91h1.92A1.35,1.35,0,0,0,58,56.35Z" transform="translate(-2.56 -3.71)"/><path class="cls-1" d="M26.51,46.74a3.15,3.15,0,0,1-.95,2.31,2.74,2.74,0,0,1-1,.68,7.69,7.69,0,0,1-2.39.29H17.6V39.22h5.24a3.62,3.62,0,0,1,2.43.76,2.59,2.59,0,0,1,.89,2.08,2.31,2.31,0,0,1-.51,1.55,2.64,2.64,0,0,1-.81.59,3,3,0,0,1,1.07.72A2.71,2.71,0,0,1,26.51,46.74ZM24,42.21q0-1.12-1.65-1.12H19.77v2.34h2.64Q24,43.43,24,42.21Zm.26,4.41q0-1.35-1.62-1.35H19.77v2.88h2.76Q24.26,48.15,24.26,46.62Z" transform="translate(-2.56 -3.71)"/><path class="cls-1" d="M39.54,44.63a5.76,5.76,0,0,1-1.44,4.18,5,5,0,0,1-3.75,1.48,4.89,4.89,0,0,1-3.79-1.52,5.82,5.82,0,0,1-1.4-4.1,5.9,5.9,0,0,1,1.43-4.25,5,5,0,0,1,3.76-1.49,5,5,0,0,1,3.8,1.52A5.87,5.87,0,0,1,39.54,44.63Zm-2.25,0a4.32,4.32,0,0,0-.79-2.73,2.59,2.59,0,0,0-2.16-1,2.56,2.56,0,0,0-2.13,1,4.35,4.35,0,0,0-.78,2.74,4.46,4.46,0,0,0,.78,2.79,2.8,2.8,0,0,0,4.3,0A4.46,4.46,0,0,0,37.29,44.59Z" transform="translate(-2.56 -3.71)"/><path class="cls-1" d="M51.69,44.45a7,7,0,0,1-.9,3.61,3.85,3.85,0,0,1-3.58,2H42.54V39.22h4.76a4,4,0,0,1,3.25,1.37A5.86,5.86,0,0,1,51.69,44.45Zm-2.3.08q0-3.44-2.48-3.44H44.75v7.06h2.19a2.06,2.06,0,0,0,1.8-1A4.73,4.73,0,0,0,49.4,44.53Z" transform="translate(-2.56 -3.71)"/><path class="cls-1" d="M63.26,39.22,59.66,46v4H57.4V45.94l-3.73-6.72h2.66l2.24,4.69,2.13-4.69Z" transform="translate(-2.56 -3.71)"/><path class="cls-1" d="M77,74.68a3.68,3.68,0,0,1-1.12,2.72,3.74,3.74,0,0,1-2.74,1.11,3.78,3.78,0,0,1-2.75-1.11,3.84,3.84,0,0,1,0-5.43,4,4,0,0,1,5.49,0A3.65,3.65,0,0,1,77,74.68Zm-.77,0a3.13,3.13,0,0,0-.89-2.27,3.13,3.13,0,0,0-4.42,0A3.11,3.11,0,0,0,70,74.68,3.14,3.14,0,0,0,70.87,77a3.13,3.13,0,0,0,4.43,0A3.13,3.13,0,0,0,76.18,74.69ZM75,76.9h-.75L73,75h-.77V76.9h-.67V72.49h1.68q1.56,0,1.56,1.25,0,1-1.14,1.21Zm-.81-3.19q0-.65-1-.65h-.91v1.36h.8a1.6,1.6,0,0,0,.84-.16A.63.63,0,0,0,74.15,73.7Z" transform="translate(-2.56 -3.71)"/><path class="cls-2" d="M30.1,3.75c1.69-.16,3.48.52,3.59,2.48.12,2.17-2.52,3.38-4.14,4A47.4,47.4,0,0,0,24,12.86a35.78,35.78,0,0,0-8.92,7.27A33.52,33.52,0,0,0,17.5,66.31c5.67,5.27,12.23,9.07,23,9.38a34.29,34.29,0,0,0,13.43-2.76,32.36,32.36,0,0,0,9.66-6.53,31.74,31.74,0,0,0,10.3-22.08A33.87,33.87,0,0,0,72,30.43a31.18,31.18,0,0,0-6-10.21A38.22,38.22,0,0,0,57.05,13a47.94,47.94,0,0,0-5.52-2.58C49.7,9.61,46.81,8.59,47.21,6S50.63,3.4,53.28,4.3a37.06,37.06,0,0,1,6.07,2.85,42.32,42.32,0,0,1,9.84,8.1c5.4,6.18,9.45,14.46,9.38,26.49a36.84,36.84,0,0,1-3.4,14.53,35.44,35.44,0,0,1-7.27,10.67,36.41,36.41,0,0,1-24.28,11.5,37.25,37.25,0,0,1-27-8.65A36.88,36.88,0,0,1,3.24,47.26,38.71,38.71,0,0,1,9,18.65,38.9,38.9,0,0,1,23.38,6.14,19.14,19.14,0,0,1,30.1,3.75Z" transform="translate(-2.56 -3.71)"/><path class="cls-2" d="M10.5,42.2c-.73-.54-.43-1.59-.37-2.3a29.51,29.51,0,0,1,10.3-20.42c1.59-1.42,4.28-3.84,6.72-4.42a2.88,2.88,0,0,1,3,4.6c-.6.78-2.15,1.45-3.31,2A29.6,29.6,0,0,0,11.33,40.46C11.17,41,11.16,41.85,10.5,42.2Z" transform="translate(-2.56 -3.71)"/><path class="cls-2" d="M70.76,42.2c-.89-.21-.93-1.27-1.1-1.84a30.08,30.08,0,0,0-6-11.41,30.65,30.65,0,0,0-9.11-7.08c-1.79-1-4.54-1.57-4.51-4.23,0-2.34,2.62-3.19,4.78-2.21a25.5,25.5,0,0,1,6.26,4.51,30.41,30.41,0,0,1,9.48,17.48A11.11,11.11,0,0,1,70.76,42.2Z" transform="translate(-2.56 -3.71)"/></svg>