<?xml version="1.0" encoding="utf-8"?>
<!-- Generator: Adobe Illustrator 21.0.2, SVG Export Plug-In . SVG Version: 6.00 Build 0)  -->
<svg version="1.1" id="Layer_1" xmlns="http://www.w3.org/2000/svg" xmlns:xlink="http://www.w3.org/1999/xlink" x="0px" y="0px"
	 viewBox="0 0 216 62.5" style="enable-background:new 0 0 216 62.5;" xml:space="preserve">
<style type="text/css">
	.st0{fill:#FFFFFF;}
	.st1{fill:#0060AE;}
	.st2{fill:#F4811F;}
	.st3{fill:#72BD44;}
	.st4{fill:#EC135A;}
</style>
<g>
	<path class="st0" d="M213.4,32.6c-1.1-1.7-2.5-3-3.9-4.2c0.5-0.2,1-0.6,1.5-1.1c2.3-2.2,3.4-5.8,1.4-8.2
		c-5.6-6.5-14.9-7.3-20.4-4.4c-2.3,1.2-4.1,2.7-5.3,4.5c-0.8-1.8-2.5-2.9-4.6-3c-0.8,0-2.2,0-3.3,0.1c-2.6,0.2-4.5,2.2-4.8,4.9
		c-0.4-0.9-1.1-1.6-2.1-2.1c-0.7-0.4-1.8-0.8-3.3-1.3c0,0-1.3-0.5-1.3-0.5c0,0,0,0,0,0c-2.9-1.1-5.5-0.3-7.2,2.3
		c-0.8,1.2-2.1,3.5-3.3,6.7c0.4-5.9,0.5-10.3,0.5-10.7c0,0,0,0.1,0,0.1c0.3-4.2-1.2-6.8-5.2-8.8c-13.1-6.7-25.4-6.9-32.6-4.7
		c-7.5,2.2-13,8.4-14.3,15.7c-6.2-3.5-11.9-3.2-15.9-1.3c0.1-0.9-0.1-1.8-0.7-2.7c-1.2-1.7-3.2-1.8-4-1.8c-2.3-0.1-4.3-0.1-5.3-0.1
		c-0.1,0-0.3,0-0.5,0c-1.1-0.1-3.7-0.2-5.2,2.5c0,0,0,0,0,0.1c-1.2,2.2-2.6,4.7-3.6,6.5l-5.1-6.6c0,0-0.1-0.1-0.1-0.1l-0.1-0.1
		c-1.5-1.7-3.3-2.1-5.7-1.1c-1.7,0.7-4.1,1.7-5.8,2.5c-0.7,0.3-2.2,1.1-2.7,2.9c-0.1,0.4-0.1,0.8-0.1,1.2c-1.5-0.7-3-1.2-4.7-1.4
		c-2.6-0.4-5.3-0.1-7.7,0.6c0-1.3-0.6-4.9-1.2-6.1c0,0,0-0.1-0.1-0.1c-1.1-2.5-3.1-3.5-6-3c-10,1.7-13.6,1.9-24.6,2
		c-4,0-4.9,2.5-5.2,3.5C0.8,17,0.8,24,1.1,25.5c0.6,4.2,4.5,4.1,5.7,4.1c1.9,0,3.2-0.1,4.2-0.2c0.2,0,0.3,0,0.5,0
		c0.2,3.4,1.2,11.2,3,18.7l0,0.1c1.2,4.9,5.1,4.4,6.2,4.2c1.4-0.3,6.2-1.7,8-2.4c1.7-0.7,2.7-2.1,2.8-4c0-0.1,0-0.3,0-0.4
		c1,1,2.1,1.9,3.4,2.6c3.7,2.1,8.4,2.7,12.3,1.6c2.6-0.8,4.9-1.9,6.7-3.3c0.3,0.7,0.8,1.3,1.2,1.7c0.8,0.9,4.7,5.4,8.7,6
		c1.4,0.2,2.1-0.1,3-0.4l0.1,0c2.9-1.2,7-6.3,12.2-15c0.2-0.4,0.4-0.7,0.7-1.1c-0.3,0.7-0.4,1.3-0.5,2c-0.3,2.4,0.9,3.7,1.8,4.6
		c0,0,0.3,0.3,0.3,0.3c2,1.9,6.3,5.7,14.2,6.1c0.7,0,3.3,0.1,6.1-0.9c0,1.9,1.2,3.3,1.6,3.8c0,0,0,0,0,0.1c0.5,0.5,4.7,5.2,8.2,6.7
		c4.7,2.1,6.9,1.7,10.6-1.8c1.7-1.6,4.8-5.5,8.7-11.9c-0.2,2-0.5,4.8-0.6,5.5c-0.3,2.2-0.5,4.5,1.1,6.3c1.4,1.6,3.5,1.8,4.9,1.8
		c0.1,0,0.1,0,0.2,0c0.3,0,6.8-0.4,9.2-0.7c4.1-0.6,5.2-1.9,6.1-4.9l0.2-0.7c1.3-3.8,2.2-8.3,2.9-12.8c0.8,3.3,2.8,6.1,5.7,7.9
		c4.5,2.7,10.2,2.5,15.2-0.5c2.2-1.3,4-3,5.4-4.9c0.1,0.2,0.3,0.4,0.4,0.6l0.1,0.2c1.7,2.5,7.2,7.4,15.8,8c3,0.2,8.7,0,12.8-3.7
		c1-1,3.5-3.6,4.3-7.6C215.5,38,214.9,35,213.4,32.6z M123.9,17C123.9,17,123.9,17,123.9,17L123.9,17L123.9,17z"/>
	<path class="st1" d="M150.6,9.7c-11.7-6-23.2-6.6-30.3-4.5c-13.2,4-17.3,20.8-5.1,29c0.7,0.5,0.3,1.5-0.7,3.2
		c-1.1,2.1-3.3,6.2-7,9.1c-2.3,1.8-3.7,2.5-1.9,4.7c0,0,4.1,4.6,7.2,6c3.7,1.6,4.6,1.3,7.4-1.2c1.7-1.6,5.2-6,9.3-13.1
		c2.1-3.7,5-3.7,4.6,2.3c0,0-0.6,5.8-0.7,7c-0.5,3.5-0.1,4.6,3,4.7c0,0,6.7-0.4,9-0.7c3.2-0.4,3.1-1,3.9-3.5
		c4.5-13.7,4.9-37.1,4.9-37.1C154.4,12.5,153.4,11.2,150.6,9.7 M142.1,22.4c0,0-4.1,2.8-4.2,2.9c-0.3,0.3-0.8,0.6-0.9,1.9
		c0,0.6-0.2,4.4-0.2,4.9c0,0.5-0.2,2-1.9,0.5c0,0-2.8-2.5-3.2-2.8c-0.1-0.1-1.1-1.2-2.6-0.5l-4.4,1.8c0,0-2.6,1.1-1.7-1.3
		c1-2.3,1.6-4.2,1.8-4.9c0.2-0.6,0.1-1.6-0.4-2.2c-0.2-0.3-2.4-3.1-2.8-3.8c0,0-1.7-2.1,1.2-1.9c0,0,4.9,0.1,5,0.1
		c0.1,0,1,0.1,1.7-1c0.8-1.3,3.2-4.3,2.7-3.6c0.4-0.5,1.4-1.8,2,0.3c0,0,0.9,2.9,1.3,4.1c0.3,0.8,0.5,1.4,1.9,1.8l4.5,1.6
		C142,20.3,144.1,21,142.1,22.4"/>
	<path class="st2" d="M54.9,27.9c-2.1-3.5-5.5-5.8-9.5-6.3c-5.2-0.7-10.2,1.4-13,5.5c-2.1,3-2.8,6.7-1.9,10.3
		c2.1,8.7,10.6,11.1,16,9.5c6-1.8,9.4-5.3,10.3-10.7C57.1,33.5,56.5,30.5,54.9,27.9 M40.3,39.6c-1.7-0.6-2.9-3.2-2.3-6.2
		c0.6-2.9,2.7-4.9,4.6-4.3c1.7,0.5,2.9,3.4,2.3,6.3C44.3,38.6,42.2,40.3,40.3,39.6"/>
	<path class="st3" d="M162.5,21.3c-0.5,0.7-4.3,6.6-4.8,15.5c-0.2,4,1.5,7.5,4.7,9.4c3.5,2.1,8,1.9,12.1-0.5
		c8.8-5.2,9.8-18.3,9.5-24.3c-0.1-1.4-0.9-2.2-2.2-2.2c-0.5,0-1.6,0-2.9,0.1c-1.3,0.1-2,1-2.1,2.4l0,0.4c-0.1,5.5-0.4,10.4-2.8,13.4
		c-1.6,2-3.4,2.8-4.7,2.3c-1.1-0.5-1.8-1.9-1.6-3.4c0.4-3.8,2-6.7,3-8.6l0.4-0.8c0.6-1.3,0.3-2.6-0.7-3.2c-0.6-0.3-1.9-0.8-3-1.2
		l-1.4-0.5C165.1,19.8,163.6,19.5,162.5,21.3z"/>
	<path class="st4" d="M193.3,17.5c-3.8,2-5.8,4.8-6.2,8.8c-0.6,5.3,6.7,9.1,8.4,10c2.1,1.1,2.2,2.4,1.6,3.2
		c-0.8,1.2-3.2,0.9-4.9,0.2c-1.9-0.8-2.9-1.7-4.4-3.5c-0.9-1.1-3.7,2-4.2,4.1c-0.2,1,0.2,1.4,0.8,2.3c1.5,2.2,6.4,6.2,13.5,6.7
		c2,0.1,7.1,0.3,10.5-2.9c1.4-1.3,2.9-3.4,3.4-6c0.4-1.8,0.3-4.1-1-6.2c-1.9-3-5.2-4.9-8.7-6.6c-5.2-2.5-4.2-3.9-3-4.6
		c1.1-0.6,4.8-0.2,7.7,2.6c1.5,1.4,4.5-3,3.3-4.4C205.4,15.7,197.5,15.2,193.3,17.5z"/>
	<path class="st3" d="M86,17.9c-2.9,9.4-15.3,31-20.2,33.1c-0.7,0.3-0.8,0.4-1.5,0.3c-2.6-0.4-5.8-3.7-6.8-4.9
		c-0.5-0.5-1.5-1.8-0.7-2.5c3-2.5,6.8-6.3,7-8.6c0-0.5-0.1-1-0.3-1.2c-0.3-0.4-8.2-11.1-8.9-12.3c-1.3-2-1.3-2.4,0.2-3.2
		c1.5-0.8,3.8-1.8,5.5-2.4c1.7-0.7,1.9-0.2,2.4,0.3l7.1,9.2c0.5,0.4,1,0.3,1.3-0.2c0.9-1.1,4.7-8.2,5.3-9.3c0.7-1.2,1.9-0.9,3-0.9
		c1.2,0,3.2,0,5.2,0.1C86.4,15.4,86.5,15.9,86,17.9z"/>
	<path class="st4" d="M89.5,20.1c-3.2,2-4.7,4.6-4.8,8.1c-0.1,4.7,6.2,7.8,7.7,8.5c1.9,0.8,2.2,1.8,1.8,2.6c-0.5,1.1-1.6,1.3-2.9,1
		c-2.4-0.5-4.3-2.7-6.1-3.8c-1.1-0.6-2.6,1.5-2.9,3.4c-0.1,0.9,0.2,1.3,0.8,2c1.8,1.6,5.4,5.3,12.6,5.6c1.7,0.1,6.2-0.3,8.9-3.3
		c1.1-1.2,2.3-2.9,2.6-5.1c0.2-1.6-0.2-3.5-1.3-5.3c-1-1.6-2.8-3.1-6-4.5c-5.1-2.2-3.5-4.4-2.3-4.8c1-0.4,2.9-0.1,5.9,1.8
		c1.6,1,3.8-3,2.5-4C99.2,17.2,93,17.9,89.5,20.1z"/>
	<path class="st4" d="M6.4,15c11.2-0.1,14.9-0.3,25-2c2.3-0.4,2.5,0.8,2.8,1.5c0.3,0.6,0.9,3.9,0.9,4.7c0,0.8,0.4,2-1,2.4
		c-4.2,1.2-5.4,1.6-8.2,2.5c-1.3,0.4-1.2,1-1.2,2c0.2,5.7,2,13.3,3.3,17.5c0.5,1.8,0.8,3-0.4,3.5c-1.7,0.6-6.3,1.9-7.6,2.2
		c-2.2,0.5-2.5-1.2-2.7-2c-1.8-7.6-2.7-15.3-2.9-18.2c-0.1-1.5-0.6-2.9-1.9-2.8c-1.4,0-2.9,0.2-5.9,0.3c-1.6,0-2.4-0.1-2.7-1.5
		c-0.2-1.4-0.2-7.9,0.1-8.9C4.4,15.2,5.5,15,6.4,15z"/>
</g>
</svg>
