<svg id="Layer_1" data-name="Layer 1" xmlns="http://www.w3.org/2000/svg" viewBox="0 0 164.68 11.98"><defs><style>.cls-1{fill:#a7a9ac;}.cls-1,.cls-2{fill-rule:evenodd;}.cls-2{fill:#fff;}</style></defs><title>US_Airways</title><polygon class="cls-1" points="3.81 4.35 3.81 0.48 0 0.48 0 4.35 3.81 4.35 3.81 4.35"/><polygon class="cls-1" points="19.01 11.5 19.01 10.01 0 10.01 0 11.5 19.01 11.5 19.01 11.5"/><polygon class="cls-1" points="19.01 9.12 19.01 7.63 0 7.63 0 9.12 19.01 9.12 19.01 9.12"/><polygon class="cls-1" points="19.01 6.73 19.01 5.24 0 5.24 0 6.73 19.01 6.73 19.01 6.73"/><polygon class="cls-1" points="19.01 4.35 19.01 2.86 4.77 2.86 4.77 4.35 19.01 4.35 19.01 4.35"/><polygon class="cls-1" points="19.01 1.97 19.01 0.48 4.77 0.48 4.77 1.97 19.01 1.97 19.01 1.97"/><polygon class="cls-2" points="45.76 6.73 45.76 4.83 44.33 4.83 44.33 6.73 45.76 6.73 45.76 6.73"/><polygon class="cls-2" points="140.2 0.42 140.2 1.07 141.27 1.07 145.38 7.06 145.38 10.84 143.53 10.84 143.53 11.5 150.15 11.5 150.15 10.84 148.3 10.84 148.3 6.46 152.02 1.07 153.48 1.07 153.48 0.42 148.75 0.42 148.75 1.07 150.35 1.07 147.56 5.84 144.63 1.07 145.83 1.07 145.83 0.42 140.2 0.42 140.2 0.42"/><polygon class="cls-2" points="80.97 11.5 86.75 11.5 86.75 10.84 85.32 10.84 85.32 1.07 86.75 1.07 86.75 0.42 80.97 0.42 80.97 1.07 82.4 1.07 82.4 10.84 80.97 10.84 80.97 11.5 80.97 11.5"/><path class="cls-2" d="M96.09,5.68H104a3.13,3.13,0,0,1,3.16,2.77c0,1.4-.48,2.41-2.59,2.71l3.66,3.66a4.88,4.88,0,0,0,3,1.28v.66h-4.32l-5.39-5.18h-1.16v-.66h1.79c1.13,0,2-.92,2-2.47a1.92,1.92,0,0,0-1.94-2.11h-1.88v9.77h1.37v.66H96.09v-.66h1.37V6.34H96.09V5.68Z" transform="translate(-4.99 -5.27)"/><polygon class="cls-2" points="68.79 7.66 72.96 7.66 72.57 6.67 69.2 6.67 70.96 2.47 74.15 10.84 72.51 10.84 72.51 11.5 78.68 11.5 78.68 10.84 77.31 10.84 72.78 0.42 70.78 0.42 66.08 10.84 64.85 10.84 64.85 11.5 69.14 11.5 69.14 10.84 67.45 10.84 68.79 7.66 68.79 7.66"/><polygon class="cls-2" points="129.92 7.66 134.09 7.66 133.7 6.67 130.34 6.67 132.09 2.47 135.28 10.84 133.64 10.84 133.64 11.5 139.81 11.5 139.81 10.84 138.44 10.84 133.91 0.42 131.91 0.42 127.21 10.84 125.99 10.84 125.99 11.5 130.28 11.5 130.28 10.84 128.58 10.84 129.92 7.66 129.92 7.66"/><path class="cls-2" d="M46.22,13.25c0,3.14-2.55,4-5.69,4s-5.69-.82-5.69-4V6.34H33.41V5.68h5.78v.66H37.76v7.24a2.76,2.76,0,1,0,5.52,0V6.34H41.87V5.68h5.78v.66H46.22v6.91Z" transform="translate(-4.99 -5.27)"/><path class="cls-2" d="M60.22,15.13a2.23,2.23,0,0,1-2.14,1.22,3.81,3.81,0,0,1-3.84-2.47c-.27-.57-.95-.55-.89.15s.21,2.29.21,2.29c.06.66,2.83.92,4.35.92s3.75-.35,4.53-2.14c.89-2.06-.06-4-2.68-4.86l-2.95-1a1.46,1.46,0,0,1-.45-2.35,3,3,0,0,1,4.83,1.4c.21.63,1,.57,1,.06l0-1.76c0-.51-1.52-1.31-4.05-1.31s-3.75.92-4.35,2.09a2.91,2.91,0,0,0,2,4.05c.45.09,2.56.92,3.28,1.22a1.92,1.92,0,0,1,1.1,2.5Z" transform="translate(-4.99 -5.27)"/><polygon class="cls-2" points="105.85 0.42 105.85 1.07 107.04 1.07 110.91 11.5 112.91 11.5 115.74 3.87 118.54 11.5 120.56 11.5 124.41 1.07 125.87 1.07 125.87 0.39 121.13 0.39 121.13 1.07 123.04 1.07 120.3 8.49 117.32 0.42 115.68 0.42 112.64 8.49 109.93 1.07 111.57 1.07 111.57 0.42 105.85 0.42 105.85 0.42"/><path class="cls-2" d="M167.15,15.13A2.23,2.23,0,0,1,165,16.35a3.81,3.81,0,0,1-3.84-2.47c-.27-.57-1-.55-.89.15s.21,2.29.21,2.29c.06.66,2.83.92,4.35.92s3.75-.35,4.53-2.14c.89-2.06-.06-4-2.68-4.86l-2.95-1a1.46,1.46,0,0,1-.45-2.35,3,3,0,0,1,4.83,1.4c.21.63,1,.57,1,.06l0-1.76c0-.51-1.52-1.31-4.05-1.31s-3.75.92-4.35,2.09a2.91,2.91,0,0,0,2,4.05c.45.09,2.56.92,3.28,1.22a1.92,1.92,0,0,1,1.1,2.5Z" transform="translate(-4.99 -5.27)"/></svg>