<svg id="Layer_1" data-name="Layer 1" xmlns="http://www.w3.org/2000/svg" viewBox="0 0 423.79 34.78"><defs><style>.cls-1{fill:#fff;}</style></defs><title>victorias_secret</title><path class="cls-1" d="M24.78,35.36c2.57-5.94,8.52-21.42,9.49-24.62a6.41,6.41,0,0,0,.4-1.69,1.09,1.09,0,0,0-.58-1,5.59,5.59,0,0,0-1.69-.18c-.27,0-.49,0-.49-.27s.27-.35,1-.35c1.77,0,3.81.13,4.35.13.27,0,2.17-.13,3.46-.13.49,0,.75.09.75.31s-.18.31-.53.31a4,4,0,0,0-2.13.53c-.58.4-1.24,1.15-2.44,4.17-.49,1.24-2.71,6.56-5,12-2.71,6.48-4.7,11.27-5.72,13.44-1.24,2.66-1.42,3.37-1.86,3.37s-.75-.62-1.6-2.75L11.34,11.45C10.37,9,9.7,8.47,8.15,8a6.89,6.89,0,0,0-1.69-.18c-.27,0-.36-.13-.36-.31s.44-.31,1.15-.31c2.13,0,4.66.13,5.19.13s2.44-.13,4.12-.13c.8,0,1.2.09,1.2.31s-.13.31-.44.31a5.16,5.16,0,0,0-1.69.22.89.89,0,0,0-.58.89,17,17,0,0,0,1.2,3.68Z" transform="translate(-6.11 -6.61)"/><path class="cls-1" d="M50.59,29.81c0,3.64,0,6.61.18,8.16.13,1.11.27,1.82,1.42,2a15.81,15.81,0,0,0,1.77.18.3.3,0,0,1,.31.31c0,.18-.18.31-.62.31-2.17,0-4.7-.13-4.88-.13s-2.66.13-3.86.13c-.4,0-.62-.09-.62-.31a.3.3,0,0,1,.31-.31A5.58,5.58,0,0,0,45.8,40c.75-.18.89-.89,1-2,.18-1.55.22-4.52.22-8.16V23.16C47,17.3,47,16.24,47,15s-.4-1.86-1.24-2a7.06,7.06,0,0,0-1.2-.13.33.33,0,0,1-.31-.31c0-.22.18-.31.62-.31,1.29,0,3.73.09,3.95.09s2.71-.09,3.9-.09c.44,0,.62.09.62.31a.38.38,0,0,1-.31.31A4.34,4.34,0,0,0,52,13c-1.06.22-1.29.75-1.37,2.08s0,2.26,0,8.12Z" transform="translate(-6.11 -6.61)"/><path class="cls-1" d="M64,37.22A14.15,14.15,0,0,1,59.24,26a14.89,14.89,0,0,1,4.39-10.29c2.35-2.26,5.9-4,11.89-4a38.29,38.29,0,0,1,5.68.44,28,28,0,0,0,4,.58c.4,0,.49.18.49.4s-.09.75-.18,2.13,0,3.33-.09,3.86-.22.8-.44.8-.31-.27-.31-.8A4.91,4.91,0,0,0,83,15.35c-1.37-1.15-4.21-2.09-7.67-2.09-5,0-7.41,1.33-8.78,2.62-2.88,2.66-3.5,6-3.5,9.85A13.7,13.7,0,0,0,77.12,39.39c2.93,0,4.88-.22,6.43-1.77a7,7,0,0,0,1.51-3.15c.09-.4.13-.53.4-.53s.36.27.36.53a39.5,39.5,0,0,1-.93,4.83c-.22.71-.31.84-1,1.11a23.09,23.09,0,0,1-7.05.84C71,41.25,67,39.88,64,37.22Z" transform="translate(-6.11 -6.61)"/><path class="cls-1" d="M103.37,29.81c0,3.64,0,6.61.18,8.16.13,1.11.31,1.82,1.51,2a14.88,14.88,0,0,0,1.77.18.28.28,0,0,1,.31.31c0,.18-.18.31-.62.31-2.13,0-4.61-.13-4.83-.13s-2.88.13-4,.13c-.44,0-.62-.09-.62-.31s.09-.27.31-.27A5.17,5.17,0,0,0,98.49,40c.8-.18,1-.93,1.15-2,.18-1.55.18-4.52.18-8.16V14l-5.63.09c-2.44,0-3.37.31-3.95,1.2a6.12,6.12,0,0,0-.62,1.2c-.09.31-.22.35-.4.35A.29.29,0,0,1,89,16.5c0-.4.75-3.77.84-4.08s.27-.71.4-.71a13.61,13.61,0,0,0,1.73.44c1.11.13,2.62.18,3.06.18h14.73a19.39,19.39,0,0,0,2.79-.18c.58-.09.93-.18,1.11-.18s.18.22.18.44c0,1.15-.13,3.86-.13,4.3s-.18.49-.36.49-.27-.13-.31-.67l0-.4c-.13-1.15-1-2-4.7-2.08L103.37,14Z" transform="translate(-6.11 -6.61)"/><path class="cls-1" d="M131.93,11.71c8.78,0,15.44,5.37,15.44,14.15,0,8.43-6.25,15.39-15.66,15.39-10.69,0-15.26-8-15.26-14.82A14.93,14.93,0,0,1,131.93,11.71Zm.89,28c3.5,0,10.56-1.86,10.56-12.77,0-9-5.5-13.8-11.67-13.8-6.52,0-11.22,4.08-11.22,12.29C120.49,34.2,125.77,39.7,132.82,39.7Z" transform="translate(-6.11 -6.61)"/><path class="cls-1" d="M155.53,23.16c0-5.86,0-6.92-.09-8.12s-.31-1.91-1.6-2.08a12.67,12.67,0,0,0-1.33-.09.38.38,0,0,1-.31-.31c0-.22.18-.31.62-.31,1.77,0,4.39.09,4.61.09.4,0,3.68-.09,4.88-.09,2.48,0,5.23.22,7.27,1.64A6.62,6.62,0,0,1,172.3,19c0,2.79-1.15,5.5-4.79,8.6,3.19,4,5.9,7.41,8.16,9.76C177.75,39.52,179,39.88,180,40a7.18,7.18,0,0,0,1.37.13.34.34,0,0,1,.35.31c0,.22-.22.31-.93.31h-2.44A7.87,7.87,0,0,1,174.2,40c-1.69-.89-3.1-2.71-5.32-5.54-1.64-2-3.37-4.48-4.21-5.5a.6.6,0,0,0-.53-.22l-5-.09c-.18,0-.27.09-.27.31v.89c0,3.64,0,6.57.18,8.12.13,1.11.36,1.82,1.55,2a14.25,14.25,0,0,0,1.73.18.28.28,0,0,1,.31.31c0,.18-.18.31-.62.31-2.13,0-4.61-.13-4.79-.13s-2.66.13-3.86.13c-.4,0-.62-.09-.62-.31a.3.3,0,0,1,.31-.31,5.58,5.58,0,0,0,1.2-.18c.75-.18.84-.89,1-2a77,77,0,0,0,.22-8.16Zm3.37,3.19a.56.56,0,0,0,.27.49,13.24,13.24,0,0,0,4.3.58,5.07,5.07,0,0,0,2.93-.66c1.33-.89,2.35-2.88,2.35-5.77,0-4.7-2.57-7.41-6.74-7.41a17,17,0,0,0-2.79.22.48.48,0,0,0-.31.44Z" transform="translate(-6.11 -6.61)"/><path class="cls-1" d="M188.88,29.81c0,3.64,0,6.61.18,8.16.13,1.11.27,1.82,1.42,2a15.85,15.85,0,0,0,1.77.18.3.3,0,0,1,.31.31c0,.18-.18.31-.62.31-2.17,0-4.7-.13-4.88-.13s-2.66.13-3.86.13c-.4,0-.62-.09-.62-.31a.3.3,0,0,1,.31-.31,5.57,5.57,0,0,0,1.2-.18c.75-.18.89-.89,1-2,.18-1.55.22-4.52.22-8.16V23.16c0-5.86,0-6.92-.09-8.12s-.4-1.86-1.24-2a7,7,0,0,0-1.2-.13.33.33,0,0,1-.31-.31c0-.22.18-.31.62-.31,1.29,0,3.73.09,3.95.09s2.71-.09,3.9-.09c.44,0,.62.09.62.31a.38.38,0,0,1-.31.31,4.35,4.35,0,0,0-1,.09c-1.06.22-1.29.75-1.37,2.08s0,2.26,0,8.12Z" transform="translate(-6.11 -6.61)"/><path class="cls-1" d="M208.53,13c.49-1.24.67-1.46.93-1.46s.53.53.93,1.38c.71,1.6,7,17.17,9.36,22.89,1.42,3.37,2.48,3.86,3.33,4.13a5.41,5.41,0,0,0,1.55.22c.22,0,.49.09.49.31s-.44.31-.89.31-3.46,0-6.17-.09c-.75,0-1.37,0-1.37-.27s.09-.18.27-.27a.71.71,0,0,0,.36-1l-3.5-8.65c-.09-.18-.13-.22-.36-.22h-9a.41.41,0,0,0-.4.31l-2.22,6a7.79,7.79,0,0,0-.58,2.53c0,.75.66,1,1.33,1h.35c.31,0,.4.13.4.31s-.22.31-.58.31c-.93,0-3.06-.13-3.5-.13s-2.35.13-3.95.13c-.49,0-.75-.09-.75-.31a.34.34,0,0,1,.36-.31,11,11,0,0,0,1.15-.09c1.77-.22,2.53-1.55,3.28-3.46Zm4.35,15.7c.18,0,.18-.09.13-.27L209.15,18.1q-.33-.87-.66,0l-3.64,10.33q-.07.27.13.27Z" transform="translate(-6.11 -6.61)"/><path class="cls-1" d="M225.13,20.72l-.59-1a11.49,11.49,0,0,0,2.67-3,5.25,5.25,0,0,0,.85-2.52,1.14,1.14,0,0,0-.1-.54.34.34,0,0,0-.32-.18l-.18,0a2.78,2.78,0,0,1-.75.13,1.76,1.76,0,0,1-1.39-.69,2.49,2.49,0,0,1-.58-1.66,2.92,2.92,0,0,1,.62-1.86,1.78,1.78,0,0,1,1.42-.78,2.61,2.61,0,0,1,2.08,1.14,4.6,4.6,0,0,1,.9,2.94,8.36,8.36,0,0,1-1.06,4.07A12.63,12.63,0,0,1,225.13,20.72Z" transform="translate(-6.11 -6.61)"/><path class="cls-1" d="M234.66,40.23c-.53-.27-.58-.4-.58-1.42,0-1.86.18-3.37.22-4,0-.4.09-.62.31-.62s.35.13.35.44A5.67,5.67,0,0,0,235.1,36c.62,2.75,3.55,3.73,6.17,3.73,3.86,0,5.86-2.17,5.86-5s-1.46-4-4.92-6.57l-1.77-1.33c-4.21-3.15-5.59-5.46-5.59-8.07,0-4.44,3.5-7.1,8.65-7.1a18.84,18.84,0,0,1,4,.44,5.06,5.06,0,0,0,1.37.18c.31,0,.4,0,.4.27s-.18,1.42-.18,4c0,.58,0,.84-.31.84s-.31-.18-.36-.49a7,7,0,0,0-.58-1.86c-.27-.44-1.55-1.86-5.06-1.86-2.84,0-5.19,1.42-5.19,4.08,0,2.4,1.2,3.77,5.06,6.39l1.11.75c4.75,3.24,6.39,5.85,6.39,9.09a7.35,7.35,0,0,1-3.64,6.43c-1.64,1.06-4.08,1.33-6.21,1.33A14.34,14.34,0,0,1,234.66,40.23Z" transform="translate(-6.11 -6.61)"/><path class="cls-1" d="M273.77,40.19c-.62-.31-.67-.49-.67-1.69,0-2.22.18-4,.22-4.7,0-.49.13-.71.35-.71s.31.13.31.49a7.83,7.83,0,0,0,.13,1.64c.67,3.28,3.59,4.52,6.57,4.52a5.92,5.92,0,0,0,6.34-5.9c0-3.06-1.29-4.83-5.1-8l-2-1.64c-4.7-3.86-5.77-6.61-5.77-9.62,0-4.75,3.55-8,9.18-8a17.17,17.17,0,0,1,4.12.44,7.24,7.24,0,0,0,1.55.22c.36,0,.44.09.44.31s-.18,1.69-.18,4.7c0,.71-.09,1-.31,1s-.31-.22-.36-.58a7.79,7.79,0,0,0-.58-2.22c-.27-.49-1.46-2.35-5.54-2.35-3.06,0-5.46,1.91-5.46,5.15,0,2.53,1.15,4.13,5.41,7.45l1.24,1c5.23,4.13,6.48,6.88,6.48,10.42a9.19,9.19,0,0,1-3.77,7.36,11.66,11.66,0,0,1-6.7,1.86A13.47,13.47,0,0,1,273.77,40.19Z" transform="translate(-6.11 -6.61)"/><path class="cls-1" d="M300.87,23.16c0-5.86,0-6.92-.09-8.12s-.31-1.91-1.6-2.08a12.65,12.65,0,0,0-1.33-.09.38.38,0,0,1-.31-.31c0-.22.18-.31.62-.31,1.77,0,4.3.09,4.52.09s8.43,0,9.31,0,1.46-.18,1.77-.22a2.49,2.49,0,0,1,.53-.18c.13,0,.18.18.18.36s-.22.71-.31,1.77c0,.36-.13,2-.22,2.48,0,.18-.18.4-.36.4s-.31-.18-.31-.49a4.13,4.13,0,0,0-.22-1.33c-.27-.62-.67-.89-2.79-1.15-.67-.09-5.19-.13-5.63-.13-.18,0-.22.13-.22.4V24.49c0,.27,0,.4.22.4.49,0,5.63,0,6.52-.09s1.51-.13,1.91-.53.44-.49.58-.49.22.09.22.31a20.56,20.56,0,0,0-.31,2.08c-.09.75-.18,2.17-.18,2.44s-.09.71-.35.71-.27-.13-.27-.35a3.36,3.36,0,0,0-.18-1.24c-.13-.53-.49-1-2-1.15-1.06-.13-5.23-.18-5.9-.18a.23.23,0,0,0-.27.27v3.15c0,1.29,0,5.68,0,6.43.09,2.53.8,3,4.66,3a13,13,0,0,0,3.9-.4,2.86,2.86,0,0,0,1.77-2.62c.09-.44.18-.58.4-.58s.27.31.27.58a31.28,31.28,0,0,1-.53,3.64c-.27,1-.67,1-2.17,1-2.93,0-5.19-.09-6.79-.13s-2.66-.09-3.24-.09c-.09,0-.84,0-1.69,0s-1.64.09-2.26.09c-.4,0-.62-.09-.62-.31a.3.3,0,0,1,.31-.31,11.27,11.27,0,0,0,1.2-.18c.75-.13.84-.89,1-2a77,77,0,0,0,.22-8.16Z" transform="translate(-6.11 -6.61)"/><path class="cls-1" d="M325.62,37.22A14.15,14.15,0,0,1,320.87,26a14.89,14.89,0,0,1,4.39-10.29c2.35-2.26,5.9-4,11.89-4a38.29,38.29,0,0,1,5.68.44,28,28,0,0,0,4,.58c.4,0,.49.18.49.4s-.09.75-.18,2.13,0,3.33-.09,3.86-.22.8-.44.8-.31-.27-.31-.8a4.91,4.91,0,0,0-1.64-3.77c-1.37-1.15-4.21-2.09-7.67-2.09-5,0-7.41,1.33-8.78,2.62-2.88,2.66-3.5,6-3.5,9.85a13.7,13.7,0,0,0,14.06,13.66c2.93,0,4.88-.22,6.43-1.77a7,7,0,0,0,1.51-3.15c.09-.4.13-.53.4-.53s.35.27.35.53a39.5,39.5,0,0,1-.93,4.83c-.22.71-.31.84-1,1.11a23.08,23.08,0,0,1-7.05.84C332.63,41.25,328.68,39.88,325.62,37.22Z" transform="translate(-6.11 -6.61)"/><path class="cls-1" d="M356.71,23.16c0-5.86,0-6.92-.09-8.12s-.31-1.91-1.6-2.08a12.65,12.65,0,0,0-1.33-.09.38.38,0,0,1-.31-.31c0-.22.18-.31.62-.31,1.77,0,4.39.09,4.61.09.4,0,3.68-.09,4.88-.09,2.48,0,5.23.22,7.27,1.64A6.62,6.62,0,0,1,373.48,19c0,2.79-1.15,5.5-4.79,8.6,3.19,4,5.9,7.41,8.16,9.76,2.09,2.13,3.37,2.48,4.35,2.62a7.19,7.19,0,0,0,1.38.13.34.34,0,0,1,.36.31c0,.22-.22.31-.93.31h-2.44a7.87,7.87,0,0,1-4.17-.75c-1.69-.89-3.11-2.71-5.32-5.54-1.64-2-3.37-4.48-4.21-5.5a.59.59,0,0,0-.53-.22l-5-.09c-.18,0-.27.09-.27.31v.89c0,3.64,0,6.57.18,8.12.13,1.11.36,1.82,1.55,2a14.26,14.26,0,0,0,1.73.18.28.28,0,0,1,.31.31c0,.18-.18.31-.62.31-2.13,0-4.61-.13-4.79-.13s-2.66.13-3.86.13c-.4,0-.62-.09-.62-.31a.3.3,0,0,1,.31-.31,5.58,5.58,0,0,0,1.2-.18c.75-.18.84-.89,1-2a77,77,0,0,0,.22-8.16Zm3.37,3.19a.56.56,0,0,0,.27.49,13.23,13.23,0,0,0,4.3.58,5.07,5.07,0,0,0,2.93-.66c1.33-.89,2.35-2.88,2.35-5.77,0-4.7-2.57-7.41-6.74-7.41a17,17,0,0,0-2.79.22.48.48,0,0,0-.31.44Z" transform="translate(-6.11 -6.61)"/><path class="cls-1" d="M386.51,23.16c0-5.86,0-6.92-.09-8.12s-.31-1.91-1.6-2.08a12.65,12.65,0,0,0-1.33-.09.38.38,0,0,1-.31-.31c0-.22.18-.31.62-.31,1.77,0,4.3.09,4.52.09s8.43,0,9.31,0,1.46-.18,1.77-.22a2.49,2.49,0,0,1,.53-.18c.13,0,.18.18.18.36s-.22.71-.31,1.77c0,.36-.13,2-.22,2.48,0,.18-.18.4-.36.4s-.31-.18-.31-.49a4.13,4.13,0,0,0-.22-1.33c-.27-.62-.67-.89-2.79-1.15-.67-.09-5.19-.13-5.63-.13-.18,0-.22.13-.22.4V24.49c0,.27,0,.4.22.4.49,0,5.63,0,6.52-.09s1.51-.13,1.91-.53.44-.49.58-.49.22.09.22.31a20.56,20.56,0,0,0-.31,2.08c-.09.75-.18,2.17-.18,2.44s-.09.71-.35.71-.27-.13-.27-.35a3.36,3.36,0,0,0-.18-1.24c-.13-.53-.49-1-2-1.15-1.06-.13-5.23-.18-5.9-.18a.23.23,0,0,0-.27.27v3.15c0,1.29,0,5.68,0,6.43.09,2.53.8,3,4.66,3a13,13,0,0,0,3.9-.4,2.86,2.86,0,0,0,1.77-2.62c.09-.44.18-.58.4-.58s.27.31.27.58a31.29,31.29,0,0,1-.53,3.64c-.27,1-.67,1-2.17,1-2.93,0-5.19-.09-6.79-.13s-2.66-.09-3.24-.09c-.09,0-.84,0-1.69,0s-1.64.09-2.26.09c-.4,0-.62-.09-.62-.31a.3.3,0,0,1,.31-.31,11.27,11.27,0,0,0,1.2-.18c.75-.13.84-.89,1-2a77,77,0,0,0,.22-8.16Z" transform="translate(-6.11 -6.61)"/><path class="cls-1" d="M419.47,29.81c0,3.64,0,6.61.18,8.16.13,1.11.31,1.82,1.51,2a14.9,14.9,0,0,0,1.77.18.28.28,0,0,1,.31.31c0,.18-.18.31-.62.31-2.13,0-4.61-.13-4.83-.13s-2.88.13-4,.13c-.44,0-.62-.09-.62-.31s.09-.27.31-.27a5.18,5.18,0,0,0,1.15-.18c.8-.18,1-.93,1.15-2,.18-1.55.18-4.52.18-8.16V14l-5.63.09c-2.44,0-3.37.31-3.95,1.2a6.06,6.06,0,0,0-.62,1.2c-.09.31-.22.35-.4.35a.29.29,0,0,1-.27-.31c0-.4.75-3.77.84-4.08s.27-.71.4-.71a13.56,13.56,0,0,0,1.73.44c1.11.13,2.62.18,3.06.18h14.73a19.37,19.37,0,0,0,2.79-.18c.58-.09.93-.18,1.11-.18s.18.22.18.44c0,1.15-.13,3.86-.13,4.3s-.18.49-.35.49-.27-.13-.31-.67l0-.4c-.13-1.15-1-2-4.7-2.08L419.47,14Z" transform="translate(-6.11 -6.61)"/></svg>