<svg id="Layer_1" data-name="Layer 1" xmlns="http://www.w3.org/2000/svg" viewBox="0 0 180.17 62.23"><defs><style>.cls-1{fill:#fff;fill-rule:evenodd;}</style></defs><title>wegmans</title><path class="cls-1" d="M82.31,27.8l0,0c-.16-.19-.32-.36-.48-.51a5,5,0,0,0-4.31-1.08c-2.86.42-5.43,2.4-7.26,4.19-1.37,1.34-2.94,3.13-3.92,4.19l-.93.89c-1.61,1.52-6.67,5.05-9.81,4.84a2.09,2.09,0,0,1-2.14-1.62v0h.06a15.09,15.09,0,0,0,4.21-1A14.74,14.74,0,0,0,65,32.67a8.85,8.85,0,0,0,1.22-2.47c.48-1.55.61-4.3-3.64-4.18a14.39,14.39,0,0,0-6.62,2c-3.57,1.88-7.15,5.61-8.29,9.5-.91,3.08-.53,6.6,3.58,7.4A7.46,7.46,0,0,0,53,45c4.06-.21,9.24-3.71,12.34-6.72a6.6,6.6,0,0,0,.44,5.11,3.52,3.52,0,0,0,1.41,1.34c2,1,4.78-.23,6.51-1.63l.6-.47L71.48,48c-1.77,3.3-5.53,9.36-10.35,11.22-3.21,1.24-5.88-.25-5.5-3.47a11.07,11.07,0,0,1,.35-1.8l-.09.05a6.15,6.15,0,0,0-2.95,5.79c.18,1.9,1.29,4,4.76,4.76C66.93,66,74.15,54.14,77,48.84L89.12,26.31h-6ZM53.72,35.13v0a7.39,7.39,0,0,1,3.11-4.88c2.06-1.4,3.2-1,3.57-.19.64,1.37-1.48,2.91-2.39,3.5A9.72,9.72,0,0,1,54.08,35ZM78.21,29.4a3.14,3.14,0,0,1,.44-.05,1.79,1.79,0,0,1,1.81,1.87h0l-1.77,3.3-.08.15a11.8,11.8,0,0,1-4.69,5,2.93,2.93,0,0,1-1,.36c-1.32.14-2-.83-1.63-2.26.84-3.48,4.68-8.24,6.91-8.4m60,7.89-2.73,1.94c-.29-1.93,6.15-12.88,6.15-12.88h-6.08a8.6,8.6,0,0,1-.47.84c0-.05-2.36-2.07-6.58-.19A14,14,0,0,0,124,29.8c-5.26,4.53-2.53,2.72-7.75,6.72-1.41,1.08-2.54,1.92-2.54,1.92q1.07-2.27,1.91-4l.08-.17c1.24-2.5,2.32-5.07,2.18-6.58-.27-1.75-2.1-3.2-10.1,1.64l-1.32.91a6.81,6.81,0,0,0,.44-2.55c-.26-1.75-2.11-3.2-10.1,1.64l-.77.53,1.87-3.47,0-.05H92L82.46,44.06h6l.06-.1,5.63-10.47c1.17-.91,2-1.5,3.3-2.3,1-.62,1.91-1,2.3-.75a.82.82,0,0,1,.2.7,11.71,11.71,0,0,1-.77,1.75L93.23,44.06h6.35l.05-.12,3.72-7c.6-1.12,1.25-2.35,1.83-3.56,1.13-.87,2-1.45,3.21-2.24,1-.62,1.91-1,2.3-.75a.82.82,0,0,1,.2.7,11.6,11.6,0,0,1-.77,1.75L109,35.08h0a54.16,54.16,0,0,0-2.83,5.84c-.58,1.55-.63,3.47,1.38,3.64S112,42.81,113,42.06c1.29-1,4-3.37,5.34-4.56a8.22,8.22,0,0,0-.25,5.43,3.16,3.16,0,0,0,.17.41c1.25,2.54,4.61,1.95,7.06.51a20.27,20.27,0,0,0,3.15-2.4s-.2,3.4,2.51,3.43c2.27,0,7.68-4.51,9.47-6.07l-2.82,5.25h6l.06-.1,5.63-10.47c1.17-.91,2.05-1.5,3.3-2.3,1-.62,1.91-1,2.29-.75a.82.82,0,0,1,.2.7,11.72,11.72,0,0,1-.76,1.75l-1.23,2.32h0a52.75,52.75,0,0,0-2.77,5.72c-.55,1.44-.62,3.21,1,3.58,2.29.55,5.25-1.48,6.9-2.87.94-.68,1.66-1.26,2.11-1.63a5.83,5.83,0,0,0,1,2.45c2.9,4.25,9.44,3,11.81,2,3.53-1.52,6.74-5.13,1.51-13.22a3,3,0,0,1-.61-2.69,1.82,1.82,0,0,1,2.15-1.11c1.2.26.64,2.64,0,3.67,3,0,4.94-1.49,3.57-3.81-.5-.85-3.83-3.2-7.82.24-2.16,1.86-2.84,5.54-1.25,9.46a9.53,9.53,0,0,1,.85,3.46,2.32,2.32,0,0,1-2.57,2.46,3.83,3.83,0,0,1-3.65-4.43,7.3,7.3,0,0,1,3.3-4.56,6.57,6.57,0,0,0-5.41.7,6.46,6.46,0,0,0-2.47,2.68l-1.35,1c-1.41,1.08-2.54,1.92-2.54,1.92.45-.95,2-3.64,2.34-4.43.76-1.56,3.6-6.55,2.85-8.5-.49-1.54-2.63-2.44-10,2l-.77.53,1.87-3.47,0-.05h-6l-1.5,2.79c-1.57,2.73-1.88,4.19-7.44,8.14M131,29.4a3.12,3.12,0,0,1,.44-.05A1.61,1.61,0,0,1,133,31.23h0l-1.77,3.3-.08.15a11.8,11.8,0,0,1-4.69,5,2.67,2.67,0,0,1-.86.37c-1.21.14-1.81-.62-1.6-1.84.6-3.5,4.67-8.66,7-8.83M11.36,32.1c-1.8,4-3.09,8-2.61,10.46.28,2,1.62,3.43,5.07,2.81a26.24,26.24,0,0,0,9.11-4.91,5.47,5.47,0,0,0,1.62,4.18,5.78,5.78,0,0,0,5,.73C40.23,43,51.65,30.77,54.63,19,55.77,14.46,56,7.45,52,4.09c-2.7-2.25-6.67-2.39-10.09.78l0,0a4.64,4.64,0,0,1,3.43.7c1.51,1,2.47,3,2.88,5.81.63,8.75-3.85,18.61-9.7,24.4A18.14,18.14,0,0,1,34.12,39c-1.34.62-2.23.52-2.75,0-1.3-1.33-.17-4,.49-5.24L41.6,15.35H35l-9.8,18.2c-.74,1.18-1.87,2.22-4.36,4.13A11.7,11.7,0,0,1,19,39c-2.72,1.34-2.68-.65-2-2.93C18,32.7,24.41,20.18,27,16.34l.54-1H20.88l0,0q-1.24,1.74-2.36,3.47l-.52.88A27.25,27.25,0,0,1,14.15,25C10,29.29,5.8,30.22,0,30.5H0l.27.26C2.67,33,8.48,33.07,11,32.22l.37-.13" transform="translate(0 -2.44)"/></svg>