<svg id="Layer_1" data-name="Layer 1" xmlns="http://www.w3.org/2000/svg" viewBox="0 0 175.75 42.27"><defs><style>.cls-1{fill:#fff;fill-rule:evenodd;}</style></defs><title>Whole_Foods_Market</title><path class="cls-1" d="M179.86,32.44a5.52,5.52,0,0,1-4.05,3.64,10.23,10.23,0,0,1-5.61-.31c-.73,0-1.14.73-1.77.62l-.52-.73L167,31.92a1,1,0,0,1,.52-.73c1.35.1,1.56,1.56,2.6,2.18a5.27,5.27,0,0,0,5.09.62,2.6,2.6,0,0,0,1.46-2.29c-.62-3.64-4.78-4.89-7.17-7.07a5.06,5.06,0,0,1-2.29-4.16,4.71,4.71,0,0,1,2.18-4c2-1.14,4.68-.83,6.76-.31.73.1,1-.73,1.77-.42.52.31.83,2.81,1.14,4.26,0,.31-.42.52-.62.52-.73-.1-1.35-1.56-2.29-2.18a4.86,4.86,0,0,0-2.91-.94,2.46,2.46,0,0,0-2,1.14,2.56,2.56,0,0,0-.21,1.77c1.66,2.7,4.89,3.85,7.17,6.13a6.41,6.41,0,0,1,1.66,5.93Z" transform="translate(-4.53 -5.56)"/><path class="cls-1" d="M165.83,20.38c-2.39-4.57-7.8-4.78-12.48-4.16-1.56.31-3.22.42-4.57,1.35-.83,1.46,1.46.83,1.56,2l.1,13.52a1.17,1.17,0,0,1-1.14.73.91.91,0,0,0-.52.94,3,3,0,0,0,1.66.94c4.26.94,9.67,1.56,13.31-1,4.05-3.33,4.26-9.88,2.08-14.24Zm-3.54,10.19a7.2,7.2,0,0,1-2.08,3.22,5.42,5.42,0,0,1-5.2.31c-.83-1.25-.42-3-.52-4.47v-10a1.41,1.41,0,0,1,.73-1.35,4.91,4.91,0,0,1,4.78.31c3.33,2.91,3.22,8,2.29,12Z" transform="translate(-4.53 -5.56)"/><path class="cls-1" d="M92.53,36.08l-.62.42H78.6c-.42,0-.62-.62-.42-1,.42-.73,1.77-.21,1.87-1.25V19.14c-.1-1.25-2.29-.42-1.66-2l.52-.21H91.49c.83.21.94,1.87,1.46,2.81a.7.7,0,0,1-.42.62c-.94,0-1.35-1.35-2.18-1.66a48.61,48.61,0,0,0-5.51,0c-1,.73-.52,2.29-.62,3.43.1.73-.31,1.77.62,2.08l3.85.1c.31,0,.52.42.62.62a1,1,0,0,1-.62,1.25l-3.85.21c-.83.52-.62,1.56-.73,2.39a30.27,30.27,0,0,0,.31,5.3c.94,1.14,5.61.52,6,.42,1.35-.1,1.56-2.29,3-1.87a1.14,1.14,0,0,1,.1,1.14l-1,2.29Z" transform="translate(-4.53 -5.56)"/><path class="cls-1" d="M76.62,36.5H66.74c-.42-.1-.94-.21-1-.62-.21-.62.42-.94.83-1a.91.91,0,0,0,.83-.62V18.82c-.21-1-2.29-.42-1.56-1.87.31-.42,2.7-.21,4.57-.21,1,0,3.12-.21,3.12.42a1,1,0,0,1-.52.94,1.39,1.39,0,0,0-1.46.83c.1,5.09.1,10,.1,15,.21.73,1.14.52,1.77.62,1.87.31,3.22-.83,4.16-2.18a.92.92,0,0,1,.83-.21c.62.42.21,1,.1,1.46-.52.94-.62,2.5-1.87,2.91Z" transform="translate(-4.53 -5.56)"/><path class="cls-1" d="M61.23,35.56c-3.43,1.25-8.11,1.35-11-1.25-3.54-3.22-4.05-8.73-2.5-13,1-3.22,4.57-4.78,7.17-6.24.1-.21-.21-.31-.31-.31-2.18.31-3.74-2.08-5.82-.52-.52.31-.94,1-1.66.73-.42-.42-.21-1,0-1.46a5.44,5.44,0,0,1,3.54-2.7c2.5-.52,4.37.94,6.45,1.77.31,0,.94.1,1.14-.21-.62-.73-1.56-.94-2.29-1.56-1.77-1.56-4.16-2.7-6.45-1.77a6.12,6.12,0,0,0-2.81,2.81,1.28,1.28,0,0,1-1,.21,2,2,0,0,1-.1-1.87c.73-1.66,1.87-3.85,3.85-4.26,3.54-1.35,6.34,1.25,8.73,3.64.94,1.35,3,.31,3.74,1.77a1.83,1.83,0,0,1-.62,2c-3.43,2.91-9,4.26-9.77,9.46-.52,4.05-.42,8.94,3.33,11.33a4.94,4.94,0,0,0,4.78-.42c3.33-2.81,2.91-7.8,2.18-11.75a7.65,7.65,0,0,0-3.43-4.47.93.93,0,0,1,.52-1.14c2.7-.21,5.2,1.66,6.45,4.05,1.87,3.53,1.87,8.94-.52,12.27a8,8,0,0,1-3.54,2.91Z" transform="translate(-4.53 -5.56)"/><path class="cls-1" d="M5.19,16.43h6.65a.65.65,0,0,1,.31.83c-.62.42-1.46.21-1.77,1l.21,1.14c1.46,3.64,2.5,7.49,4.16,10.92a.22.22,0,0,0,.42,0c.94-2.08,1.66-4.37,2.5-6.65A21.69,21.69,0,0,0,16,18.51c-.31-1-2.08-.52-1.66-1.77l.42-.31H21.1a.7.7,0,0,1,.42.62c-.1.94-1.25.42-1.56,1.35l.1,1c1.35,3.64,2.18,7.38,3.74,10.81.52,0,.52-.62.73-.94l3-10.09c.21-.31,0-.73-.31-1-.52-.42-1.87-.31-1.46-1.35l.42-.21h9.67c.42,0,.94.1.94.52,0,1.14-1.56.52-1.77,1.56,0,1.56,0,3.33.1,4.89l.62.42c1.66-.1,3.64,0,5.3,0,.73,0,.42-3.43.52-5.2-.21-1.35-2.29-.31-1.77-2l.42-.31h7a.84.84,0,0,1,.31,1.14c-.52.42-1.46.21-1.66,1v15.7c.31.94,2.18.31,1.66,1.77L47,36.5l-6.55-.1a.65.65,0,0,1-.62-.42c-.1-1.35,1.66-.62,1.77-1.77V26.62l-.52-.52H35.45l-.31.62v7.69c.21,1,2.29.31,1.56,1.77l-.52.31H29.52a.9.9,0,0,1-.42-1c.42-.62,1.35-.31,1.66-.94l.1-1.56V19a.57.57,0,0,0-.31-.52c-.62.1-.62.83-.83,1.25-1.66,5.2-3.33,10.5-5,15.8a2,2,0,0,1-.94.94,1.75,1.75,0,0,1-1.66-.73c-1.35-2.6-1.66-5.3-2.91-7.9,0,0-.31-.52-.52-.21-1.14,2.6-1.87,5.41-2.91,8a1.74,1.74,0,0,1-1.87.73c-1.14-.1-1.56-2.08-2.08-3.43l-.94-2.5L6.54,18.41c-.31-1.14-2.6-.52-1.87-1.77.21-.31.31-.21.52-.21Z" transform="translate(-4.53 -5.56)"/><path class="cls-1" d="M147.74,20.49c-2-3.53-5.93-4.78-9.77-4.37-3.33.21-6.45,3-7.59,6h-.21a10.86,10.86,0,0,0-4.57-5.09c-3.64-1.66-8.73-1.35-11.75,1.66h-.42c-.52-.73-.52-1.87-1.46-2.18-4.05.1-7.8,0-11.85,0-.52,0-.52.52-.52.83.21.52.62.52,1,.52a1.25,1.25,0,0,1,.73,1v15.7a1.09,1.09,0,0,1-.94.52c-.31.1-.83.42-.62.83a.85.85,0,0,0,.52.52h6.55c.42-.1.94-.31.83-.94-.31-.52-.94-.42-1.35-.62a1.26,1.26,0,0,1-.73-1.35V26.41l.31-.42c1.46-.1,4,.31,4.47-.62a1,1,0,0,0-.21-1.25c-1.25-.52-3-.21-4.47-.31l-.31-.31V19.24a1.19,1.19,0,0,1,.62-.94,15.32,15.32,0,0,1,4.89.21,3.47,3.47,0,0,1,1.66,2,11.41,11.41,0,0,0-1.14,3.64c-.62,4.57.83,9,4.89,11.33,3.43,1.56,8.42,1.46,11.23-1.14,1.35-1.14,1.87-2.7,2.81-4a17.92,17.92,0,0,0,2.29,3.43c2.7,2.91,7.38,3.12,11,2A8.63,8.63,0,0,0,147.32,33a12.2,12.2,0,0,0,.42-12.48Zm-22,10.4A5.45,5.45,0,0,1,123.3,34a4.9,4.9,0,0,1-4.78-.21c-3.54-3-3.33-8.63-2-12.68a5.7,5.7,0,0,1,3-3,4.63,4.63,0,0,1,4.57,1.25c2.6,2.91,2.6,7.8,1.56,11.54Zm19-2a7,7,0,0,1-3,5.09,4.85,4.85,0,0,1-4.47-.1c-3.64-2.7-3.33-7.9-2.39-12a6,6,0,0,1,2.91-3.64,4.89,4.89,0,0,1,4.47.62c2.81,2.39,2.91,6.34,2.5,10Z" transform="translate(-4.53 -5.56)"/><path class="cls-1" d="M174.67,38.37l-163.55.1a4.68,4.68,0,0,0,.21,9.36H174.87a4.73,4.73,0,0,0-.21-9.46Zm-144.73,8-.1-.31c.21-.1.52-.1.62-.42V42l-.21-.1c-.62.73-1.14,1.66-1.66,2.29a16.14,16.14,0,0,1-2-2.39l-.21.31v3.64c.1.31.62.21.62.52a3,3,0,0,1-1.66-.1l.31-.42-.1-5.09c-.1-.21,0-.42-.21-.42V40c2.18-.73,2.08,2,3.33,2.81l.21-.1c1-.83,1-3.74,3.22-2.6,0,.31-.42.1-.52.42v5.2c0,.31.52.31.52.62ZM58,46.27a13.18,13.18,0,0,1-2.08,0c.1-.31.73-.42.52-1-.21-.31-.1-.83-.73-.83S54,44,53.85,45.13c-.1.31,0,.42-.1.62.21.21.52.1.52.42a2.27,2.27,0,0,1-1.66.1c-.1-.42.31-.21.42-.42.83-1.87,1.35-4,2.08-5.82.1-.31.31-.1.52-.21.73,2,1.35,4,2.08,5.93.1.21.94.31.31.52Zm26.62,0c-2.18.73-2.18-1.77-3.12-2.7-.31-1,1.25-.52,1.14-1.56,0-.52.1-1-.31-1.46-.31-.21-.73-.52-1.14-.21l-.31.42v4.89c.1.42.52.21.52.52a3.9,3.9,0,0,1-2.18,0c-.1-.42.42-.1.52-.52-.1-1.66.1-3.22-.1-4.89-.1-.31-.52-.1-.42-.42a4.76,4.76,0,0,1,4-.21,1.78,1.78,0,0,1,.62,2c-.1.62-.62.83-1.14,1.14.62,1,1,2.29,2.18,2.91l-.21.1Zm21.11-.21c0-.31.42-.21.52-.42a44.21,44.21,0,0,0-.1-5.3c0-.21-.52-.1-.31-.42H108c-.1.31-.62.52-.52.94v4.68c.1.31.52.31.52.52a4.27,4.27,0,0,1-2.29,0Zm5.72.1c-2.18.73-2.5-2.18-3.64-3.22a13.26,13.26,0,0,0,1.56-2.6l-.31-.31c.21-.31,1.66-.31,2-.1-1,.52-1.14,1.77-2,2.5l-.21.21c.94,1,1.35,2.6,2.6,3.33v.21Zm26.2-.62-.42.73-.1.1H133a.2.2,0,0,1-.1-.31c.1-.31.52-.1.62-.42,0-1.66-.1-3.33,0-5-.1-.42-.83-.1-.62-.62l.21-.1h3.85c.21.1.31.62.42.94.1.1,0,.21-.1.21-.31,0-.42-.42-.73-.52a5,5,0,0,0-1.77,0c-.31.21-.21.73-.21,1.14,0,.21-.1.52.21.62H136c.1.1.21.21.21.31A.42.42,0,0,1,136,43h-1.25c-.31.21-.21.52-.21.83a5.21,5.21,0,0,0,.1,1.77c.21.31,1.87.1,2,.1.42,0,.52-.73.94-.62a.62.62,0,0,1,.1.42Zm26.72-4.68a1.54,1.54,0,0,0-1.66-.73l-.31.42v4.78l.1.1a.32.32,0,0,1-.1-.21l.21.21.1.1c.1,0,.21.1.31.1s.1.1,0,.21c0,.31-1.46.1-2.18.1-.1,0-.31,0-.21-.21s.62-.1.62-.52V40.45c-.21-.52-.94-.21-1.25-.21l-.73.62c-.21-.31.21-.73.21-1l.21-.1h4.37c.1.31.52.73.31,1.14Z" transform="translate(-4.53 -5.56)"/><path class="cls-1" d="M55.2,43.78h-.73c.21-.73.52-2.08.62-2.18a17.19,17.19,0,0,1,.73,2.18Z" transform="translate(-4.53 -5.56)"/><path class="cls-1" d="M178.93,36.19h.21c.1,0,.31.1.31.21s-.21.21-.42.21h-.1v-.42Zm-.31,1.25h.31v-.62h.1l.42.62h.31l-.42-.62c.21,0,.31-.1.31-.42a.38.38,0,0,0-.42-.42h-.62v1.46Zm-.73-.73A1.2,1.2,0,0,0,179.14,38a1.18,1.18,0,0,0,1.14-1.25,1.15,1.15,0,0,0-1.14-1.14,1.18,1.18,0,0,0-1.25,1.14Zm.31,0a.94.94,0,1,1,1.87,0,.94.94,0,1,1-1.87,0Z" transform="translate(-4.53 -5.56)"/></svg>