<svg id="WD_LOGO" data-name="WD LOGO" xmlns="http://www.w3.org/2000/svg" viewBox="0 0 169.24 32.23"><defs><style>.cls-1{fill:#fff;}.cls-2{fill:#e21d39;}</style></defs><title>winn_dixie</title><path class="cls-1" d="M123.23,19a10.79,10.79,0,0,1-3.46,8.35q-3.46,3.18-9.36,3.18-.74,0-3-.07t-3.09-.07q-3.12,0-6.08.14c-.18,0-.27-.16-.27-.47s.09-.43.27-.45a9.67,9.67,0,0,0,2.13-.45,2,2,0,0,0,1-.75,3.31,3.31,0,0,0,.29-1.65V11a3.5,3.5,0,0,0-.28-1.64,1.91,1.91,0,0,0-1-.76,9.43,9.43,0,0,0-2.17-.45c-.18,0-.27-.15-.27-.46s.09-.46.27-.46q2,.14,6.08.14l3.09-.05,3-.05a13.09,13.09,0,0,1,9.28,3.28A11,11,0,0,1,123.23,19Zm-3.7,0a11.24,11.24,0,0,0-2.61-7.6,8.29,8.29,0,0,0-6.55-3h-.1l-3.16.07q-2,.07-2,1.95v17a1.72,1.72,0,0,0,2,1.92l3.16.1a8.5,8.5,0,0,0,6.59-3A10.73,10.73,0,0,0,119.53,19Z"/><path class="cls-1" d="M169.24,21q0,.47-.61.47h-9.22a17.33,17.33,0,0,0-.1,1.89,6.14,6.14,0,0,0,1.29,4.19A4.61,4.61,0,0,0,164.26,29a5.07,5.07,0,0,0,2.4-.65,5.71,5.71,0,0,0,1.95-1.65l.08,0a.39.39,0,0,1,.29.19.7.7,0,0,1,.14.44q0,.35-1.07,1.47a7.85,7.85,0,0,1-2.33,1.71,6.15,6.15,0,0,1-2.64.59A6.67,6.67,0,0,1,158,28.82a7.73,7.73,0,0,1-2.06-5.46,8.16,8.16,0,0,1,2-5.6,6.55,6.55,0,0,1,5.13-2.29,6.05,6.05,0,0,1,4.38,1.71A5.18,5.18,0,0,1,169.24,21Zm-3.06-1.48a2.83,2.83,0,0,0-.87-2.12,3.07,3.07,0,0,0-2.23-.84,2.89,2.89,0,0,0-2.25,1.1,6,6,0,0,0-1.29,2.88l4.68-.13a4.48,4.48,0,0,0,1.51-.2A.68.68,0,0,0,166.18,19.49Z"/><path class="cls-1" d="M127.24,10.85a1.74,1.74,0,0,0-1.23,3,1.72,1.72,0,0,0,2.46,0,1.69,1.69,0,0,0,.51-1.22,1.67,1.67,0,0,0-.51-1.24A1.69,1.69,0,0,0,127.24,10.85Z"/><path class="cls-1" d="M151.23,10.75a1.74,1.74,0,0,0-1.23,3,1.72,1.72,0,0,0,2.46,0,1.69,1.69,0,0,0,.51-1.22,1.67,1.67,0,0,0-.51-1.24A1.69,1.69,0,0,0,151.23,10.75Z"/><path class="cls-1" d="M37,10.64a1.74,1.74,0,0,0-1.23,3,1.72,1.72,0,0,0,2.46,0,1.73,1.73,0,0,0-1.23-3Z"/><path class="cls-1" d="M.38,8.07A4.54,4.54,0,0,1,2.81,9a6.8,6.8,0,0,1,1.66,2.53l8.41,19.29a.48.48,0,0,0,.49.27.53.53,0,0,0,.47-.27l5.51-10.06,4.81,10.06a.51.51,0,0,0,.46.27q.38,0,.46-.27l8.56-19.29a7.57,7.57,0,0,1,1.63-2.61,3.52,3.52,0,0,1,2-.8.35.35,0,0,0,.28-.16.59.59,0,0,0,.13-.36q0-.4-.23-.4a17.31,17.31,0,0,0-1.81.11A15.85,15.85,0,0,1,34,7.36a17.46,17.46,0,0,1-1.75-.11q-1.13-.11-1.95-.11-.3,0-.3.46c0,.31.07.46.2.46q2.25.1,2.25,1.76a4.09,4.09,0,0,1-.34,1.52l-6.45,15-4.36-8.9,3.22-5.94a9.31,9.31,0,0,1,2-2.69,4.21,4.21,0,0,1,2.11-.73c.25,0,.37-.18.37-.53s-.07-.4-.2-.4q-.86,0-2.13.12-1,.09-1.53.09-.72,0-1.85-.11t-2-.11c-.07,0-.13.05-.2.15a.54.54,0,0,0-.1.31c0,.31.07.46.2.46q2.25.1,2.25,1.66a3.7,3.7,0,0,1-.5,1.63L20.5,15.86l-2.43-4.93a4.17,4.17,0,0,1-.52-1.57q0-1.14,2.25-1.29c.11,0,.17-.15.17-.46s-.09-.46-.27-.46q-1.12,0-2.28.11t-2.13.11a16.43,16.43,0,0,1-1.93-.11,18.37,18.37,0,0,0-2.06-.11q-.23,0-.23.46a.51.51,0,0,0,.11.32.3.3,0,0,0,.23.14,3.26,3.26,0,0,1,1.93.74,10,10,0,0,1,1.63,2.68l3.67,7.68-4,7.51L7.74,10.95a2.63,2.63,0,0,1-.27-1,1.54,1.54,0,0,1,.65-1.29,3.29,3.29,0,0,1,1.77-.58c.11,0,.17-.15.17-.46s-.09-.46-.27-.46q-1.13,0-2.59.11t-2.42.11q-1,0-2.15-.11T.28,7.14h0c-.18,0-.26.15-.26.46a.49.49,0,0,0,.12.32.32.32,0,0,0,.24.14Z"/><path class="cls-1" d="M156.1,29.59a3,3,0,0,1-1.87-.69,3.74,3.74,0,0,1-.41-2.15V21.47q0-2.08.29-5.85c0-.18-.16-.27-.47-.27a.48.48,0,0,0-.37.2,4.54,4.54,0,0,1-1.4.84,17.66,17.66,0,0,1-2.87,1c-.18,0-.27.14-.27.41s.09.44.27.44a2.28,2.28,0,0,1,1.49.56,3.06,3.06,0,0,1,.34,1.76v6.22a3.8,3.8,0,0,1-.41,2.15,4.48,4.48,0,0,1-2.11.69,3.7,3.7,0,0,1-2-.65,10.42,10.42,0,0,1-2-2.2l-2.93-4.07,2.28-3a13,13,0,0,1,2.1-2,5.35,5.35,0,0,1,2.22-.67c.21,0,.31-.17.31-.45S148.19,16,148,16a10,10,0,0,0-1.14.09,12.84,12.84,0,0,1-1.67.12,15,15,0,0,1-1.6-.11,14.06,14.06,0,0,0-1.53-.11c-.18,0-.27.15-.27.46s.09.44.27.46q1.31.17,1.31.78a6,6,0,0,1-1.21,2.07l-1.44,1.95-1.4-1.95a4.81,4.81,0,0,1-1.08-2q0-.68,1.37-.83c.17,0,.26-.17.26-.45s-.09-.47-.27-.47q-.69,0-1.77.11t-2,.11q-.81,0-2-.11a17.34,17.34,0,0,0-1.73-.11c-.18,0-.27.15-.27.46s.09.44.27.46a4.18,4.18,0,0,1,2,.63A10.36,10.36,0,0,1,136,19.78l2.9,4-2.43,2.92a13.22,13.22,0,0,1-2.08,2.17l0,0c-.24.14-.48.46-2.34.64a1.64,1.64,0,0,1-.32,0h-.06A2.43,2.43,0,0,1,130,28.9a3.74,3.74,0,0,1-.41-2.15V21.47q0-2.08.28-5.85c0-.18-.16-.27-.47-.27a.48.48,0,0,0-.37.2,4.54,4.54,0,0,1-1.4.84,17.63,17.63,0,0,1-2.87,1c-.18,0-.27.14-.27.41s.09.44.27.44a2.28,2.28,0,0,1,1.49.56,3.05,3.05,0,0,1,.34,1.76v6.22a3.74,3.74,0,0,1-.41,2.15,2.89,2.89,0,0,1-1.84.69c-.18,0-.27.17-.27.45s.09.47.27.47q.69,0,1.75-.11c.75-.07,1.4-.1,1.94-.11h0c1.6,0,2.27.22,3.66.22H132c.93,0,1.47-.23,2.77-.23H135a15,15,0,0,1,1.6.11,13.44,13.44,0,0,0,1.5.11c.18,0,.27-.16.27-.47s-.08-.43-.24-.45q-1.32-.19-1.32-.79A5.72,5.72,0,0,1,138,26.74l1.48-2.15L141,26.72a5,5,0,0,1,1.06,2q0,.66-1.31.83c-.18,0-.27.17-.27.45s.09.47.27.47q.67,0,1.85-.11t2.12-.11c.28,0,1.62.1,2.88.15.92,0,2.37,0,2.72,0q1.17-.11,2-.11t2,.11q1.07.11,1.76.11c.18,0,.27-.16.27-.47S156.28,29.61,156.1,29.59Z"/><path class="cls-1" d="M75.18,29.59a2.9,2.9,0,0,1-1.84-.69,3.76,3.76,0,0,1-.41-2.16V20.31a4.85,4.85,0,0,0-1.28-3.53,4.74,4.74,0,0,0-3.56-1.31q-2.07,0-4.48,2.28l.14-2.11q0-.27-.47-.27a.48.48,0,0,0-.37.2,4.75,4.75,0,0,1-1.4.85,15.2,15.2,0,0,1-2.77.94c-.18,0-.27.14-.27.41s.09.44.27.44a2.36,2.36,0,0,1,1.54.56,3,3,0,0,1,.34,1.76v6.22a3.68,3.68,0,0,1-.42,2.14,2.93,2.93,0,0,1-1.86.7,3.68,3.68,0,0,1-1.47-.21A1.7,1.7,0,0,1,56,28.9a3.75,3.75,0,0,1-.41-2.16V20.31a4.85,4.85,0,0,0-1.28-3.53,4.74,4.74,0,0,0-3.56-1.31q-2.08,0-4.48,2.28l.14-2.11c0-.18-.16-.27-.47-.27a.49.49,0,0,0-.37.2,4.75,4.75,0,0,1-1.4.85,15.19,15.19,0,0,1-2.77.94c-.18,0-.27.14-.27.41s.09.44.27.44a2.36,2.36,0,0,1,1.54.56,3,3,0,0,1,.34,1.76v6.22a3.69,3.69,0,0,1-.42,2.14,2.93,2.93,0,0,1-1.86.7h-.23a3,3,0,0,1-1.87-.69,3.74,3.74,0,0,1-.41-2.15V21.47q0-2.08.28-5.85c0-.18-.16-.27-.47-.27a.48.48,0,0,0-.37.2,4.54,4.54,0,0,1-1.4.84,17.66,17.66,0,0,1-2.87,1c-.18,0-.27.14-.27.41s.09.44.27.44a2.28,2.28,0,0,1,1.49.56,3.06,3.06,0,0,1,.34,1.76v6.22a3.74,3.74,0,0,1-.41,2.15,2.9,2.9,0,0,1-1.84.69q-.27,0-.27.45c0,.31.09.47.27.47q.69,0,1.75-.11t2-.11q.81,0,2,.11c.72.07,1.3.12,1.76.12H41a16.8,16.8,0,0,0,1.68-.12q1.07-.11,1.88-.11t1.91.11a16.12,16.12,0,0,0,1.68.11c.18,0,.27-.16.27-.47s-.09-.43-.27-.45a2.06,2.06,0,0,1-1.52-.66,4.35,4.35,0,0,1-.36-2.19V19.18a5.7,5.7,0,0,1,1.6-1.31,3.8,3.8,0,0,1,1.72-.37,2.81,2.81,0,0,1,2.28.87,4.24,4.24,0,0,1,.74,2.76v5.62a4.35,4.35,0,0,1-.36,2.19,2.06,2.06,0,0,1-1.52.66c-.18,0-.27.17-.27.45s.09.47.27.47a16,16,0,0,0,1.66-.11q1.09-.11,1.92-.11t1.89.11h.19c.64.06,1.19.11,1.61.11h.23c.44,0,1,0,1.59-.11H60q1.07-.11,1.88-.11t1.91.11a16.14,16.14,0,0,0,1.68.11c.18,0,.27-.16.27-.47s-.09-.43-.27-.45A2.06,2.06,0,0,1,64,28.93a4.35,4.35,0,0,1-.36-2.19V19.18a5.7,5.7,0,0,1,1.6-1.31,3.81,3.81,0,0,1,1.72-.37,2.81,2.81,0,0,1,2.28.87,4.24,4.24,0,0,1,.74,2.76v5.62a4.36,4.36,0,0,1-.36,2.19,2.06,2.06,0,0,1-1.52.66c-.18,0-.27.17-.27.45s.09.47.27.47a15.92,15.92,0,0,0,1.65-.11q1.09-.11,1.92-.11t1.89.11a15.61,15.61,0,0,0,1.65.11c.18,0,.27-.16.27-.47S75.36,29.61,75.18,29.59Z"/><path class="cls-2" d="M83.07,22.14C86.56,12.81,94.86,4.95,101.24,0l.07.06c-.65.64-1.32,1.26-2,1.89s-1.45,1.32-2.16,2.11C89.41,12.44,86,22.57,83.18,32.23h-.24a49.5,49.5,0,0,0-7-8.08,38,38,0,0,1,3.6-4.7L79.9,19,83,22.27Z"/></svg>