<svg id="Layer_1" data-name="Layer 1" xmlns="http://www.w3.org/2000/svg" viewBox="0 0 175.75 43.33"><defs><style>.cls-1{fill:#fff;}</style></defs><title>World_Market</title><path class="cls-1" d="M72.27,8.16A1.63,1.63,0,1,0,74.15,9.7a1.66,1.66,0,0,0-1.88-1.54Z" transform="translate(-5.5 -3.71)"/><path class="cls-1" d="M101.17,11.35l-1.66-.24-.18,1.26,1.65.24c.59.09.91-.07,1-.53s-.21-.64-.79-.73Z" transform="translate(-5.5 -3.71)"/><path class="cls-1" d="M58.61,19.15c-.85.22-1.7.44-2.58.69a1.2,1.2,0,0,1-1.52-1.16,1.27,1.27,0,0,1,0-.22A31.11,31.11,0,0,0,55,13v-.78A20.33,20.33,0,0,0,54.68,9c-4,1.14-7.41,1.92-11,1.31a.28.28,0,0,0-.28.13.29.29,0,0,0,0,.31,14.73,14.73,0,0,0,6.47,5,14.65,14.65,0,0,1-6,4.08.28.28,0,0,0-.18.26h0a.28.28,0,0,0,.18.26,20.48,20.48,0,0,0,14.69.19c.53-.2.84-.46.81-1s-.32-.57-.75-.46Z" transform="translate(-5.5 -3.71)"/><path class="cls-1" d="M145.27,14.18A.28.28,0,0,0,145,14c-2.34-.19-5.4-.86-6.46-1.75a16.46,16.46,0,0,0,3.82-6.81.28.28,0,0,0-.43-.31c-2.64,1.67-5.21,1.92-7.7,2.15l-.93.09a30.29,30.29,0,0,0-.22,3.53s0,.8,0,.79a16.9,16.9,0,0,0,.84,5.11,1.2,1.2,0,0,1-.64,1.51l-.19.07c-1.23.31-2.43.59-3.61.85a.66.66,0,0,0-.52.85c.12.37.47.54,1.16.46,6.77-.79,12.27-3,15.07-6.07a.28.28,0,0,0,.06-.3Z" transform="translate(-5.5 -3.71)"/><path class="cls-1" d="M133.1,17.13a17.86,17.86,0,0,1-.9-5.4v-.8a32.17,32.17,0,0,1,.52-5.61.28.28,0,0,0-.35-.33c-7.85,2.21-14.63,3.23-20.14,3A120.55,120.55,0,0,1,95.3,6,134,134,0,0,0,76.42,3.75,76.09,76.09,0,0,0,55.24,6.44a.28.28,0,0,0-.18.14.29.29,0,0,0,0,.23,17.73,17.73,0,0,1,.9,5.4V13a32,32,0,0,1-.52,5.61.29.29,0,0,0,.09.26.28.28,0,0,0,.27.06c7.85-2.21,14.63-3.23,20.14-3a120.77,120.77,0,0,1,16.91,2,133.89,133.89,0,0,0,18.88,2.25,76.14,76.14,0,0,0,21.18-2.7.29.29,0,0,0,.18-.14.28.28,0,0,0,0-.23ZM67.16,12.65a.14.14,0,0,0-.17-.06,8.85,8.85,0,0,1-2.73,1.1c-1.73.31-3.75-.33-4.1-2.28s1.32-3.26,3-3.57a7.27,7.27,0,0,1,2-.12,5.84,5.84,0,0,0,.78.07.21.21,0,0,0,.15-.12h.12l-.65,2-.12-.06a.6.6,0,0,0,0-.17c0-.22-.92-.35-1.84-.18s-1.95.74-1.75,1.85,1.4,1.28,2.28,1.13c.38-.07,1.77-.62,1.71-.94,0-.07-.06-.1-.09-.15l.11-.1,1.42,1.5-.12.1Zm5.3.09c-1.87.08-3.47-.88-3.56-2.81s1.43-3,3.3-3.12,3.47.88,3.56,2.81-1.43,3-3.3,3.12Zm8.68-4.55c-1-.08-1.31.15-1.33.4-.09,1,4.56.18,4.34,2.71-.08.95-.88,1.93-3.26,1.72A9,9,0,0,1,78,12.26c-.09,0-.16.06-.23.12l-.13,0,1-1.89.11.06a.68.68,0,0,0,0,.23c0,.3,1.1.89,2.24,1s1.61-.13,1.65-.61c.07-.81-4.52-.31-4.34-2.43.1-1.1,1.21-1.77,2.83-1.63a13.57,13.57,0,0,1,2.84.71.37.37,0,0,0,.31-.14l.12.05-.89,1.46-.13-.08V9c0-.28-1.2-.69-2.23-.78Zm11.31,2.08-.13,0c0-.26,0-.32-.15-.34L90.3,9.63l-.62,4.08c0,.1,0,.18.27.24l0,.13-2.24-.34,0-.13c.28,0,.32-.05.33-.15l.62-4.08L86.8,9.1c-.12,0-.17,0-.24.28l-.13,0,.29-1.94.13,0c0,.26,0,.32.15.34l5.37.82c.12,0,.17,0,.24-.28l.13,0-.29,1.94Zm11,2a1.87,1.87,0,0,1-2.34,1.51l-2-.29L98.9,15.3c0,.1,0,.18.28.24l0,.13-2.25-.33,0-.13c.28,0,.32-.05.33-.15L98,10c0-.1,0-.18-.28-.24l0-.13,3.9.57a1.88,1.88,0,0,1,1.82,2.13ZM111,17.18h-.13c0-.23-.06-.29-.18-.3l-5.45-.38v-.13c.28,0,.31-.08.32-.18L106,11c0-.1,0-.18-.29-.22V10.7l2.26.17V11c-.28,0-.31.08-.32.18l-.3,4.12,3.49.23c.12,0,.17,0,.22-.3h.13L111,17.18Zm8.19-2.93c.09,1.94-1.24,2.64-2.92,2.72s-3.06-.5-3.15-2.44l-.13-3c0-.1,0-.17-.32-.19v-.13l2.26-.1v.13c-.27,0-.3.11-.3.21l.13,3c0,.85.56,1.17,1.44,1.13s1.37-.4,1.33-1.25l-.13-3c0-.1,0-.17-.32-.19v-.13l2.26-.1v.13c-.27,0-.3.11-.3.21l.13,3Zm5.9,1.69a9,9,0,0,1-2.95,0c-.09,0-.14.1-.19.18h-.14l.46-2.08.12,0a.68.68,0,0,0,0,.23c.05.29,1.3.58,2.42.38s1.52-.54,1.44-1c-.14-.8-4.45.88-4.82-1.22-.19-1.09.72-2,2.31-2.31a13.5,13.5,0,0,1,2.93,0,.38.38,0,0,0,.26-.21l.13,0-.48,1.64-.14,0,0-.12c0-.27-1.34-.36-2.35-.18s-1.22.49-1.18.74c.17,1,4.45-1,4.89,1.49.16.94-.36,2.09-2.71,2.51Z" transform="translate(-5.5 -3.71)"/><polygon class="cls-1" points="95.21 19.98 100.13 19.98 100.13 22.15 99.05 22.15 100.52 40.77 101.41 40.77 101.41 42.93 94.95 42.93 94.95 40.76 96.04 40.76 95.23 29.66 95.16 29.66 92.01 42.92 90.18 42.92 86.83 29.58 86.76 29.58 85.9 40.76 86.91 40.76 86.91 42.92 82.78 42.92 82.78 40.76 83.89 40.76 85.34 22.14 84.31 22.14 84.31 19.97 88.9 19.98 92.17 33.35 92.24 33.35 95.21 19.98 95.21 19.98"/><path class="cls-1" d="M34.32,29.53c2.75.42,2.5,9.31,2.16,11.59-.47,3.12-1.36,4-2.41,3.82-2.74-.42-2.5-9.31-2.16-11.59.47-3.12,1.36-4,2.41-3.82ZM33.87,47c4.1,0,7.27-3.78,7.27-10.11,0-5.81-3-9.49-6.61-9.49-4.1,0-7.27,3.78-7.27,10.11,0,5.81,3,9.49,6.61,9.49Z" transform="translate(-5.5 -3.71)"/><path class="cls-1" d="M47.72,30c2.39.06,3.22,1.29,3.21,3.59s-.7,4.47-3.22,4.52V30Zm.82,16.56V44.44h-.83V40.33a3.15,3.15,0,0,0,1-.19,55.29,55.29,0,0,1,2.15,6.47h4.67V44.45h-.93l-2.13-5.24a5.25,5.25,0,0,0,2.7-4.77c0-4.5-2.1-6.55-7.37-6.56H42.54V30h.93v14.4h-.93V46.6Z" transform="translate(-5.5 -3.71)"/><path class="cls-1" d="M74.84,30.06c3.48.3,3.91,4.53,3.91,7.16,0,3-.24,7.24-3.92,7.24V30.06Zm-5.2,16.56h5.53c4.91,0,7.84-4.3,7.84-9.32,0-6.75-4-9.41-8.56-9.41h-4.8v2.17h.93v14.4h-.93v2.17Z" transform="translate(-5.5 -3.71)"/><path class="cls-1" d="M115.61,39.74h-3.29l1.59-6.61h.05l1.66,6.61Zm-3.48,6.91V44.48h-.83l.47-2.33h4.54l.57,2.33h-1.14v2.17h6.12V44.49h-.78l-4.32-16.57H113.3l-4.19,16.56h-.81v2.16Z" transform="translate(-5.5 -3.71)"/><path class="cls-1" d="M128.76,30.1c2.39.06,3.22,1.29,3.22,3.59s-.7,4.47-3.22,4.52V30.1Zm.82,16.56V44.49h-.83V40.38a3.1,3.1,0,0,0,1-.19,55.78,55.78,0,0,1,2.15,6.47h4.67V44.5h-.94l-2.12-5.24a5.25,5.25,0,0,0,2.7-4.77c0-4.5-2.1-6.55-7.37-6.56h-5.29v2.17h.93V44.49h-.93v2.17Z" transform="translate(-5.5 -3.71)"/><path class="cls-1" d="M139,46.66V44.5H140V30.1H139V27.94h6.12v2.17h-.93v5.62h.05L148,30.11H147V27.94h4.51v2.17h-.94l-2.72,4,3.75,10.4h1v2.17h-4.75c-.75-3-2-5.84-2.93-8.75h-.05l-.67,1.1V44.5h.93v2.17Z" transform="translate(-5.5 -3.71)"/><path class="cls-1" d="M163.14,34.3h1.63v4.83h-1.63V37.81h-3.5v6.7H161c1.89,0,2.13-.27,2.16-2.8h1.63v5H154.44V44.51h.93V30.11h-.93V27.95h10.33v3.76h-1.63c0-.82-.36-1.59-1.19-1.59h-2.31v5.53h3.5V34.3Z" transform="translate(-5.5 -3.71)"/><path class="cls-1" d="M167.17,28l-.37,5.13h1.71c.1-1.45.78-2.85,2.23-3v14.4h-.93v2.17h6.12V44.52H175V30.13c1.45.11,2.13,1.51,2.23,3h1.71L178.58,28Z" transform="translate(-5.5 -3.71)"/><path class="cls-1" d="M67.86,46.62,68,41.55H66.44c0,2.06-.73,2.91-2.44,2.91H63V30.06H64V27.89H57.84v2.17h.93v14.4h-.94v2.17Z" transform="translate(-5.5 -3.71)"/><path class="cls-1" d="M19.15,25.81h1V23.64H13.37V25.8h1.27l1.5,7-1.75,6.65h-.06L11.14,25.8h1.32V23.64h-7V25.8H6.56l3.87,16.65a31.73,31.73,0,0,1,.78,4.13h3.68a17,17,0,0,1,.6-3l1.6-5.95h.06l1.32,5.78A17.08,17.08,0,0,1,19,46.59H22.7a21.54,21.54,0,0,1,.63-3.49l3.77-15.69A15.43,15.43,0,0,1,28,24.55l-.63-.84a6.8,6.8,0,0,1-1.17.1c-1.26,0-1.26-.34-2.08-.34-2.16,0-3.14,2.62-3.79,4.59l.43.29a1,1,0,0,1,.83-.62c.86-.09,1.27.46,2.18.64a2.3,2.3,0,0,0,.89-.06L22.1,39.64H22L19.15,25.81Z" transform="translate(-5.5 -3.71)"/><path class="cls-1" d="M181,45.25a1.5,1.5,0,1,1-1.5-1.5,1.47,1.47,0,0,1,1.5,1.5Zm.29,0A1.79,1.79,0,1,0,179.47,47a1.76,1.76,0,0,0,1.79-1.79Zm-1-.42a.57.57,0,0,0-.64-.59h-.86v2h.33v-.75h.38l.38.75h.39l-.4-.79a.56.56,0,0,0,.41-.58Zm-.34,0c0,.19-.13.28-.31.28h-.51v-.56h.51a.28.28,0,0,1,.31.28Z" transform="translate(-5.5 -3.71)"/></svg>