<svg id="Layer_1" data-name="Layer 1" xmlns="http://www.w3.org/2000/svg" viewBox="0 0 662.00781 430.87973"><defs><style>.cls-1{fill:#CCCCCC;}</style></defs><title>barcode_skeleton</title><rect class="cls-1" width="26.01563" height="348"/><rect class="cls-1" x="40" width="13.00781" height="348"/><rect class="cls-1" x="71" width="13.00781" height="348"/><rect class="cls-1" x="257" width="13.00781" height="348"/><rect class="cls-1" x="358" width="13.00781" height="348"/><rect class="cls-1" x="337" width="13.00781" height="348"/><rect class="cls-1" x="476" width="13.00781" height="348"/><rect class="cls-1" x="572" width="13.00781" height="348"/><rect class="cls-1" x="649" width="13.00781" height="348"/><rect class="cls-1" x="635.5" width="6.50391" height="348"/><rect class="cls-1" x="560.49609" width="6.50391" height="348"/><rect class="cls-1" x="506.49609" width="6.50391" height="348"/><rect class="cls-1" x="460.99609" width="6.50391" height="348"/><rect class="cls-1" x="447.99609" width="6.50391" height="348"/><rect class="cls-1" x="316.49609" width="6.50391" height="348"/><rect class="cls-1" x="288.99609" width="6.50391" height="348"/><rect class="cls-1" x="244.49609" width="6.50391" height="348"/><rect class="cls-1" x="195.49609" width="6.50391" height="348"/><rect class="cls-1" x="169.99609" width="6.50391" height="348"/><rect class="cls-1" x="147.49609" width="6.50391" height="348"/><rect class="cls-1" x="88.99609" width="6.50391" height="348"/><rect class="cls-1" x="56.49609" width="6.50391" height="348"/><rect class="cls-1" x="106" width="26.01563" height="348"/><rect class="cls-1" x="212" width="26.01563" height="348"/><rect class="cls-1" x="379" width="26.01563" height="348"/><rect class="cls-1" x="415" width="26.01563" height="348"/><rect class="cls-1" x="530" width="26.01563" height="348"/><rect class="cls-1" x="604" width="26.01563" height="348"/><rect class="cls-1" x="112.62923" y="390.05646" width="11.51754" height="40.18341"/><rect class="cls-1" x="144.95332" y="390.05646" width="11.51754" height="40.18341"/><rect class="cls-1" x="238.74628" y="403.66705" width="11.51754" height="27.21268"/><rect class="cls-1" x="309.96306" y="390.05646" width="11.51754" height="40.18341"/><rect class="cls-1" x="159.49572" y="414.17993" width="11.51754" height="29.26899" transform="translate(-269.22661 589.73559) rotate(-90)"/><rect class="cls-1" x="155.27375" y="388.07239" width="11.51754" height="20.82505" transform="translate(-243.11907 555.1841) rotate(-90)"/><rect class="cls-1" x="490.05732" y="390.05646" width="11.51754" height="40.18341"/><rect class="cls-1" x="504.59971" y="414.17993" width="11.51754" height="29.26899" transform="translate(75.87739 934.83958) rotate(-90)"/><rect class="cls-1" x="500.37774" y="388.07239" width="11.51754" height="20.82505" transform="translate(101.98493 900.28809) rotate(-90)"/><rect class="cls-1" x="200.24488" y="399.4862" width="11.51754" height="26.91925" transform="translate(-212.60884 614.61614) rotate(-90)"/><rect class="cls-1" x="310.75927" y="403.66131" width="11.51754" height="30.08657" transform="translate(-107.85322 730.8893) rotate(-90)"/><rect class="cls-1" x="538.40174" y="390.05646" width="11.51754" height="40.18341"/><rect class="cls-1" x="539.19795" y="403.66131" width="11.51754" height="30.08657" transform="translate(120.58546 959.32797) rotate(-90)"/><rect class="cls-1" x="200.24488" y="415.35481" width="11.51754" height="26.91925" transform="translate(-228.47744 630.48475) rotate(-90)"/><rect class="cls-1" x="200.24488" y="384.89732" width="11.51754" height="26.91925" transform="translate(-198.01995 600.02726) rotate(-90)"/><rect class="cls-1" x="350.74072" y="399.4862" width="11.51754" height="26.91925" transform="translate(-62.113 765.11198) rotate(-90)"/><rect class="cls-1" x="350.74072" y="415.35481" width="11.51754" height="26.91925" transform="translate(-77.98161 780.98059) rotate(-90)"/><rect class="cls-1" x="350.74072" y="384.89732" width="11.51754" height="26.91925" transform="translate(-47.52412 750.5231) rotate(-90)"/><rect class="cls-1" x="462.26889" y="399.4862" width="11.51754" height="26.91925" transform="translate(49.41517 876.64015) rotate(-90)"/><rect class="cls-1" x="462.26889" y="415.35481" width="11.51754" height="26.91925" transform="translate(33.54656 892.50875) rotate(-90)"/><rect class="cls-1" x="462.26889" y="384.89732" width="11.51754" height="26.91925" transform="translate(64.00405 862.05126) rotate(-90)"/><rect class="cls-1" x="236.97304" y="384.89732" width="11.51754" height="26.91925" transform="translate(-161.2918 636.75541) rotate(-90)"/><rect class="cls-1" x="236.97304" y="415.35481" width="11.51754" height="26.91925" transform="translate(-191.74929 667.2129) rotate(-90)"/><rect class="cls-1" x="274.64261" y="403.66705" width="11.51754" height="27.21268"/><rect class="cls-1" x="272.86936" y="384.89732" width="11.51754" height="26.91925" transform="translate(-125.39548 672.65174) rotate(-90)"/><rect class="cls-1" x="272.86936" y="415.35481" width="11.51754" height="26.91925" transform="translate(-155.85297 703.10923) rotate(-90)"/><rect class="cls-1" x="391.16171" y="403.66705" width="11.51754" height="27.21268"/><rect class="cls-1" x="389.38846" y="384.89732" width="11.51754" height="26.91925" transform="translate(-8.87638 789.17084) rotate(-90)"/><rect class="cls-1" x="389.38846" y="415.35481" width="11.51754" height="26.91925" transform="translate(-39.33387 819.62833) rotate(-90)"/><rect class="cls-1" x="425.90628" y="403.66705" width="11.51754" height="27.21268"/><rect class="cls-1" x="424.13304" y="384.89732" width="11.51754" height="26.91925" transform="translate(25.8682 823.91541) rotate(-90)"/><rect class="cls-1" x="424.13304" y="415.35481" width="11.51754" height="26.91925" transform="translate(-4.58929 854.37291) rotate(-90)"/></svg>