<?xml version="1.0" encoding="utf-8"?>
<!-- Generator: Adobe Illustrator 21.0.2, SVG Export Plug-In . SVG Version: 6.00 Build 0)  -->
<svg version="1.1" id="Layer_1" xmlns="http://www.w3.org/2000/svg" xmlns:xlink="http://www.w3.org/1999/xlink" x="0px" y="0px"
	 viewBox="0 0 662 373" style="enable-background:new 0 0 662 373;" xml:space="preserve">
<style type="text/css">
	.st0{fill:#CCCCCC;}
</style>
<title>barcode_skeleton</title>
<g>
	<rect x="5.2" y="4.8" class="st0" width="25.6" height="321.3"/>
	<rect x="44.6" y="4.8" class="st0" width="12.8" height="321.3"/>
	<rect x="75.1" y="4.8" class="st0" width="12.8" height="321.3"/>
	<rect x="258.2" y="4.8" class="st0" width="12.8" height="321.3"/>
	<rect x="357.7" y="4.8" class="st0" width="12.8" height="321.3"/>
	<rect x="337" y="4.8" class="st0" width="12.8" height="321.3"/>
	<rect x="473.9" y="4.8" class="st0" width="12.8" height="321.3"/>
	<rect x="568.4" y="4.8" class="st0" width="12.8" height="321.3"/>
	<rect x="644.2" y="4.8" class="st0" width="12.8" height="321.3"/>
	<rect x="630.9" y="4.8" class="st0" width="6.4" height="321.3"/>
	<rect x="557.1" y="4.8" class="st0" width="6.4" height="321.3"/>
	<rect x="503.9" y="4.8" class="st0" width="6.4" height="321.3"/>
	<rect x="459.1" y="4.8" class="st0" width="6.4" height="321.3"/>
	<rect x="446.3" y="4.8" class="st0" width="6.4" height="321.3"/>
	<rect x="316.8" y="4.8" class="st0" width="6.4" height="321.3"/>
	<rect x="289.7" y="4.8" class="st0" width="6.4" height="321.3"/>
	<rect x="245.9" y="4.8" class="st0" width="6.4" height="321.3"/>
	<rect x="197.7" y="4.8" class="st0" width="6.4" height="321.3"/>
	<rect x="172.6" y="4.8" class="st0" width="6.4" height="321.3"/>
	<rect x="150.4" y="4.8" class="st0" width="6.4" height="321.3"/>
	<rect x="92.8" y="4.8" class="st0" width="6.4" height="321.3"/>
	<rect x="60.8" y="4.8" class="st0" width="6.4" height="321.3"/>
	<rect x="109.6" y="4.8" class="st0" width="25.6" height="321.3"/>
	<rect x="213.9" y="4.8" class="st0" width="25.6" height="321.3"/>
	<rect x="378.4" y="4.8" class="st0" width="25.6" height="321.3"/>
	<rect x="413.8" y="4.8" class="st0" width="25.6" height="321.3"/>
	<rect x="527" y="4.8" class="st0" width="25.6" height="321.3"/>
	<rect x="599.9" y="4.8" class="st0" width="25.6" height="321.3"/>
</g>
<rect x="162.5" y="351.7" class="st0" width="337.2" height="14.5"/>
</svg>
