<svg xmlns="http://www.w3.org/2000/svg" xmlns:xlink="http://www.w3.org/1999/xlink" version="1.1" x="0px" y="0px" viewBox="0 0 66 82.5" style="enable-background:new 0 0 66 66;" xml:space="preserve"><g><path d="M56.9,18.5H45.2l-1.2-4.5c-0.3-1.3-1.5-2.2-2.9-2.2H24.8c-1.4,0-2.6,0.9-2.9,2.2l-1.2,4.5H9.1c-2.8,0-5,2.2-5,5v26.6   c0,2.8,2.2,5,5,5h47.9c2.8,0,5-2.2,5-5V23.5C61.9,20.8,59.7,18.5,56.9,18.5z M33,48.4c-6.9,0-12.5-5.6-12.5-12.5   c0-6.9,5.6-12.5,12.5-12.5S45.5,29,45.5,35.9C45.5,42.8,39.9,48.4,33,48.4z"/></g></svg>