<svg id="Layer_1" data-name="Layer 1" xmlns="http://www.w3.org/2000/svg" viewBox="0 0 52.61645 40.48923"><defs><style>.cls-1{fill:#fff;}</style></defs><title>barcode</title><g id="tRivQd.tif"><path d="M26.72084.37773Q38.1799.37764,49.639.37319a2.96277,2.96277,0,0,1,2.76474,1.30125,3.82365,3.82365,0,0,1,.56974,1.86985q.05,17.07385.01894,34.14792a3.03317,3.03317,0,0,1-3.35311,3.16443q-14.09472.0043-28.18943.00136-8.85212,0-17.70423.00441A2.96219,2.96219,0,0,1,.98044,39.56192a3.82256,3.82256,0,0,1-.5703-1.86971Q.36013,20.61843.39122,3.54443A3.02892,3.02892,0,0,1,3.688.37983Q15.20443.37226,26.72084.37773Zm-.03236,2.02381q-11.4302,0-22.8604.0002c-1.11595.00006-1.42367.30945-1.4237,1.43133q-.00047,16.78712,0,33.57425c0,1.11632.30964,1.42643,1.4296,1.42646q22.889.00076,45.778-.00016c1.03519,0,1.36686-.33376,1.36691-1.37493q.00089-16.84442,0-33.68883c-.00006-1.03829-.3329-1.368-1.3728-1.368Q38.14729,2.40154,26.68848,2.40154Z" transform="translate(-0.38355 -0.37319)"/><path class="cls-1" d="M26.68848,2.40164q11.45882.00016,22.91763.00022c1.0399,0,1.37274.32971,1.3728,1.368q.001,16.84441,0,33.68883c-.00006,1.04117-.33172,1.37489-1.36691,1.37493q-22.889.00091-45.778.00016c-1.12,0-1.42957-.31014-1.4296-1.42646q-.00051-16.78713,0-33.57425c0-1.12188.30776-1.43128,1.4237-1.43133Q15.25828,2.40116,26.68848,2.40164ZM42.90857,4.47182V36.76044h3.99248V4.47182ZM10.52939,36.76h3.97509V4.48671H10.52939Zm16.129.01071V4.47613H22.70176V36.77069ZM8.44,36.77308V4.48622H6.49221V36.77308ZM18.63109,4.46148v32.291h1.95263V4.46148ZM32.80016,4.462V36.75064h1.95191V4.462Zm6.07064-.00026V36.75151h1.95326V4.46177Zm-10.10665.01V36.76334h1.93447V4.47172Z" transform="translate(-0.38355 -0.37319)"/><path d="M42.90857,4.47182h3.99248V36.76044H42.90857Z" transform="translate(-0.38355 -0.37319)"/><path d="M10.52939,36.76V4.48671h3.97509V36.76Z" transform="translate(-0.38355 -0.37319)"/><path d="M26.65835,36.77069H22.70176V4.47613h3.95659Z" transform="translate(-0.38355 -0.37319)"/><path d="M8.44,36.77308H6.49221V4.48622H8.44Z" transform="translate(-0.38355 -0.37319)"/><path d="M18.63109,4.46148h1.95263v32.291H18.63109Z" transform="translate(-0.38355 -0.37319)"/><path d="M32.80016,4.462h1.95191V36.75064H32.80016Z" transform="translate(-0.38355 -0.37319)"/><path d="M38.8708,4.46177h1.95326V36.75151H38.8708Z" transform="translate(-0.38355 -0.37319)"/><path d="M28.76415,4.47172h1.93447V36.76334H28.76415Z" transform="translate(-0.38355 -0.37319)"/></g></svg>