<svg id="Layer_1" data-name="Layer 1" xmlns="http://www.w3.org/2000/svg" viewBox="0 0 97.5 97.5"><defs><style>.cls-1{fill:#3282c4;}.cls-2{fill:#ef4223;}</style></defs><title>barcode2</title><path d="M69.75,30.59h4.61V67.9H69.75Z" transform="translate(-1.41 -0.5)"/><path d="M32.33,67.9V30.61h4.59V67.9Z" transform="translate(-1.41 -0.5)"/><path d="M51,67.91H46.4V30.6H51Z" transform="translate(-1.41 -0.5)"/><path d="M29.92,67.92H27.67V30.61h2.25Z" transform="translate(-1.41 -0.5)"/><path d="M58.07,30.58h2.26V67.89H58.07Z" transform="translate(-1.41 -0.5)"/><path d="M65.08,30.58h2.26V67.89H65.08Z" transform="translate(-1.41 -0.5)"/><path d="M53.4,30.59h2.24V67.91H53.4Z" transform="translate(-1.41 -0.5)"/><path d="M40.5,30.59h2.24V67.91H40.5Z" transform="translate(-1.41 -0.5)"/><path class="cls-1" d="M88.86,98H11.46A10.06,10.06,0,0,1,1.41,87.95V10.55A10.06,10.06,0,0,1,11.46.5h77.4A10.06,10.06,0,0,1,98.91,10.55v77.4A10.06,10.06,0,0,1,88.86,98ZM11.46,2.5a8.06,8.06,0,0,0-8.05,8.05v77.4A8.06,8.06,0,0,0,11.46,96h77.4a8.06,8.06,0,0,0,8.05-8.05V10.55A8.06,8.06,0,0,0,88.86,2.5Z" transform="translate(-1.41 -0.5)"/><rect class="cls-2" x="2" y="47.5" width="93.5" height="4"/></svg>