<svg id="Layer_1" data-name="Layer 1" xmlns="http://www.w3.org/2000/svg" viewBox="0 0 199.38 41.48"><defs><style>.cls-1{fill:#faa95d;}</style></defs><title>tiny_logo</title><path class="cls-1" d="M177.31,36.27a8.83,8.83,0,0,1-6.65-2.59,9.94,9.94,0,0,1-2.51-7.22,10.15,10.15,0,0,1,2.43-7.2,9.17,9.17,0,0,1,12.76,0q2.4,2.56,2.39,7.25v.8H171.62a7.24,7.24,0,0,0,1.79,4.82,5.31,5.31,0,0,0,3.9,1.57,5.76,5.76,0,0,0,3.15-.89,3,3,0,0,0,1.48-2.54h3.45a6.22,6.22,0,0,1-2.62,4.47A9.23,9.23,0,0,1,177.31,36.27Zm4.91-11.63a6.8,6.8,0,0,0-1.82-4,5.1,5.1,0,0,0-6.89,0,6.63,6.63,0,0,0-1.82,4.06Z" transform="translate(-2.48 -1.66)"/><path class="cls-1" d="M44.77,1.66c.12.26-2.2,2-2.47,2.22a20.61,20.61,0,0,1-2.84,1.82,22,22,0,0,1-7.56,2.42l1.18-2-3.73-.64-1.53,3-3.28.25A18,18,0,0,1,21.48,9c-2.68-4.67-8.92-4.4-13-1.92a12.39,12.39,0,0,0-5.7,7.52,8,8,0,0,0,1.7,7.56,11.07,11.07,0,0,0,6,2.9,17.17,17.17,0,0,0,2.68.28c.73,0,1.45,0,2.18,0,.31,0,1.67.15,1.85-.18.48-.88,1-1.76,1.45-2.63a27.32,27.32,0,0,1-5,.6c-2.94,0-7.13-1-7.73-4.45-.83-4.75,3-9,7.34-10.34A6.49,6.49,0,0,1,15.92,8c.78.09,2,.49,2.35,1.27a30.83,30.83,0,0,0-3.4.74c-2.59.76-5.42,2.14-6.55,4.76a4.32,4.32,0,0,0,1,5C11.19,21.29,14,21.11,15.05,21a8.22,8.22,0,0,0,5.87-3.61,8.54,8.54,0,0,0,1.36-5.2l3.9-.43c-1.82,3.56-3.7,7.24-5.38,10.93a32.63,32.63,0,0,0-1.29,3.14,18.07,18.07,0,0,0-.93,5.45,7.68,7.68,0,0,0,1.57,5.31,5.73,5.73,0,0,0,4.11,1.91,6.71,6.71,0,0,0,2.79-.55l.15-1.75a3,3,0,0,1-3.41-.88,6,6,0,0,1-1.12-4.08,16.3,16.3,0,0,1,.84-4.91,31,31,0,0,1,1.22-3c1.73-3.8,3.68-7.6,5.56-11.28a20.88,20.88,0,0,1,3.52-.85,27.4,27.4,0,0,0,4.63-1.4,21.26,21.26,0,0,0,7.67-5.13ZM18,16a4.41,4.41,0,0,1-3.19,2,3.87,3.87,0,0,1-2.87-.52,1.87,1.87,0,0,1-.34-2.11c.94-2.17,4.38-2.58,7.13-2.9A4.36,4.36,0,0,1,18,16Z" transform="translate(-2.48 -1.66)"/><circle class="cls-1" cx="34.6" cy="13.21" r="2.48"/><path class="cls-1" d="M37.08,19.84a2.46,2.46,0,0,1-1.67-.66V35.82h3.34V19.18A2.46,2.46,0,0,1,37.08,19.84Z" transform="translate(-2.48 -1.66)"/><path class="cls-1" d="M198.64,30.87c.15,0-.42.77-.5.9a2.94,2.94,0,0,1-2.68,1.5c-1.29-.24-1.19-1.77-1.19-2.78V19.69h3V17.07h-3V7.91l-3.32-1.51V17.07h-1.81a11.89,11.89,0,0,0-2.32,0,7.37,7.37,0,0,0,.9,1.37c.1.13.78,1.23.92,1.23h2.32V30.33a9.38,9.38,0,0,0,.37,3.6c1.33,3,5.76,2.83,8,1.07a7.67,7.67,0,0,0,2.57-4.19Z" transform="translate(-2.48 -1.66)"/><path class="cls-1" d="M165.83,35.34a6,6,0,0,1-.36-2c-.18-3.75,0-7.55,0-11.31V7.91l-3.34-1.51V16.72q0,5.17,0,10.34a50.81,50.81,0,0,0,.18,6.86c.37,2.75,1.62,5.34,4.53,6l.68-2.92c0,.11-1-.72-1.11-.82A2.79,2.79,0,0,1,165.83,35.34Z" transform="translate(-2.48 -1.66)"/><path class="cls-1" d="M157,35.34a6,6,0,0,1-.36-2c-.18-3.75,0-7.55,0-11.31V7.91l-3.34-1.51V16.72q0,5.17,0,10.34a50.81,50.81,0,0,0,.18,6.86c.37,2.75,1.62,5.34,4.53,6l.68-2.92c0,.11-1-.72-1.11-.82A2.79,2.79,0,0,1,157,35.34Z" transform="translate(-2.48 -1.66)"/><path class="cls-1" d="M149.36,30.26c.06-2.18.13-4.37.13-6.56q0-4.19-2-5.62a9.57,9.57,0,0,0-5.62-1.43c-3.05,0-7,1-7.87,4.36a8.18,8.18,0,0,0-.22,2c0,.12.08.39.12.62l3-1.15.16-.08q.14-3.18,4.6-3.18a6.08,6.08,0,0,1,3.09.6A2.43,2.43,0,0,1,146,21.36a14.28,14.28,0,0,1,.21,2.92h-1.63q-11.33,0-11.33,6.57a4.85,4.85,0,0,0,1.8,3.9,6.91,6.91,0,0,0,4.59,1.51,9.24,9.24,0,0,0,6.56-2.37h.06s.42,1.86.47,2c.35,1.13.1,1.36,1,2.14.3.26,3-.48,3.35-.22C148.87,36.11,149.29,32.7,149.36,30.26Zm-3.19.64a6.11,6.11,0,0,1-2.42,2,7.23,7.23,0,0,1-3.18.74,4.78,4.78,0,0,1-2.86-.77,2.56,2.56,0,0,1-1.06-2.2q0-3.94,7.25-3.94h2.28Z" transform="translate(-2.48 -1.66)"/><path class="cls-1" d="M137.41,4.49c-2.19.18-4,1.76-5.22,3.85A22.64,22.64,0,0,0,130,14.16l-1.76,7.41L125.56,31l-2.35-8.51c-.62-2.24-.9-4.6-1.52-6.84-.51-1.86-1.18-7.66-3.92-7.71s-3.09,5.34-3.6,7.17l-1.92,7-1.74,6.29c-.16.58-.88,2-.73,2.65L108,23.61c-1-3.92-1.48-7.94-2.84-11.77s-4.17-8.62-9-8.23c-5.85.47-7.42,7.39-4.59,11.75a5,5,0,0,0,3.59,2.32h.25a3.3,3.3,0,0,0,2.51-1.17,4.72,4.72,0,0,0,.81-5L95.32,9.79c.22.54,1,4.85,0,4.85a1.39,1.39,0,0,1-1-.6,5.36,5.36,0,0,1-1-4.89A3.69,3.69,0,0,1,94.4,7.39a3.79,3.79,0,0,1,4.66.27,9.44,9.44,0,0,1,2.63,4.26,86.44,86.44,0,0,1,2.94,10.79c.57,2.49,1.24,4.95,1.92,7.41.11.41,1.3,5.71,1.6,5.71,0,0,.08,1.72,1.54,1.72s1.92-1.95,2.18-3.12.63-2.42,1-3.63l2.52-9.1,1.63-5.9c.15-.53.84-2,.69-2.5l6.22,22.52s.25,1.72,1.62,1.72,1.84-2,2.1-3.14.61-2.34.93-3.5L131,22c.9-3.26,1.6-6.68,2.74-9.88a12.41,12.41,0,0,1,1-2.23,5.5,5.5,0,0,1,3.53-3C138.08,6.3,137.76,5.43,137.41,4.49Z" transform="translate(-2.48 -1.66)"/><path class="cls-1" d="M57.11,25.23c-.18,1.61-.43,3.17-.49,4.8a19.62,19.62,0,0,0,.54,5.79h3.1A13.29,13.29,0,0,1,59.5,31c0-1.74.23-3.47.37-5.2a13.55,13.55,0,0,0-.11-5c-.86-2.81-3.34-4.13-6.16-4.13A7.37,7.37,0,0,0,48,19.46V17.07l-3.34-.9V35.82H48V22.73c1.7-2,3.42-2.9,5.12-2.9a4.37,4.37,0,0,1,3.34,1.48C57.41,22.51,57.27,23.81,57.11,25.23Z" transform="translate(-2.48 -1.66)"/><path class="cls-1" d="M77.36,17.07l-5,14.67-5-14.67-3.8-.9,7.28,19.65c.15.4-.44,1.45-.88,2.18-1.43,2.37-4.62,2.45-6.86,1.27a5.6,5.6,0,0,1-1.46-1.14H58A10,10,0,0,0,59.26,40a9.09,9.09,0,0,0,8.86,2.9c4.09-1,5-5,6.29-8.47L76.85,28l2.78-7.37a36.09,36.09,0,0,1,1.74-4.42Z" transform="translate(-2.48 -1.66)"/></svg>