<svg id="Layer_1" data-name="Layer 1" xmlns="http://www.w3.org/2000/svg" xmlns:xlink="http://www.w3.org/1999/xlink" viewBox="0 0 270.74 110.04"><defs><style>.cls-1{opacity:0.65;}.cls-2{fill:url(#linear-gradient);}.cls-3{fill:url(#linear-gradient-2);}.cls-4{fill:url(#linear-gradient-3);}.cls-5{fill:url(#linear-gradient-4);}.cls-6{fill:url(#linear-gradient-5);}.cls-7{fill:url(#linear-gradient-6);}.cls-8{fill:url(#linear-gradient-7);}.cls-9{fill:url(#linear-gradient-8);}.cls-10{fill:url(#linear-gradient-9);}.cls-11{fill:url(#linear-gradient-10);}.cls-12{fill:url(#linear-gradient-11);}.cls-13{fill:url(#linear-gradient-12);}.cls-14{fill:url(#linear-gradient-13);}.cls-15{fill:url(#linear-gradient-14);}.cls-16{fill:url(#linear-gradient-15);}.cls-17{fill:url(#linear-gradient-16);}.cls-18{fill:url(#linear-gradient-17);}.cls-19{fill:url(#linear-gradient-18);}.cls-20{fill:url(#linear-gradient-19);}.cls-21{fill:url(#linear-gradient-20);}</style><linearGradient id="linear-gradient" x1="159.68" y1="-4.71" x2="159.68" y2="55.63" gradientTransform="translate(-7.29 15.18) rotate(-1.07)" gradientUnits="userSpaceOnUse"><stop offset="0" stop-color="#396187" stop-opacity="0.7"/><stop offset="0.68" stop-color="#204b59"/><stop offset="0.75" stop-color="#235661"/><stop offset="0.88" stop-color="#2c7377"/><stop offset="1" stop-color="#36948f"/></linearGradient><linearGradient id="linear-gradient-2" x1="181.91" y1="-4.71" x2="181.91" y2="55.63" xlink:href="#linear-gradient"/><linearGradient id="linear-gradient-3" x1="202.82" y1="-4.71" x2="202.82" y2="55.63" xlink:href="#linear-gradient"/><linearGradient id="linear-gradient-4" x1="217.57" y1="-4.71" x2="217.57" y2="55.63" xlink:href="#linear-gradient"/><linearGradient id="linear-gradient-5" x1="245.22" y1="-4.71" x2="245.22" y2="55.63" xlink:href="#linear-gradient"/><linearGradient id="linear-gradient-6" x1="50.94" y1="-4.71" x2="50.94" y2="55.63" xlink:href="#linear-gradient"/><linearGradient id="linear-gradient-7" x1="57.19" y1="-4.71" x2="57.19" y2="55.63" xlink:href="#linear-gradient"/><linearGradient id="linear-gradient-8" x1="73.24" y1="-4.71" x2="73.24" y2="55.63" xlink:href="#linear-gradient"/><linearGradient id="linear-gradient-9" x1="85.35" y1="-4.71" x2="85.35" y2="55.63" xlink:href="#linear-gradient"/><linearGradient id="linear-gradient-10" x1="64.23" y1="-4.71" x2="64.23" y2="55.63" gradientTransform="matrix(0.03, 1, -1, 0.03, 74.48, -31.46)" xlink:href="#linear-gradient"/><linearGradient id="linear-gradient-11" x1="158.37" y1="7.51" x2="158.37" y2="77.27" gradientTransform="translate(-7.29 15.18) rotate(-1.07)" gradientUnits="userSpaceOnUse"><stop offset="0" stop-color="#cf8c59"/><stop offset="0.35" stop-color="#ad764a"/><stop offset="1" stop-color="#6b442e"/></linearGradient><linearGradient id="linear-gradient-12" x1="180.61" y1="7.51" x2="180.61" y2="77.27" xlink:href="#linear-gradient-11"/><linearGradient id="linear-gradient-13" x1="201.51" y1="7.51" x2="201.51" y2="77.27" xlink:href="#linear-gradient-11"/><linearGradient id="linear-gradient-14" x1="216.26" y1="7.51" x2="216.26" y2="77.27" xlink:href="#linear-gradient-11"/><linearGradient id="linear-gradient-15" x1="243.91" y1="7.51" x2="243.91" y2="77.27" xlink:href="#linear-gradient-11"/><linearGradient id="linear-gradient-16" x1="49.63" y1="7.51" x2="49.63" y2="77.27" xlink:href="#linear-gradient-11"/><linearGradient id="linear-gradient-17" x1="55.88" y1="7.51" x2="55.88" y2="77.27" xlink:href="#linear-gradient-11"/><linearGradient id="linear-gradient-18" x1="71.93" y1="7.51" x2="71.93" y2="77.27" xlink:href="#linear-gradient-11"/><linearGradient id="linear-gradient-19" x1="84.04" y1="7.51" x2="84.04" y2="77.27" xlink:href="#linear-gradient-11"/><linearGradient id="linear-gradient-20" x1="62.92" y1="7.51" x2="62.92" y2="77.27" gradientTransform="matrix(0.03, 1, -1, 0.03, 69.7, -33.46)" xlink:href="#linear-gradient-11"/></defs><title>logo</title><g class="cls-1"><path class="cls-2" d="M150.24,70a7.61,7.61,0,0,1-5.06-2,10.23,10.23,0,0,1-2.54-3.94c-2.62,2-7,4.52-11.15,4.24a7.4,7.4,0,0,1-5.43-2.75c-2.2-2.74-2.45-6.21-2.52-9.53-.19-9.87,3.82-19.09,7.33-26,.42-.83.85-1.65,1.27-2.47,1.36-2.62,2.77-5.33,3.86-8.07.16-.4.33-.81.51-1.22.95-2.25,1.93-4.57,1.26-6.49a3.92,3.92,0,0,0-3.93-2.44,12.62,12.62,0,0,0-7.15,3.13c-3.37,2.9-5.91,7.47-4,11.13.81,1.55,3,1.81,4.63,1.27,2.14-.7,3-2.94,3.23-3.87a3,3,0,0,0-.32-2.43.75.75,0,0,0-.36.34.15.15,0,0,0,0-.08l-3.59,2.05a3.4,3.4,0,0,1,0-4,4.93,4.93,0,0,1,4.36-2.07,4.39,4.39,0,0,1,3.13,1.63,6.57,6.57,0,0,1,.94,5.52,9.19,9.19,0,0,1-5.89,6.51c-3.43,1.12-8.09.37-10-3.25-2.8-5.36.44-11.64,4.9-15.48a17,17,0,0,1,9.88-4.19,8.18,8.18,0,0,1,8.24,5.12c1.12,3.18-.24,6.4-1.33,9-.17.39-.33.78-.48,1.16-1.16,2.9-2.61,5.69-4,8.39-.42.81-.84,1.63-1.26,2.44-3.33,6.57-7.13,15.27-7,24.38.06,2.83.23,5.52,1.71,7.37a3,3,0,0,0,2.27,1.16c2.91.18,7.11-2.36,9.13-4.23l.63-.6a43.73,43.73,0,0,1-.36-4.7,68.77,68.77,0,0,1,.52-10.39A65.52,65.52,0,0,1,145,29.11a18.92,18.92,0,0,1,3.83-6.67A6.93,6.93,0,0,1,155,20.28a5.36,5.36,0,0,1,4.11,3.6c1.06,3,.22,6-.51,8.64-.18.63-.35,1.25-.49,1.86-.65,2.77-1.54,6.43-2.78,10.07a45.24,45.24,0,0,1-9.21,16.37,8.65,8.65,0,0,0,2.15,4.51,3,3,0,0,0,2.33.82,5.64,5.64,0,0,0,3.76-2c1.9-2.24,3-5.61,3.95-8.58l.3-.92c1.21-3.7,2.13-7.46,3-11l0-.19c1.61-6.8,3.27-13.84,6.12-20.48,3.87-9,8.41-14.85,13.86-17.88a17.41,17.41,0,0,1,4.32-1.71L187,7.11a12.91,12.91,0,0,0-3.2,1.27c-4.64,2.57-8.61,7.81-12.14,16-2.73,6.36-4.36,13.24-5.93,19.9l0,.19c-.85,3.61-1.79,7.46-3,11.29l-.29.9c-1.06,3.29-2.27,7-4.64,9.82A9.93,9.93,0,0,1,150.82,70Zm3.7-46a2.74,2.74,0,0,0-1.85.93,15.64,15.64,0,0,0-3,5.4A62.34,62.34,0,0,0,146,45a65.4,65.4,0,0,0-.5,9.88V55a45.73,45.73,0,0,0,5.74-11.71c1.19-3.5,2.06-7,2.69-9.74.15-.65.34-1.32.53-2C155,29.32,155.7,27,155,25c-.15-.42-.42-.93-.9-1Z"/><path class="cls-3" d="M185.51,36.08A4,4,0,0,0,181.93,35c-4.67.52-8.41,3.89-11.13,6.35l3,2.69c2.19-2,5.14-4.64,8.2-5.19a14.06,14.06,0,0,1-.4,1.35l-.06.18c-.59,1.76-1.26,3.57-1.91,5.31l-.14.39a6.69,6.69,0,0,0-3-.48c-7,.27-11.32,7.58-12.16,12.68-.26,1.6-.43,4.54,1.4,6.35A5,5,0,0,0,169.36,66h.39a12,12,0,0,0,5.75-2,5.2,5.2,0,0,0,2.08,3.69,7.4,7.4,0,0,0,4.26,1.21,19.55,19.55,0,0,0,2.15-.11L183.54,65c-.91.08-2.59.24-3.29-.27-.42-.3-.61-1.09-.57-2.33.15-4.39,1.5-8.62,3.09-13l.28-.19-.15-.18.8-2.15c.66-1.77,1.35-3.6,2-5.43l.06-.17C186.22,39.86,187,37.63,185.51,36.08Zm-16,26.15c-.44,0-.55-.09-.59-.13-.36-.36-.62-1.52-.34-3.23.61-3.75,3.86-9.28,8.14-9.44a1.58,1.58,0,0,1,1.4.42,50.71,50.71,0,0,0-2.39,9C174,60.45,171.51,62.16,169.54,62.23Z"/><path class="cls-4" d="M189.55,69.22a5.67,5.67,0,0,1-1.33-.18c-4.26-1.1-3.79-6.54-3.6-8.86l0-.22c.8-9.66,6.18-21.82,11.37-33.59a187.51,187.51,0,0,0,7.29-18l4.11,1A190,190,0,0,1,200,27.79c-4.84,11-10.33,23.38-11.09,32.47l0,.23c-.39,4.61.47,4.88.51,4.89.94.24,3.4-1.08,5.87-3.73l3.28,2.45C196.64,66.14,193.12,69.28,189.55,69.22Z"/><path class="cls-5" d="M204.31,69.46a5.64,5.64,0,0,1-1.33-.18c-4.26-1.1-3.79-6.54-3.6-8.86l0-.22c.8-9.66,6.18-21.82,11.37-33.59a187.51,187.51,0,0,0,7.29-18l4.11,1A190,190,0,0,1,214.74,28c-4.84,11-10.33,23.38-11.09,32.47l0,.23c-.39,4.61.47,4.88.51,4.89.94.24,3.4-1.08,5.87-3.73l3.28,2.45C211.4,66.37,207.88,69.52,204.31,69.46Z"/><path class="cls-6" d="M250.77,27.45c.7-2.65,1.38-5.36,1.9-8.08a51.86,51.86,0,0,0,.85-6.38v-.1c.13-2,.13-4-1.44-4.82a2.82,2.82,0,0,0-2.67,0c-1.3.68-1.7,2.11-2.08,3.9,0,.23-.09.43-.13.57q-.67,2.25-1.32,4.5c-1,3.42-1.81,6.28-2.55,9l-.38,1.41c-7.7.05-14.75.21-18,.46l.38,3.8c3.07-.24,9.49-.39,16.63-.44-1.23,4.76-2.25,9.15-3.09,13.3-.42,2.05-.84,4.26-1.18,6.55-2.11,4-4.38,7.64-8.32,9.78-1.72.93-7.62,3.66-11.17-.41a8.51,8.51,0,0,1-1.9-6.77,40.29,40.29,0,0,0,4.1.07c4.09-.11,10.28-.28,13.58-4.35a3.3,3.3,0,0,0,.65-3.63c-1.06-2.26-4.68-3.08-6.74-3.37a14.67,14.67,0,0,0-12.74,4.25,11.93,11.93,0,0,0-1.87,2.7,10,10,0,0,1-4.14-2.14l-3,2.7a14.35,14.35,0,0,0,6,3.1,12.05,12.05,0,0,0,2.74,9.78c3.8,4.36,10.21,4.87,16.74,1.33a19.17,19.17,0,0,0,5.34-4.31q0,.35,0,.69c0,2.89.75,5,2.25,6.35a7.26,7.26,0,0,0,4.78,1.67c2.34,0,5.32-.77,8.78-3.27l-2.69-3c-2.24,1.62-6.27,3.35-7.82,1.92-.68-.62-1-1.87-1-3.7a57.47,57.47,0,0,1,.64-8.33l.8-1.55.25-.48a90.39,90.39,0,0,0,6.78-18.47l.12-.46c8.66,0,17,.15,20.64.42l.34-3.8C267.18,27.61,259.2,27.47,250.77,27.45ZM218.42,49.14a10.13,10.13,0,0,1,8.79-2.91,9.48,9.48,0,0,1,3.3,1l0,0c-2.07,2.56-6.62,2.68-10.27,2.78-.82,0-1.66,0-2.5,0A8.06,8.06,0,0,1,218.42,49.14Z"/><path class="cls-7" d="M83,8.54A39.68,39.68,0,0,1,63.91,19.77a67.4,67.4,0,0,1-8.59,1.5L57.2,17.6,53.32,16l-2.94,5.75c-1.52.12-3,.23-4.53.33-2.22.15-4.52.32-6.78.53l-.95.09c-2.27-4.43-7.18-7.14-13-7.19A24.41,24.41,0,0,0,7,24.16C2.17,29.72.29,36.51,2,42.34,3.34,47,7.44,50.94,13,52.75a30.88,30.88,0,0,0,9.19,1.4,76,76,0,0,0,8.59-.46l-.48-3.79c-5.31.52-10.91.89-15.85-.73-4.27-1.4-7.3-4.23-8.32-7.77-1.36-4.69.24-10.26,4.27-14.89s9.44-7.21,14.72-7.18h.15a10.32,10.32,0,0,1,8.32,3.86c-8,1-17.69,3.29-20.84,10.55-1.24,2.85-1.15,7.1,2,9.69,3.57,3,8.9,2.61,11,2.33a15.86,15.86,0,0,0,11.33-7A16.55,16.55,0,0,0,39.4,26.42h.13c2.21-.2,4.47-.36,6.67-.52l2.15-.15-.71,1.39C44,34.26,40.2,41.63,36.83,49a62.9,62.9,0,0,0-2.48,6.06,34.87,34.87,0,0,0-1.8,10.51c-.07,4.42.92,7.77,3,10.25a11.05,11.05,0,0,0,7.93,3.68,8.46,8.46,0,0,0,4.3-1l-2.27-3.24c-2,1.14-5.11,0-6.57-1.7s-2.21-4.34-2.16-7.88a31.43,31.43,0,0,1,1.62-9.47,59.8,59.8,0,0,1,2.34-5.71c3.34-7.33,7.1-14.67,10.73-21.76l1.74-3.39a79.09,79.09,0,0,0,11.84-1.9A44,44,0,0,0,86.3,11ZM33.39,36.85A11.48,11.48,0,0,1,25.08,42c-3.16.42-6-.08-7.49-1.35s-1.63-3.81-.89-5.5c2.46-5.66,11.27-7.44,18.45-8.28A13,13,0,0,1,33.39,36.85Z"/><path class="cls-8" d="M48.93,64.43l-4.14-.91c2.52-9.32,5-17.45,7.54-24.86l4.08,1.13C53.88,47.12,51.43,55.18,48.93,64.43Z"/><path class="cls-9" d="M75.05,71.06l-4.25-.29c.08-1,.17-2.21.28-3.61.36-4.88.86-11.56,1.38-14.64.69-4.07,1.33-8,1.61-11.78-.3.29-.55.53-.69.68A72.07,72.07,0,0,0,58.81,64.08L54.72,63c.58-2.58,1.06-5.36,1.52-8,.41-2.39.84-4.86,1.33-7.15l4.19.73q-.14.67-.28,1.36A77.77,77.77,0,0,1,70.1,39a44.46,44.46,0,0,1,5-4.34l3.36-2.28.07,3.77c.09,5.26-.8,11-1.81,17-.49,2.92-1,9.51-1.34,14.32C75.23,68.84,75.13,70.1,75.05,71.06Z"/><path class="cls-10" d="M69.54,110c-7.35-.12-13.95-3.13-17.69-8.1-3.61-4.79-3.7-12.28-.21-17.81S62,75.47,70.12,75.56h.05c4.89.08,9.73,3.28,11,7.32a13,13,0,0,1-3.94,13.31,12.72,12.72,0,0,1-8.2,2.92H69a8.81,8.81,0,0,1-6-2.29c-2.84-2.68-2.37-6.52,1.22-10l3.15,2.58c-1.18,1.15-2.91,3.31-1.29,4.84a4.33,4.33,0,0,0,3,1.09h0a8.14,8.14,0,0,0,5.17-1.86,9.46,9.46,0,0,0,2.82-9.51c-.87-2.68-4.31-4.51-7-4.55h0C63.54,79.3,58,81.78,55.35,86s-2.69,10.2,0,13.8c3,4,8.46,6.38,14.49,6.41,5.76,0,10.9-2.19,13.75-5.93S88,91.66,89.32,87l.55-1.84c1.93-6.42,3.28-12.93,4.6-19.58.29-1.44.53-2.91.74-4.38C93,63,90,64.9,86.91,64.74a6.51,6.51,0,0,1-4.66-2.37c-3.54-4.15-2-9.91-.86-14.13a94.43,94.43,0,0,1,4.91-13.56l4,1.4a91,91,0,0,0-4.72,13c-.95,3.53-2.23,8.27.08,11a2.07,2.07,0,0,0,1.54.87c2.32.13,5.76-3,7.07-4.19l.3-.27q.75-.67,1.45-1.4c.34-2.81.69-5.72,1.18-8.58A40.53,40.53,0,0,1,100.56,35c1.31-2.58,3.21-2.83,4.22-2.75A4.29,4.29,0,0,1,108,34c2.45,3.49-.78,11.18-.92,11.5a39.32,39.32,0,0,1-7,11.11c-.38,3.17-.8,6.42-1.43,9.63C97.33,73,96,79.62,94,86.19L93.45,88c-1.45,4.94-3,10-6.3,14.44C83.5,107.23,77,110.07,69.86,110Zm35-73.68-.14.25a37.47,37.47,0,0,0-3,10.5q-.08.46-.16.92a39,39,0,0,0,1.89-3.85C104.34,41.34,105,37.61,104.58,36.35Z"/><ellipse class="cls-11" cx="57.3" cy="33.4" rx="3.29" ry="3.68" transform="translate(22.98 90.16) rotate(-89.08)"/></g><path class="cls-12" d="M148.87,66.55a7.61,7.61,0,0,1-5.06-2,10.23,10.23,0,0,1-2.54-3.94c-2.62,2-7,4.52-11.15,4.24a7.4,7.4,0,0,1-5.43-2.75c-2.2-2.74-2.45-6.21-2.52-9.53-.19-9.87,3.82-19.09,7.33-26,.42-.83.85-1.65,1.27-2.47,1.36-2.62,2.77-5.33,3.86-8.07.16-.4.33-.81.51-1.22.95-2.25,1.93-4.57,1.26-6.49a3.92,3.92,0,0,0-3.93-2.44A12.62,12.62,0,0,0,125.32,9c-3.37,2.9-5.91,7.47-4,11.13.81,1.55,3,1.81,4.63,1.27,2.14-.7,3-2.94,3.23-3.87a3,3,0,0,0-.32-2.43.75.75,0,0,0-.36.34.15.15,0,0,0,0-.08l-3.59,2.05a3.4,3.4,0,0,1,0-4,4.93,4.93,0,0,1,4.36-2.07A4.39,4.39,0,0,1,132.38,13a6.57,6.57,0,0,1,.94,5.52A9.19,9.19,0,0,1,127.43,25c-3.43,1.12-8.09.37-10-3.25-2.8-5.36.44-11.64,4.9-15.48a17,17,0,0,1,9.88-4.19,8.18,8.18,0,0,1,8.24,5.12c1.12,3.18-.24,6.4-1.33,9-.17.39-.33.78-.48,1.16-1.16,2.9-2.61,5.69-4,8.39-.42.81-.84,1.63-1.26,2.44-3.33,6.57-7.13,15.27-7,24.38.06,2.83.23,5.52,1.71,7.37a3,3,0,0,0,2.27,1.16c2.91.18,7.11-2.36,9.13-4.23l.63-.6a43.73,43.73,0,0,1-.36-4.7,68.77,68.77,0,0,1,.52-10.39,65.52,65.52,0,0,1,3.32-15.46A18.92,18.92,0,0,1,147.49,19a6.93,6.93,0,0,1,6.09-2.15,5.36,5.36,0,0,1,4.11,3.6c1.06,3,.22,6-.51,8.64-.18.63-.35,1.25-.49,1.86-.65,2.77-1.54,6.43-2.78,10.07a45.24,45.24,0,0,1-9.21,16.37,8.65,8.65,0,0,0,2.15,4.51,3,3,0,0,0,2.33.82,5.64,5.64,0,0,0,3.76-2c1.9-2.24,3-5.61,3.95-8.58l.3-.92c1.21-3.7,2.13-7.46,3-11l0-.19c1.61-6.8,3.27-13.84,6.12-20.48,3.87-9,8.41-14.85,13.86-17.88A17.41,17.41,0,0,1,184.5,0l1.13,3.68A12.91,12.91,0,0,0,182.43,5c-4.64,2.57-8.61,7.81-12.14,16-2.73,6.36-4.36,13.24-5.93,19.9l0,.19c-.85,3.61-1.79,7.46-3,11.29l-.29.9c-1.06,3.29-2.27,7-4.64,9.82a9.93,9.93,0,0,1-6.89,3.48Zm3.7-46a2.74,2.74,0,0,0-1.85.93,15.64,15.64,0,0,0-3,5.4,62.34,62.34,0,0,0-3.12,14.64,65.4,65.4,0,0,0-.5,9.88v.19a45.73,45.73,0,0,0,5.74-11.71c1.19-3.5,2.06-7,2.69-9.74.15-.65.34-1.32.53-2,.63-2.27,1.28-4.62.59-6.56-.15-.42-.42-.93-.9-1Z"/><path class="cls-13" d="M184.14,32.66a4,4,0,0,0-3.58-1.05c-4.67.52-8.41,3.89-11.13,6.35l3,2.69c2.19-2,5.14-4.64,8.2-5.19a14.06,14.06,0,0,1-.4,1.35l-.06.18c-.59,1.76-1.26,3.57-1.91,5.31l-.14.39a6.69,6.69,0,0,0-3-.48c-7,.27-11.32,7.58-12.16,12.68-.26,1.6-.43,4.54,1.4,6.35A5,5,0,0,0,168,62.62h.39a12,12,0,0,0,5.75-2,5.2,5.2,0,0,0,2.08,3.69,7.4,7.4,0,0,0,4.26,1.21,19.55,19.55,0,0,0,2.15-.11l-.45-3.79c-.91.08-2.59.24-3.29-.27-.42-.3-.61-1.09-.57-2.33.15-4.39,1.5-8.62,3.09-13l.28-.19-.15-.18.8-2.15c.66-1.77,1.35-3.6,2-5.43l.06-.17C184.84,36.43,185.59,34.2,184.14,32.66Zm-16,26.15c-.44,0-.55-.09-.59-.13-.36-.36-.62-1.52-.34-3.23.61-3.75,3.86-9.28,8.14-9.44a1.58,1.58,0,0,1,1.4.42,50.71,50.71,0,0,0-2.39,9C172.62,57,170.14,58.73,168.17,58.81Z"/><path class="cls-14" d="M188.18,65.8a5.67,5.67,0,0,1-1.33-.18c-4.26-1.1-3.79-6.54-3.6-8.86l0-.22c.8-9.66,6.18-21.82,11.37-33.59a187.51,187.51,0,0,0,7.29-18L206,6a190,190,0,0,1-7.43,18.37c-4.84,11-10.33,23.38-11.09,32.47l0,.23c-.39,4.61.47,4.88.51,4.89.94.24,3.4-1.08,5.87-3.73l3.28,2.45C195.26,62.71,191.75,65.85,188.18,65.8Z"/><path class="cls-15" d="M202.94,66a5.64,5.64,0,0,1-1.33-.18c-4.26-1.1-3.79-6.54-3.6-8.86l0-.22c.8-9.66,6.18-21.82,11.37-33.59a187.51,187.51,0,0,0,7.29-18l4.11,1a190,190,0,0,1-7.43,18.37C208.53,35.56,203,48,202.28,57.07l0,.23c-.39,4.61.47,4.88.51,4.89.94.24,3.4-1.08,5.87-3.73l3.28,2.45C210,62.95,206.51,66.09,202.94,66Z"/><path class="cls-16" d="M249.39,24c.7-2.65,1.38-5.36,1.9-8.08a51.86,51.86,0,0,0,.85-6.38v-.1c.13-2,.13-4-1.44-4.82a2.82,2.82,0,0,0-2.67,0c-1.3.68-1.7,2.11-2.08,3.9,0,.23-.09.43-.13.57q-.67,2.25-1.32,4.5c-1,3.42-1.81,6.28-2.55,9L241.57,24c-7.7.05-14.75.21-18,.46l.38,3.8c3.07-.24,9.49-.39,16.63-.44-1.23,4.76-2.25,9.15-3.09,13.3-.42,2.05-.84,4.26-1.18,6.55-2.11,4-4.38,7.64-8.32,9.78-1.72.93-7.62,3.66-11.17-.41a8.51,8.51,0,0,1-1.9-6.77,40.29,40.29,0,0,0,4.1.07c4.09-.11,10.28-.28,13.58-4.35a3.3,3.3,0,0,0,.65-3.63c-1.06-2.26-4.68-3.08-6.74-3.37a14.67,14.67,0,0,0-12.74,4.25,11.93,11.93,0,0,0-1.87,2.7,10,10,0,0,1-4.14-2.14l-3,2.7a14.35,14.35,0,0,0,6,3.1,12.05,12.05,0,0,0,2.74,9.78c3.8,4.36,10.21,4.87,16.74,1.33a19.17,19.17,0,0,0,5.34-4.31q0,.35,0,.69c0,2.89.75,5,2.25,6.35a7.26,7.26,0,0,0,4.78,1.67c2.34,0,5.32-.77,8.78-3.27l-2.69-3c-2.24,1.62-6.27,3.35-7.82,1.92-.68-.62-1-1.87-1-3.7a57.47,57.47,0,0,1,.64-8.33l.8-1.55.25-.48a90.39,90.39,0,0,0,6.78-18.47l.12-.46c8.66,0,17,.15,20.64.42l.34-3.8C265.81,24.19,257.83,24,249.39,24ZM217,45.71a10.13,10.13,0,0,1,8.79-2.91,9.48,9.48,0,0,1,3.3,1l0,0c-2.07,2.56-6.62,2.68-10.27,2.78-.82,0-1.66,0-2.5,0A8.06,8.06,0,0,1,217,45.71Z"/><path class="cls-17" d="M81.68,5.11A39.68,39.68,0,0,1,62.54,16.34,67.4,67.4,0,0,1,54,17.84l1.88-3.67-3.88-1.6L49,18.33c-1.52.12-3,.23-4.53.33-2.22.15-4.52.32-6.78.53l-.95.09c-2.27-4.43-7.18-7.14-13-7.19A24.41,24.41,0,0,0,5.64,20.73C.8,26.29-1.08,33.09.61,38.92c1.36,4.7,5.47,8.59,11,10.41a30.88,30.88,0,0,0,9.19,1.4,76,76,0,0,0,8.59-.46l-.48-3.79c-5.31.52-10.91.89-15.85-.73-4.27-1.4-7.3-4.23-8.32-7.77C3.38,33.28,5,27.71,9,23.08s9.44-7.21,14.72-7.18h.15a10.32,10.32,0,0,1,8.32,3.86c-8,1-17.69,3.29-20.84,10.55-1.24,2.85-1.15,7.1,2,9.69,3.57,3,8.9,2.61,11,2.33a15.86,15.86,0,0,0,11.33-7A16.55,16.55,0,0,0,38,23h.13c2.21-.2,4.47-.36,6.67-.52L47,22.31l-.71,1.39c-3.65,7.13-7.42,14.5-10.8,21.9A62.9,62.9,0,0,0,33,51.67a34.87,34.87,0,0,0-1.8,10.51c-.07,4.42.92,7.77,3,10.25a11.05,11.05,0,0,0,7.93,3.68,8.46,8.46,0,0,0,4.3-1l-2.27-3.24c-2,1.14-5.11,0-6.57-1.7s-2.21-4.34-2.16-7.88a31.43,31.43,0,0,1,1.62-9.47,59.8,59.8,0,0,1,2.34-5.71c3.34-7.33,7.1-14.67,10.73-21.76l1.74-3.39A79.09,79.09,0,0,0,63.71,20,44,44,0,0,0,84.93,7.58ZM32,33.43a11.48,11.48,0,0,1-8.31,5.13c-3.16.42-6-.08-7.49-1.35s-1.63-3.81-.89-5.5c2.46-5.66,11.27-7.44,18.45-8.28A13,13,0,0,1,32,33.43Z"/><path class="cls-18" d="M47.56,61l-4.14-.91c2.52-9.32,5-17.45,7.54-24.86L55,36.36C52.5,43.7,50.06,51.76,47.56,61Z"/><path class="cls-19" d="M73.68,67.64l-4.25-.29c.08-1,.17-2.21.28-3.61.36-4.88.86-11.56,1.38-14.64.69-4.07,1.33-8,1.61-11.78-.3.29-.55.53-.69.68A72.07,72.07,0,0,0,57.44,60.65l-4.08-1.06c.58-2.58,1.06-5.36,1.52-8,.41-2.39.84-4.86,1.33-7.15l4.19.73q-.14.67-.28,1.36a77.77,77.77,0,0,1,8.61-10.93,44.46,44.46,0,0,1,5-4.34L77,28.93l.07,3.77c.09,5.26-.8,11-1.81,17-.49,2.92-1,9.51-1.34,14.32C73.85,65.42,73.76,66.67,73.68,67.64Z"/><path class="cls-20" d="M68.16,106.61c-7.35-.12-13.95-3.13-17.69-8.1-3.61-4.79-3.7-12.28-.21-17.81S60.63,72,68.75,72.13h.05c4.89.08,9.73,3.28,11,7.32A13,13,0,0,1,75.9,92.76a12.72,12.72,0,0,1-8.2,2.92h-.05a8.81,8.81,0,0,1-6-2.29c-2.84-2.68-2.37-6.52,1.22-10L66,85.94c-1.18,1.15-2.91,3.31-1.29,4.84a4.33,4.33,0,0,0,3,1.09h0A8.14,8.14,0,0,0,72.93,90a9.46,9.46,0,0,0,2.82-9.51c-.87-2.68-4.31-4.51-7-4.55h0c-6.55-.07-12.06,2.41-14.74,6.64s-2.69,10.2,0,13.8c3,4,8.46,6.38,14.49,6.41,5.76,0,10.9-2.19,13.75-5.93s4.35-8.64,5.71-13.27l.55-1.84c1.93-6.42,3.28-12.93,4.6-19.58.29-1.44.53-2.91.74-4.38-2.19,1.76-5.23,3.67-8.3,3.51a6.51,6.51,0,0,1-4.66-2.37c-3.54-4.15-2-9.91-.86-14.13a94.43,94.43,0,0,1,4.91-13.56l4,1.4a91,91,0,0,0-4.72,13c-.95,3.53-2.23,8.27.08,11a2.07,2.07,0,0,0,1.54.87c2.32.13,5.76-3,7.07-4.19l.3-.27q.75-.67,1.45-1.4c.34-2.81.69-5.72,1.18-8.58a40.53,40.53,0,0,1,3.37-11.48c1.31-2.58,3.21-2.83,4.22-2.75a4.29,4.29,0,0,1,3.25,1.77c2.45,3.49-.78,11.18-.92,11.5a39.32,39.32,0,0,1-7,11.11c-.38,3.17-.8,6.42-1.43,9.63C96,69.6,94.59,76.2,92.61,82.76l-.54,1.82c-1.45,4.94-3,10-6.3,14.44-3.64,4.78-10.1,7.62-17.28,7.58Zm35-73.68-.14.25a37.47,37.47,0,0,0-3,10.5q-.08.46-.16.92a39,39,0,0,0,1.89-3.85C103,37.92,103.63,34.18,103.21,32.93Z"/><ellipse class="cls-21" cx="55.92" cy="29.98" rx="3.29" ry="3.68" transform="translate(25.05 85.42) rotate(-89.08)"/></svg>